<?xml version="1.0" encoding="UTF-8"?>
<svg id="Layer_2" xmlns="http://www.w3.org/2000/svg" viewBox="0 0 252.81 249.89">
  <defs>
    <style>
      .cls-1 {
        fill: none;
        stroke: #d1caa1;
        stroke-miterlimit: 10;
      }

      .cls-2 {
        fill: #d1caa1;
      }
    </style>
  </defs>
  <g id="bg_cover">
    <g>
      <g>
        <path class="cls-1" d="M126.41,225.28c-55.1,0-99.93-45.01-99.93-100.34S71.3,24.61,126.41,24.61s99.93,45.01,99.93,100.34-44.83,100.34-99.93,100.34Z"/>
        <path class="cls-1" d="M126.41,221.34c-52.94,0-96.01-43.24-96.01-96.4S73.46,28.54,126.41,28.54s96.01,43.24,96.01,96.4-43.07,96.4-96.01,96.4Z"/>
      </g>
      <g>
        <g>
          <path class="cls-2" d="M237.53,149.94c-2.19,0-4.78-2.92-6.16-6.93-.82-2.38-3.5-11.25-4.51-14.57,2.33,2.55,8.53,9.35,10.14,11.25,2.28,2.7,3.53,5.78,3.17,7.87-.15.91-.6,1.58-1.33,2.01-.42.24-.86.37-1.32.37Z"/>
          <path class="cls-2" d="M246.37,140.58c-2,0-4.69-1.26-7-3.29-1.88-1.65-8.58-7.98-11.07-10.34,3.26,1.02,11.98,3.76,14.32,4.59,3.27,1.16,5.86,3.19,6.6,5.16.33.88.28,1.7-.15,2.46-.53.94-1.44,1.41-2.7,1.41Z"/>
          <path class="cls-2" d="M246.56,128.56c-1,0-2.03-.1-3.07-.3-2.43-.47-11.35-2.54-14.66-3.32,3.32-.77,12.23-2.85,14.66-3.32,1.04-.2,2.07-.3,3.07-.3,2.89,0,6.25.95,6.25,3.62s-3.37,3.62-6.25,3.62Z"/>
          <path class="cls-2" d="M228.3,122.94c2.49-2.36,9.2-8.69,11.07-10.34,2.31-2.03,4.99-3.29,7-3.29,1.26,0,2.17.48,2.7,1.41.43.75.48,1.58.15,2.46-.74,1.97-3.33,4-6.6,5.16-2.34.83-11.06,3.57-14.32,4.59Z"/>
          <path class="cls-2" d="M226.87,121.46c1-3.32,3.69-12.19,4.51-14.57,1.38-4.02,3.97-6.93,6.16-6.93.46,0,.9.12,1.32.37.73.43,1.18,1.1,1.33,2.01.35,2.09-.89,5.18-3.17,7.87-1.61,1.9-7.81,8.7-10.14,11.25Z"/>
        </g>
        <g>
          <path class="cls-2" d="M129.3,19.03c2.05-1.88,6.75-6.16,8.11-7.3,1.74-1.47,3.75-2.38,5.25-2.38.93,0,1.59.33,1.98,1,.3.52.34,1.08.12,1.68-.53,1.43-2.48,2.91-4.96,3.76-1.69.58-7.82,2.44-10.5,3.25Z"/>
          <path class="cls-2" d="M128.07,17.84c.82-2.63,2.72-8.66,3.31-10.32,1.03-2.9,2.96-5.01,4.59-5.01.33,0,.66.09.96.26.53.3.86.78.97,1.43.25,1.5-.68,3.72-2.38,5.66-1.17,1.34-5.55,5.97-7.45,7.98Z"/>
          <path class="cls-2" d="M126.41,17.41c-.62-2.68-2.05-8.84-2.39-10.57-.49-2.5-.17-4.88.8-6.06.43-.52.96-.78,1.59-.78s1.16.26,1.59.78c.97,1.18,1.29,3.56.8,6.06-.33,1.73-1.77,7.89-2.39,10.57Z"/>
          <path class="cls-2" d="M124.74,17.84c-1.9-2.01-6.28-6.64-7.45-7.98-1.7-1.94-2.64-4.16-2.38-5.66.11-.65.44-1.13.97-1.43.3-.17.63-.26.96-.26,1.63,0,3.56,2.11,4.59,5.01.59,1.66,2.49,7.69,3.31,10.32Z"/>
          <path class="cls-2" d="M123.51,19.03c-2.68-.81-8.81-2.67-10.5-3.25-2.48-.85-4.43-2.33-4.96-3.76-.22-.6-.18-1.17.12-1.68.39-.66,1.06-1,1.98-1,1.5,0,3.51.91,5.25,2.38,1.36,1.15,6.05,5.43,8.11,7.3Z"/>
        </g>
        <g>
          <path class="cls-2" d="M237.53,149.94c-2.19,0-4.78-2.92-6.16-6.93-.82-2.38-3.5-11.25-4.51-14.57,2.33,2.55,8.53,9.35,10.14,11.25,2.28,2.7,3.53,5.78,3.17,7.87-.15.91-.6,1.58-1.33,2.01-.42.24-.86.37-1.32.37Z"/>
          <path class="cls-2" d="M246.37,140.58c-2,0-4.69-1.26-7-3.29-1.88-1.65-8.58-7.98-11.07-10.34,3.26,1.02,11.98,3.76,14.32,4.59,3.27,1.16,5.86,3.19,6.6,5.16.33.88.28,1.7-.15,2.46-.53.94-1.44,1.41-2.7,1.41Z"/>
          <path class="cls-2" d="M246.56,128.56c-1,0-2.03-.1-3.07-.3-2.43-.47-11.35-2.54-14.66-3.32,3.32-.77,12.23-2.85,14.66-3.32,1.04-.2,2.07-.3,3.07-.3,2.89,0,6.25.95,6.25,3.62s-3.37,3.62-6.25,3.62Z"/>
          <path class="cls-2" d="M228.3,122.94c2.49-2.36,9.2-8.69,11.07-10.34,2.31-2.03,4.99-3.29,7-3.29,1.26,0,2.17.48,2.7,1.41.43.75.48,1.58.15,2.46-.74,1.97-3.33,4-6.6,5.16-2.34.83-11.06,3.57-14.32,4.59Z"/>
          <path class="cls-2" d="M226.87,121.46c1-3.32,3.69-12.19,4.51-14.57,1.38-4.02,3.97-6.93,6.16-6.93.46,0,.9.12,1.32.37.73.43,1.18,1.1,1.33,2.01.35,2.09-.89,5.18-3.17,7.87-1.61,1.9-7.81,8.7-10.14,11.25Z"/>
        </g>
        <g>
          <path class="cls-2" d="M226.74,128.7c-.06-.05-.23-.35-.24-.86l-.14-5.22c0-1.37-.13-2.94-.28-4.75l-.4-4.92-.55-4.06c-1.1-8.31-4.27-24.45-13.1-39.25-3.68-6.32-8.31-12.41-13.38-17.62-4.42-4.56-9.41-8.74-14.82-12.4-4.18-2.81-8.38-5.28-11.82-6.93-1.47-.77-2.65-1.3-3.47-1.66l-1.23-.56c-1.15-.54-1.62-1.18-1.52-1.42.05-.11.27-.23.67-.23.42,0,.91.12,1.37.34l1.29.6c.82.37,2.02.92,3.49,1.71,2.03,1,6.26,3.24,11.92,7.12,5.45,3.75,10.46,8.01,14.9,12.67,5.08,5.3,9.71,11.5,13.39,17.92,8.78,15,11.85,31.27,12.89,39.63l.52,4.08.36,4.92c.14,1.83.25,3.41.24,4.77l.1,5.27c0,.5-.13.78-.2.85Z"/>
          <g>
            <path class="cls-2" d="M174.62,33.45l-1.85-.94c-1.34-.68-2.69-1.34-2.69-1.34l-1.52-.69c-1.05-.48-2.4-1.1-4.05-1.75-3.84-1.6-8.44-3.17-12.63-4.3-3.65-1.01-7.6-1.86-11.11-2.4,1.17.09,2.51.22,4.01.39,3.12.37,6.77,1,10.54,1.81,3.85.9,7.05,1.76,9.52,2.57,5.3,1.66,7.87,3.71,9.08,5.15.62.71.87,1.29.97,1.65,0,0,0,0,0,0l-.28-.15Z"/>
            <path class="cls-2" d="M174.62,33.45l-1.85-.94c-1.34-.68-2.69-1.34-2.69-1.34l-1.52-.69c-1.05-.48-2.4-1.1-4.05-1.75-3.84-1.6-8.44-3.17-12.63-4.3-3.65-1.01-7.6-1.86-11.11-2.4,1.17.09,2.51.22,4.01.39,3.12.37,6.77,1,10.54,1.81,3.85.9,7.05,1.76,9.52,2.57,5.3,1.66,7.87,3.71,9.08,5.15.62.71.87,1.29.97,1.65,0,0,0,0,0,0l-.28-.15Z"/>
          </g>
          <g>
            <path class="cls-2" d="M206.43,59.49c-.35-.47-.9-1.19-1.5-1.88l-1.92-2.31s-.36-.5-1.11-1.27l-3-3.21c-2.64-2.6-6.17-5.94-10.07-8.83-1.34-1.08-2.76-2.06-4.14-3-.57-.39-1.12-.77-1.67-1.15-.71-.43-1.38-.86-2.03-1.26-.55-.35-1.09-.69-1.62-1.01l3.61,1.88c6.24,3.33,13.02,8.29,16.97,11.72,4.19,3.67,5.73,6.6,6.28,8.42.28.85.25,1.5.2,1.91Z"/>
            <path class="cls-2" d="M206.43,59.49c-.35-.47-.9-1.19-1.5-1.88l-1.92-2.31s-.36-.5-1.11-1.27l-3-3.21c-2.64-2.6-6.17-5.94-10.07-8.83-1.34-1.08-2.76-2.06-4.14-3-.57-.39-1.12-.77-1.67-1.15-.71-.43-1.38-.86-2.03-1.26-.55-.35-1.09-.69-1.62-1.01l3.61,1.88c6.24,3.33,13.02,8.29,16.97,11.72,4.19,3.67,5.73,6.6,6.28,8.42.28.85.25,1.5.2,1.91Z"/>
          </g>
          <g>
            <path class="cls-2" d="M222.43,91.31l-1.91-5.79c-.4-1.11-.89-2.31-1.4-3.59-.29-.71-.59-1.46-.89-2.22-.81-1.86-1.74-3.78-2.68-5.7l-.37-.77c-2.06-3.83-4.17-7.32-6.04-10.02.51.62,1.01,1.3,1.54,2.01.35.47.71.95,1.08,1.43,4.25,5.67,8.28,13.13,10.44,17.79,1,2.37,1.7,4.52,2.09,6.37.22,1.49.25,2.8.1,3.88-.13.92-.37,1.5-.57,1.85l-1.38-5.24Z"/>
            <path class="cls-2" d="M222.43,91.31l-1.91-5.79c-.4-1.11-.89-2.31-1.4-3.59-.29-.71-.59-1.46-.89-2.22-.81-1.86-1.74-3.78-2.68-5.7l-.37-.77c-2.06-3.83-4.17-7.32-6.04-10.02.51.62,1.01,1.3,1.54,2.01.35.47.71.95,1.08,1.43,4.25,5.67,8.28,13.13,10.44,17.79,1,2.37,1.7,4.52,2.09,6.37.22,1.49.25,2.8.1,3.88-.13.92-.37,1.5-.57,1.85l-1.38-5.24Z"/>
          </g>
        </g>
        <g>
          <path class="cls-2" d="M145.42,17.5c1.36-.83,2.66-1.92,3.61-3.03,1.02-1.17,1.45-2.09,1.47-2.12l.24.27c-.05.03-.55.92-1.56,1.98-1,1.08-2.36,2.12-3.75,2.9Z"/>
          <path class="cls-2" d="M149.67,13.67c.36-.52.99-1.52,1.34-2.65.37-1.06.45-2.14.46-2.76.85.53,1.38,1.36,1.46,2.29.07.89-.33,1.71-1.06,2.19l-.15.1v.02c-.36.23-1.41.79-1.7.91l-.34-.09Z"/>
        </g>
        <g>
          <path class="cls-2" d="M194.87,37.74c-1.45,0-2.95-.32-4.72-1-2.35-.92-4.42-2.24-5.96-3.3-1.56-1.05-3.41-2.26-5.37-3.37-6.4-3.66-14.35-6.75-21.79-8.48-.53-.13-1.05-.25-1.56-.36,4.27.63,8.91,1.72,13.03,3.05,5.38,1.69,11.12,4.3,15.75,7.17,2.39,1.48,4.37,2.66,6.22,3.36,2.12.85,3.76,1.03,4.54,1.06h.33c1.03,0,2.5-.2,3.62-1.2.99-.81,1.66-2.05,1.87-3.48.41-2.44-.78-5.07-2.83-6.23-.83-.48-1.72-.78-2.68-.9.08,0,.16,0,.24,0,1.34,0,3.21.51,4.58,1.94,1.45,1.53,2.13,3.67,1.86,5.88-.12.87-.46,2.17-1.42,3.38-.8,1.02-2,1.81-3.3,2.18-.78.22-1.6.33-2.42.33Z"/>
          <path class="cls-2" d="M193.8,34.04c-1.38-.12-3.12-.64-4.78-1.43-1.13-.52-2.35-1.23-3.64-1.98-1.22-.71-2.48-1.45-3.85-2.14-3.02-1.62-6.42-2.98-9.05-3.99-5.38-1.97-11.45-3.53-16.82-4.31,2.64.23,5.44.61,8.07,1.1,4.36.81,8.98,2.11,13.01,3.63,3.49,1.37,6.72,2.91,8.21,3.94.93.61,1.71,1.15,2.44,1.66.78.54,1.48,1.03,2.18,1.47,1.27.77,2.44,1.37,3.49,1.79.26.1.51.18.74.25Z"/>
        </g>
        <path class="cls-2" d="M234.83,73.18c-.6,0-1.19-.23-1.76-.45l-.97-.46c-.11-.04-.2-.09-.28-.14,0,0-.27-.15-.31-.18,0,0,.26.07.26.07.12.03.26.07.41.07.18,0,.36.01.54.01h.4c.62-.09,1.16-.16,1.64-.32l.22-.05c.78-.19,1.45-.35,2-.62.55-.26,1.11-.55,1.44-.86.04-.03.08-.06.11-.1,0,.04,0,.09,0,.13.01.42-.2,1.1-.84,1.78-.5.54-1.47,1.12-2.7,1.12h-.16Z"/>
        <path class="cls-2" d="M233.56,89.5c-.26-.43-.64-1.13-.94-2.05-.28-.83-.52-1.86-.72-3.08-.06-.49-.08-1.04-.09-1.61v-.37c-.02-.36-.04-.74-.07-1.12-.01-.2-.04-.4-.09-.6-.01-.06-.02-.11-.04-.16,0,0,0,.02.01.03.15.32.23.49.3.65.13.31.27.6.41.89l.19.39c.28.55.54,1.08.74,1.6.46,1.13.51,2.18.53,3.17.01,1-.11,1.77-.22,2.25ZM231.49,80.18c-.03-.06-.07-.12-.12-.17-.16-.16-.26-.26-.25-.3,0,0,.08-.35.08-.38.03.03.3.27.3.27.03.04.01.16,0,.26-.02.13-.01.23,0,.32Z"/>
        <path class="cls-2" d="M242.15,82.65c-1.7-.02-3.34-.49-4.07-1.17-1.03-.99-1.25-1.77-1.46-2.51-.06-.21-.12-.41-.19-.61.36.12.75.16,1.16.2.58.05,1.23.12,2.05.44.5.18,1.08.63,1.77,1.15.38.29.8.61,1.24.91.8.56,1.66,1.05,2.43,1.39-.75.1-1.65.22-2.59.22h-.34ZM237.82,78.96c-.29,0-.44.13-.48.17-.08.12-.43.73.73,1.52.55.37,1.31.65,1.84.79.59.17,1.06.23,1.06.23l1.1.14-2.12-1.63c-.35-.28-.72-.57-1.04-.78-.42-.28-.78-.43-1.09-.43Z"/>
        <path class="cls-2" d="M154.6,17.09c-.41,0-.74-.08-1.05-.16-.1-.03-.21-.05-.32-.08.18-.18.33-.39.48-.61.24-.35.52-.74,1.02-1.14.28-.24.76-.45,1.31-.7.35-.16.72-.32,1.1-.52.57-.28,1.12-.62,1.58-.97-.2.55-.45,1.17-.79,1.77-.61,1.09-1.51,2.01-2.21,2.24-.4.12-.77.18-1.11.18ZM154.65,15.59c-.91.45-.83.93-.8,1.02.05.11.19.35.6.35.22,0,.47-.07.77-.22.85-.4,1.72-1.51,1.75-1.55l-.36-.46-1.96.86Z"/>
        <path class="cls-2" d="M219.67,52.62c-.17,0-.33-.02-.44-.05-.28-.08-.49-.18-.67-.28.11.04.24.06.4.08.1,0,.21.01.32.01.29,0,.62-.03.89-.08.38-.07.65-.18.65-.18l1.01-.39-1.67-.3-.23-.05c-.29-.06-.6-.13-.86-.15-.09,0-.16-.01-.23-.01-.12,0-.22.01-.31.03.23-.08.49-.15.83-.18h.08c.35,0,.6.05.87.09.34.06.71.13,1.11.14h.24c.33,0,.69-.03,1.01-.1-.28.29-.62.59-1.02.83-.57.36-1.34.6-1.97.6h0ZM218.01,51.89c-.1-.08-.2-.16-.31-.24.06-.03.42-.23.54-.29-.15.11-.2.25-.21.29,0,.07,0,.2.09.33-.04-.03-.08-.06-.12-.09Z"/>
        <path class="cls-2" d="M195.07,32.31c-.12-.02-.23-.04-.33-.06,0,0,.02,0,.02,0,.41,0,.85-.16,1.12-.31.31-.15.51-.33.52-.33l.87-.74c-.08.13-.16.25-.26.38-.51.68-1.33,1.08-1.84,1.08h-.1ZM194.65,31.17c.1-.04.21-.08.32-.11.14-.05.32-.06.53-.08.32-.03.71-.07,1.14-.21.3-.09.61-.24.89-.42-.07.17-.15.34-.25.51l-1.12.22s-.22.05-.49.07c-.22.02-.47.02-.69.02,0,0-.29,0-.32,0Z"/>
        <path class="cls-2" d="M229.26,102.06c.3-1.35.91-3.35,2.1-5.25,1.14-1.86,2.85-3.5,4.59-4.39,1.82-.99,3.52-1.06,3.85-1.06,2.03,0,3.91,1.14,4.87,2.26.42.39.69.82.91,1.17l.26.42-1.8-.19c-.7-.08-1.44-.1-2.18-.1l-1.92.02h-.44c-.18-.02-.4-.04-.67-.04-.61,0-1.19.07-1.77.23-1.5.35-3.2,1.33-4.54,2.62-1.63,1.52-2.71,3.37-3.21,4.33-.04.06-.07.13-.1.19.02-.06.03-.13.05-.2Z"/>
        <path class="cls-2" d="M228.71,94.21c.04-2.55-.56-5.58-1.08-7.72l-2.16-8.38c-.57-2.38-.84-4.38-.9-5.1-.17-2.49.53-5.42,1.74-7.29.31-.46.59-.87.86-1.22l.81-.73-.3.91c-.06.26-.1.52-.13.79-.03.18-.05.37-.08.56-.27,1.88-.12,4.22.04,6.7.03.32.04.64.06,1.07.04.9.1,2.27.27,3.93.11,1.08.25,2.28.4,3.55.19,1.61.4,3.33.56,5.04.3,3.11.27,5.9-.07,7.91Z"/>
        <g>
          <path class="cls-2" d="M15.28,149.94c-.46,0-.9-.13-1.32-.37-.73-.43-1.18-1.11-1.33-2.01-.35-2.09.89-5.18,3.17-7.87,1.61-1.9,7.81-8.7,10.14-11.25-1,3.32-3.69,12.19-4.51,14.57-1.38,4.02-3.97,6.93-6.16,6.93h0Z"/>
          <path class="cls-2" d="M6.44,140.58c-1.26,0-2.17-.48-2.7-1.41-.43-.75-.48-1.58-.15-2.46.74-1.97,3.33-4,6.6-5.16,2.34-.83,11.06-3.57,14.32-4.59-2.49,2.36-9.19,8.69-11.07,10.34-2.31,2.03-4.99,3.29-7,3.29h0Z"/>
          <path class="cls-2" d="M6.25,128.56c-2.88,0-6.25-.95-6.25-3.62s3.37-3.62,6.25-3.62c1,0,2.03.1,3.07.3,2.43.47,11.35,2.54,14.66,3.32-3.32.77-12.23,2.85-14.66,3.32-1.04.2-2.07.3-3.07.3h0Z"/>
          <path class="cls-2" d="M24.51,122.94c-3.26-1.02-11.98-3.76-14.32-4.59-3.27-1.16-5.86-3.19-6.6-5.16-.33-.88-.28-1.71.15-2.46.53-.94,1.44-1.41,2.7-1.41,2,0,4.68,1.26,7,3.29,1.87,1.65,8.58,7.98,11.07,10.34Z"/>
          <path class="cls-2" d="M25.95,121.46c-2.33-2.55-8.53-9.35-10.14-11.25-2.28-2.7-3.53-5.79-3.17-7.87.15-.91.6-1.58,1.33-2.01.42-.24.86-.37,1.32-.37,2.19,0,4.78,2.92,6.16,6.93.82,2.38,3.5,11.25,4.51,14.57Z"/>
        </g>
        <g>
          <path class="cls-2" d="M26.07,128.7c-.07-.07-.2-.36-.19-.82l.1-5.28c-.01-1.37.1-2.95.24-4.78l.36-4.94.52-4.07c1.05-8.36,4.11-24.63,12.89-39.63,3.68-6.43,8.31-12.62,13.39-17.92,4.44-4.66,9.46-8.92,14.9-12.68,5.66-3.87,9.89-6.12,11.91-7.11,1.49-.79,2.68-1.34,3.5-1.71l1.26-.58c.51-.24.99-.36,1.41-.36.4,0,.62.11.67.22.1.24-.37.88-1.49,1.41l-1.27.58c-.81.36-2,.9-3.47,1.67-3.44,1.66-7.64,4.12-11.82,6.93-5.41,3.67-10.4,7.84-14.82,12.4-5.06,5.2-9.69,11.3-13.38,17.62-8.83,14.8-11.99,30.94-13.1,39.25l-.55,4.04-.4,4.89c-.15,1.84-.28,3.42-.28,4.81l-.14,5.22c-.01.49-.17.78-.25.85Z"/>
          <g>
            <path class="cls-2" d="M77.92,33.6c.11-.36.36-.94.97-1.65,1.22-1.44,3.78-3.49,9.08-5.15,2.47-.8,5.68-1.67,9.53-2.57,3.77-.81,7.41-1.44,10.54-1.81,1.49-.17,2.83-.3,4.01-.39-3.51.54-7.46,1.39-11.11,2.4-4.19,1.13-8.79,2.7-12.64,4.3-1.67.65-3.03,1.28-4,1.73l-1.56.71s-1.36.66-2.7,1.34l-1.84.93s-.29.16-.29.16Z"/>
            <path class="cls-2" d="M77.92,33.6c.11-.36.36-.94.97-1.65,1.22-1.44,3.78-3.49,9.08-5.15,2.47-.8,5.68-1.67,9.53-2.57,3.77-.81,7.41-1.44,10.54-1.81,1.49-.17,2.83-.3,4.01-.39-3.51.54-7.46,1.39-11.11,2.4-4.19,1.13-8.79,2.7-12.64,4.3-1.67.65-3.03,1.28-4,1.73l-1.56.71s-1.36.66-2.7,1.34l-1.84.93s-.29.16-.29.16Z"/>
          </g>
          <g>
            <path class="cls-2" d="M46.39,59.49c-.05-.41-.07-1.06.2-1.91.55-1.82,2.09-4.76,6.28-8.42,3.95-3.43,10.73-8.39,16.97-11.73l3.62-1.88c-.53.32-1.07.66-1.63,1.02-.65.41-1.32.83-2.01,1.25-.55.39-1.1.76-1.66,1.15-1.39.95-2.82,1.93-4.18,3.03-3.9,2.89-7.42,6.23-10.06,8.82l-3.01,3.22c-.76.78-1.12,1.29-1.12,1.29l-1.91,2.3c-.59.68-1.15,1.4-1.49,1.87Z"/>
            <path class="cls-2" d="M46.39,59.49c-.05-.41-.07-1.06.2-1.91.55-1.82,2.09-4.76,6.28-8.42,3.95-3.43,10.73-8.39,16.97-11.73l3.62-1.88c-.53.32-1.07.66-1.63,1.02-.65.41-1.32.83-2.01,1.25-.55.39-1.1.76-1.66,1.15-1.39.95-2.82,1.93-4.18,3.03-3.9,2.89-7.42,6.23-10.06,8.82l-3.01,3.22c-.76.78-1.12,1.29-1.12,1.29l-1.91,2.3c-.59.68-1.15,1.4-1.49,1.87Z"/>
          </g>
          <g>
            <path class="cls-2" d="M29,96.56c-.2-.34-.44-.93-.57-1.85-.15-1.08-.11-2.39.11-3.9.38-1.83,1.09-3.98,2.09-6.36,2.15-4.65,6.17-12.1,10.43-17.79.38-.49.74-.97,1.09-1.45.52-.7,1.02-1.37,1.52-1.98-1.87,2.69-3.97,6.18-6.03,9.99l-.38.78c-.94,1.93-1.87,3.85-2.68,5.69-.3.77-.6,1.51-.89,2.23-.52,1.28-1,2.48-1.4,3.58l-1.91,5.78-1.38,5.26Z"/>
            <path class="cls-2" d="M29,96.56c-.2-.34-.44-.93-.57-1.85-.15-1.08-.11-2.39.11-3.9.38-1.83,1.09-3.98,2.09-6.36,2.15-4.65,6.17-12.1,10.43-17.79.38-.49.74-.97,1.09-1.45.52-.7,1.02-1.37,1.52-1.98-1.87,2.69-3.97,6.18-6.03,9.99l-.38.78c-.94,1.93-1.87,3.85-2.68,5.69-.3.77-.6,1.51-.89,2.23-.52,1.28-1,2.48-1.4,3.58l-1.91,5.78-1.38,5.26Z"/>
          </g>
        </g>
        <g>
          <path class="cls-2" d="M107.4,17.5c-1.39-.78-2.75-1.82-3.76-2.9-1.08-1.13-1.57-2.07-1.58-2.08l.33-.08c0,.07.44.94,1.39,2.03.95,1.11,2.25,2.2,3.61,3.03Z"/>
          <path class="cls-2" d="M102.8,13.77c-.29-.12-1.34-.69-1.7-.91v-.02s-.15-.1-.15-.1c-.73-.48-1.13-1.3-1.06-2.19.07-.93.61-1.76,1.46-2.29,0,.62.09,1.7.46,2.77.34,1.12.98,2.13,1.33,2.64l-.34.09Z"/>
        </g>
        <g>
          <path class="cls-2" d="M57.95,37.74c-.83,0-1.64-.11-2.43-.33-1.29-.37-2.49-1.16-3.29-2.18-.97-1.2-1.31-2.5-1.42-3.38-.27-2.21.41-4.35,1.86-5.88,1.37-1.43,3.24-1.94,4.53-1.94.09,0,.18,0,.27.01-.96.12-1.84.42-2.67.9-2.05,1.16-3.24,3.79-2.83,6.24.21,1.42.88,2.66,1.88,3.48,1.12,1,2.59,1.2,3.62,1.2h.33c.79-.04,2.43-.21,4.55-1.07,1.83-.69,3.81-1.87,6.21-3.35,4.63-2.87,10.37-5.48,15.75-7.16,4.12-1.34,8.75-2.42,13.02-3.05-.5.11-1.02.23-1.56.36-7.44,1.72-15.38,4.81-21.78,8.48-1.96,1.1-3.81,2.32-5.36,3.37-1.54,1.06-3.62,2.38-5.97,3.3-1.77.68-3.27,1-4.72,1Z"/>
          <path class="cls-2" d="M59.01,34.04c.23-.07.48-.15.74-.26,1.05-.42,2.23-1.02,3.5-1.79.7-.44,1.4-.92,2.18-1.47.72-.5,1.51-1.05,2.43-1.65,1.49-1.03,4.71-2.58,8.22-3.95,4.03-1.53,8.65-2.82,13.01-3.63,2.63-.5,5.43-.88,8.07-1.1-5.37.78-11.44,2.34-16.82,4.31-2.63,1-6.03,2.36-9.06,3.99-1.36.68-2.62,1.42-3.84,2.13-1.29.75-2.51,1.46-3.64,1.98-1.67.79-3.41,1.31-4.79,1.43Z"/>
        </g>
        <path class="cls-2" d="M17.82,73.18c-1.23,0-2.2-.58-2.7-1.11-.64-.68-.85-1.35-.84-1.77,0-.05,0-.1,0-.15.04.04.08.07.13.11.32.3.9.6,1.42.85.55.27,1.22.43,1.99.61l.24.06c.45.15,1,.22,1.58.3h.43c.18,0,.36,0,.54,0h0c.15,0,.28-.03.4-.06,0,0,.26-.06.27-.07-.01,0-.32.18-.32.18-.08.05-.16.1-.25.13l-.95.45c-.62.24-1.2.46-1.77.46h-.2Z"/>
        <path class="cls-2" d="M19.26,89.5c-.11-.49-.24-1.26-.22-2.25.02-.99.07-2.04.53-3.16.2-.53.47-1.06.74-1.61l.12-.25c.2-.4.34-.71.48-1.02.07-.17.14-.33.23-.5.03-.07.06-.13.09-.18,0,0,0,0,0,0-.08.35-.12.56-.13.76-.04.36-.05.73-.06,1.09v.38c-.03.57-.05,1.12-.11,1.62-.2,1.19-.44,2.23-.72,3.06-.31.92-.68,1.62-.94,2.05ZM21.33,80.18c0-.06.01-.13,0-.2-.03-.23-.05-.35-.02-.39,0,0,.28-.24.3-.27,0,.04.08.38.08.38,0,.04-.1.14-.16.2-.1.1-.16.19-.21.27Z"/>
        <path class="cls-2" d="M10.33,82.66c-.94,0-1.84-.12-2.59-.22.77-.34,1.64-.83,2.43-1.4.43-.3.85-.61,1.23-.9.68-.52,1.27-.96,1.76-1.15.82-.33,1.48-.39,2.06-.45.4-.04.78-.07,1.16-.2-.07.2-.13.4-.19.61-.21.75-.43,1.52-1.46,2.52-.73.68-2.36,1.15-4.06,1.17h-.34ZM14.99,78.96c-.31,0-.68.14-1.09.43-.31.21-.68.49-1.02.77l-2.13,1.65,1.1-.14s.47-.06,1.07-.23c.52-.14,1.28-.42,1.83-.79,1.16-.79.82-1.4.77-1.47-.08-.09-.23-.22-.52-.22Z"/>
        <path class="cls-2" d="M98.21,17.09c-.35,0-.71-.06-1.12-.18-.69-.22-1.6-1.14-2.2-2.23-.34-.6-.59-1.22-.79-1.77.46.35,1.01.69,1.59.98.37.19.75.36,1.1.52.55.24,1.02.46,1.3.69.5.4.78.8,1.02,1.14.15.22.3.43.48.61-.11.02-.21.05-.32.08-.32.08-.64.16-1.05.16h0ZM95.84,15.2s.91,1.15,1.76,1.55c.29.14.55.22.76.22.41,0,.55-.24.58-.29.05-.15.13-.63-.77-1.08l-1.97-.86-.36.46Z"/>
        <path class="cls-2" d="M57.64,32.31c-.51,0-1.33-.4-1.84-1.07-.1-.13-.19-.25-.27-.38l.87.74s.21.18.52.34c.27.14.71.3,1.11.3,0,0,.02,0,.03,0-.1.03-.21.05-.33.06h-.1ZM57.84,31.17c-.22,0-.47,0-.69-.02-.27-.02-.49-.06-.5-.07l-1.12-.23c-.1-.17-.18-.34-.25-.51.28.18.6.33.9.42.42.14.82.18,1.13.21.21.02.39.04.52.08.12.03.23.07.33.11-.04,0-.32,0-.32,0Z"/>
        <path class="cls-2" d="M23.49,102.06c-.5-.96-1.58-2.81-3.21-4.32-1.34-1.28-3.03-2.26-4.54-2.62-.57-.15-1.15-.22-1.76-.22-.27,0-.49.01-.67.03h-.25s-2.11,0-2.11,0c-.74,0-1.49.02-2.18.1l-1.79.19.26-.42c.22-.35.49-.78.88-1.14.99-1.14,2.87-2.28,4.9-2.28.32,0,2.02.07,3.83,1.05,1.74.89,3.46,2.53,4.59,4.39,1.2,1.91,1.8,3.9,2.1,5.24.02.07.04.14.05.2-.04-.06-.07-.13-.11-.19Z"/>
        <path class="cls-2" d="M24.1,94.21c-.34-2-.37-4.8-.07-7.91.15-1.72.36-3.45.56-5.06.15-1.26.3-2.46.4-3.53.17-1.66.23-3.03.27-3.93.02-.43.03-.74.05-.93.17-2.65.32-4.96.05-6.82-.04-.2-.06-.38-.08-.57-.04-.27-.07-.52-.12-.76l-.31-.94.84.77c.23.31.51.72.82,1.19,1.2,1.86,1.9,4.79,1.74,7.29-.06.71-.33,2.7-.91,5.09l-2.16,8.38c-.52,2.14-1.13,5.18-1.08,7.73Z"/>
        <g>
          <path class="cls-2" d="M142.66,240.54c-1.5,0-3.51-.91-5.25-2.38-1.35-1.15-6.05-5.43-8.11-7.3,2.68.81,8.81,2.67,10.5,3.25,2.48.85,4.43,2.33,4.96,3.76.22.6.18,1.17-.12,1.68-.39.66-1.06,1-1.98,1h0Z"/>
          <path class="cls-2" d="M135.97,247.38c-1.63,0-3.56-2.11-4.59-5.01-.59-1.67-2.49-7.69-3.31-10.32,1.9,2.01,6.28,6.64,7.45,7.98,1.7,1.94,2.64,4.16,2.38,5.66-.11.64-.43,1.13-.97,1.43-.3.17-.63.26-.96.26h0Z"/>
          <path class="cls-2" d="M126.41,249.89c-.63,0-1.16-.26-1.59-.78-.97-1.18-1.29-3.56-.8-6.06.33-1.73,1.77-7.89,2.39-10.57.62,2.68,2.05,8.84,2.39,10.57.48,2.5.17,4.88-.8,6.06-.43.52-.96.78-1.59.78Z"/>
          <path class="cls-2" d="M116.84,247.38c-.33,0-.66-.09-.96-.26-.53-.3-.86-.78-.97-1.43-.25-1.5.68-3.72,2.38-5.66,1.17-1.34,5.55-5.97,7.45-7.98-.82,2.63-2.72,8.65-3.31,10.32-1.03,2.9-2.96,5.01-4.59,5.01h0Z"/>
          <path class="cls-2" d="M110.16,240.54c-.93,0-1.59-.33-1.98-1-.3-.52-.34-1.08-.12-1.68.53-1.43,2.48-2.91,4.96-3.76,1.69-.58,7.82-2.44,10.5-3.25-2.05,1.88-6.75,6.16-8.11,7.3-1.74,1.47-3.75,2.38-5.25,2.38h0Z"/>
        </g>
        <g>
          <path class="cls-2" d="M166.45,221.07c-.4,0-.62-.11-.67-.22-.1-.24.37-.88,1.49-1.41l1.27-.58c.81-.36,2-.9,3.47-1.67,3.45-1.66,7.65-4.13,11.82-6.93,5.41-3.66,10.4-7.84,14.82-12.41,5.06-5.2,9.69-11.29,13.38-17.62,8.83-14.8,12-30.95,13.1-39.25l.55-4.04.4-4.92c.15-1.82.28-3.39.28-4.77l.14-5.22c.01-.53.2-.83.27-.86.03.04.18.33.17.84l-.1,5.28c.01,1.37-.1,2.95-.24,4.77l-.36,4.94-.52,4.06c-1.05,8.36-4.11,24.63-12.89,39.63-3.68,6.42-8.31,12.62-13.39,17.92-4.44,4.66-9.46,8.92-14.9,12.67-5.66,3.87-9.89,6.12-11.91,7.11-1.49.79-2.68,1.34-3.5,1.71l-1.26.58c-.5.24-.99.36-1.41.36Z"/>
          <g>
            <path class="cls-2" d="M140.76,227.86c3.51-.54,7.46-1.39,11.12-2.4,4.2-1.14,8.81-2.71,12.64-4.3,1.64-.64,2.99-1.26,3.95-1.7l1.61-.73s1.36-.66,2.7-1.34l1.84-.93.29-.16s0,0,0,0c-.11.36-.36.94-.97,1.65-1.22,1.44-3.78,3.49-9.08,5.15-2.47.81-5.68,1.67-9.53,2.57-3.77.81-7.42,1.44-10.54,1.81-1.5.17-2.84.3-4.02.39Z"/>
            <path class="cls-2" d="M140.76,227.86c3.51-.54,7.46-1.39,11.12-2.4,4.2-1.14,8.81-2.71,12.64-4.3,1.64-.64,2.99-1.26,3.95-1.7l1.61-.73s1.36-.66,2.7-1.34l1.84-.93.29-.16s0,0,0,0c-.11.36-.36.94-.97,1.65-1.22,1.44-3.78,3.49-9.08,5.15-2.47.81-5.68,1.67-9.53,2.57-3.77.81-7.42,1.44-10.54,1.81-1.5.17-2.84.3-4.02.39Z"/>
          </g>
          <g>
            <path class="cls-2" d="M179.38,214.32c.52-.32,1.06-.66,1.61-1.01.65-.41,1.32-.83,2.01-1.25.55-.39,1.1-.77,1.66-1.15,1.38-.95,2.82-1.93,4.17-3.02,3.91-2.9,7.43-6.24,10.06-8.82l3.01-3.22c.76-.78,1.12-1.28,1.12-1.28l1.91-2.3c.59-.68,1.15-1.4,1.49-1.87.05.41.08,1.06-.2,1.91-.55,1.82-2.09,4.76-6.28,8.42-3.95,3.43-10.73,8.39-16.97,11.73l-3.6,1.87Z"/>
            <path class="cls-2" d="M179.38,214.32c.52-.32,1.06-.66,1.61-1.01.65-.41,1.32-.83,2.01-1.25.55-.39,1.1-.77,1.66-1.15,1.38-.95,2.82-1.93,4.17-3.02,3.91-2.9,7.43-6.24,10.06-8.82l3.01-3.22c.76-.78,1.12-1.28,1.12-1.28l1.91-2.3c.59-.68,1.15-1.4,1.49-1.87.05.41.08,1.06-.2,1.91-.55,1.82-2.09,4.76-6.28,8.42-3.95,3.43-10.73,8.39-16.97,11.73l-3.6,1.87Z"/>
          </g>
          <g>
            <path class="cls-2" d="M209.13,186.67c1.87-2.69,3.98-6.18,6.04-10.01l.42-.86c.93-1.9,1.85-3.8,2.64-5.62.3-.77.6-1.51.89-2.22.52-1.28,1.01-2.49,1.4-3.59l1.91-5.78,1.38-5.26c.2.34.44.92.57,1.85.15,1.08.11,2.39-.11,3.9-.38,1.84-1.09,3.98-2.09,6.37-2.15,4.66-6.18,12.11-10.43,17.78-.37.48-.73.97-1.08,1.44-.52.71-1.03,1.38-1.54,2.01Z"/>
            <path class="cls-2" d="M209.13,186.67c1.87-2.69,3.98-6.18,6.04-10.01l.42-.86c.93-1.9,1.85-3.8,2.64-5.62.3-.77.6-1.51.89-2.22.52-1.28,1.01-2.49,1.4-3.59l1.91-5.78,1.38-5.26c.2.34.44.92.57,1.85.15,1.08.11,2.39-.11,3.9-.38,1.84-1.09,3.98-2.09,6.37-2.15,4.66-6.18,12.11-10.43,17.78-.37.48-.73.97-1.08,1.44-.52.71-1.03,1.38-1.54,2.01Z"/>
          </g>
        </g>
        <g>
          <path class="cls-2" d="M150.41,237.44c.02-.05-.42-.93-1.38-2.03-.94-1.1-2.23-2.18-3.58-3.01,1.39.77,2.73,1.81,3.73,2.88,1.08,1.13,1.57,2.07,1.58,2.08l-.34.08Z"/>
          <path class="cls-2" d="M151.46,241.62c-.01-.62-.09-1.7-.46-2.77-.35-1.12-.98-2.13-1.33-2.64l.36-.1c.2.09,1.3.68,1.68.92h0s.15.12.15.12c.73.48,1.13,1.3,1.06,2.19-.07.93-.61,1.76-1.46,2.29Z"/>
        </g>
        <g>
          <path class="cls-2" d="M155.48,228.66c.5-.11,1.02-.23,1.55-.36,7.44-1.73,15.38-4.82,21.79-8.48,1.97-1.11,3.82-2.32,5.36-3.36,2.28-1.56,4.12-2.58,5.97-3.3,1.77-.68,3.27-1,4.71-1,.83,0,1.65.11,2.43.33,1.29.37,2.49,1.16,3.29,2.18.97,1.21,1.31,2.51,1.42,3.38.27,2.21-.41,4.35-1.86,5.88-1.37,1.43-3.24,1.94-4.54,1.94-.09,0-.19,0-.28-.01.96-.12,1.85-.42,2.68-.9,2.05-1.16,3.24-3.79,2.83-6.24-.21-1.42-.88-2.66-1.88-3.48-1.12-1-2.59-1.2-3.62-1.2h-.33c-.79.04-2.43.22-4.55,1.07-1.85.7-3.91,1.93-6.21,3.36-4.63,2.86-10.37,5.48-15.75,7.16-4.11,1.34-8.74,2.42-13.02,3.05Z"/>
          <path class="cls-2" d="M155.65,229.7c5.36-.78,11.44-2.33,16.83-4.31,2.63-1,6.03-2.36,9.06-3.99,1.36-.68,2.62-1.42,3.84-2.13,1.29-.75,2.51-1.46,3.63-1.98,1.67-.8,3.41-1.31,4.79-1.43-.23.07-.48.15-.74.26-1.07.43-2.24,1.03-3.5,1.79-.7.44-1.4.92-2.18,1.47-.72.5-1.51,1.05-2.43,1.65-1.49,1.03-4.72,2.58-8.22,3.95-4.03,1.53-8.65,2.82-13.01,3.63-2.64.5-5.44.88-8.08,1.1Z"/>
        </g>
        <path class="cls-2" d="M238.4,179.62c-.31-.3-.87-.59-1.42-.85-.56-.27-1.25-.44-2.05-.63-.64-.2-1.19-.27-1.77-.35h-.45c-.17,0-.35,0-.53,0h0c-.14,0-.27.03-.39.06,0,0-.28.07-.28.07,0,0,.31-.17.31-.17.09-.05.17-.1.26-.14l1.01-.48c.56-.21,1.14-.43,1.69-.43h.21c1.23,0,2.19.57,2.69,1.11.64.68.85,1.36.84,1.77,0,.05,0,.1,0,.14-.04-.04-.08-.07-.13-.11Z"/>
        <path class="cls-2" d="M231.12,170.18s.1-.14.16-.2c.09-.1.16-.19.2-.27,0,.06-.01.13,0,.2.03.23.05.36.02.39,0,0-.28.24-.3.26,0-.04-.08-.38-.08-.38ZM231.6,169.36c.08-.35.11-.56.13-.76.04-.37.05-.75.06-1.11v-.36c.03-.58.04-1.12.1-1.62.2-1.2.44-2.24.72-3.07.31-.92.68-1.62.94-2.05.11.49.23,1.26.22,2.25-.01.98-.07,2.04-.52,3.16-.2.53-.47,1.07-.75,1.62l-.12.23c-.21.43-.35.72-.48,1.02-.07.17-.14.33-.23.5-.03.07-.06.13-.09.19,0,0,0,0,0,0Z"/>
        <path class="cls-2" d="M236.43,171.54c.07-.2.13-.41.19-.61.21-.75.43-1.52,1.46-2.52.72-.67,2.36-1.14,4.06-1.17h.34c.94,0,1.84.11,2.59.21-.77.34-1.64.83-2.43,1.4-.43.3-.84.61-1.23.9-.68.52-1.27.97-1.76,1.15-.83.33-1.48.39-2.06.45-.4.04-.78.07-1.16.2ZM240.97,168.22s-.47.06-1.07.23c-.52.14-1.28.42-1.83.79-1.16.79-.82,1.4-.77,1.47.08.09.23.21.52.21.31,0,.68-.14,1.09-.43.32-.21.69-.5,1.04-.78l2.12-1.64-1.1.14Z"/>
        <path class="cls-2" d="M158.72,236.98c-.46-.35-1.01-.69-1.59-.98-.37-.19-.74-.36-1.09-.51-.55-.25-1.03-.46-1.31-.7-.5-.4-.78-.8-1.02-1.14-.15-.22-.3-.43-.48-.61.11-.02.21-.05.32-.08.32-.08.64-.16,1.05-.16.35,0,.71.06,1.12.18.7.23,1.6,1.14,2.21,2.23.34.6.59,1.22.79,1.77ZM154.45,232.92c-.41,0-.55.24-.58.29-.06.19-.1.64.77,1.07l1.97.86.36-.46s-.9-1.15-1.76-1.55c-.29-.14-.55-.22-.76-.22Z"/>
        <path class="cls-2" d="M239.8,158.52c-.46,0-2.07-.1-3.84-1.05-1.74-.89-3.46-2.53-4.59-4.39-1.19-1.9-1.8-3.9-2.1-5.24-.02-.07-.04-.14-.05-.21.04.07.07.13.11.2.5.96,1.58,2.8,3.21,4.32,1.33,1.28,3.03,2.26,4.54,2.62.57.15,1.15.23,1.76.23.27,0,.5-.02.67-.03h.24s2.12,0,2.12,0c.74,0,1.48-.02,2.17-.1l1.79-.19-.26.42c-.22.34-.49.77-.88,1.14-.98,1.14-2.86,2.28-4.9,2.28Z"/>
        <path class="cls-2" d="M227.13,185.35c-.23-.31-.51-.72-.82-1.19-1.21-1.86-1.9-4.8-1.74-7.29.06-.71.34-2.71.9-5.09l2.16-8.38c.53-2.14,1.13-5.18,1.08-7.73.34,2,.37,4.8.07,7.91-.15,1.71-.36,3.43-.56,5.04-.15,1.27-.3,2.47-.4,3.55-.17,1.66-.23,3.03-.27,3.93-.02.43-.03.74-.05.93-.17,2.61-.32,4.95-.05,6.82.03.2.06.38.08.57.04.27.07.53.12.76l.31.94-.84-.78Z"/>
        <g>
          <path class="cls-2" d="M102.36,237.44s-.08-.02-.14-.05c-.16-.03.34-.97,1.41-2.1,1-1.08,2.35-2.11,3.74-2.89-1.35.83-2.65,1.91-3.59,3.01-.84.96-1.28,1.75-1.42,2.02Z"/>
          <path class="cls-2" d="M101.35,241.62c-.85-.53-1.38-1.36-1.46-2.29-.07-.89.33-1.71,1.06-2.19l.15-.1h0c.36-.24,1.41-.8,1.7-.92l.34.09c-.36.52-.99,1.52-1.34,2.65-.37,1.06-.45,2.14-.46,2.76Z"/>
        </g>
        <g>
          <path class="cls-2" d="M97.33,228.66c-4.27-.64-8.9-1.72-13.02-3.05-5.38-1.69-11.12-4.3-15.75-7.17-2.39-1.48-4.37-2.66-6.22-3.36-2.11-.85-3.75-1.02-4.54-1.06h-.33c-1.03,0-2.51.2-3.63,1.2-1,.82-1.66,2.05-1.87,3.48-.41,2.44.78,5.07,2.83,6.23.84.48,1.72.78,2.69.9-.08,0-.16,0-.24,0-1.34,0-3.21-.51-4.58-1.94-1.45-1.53-2.13-3.67-1.86-5.88.12-.87.46-2.17,1.42-3.38.8-1.02,2-1.81,3.3-2.18.78-.22,1.6-.33,2.43-.33,1.45,0,2.95.32,4.72,1,1.84.72,3.68,1.74,5.96,3.3,1.55,1.04,3.39,2.25,5.37,3.37,6.4,3.66,14.34,6.75,21.78,8.48.53.13,1.05.24,1.55.35Z"/>
          <path class="cls-2" d="M97.16,229.7c-2.64-.23-5.44-.61-8.08-1.1-4.36-.81-8.98-2.1-13.01-3.63-3.5-1.37-6.72-2.92-8.21-3.94-.93-.61-1.71-1.15-2.44-1.66-.78-.54-1.48-1.03-2.18-1.47-1.26-.77-2.43-1.37-3.5-1.79-.27-.1-.52-.19-.75-.25,1.38.12,3.13.64,4.79,1.43,1.13.52,2.34,1.23,3.63,1.98,1.22.71,2.49,1.45,3.85,2.14,3.02,1.63,6.43,2.99,9.05,3.99,5.39,1.98,11.47,3.53,16.83,4.31Z"/>
        </g>
        <path class="cls-2" d="M14.28,179.6c-.01-.43.2-1.11.84-1.78.5-.54,1.47-1.11,2.69-1.11h.21c.55,0,1.13.23,1.7.44l.99.47c.11.04.2.1.28.15,0,0,.26.15.31.17l-.28-.07c-.12-.03-.25-.06-.4-.06-.17,0-.34-.01-.52-.01h-.35c-.67.09-1.22.16-1.7.32l-.17.04c-.79.19-1.48.35-2.04.63-.52.25-1.1.54-1.44.86-.04.03-.08.07-.11.1,0-.04,0-.08,0-.13Z"/>
        <path class="cls-2" d="M21.32,170.29s0-.16,0-.26c.02-.13.01-.23,0-.33.03.06.07.12.12.17.15.15.25.25.25.3,0,0-.08.35-.08.38-.03-.03-.3-.27-.3-.27ZM21.2,169.34c-.16-.33-.23-.49-.3-.66-.13-.32-.28-.62-.43-.92l-.17-.34c-.28-.56-.54-1.1-.75-1.62-.46-1.12-.51-2.18-.53-3.17-.01-1,.11-1.77.22-2.25.26.43.64,1.13.94,2.05.28.84.52,1.87.72,3.08.06.49.08,1.03.09,1.61v.37c.02.38.04.75.07,1.12,0,.19.04.4.09.6.01.06.02.11.04.16,0,0,0-.01-.01-.02Z"/>
        <path class="cls-2" d="M16.38,171.54c-.38-.12-.77-.16-1.16-.2-.58-.06-1.23-.12-2.05-.45-.5-.18-1.09-.63-1.77-1.15-.38-.29-.79-.6-1.23-.9-.8-.56-1.66-1.05-2.43-1.39.75-.1,1.65-.22,2.59-.22h.34c1.7.03,3.34.5,4.07,1.18,1.03.99,1.25,1.77,1.46,2.52.06.21.12.41.19.62ZM12.88,169.73c.35.27.71.56,1.03.77.42.28.78.42,1.09.42.29,0,.44-.13.48-.16.08-.12.43-.73-.73-1.52-.55-.37-1.31-.65-1.84-.79-.59-.17-1.06-.23-1.06-.23l-1.1-.14,2.13,1.65Z"/>
        <path class="cls-2" d="M94.09,236.98c.2-.55.45-1.17.79-1.77.6-1.09,1.51-2.01,2.21-2.24.4-.12.77-.18,1.11-.18.41,0,.74.08,1.05.16.11.03.21.05.32.08-.18.19-.33.4-.48.61-.24.35-.52.74-1.02,1.14-.28.24-.76.45-1.31.7-.34.15-.72.32-1.1.52-.57.28-1.12.62-1.58.97ZM98.36,232.92c-.22,0-.48.07-.77.22-.85.4-1.71,1.5-1.75,1.55l.36.46,1.96-.86c.89-.44.84-.89.81-1.02-.05-.11-.2-.35-.6-.35Z"/>
        <path class="cls-2" d="M55.28,219.54c.07-.17.16-.35.26-.52l1.12-.21s.22-.04.5-.06c.24-.02.5-.02.73-.02.11,0,.22,0,.31-.02-.11.04-.22.09-.35.12-.14.04-.32.06-.53.08-.32.03-.71.07-1.14.22-.3.09-.61.24-.9.42ZM55.55,219.01c.07-.12.16-.24.25-.36.51-.68,1.33-1.08,1.85-1.08.14.02.27.04.39.07-.4,0-.83.16-1.11.3-.31.16-.51.33-.52.33l-.86.73Z"/>
        <path class="cls-2" d="M13.02,158.52c-2.03,0-3.91-1.14-4.87-2.26-.42-.39-.69-.82-.91-1.17l-.26-.42,1.8.19c.69.08,1.43.1,2.17.1l1.98-.02h.38c.18.02.4.04.67.04.61,0,1.19-.07,1.77-.23,1.5-.36,3.2-1.34,4.53-2.62,1.62-1.51,2.71-3.36,3.21-4.33.04-.06.07-.12.1-.18-.02.06-.03.13-.05.19-.3,1.35-.91,3.35-2.1,5.25-1.14,1.86-2.85,3.5-4.59,4.39-1.77.96-3.39,1.05-3.84,1.06Z"/>
        <path class="cls-2" d="M25.14,185.21c.06-.26.1-.52.13-.79.03-.18.05-.37.08-.56.27-1.87.12-4.18-.03-6.63-.03-.39-.04-.71-.06-1.13-.04-.9-.1-2.26-.27-3.93-.11-1.07-.25-2.27-.4-3.53-.2-1.62-.4-3.34-.56-5.06-.3-3.11-.27-5.9.07-7.91-.04,2.55.56,5.59,1.08,7.72l2.16,8.38c.57,2.39.84,4.38.91,5.1.17,2.49-.53,5.42-1.74,7.29-.31.46-.59.87-.86,1.22l-.81.73.3-.91Z"/>
        <g>
          <path class="cls-2" d="M218.07,200.84c.28-1.23.61-2.63.7-3.15.19-1.01.08-1.98-.28-2.42-.12-.15-.26-.21-.42-.21s-.3.07-.42.21c-.37.44-.48,1.42-.28,2.42.1.53.42,1.92.7,3.15Z"/>
          <path class="cls-2" d="M219.71,201.26c.88-.93,1.86-1.98,2.22-2.38.69-.78,1.08-1.68.99-2.24-.03-.18-.11-.29-.25-.37-.03,0-.06,0-.09,0-.71,0-1.45.74-1.88,1.95-.18.5-.61,1.85-.99,3.05Z"/>
          <path class="cls-2" d="M220.93,202.42c1.23-.37,2.61-.8,3.11-.97,1-.34,1.82-.95,2.02-1.47.06-.16.05-.29-.02-.43-.07-.11-.2-.26-.57-.26-.58,0-1.43.39-2.14.99-.41.34-1.46,1.29-2.4,2.14Z"/>
          <path class="cls-2" d="M225.53,204.8c.83,0,1.72-.24,1.72-.77s-.9-.77-1.73-.77c-.31,0-.64.03-.97.09-.53.1-1.92.4-3.17.68,1.25.27,2.64.58,3.17.68.33.06.66.09.98.09Z"/>
          <path class="cls-2" d="M225.47,208.78c.37,0,.5-.15.57-.26.08-.13.09-.27.02-.43-.19-.53-1.02-1.13-2.02-1.47-.51-.17-1.89-.6-3.11-.97.94.85,1.99,1.8,2.4,2.14.71.6,1.55.99,2.14.99Z"/>
          <path class="cls-2" d="M222.42,211.88c.09,0,.17-.02.25-.07.14-.08.22-.19.25-.37.09-.56-.3-1.46-.99-2.24-.36-.4-1.34-1.45-2.22-2.38.38,1.2.82,2.56,1,3.06.45,1.26,1.23,2.01,1.72,2.01Z"/>
          <path class="cls-2" d="M218.07,213.01c.17,0,.3-.06.42-.21.36-.44.48-1.41.28-2.42-.1-.52-.42-1.92-.7-3.15-.28,1.23-.61,2.63-.7,3.15-.2,1.01-.09,1.97.28,2.41.12.15.26.22.43.22Z"/>
          <path class="cls-2" d="M213.72,211.88c.49,0,1.27-.75,1.72-2.01.18-.5.61-1.85,1-3.05-.88.93-1.87,1.98-2.22,2.38-.69.78-1.08,1.68-.99,2.24.03.18.11.29.25.37l.25.07Z"/>
          <path class="cls-2" d="M210.68,208.78c.58,0,1.42-.39,2.13-.99.41-.34,1.46-1.29,2.4-2.14-1.22.37-2.6.8-3.11.97-1,.34-1.82.94-2.02,1.47-.06.16-.05.3.02.43.07.11.2.26.57.26Z"/>
          <path class="cls-2" d="M210.61,204.8c.31,0,.65-.03.98-.09.53-.1,1.92-.4,3.17-.68-1.25-.28-2.64-.58-3.17-.68-.33-.06-.66-.09-.98-.09-.83,0-1.73.24-1.73.77s.9.77,1.73.77Z"/>
          <path class="cls-2" d="M215.22,202.42c-.94-.85-1.99-1.8-2.4-2.14-.71-.6-1.55-.99-2.13-.99-.37,0-.5.15-.57.26-.08.13-.09.26-.02.43.19.53,1.02,1.13,2.02,1.47.51.17,1.89.6,3.11.97Z"/>
          <path class="cls-2" d="M216.43,201.26c-.38-1.2-.81-2.56-.99-3.05-.45-1.26-1.23-2.01-1.72-2.01-.39.15-.47.26-.5.44-.09.56.3,1.46.99,2.24.36.4,1.34,1.46,2.22,2.38Z"/>
        </g>
        <path class="cls-2" d="M208.92,214.25c.1-.5.17-1.13-.07-1.74-.35-.7-.77-1.55-1.65-1.85-.57-.21-1.06-.34-1.57-.34-.56,0-.83-.01-1.09-.04,0,0-.63-.1-.66-.1.04.03.37.32.37.32.38.37.57.61.74.85.21.26.35.55.47.81.09.18.17.36.25.45.49.53.83.9,1.34,1.09.62.37,1.36.64,1.82.79.02-.07.04-.14.06-.23Z"/>
        <path class="cls-2" d="M226.23,192.65c-.58-.05-1.04-.17-1.43-.31.15.03.32.05.53.05l.4-.02c.43-.04.93-.15,1.41-.25l.49-.1,2.91-.52-1.77-.68s-.48-.18-1.14-.31c-.47-.09-1.04-.15-1.54-.15-.2,0-.39.01-.57.03-.28.03-.51.08-.7.14.31-.18.69-.35,1.18-.5.2-.06.47-.1.78-.1.87,0,2.23.27,3.43,1.04.71.42,1.3.94,1.79,1.45-.57-.12-1.18-.19-1.76-.19h-.43c-.7.03-1.35.15-1.94.25-.46.08-.89.16-1.5.16h-.14ZM223.34,191.61c.19-.13.37-.27.54-.41.07-.05.14-.11.21-.16-.15.23-.16.46-.16.57.01.08.09.31.36.51-.22-.11-.83-.45-.95-.51Z"/>
        <g>
          <path class="cls-2" d="M86.36,221.07c.4,0,.62-.11.67-.22.1-.24-.37-.88-1.49-1.41l-1.27-.58c-.81-.36-2-.9-3.47-1.67-3.45-1.66-7.65-4.13-11.82-6.93-5.41-3.66-10.4-7.84-14.82-12.41-5.06-5.2-9.69-11.29-13.38-17.62-8.83-14.8-12-30.95-13.1-39.25l-.55-4.04-.4-4.92c-.15-1.82-.28-3.39-.28-4.77l-.14-5.22c-.01-.53-.2-.83-.27-.86-.03.04-.18.33-.17.84l.1,5.28c-.01,1.37.1,2.95.24,4.77l.36,4.94.52,4.06c1.05,8.36,4.11,24.63,12.89,39.63,3.68,6.42,8.31,12.62,13.39,17.92,4.44,4.66,9.46,8.92,14.9,12.67,5.66,3.87,9.89,6.12,11.91,7.11,1.49.79,2.68,1.34,3.5,1.71l1.26.58c.5.24.99.36,1.41.36Z"/>
          <g>
            <path class="cls-2" d="M112.06,227.86c-3.51-.54-7.46-1.39-11.12-2.4-4.2-1.14-8.81-2.71-12.64-4.3-1.64-.64-2.99-1.26-3.95-1.7l-1.61-.73s-1.36-.66-2.7-1.34l-1.84-.93-.29-.16s0,0,0,0c.11.36.36.94.97,1.65,1.22,1.44,3.78,3.49,9.08,5.15,2.47.81,5.68,1.67,9.53,2.57,3.77.81,7.42,1.44,10.54,1.81,1.5.17,2.84.3,4.02.39Z"/>
            <path class="cls-2" d="M112.06,227.86c-3.51-.54-7.46-1.39-11.12-2.4-4.2-1.14-8.81-2.71-12.64-4.3-1.64-.64-2.99-1.26-3.95-1.7l-1.61-.73s-1.36-.66-2.7-1.34l-1.84-.93-.29-.16s0,0,0,0c.11.36.36.94.97,1.65,1.22,1.44,3.78,3.49,9.08,5.15,2.47.81,5.68,1.67,9.53,2.57,3.77.81,7.42,1.44,10.54,1.81,1.5.17,2.84.3,4.02.39Z"/>
          </g>
          <g>
            <path class="cls-2" d="M73.44,214.32c-.52-.32-1.06-.66-1.61-1.01-.65-.41-1.32-.83-2.01-1.25-.55-.39-1.1-.77-1.66-1.15-1.38-.95-2.82-1.93-4.17-3.02-3.91-2.9-7.43-6.24-10.06-8.82l-3.01-3.22c-.76-.78-1.12-1.28-1.12-1.28l-1.91-2.3c-.59-.68-1.15-1.4-1.49-1.87-.04.41-.08,1.06.2,1.91.55,1.82,2.09,4.76,6.28,8.42,3.95,3.43,10.74,8.39,16.97,11.73l3.6,1.87Z"/>
            <path class="cls-2" d="M73.44,214.32c-.52-.32-1.06-.66-1.61-1.01-.65-.41-1.32-.83-2.01-1.25-.55-.39-1.1-.77-1.66-1.15-1.38-.95-2.82-1.93-4.17-3.02-3.91-2.9-7.43-6.24-10.06-8.82l-3.01-3.22c-.76-.78-1.12-1.28-1.12-1.28l-1.91-2.3c-.59-.68-1.15-1.4-1.49-1.87-.04.41-.08,1.06.2,1.91.55,1.82,2.09,4.76,6.28,8.42,3.95,3.43,10.74,8.39,16.97,11.73l3.6,1.87Z"/>
          </g>
          <g>
            <path class="cls-2" d="M43.68,186.67c-1.87-2.69-3.98-6.18-6.04-10.01l-.42-.86c-.93-1.9-1.85-3.8-2.64-5.62-.3-.77-.6-1.51-.89-2.22-.52-1.28-1.01-2.49-1.4-3.59l-1.91-5.78-1.39-5.26c-.2.34-.44.92-.57,1.85-.15,1.08-.11,2.39.11,3.9.38,1.84,1.09,3.98,2.09,6.37,2.15,4.66,6.18,12.11,10.43,17.78.37.48.73.97,1.08,1.44.52.71,1.03,1.38,1.54,2.01Z"/>
            <path class="cls-2" d="M43.68,186.67c-1.87-2.69-3.98-6.18-6.04-10.01l-.42-.86c-.93-1.9-1.85-3.8-2.64-5.62-.3-.77-.6-1.51-.89-2.22-.52-1.28-1.01-2.49-1.4-3.59l-1.91-5.78-1.39-5.26c-.2.34-.44.92-.57,1.85-.15,1.08-.11,2.39.11,3.9.38,1.84,1.09,3.98,2.09,6.37,2.15,4.66,6.18,12.11,10.43,17.78.37.48.73.97,1.08,1.44.52.71,1.03,1.38,1.54,2.01Z"/>
          </g>
        </g>
        <g>
          <path class="cls-2" d="M34.74,200.84c-.28-1.23-.61-2.63-.7-3.15-.19-1.01-.08-1.98.28-2.42.12-.15.26-.21.42-.21s.3.07.42.21c.37.44.48,1.42.28,2.42-.1.53-.42,1.92-.7,3.15Z"/>
          <path class="cls-2" d="M33.1,201.26c-.88-.93-1.86-1.98-2.22-2.38-.69-.78-1.08-1.68-.99-2.24.03-.18.11-.29.25-.37.03,0,.06,0,.09,0,.72,0,1.45.74,1.88,1.95.18.5.61,1.85.99,3.05Z"/>
          <path class="cls-2" d="M31.89,202.42c-1.23-.37-2.61-.8-3.11-.97-1-.34-1.82-.95-2.02-1.47-.06-.16-.05-.29.02-.43.07-.11.2-.26.57-.26.58,0,1.43.39,2.14.99.41.34,1.46,1.29,2.4,2.14Z"/>
          <path class="cls-2" d="M27.28,204.8c-.83,0-1.72-.24-1.72-.77s.9-.77,1.73-.77c.31,0,.64.03.98.09.53.1,1.92.4,3.17.68-1.25.27-2.64.58-3.17.68-.33.06-.66.09-.98.09Z"/>
          <path class="cls-2" d="M27.35,208.78c-.37,0-.5-.15-.57-.26-.08-.13-.09-.27-.02-.43.19-.53,1.02-1.13,2.02-1.47.51-.17,1.88-.6,3.11-.97-.94.85-1.99,1.8-2.4,2.14-.71.6-1.55.99-2.14.99Z"/>
          <path class="cls-2" d="M30.39,211.88c-.09,0-.17-.02-.25-.07-.14-.08-.22-.19-.25-.37-.09-.56.3-1.46.99-2.24.36-.4,1.34-1.45,2.22-2.38-.38,1.2-.82,2.56-1,3.06-.45,1.26-1.23,2.01-1.72,2.01Z"/>
          <path class="cls-2" d="M34.74,213.01c-.17,0-.3-.06-.42-.21-.36-.44-.48-1.41-.28-2.42.1-.52.42-1.92.7-3.15.28,1.23.61,2.63.7,3.15.2,1.01.09,1.97-.28,2.41-.12.15-.26.22-.43.22Z"/>
          <path class="cls-2" d="M39.09,211.88c-.49,0-1.27-.75-1.72-2.01-.18-.5-.61-1.85-1-3.05.88.93,1.87,1.98,2.22,2.38.69.78,1.08,1.68.99,2.24-.03.18-.11.29-.25.37l-.25.07Z"/>
          <path class="cls-2" d="M42.13,208.78c-.58,0-1.42-.39-2.13-.99-.41-.34-1.46-1.29-2.4-2.14,1.22.37,2.6.8,3.11.97,1,.34,1.82.94,2.02,1.47.06.16.05.3-.02.43-.07.11-.2.26-.57.26Z"/>
          <path class="cls-2" d="M42.2,204.8c-.31,0-.65-.03-.98-.09-.53-.1-1.92-.4-3.17-.68,1.25-.28,2.64-.58,3.17-.68.33-.06.66-.09.98-.09.83,0,1.73.24,1.73.77s-.9.77-1.73.77Z"/>
          <path class="cls-2" d="M37.6,202.42c.94-.85,1.99-1.8,2.4-2.14.71-.6,1.55-.99,2.13-.99.37,0,.5.15.57.26.08.13.09.26.02.43-.19.53-1.02,1.13-2.02,1.47-.51.17-1.88.6-3.11.97Z"/>
          <path class="cls-2" d="M36.38,201.26c.38-1.2.81-2.56.99-3.05.45-1.26,1.23-2.01,1.72-2.01.39.15.47.26.5.44.09.56-.3,1.46-.99,2.24-.36.4-1.34,1.46-2.22,2.38Z"/>
        </g>
        <path class="cls-2" d="M43.9,214.25c-.1-.5-.17-1.13.07-1.74.35-.7.77-1.55,1.65-1.85.57-.21,1.06-.34,1.57-.34.56,0,.83-.01,1.09-.04,0,0,.63-.1.66-.1-.04.03-.37.32-.37.32-.38.37-.57.61-.74.85-.21.26-.35.55-.47.81-.09.18-.17.36-.25.45-.49.53-.83.9-1.34,1.09-.62.37-1.36.64-1.82.79-.02-.07-.04-.14-.06-.23Z"/>
        <path class="cls-2" d="M26.44,192.65c-.61,0-1.04-.08-1.5-.16-.6-.11-1.24-.22-1.94-.24h-.43c-.58-.01-1.19.06-1.76.18.49-.51,1.08-1.03,1.79-1.45,1.2-.77,2.56-1.04,3.43-1.04.3,0,.57.03.78.1.48.14.86.31,1.18.5-.19-.06-.42-.11-.7-.14-.17-.02-.37-.03-.57-.03-.51,0-1.07.06-1.54.15-.66.13-1.14.31-1.14.31l-1.77.68,2.91.52.49.1c.48.1.99.21,1.41.25l.4.02c.21,0,.38-.02.53-.05-.39.15-.85.26-1.43.31h-.14ZM28.53,192.12c.27-.19.34-.43.36-.51,0-.12,0-.35-.16-.57l.21.16c.18.14.36.28.54.41-.11.06-.73.4-.95.51Z"/>
        <g>
          <path class="cls-2" d="M218.07,49.05c.28,1.23.61,2.63.7,3.15.19,1.01.08,1.98-.28,2.42-.12.15-.26.21-.42.21s-.3-.07-.42-.21c-.37-.44-.48-1.42-.28-2.42.1-.53.42-1.92.7-3.15Z"/>
          <path class="cls-2" d="M219.71,48.63c.88.93,1.86,1.98,2.22,2.38.69.78,1.08,1.68.99,2.24-.03.18-.11.29-.25.37-.03,0-.06,0-.09,0-.71,0-1.45-.74-1.88-1.95-.18-.5-.61-1.85-.99-3.05Z"/>
          <path class="cls-2" d="M220.93,47.47c1.23.37,2.61.8,3.11.97,1,.34,1.82.95,2.02,1.47.06.16.05.29-.02.43-.07.11-.2.26-.57.26-.58,0-1.43-.39-2.14-.99-.41-.34-1.46-1.29-2.4-2.14Z"/>
          <path class="cls-2" d="M225.53,45.08c.83,0,1.72.24,1.72.77s-.9.77-1.73.77c-.31,0-.64-.03-.97-.09-.53-.1-1.92-.4-3.17-.68,1.25-.27,2.64-.58,3.17-.68.33-.06.66-.09.98-.09Z"/>
          <path class="cls-2" d="M225.47,41.11c.37,0,.5.15.57.26.08.13.09.27.02.43-.19.53-1.02,1.13-2.02,1.47-.51.17-1.89.6-3.11.97.94-.85,1.99-1.8,2.4-2.14.71-.6,1.55-.99,2.14-.99Z"/>
          <path class="cls-2" d="M222.42,38.01c.09,0,.17.02.25.07.14.08.22.19.25.37.09.56-.3,1.46-.99,2.24-.36.4-1.34,1.45-2.22,2.38.38-1.2.82-2.56,1-3.06.45-1.26,1.23-2.01,1.72-2.01Z"/>
          <path class="cls-2" d="M218.07,36.88c.17,0,.3.06.42.21.36.44.48,1.41.28,2.42-.1.52-.42,1.92-.7,3.15-.28-1.23-.61-2.63-.7-3.15-.2-1.01-.09-1.97.28-2.41.12-.15.26-.22.43-.22Z"/>
          <path class="cls-2" d="M213.72,38.01c.49,0,1.27.75,1.72,2.01.18.5.61,1.85,1,3.05-.88-.93-1.87-1.98-2.22-2.38-.69-.78-1.08-1.68-.99-2.24.03-.18.11-.29.25-.37l.25-.07Z"/>
          <path class="cls-2" d="M210.68,41.11c.58,0,1.42.39,2.13.99.41.34,1.46,1.29,2.4,2.14-1.22-.37-2.6-.8-3.11-.97-1-.34-1.82-.94-2.02-1.47-.06-.16-.05-.3.02-.43.07-.11.2-.26.57-.26Z"/>
          <path class="cls-2" d="M210.61,45.08c.31,0,.65.03.98.09.53.1,1.92.4,3.17.68-1.25.28-2.64.58-3.17.68-.33.06-.66.09-.98.09-.83,0-1.73-.24-1.73-.77s.9-.77,1.73-.77Z"/>
          <path class="cls-2" d="M215.22,47.47c-.94.85-1.99,1.8-2.4,2.14-.71.6-1.55.99-2.13.99-.37,0-.5-.15-.57-.26-.08-.13-.09-.26-.02-.43.19-.53,1.02-1.13,2.02-1.47.51-.17,1.89-.6,3.11-.97Z"/>
          <path class="cls-2" d="M216.43,48.63c-.38,1.2-.81,2.56-.99,3.05-.45,1.26-1.23,2.01-1.72,2.01-.39-.15-.47-.26-.5-.44-.09-.56.3-1.46.99-2.24.36-.4,1.34-1.46,2.22-2.38Z"/>
        </g>
        <path class="cls-2" d="M208.92,35.64c.1.5.17,1.13-.07,1.74-.35.7-.77,1.55-1.65,1.85-.57.21-1.06.34-1.57.34-.56,0-.83.01-1.09.04,0,0-.63.1-.66.1.04-.03.37-.32.37-.32.38-.37.57-.61.74-.84.21-.26.35-.55.47-.81.09-.18.17-.36.25-.45.49-.53.83-.9,1.34-1.09.62-.37,1.36-.64,1.82-.79.02.07.04.14.06.23Z"/>
        <path class="cls-2" d="M226.37,57.24c.61,0,1.04.08,1.5.16.6.11,1.24.22,1.94.24h.43c.58.01,1.19-.06,1.76-.18-.49.51-1.08,1.03-1.79,1.45-1.2.77-2.56,1.04-3.43,1.04-.3,0-.57-.03-.78-.1-.48-.14-.86-.31-1.18-.5.19.06.42.11.7.14.17.02.37.03.57.03.51,0,1.07-.06,1.54-.15.66-.13,1.14-.31,1.14-.31l1.77-.68-2.91-.52-.49-.1c-.48-.1-.99-.21-1.41-.25l-.4-.02c-.21,0-.38.02-.53.05.39-.15.85-.26,1.43-.31h.14ZM224.29,57.77c-.27.19-.34.43-.36.51,0,.12,0,.35.16.57-.07-.05-.14-.11-.21-.16-.18-.14-.36-.28-.54-.41.11-.06.73-.4.95-.51Z"/>
        <g>
          <path class="cls-2" d="M34.74,49.05c-.28,1.23-.61,2.63-.7,3.15-.19,1.01-.08,1.98.28,2.42.12.15.26.21.42.21s.3-.07.42-.21c.37-.44.48-1.42.28-2.42-.1-.53-.42-1.92-.7-3.15Z"/>
          <path class="cls-2" d="M33.1,48.63c-.88.93-1.86,1.98-2.22,2.38-.69.78-1.08,1.68-.99,2.24.03.18.11.29.25.37.03,0,.06,0,.09,0,.72,0,1.45-.74,1.88-1.95.18-.5.61-1.85.99-3.05Z"/>
          <path class="cls-2" d="M31.89,47.47c-1.23.37-2.61.8-3.11.97-1,.34-1.82.95-2.02,1.47-.06.16-.05.29.02.43.07.11.2.26.57.26.58,0,1.43-.39,2.14-.99.41-.34,1.46-1.29,2.4-2.14Z"/>
          <path class="cls-2" d="M27.28,45.08c-.83,0-1.72.24-1.72.77s.9.77,1.73.77c.31,0,.64-.03.98-.09.53-.1,1.92-.4,3.17-.68-1.25-.27-2.64-.58-3.17-.68-.33-.06-.66-.09-.98-.09Z"/>
          <path class="cls-2" d="M27.35,41.11c-.37,0-.5.15-.57.26-.08.13-.09.27-.02.43.19.53,1.02,1.13,2.02,1.47.51.17,1.88.6,3.11.97-.94-.85-1.99-1.8-2.4-2.14-.71-.6-1.55-.99-2.14-.99Z"/>
          <path class="cls-2" d="M30.39,38.01c-.09,0-.17.02-.25.07-.14.08-.22.19-.25.37-.09.56.3,1.46.99,2.24.36.4,1.34,1.45,2.22,2.38-.38-1.2-.82-2.56-1-3.06-.45-1.26-1.23-2.01-1.72-2.01Z"/>
          <path class="cls-2" d="M34.74,36.88c-.17,0-.3.06-.42.21-.36.44-.48,1.41-.28,2.42.1.52.42,1.92.7,3.15.28-1.23.61-2.63.7-3.15.2-1.01.09-1.97-.28-2.41-.12-.15-.26-.22-.43-.22Z"/>
          <path class="cls-2" d="M39.09,38.01c-.49,0-1.27.75-1.72,2.01-.18.5-.61,1.85-1,3.05.88-.93,1.87-1.98,2.22-2.38.69-.78,1.08-1.68.99-2.24-.03-.18-.11-.29-.25-.37l-.25-.07Z"/>
          <path class="cls-2" d="M42.13,41.11c-.58,0-1.42.39-2.13.99-.41.34-1.46,1.29-2.4,2.14,1.22-.37,2.6-.8,3.11-.97,1-.34,1.82-.94,2.02-1.47.06-.16.05-.3-.02-.43-.07-.11-.2-.26-.57-.26Z"/>
          <path class="cls-2" d="M42.2,45.08c-.31,0-.65.03-.98.09-.53.1-1.92.4-3.17.68,1.25.28,2.64.58,3.17.68.33.06.66.09.98.09.83,0,1.73-.24,1.73-.77s-.9-.77-1.73-.77Z"/>
          <path class="cls-2" d="M37.6,47.47c.94.85,1.99,1.8,2.4,2.14.71.6,1.55.99,2.13.99.37,0,.5-.15.57-.26.08-.13.09-.26.02-.43-.19-.53-1.02-1.13-2.02-1.47-.51-.17-1.88-.6-3.11-.97Z"/>
          <path class="cls-2" d="M36.38,48.63c.38,1.2.81,2.56.99,3.05.45,1.26,1.23,2.01,1.72,2.01.39-.15.47-.26.5-.44.09-.56-.3-1.46-.99-2.24-.36-.4-1.34-1.46-2.22-2.38Z"/>
        </g>
        <path class="cls-2" d="M43.9,35.64c-.1.5-.17,1.13.07,1.74.35.7.77,1.55,1.65,1.85.57.21,1.06.34,1.57.34.56,0,.83.01,1.09.04,0,0,.63.1.66.1-.04-.03-.37-.32-.37-.32-.38-.37-.57-.61-.74-.84-.21-.26-.35-.55-.47-.81-.09-.18-.17-.36-.25-.45-.49-.53-.83-.9-1.34-1.09-.62-.37-1.36-.64-1.82-.79-.02.07-.04.14-.06.23Z"/>
        <path class="cls-2" d="M26.58,57.24c.58.05,1.04.17,1.43.31-.15-.03-.32-.05-.53-.05l-.4.02c-.43.04-.93.15-1.41.25l-.49.1-2.91.52,1.77.68s.48.18,1.14.31c.47.09,1.04.15,1.54.15.2,0,.39-.01.57-.03.28-.03.51-.08.7-.14-.31.18-.69.35-1.18.5-.2.06-.47.1-.78.1-.87,0-2.23-.27-3.43-1.04-.71-.42-1.3-.94-1.79-1.45.57.12,1.18.19,1.76.19h.43c.7-.03,1.35-.15,1.94-.25.46-.08.89-.16,1.5-.16h.14ZM29.47,58.28c-.19.13-.37.27-.54.41l-.21.16c.15-.23.16-.46.16-.57-.01-.08-.09-.31-.36-.51.22.11.83.45.95.51Z"/>
      </g>
    </g>
  </g>
</svg>