<?xml version="1.0" encoding="UTF-8"?>
<svg id="Layer_2" data-name="Layer 2" xmlns="http://www.w3.org/2000/svg" xmlns:xlink="http://www.w3.org/1999/xlink" viewBox="0 0 197 303">
  <defs>
    <style>
      .cls-1 {
        fill: #d1caa1;
      }

      .cls-2 {
        clip-path: url(#clippath);
      }

      .cls-3 {
        fill: none;
      }
    </style>
    <clipPath id="clippath">
      <rect class="cls-3" width="197" height="303"/>
    </clipPath>
  </defs>
  <g id="gallery">
    <g class="cls-2">
      <g>
        <path class="cls-1" d="M48.64,12.99c-.18,.78-.19,1.29,0,1.34,.45,.42,.63-3.35,1.16-2.49,.2,.14,.34,.35,.31,.47-.09,.3,.75,.31,.64,.64,1.69,1.94,4.53,5.15,7.27,7.02,1.34,.94,1.36,.97,.58,.95-2.05,.18-6.81-1.13-8.93-2.18-1.19-.69-1.22-.74-1.03-1.6,.12-.48,.12-.91,0-.94-.13-.02-.1-.31,.04-.62,.39-.94-.26-1.33-.52,.23-.2,.84-.2,1.31,0,1.37,.17,.05,.05,.2-.29,.34-.36,.16-.5,.35-.36,.5,.39,1.53,.58,6.79,1.34,7.42,.14,.15,.16,.23,.05,.21-.27,0,.09,1.21,.36,1.04,.13-.04,.13,.12,0,.35-.14,.24,.04,1.62,.4,3.11,2.07,8.7,5.89,5.32,3.95,11.71-.7,2.92-.94,3.58-1.58,4.4-1.12,1.46-3.19,5.5-4.56,8.95-1.63,3.96-3.12,16.38-3.2,20.95-.17,3.13-.47,5.5-.07,9.36,.29,3.38,0,9.37,.66,12.04,.14,1.32,.74,6.26,1.34,8.83,1.43,6.08,4.56,9.47,9.69,12.78,5.39,4.71,9.16,10.61,12.17,15.69,1.76,2.75,8.21,9.72,11.8,11.35,5.97,3.49,13.41,6.5,19.89,8.97,1.42,.45,4.33,1.83,5.42,2.31,.17,.05,.29,.19,.26,.3,.09,.39,.75,.36,.92,.91,1.86,15.25-2.6,35.78-7.26,50.88-5.4,17.88-11.11,28.42-23.92,42.86-.7,1.15-3.65,2.77-4.24,3.7-.08,.4-1.13,.95-1.56,1.19,.27-2.22-.32-3.09,.14-5.65,.62-4.61,.51-8.59,.49-13.13-.07-1.57-.04-1.65,.72-2.64,1.43-2.01,7.49-10.52,8.53-11.06,1.79-1.28,5.92-9.18,7.72-14.74,7.05-21.53,3.42-31.72-9.31-48.45-1.15-1.46-4.85-4.3-6.34-5.79-.13-.06-1.56-2.19-3.21-4.78-5.1-9.96-14.86-14.77-24.76-20.25-.36-.42-3.11-2.47-3.73-2.88-1.26-1-3.89-4.7-4.52-6.36-.63-1.66-2.08-4.34-2.41-4.42-.14-.04-.59,.42-1.03,1.02-2,2.59-1,1.07-3.91,6.55-4.88,8.46-7.76,15.17-10.99,25.95-3.03,8.76-10.09,24.93-5.47,36.27,4.08,9.36,11.01,21.66,15.54,28.59,4.64,7.42,7.28,16.73,16.55,20.42,1.88,1.03,4.68,2.73,5.91,2.05,2.72,.72,13.5,.67,17.03,1.5,.99,.81,.13,2.27,.17,3.81-.09,1.01-.19,2.73-.22,3.83-.06,2.79-.2,2.16-.56,5.09-.76,6.36-.95,5.48-2.57,9.28-.44,1.01-.83,1.39-2.38,2.37-2.56,1.61-2.24,1.72-5.01,3.22-11.12,6.03-26.03,15.72-31.59,18.47-5.11,2.69-9.91,4.8-14.89,7.62-2.06,1.08-6.7,4.89-8.41,5.59,.21,.4,.5,.91,.88,1.45,0-.05,.03-.11,.1-.14,.09-.05,.25,.07,.38,.28,.25,.44-.08,.34-.3,.13,.79,1.1,1.89,2.28,3.3,2.96-.13-.23-.02-.38,.4-.35,.83-.03,1.31-.93,2.41-1.06,4-.11,9.98,1.66,16.06,5.68,8.83,5.43,11.46,7.75,15.52,14.44,1.83,3.26,4.29,6.52,4.78,6.37-.61,1.57,9.34,7.72,13.46,9.52,1.45,.79,8.54,3.51,11.67,4.48,2.23,1.07,7.07-.39,9.29-1.19,3.14-1.35,5.57-2.11,6.25-1.95,5.19,2.49,8.28,2.77,15.86-1.98,3.69-2.59,8.57-3.31,11.2-5.79,4.55-3.97,5.15-10.19,8.02-16.33,4.67-7.43,8.85-17.76,8.56-23.42-.16-1.35-.11-1.73,.33-2.55,.98-.82,.5-6.84,.83-9.36,.18-1.56-.03-4.96-.32-5.03-.11-.03-.1-.17,.02-.35,.57-5.16-4.87-13.36-9.29-16.07-4.82-3.04-7.57-3.03-12.27-.91-.78-.19-4.25,.88-6.02,1.85-3.7,1.83-9.04,4.05-11.87,3.42-2.27,.3-3.78,2.01-.34,2.51,5.15,.65,12.26,3.76,15.57,8.74,.92,1.03,1,1.23,.62,1.48-1.29,1.23-.25,.86-3.3,2.84-2.69,1.85-5.19,3.15-5.57,2.89-.36-.29-1.39,.63-1.71,.55-2.89,.42-16.19,3.67-18.9,5.19-2.99,1.35-9.66,5.6-13.51,8.72-2.72,2.12-4.33,6.04-7.58,7.09-1.01,.4-6.74,2.64-7.84,3.26-4.03,2.19-6.72,3.14-8.81,3.1-1.27-.04-3.72-.05-5.21-.1-2.69-2.65-6.22-5.61-9.18-7.61-.72-.17-6.3-3.87-6.6-4.37-.72-.6,2.02-2.4,2.45-2.67,3.07-2.25,2.21-2.08,7.63-4.96,1.41-.77,3.46-2.11,4.5-2.95,2.66-2.31,8.82-5.3,12.82-7.44,10.12-5.18,19.58-12.51,28.7-19.14,4.54-3.06,8.42-6.35,12.01-11.17,3.46-4.03,4.35-3.59,8.29-10.3,.55-.82,2.48-4.02,2.86-4.78,1.61-1.45,6.68-3.64,6.14-4-.07-.13-.03-.16,.13-.07,.38,.22,3.39-1.36,3.28-1.72-.05-.16,0-.22,.11-.1,2.12,.46,14.52-7.77,16.57-10.53,.4-.44,1.27-1.25,1.91-1.82,2.11-1.31,4.51-5.97,5.94-8.07,6.81-2.37,15.02-5.72,19.22-11.75,.04-.22,.19-.39,.3-.36,.22,.05,2.24-2.37,2.34-2.8,2.95-3.51,6.98-12.13,5.84-16.12-.25-.05,.57-1.9,1-2.23,1.21-1.25,3.09-3.25,4.7-5.04,5.79-6.32,8.66-12.27,10.69-22.12,1.06-4.2,2.55-13.55,4.36-16.36,.92-1.53,3.76-4.31,4.28-4.18,.23,.1,1.94-.87,2.16-.81,.3,.08,3.59-2.87,3.7-3.3-.24-.96-5.07-1.04-6.35-1.07-4.09,.54-9.17-1.97-13.13-1.92-11.71,.74-26.27,8.09-31.91,16.71-.76,.64-3.64,11.19-4.26,12.37-.71,1.81-8.64,7.82-9.01,9.83-8.2,9.58-6.41,26.18-.86,38.1,.59,1.41,2.33,7.32,2.89,8.68,1.67,2.64-11,11.64-11.5,11.97-.35,0,.06,.58-.32,.49-.61-.15-5.53,3.31-6.19,3.19-.46,.1-.85,.3-.88,.42,.05,.25-2.08,.91-2.01,1.17,.03,.1-.31,.23-.75,.27-.72-.05-4.23,1.93-2.61-.12,3.23-7.82,6.44-28.13,7.48-36.34,1.33-8.29,1.41-18.14,.68-26.4q-.39-2.32,3.25-5.49c2.86-2.17,7.41-7.93,8.67-9.68,4.17-6.5,8.4-12.62,10.9-18.64,4.55-9.94,5.29-21.51,2.36-31.94-.19-.13-.22-.28-.05-.34,.29-.09-.2-5.26-.73-7.72-.28-1.24-.96-3.15-1.28-3.51-4.37-8.53-2.14-6.5-10.73-20.44-3.91-6.39-7.7-13.6-11.53-18.55-3.74-3.6-6.28-5.22-10.98-8.53-.31-.44-2.13-1.04-2.43-1.43-.57-.55-4.74-1.99-6.13-2.71-1.76-1.09-1.22,.21-1.52-.43-.18-.57-2.11-1.61-5.72-3.11-5.02-2.49-18.41-4.3-23.45-6.72-4.04-2.7-5.4-3.96-8.25-6.76-.79-.99-2.7-2.52-3.46-3.53-2.09-2.39-.77,1.67-1.28,2.76Zm6.41,127.93c1.18,1.25,3.4,2.63,4.14,4.25,.6,1.03,2.66,7.72,3.08,9.97,.9,4.19,1.37,8.67,1.42,12.9,.57,2.72,.35-6.55-.24-8.57,.14-1.47-2.5-11.09-3.54-13.74,4.1,3.87,6.66,10.05,7.03,14.97,.52,3.3,.88,6.95,.93,9.4,.03,2.29,.3,4.01,.51,3.29,.25-2.32-.53-12.36-1.51-15.82-.42-1.93-.51-2.24,.74-.57,.91,1.24,3.41,3.38,5.11,4.35,1.42,.81,1.92,1.52,2.96,4.15,6.95,17.99-6.46,35.89-11.05,52.88-1.36-2.66-1.5-2.88-.11-7.92,1.7-5.83,6.91-20.92,6.67-23.25-.38-.15-2.3,8.5-2.52,8.65-1.85,5.85-4.37,12.58-5.76,19.04-2.71-4.63-7.22-10.17-10.64-14.27-1.49-1.41-1.68-1.68-1.54-2.23-.7-7.53,3.91-23.95,4.71-29.78,1-7.08,1.62-10.46,1.07-18.26-.15-2.33-.41-3.98-1.16-7.11-.27-1.52-1.08-3.5-.31-2.34Zm-14.25-10.56c3,3.45,10.34,5.72,12.93,9.73,.73,.56,1.49,7.3,2.34,9.18,.18,0,.18,.17,0,.46-.45,.21-.04,6.38-.39,8.81-.94,7.81-1.43,10.38-3.96,21.12-2.16,9.86-2.79,10.17-2.82,16.07,.27,2.09-4.02-6.25-4.4-7.12-1.52-3.85-2.88-3.87-2.66-7.52,.03-3.75,2.33-11.73,2.58-15.44,.83-4.92,.91-5.92,.48-6.03-.12-.03-.24,.28-.27,.68-.03,2.05-3.06,15.58-3.51,19.35-.1,2.01-.13,2.05-.74,.58-3.16-6.45-8.24-24.41-4.6-32.52,1.39-3.14,4.33-13.57,4.45-15.77-.01-.94,.34-2.1,.58-1.57Zm-7.53-10.35c.78,2.11,4.5,8.69,5.78,9.35,2.15,1.26-3.29,15.59-4.21,18.21-1.38,4.77-1.15-3.75-1.49-7.55,0-1.71-.18-2.17-.29-3.01,.28-1.31-.39-18.44,.21-17.01Zm-5.82,7.44c1.62-2.95,2.98-5.9,5.03-8.3-.56,3.61-.52,7.7-.28,11.2-.11,5.74,.09,12.24,.44,18.55,.08,1.42-.17,1.61-.54,.4-.35-1.1-2.6-5.25-2.82-5.17-.1,.05-.11,.02,0-.06,.09-.07-.18-.82-.6-1.69-.98-1.41-3.17-10.24-2.56-12.16,.06-.28,.66-1.52,1.33-2.77Zm-2.4,20.85c1.44,2.27,1.39,1.89-.14-.91-1.39-2.55-2.46-5.62-3.09-8.39,.82-2.23,2.64-5.54,3.19-7.45-.05-.1,.02-.15,.19-.11,.16,.04,.22,.36,.14,.7-.12,2.56,1.33,11.1,3.12,14.17,2.75,6.52,5.36,9.7,5.96,17.33,.2,3.03,1.05,5.64,.94,7.82-.32,.22,.63,3.37,.37,3.43-.61-.61-4.62-5.96-5.53-7.36-1.08-1.67-1.27-1.84-1.4-1.32,.12,1.48,8.25,9.97,8.82,13.37,1.02,3.53,5.33,9.96,6.03,12.71-.25-.05-1.39-1.18-1.74-1.02-.15,.05-.18-.01-.05-.13,.2-.2-2.48-2.26-2.77-2.13-.07,.03-.16-.07-.21-.24-6.66-6.09-10.93-9.06-16.18-17.87-2.51-4.08-4.82-8.86-5.87-11.43-.96-1.96-1.09-1.13,1.34-9.06,5.01-16.91,2.23-7.68,6.86-2.1Zm-11.46,18.03l.52,1.05c1.34,3.32,5.57,12.09,7.14,13.79,.31,.28,.55,.6,.51,.73-.09,.34,1.2,2.1,1.76,2.41,4.29,5.98,13.27,10.43,20,14.23,2.85,1.54-.43-1.15-1.2-1.06-.34,.09-.01-.5-.59-.57-.8-.25-2.05-1.36-2.97-1.6-.47-.15-.86-.39-.83-.5,.01-.1-.12-.15-.29-.09-.46,.1-.53-.79-1.45-.89-.48-.13-.82-.29-.75-.35-1.05-1.03-7.04-4.64-7.52-5.36-6.59-5.85-10.73-14.26-14.02-22.39,2.47-8.57,.84-7.04,4.14-.24,3.96,8.6,9.07,17.27,16.52,23.22,3.03,3.17,13.31,9.05,14.16,10.91,1.98,2.18,4.46,5.45,6.08,7.84,3.03,3.44,5.83,7.33,7.89,11.94-3.19-2.51-6.75-4.17-10.38-5.57-2.31-.98-7.57-3.31-13.9-5.65-5.61-2.11-8.76-3.82-13.27-6.67-4.02-2.52-4.35-2.64-7.71-5.98-6.5-10.31-7.45-17.28-3.87-29.21Zm33.61,68.97c-2.61-.58-7.46-3.53-8.74-4.26-1.12-1.06-6.51-9.07-6.63-10.2,.04-.16,.32-.06,.7,.27,.88,.75,4.09,2.4,6.89,3.55,2.58,1.07,12.44,3.57,12.31,3.14-6.79-2.44-18.13-3.7-21.78-10.1-.43-.7-14.94-23.01-10.34-18.44,6.6,5.55,14.16,9.32,21.72,11.91,4.89,2.29,11.12,5.19,16.07,7.57,2.04,.88,5.97,4.59,6.88,5.01,1.32,.25,2.6,11.3,2.47,13.52-5.36-1.63-14.05-1.26-19.55-1.96Zm22.23,.09c-.42-2.33-.56-2.43,1.37-5.61,5.7-9.51,8.04-13.98,11.43-22.55,1.7-5.38-4.81,10.16-5.91,11.56-1.43,2.63-1.41,3.19-2.52,4.6-.44,.81,.49,.66-.09,.87-1.72,1.6-3.37,5.38-4.92,7.47-3.18-11.5-2.08-8.57,1.29-20.87,4.09-13.15,9.9-24.54,8.51-37.96-.07-1.68-.96-5.43-1.55-6.62-.56-1.11-.6-1.7-.06-.89,7.82,8.02,13.36,18.16,12.09,29.43-1.4,8.43-5.97,22.52-11.82,29.53-.37,.3-2.02,2.77-5.44,8.17-1.96,3.09-2.19,3.37-2.39,2.86Zm13.6,9.96c5.48-6.2,8.58-12.63,12.08-20.11,.73,.16-4.05,9.94-5.18,11.91-1.6,2.91-5.76,8-8.44,10.25-.1-.34,.74-.95,1.54-2.05Zm-49.2,36.39c.56-.3,.9-.4,.74-.23-1.07,1-5.63,2.79-.74,.23Zm-2.87,1.59c.4,.02-1.4,1.08-1.18,1.34-.03,.36-2.93,1.33-3.63,1.6,.88-.54,4.55-2.84,4.8-2.94Zm-13.05,7.02l.8-.46c-.92,1.34-2.48,2.05-3.93,2.45-.32-.3,2.9-1.76,3.13-1.99Zm56.24,51.11c-2.16,.3-4.12-.09-6.63-1.3-1.9-.93-6.97-2.81-8.82-3.76-7.21-2.92-13.13-8.11-17.49-14.49-1.13-1.49-1.24-1.78-3.02-3.94-1.88-2.43-2.77-3.16,0-1.26,6.35,4.56,10.67,6.01,17.3,7.92,.41,.61,1.41,2.06,1.95,2.19,.27,.06,.47,.22,.44,.34,.08,.47,1.4,1.24,1.62,1.73,1.72,2.57,8.39,8.93,11.32,10.83,1.2,.77,2.31,1.01,4.94,1.1,1.33,.04,.55,.35-1.62,.65Zm-35.19-25.43c.19,.14,.34,.37,.31,.49-.23,.32-1.45-1.28-.31-.49Zm1.64,1.09c.1-.05,.29,.08,.42,.29,.47,.67-.66-.18-.42-.29Zm70.42,14.06c-1.02,1.21-3.02,2.32-5.09,2.83-.92,.23-1.68,.55-1.69,.71-.02,.42-.7-.33-.77,.1-.05,.17-.17,.23-.29,.16-.22-.13-1.52,.56-3.77,1.99-2.11,1.36-6.2,2.65-7.91,2.52-1.78,0-7.65-2.63-8.53-.84-1.02,.8-4.17,1.83-5.59,1.41-.84-.14-1.62-.12-1.7,.03-.25,.4-3.68-.51-4.68-1.26-2.47-1.81-13.04-13.46-12.23-13.48,.11,0,1.85,.27,3.84,.59,6.03,1.01,11.19,1.23,16.9,1,3.29,0,15.52,4.9,19.33,5.03,3.82,.39,10.09-.63,13.25-2.26,1.5-.68-.71,.89-1.07,1.45Zm2.32-18.01l1.25-.86c.17,1.07,.4,1.9,.87,3.33,.57,1.65,.57,1.74,.06,1.94-3.55,1.4-9.06,1.54-12.78,1.09,.67-.46,3.32-2.07,3.28-2.5-.05-.18,.02-.23,.18-.15-.13,.96,6.06-6.49,7.88-8.62,.11,1.05,.32,3.19,.42,4.24-.57,.47-1.77,1.48-2.27,1.68-.93,.73,.24,.57,1.11-.14Zm5.42-1.72c.07-.08-.04-.37-.24-.61-.97-1.41-1.01-2.97,.38-.22,1.91,3.35,.31,2.45-.14,.82Zm-.57,4.5c-.24-1.42-.49-3.21-.14-4.43l.54,.84c.29,.46,.65,.86,.8,.9,.38,.1-.97,2.24-1.19,2.7Zm-8.32-4.92c-3.38,4.09-5.27,5.51-8.24,7.23,3.83-8.74,2.94-17.11,4.17-28.03,.1-2.4,.46-6.56,.71-8.15,.42-2.23-.27-1.52,.92-3.76l.59-1.06c.72,1.35,3.24,4.98,3.77,6.52,1.81,7.26,2.14,10.5,2.38,18-.02,4.05-.2,4.44-4.29,9.25Zm-4.13,9.07c3.84,.3,6.59-.3,9.99-1.57,.53,1.78-1.02,6.25-2.26,8.98-.87,1.67-1.7,2.19-4.69,2.89-6.25,2.54-17.17-1.82-25.06-4.16,1.48-.33,2.56-.63,4.87-1.27,6.75-1.55,9.48-6,17.14-4.87Zm14.94-8.41c-.76,1.19-2.23-5.36-2.7-5.43-.36-.52-.62-3.29-.35-3.64,.45,1.03,1.69,4.79,2.57,6,1.05,1.69,1.16,2.43,.49,3.07Zm-8-54.51c6.71-1.21,13.05,7.71,14.43,13.83,.13,.75,.05,.69-.92-.76-3.07-5.23-8.74-8.98-13.03-11.17,.03-.15-.37-.28-1-.33-.91-.07-1.57-.32-2.22-.7,.84-.4,1.56-.62,2.75-.87Zm-8.35,2.89c2.29,.46,.09-.25,2.81-1.01,3.22-1.26,10.02,2.68,12.25,4.68,6.31,5.63,8.08,8.35,8.74,14.49,.1,.48-.99-.96-1.77-2.32-1.08-1.97-6.95-8.3-7.5-8.3-1.47-2.18-11.54-8.48-12.94-7.55,5.05,2.1,13,7.01,16.82,11.98,4.75,5.33,5.2,6.9,5.45,11.02,.32,1.71,.46,4.97,.23,5.44-.19,.38-1.36-1.76-2.87-5.25-3.99-8.4-14.3-19.84-25.31-21.49,1.05-.61,3.17-2.06,4.07-1.7Zm-6.68,2.67c9.81-2.2,23.18,12.52,26.68,20.82,2.17,4.7,4.01,6.99,2.77,11.92-.69,1.51-4.47-7.09-4.34-7.42-1.52-4.3-4.19-10.67-7.57-13.65-.19,.05-1.97-2.24-2.21-1.58-.25,.24-.29,.22-.22-.09-.74-2.75-13.15-8.03-14.49-8.28-3.52-1.06-3.56-1.18-.62-1.72Zm-2.9,1.71c-1.26-.3-1.28-.32-.76-.67,.3-.21,.54-.26,.55-.13,7.73,2.69,18.25,7.41,23.69,15.65,2.31,3.42,4.42,11.08,7.17,16.23,1.15,.99,1.3,1.6,.8,3.26-.25,.83-.55,1.5-.66,1.47-.25-.05-1.58-3.01-2.66-5.93-1.52-3.99-1.08-2.32-.61-.16,.34,1.67,2.12,5.99,2.69,6.5,.68,.08-.27,2.47-.99,3.91-2.24-5.43-2.58-6.33-5.1-14.17-1.78-5.19-3.36-10.9-6.49-14.58-3.95-4.58-12.21-9.56-17.63-11.38Zm12.63,8.32c.03-.12-.24-.51-.59-.85-1.24-1.22-.35-.77,1.5,.76,2.15,1.77,3.95,3.87,5.16,6.03,.8,1.43,1.19,2.47,3.22,8.46,3.59,10.61,5.49,15.59,6.44,16.9l.75,1.03c-.42,1.04-1.43,3.63-1.93,4.19-1.49,1.55-4.73-11.62-4.7-13.07-.47-4.92-1.24-8.13-1.79-9.25,.12-.31-.58-2.84-1.11-3.99-1.06-2.4-5.81-8.75-6.95-10.2Zm-10.96,9.93c.3,.06,1.95-.31,2.51-.44l-.58,2.1c-.81,2.95-.52,3.04,.43,.13,.62-1.91,.89-2.43,1.33-2.61,.7-.21,.19-.65,.61-.56,.53,.13,3.97-1.76,5.02-2.76,1.95-2.1,.41,.8,.09,3.36-1.96,8.97-2.08,13.69-2.93,21.42-1.33,10.87-.01,7.17-2.52,14.71-2.79,3.45-13.45,6.31-18.65,6.94,.34-.28,1.34-1.05,1.41-1.3,3.55-4.7,5.97-15.06,7.16-22.64,1.1-6.62,2.65-14.95,6.13-18.34Zm-24.53,9.81c-1.08,1-4.5,15.97-2.14,8.07,.8-3.13,1.07-3.86,1.95-6.43,.78-2.3,1.23-2.71,5.22-4.7,.7-.32,4.18-2.24,4.89-2.28,.15,.03,.39-.06,.51-.21,.32-.41-.65,1.99-1.2,2.93-1.51,2.94-4.68,14.6-5.14,17.31,.09-.05,.86-2.66,1.75-5.82,1.47-5.19,1.34-5.06,2.5-8.03,.3-.82,1.05-2.55,1.67-3.89,1.28-2.74,1.36-2.79,5.42-4.17,4.98-1.69,7.87-2.62,8.06-2.58-.69,1.55-2.55,4-3.49,6.42-1.8,4.46-7.24,33.85-11.49,35.96-8.03,.77-15.86,.08-23.34-1.61,.64-.3,1.41-.64,2.11-.91,8.66-3.69,6.1-27.29,12.73-30.06Zm-29.89,18.39c3.19-.71,10.1-5.63,14.74-7.27,3.02-.47,6-5.38,7.75-6.22,.81-.37,3.83-2.95,4.56-3.07,.05,.1-.25,1.02-.67,2.01-3.58,9.39-3.28,24.04-13.67,26.48-1.11,.02-6.21-2.32-6.09-2.8,.03-.11-.26-.26-.64-.37-.72-.17-2.51-1.45-3.33-2.03,2.05-1.03,6.56-4.53,7-5.65,.04-.2-.72,.39-1.72,1.32-1.64,1.54-3.89,3.1-5.76,4.29-2.24-1.31-6.08-4.59-8.63-6.7,1.64,.12,5.39,.41,6.45,.01Zm-21.08-18.97c-1.24,1.07-5.88,3.85-6.28,3.75-.17-.04-.39,.08-.54,.28-.39,.62-3.8-.02-2.73,1.29-.02,.72,2.81,.45,3.07,.85,.04,.14,.51,.35,1.02,.46,2.26,.51,3.25,1.03,5.64,2.98,2.56,2.15,4.55,3.14,6.81,4.94,.98,.91,1.54,.96,1.98,1.46,.06,.39,1.58,1.78,2.08,1.92,.59,.16,5.25,4.34,5.18,4.65-.03,.13,.18,.26,.52,.29,.51,.07,.52,.09,.04,.24-.33,.93-7.42-4.98-8.96-5.98-.27-.06-.25-.11,.05-.22,1.64-.35-9.32-5.34-9.84-5.79-4.02-1.7-9.04-4.24-13.04-1.49-1.5,1.01-1.78,1.11-2.22,.77q-.49-.39,.38-.82c.49-.23,1.34-.87,1.93-1.42,.58-.54,1.11-1.21,1.17-1.47,.13-.53,5.65-3.93,6.17-3.8,.18,.04,.56-.09,.9-.31,1.01-.61,1.09-.14,2.41-.89,1.85-.9,1.41-.25,3.34-1.59,1.92-1.3,2.35-1.34,.93-.1Zm-2.23-.71c.94-1,3.03-2.18,4.39-2.37-.93,.78-6.34,4.56-4.39,2.37Zm3.97-.61c-1.81,.84,1.28-1.35,2.84-2.4,1.63-.96,4.57-1.86,6.35-3.14,1.01-.67,2.11-1.31,2.45-1.45,2.03-.68-9.63,6.04-11.64,6.99Zm13.89-10.56c-1.62,1.1-1.28,.45-.05-.1l1-.53-.94,.63Zm5.69-3.79c-.86,.16,.31-.48,.39-.23,.05,.1-.13,.2-.39,.23Zm61.46-48.79c-.91,.48-.6,.08,.07-.26,.91-.48,.6-.08-.07,.26Zm44.24-32.89c-.85,1.18-7.37,6.56-10.06,7.58-.17-.04-.44,.05-.59,.19-.51,.49-4.6,1.92-4.5,1.59,.03-.11,.37-.83,.76-1.63,1.26-3.09,10.06-5.84,13.27-8,4.55-2.66,2.01-.95,1.11,.28Zm7.15-10.02c-.36,.13-1.98,3.11-1.86,3.44,.04,.14-.02,.2-.17,.17-.22-.05-1.01,1.26-1.03,1.71-.82,1.72-13.65,7.33-16.94,9.45,.61-1.31,1.38-2.9,2.12-4.18,2.37-4.13,1.6-4.8,7.61-8.33,6.94-4.28,8.22-5.54,12.59-9.8-.43,1.5-1.7,6.18-2.23,6.8-.77,.72,.44,.47-.07,.74Zm5.05-12.57c-1.65,1.83-1.84,2.46-2.23,2.93-.22,.13-.45,.45-.52,.74-.25,1.93-13.27,10.41-17.29,13.36,.08-.45,2.27-8.3,2.79-10.11l1.44-1.69c5.97-6.82,20.19-13.14,25.47-19.16-2.1,5.42-5.48,8.91-9.66,13.93Zm12.91-22.49c-1.58,5.54-2.05,6.27-6.23,9.77-3.19,3.36-17.22,11.01-22.65,17.2-1.15,.94,1.47-4.45,1.93-5.5,1.79-4.56,5.99-6.82,8.6-9.95-.03-.19,.08-.26,.23-.16,.94-.08,4.35-3.08,5.29-3.53,3.64-2.48,8.52-5.43,11.64-8.55,.55-.5,1.24-1.28,1.56-1.74,.52-.76,.49-.54-.37,2.47Zm-14.55-9.23c-.23,4.52-1.46,8.61-3.65,11.3,.52-6.97-1.19-17.09,1.6-24.03-.08-1.31,3.9-.97,6.44-.97-2.28,3.04-4.14,9.36-4.4,13.71Zm7.06-7.38c.34-1.19,2.35-4.65,3.09-5.18,.29-.1,3.23,.46,4.02,.6-1.59,2.23-2.87,6.17-4.8,7.82-1.76,1.79-3.24,3.44-5,5.36,.4-1.06,1.53-4.6-.03-1.33-1.02,2.28-3.22,5.53-5,7.72,1.51-5.21,1.45-13.26,3.59-17.21,2.05-4.66,1.87-4.37,6.64-3.2-.95,1.27-2.04,2.87-2.64,4.39-.88,2.18-1.82,6.04-1.48,6.12,.32,.15,1.55-5.07,1.61-5.08Zm6.69,1.09c.26-.15,6.19-4.37,6.51-4.37-.19,.77-.98,2.02-1.32,3.1-.39,1.07-.65,1.41-1.29,1.67-.91,.38-2.95,1.49-6.7,3.68-2.94,1.75-3.73,1.84-2.01,.4,1.08-1.04,3.08-3.26,4.81-4.47Zm-1.64-.74c.11-.22,.7-1.4,1.32-2.62,1.09-2.14,1.16-2.23,2.14-2.39,1.3-.23,4.71-.34,4.81-.17,.04,.07-.39,.42-.97,.79-.34,.16-6.91,4.63-7.31,4.39Zm6.28,1.34l-.49,1.43c.51,2.25-11.36,8.29-13.8,9.91-2.97,1.8-1.97,1.15-.26-1.26,3-4.54,7.79-6.42,14.56-10.08Zm-2.15,7.69c-.65,2.63-.71,2.74-2.2,4.55-2.03,3.48-15.03,10.75-20.7,15.97-5.46,5.2-.72-.42,.02-2.28,9.77-16.72,7.98-11.04,21.86-20.48,3.07-2.3,1.38-.28,1.03,2.24Zm-13.57-20.1c6.49-1.5,7.81-2.4,15.47-.47,4.06,.93,4.45,.98,6.91,.78,2.56-.2,4.6-.15,4.53,.11-5.97,5.54-21.13,3.32-26.83,.81-1.25-.78-1.48-.79-.08-1.23Zm-7.34,2.74c.9-.34,1.66-.73,1.7-.88,.04-.14,.13-.16,.19-.05,.18,.31,3.28-1.27,3.3-.65,.28,.4,2.27,.95,2.99,1.16-2.23-.04-4.22,.14-6.96,.71-3.18,.65-4.11,.82-1.21-.29Zm-13.87,11.41c.65-1.24,1.61-1.8,1.84-2.69,.06-.59,.49,.05,.25,.62-.57,2.12,1.45,11.06,1.79,10.22-.62-2.98-1.68-9.14-1.41-10.9,.18-1.26,5.88-4.89,8.92-5.69-1.42,4.93-2.42,13.61-.71,17.55q.29,.07-.04-2.18c-.69-4.53-.04-11.09,1.1-14.75,.24-.97,1.36-1.23,2.02-1.12,.11,.06,.21,0,.23-.13,.21-.36,1.33-.15,1.68-.27,.37-.07,.32,.38-.31,3.04-.85,4.2-1.81,7.89-1.02,13.39-.15,.58-.15,1.21-.05,4.53,.55,4.52-1.93,6.86-3.95,9.87-.2-4.86-1.78-10.94-2.79-15.29-.15-.03-.16-.16-.03-.28,.12-.12,.16-1.27,.11-2.59-.3-3.33,.3-7.23,.09-8.61-.9-.76-1.11,9.28-.67,11.9,.6,4.68,2.38,11.5,2.46,16.24-1.18,1.77-2.49,3.75-3.7,5.74-1.05,1.42-2.01,4.12-1.67,1.46,.28-7.7-4.9-15.34-4.92-22.97-.43-5.37-.46-5.12,.79-7.09Zm10.16,23.82c-.3,.44-.04-.78,.1-.5,.07,.11,.02,.33-.1,.5Zm-13.15-16.14c-.15-.03-.19-.14-.1-.23,.14,.08,1.06-3.48,1.28-3.31,.42,5.88,.62,8.95,3.77,17.34,1.01,2.8,1.27,4.37,1.39,8.13,.24,3.88-1.83,8.42-3.03,11.71-1.55-5.83-9.46-21-6.4-25.97,1.41-1.07,3.55-7.07,3.09-7.67Zm-9.08,14.11c-.09-.13,1.81-1.85,1.68-1.97-.08-.02,.09-.17,.35-.34,.27-.17,.53-.43,.57-.6,.08-.37,1.53-1.62,2-2.05-.41,6.92,2.66,13.56,5.28,20.01,2.11,4.84,2.33,6.73,.11,11.6-.66-3.71-4.1-14-4.45-13.09,1.21,5.19,5.76,12.85,2.84,17.76-1.24-4.56-3.44-10.4-5.48-14.6-2.04-3.7-4.12-8.69-4.34-13.01-.37-1.7,.91-2.62,1.43-3.71Zm-3.07,5.05l.65-1.44c.2,8.93,6.99,18.79,9.9,27.18,.46,1.51,.45,1.53-.26,3.27-.67,1.65-1.99,4.3-2.88,6.05-1.91-9.13-7.61-14.99-8.53-25.59-.75-6.03-.63-6.05,1.11-9.47Zm-2.05,22.58c-.98-3.73-1.13-11.42-.37-15.71,.23-1.14,.25-1.17,.31-.42,1.2,13.12,3.12,13.61,7.39,24.95,.92,2.16,1.59,5.5,1.17,5.83-.57,.52-2.72,4.78-2.97,4.26-.29-3.47-3.88-13.5-5.53-18.91Zm12.7,7.78c2.42-5.44,5.54-13.84,6.69-18.95,.33-1.55,1.31-3.14,1.95-4.68,.64-1.48,1.44-2.92,3.4-6.02,2.68-4.41,2.69-3.65,.93-.82-3.17,5.25-5.27,10.65-7.15,16.47-1.44,4.86-2.99,11.87-5.42,15.88-1.16,2.14-.95,3.2-2.5,5.25-.37,.45-2.16,4.43-2.72,4.74-.24,.15-.39,.4-.34,.55-.69,1.89-2.02,3.92-3.39,5.7-.61,.74-1.07,1.45-1.04,1.59,.04,.14-.03,.21-.17,.17-4.3,3.35-6.67,6.1-12.02,8.95-3.53,2.09-8.72,4.62-9.25,4.51-.37-.08-1.77,.55-1.7,.76,.11,.34-3.96,2.63-4.52,2.54-1.02-.03,.68-.67,.47-.98-.05-.1-.27-.03-.51,.14-1.54,.9-.48-.76,.26-1.66,.52-.69,.9-1.34,.86-1.47-.06-.2,.32-.23,.76-.05,17.28-4.27,29.5-16.12,35.41-32.62Zm-29.07,7.92c-.04,1.28-3.6,16.39-4.76,20.22-.89,2.98-.71,2.16-2.07,1.51-.86-.49,.68-2.62,1.16-3.25,.71-.82,.74-.92,.57-1.93-.14-3.56,3.02-7.45,3.94-12.95,.91-3.69,1.18-4.53,1.15-3.61Zm.19-2.57c.06,.1,.02,.33-.1,.5-.3,.44-.05-.79,.1-.5Zm1.66-22.27c.09,4.07-.77,10.88-.69,14.42,.23,.91-1.2,1.41-1.06,2.46,.16,.43-1.09,4.58-.65,4.88,.15,.05,.11,.13-.11,.21-.22,.07-.38,.37-.37,.65,.05,1.16-1.79,9.27-2.51,11.14-.64,1.49-1.68,5.14-2.25,6.29-.1,.11-.2,.72-.21,1.33,0,1.77-1.27,2.46-1.76,4.27-1.28,2.7,1.54,1.84,.16,3.13-.6,.65-2.31,2.81-2,3.76,.11,.87-.28,1.8-2.24,5.35-6.41,10.87-16.29,22.13-27.63,29.47-5.14,3.28-8.64,6.47-12.17,8.66-7.08,4.06-7.37,3.91-11.75,6.13-2.69,1.48-.66,.06,1.26-1.29,4.87-3.74,11.15-8.02,17.29-10.87,1.1-.44,1.01-.3,2.5-1.41,10.81-8.55,22.82-18.59,29.57-32,1.12-1.86,2.27-4.42,3.08-6.58,1.04-2.96,1.71-9.19,3.01-10.96,2.55-4.19,5.02-12.69,5.36-18.42,.55-8.17,2.38-16.34,3-24.16,.45-1.56,.36,1.56,.19,3.53Zm.15-4.9c.06,.1,.02,.33-.09,.48-.3,.45-.04-.77,.09-.48Zm.1-1.47c.03,.19-.04,.49-.15,.64-.3,.44,.09-1.15,.15-.64ZM55.44,38.85l1.8,1.16c2.41,1.68,5.97,4.9,8.31,5.46,.33,.02,.72,.24,.88,.48,.28,.65,5.1,1.79,5.71,2.15,2.61,1.95,2.39,6.19,4.32,10.39,.91,2.46,1.7,4.66,1.78,4.86,.06,.2-.35-.11-.93-.7-1.89-1.88-18.58-15.51-18.17-15.51-1.11-1.14-1.54-1.22-2.62-2.73-.6-.79-.65-.81-.76-.33,1.09,3.78,23.39,20.33,23.03,21.16,.42,.7,.9,2.03,.48,2.43-.11-.05-.86-.76-1.66-1.58-2.99-3.09-5.08-4.51-7.06-6.04-3.84-3.38-12.06-8.33-15.42-12.28-1.69-1.85-1.65-1.53-.62-5.4l.93-3.52Zm40.83,15.38l-.4-1.33c.78,.31,2.87,1.04,3.2,1.49,3.83,6.71,4.3,13.93,3.31,22.17-.38,4-1.37,8.28-1.99,12.53-.69,2.46,.16,4.55-.98,5.52-.35-.57-1.84,7.74-2.03,7.55-.18-.04-.77-1.29-1.11-2.34-.17-.51-.4-.97-.5-1.02-.28-.17-1.3-3.2-1.59-3.99,.51-2.44,3.46-14.83,2.95-14.68,.65-3.87,1.22-19.28-.31-23.17-.33-.08-.34,.17-.07,2.56,.66,7.09,.43,14.44-.19,21.39-.14,1.25-2.79,12.36-2.95,12.41-.08,.02-.82-1.62-1.64-3.67-2.82-7.41-5.66-11.57-8.3-17.95-.3-.92-.25-1.41,.53-4.69,1.39-5.94,1.37-11.75-.07-14.22-.7-1.34-1.15-1.5,.61-1.34,3.16,.2,3.3,.02,8.23,.93,2.55,.46,2.79,.63,3.02,2.12,.23,1.36,.81,1.29,.3-.27Zm-13.8,15.03c-.05-.02-.49-1.31-.94-2.84-1.29-4.3-1.76-5.65-2.21-6.49-.25-.44-.4-.91-.37-1.06,.06-.24-.89-2.98-2.6-7.45-.39-1.05-.73-1.92-.73-1.95,0,0,1.36,.33,3.04,.74l3.03,.77c2.89,4.32,2.08,14.22,.77,18.27Zm-35.49,.99c.14-.37,.91-12.65,2.6-15.84,.62-2.51,2.62-5.9,3.53-7.57,4.42,4.54,7.36,7.72,15.72,14.45,1.92,1.95,11.49,9.32,14.19,14.7,.84,2.02,1.75,2.9,1.98,4.22-.04,.19,.08,.56,.28,.8,.66,1.01,.86,2.54,1.46,3.88,.31,.79,.48,1.37,.38,1.28-2.88-2.47-7.91-5.48-12.25-7.77-1.51-.83-2.12-1.02-1.86-.57,5.03,2.71,15.34,9.04,15.07,10.48,.41,1.2,.98,3.71,1.77,4.94,.81,1.51-1.99-.69-6.53-3.71-.65-.45-1.34-.82-1.52-.8,4.58,3.91,9.08,4.67,9.89,10.13-.1,.23,1.26,2.57,1.18,2.78-.02,.1,.26,.73,.62,1.42,.65,1.2,.64,1.96,0,1.08-.17-.24-.33-.34-.35-.24-6.07-6.22-24.7-13.59-31.56-19.62-3.44-2.23-14.37-10.33-14.62-14.05Zm.89,33.34c-.41-2.11,0-1.4,1.66-.28,2.09,1.42,4.91,3.61,6.7,4.23,4.59,2.63,10.17,4.11,12.18,4.73,1,.48,10.06,3.28,11.08,3.65,2.21,.74,9.3,4.12,10.45,4.66,.07-.04,.64,.26,1.27,.69,1.56,1.05,2.52,1.53,2.4,1.2-.05-.15-.7-.64-1.44-1.07-2.52-1.6-5.18-2.96-7.81-3.9-.25-.39-.55-.37-.84-.48-.3-.2-1.17-.58-2.05-.9-1.25-.47-1.42-.65-2.54-1.14-2.24-.84-12.97-4.23-16.49-5.12-.36,.13-.05-.46-.33-.44-1.17,.36-14.92-7.29-14.47-8.47-.62-3.34-1.21-8.76-1-11.87,.19-2.29-.23-5.15-.38-7.22,5.99,5.63,16.92,14.82,24.52,18.43,1.05,.4,.39,.54,1.76,1.04,2.04,.9,4.69,2.65,6.47,3.3,1.18,.05-1.56-1.05-1.68-1.25-1.47-1.09-6.82-3.58-8.55-4.61-.53-.22-1.07-.55-1.21-.74-.13-.19-.27-.26-.29-.15-.03,.1-.17,.04-.3-.13-1.22-1.09-4.19-2.66-5.68-3.95-3.13-2.53-4.33-3.41-4.57-3.33-.15,.04-.25-.05-.21-.2,.03-.15-.52-.72-1.21-1.25-2.32-1.79-8.42-7.04-8.69-7.47-.21-.36-.12-6.2,.14-7.98,.06-.46,.09-.44,.5,.13,.35,1.27,12.28,11.23,14.28,12.55,1.91,1.61,1.16,1.29,6.51,4.72,8.45,5.54,18.8,11.39,25.52,16.69,2.7,1.33,3.2,5.32,3.87,7.77,.66,2.86,2.79,8.29,3.48,10.16,.97,1.76,1.83,8.45,2.4,11.22-5.07-6.39-14.07-11.61-20.35-13.73-10.3-2.99-21.71-4.38-29.66-11.47-2.26-1.78-3.21-2.5-3.67-2.77-1.01-1.21-1.63-3.62-1.77-5.29Zm57.56,51.86c-2.79-2.24-7.26-3.15-10.98-5.34-3.86-1.91-4.96-2.23-8.76-4.14-6.6-3.13-10.42-6.54-14.46-11.5,7.36,.82,17.71,5.44,25.95,10.02,.78,.18-.24-.51-2.98-2.02-8.97-5.21-14.28-6.34-23.63-8.75-.35-.47-1.61-2.04-1.57-2.34,.06-.3-1.05-.36-.89-.77,.25-.42-3.02-4.07-.92-3,.99,.47,3.35,1.2,8.78,2.72,3.58,.64,19.66,7.61,9.35,2.81-2.69-1.64-20.21-5.71-20.27-7.44-3.43-3.88-6.49-7.42-10.21-9.75-1.89-1.15-3.51-2.76-4.28-4.45,.13,.09,1.06,.87,2.17,1.78,7.38,5.35,8.97,5.67,18.61,7.85,13.88,2.84,23.58,9.48,32.43,20.25,1.04,1.72,1.22,7.65,1.34,8.1-.1,.24-1-.73-1.12-.56-.08,.05,.23,.41,.69,.79,.75,.63,.87,.97,1.14,3.26,.3,2.5,.21,3.1-.36,2.49Zm27.91-70.04c.66,2.28,.83,5.42,1.1,7.63,0,1.32,.64,.71,.36,1.16-.12,2.07,.75,7.06,.88,9.14,.18,1.02-.13,2.37,.03,3.55,.08,.81-.01,1.37-.29,1.86-.63,.88,.19,1.31,.02,2.12-.06,.27-.06,.58,.01,.69,.12,2.27-2.33,10.88-4.14,14.29-2.33,5.51-7.88,13.52-11.05,18.56-.62,1.39-7.49,8.2-9.54,10.61-.16-.07-1.05-5.7-1.43-9.19-.23-2.06-.01-2.83,2.08-7.26,5.2-10.26,8.43-15.45,14.27-28.29,1.74-2.11,7.22-28.16,5.65-28.56-.66-3.52,1.13,1.17,2.05,3.67Zm-3.16-.79c-.57,5.78-3.48,18.18-5.21,22.4-3.92,8.81-10.77,20.6-14.82,29.32-.49,1.27-1.21,2-1.71,3.82-.48,.06-1.61-5.39-2.2-6.66-1.83-2.62,3.92-10.56,6.13-14.94,8.17-13.15,14.54-26.91,14.73-40.9-.17-.3-.56,2.06-.55,3.34-2.58,14.17-6.23,23.58-14.27,36.74-2.9,4.99-5.76,10.41-6.35,12.03-.73,2.46-.71,.37-1.25-.27-.25-.4-.31-.58-1.66-5.08l-.84-2.78c2.21-3.88,5.12-8.97,6.36-11.63,1.56-3.15,1.54-3.12,1.3-3.19-.58,.35-.53,1.33-1.17,2.22-1.48,2.95-4.67,8.82-6.29,11.64-.17,.34-.41-.34-.79-2.25-.7-3.45-.68-4.53-1.49-7.71,1.81-3.35,4.54-9.48,6.24-13.68,1.43-3.35,3.55-13.66,3.48-15.98-.03-1.45,.51-4.7,.19-4.73-.1-.21-.13-.36-.07-.35,.14-.84,.2-4.94,0-5.76-.22-.13,.1-2.01-.46-1.63-.26,.17-.29,.34-.12,.69,.14,.26,.17,.45,.08,.43-.08-.02-.11,.83-.08,1.92,.07,2.06-.07,7.53-.21,8.89,.01,.57-1.14,6.21-.3,5.48,.24-.07,.23-.02-.03,.2-.24,.19-.8,2.1-1.59,5.41-1.85,7.15-2.35,7.33-5.31,14.09-2.53,5.88-1.9,3.59-3.14,1.22,2.84-11.27,7.04-26.58,6.07-35.6-.25-.34-.24-.4,.05-.33,.29,.07,.32,.02,.12-.28-.14-.21-.16-.67-.08-1.03,.33-1.35-.55-6.73-1.07-6.56-.2,.05-.19-.11,0-.47,.51-.97,.25-1.78-1.79-5.55-1-1.85-.8-1.96,1.37-.8,4.68,2.83,8.59,6.5,13.49,9.2,1.13,6.01,1.9,6.71,.33,.16,5.21,2.35,7.62,2.29,10.87,7.97,1.02,2.21,2.4,8.58,2,10.98Zm-8.18-21.25c-.1-.02,.24,.61,.75,1.42,.52,.82,.73,1.33,.47,1.16-1.07-.71-4.37-2.54-6.09-3.38-2.58-1.09-7.79-6.73-9.11-7.16-.86-.7,.57-.4,2.26,.04,4.24,1.43,7.97,1.89,10.05,5.28,.55,.99,1.54,2.01,1.66,2.64Zm-4-5.64c-2.42-1.67-10.89-3.4-14.19-4.65-7.97-3.58-10.49-4.07-16.28-4.94-.33,0-.58-.04-.58-.1,.03-.06,1.39-.11,3.05-.1,9.04,.06,22.45-.22,26.8,7.39,.91,1.49,1.44,2.56,1.2,2.4Zm-34.05-29.2c2.93,1.48,1.14,.66,.06,.88-.27,.1,.3,.27,1.52,.47,1.54,.26,2.26,.51,3.45,1.23,2.66,1.79,6.14,2.97,8.45,4.26,.14,.35,4.54,2.69,1.85,2.09-5.73-.8-19.85,1.58-28.18,2.5-2.57,.37-3.05,.13-4.92,.42-1.75,1.13,10.86-.43,11.31-.52,6.19-.81,15.64-2.34,21.88-1.84,3.37,.18,4.27,2.15,6.87,3.83,2.5,1.92,1.93,1.43-.87,.98-7.88-1.59-12.99-.69-20.56,.33-3.3,.44-7.8,.55-10.18,.26-1.26-.16-1.86,.16-.78,.42,5.7,.98,17.74-1.31,22.36-1.28,3.64,.05,10,.94,12.62,1.75,.81,.26,5.6,6.58,5.18,6.84-3.06-1.04-4.1-1.94-8.22-2.78-6.69-2.26-22.13,.02-27.21-1.52-2.78-.62-5.34-2.08-7.93-2.73-1.6-.39-3.1-.95-4.46-1.55,.91,.2,4.18,.9,4.51,1.01,1.14-.47-2.55-1.16-3.92-1.2-1.45,.07-5.1-2.05-6.79-3.01-.37-.31,1.6-.31,3.36-.51,8.68-.83-1.65-.45-3.95-.15-7.22-4.47,.85-.11,9.89-2.28,10.09-1.73,16-2.6,24.47-1.8,1.97,.24,1.99,.09,.07-.38-3.97-1.24-15.41-.31-22.48,.95-3.89,.9-14.9,1.65-16.46,.23-1.34-.56-2.2-1.76-2.78-3.94-.3-1.3-.28-1.35,.34-1.19,1.46,.36,7.34,.26,14.54-.23,5.71-.37,10.07-.85,14.39-.58,.71,.05,1.28,0,1.31-.12,.06-.27-.71-.32-4.46-.35-4.23-.37-23.01,1.99-26.64,.59,.02-.04-1.77-5.67-1.74-5.75,.02-.02,.79,.26,1.7,.64,4.53,1.91,10.12,.36,15.63,.26,2.74-.47,14.41,2.41,16.79,3.81Zm-21.92-6.16c1.56,.83,4.52,1.34,6.52,1.71-2.93-.13-7.99,.49-10.65,.7-1.79,.01-7.54-.87-8.25-1.56-.15-.06-1.73-4.8-.58-3.79,1.45,.75,7.47,2.35,9.15,2.15,1.99,.01,2.3,.08,3.8,.79Z"/>
        <path class="cls-1" d="M52.71,22.43c.29,.29,2.01,.39,2.28,.14,.16-.25-3.23-.72-2.28-.14h0Z"/>
        <path class="cls-1" d="M13.63,187.07c.92,1-.14-.71-.33-.57-.08,.06,.06,.31,.33,.57h0Z"/>
        <path class="cls-1" d="M16.5,180.16c3.74,5.28,10.64,12.33,4.68,5.14-1.31-1.48-8.6-10.83-4.68-5.14h0Z"/>
        <path class="cls-1" d="M15.19,185.01c.12,.2,.39,.4,.61,.45,.72,.08-1.34-1.68-.61-.45h0Z"/>
        <path class="cls-1" d="M15.9,190.07c1.89,2.05,.65-.31-.49-1.01-.67-.45-.51-.12,.49,1.01h0Z"/>
        <path class="cls-1" d="M16.91,186.75c.88,.98,1.6,1.49,1.45,1.03-.21-.61-3.18-3.08-1.45-1.03h0Z"/>
        <path class="cls-1" d="M17.66,192.03c6.83,7.57,17.54,12.46,28.02,15.85,2.29,.93,4.36,1.17,2.01,.3-13.08-4.71-18.16-7.08-26-12.74-.3-.14-.8-1.05-1.92-1.98-.9-.83-1.86-1.78-2.12-2.08-.71-.81-.69-.21,.02,.64h0Z"/>
        <path class="cls-1" d="M18.77,188.49c1.36,1.54,9.5,8.19,12.63,8.87-2.14-1.79-6.41-4.18-8.6-6.02-1.7-1.34-1.06-.69-2.8-2.13-.88-.62-1.65-1.59-1.23-.72h0Z"/>
        <path class="cls-1" d="M49.46,209.25c.84,.2,5.35,2.73,5.08,2.14,.03-.11-.8-.61-1.82-1.11-3.08-1.51-3.66-1.73-3.74-1.43-.03,.14,.19,.33,.48,.4h0Z"/>
        <path class="cls-1" d="M21.84,149.94c.36,1.49,.76,2.77,.9,2.85,.13,.08,.15,.24,.04,.34-.26,.28,.4,.26,.26,.59,.09,1.69,4.89,12.15,5.34,11.49,.88,.35-.8-1.95-.94-1.83-.17-.04-.24-.16-.14-.25,.1-.1-.08-.65-.41-1.24-1.85-3.49-3.52-7.64-4.82-12.29-.57-2.31-.78-2.98-.84-2.63-.03,.15,.25,1.48,.61,2.97h0Z"/>
        <path class="cls-1" d="M20.2,161.38c1.62,3.08,3.5,6.12,3.56,5.78-.14-.73-7.84-14.07-3.56-5.78h0Z"/>
        <path class="cls-1" d="M22.64,157.81c.63,1.18,1.28,2.48,1.43,2.88,.15,.39,.32,.6,.36,.45,.05-.58-3.15-6.42-2.91-5.61-.02,.08,.48,1.11,1.11,2.29h0Z"/>
        <path class="cls-1" d="M30.81,174.29c2.74,3.33,5.93,6.48,4.35,4.19-.15,.06-6.51-7.28-4.35-4.19h0Z"/>
        <path class="cls-1" d="M54.27,28.28c1.68,.46,3.06,.55,3.14,.22,.03-.13-.22-.22-.55-.19-.65,.07-3.01-.27-4-.42l1.41,.39h0Z"/>
        <path class="cls-1" d="M58.21,33.73c2.21,.2,9.89,.66,9.73-.05-.17-.21-9.5-.27-9.98-.45-.24,.11-.23,.57,.25,.5h0Z"/>
        <path class="cls-1" d="M65.23,27.11c1.82-.65,5.95-.24,7.81-.44,.23-.23,.07-.25-2.1-.35-3.41-.14-6.35,.18-6.49,.72-.04,.15,.32,.17,.78,.06h0Z"/>
        <path class="cls-1" d="M64.52,40.72c.12,.02,1.92-.08,.78-.31-.35-.16-1.09,.03-.78,.31h0Z"/>
        <path class="cls-1" d="M73.71,31.83c1.69,.27,7.02-.67,7.95-.45,2.35,.1,3.54,.03,3.24-.18-.61-.42-6.12-.47-8.69-.07-2.81,.43-2.77,.42-2.5,.71h0Z"/>
        <path class="cls-1" d="M71.9,43.61c.87,.26,1.24-.24,.27-.38-.99-.11-1.19,.16-.27,.38h0Z"/>
        <path class="cls-1" d="M85.63,32.38c2,.19,2.44,.15,2.54-.27,.06-.27-.02-.33-.28-.2-.34,.26-5.79-.03-2.26,.47h0Z"/>
        <path class="cls-1" d="M92.92,35.78c1.96,.29,5,.25,3.66-.24-.26,.03-6.9-.34-3.66,.24h0Z"/>
        <path class="cls-1" d="M97.12,39.85c1.85,.52,4.5-.82,.77-.33-.69,.11-1.04,.26-.77,.33h0Z"/>
        <path class="cls-1" d="M101.7,41.21c2.81,.73,1.47-.51-.78-.42-.63,0-.47,.09,.78,.42h0Z"/>
        <path class="cls-1" d="M105.6,45.9c.53,.2,3.26,.36,1.48-.05-.47-.17-3.55-.4-1.48,.05h0Z"/>
        <path class="cls-1" d="M108.42,48.26c.22,0,2.04,.99,2.2,.6,.26-.33-3.17-1.42-2.2-.6h0Z"/>
        <path class="cls-1" d="M30.94,132.3c.1,1.51,.62,3.75,.82,3.55,.33,.2-1.05-6.87-.82-3.55h0Z"/>
        <path class="cls-1" d="M35.45,127.53c.12,.2,.18,6.18,.08,7.38,.02,.79-.6,2.69-.3,3.27,1.26,.32,.76-15.14,.23-10.65h0Z"/>
        <path class="cls-1" d="M49.96,69.12c4.59,5.03,10.01,9.69,13.73,12.18,1-.19-5.41-4.57-5.07-4.22-.49-.95-3.56-3.17-6.59-6.47-1.31-1.34-2.48-2.46-2.58-2.45-2.41-2.96-2.44-2.09,.52,.96h0Z"/>
        <path class="cls-1" d="M50.61,64.36c1.18,1.91,5.5,6.21,3.1,2.95-.38-.42-5.27-6.44-3.1-2.95h0Z"/>
        <path class="cls-1" d="M50.65,74.86c2.23,2.28,4.35,4.12,4.72,4.08-.9-1.41-4.6-4.13-5.59-5.46-.3-.33-.56-.49-.59-.37-.02,.12,.63,.91,1.45,1.75h0Z"/>
        <path class="cls-1" d="M54.05,60.51c1.67,2.07,4,4.18,4.54,4.11,.53-.07,.46-.54-.09-.68-.37-.09-3.54-3.07-4.74-4.44-1.13-1.3-.89-.45,.29,1.01h0Z"/>
        <path class="cls-1" d="M55.85,57.75c3.45,3.67,9.68,8.75,14.19,11.87,1.57,1.19,6.92,4.72,7.3,4.82,.71-.33,.3-.34-4.17-3.41-3.16-2.06-7.39-5.4-8.53-6.02-.18-.49-1.09-.66-1.34-1.16-.14-.45-1.37-.55-1.43-.94,.1-.29-4.87-4.36-4.92-4.52-.77-.94-2.9-2.99-2.94-2.83-.03,.11,.81,1.09,1.84,2.19h0Z"/>
        <path class="cls-1" d="M55.48,66.02c.31,.29,.39-.33,.09-.37-.39-.08-.32,.14-.09,.37h0Z"/>
        <path class="cls-1" d="M58.4,68.85c.53,.33,.5-.2,.11-.43-.53-.33-.5,.2-.11,.43h0Z"/>
        <path class="cls-1" d="M62.51,71.88c.71,.14-.15-.37-.29-.21-.11,.06,.03,.15,.29,.21h0Z"/>
        <path class="cls-1" d="M63.72,72.66c.31,.16,1.05,.87,.47,.1-.59-.9-1.27-.65-.47-.1h0Z"/>
        <path class="cls-1" d="M64.99,73.46c2.71,1.77,4.86,2.82,4.47,2.18,.08-.07-5.84-3.28-4.47-2.18h0Z"/>
        <path class="cls-1" d="M64.35,81.72c.37,.55,.85,.03,.22-.28-.54-.3-.59-.23-.22,.28h0Z"/>
        <path class="cls-1" d="M67.64,84.04c5.12,3.35,3.03,1.23,.38-.21-2.29-1.65-3.54-1.73-.38,.21h0Z"/>
        <path class="cls-1" d="M69.91,76.23c.73,.46,2.25,1.24,2.59,1.33,.77,.2-.03-.49-1.29-1.09-1.19-.57-2.08-.73-1.3-.24h0Z"/>
        <path class="cls-1" d="M70.68,81.24c.59,.41,.77,.39,.32-.04-.36-.39-.87-.4-.32,.04h0Z"/>
        <path class="cls-1" d="M74.42,83.91c3.4,2.49,6.02,4.21,6.36,4.17,.16-.02-.25-.37-.9-.77-.65-.36-12.07-8.42-5.46-3.41h0Z"/>
        <path class="cls-1" d="M72.38,86.87c.36,.09,.51,.07,.34-.04-.22-.22-1.26-.2-.34,.04h0Z"/>
        <path class="cls-1" d="M73.87,87.82c.94,.65,1.33,.61,.47-.05-.71-.59-1.42-.67-.47,.05h0Z"/>
        <path class="cls-1" d="M79.44,75.79c1.46,.73,1.67,1.35,2.54,1.62,.43-.04-.73-1.08-2.43-2.17-1.43-.92-1.67-1.01-1.75-.68-.03,.13,.7,.68,1.64,1.23h0Z"/>
        <path class="cls-1" d="M76.51,89.25c.71,.14-.15-.37-.29-.21-.11,.06,.03,.15,.29,.21h0Z"/>
        <path class="cls-1" d="M78.18,90.19c.2-.03,1.56,1,.76,.22-.14-.33-1.25-.46-.76-.22h0Z"/>
        <path class="cls-1" d="M51.7,97.31c1.55,1.25,2.12,1.16,.33-.2-1.6-1.23-2.07-1.18-.33,.2h0Z"/>
        <path class="cls-1" d="M51.74,94.97c.86,.68,5.42,3.27,5.94,3.37,.64-.07-3.36-2.1-4.07-2.59-.13-.28-3.63-2.47-1.88-.78h0Z"/>
        <path class="cls-1" d="M51.66,100.59c.65,.46,1.53,1,1.92,1.18,.4,.18-.11-.23-1.12-.92-2.06-1.4-2.69-1.6-.8-.26h0Z"/>
        <path class="cls-1" d="M54.64,99.28c1.91,1.06,4.09,2,5.06,2.2,.57,.12,.24-.09-.94-.6-.81-.31-7.63-3.79-4.12-1.6h0Z"/>
        <path class="cls-1" d="M56.24,103.18c2.19,1.07,2.21,1.08,2.3,.75-.42-.63-1.92-.69-2.81-1.34-2.08-1.07-1.3-.24,.52,.59h0Z"/>
        <path class="cls-1" d="M58.86,98.88c.29,.06,.37,.02,.19-.11-.32-.27-.88-.06-.19,.11h0Z"/>
        <path class="cls-1" d="M71.06,106.72c.92,0,7.01,3.26,10.58,4.6,.28-.16-.35-.74-1.06-.98-1.95-.77-7.7-3.63-9.96-4.28-1.37-.23-.77,.4,.45,.66h0Z"/>
        <path class="cls-1" d="M79.62,105.15c.07,.12,.34,.26,.63,.33,.63,.15,.42-.26-.24-.47-.54-.18-.58-.17-.39,.14h0Z"/>
        <path class="cls-1" d="M81.95,106.4c1.99,1.05,2.19,.86,.27-.26-1.49-.89-1.73-.52-.27,.26h0Z"/>
        <path class="cls-1" d="M81.97,111.54c2.6,1.5,14.27,7.95,3,1.1-1.24-.69-3.29-1.76-3-1.1h0Z"/>
        <path class="cls-1" d="M84.73,107.99c.65,.46,1.03,.5,.77,.08-.07-.33-1.67-.59-.77-.08h0Z"/>
        <path class="cls-1" d="M90.56,116.43c.69,.53-.04-.57-.24-.39-.09,.06,.02,.24,.24,.39h0Z"/>
        <path class="cls-1" d="M91.32,116.91c.32,.28,.39-.35,.1-.4-.39-.08-.33,.17-.1,.4h0Z"/>
        <path class="cls-1" d="M94.61,123.31c.08,0,2.34,1.52,2.45,1.25,.06-.23-3.36-2.25-2.45-1.25h0Z"/>
        <path class="cls-1" d="M98.56,125.8c.25,.23,.52,.38,.6,.33,.07-.04-.12-.28-.42-.52-.69-.54-.82-.39-.17,.19h0Z"/>
        <path class="cls-1" d="M62.57,46.25c.24,.16,.51,.26,.59,.21,.7-.38-1.66-.81-.59-.21h0Z"/>
        <path class="cls-1" d="M65.37,48.4c2.02,1.68,2.64,2.02,2.58,1.42-.02-.19-.19-.38-.38-.43-.49-.27-3.2-2.53-3.77-2.85-.98-.28,.51,.92,1.58,1.85h0Z"/>
        <path class="cls-1" d="M24.43,208.09c.33,.23,.36,.2,.17-.11-.28-.5-.71-.26-.17,.11h0Z"/>
        <path class="cls-1" d="M25.68,209.18c1.09,.88,1.36,.83,.35-.07-.92-.85-1.46-.86-.35,.07h0Z"/>
        <path class="cls-1" d="M27.64,210.74c.38,.33,.77,.57,.84,.53,.08-.46-2.57-2.19-.84-.53h0Z"/>
        <path class="cls-1" d="M29.05,211.87c.22,.15,.6,.32,.83,.37,.85,.08-1.78-1.3-.83-.37h0Z"/>
        <path class="cls-1" d="M30.82,213.02c.25,.23,.66,.42,.9,.43,.26,.01,.09-.2-.43-.5-.98-.59-1.17-.56-.48,.07h0Z"/>
        <path class="cls-1" d="M33.01,214.53c1.97,1.07-.09-.89-.64-.64-.09,.09,.19,.38,.64,.64h0Z"/>
        <path class="cls-1" d="M34.94,215.62c.63,.14,.66,.12,.25-.18-.99-.89-1.27,0-.25,.18h0Z"/>
        <path class="cls-1" d="M36.72,216.78c1.32,.66,1.52,.41,.26-.34-1.8-1.13-1.56-.27-.26,.34h0Z"/>
        <path class="cls-1" d="M39.59,218.21c.2,.13,.38,.13,.41,0,.04-.46-1.33-.55-.41,0h0Z"/>
        <path class="cls-1" d="M41.66,219.38c2.4,1.04,4.6,1.77,4.66,1.54-.19-.52-9.67-4.06-4.66-1.54h0Z"/>
        <path class="cls-1" d="M41.47,228.15c.7,.16,.97,.18,.59,.03-.52-.26-2.42-.48-.59-.03h0Z"/>
        <path class="cls-1" d="M43.24,228.64c.29,.06,.37,.02,.19-.11-.32-.27-.88-.06-.19,.11h0Z"/>
        <path class="cls-1" d="M47.8,229.78c4.17,1.02,12.7,2.63,13.43,2.53,.73-.1-1.97-.94-4.23-1.32-5.87-.98-7.29-1.24-9.92-1.83-4.38-.98-3.81-.5,.72,.62h0Z"/>
        <path class="cls-1" d="M47.61,221.48c1.72,.7,2.54,.87,2.3,.47-.25-.41-2.71-.8-3.49-.95l1.18,.49h0Z"/>
        <path class="cls-1" d="M51.2,222.57c4.81,1.48,10.47,3.13,13.95,6.36-1.09-3.51-18.34-8.07-13.95-6.36h0Z"/>
        <path class="cls-1" d="M62.54,232.91c.67,.31,.92,.05,.34-.35-.89-.68-1.25-.03-.34,.35h0Z"/>
        <path class="cls-1" d="M41.89,139.68c.04,1.91-.43,7.56-.83,9.99-.55,3.36-.66,4.54-.42,4.46,1.52-4.51,1.79-11.83,1.46-16.34-.17-.28-.25,.42-.22,1.89h0Z"/>
        <path class="cls-1" d="M46.02,145.25c.38,.31,.01-1.23-.16-.46-.03,.14,.03,.33,.16,.46h0Z"/>
        <path class="cls-1" d="M46.02,146.46c.36,.08,.08-.53-.03-.54-.2,.01-.26,.51,.03,.54h0Z"/>
        <path class="cls-1" d="M45.8,149.09c.02,.8,.08,1.53,.13,1.61,.29,.48,.44-3.01,.15-3.54-.23-.43-.32,.18-.28,1.92h0Z"/>
        <path class="cls-1" d="M45.53,153.06c.06,.92-.32,1.83-.11,2.38,.09,.02,.02,.36-.14,.76-.41,1-.57,3.08-.25,3.16,.23,.06,.92-3.35,.77-3.82-.03-.09,.04-.86,.15-1.73,.25-1.91,.23-2.47-.07-2.55-.27-.07-.32,.18-.37,1.8h0Z"/>
        <path class="cls-1" d="M49.11,142.67c.84,4.06,.92,9.46,.68,13.63-.09,1.66,.21,2.36,.5,1.17,.49-2,.2-11.13-.22-14.12,0-.62-.52-.43-.37-1.05-.03-1.4-1.61-2.88-.59,.37h0Z"/>
        <path class="cls-1" d="M53.33,146.1c1.18,4.51,1.05,7.35,1.34,10.14,1.18-.43-1.38-13.57-1.96-14.33-.34-.08-.29,.21,.63,4.19h0Z"/>
        <path class="cls-1" d="M49.38,160.9c-.14,1.12,.45,1.28,.51-.02-.05-.77,.53-1.95,.18-2.45-.25-.06-.49,.78-.68,2.46h0Z"/>
        <path class="cls-1" d="M54.57,157.54c.11,1.15,.45-.66,.17-.77-.25-.25-.3,0-.17,.77h0Z"/>
        <path class="cls-1" d="M84.41,144.2c.18,.3,7.36,2.44,7.58,2.63,2.08-.02-5.62-2.09-5.94-2.36-1.8-.67-2.09-.72-1.65-.27h0Z"/>
        <path class="cls-1" d="M90.68,135.95c.91,.46,1.69,.75,1.72,.64,0-.33-2.85-1.5-3.01-1.65-.96-.25,.33,.55,1.28,1.02h0Z"/>
        <path class="cls-1" d="M92.79,137.09c.52,.57,.87-.34,.08-.31-.26,.02-.28,.09-.08,.31h0Z"/>
        <path class="cls-1" d="M93.78,137.57c2.5,1.45,8.38,5.37,9.9,6.28,.51,.02-10.28-7.62-9.9-6.28h0Z"/>
        <path class="cls-1" d="M98.56,145.44c.79,.46,2.94,2.15,3.68,2.3,.29-.31-6.55-4.6-3.68-2.3h0Z"/>
        <path class="cls-1" d="M59.01,172.32c.27,.28,.35-.06,.14-.65-.24-.87-.4,.53-.14,.65h0Z"/>
        <path class="cls-1" d="M59.02,174.1c.11-.15,.16-.39,.09-.49-.14-.29-.4,.92-.09,.49Z"/>
        <path class="cls-1" d="M58.62,177.17c.12,1.97,.49-2.97,.12-1.31-.09,.35-.14,.92-.12,1.31h0Z"/>
        <path class="cls-1" d="M58.29,180.7c-.03,1.59,.39-.71,.25-1.01-.11-.69-.26-.11-.25,1.01h0Z"/>
        <path class="cls-1" d="M58.02,183.98c.3,.07,.35-.12,.22-.87-.09-.49-.12-.48-.29,.12-.11,.38-.08,.71,.07,.75h0Z"/>
        <path class="cls-1" d="M57.75,186.2l.02,.81c.09-.34,.51-1.58,.2-1.69-.48-.13-.14,.29-.22,.88h0Z"/>
        <path class="cls-1" d="M58.01,184.85c.28-.32,.03-.89-.12-.19-.06,.29,0,.37,.12,.19Z"/>
        <path class="cls-1" d="M57.62,187.78c.32,.29,.39-.33,.09-.37-.39-.08-.32,.14-.09,.37h0Z"/>
        <path class="cls-1" d="M57.39,189.88c.09,1.16,.49-.62,.16-.65-.47-.11-.19,.18-.16,.65h0Z"/>
        <path class="cls-1" d="M57.32,191.21c.27-.04,.59-.61,.12-.51-.27,.04-.59,.61-.12,.51h0Z"/>
        <path class="cls-1" d="M57.04,193.14c-.04,.64-.49,4.41-.28,5.04,.18,1.5,.69-4.94,.48-5.66-.09-.18-.16-.24-.15-.16,0,.07-.02,.43-.05,.78h0Z"/>
        <path class="cls-1" d="M56.56,199.31s-.16,5.51,.01,5.47c.25,.38,.39-8.18-.01-5.47h0Z"/>
        <path class="cls-1" d="M63.66,170.76c.58,.64,.19-1.99-.07-.76-.08,.31-.05,.64,.07,.76h0Z"/>
        <path class="cls-1" d="M63.64,171.95c.23,.84,.39-.49,.16-.61-.27-.27-.35,.05-.16,.61h0Z"/>
        <path class="cls-1" d="M63.33,174.03c-.15,.82,.25,2.18,.39,.49-.04-.82,.42-1.39,0-1.74-.5,0-.21,.6-.38,1.25h0Z"/>
        <path class="cls-1" d="M63.31,176.69c.36,.08,.08-.53-.03-.54-.2,.01-.26,.51,.03,.54h0Z"/>
        <path class="cls-1" d="M62.74,180.05c.09,1.27,.67-2.22,.56-2.28-.08-1.32-.67,2.23-.56,2.28h0Z"/>
        <path class="cls-1" d="M62.17,183.18c.28-.32,.03-.89-.12-.19-.06,.29,0,.37,.12,.19Z"/>
        <path class="cls-1" d="M68.04,174.89c.28,1.7,.58-.88,.19-1-.27-.07-.31,.13-.19,1h0Z"/>
        <path class="cls-1" d="M71.37,164.69c.21,.97,.45,1.74,.53,1.69,.33-.54-1.63-6.61-.53-1.69h0Z"/>
        <path class="cls-1" d="M71.91,167.66c.11,.11,.19-.03,.19-.34,0-1.25-.54,0-.19,.34h0Z"/>
        <path class="cls-1" d="M72.17,172.3c.28,1.76-.12,2.57,.18,3.54,.33,.33,.38-.23,.25-2.77-.06-1.27-.11-2.58-.11-2.91,0-.61-.42-.94-.49-.37-.02,.18,.05,1.32,.17,2.52h0Z"/>
        <path class="cls-1" d="M72.27,177.27c.33,.1,.52-.69,.18-.75-.33-.1-.52,.69-.18,.75h0Z"/>
        <path class="cls-1" d="M72.23,178.67c.21,.6,.51-1.16,.25-1.06-.25-.06-.41,.59-.25,1.06h0Z"/>
        <path class="cls-1" d="M72.01,179.95c.12,.19-.75,4.6-.46,4.81,.37,.5,1.03-5.42,.77-5.57-.24-.06-.47,.51-.32,.77h0Z"/>
        <path class="cls-1" d="M71.17,186.28c.06,1.21,.85-2.07,.11-.84-.11,.16-.16,.52-.11,.84h0Z"/>
        <path class="cls-1" d="M88.19,59.01c-.02,.88-.37,3.21-.78,5.17-.69,3.3-.69,4.5,0,3.37,1.14-.97,1.76-18.18,.78-8.54h0Z"/>
        <path class="cls-1" d="M91.79,55.73c.29,.69,.27-.21,.12-.51-.29-.69-.27,.21-.12,.51h0Z"/>
        <path class="cls-1" d="M92.36,59.09c.74,7.42,.66,4.67-1.39,15.88-.21,1.65-.82,2.66-.25,2.75,1.36-2.32,3.77-16.8,1.53-21.08-.27-.07-.24,.66,.11,2.45h0Z"/>
        <path class="cls-1" d="M96.5,56.2c.32,.29,.39-.33,.09-.37-.39-.08-.32,.14-.09,.37h0Z"/>
        <path class="cls-1" d="M110.6,52.6c1.79,.29,1.97,.22,.43-.19-1.52-.45-2.14-.13-.43,.19h0Z"/>
        <path class="cls-1" d="M111.99,54.29c.16,.13,2.66,1.1,1.97,.39,.05-.24-3.16-1.05-1.97-.39h0Z"/>
        <path class="cls-1" d="M62.78,302.68c-.28,4.01,1.17-1.67,.39-1.57-.48-.01-.2,.75-.39,1.57h0Z"/>
        <path class="cls-1" d="M109.07,61.83c.3,.68,.28-.21,.12-.51-.3-.68-.28,.21-.12,.51h0Z"/>
        <path class="cls-1" d="M109.11,64.38c.16,.41-.16,4.52,.62,3.5,.23-.51-.66-8.51-.62-3.5h0Z"/>
        <path class="cls-1" d="M112.86,70c.03,2.94-.47,7.48-.73,10.68-.22,2.17,.69,1.7,.61,.14,.24-2.77,1.01-12.39,.33-12.37-.46-.18-.13,.62-.21,1.56h0Z"/>
        <path class="cls-1" d="M117.94,74.12c.08,4.85,.66,.41,.33-2.27-.16-1.43-.33-.28-.33,2.27h0Z"/>
        <path class="cls-1" d="M110.3,106.21c.38-.52,1.1-2.72,1.4-3.64-.42,.86-1.52,3.07-1.64,3.63-.1,.46-.08,.47,.24,0Z"/>
        <path class="cls-1" d="M117.67,78.4c-.05,1.27-.72,3.42-.56,4.46,.16,.42,.86-3.24,1.02-5.27,.12-1.59-.29-.86-.46,.81h0Z"/>
        <path class="cls-1" d="M112.33,101.25c.3-.59,1.18-3.41,.35-1.52-.3,.59-1.18,3.41-.35,1.52Z"/>
        <path class="cls-1" d="M113.09,98.49c.12,.06,.75-1.21,.43-1.25-.27-.13-.58,1.21-.43,1.25h0Z"/>
        <path class="cls-1" d="M113.64,96.87c.31-.1,.47-.27,.09-.37-.29-.1-.51,.49-.09,.37h0Z"/>
        <path class="cls-1" d="M113.82,96.12c.28,.29,.57-.9,.19-.77-.38,.12-.47,.49-.19,.77h0Z"/>
        <path class="cls-1" d="M121.84,69.64c.6,2.67-.82,9.91-1,14.85,.35,0,1.16-4.02,.88-4.31-.14-.15-.13-.24,.04-.26,.72-.09,.95-10.63,.26-11.82-.25-.43-.32,.23-.18,1.54h0Z"/>
        <path class="cls-1" d="M119.7,88.76c.09,.66,.12,.59,.77-1.78,.43-1.53,.49-2.05,.24-2.11-.24-.06-.42,.38-.7,1.67-.21,.97-.35,1.96-.31,2.22h0Z"/>
        <path class="cls-1" d="M126.78,75.88c.37,3.33,.61-.57,.23-1.89-.21-.7-.34,.38-.23,1.89h0Z"/>
        <path class="cls-1" d="M82.5,175.97c.99,4.87,.78,12.69,.21,18.21-.04,.44,.08,0,.26-1.01,.92-4.97,.83-14.65-.43-19.54-.41-.1-.42,.43-.04,2.34h0Z"/>
        <path class="cls-1" d="M74.86,209.16c.39-.22,1.52-2.48,1.19-2.38-.37,.19-1,1.87-1.26,2.18-.18,.26-.16,.32,.07,.19h0Z"/>
        <path class="cls-1" d="M80.78,186.48c.14,3.21-1.75,13.17-2.58,14.33-.49,4.15,3.15-8.62,3.06-12.86,.04-1.32,.09-2.86,.13-3.4,.04-.55-.04-1.02-.18-1.05-.32-.08-.34,.12-.43,2.99h0Z"/>
        <path class="cls-1" d="M76.37,206.31c.48-.28,1.26-2.23,.92-2.31-.59,.11-.48,1.08-.89,1.69-.25,.55-.26,.76-.04,.63h0Z"/>
        <path class="cls-1" d="M77.36,203.73c.23,.06,.65-.56,.79-1.16,.24-1.71-1.13,.95-.79,1.16h0Z"/>
        <path class="cls-1" d="M84.95,180.81c.41,1.05,.46-.38,.14-.66-.39-.53-.48-.11-.14,.66h0Z"/>
        <path class="cls-1" d="M85.43,182.64c.15,.01,.28,4.06,.61,3.93,.22-.35-.22-4.01-.52-4.32-.25-.26-.27-.17-.09,.39h0Z"/>
        <path class="cls-1" d="M82.3,196.48c.12,.12,.2-.03,.19-.34-.02-.64-.18-.76-.31-.23-.05,.19,0,.46,.12,.57h0Z"/>
        <path class="cls-1" d="M85.9,188.4c.33,.09,.52-.7,.19-.77-.33-.09-.52,.7-.19,.77h0Z"/>
        <path class="cls-1" d="M85.59,191.9c-.08,1.65,.23,1.56,.44-.12,.21-1.76,.06-2.95-.22-1.66-.09,.43-.19,1.23-.22,1.79h0Z"/>
        <path class="cls-1" d="M83.03,204.58c.47-.14,.79-2.54,1.07-2.88,.37-.77-.13-.75-.45-.11-.47,.86-.89,2.92-.62,2.99h0Z"/>
        <path class="cls-1" d="M84.62,197.81c-1.49,8.42,1.55-2.86,1.09-4.19-.42-.48-.64,2.71-1.09,4.19h0Z"/>
        <path class="cls-1" d="M115.99,60.15c.16,.09,.9,.51,1.61,.92,1.55,.88,1.71,.94,1.57,.54-.15-.43-.9-.91-2.27-1.45-1.05-.42-1.66-.42-.92,0h0Z"/>
        <path class="cls-1" d="M74.35,301.24c-.08,.4,.71,.87,.65,.34-.22-.73,1.9-7.55,2.15-8.79-.74,.42-2.83,6.73-2.8,8.45h0Z"/>
        <path class="cls-1" d="M82.97,302.13c.12-.23,.22-.63,.22-.88,0-.65-.52,1.46-.22,.88Z"/>
        <path class="cls-1" d="M87.22,294.76c.25,.26,2.48-7.47,2.32-8.04-.63-1.13-2.55,8.62-2.32,8.04h0Z"/>
        <path class="cls-1" d="M110.38,150.65c1.9-2.08,9.81-13.29,11-14.58,.29-.36,.49-.78,.44-.93-.05-.16,.01-.31,.17-.37,.37-.15,1.67-1.82,1.56-2-.2-.33-.73,.08-.88,.65-.16,.8-.54,.37-.66,.71,0,.11-.39,.7-.88,1.32-2.29,2.89-2.75,3.52-2.81,3.76-.88,1.4-6.94,8.79-7.94,11.44h0Z"/>
        <path class="cls-1" d="M116.64,131.79c.61-.02,6.34-9.04,6.38-9.48,.67-.3,3.08-5.17,3.17-5.68,1.1-1.16,5.98-11.84,4.91-12.16-1.92,7.27-10.03,20.04-14.45,27.32h0Z"/>
        <path class="cls-1" d="M123.61,132.43c.41,.1,.6-.27,.29-.58-.25-.26-.78,.5-.29,.58h0Z"/>
        <path class="cls-1" d="M124.23,131.53c.04,.72,2.25-2.77,1.18-2.09-.59,.39-1.31,1.67-1.18,2.09h0Z"/>
        <path class="cls-1" d="M131.65,102.2c.24,.8,.46-1.41,.24-1.27-.27-.07-.43,.74-.24,1.27h0Z"/>
        <path class="cls-1" d="M131.52,103.58c.28-.32,.03-.89-.12-.2-.06,.29,0,.37,.12,.2Z"/>
        <path class="cls-1" d="M126,129c.62,.02,2.22-3.7,.41-1.28-.79,1.03-.84,1.17-.41,1.28h0Z"/>
        <path class="cls-1" d="M127.61,126.29c.32,.21,3.48-4.94,1.94-3.88-1.12,1.77-1.3,2.41-1.96,3.53-.09,.1-.08,.24,.03,.35h0Z"/>
        <path class="cls-1" d="M130.59,121.26c.72-1.03,1.49-3,1.07-2.75-.41,.05-1.31,2.5-1.64,3.56l.56-.81Z"/>
        <path class="cls-1" d="M132.15,117.5c0,.32,.29-.08,.72-1.03,.77-1.68,.84-2.05,.26-1.39-.49,.57-.98,1.78-.98,2.42h0Z"/>
        <path class="cls-1" d="M133.57,114.26c.07,.22,.15,.35,.17,.29,.45-1.24,.95-3,.75-2.65-.25,.51-1.1,1.77-.93,2.37h0Z"/>
        <path class="cls-1" d="M134.82,111.17c.3-.08,.54-.52,.16-.64-.27-.12-.57,.74-.16,.64h0Z"/>
        <path class="cls-1" d="M99.79,228.97c1.28-.18,1.93-1.21,0-.26l-.9,.46,.9-.2h0Z"/>
        <path class="cls-1" d="M102.83,264.77c.83,.47,2.63,1.15,2.51,.95,.14-.16-4.14-1.94-2.51-.95h0Z"/>
        <path class="cls-1" d="M125.73,289.07l.7,.78-.51-.89c-.64-1.16-1.12-.9-.19,.11h0Z"/>
        <path class="cls-1" d="M125.27,290.68c.32,.29,.39-.33,.09-.37-.39-.08-.32,.14-.09,.37h0Z"/>
        <path class="cls-1" d="M125.79,291.89c.59,.42,.13-1.01-.15-.47-.04,.14,.03,.35,.15,.47h0Z"/>
        <path class="cls-1" d="M94.34,294.53c-1.23,8.28-1.68,17.18-5.62,24.87-.57,1.09-.99,2.05-.94,2.13,3.71-5.05,5.22-11.69,6.47-21.26,.42-3.08,.08-2.13,.48-4.81,.6-3.75-.02-4.12-.39-.94h0Z"/>
        <path class="cls-1" d="M95.91,297.77c-.26,2.73,.48,1.98,.59-.17,.05-1.46,.88-3.83,.68-4.92-.24-.25-1,2.81-1.27,5.09h0Z"/>
        <path class="cls-1" d="M97.5,300.13c-.08,1.26-1.31,7.05-1.16,8.16,.1,.19,.38-.81,.7-2.5,.85-3.85,1.73-14.13,.46-5.66h0Z"/>
        <path class="cls-1" d="M100.75,289.79c-.13,1.73-.93,6.87-.78,8.5,.17,.25,.83-3.51,2.11-11.93,.11-.71,.32-1.82,.47-2.5,.43-3.93-1.56,3.78-1.81,5.93h0Z"/>
        <path class="cls-1" d="M123.55,180.77c.18,1.88,.3,2.36,.58,2.19,.23-.59-1.06-8.09-.58-2.19h0Z"/>
        <path class="cls-1" d="M124.09,183.79c.17,.04,.21,.13,.09,.2-.17,1,1.25,6.36,2.47,7.55-.15-1.32-1.41-3.91-1.85-6.46-.5-2.77-1.39-1.67-.71-1.3h0Z"/>
        <path class="cls-1" d="M124.23,172.17c.8,2.8,.97,3.22,1.25,3.06,.11-.07-.08-.89-.43-1.84-.44-.7-1.16-4.84-1.52-3.99-.03,.11,.28,1.35,.69,2.77h0Z"/>
        <path class="cls-1" d="M126.56,178.25c1.1,2.42,2.9,5.58,3.48,7.91,.23,1.03,.36,1.25,.46,.83,.17-.71-.95-3.86-2.21-6.18-.63-.73-2.31-5.76-2.8-5.05-.02,.11,.45,1.22,1.06,2.49h0Z"/>
        <path class="cls-1" d="M107.09,263.55c2.15,1.13,2.89,1.41,2.34,.89-1.05-.87-7.14-3.5-2.34-.89h0Z"/>
        <path class="cls-1" d="M108.14,262.79c.33,.23,.73,.41,.87,.39,.14-.01-.12-.25-.59-.53-.98-.58-1.19-.48-.29,.13h0Z"/>
        <path class="cls-1" d="M109.85,263.86c.55,.35,1.03,.25,.32-.2-.52-.34-1.07-.26-.32,.2h0Z"/>
        <path class="cls-1" d="M112.35,262.12c.78,.46,.84,.47,.49,.04-.85-.9-2.17-.93-.49-.04h0Z"/>
        <path class="cls-1" d="M112.59,261.43c.42,.11,3.38,2.17,3.13,1.44,.12-.44-5.85-3.27-3.13-1.44h0Z"/>
        <path class="cls-1" d="M125.21,272.79c.66,.95,1.41,1.46,1.5,1.02-.11-.59-3.33-3.7-1.5-1.02h0Z"/>
        <path class="cls-1" d="M125.48,278.39c.69,1.03,1.19,2.02,1.54,1.78-.05-.05-.63-.93-1.3-1.95-1.5-2.31-1.68-2.19-.25,.17h0Z"/>
        <path class="cls-1" d="M126.53,281.71c2.7,3.76-.46-1.72-.85-1.44-.02,.07,.36,.71,.85,1.44h0Z"/>
        <path class="cls-1" d="M127.65,162.85c.46,2.12,.96,2.54,.4,.11-.46-1.95-.5-2.08-.68-1.95-.06,.04,.07,.87,.29,1.85h0Z"/>
        <path class="cls-1" d="M129.3,161.3c.32,1.49,2.69,8.62,3.38,8.07,.61-.06-.98-3-1.28-2.89-.16,0-.19-.05-.07-.12,.12-.08,0-.62-.26-1.23-.34-.35-2.08-6.8-2.09-5.77-.04,.14,.11,1.02,.33,1.95h0Z"/>
        <path class="cls-1" d="M128.82,166.88c.79,2.13,1.96,4.31,2.37,4.41,.16,.04,.04-.37-.28-.94-.49-.71-3.87-8.98-2.09-3.47h0Z"/>
        <path class="cls-1" d="M134.48,155.21c.59,2.6,1.69,5.59,2.31,6.3,.74,.84,.8,.49,.14-.82-.73-1.39-1.98-5.83-2.42-7.28-.53-1.76-.55-.49-.03,1.81h0Z"/>
        <path class="cls-1" d="M135.69,150.68c.11,2.1,1.21,8.09,2.41,8.97-.1-1.82-2.29-8.56-2.08-9.42,.11-.25-.35-.44-.45-.31,0,.04,.05,.4,.12,.77h0Z"/>
        <path class="cls-1" d="M121.05,304.74c.59,1.37,1.1,2.01,1.21,1.55,.06-.24-1.43-3.37-1.64-3.43-.35-.11-.25,.31,.43,1.89h0Z"/>
        <path class="cls-1" d="M140.31,139.63c.32,2.74,1.85,7.81,2.27,7.55,.07-.04-.16-.96-.51-2.07-.93-2.48-1.36-6.56-1.69-7.23-.53-.2-.09,.69-.06,1.75h0Z"/>
        <path class="cls-1" d="M147.73,130.81c.53-.05,.67-2.17-.04-.55-.11,.28-.09,.51,.04,.55h0Z"/>
        <path class="cls-1" d="M115.14,259.46c.7,.3,2.45,1.65,2.1,1.02-.44-1.01-5.34-3.17-2.1-1.02h0Z"/>
        <path class="cls-1" d="M124.7,266.69c1.35,2.16,1.29,1.23,.09-.36-1.42-1.95-1.2-1.44-.09,.36h0Z"/>
        <path class="cls-1" d="M107.38,287.26c-.33,5.25-.07,9.08-.67,14.59-.2,4.39-.84,6.75-1.17,10.44,.07,.25,.24-.28,.41-1.24,1.12-5.57,1.99-13.25,1.9-17.76,0-2.98,.31-13.12-.47-6.03h0Z"/>
        <path class="cls-1" d="M109.05,286.86c.21,.85,.54-1.08,.25-1.01-.33-.08-.45,.43-.25,1.01h0Z"/>
        <path class="cls-1" d="M108.83,290.51c0,1.38,.06,2.59,.13,2.7,.49,.1,.21-3.28,.38-4.2,.04-.83-.03-1.55-.16-1.59-.31-.08-.34,.15-.34,3.08h0Z"/>
        <path class="cls-1" d="M110.75,287.53c.33,.1,.15-.78,.04-.78-.16,0-.33,.77-.04,.78h0Z"/>
        <path class="cls-1" d="M110.42,289.48c0-.06,.1,4.48,.56,3.19-.15-.12,.18-6.65-.41-4.24-.1,.44-.17,.89-.15,1.05h0Z"/>
        <path class="cls-1" d="M108.75,304.49c-.25,1.42-.27,1.95-.06,1.52,.47-.91,1.03-4.73,1.13-6.75-.39,1.65-.74,3.31-1.07,5.23h0Z"/>
        <path class="cls-1" d="M112.31,292.94c.08,.57,.46,.5,.45-.09,.01-.77-.66-.88-.45,.09h0Z"/>
        <path class="cls-1" d="M111.95,295.54c-.05,1.07,.49,.81,.57-.27,.04-.53,.11-1.12,.15-1.29-.18-1.06-.72,.3-.72,1.56h0Z"/>
        <path class="cls-1" d="M141.2,198.95c.92-.63,2.71-1.24,2.39-1.56-.79-.12-6.99,3.91-2.39,1.56h0Z"/>
        <path class="cls-1" d="M146.29,190.43c.39-.12,2.19-1.27,5.41-3.45,.78-.53,1.34-1.02,1.28-1.12-.13-.22-2.05,.93-4.33,2.59-2.54,1.86-2.88,2.14-2.36,1.97h0Z"/>
        <path class="cls-1" d="M148.05,187.21c.27,.07,.91-.42,4.69-3.5,1.49-1.22,2.74-2.33,2.77-2.46,.13-.52-.46-.29-1.22,.47-.64,.63-3.94,3.43-6.14,5.19-.17,.14-.22,.28-.1,.31h0Z"/>
        <path class="cls-1" d="M153.03,175.83c1.11-.54,3.4-2.69,4.72-3.66,1.79-1.43,1.81-1.45,1.48-1.53-.22-.04-6.95,4.69-6.2,5.19h0Z"/>
        <path class="cls-1" d="M155.63,172.29c2.73-2.19,7-5.84,7.04-6.02-.64-.05-5.79,4.53-7.19,5.7-2.09,1.74-1.96,2.01,.15,.32h0Z"/>
        <path class="cls-1" d="M164.12,158.58c10.37-7.68,8.88-8.09-1.17,.79l1.17-.79h0Z"/>
        <path class="cls-1" d="M164.34,160.27c.41-.13,4.3-3.06,4.35-3.28,.41-.79-5.17,3.53-4.35,3.28h0Z"/>
        <path class="cls-1" d="M164.57,149.41c1.3-.44,7.25-4.35,8.52-6.21-.79,.02-3.03,2.26-3.93,2.77-1.55,1.11-2.19,1.67-3.74,2.65-.61,.39-1,.75-.84,.79h0Z"/>
        <path class="cls-1" d="M165.22,122.61c1.46,.94,5.69,2.44,7.85,2.8-.46-.06-9.49-4.12-7.85-2.8h0Z"/>
        <path class="cls-1" d="M169.11,122.64c1.72,.64,7.62,2.94,9.39,2.51-.66-.26-6.21-1.52-6.96-1.96-.61-.28-3.54-1.61-2.43-.56h0Z"/>
        <path class="cls-1" d="M176.74,123.55c4.19,.92,6.25,1.06,8.3,.55,1.23-.31,1.07-.41-.31-.19-2.24,.52-8.55-.54-12.06-1.26l4.07,.9h0Z"/>
      </g>
    </g>
  </g>
</svg>