<?xml version="1.0" encoding="UTF-8"?>
<svg id="Layer_2" data-name="Layer 2" xmlns="http://www.w3.org/2000/svg" xmlns:xlink="http://www.w3.org/1999/xlink" viewBox="0 0 155 289">
  <defs>
    <style>
      .cls-1 {
        fill: #d1caa1;
      }

      .cls-2 {
        clip-path: url(#clippath);
      }

      .cls-3 {
        fill: none;
      }
    </style>
    <clipPath id="clippath">
      <rect class="cls-3" width="155" height="289"/>
    </clipPath>
  </defs>
  <g id="gallery">
    <g class="cls-2">
      <g>
        <path class="cls-1" d="M243.73,270.24c-.27-.76-.53-1.19-.71-1.14-.6-.11,1.26,3.17,.35,2.73-.24-.01-.47-.12-.51-.24-.09-.3-.8,.14-.88-.2-2.47-.74-6.58-1.94-9.9-2.06-1.63-.08-1.66-.09-1-.5,1.63-1.25,6.36-2.68,8.71-2.92,1.38-.06,1.43-.02,1.72,.8,.15,.47,.38,.83,.49,.8,.12-.05,.25,.2,.3,.55,.17,1.01,.93,.98,.31-.47-.28-.82-.53-1.21-.73-1.15-.17,.05-.15-.14,.06-.44,.22-.33,.24-.56,.04-.61-1.14-1.08-4.12-5.43-5.1-5.56-.2-.05-.26-.11-.15-.15,.23-.14-.72-.97-.86-.69-.09,.1-.18-.03-.19-.3-.01-.27-.9-1.35-2-2.42-6.39-6.26-7.82-1.36-9.59-7.8-.97-2.85-1.12-3.52-1.01-4.56,.17-1.84-.24-6.36-.92-10-.74-4.22-6.1-15.51-8.48-19.42-1.52-2.73-2.54-4.9-4.94-7.95-2.05-2.7-5.01-7.92-6.98-9.83-.82-1.04-3.97-4.9-5.85-6.75-4.45-4.38-8.91-5.57-15.02-5.63-7.07-1.11-13.41-4.09-18.67-6.77-2.96-1.38-12.13-3.83-16.03-3.3-6.91,.23-14.81,1.66-21.61,3.04-1.44,.38-4.64,.76-5.82,.94-.18,.05-.35,0-.38-.11-.28-.28-.83,.09-1.27-.27-9.71-11.9-16.9-31.64-21.03-46.9-4.98-18-5.77-29.96-2.66-49.01-.02-1.35,1.61-4.29,1.61-5.39-.15-.38,.45-1.4,.68-1.84,.95,2.02,1.92,2.44,2.9,4.85,1.93,4.23,4.15,7.54,6.6,11.36,.89,1.29,.92,1.38,.8,2.62-.13,2.46-.72,12.89-1.31,13.91-.83,2.04-.1,10.92,1.34,16.59,5.53,21.97,14.04,28.65,33.74,36,1.75,.62,6.4,1.05,8.45,1.52,.14-.02,2.49,1.02,5.27,2.33,9.63,5.7,20.45,4.56,31.75,3.9,.53,.16,3.95,.43,4.69,.45,1.6,.17,5.8,1.9,7.21,2.97s4.08,2.56,4.39,2.45c.14-.04,.27-.67,.32-1.41,.31-3.26,.28-1.44-.19-7.63-.39-9.76-1.54-16.97-4.56-27.81-2.12-9.02-4.78-26.46-14.73-33.59-8.45-5.73-20.87-12.44-28.41-15.88-7.88-3.8-15.09-10.26-24.9-8.43-2.14,.13-5.41,.19-6.09,1.42-2.68,.84-11.77,6.64-15.2,7.82-1.27-.16-1.32-1.85-2.18-3.13-.46-.9-1.29-2.41-1.86-3.35-1.44-2.39-.98-1.94-2.24-4.61-2.75-5.78-2.12-5.14-2.78-9.22-.16-1.09-.04-1.62,.75-3.28,1.31-2.73,.98-2.65,2.52-5.4,6.18-11.04,13.62-27.18,16.85-32.49,2.89-5.01,5.82-9.35,8.52-14.39,1.16-2.02,3.05-7.71,4.12-9.22-.39-.22-.9-.5-1.52-.75,.03,.05,.04,.11-.01,.17-.05,.09-.25,.08-.47-.03-.44-.24-.11-.33,.18-.27-1.25-.51-2.82-.92-4.37-.75,.23,.13,.22,.31-.16,.51-.69,.47-.61,1.49-1.47,2.18-3.32,2.23-9.33,3.93-16.61,3.77-10.37,.13-13.83-.43-20.83-3.93-3.29-1.78-7.11-3.23-7.45-2.83-.32-1.65-12.02-1.54-16.46-.86-1.65,.11-9.09,1.59-12.26,2.45-2.46,.28-5.77,4.11-7.22,5.96-1.93,2.82-3.58,4.76-4.24,4.99-5.72,.66-8.48,2.08-12.36,10.15-1.74,4.17-5.48,7.38-6.38,10.87-1.73,5.78,1.09,11.37,1.94,18.09,.02,8.78,2,19.74,5.26,24.38,.86,1.05,1.02,1.4,1.08,2.34-.39,1.22,3.23,6.05,4.29,8.35,.68,1.41,2.67,4.18,2.95,4.09,.11-.04,.18,.09,.17,.31,2.27,4.66,11.25,8.7,16.43,8.63,5.7,0,8.02-1.48,10.86-5.78,.76-.26,3.13-3.01,4.1-4.78,2.15-3.52,5.48-8.25,8.22-9.23,1.76-1.47,2.12-3.72-1.05-2.3-4.71,2.2-12.38,3.36-17.83,.92-1.33-.38-1.5-.5-1.31-.92,.44-1.73-.25-.86,1.27-4.17,1.29-3,2.71-5.43,3.17-5.41,.46,.05,.84-1.28,1.16-1.38,2.22-1.9,11.73-11.74,13.21-14.48,1.81-2.74,5.18-9.89,6.77-14.58,1.17-3.25,.44-7.42,2.62-10.04,.64-.87,4.29-5.83,4.89-6.94,2.24-4,4-6.24,5.79-7.33,1.1-.64,3.18-1.95,4.46-2.69,3.69,.81,8.25,1.42,11.82,1.53,.7-.24,7.39-.09,7.91,.17,.93,.12-.42,3.11-.65,3.57-1.4,3.55-.76,2.94-3.8,8.27-.78,1.4-1.8,3.63-2.23,4.9-1.02,3.38-4.63,9.19-6.87,13.13-5.8,9.78-9.87,21.03-14.05,31.51-2.21,5.02-3.73,9.87-4.19,15.85-.78,5.25-1.76,5.35-1.51,13.13-.03,.99,.05,4.73,.13,5.57-.59,2.08-3.7,6.65-3.05,6.66,.13,.07,.11,.12-.07,.13-.44,.02-2.14,2.96-1.85,3.2,.13,.11,.12,.18-.04,.15-2.04,.74-8.13,14.32-8.39,17.75-.1,.58-.41,1.74-.65,2.56-1.08,2.24-.63,7.46-.72,10-4.49,5.64-9.65,12.85-9.98,20.19,.08,.21,.04,.43-.06,.46-.21,.07-.63,3.2-.49,3.62-.62,4.54,.57,13.98,3.67,16.75,.24-.09,.53,1.91,.34,2.42-.36,1.7-.87,4.4-1.29,6.77-1.52,8.43-.77,14.99,2.77,24.41,1.35,4.11,5.08,12.82,5.05,16.16,.04,1.78-.88,5.65-1.39,5.82-.25,.04-1.18,1.78-1.39,1.84-.3,.1-1.51,4.34-1.36,4.77,.71,.68,4.84-1.82,5.95-2.48,3.17-2.64,8.81-3.23,12.12-5.39,9.51-6.88,17.9-20.86,18.07-31.16,.3-.95-2.89-11.41-3-12.73-.37-1.91,3.13-11.22,2.37-13.12,1.82-12.48-8.56-25.56-19.61-32.68-1.25-.87-5.88-4.95-7.07-5.8-2.82-1.34,3.09-15.72,3.33-16.26,.3-.18-.36-.46,.01-.59,.6-.2,2.91-5.75,3.53-6,.33-.33,.56-.71,.52-.83-.18-.19,1.27-1.88,1.07-2.06-.08-.07,.14-.35,.49-.63,.64-.34,2.55-3.89,2.27-1.29,1.44,8.34,9.58,27.23,13.07,34.72,3.3,7.72,8.49,16.09,13.52,22.69q1.57,1.76,.18,6.37c-1.26,3.37-2.03,10.66-2.16,12.82-.06,7.73-.36,15.15,.74,21.58,1.46,10.83,7.01,21.01,15.05,28.27,.23,0,.33,.12,.22,.26-.2,.23,2.98,4.34,4.74,6.14,.89,.9,2.5,2.15,2.95,2.29,8.25,4.87,5.28,4.35,19.99,11.56,6.72,3.32,13.77,7.39,19.65,9.54,5.08,1.04,8.1,1.06,13.84,1.35,.5,.21,2.36-.25,2.82-.09,.77,.17,5.07-.85,6.63-.98,2.07-.02,.92-.83,1.51-.45,.45,.39,2.65,.24,6.5-.42,5.58-.58,17.87-6.19,23.41-6.84,4.85,.13,6.68,.47,10.58,1.32,1.2,.42,3.62,.69,4.81,1.13,3.05,.91-.24-1.82-.39-3.01Zm-73.71-104.75c-1.66-.43-4.28-.41-5.77-1.38-1.05-.55-6.37-5.11-7.92-6.78-3-3.06-5.79-6.6-8.08-10.15-1.93-1.99,3.2,5.73,4.77,7.12,.66,1.32,8.04,8.04,10.33,9.73-5.53-1.09-11-4.94-13.93-8.91-2.2-2.51-4.46-5.41-5.81-7.45-1.25-1.92-2.4-3.23-2.19-2.51,1.02,2.1,7.05,10.17,9.72,12.57,1.39,1.41,1.63,1.62-.32,.88-1.43-.56-4.69-1.03-6.65-.95-1.63,.07-2.44-.26-4.72-1.93-15.48-11.5-13.69-33.8-18.89-50.61,2.57,1.52,2.8,1.63,4.32,6.64,1.67,5.84,5.33,21.37,6.77,23.22,.4-.08-2.59-8.42-2.49-8.66-1.56-5.93-3.02-12.97-5.3-19.17,4.76,2.47,11.54,4.74,16.62,6.38,2.01,.39,2.31,.52,2.5,1.06,4.61,5.99,9.48,22.34,11.91,27.69,2.93,6.52,4.22,9.71,8.85,16.01,1.37,1.89,2.48,3.15,4.78,5.39,1.04,1.14,2.78,2.38,1.51,1.82Zm17.69,1.33c-4.37-1.31-11.8,.69-16.13-1.32-.91-.08-5.16-5.37-6.88-6.52-.15,.1-.24-.04-.24-.39,.27-.41-3.38-5.42-4.37-7.66-3.38-7.11-4.33-9.54-7.93-19.97-3.43-9.49-3.07-10.09-6.19-15.1-1.35-1.62,6.73,3.14,7.52,3.67,3.34,2.44,4.5,1.74,6.27,4.94,1.98,3.19,4.29,11.16,6.06,14.44,1.93,4.6,2.4,5.49,2.81,5.36,.12-.04,.06-.36-.13-.72-1.07-1.75-5.73-14.81-7.36-18.24-.99-1.75-.98-1.8,.31-.89,6.12,3.77,20,16.24,21.25,25.04,.5,3.39,3.59,13.79,4.65,15.71,.51,.79,.83,1.96,.35,1.64Zm11.89,4.73c-1.78-1.37-8.44-4.95-9.88-4.82-2.5,.08-5.54-14.94-6.16-17.65-1.38-4.77,2.97,2.56,5.29,5.58,.91,1.44,1.31,1.73,1.85,2.39,.46,1.26,10.18,15.38,8.9,14.49Zm.95-9.4c.2,3.36,.63,6.58,.18,9.7-1.46-3.35-3.67-6.79-5.74-9.62-2.98-4.91-6.61-10.3-10.28-15.45-.83-1.16-.71-1.45,.24-.62,.88,.75,5,3.05,5.14,2.86,.06-.09,.08-.07,.04,.05-.03,.11,.59,.6,1.41,1.11,1.58,.67,8.15,6.96,8.66,8.92,.1,.27,.26,1.64,.35,3.05Zm-9.1-18.91c-2.43-1.15-2.18-.85,.6,.7,2.54,1.42,5.08,3.44,7.09,5.44,.49,2.32,.73,6.09,1.28,8,.1,.06,.06,.14-.1,.2-.15,.05-.38-.19-.49-.52-1.27-2.23-7.05-8.68-10.2-10.31-5.81-4.04-9.71-5.34-14.29-11.47-1.79-2.46-3.9-4.21-4.97-6.11,.15-.36-2.33-2.51-2.15-2.7,.84,.19,7.09,2.57,8.6,3.27,1.8,.83,2.05,.88,1.89,.37-.9-1.19-12.3-4.03-14.6-6.6-2.74-2.44-9.82-5.58-11.89-7.53,.24-.1,1.81,.25,2.01-.06,.1-.13,.16-.08,.11,.08-.06,.27,3.3,.58,3.48,.33,.04-.06,.17-.03,.31,.09,8.89,1.59,14.08,1.83,23.22,6.47,4.3,2.11,8.8,4.92,11.07,6.53,1.86,1.15,1.52,.38,3.7,8.38,4.79,16.97,2.21,7.69-4.68,5.44Zm.06-21.37l-1-.61c-2.9-2.09-11.17-7.25-13.4-7.85-.41-.07-.78-.22-.82-.34-.11-.34-2.13-1.13-2.77-1.1-6.82-2.76-16.79-1.74-24.51-1.36-3.23,.22,.98,.74,1.58,.26,.23-.26,.27,.41,.8,.16,.81-.21,2.46,.05,3.36-.23,.48-.12,.93-.13,.97-.02,.04,.09,.18,.06,.29-.07,.33-.33,.87,.39,1.7-.02,.47-.14,.85-.2,.82-.1,1.43,.31,8.43,.16,9.22,.52,8.7,1.43,16.69,6.33,23.8,11.45,2.48,8.57,3.05,6.4-3.38,2.41-7.94-5.16-16.88-9.76-26.37-10.81-4.26-1.06-16.09-.55-17.8-1.66-2.84-.79-6.68-2.23-9.33-3.38-4.4-1.29-8.84-3.09-13.04-5.89,4.04,.42,7.94-.07,11.75-.83,2.48-.4,8.17-1.24,14.77-2.64,5.88-1.21,9.45-1.45,14.78-1.44,4.74-.02,5.08-.09,9.71,.94,11,5.25,15.53,10.63,18.87,22.63Zm-65.24-40.37c2.51-.9,8.19-1,9.66-1.06,1.51,.3,10.35,4.19,11.05,5.09,.05,.15-.24,.22-.74,.14-1.15-.16-4.74,.16-7.73,.68-2.75,.48-12.43,3.62-12.08,3.92,7.05-1.56,17.31-6.55,23.81-3.08,.74,.36,24.92,11.48,18.59,10.07-8.54-1.17-16.95-.33-24.72,1.52-5.36,.68-12.17,1.55-17.63,2.18-2.19,.34-7.5-.69-8.49-.56-1.25,.49-8.23-8.16-9.3-10.12,5.4-1.48,12.55-6.43,17.58-8.78Zm-18.84,11.79c1.6,1.75,1.77,1.76,1.84,5.48,.26,11.09,.66,16.11,2.37,25.17,1.44,5.46-1.36-11.16-1.17-12.93-.2-2.98-.51-3.45-.33-5.24-.06-.92-.76-.3-.39-.78,.6-2.26-.03-6.35,.17-8.95,8.83,8.02,6.34,6.13,10.05,18.34,3.56,13.3,4.73,26.04,13.07,36.64,.96,1.38,3.71,4.08,4.85,4.77,1.07,.64,1.41,1.12,.52,.72-10.89-2.61-20.99-8.22-25.94-18.43-3.31-7.87-6.97-22.23-5.77-31.28,.15-.45,.23-3.42,.24-9.82,0-3.66,.05-4.02,.49-3.69Zm-16.82-1.16c-1.33,8.17-.51,15.26,.52,23.45-.7,.26-1.88-10.57-1.98-12.84-.2-3.32,.6-9.84,1.66-13.18,.27,.23-.11,1.2-.21,2.56Zm22.17-57.03c-.31,.55-.54,.82-.5,.59,.37-1.42,3.27-5.37,.5-.59Zm1.58-2.88c-.35,.2,.61-1.66,.28-1.76-.17-.32,1.77-2.69,2.21-3.29-.46,.93-2.34,4.83-2.5,5.05Zm7.29-12.9l-.43,.81c.06-1.63,1.01-3.05,2.02-4.17,.43,.09-1.51,3.04-1.59,3.35ZM46.79,6.11c1.67-1.4,3.53-2.12,6.3-2.44,2.1-.23,7.39-1.35,9.47-1.53,7.66-1.38,15.43-.15,22.53,2.91,1.75,.66,2,.84,4.66,1.71,2.89,1.05,4.03,1.19,.68,1.06-7.81-.46-12.24,.61-18.85,2.54-.67-.29-2.29-.99-2.82-.81-.26,.09-.52,.07-.55-.05-.32-.36-1.85-.3-2.29-.59-2.83-1.25-11.86-3.08-15.36-3.11-1.43,0-2.49,.38-4.77,1.71-1.14,.68-.65,0,1.02-1.41Zm43.33,2.72c-.23-.02-.48-.13-.52-.24,.02-.4,1.91,.31,.52,.24Zm-1.97-.05c-.06,.1-.29,.08-.51-.02-.75-.31,.66-.2,.51,.02ZM21.11,34.49c.22-1.57,1.31-3.58,2.79-5.11,.66-.69,1.13-1.36,1.05-1.5-.21-.36,.76-.1,.59-.49-.05-.18,.02-.29,.16-.29,.25,0,.99-1.28,2.12-3.7,1.06-2.27,3.82-5.55,5.34-6.35,1.51-.95,7.87-1.85,7.66-3.85,.43-1.22,2.55-3.77,3.97-4.18,.78-.33,1.43-.76,1.43-.93,0-.48,3.39-1.53,4.63-1.44,3.06,.22,18.21,4.42,17.54,4.87-.09,.05-1.71,.76-3.56,1.55-5.64,2.37-10.12,4.93-14.83,8.17-2.78,1.76-15.74,4.14-19.03,6.07-3.43,1.71-8.2,5.92-10,8.98-.9,1.38,.12-1.13,.13-1.8Zm7.65,16.47l-.6,1.39c-.72-.81-1.35-1.39-2.52-2.35-1.36-1.09-1.41-1.17-1.08-1.61,2.26-3.08,6.84-6.14,10.23-7.74-.32,.75-1.7,3.52-1.44,3.87,.14,.12,.11,.21-.07,.22-.41-.88-1.66,8.72-2.06,11.5-.65-.83-1.97-2.52-2.62-3.36,.23-.7,.71-2.2,1.02-2.63,.4-1.11-.51-.35-.86,.71Zm-3.66,4.34c-.01,.1,.23,.29,.52,.39,1.57,.67,2.44,1.97-.21,.38-3.41-1.81-1.57-1.91-.32-.77Zm-1.92-4.11c.96,1.07,2.13,2.45,2.49,3.67l-.9-.42c-.49-.23-1.01-.38-1.15-.33-.38,.12-.37-2.41-.43-2.92Zm9.67-.28c.67-5.26,1.51-7.47,3.11-10.51,1.42,9.43,6.65,16.04,11.43,25.92,1.19,2.09,3.11,5.79,3.76,7.27,.83,2.11,1.04,1.14,1.23,3.67l.07,1.21c-1.33-.76-5.4-2.48-6.67-3.5-5.4-5.17-7.42-7.73-11.62-13.95-2.15-3.44-2.2-3.87-1.31-10.11Zm-1.35-9.88c-3.41,1.8-5.41,3.77-7.61,6.66-1.4-1.23-2.48-5.83-2.88-8.8-.16-1.88,.27-2.76,2.42-4.95,3.93-5.49,15.49-7.62,23.41-9.86-1.07,1.07-1.83,1.89-3.44,3.67-4.88,4.91-4.81,10.13-11.89,13.27Zm-8.14,15.08c0-1.42,4.74,3.34,5.19,3.15,.58,.25,2.28,2.45,2.24,2.89-.93-.63-3.98-3.15-5.37-3.7-1.79-.87-2.28-1.44-2.05-2.34Zm35.87,41.82c-5.03,4.61-15.15,.44-19.58-3.99-.51-.57-.41-.56,1.19,.15,5.39,2.79,12.18,2.93,16.98,2.49,.05,.14,.46,.04,1.02-.26,.81-.42,1.5-.57,2.26-.59-.5,.78-.99,1.36-1.86,2.2Zm5.52-6.9c-2.18,.83,.06,.25-1.84,2.35-2.05,2.79-9.9,3.08-12.86,2.59-8.34-1.39-11.29-2.75-15.13-7.59-.34-.35,1.35,.28,2.73,1.01,1.96,1.09,10.31,3.31,10.77,3.02,2.41,1.06,14.29,1.01,14.97-.52-5.39,.92-14.73,1.01-20.62-1.15-6.86-1.97-8.09-3.06-10.49-6.41-1.18-1.28-3.04-3.96-3.1-4.48-.04-.42,2.09,.77,5.23,2.9,7.86,4.97,22.69,9.14,32.87,4.66-.57,1.08-1.59,3.43-2.53,3.61Zm4.22-5.82c-7.12,7.1-26.29,1.79-33.68-3.37-4.35-2.81-7.12-3.77-8.71-8.6-.22-1.65,7.56,3.61,7.63,3.96,3.58,2.83,9.25,6.79,13.69,7.5,.14-.14,2.86,.84,2.71,.16,.08-.34,.13-.34,.24-.05,2.09,1.93,15.41-.23,16.68-.74,3.54-.98,3.64-.9,1.44,1.13Zm1.54-2.99c1.22-.42,1.25-.41,1.01,.16-.14,.33-.32,.51-.39,.4-7.97,1.85-19.39,3.48-28.38-.58-3.78-1.65-9.65-7.01-14.73-9.89-1.5-.23-1.95-.66-2.42-2.34-.23-.84-.34-1.56-.23-1.59,.24-.09,2.95,1.7,5.42,3.59,3.41,2.56,2.15,1.38,.6-.19-1.18-1.23-4.99-3.93-5.74-4.06-.61,.29-1.09-2.23-1.26-3.84,4.79,3.39,5.56,3.97,11.87,9.26,4.28,3.44,8.66,7.42,13.27,8.86,5.79,1.77,15.43,1.57,20.99,.21Zm-15.12-.29c.04,.12,.47,.3,.95,.4,1.7,.37,.71,.46-1.67,.16-2.76-.35-5.4-1.17-7.58-2.35-1.44-.78-2.32-1.45-7.24-5.43-8.7-7.05-12.96-10.25-14.47-10.85l-1.18-.47c-.2-1.1-.73-3.83-.6-4.57,.43-2.11,10.2,7.3,10.96,8.54,3.03,3.91,5.39,6.22,6.46,6.86,.06,.32,2,2.09,3.07,2.78,2.17,1.46,9.59,4.3,11.32,4.92Zm3.97-14.25c-.29,.11-1.48,1.31-1.89,1.71l-.63-2.09c-.89-2.93-1.18-2.85-.44,.12,.5,1.95,.54,2.53,.27,2.92-.48,.55,.19,.65-.21,.8-.52,.17-2.42,3.61-2.77,5.01-.53,2.82-.78-.46-1.87-2.79-3.13-8.63-5.54-12.69-8.95-19.67-4.68-9.9-3.82-6.07-5.72-13.78,.52-4.41,8-12.51,12.06-15.83-.14,.42-.58,1.6-.5,1.86-.49,5.87,2.99,15.92,6.03,22.97,2.6,6.18,5.74,14.05,4.61,18.78Zm15.5-21.39c.38-1.42-4.71-15.9-2.5-7.97,1,3.08,1.15,3.83,1.79,6.48,.57,2.36,.4,2.95-1.9,6.76-.42,.64-2.34,4.13-2.92,4.54-.14,.05-.29,.26-.32,.45-.05,.51-.51-2.03-.55-3.11-.29-3.29-3.84-14.84-4.9-17.38-.05,.09,.69,2.71,1.63,5.85,1.53,5.17,1.57,4.99,2.18,8.13,.18,.85,.47,2.72,.66,4.18,.38,3,.34,3.08-2.36,6.42-3.31,4.09-5.26,6.42-5.43,6.48-.24-1.68,.02-4.75-.47-7.29-.86-4.74-11.95-32.49-9.49-36.54,6.39-4.94,13.37-8.54,20.6-11.1-.39,.59-.86,1.29-1.3,1.9-5.35,7.75,9.41,26.33,5.28,32.21Zm15.45-31.51c-2.32,2.3-5.54,10.15-8.59,14.02-2.31,2.01-2.2,7.75-3.23,9.4-.49,.74-1.66,4.54-2.22,5.03-.1-.06-.33-.99-.5-2.06-1.99-9.85-10.05-22.08-2.58-29.69,.93-.62,6.49-1.35,6.64-.88,.04,.11,.36,.09,.73-.03,.7-.24,2.9-.11,3.89-.06-1.18,1.97-3.13,7.33-2.9,8.52,.07,.19,.4-.72,.75-2.03,.56-2.18,1.64-4.7,2.58-6.7,2.6-.09,7.59,.64,10.88,1.06-1.45,.78-4.78,2.53-5.46,3.43Zm27.95,4.79c.47-1.57,2.92-6.4,3.3-6.53,.16-.06,.29-.28,.31-.52,0-.74,3.23-2.01,1.62-2.55-.37-.62-2.61,1.12-3.05,.91-.11-.1-.62-.02-1.11,.16-2.18,.77-3.3,.86-6.36,.49-3.31-.45-5.53-.23-8.4-.54-1.31-.25-1.82,.01-2.45-.18-.26-.3-2.28-.67-2.78-.51-.59,.18-6.76-.87-6.86-1.17-.04-.13-.29-.12-.59,.03-.47,.21-.49,.19-.16-.18-.22-.97,8.94,.25,10.77,.27,.26-.09,.27-.04,.07,.21-1.2,1.17,10.73-.46,11.41-.36,4.3-.71,9.91-1.24,11.82-5.71,.73-1.66,.92-1.89,1.46-1.84q.63,.07,.11,.89c-.28,.46-.67,1.46-.88,2.24-.2,.77-.29,1.61-.2,1.87,.17,.52-2.67,6.34-3.19,6.51-.17,.06-.43,.38-.6,.75-.53,1.05-.85,.69-1.56,2.04-1.08,1.75-1.06,.96-1.98,3.13-.93,2.12-1.27,2.39-.73,.59Zm2.27-.59c-.26,1.34-1.4,3.46-2.45,4.34,.37-1.16,2.92-7.24,2.45-4.34Zm-3.03,2.63c1.08-1.68-.36,1.82-1.12,3.55-.87,1.68-2.87,4.01-3.69,6.05-.5,1.11-1.08,2.24-1.3,2.53-1.36,1.66,4.92-10.25,6.11-12.13Zm-6.11,16.34c.78-1.8,.84-1.07,.1,.06l-.56,.98,.46-1.04Zm-2.79,6.25c.64-.59,0,.57-.2,.4-.09-.06,0-.24,.2-.4Zm-25.93,74.06c.51-.9,.47-.39,.08,.26-.51,.9-.47,.39-.08-.26Zm-19.85,51.43c.09-1.45,2.73-9.48,4.46-11.78,.16-.06,.34-.27,.39-.47,.17-.68,2.86-4.08,2.95-3.74,.04,.11,.14,.9,.23,1.79,.59,3.29-5.39,10.31-6.95,13.85-2.43,4.68-1.19,1.88-1.09,.36Zm-.69,12.29c.24-.31,.01-3.68-.27-3.9-.11-.1-.09-.18,.06-.23,.21-.07,.18-1.61-.04-2-.22-1.89,7.62-13.49,9.28-17.03,.19,1.43,.38,3.19,.44,4.67,.2,4.75,1.21,4.92-1.99,11.1-3.59,7.33-3.99,9.07-5.41,15-.44-1.5-1.87-6.13-1.74-6.94,.27-1.02-.62-.16-.33-.67Zm2.44,13.32c.42-2.43,.25-3.06,.32-3.67,.12-.23,.14-.62,.05-.91-.82-1.77,5.66-15.89,7.49-20.53,.17,.42,2.51,8.23,3.04,10.04l-.32,2.2c-1.41,8.95-10.06,21.88-11.31,29.8-1.12-5.71-.12-10.46,.73-16.94Zm1.09,25.91c-1.62-5.53-1.61-6.4,.05-11.59,.9-4.55,8.69-18.5,9.97-26.63,.48-1.41,1.13,4.55,1.3,5.68,.92,4.82-1.43,8.96-1.96,13.01,.12,.14,.07,.26-.11,.26-.75,.57-2.03,4.93-2.58,5.81-1.76,4.04-4.3,9.14-5.27,13.45-.2,.72-.36,1.74-.39,2.3-.03,.92-.12,.72-1-2.29Zm17.23,.04c-2.21-3.94-3.36-8.06-2.95-11.5,3.28,6.17,10.12,13.81,11.48,21.18,.77,1.07-2.78,2.9-4.93,4.26,.31-3.79-1.5-10.12-3.6-13.94Zm-2.03,10c.35,1.19,.49,5.19,.15,6.03-.2,.24-2.97,1.34-3.72,1.64,.15-2.73-.87-6.75-.12-9.17,.53-2.45,.91-4.64,1.36-7.2,.23,1.11,1.17,4.71,.73,1.11-.35-2.48-.23-6.4,.11-9.2,1.5,5.21,5.85,11.98,6.15,16.47,.75,5.03,.75,4.69-3.9,6.25,.13-1.58,.19-3.52-.11-5.12-.42-2.31-1.68-6.08-2.01-5.97-.35,.04,1.4,5.11,1.35,5.16Zm-6.23,2.65c-.14,.26-2.9,7-3.17,7.17-.24-.75-.24-2.23-.54-3.33-.24-1.12-.2-1.54,.2-2.1,.57-.8,1.7-2.83,3.7-6.69,1.55-3.05,2.18-3.54,1.49-1.41-.36,1.46-.86,4.4-1.68,6.35Zm1.78-.25c.03,.25,.15,1.55,.28,2.92,.22,2.39,.21,2.51-.53,3.16-.98,.89-3.81,2.8-3.98,2.71-.08-.04,.11-.56,.4-1.18,.21-.31,3.37-7.61,3.84-7.62Zm-6.03,2.22l-.35-1.47c-1.63-1.63,5.18-13.08,6.38-15.75,1.55-3.11,1.05-2.02,.9,.93-.11,5.44-3.16,9.59-6.93,16.3Zm-2.29-7.65c-.85-2.57-.86-2.7-.57-5.02-.14-4.02,6.98-17.11,8.98-24.55,1.84-7.32,.83-.03,1.2,1.93,.66,19.36-.85,13.59-7.55,28.99-1.37,3.58-1.02,.97-2.06-1.35Zm22.2,9.75c-4.69,4.73-5.32,6.2-12.83,8.66-3.93,1.38-4.29,1.55-6.26,3.03-2.05,1.53-3.81,2.58-3.89,2.33,2.09-7.87,16.09-14.09,22.25-15.01,1.47-.01,1.67-.12,.73,.99Zm4.74-6.24c-.58,.77-1.02,1.51-.96,1.65,.04,.14-.02,.21-.14,.14-.32-.16-2.09,2.82-2.44,2.31-.45-.18-2.43,.41-3.14,.62,1.91-1.16,3.5-2.37,5.51-4.32,2.34-2.24,3.04-2.89,1.18-.4Zm5.64-17.05c.11,1.4-.4,2.38-.12,3.25,.26,.54-.44,.22-.54-.39-.65-2.1-7.13-8.58-6.97-7.69,2.12,2.19,6.3,6.83,7.01,8.46,.52,1.17-2.36,7.27-4.5,9.57-1.43-4.93-5.22-12.81-8.77-15.22q-.28,.09,1.2,1.82c3,3.46,5.95,9.36,6.95,13.06,.32,.95-.49,1.76-1.11,2.03-.12,0-.18,.11-.13,.23,.01,.41-1.05,.84-1.28,1.12-.28,.25-.48-.15-1.36-2.74-1.52-4.01-2.68-7.64-6.28-11.87-.19-.57-.52-1.1-2.37-3.86-2.88-3.53-2.03-6.83-1.93-10.45,2.77,4,7.34,8.3,10.52,11.44,.14-.05,.22,.05,.17,.22-.04,.17,.54,1.16,1.29,2.25,2.03,2.66,3.61,6.27,4.52,7.33,1.17,.16-4.01-8.45-5.79-10.41-3.01-3.63-8.15-8.46-10.75-12.42,.05-2.13,.1-4.5,.06-6.83,.13-1.76-.5-4.56,.63-2.13,3.88,6.66,12.33,10.36,16.43,16.8,3.23,4.31,3.12,4.08,3.12,6.42Zm-21.3-14.72c.02-.53,.45,.64,.18,.48-.12-.05-.19-.26-.18-.48Zm19.74,6.63c.14-.05,.23,.02,.2,.14-.16,0,.96,3.51,.69,3.48-3.5-4.74-5.3-7.24-12.44-12.65-2.35-1.83-3.41-3.02-5.52-6.14-2.28-3.16-2.95-8.09-3.69-11.52,4.42,4.11,19.21,12.71,19.28,18.54-.62,1.66,.77,7.87,1.48,8.14Zm.14-16.78c.14,.06-.55,2.53-.37,2.56,.08-.02,.02,.19-.12,.47s-.22,.65-.16,.81c.12,.36-.43,2.19-.6,2.8-3.34-6.07-9.49-10.05-15.14-14.1-4.37-2.96-5.57-4.45-6.28-9.75,2.53,2.78,10.94,9.65,10.75,8.69-3.79-3.75-11.73-7.79-11.89-13.5,3.49,3.2,8.46,6.96,12.43,9.42,3.7,2.04,8.12,5.15,10.61,8.68,1.22,1.24,.63,2.71,.77,3.9Zm-.1-5.91l.22,1.57c-4.94-7.45-15.94-12.16-22.87-17.7-1.2-1.03-1.2-1.05-1.53-2.9-.31-1.75-.62-4.7-.8-6.65,6.49,6.7,14.44,8.61,20.87,17.09,3.85,4.7,3.77,4.78,4.12,8.6Zm-10.32-20.19c2.82,2.63,7.05,9.05,8.7,13.09,.42,1.09,.41,1.12-.04,.52-8.02-10.45-9.91-9.84-19.57-17.15-1.93-1.34-4.29-3.8-4.1-4.31,.2-.74-.25-5.49,.24-5.18,2.1,2.78,10.49,9.34,14.77,13.03Zm-14.89,.2c.86,5.89,2.71,14.66,4.46,19.59,.55,1.49,.57,3.35,.85,5,.25,1.59,.34,3.24,.34,6.91,.09,5.15-.33,4.52-.35,1.18-.13-6.13-1.23-11.82-2.75-17.74-1.37-4.88-3.81-11.63-3.9-16.32-.16-2.42-.91-3.21-.69-5.77,.07-.58-.54-4.89-.23-5.46,.12-.25,.12-.54,0-.65-.43-1.97-.38-4.39-.18-6.63,.12-.95,.13-1.8,.03-1.9-.11-.1-.09-.19,.05-.24,1.85-5.13,2.39-8.72,5.38-13.99,1.87-3.65,4.91-8.56,5.41-8.76,.36-.12,1.2-1.42,1.03-1.55-.28-.23,1.94-4.34,2.47-4.56,.88-.52-.21,.93,.12,1.08,.1,.06,.25-.12,.36-.39,.82-1.58,.81,.38,.67,1.54-.07,.86-.05,1.62,.05,1.7,.16,.14-.15,.37-.62,.45-12.33,12.83-16.34,29.38-12.53,46.49Zm20.36-22.21c-.65-1.11-5.71-15.78-6.77-19.64-.84-3-.55-2.2,.94-2.39,.98-.05,.82,2.58,.75,3.37-.16,1.08-.14,1.17,.55,1.94,2.02,2.93,1.42,7.91,3.58,13.05,1.2,3.6,1.42,4.46,.96,3.67Zm1.21,2.27c-.11-.05-.19-.26-.18-.48,.02-.53,.46,.64,.18,.48Zm10.49,19.72c-2.25-3.39-5.15-9.61-7.11-12.56-.68-.65,.26-1.83-.42-2.65-.37-.28-1.52-4.45-2.05-4.47-.16,.04-.16-.06-.02-.24,.15-.17,.12-.51-.03-.74-.66-.95-3.44-8.8-3.83-10.76-.25-1.6-1.33-5.24-1.46-6.52,.03-.15-.22-.72-.53-1.23-.95-1.49-.23-2.76-.8-4.55-.36-2.97-2.29-.74-1.8-2.56,.16-.87,.46-3.61-.32-4.25-.56-.67-.73-1.67-.96-5.72-.39-12.61,1.96-27.41,7.63-39.67,2.6-5.52,3.85-10.09,5.67-13.82,3.82-7.21,4.15-7.24,6.67-11.46,1.49-2.69,.53-.4-.37,1.76-2.12,5.76-5.15,12.74-8.82,18.42-.69,.96-.7,.79-1.36,2.52-4.57,13-9.37,27.9-7.92,42.84,.04,2.17,.44,4.95,.9,7.21,.7,3.06,3.45,8.68,3.31,10.88,.08,4.9,2.53,13.41,5.3,18.44,3.9,7.2,6.71,15.09,10.36,22.03,.46,1.56-1.14-1.12-2.04-2.89Zm2.49,4.23c-.11-.05-.19-.27-.18-.46,.02-.54,.45,.63,.18,.46Zm.7,1.3c-.12-.14-.23-.44-.22-.62,.02-.53,.54,1.02,.22,.62Zm115.01,82.78l-2.15-.02c-2.93-.13-7.67-.96-9.94-.18-.29,.15-.74,.18-1,.06-.59-.4-5.27,1.21-5.97,1.22-3.24-.26-5.33-3.96-9.2-6.48-2.08-1.6-3.93-3.03-4.1-3.16-.16-.14,.36-.09,1.16,.1,2.61,.58,24,3.2,23.64,3.41,1.55,.37,1.95,.21,3.68,.91,.93,.34,.98,.34,.82-.12-2.94-2.61-30.63-4.7-30.77-5.59-.72-.37-1.85-1.24-1.7-1.8,.12-.02,1.13,.18,2.24,.45,4.18,1.02,6.7,1.1,9.19,1.34,5.05,.81,14.64,.6,19.59,2.15,2.42,.67,2.22,.41,3.41,4.23l1.09,3.48Zm-42.74,8.79l1.05,.91c-.83,.15-2.99,.65-3.5,.45-6.82-3.63-11.08-9.48-14.64-16.98-1.81-3.58-3.26-7.73-5-11.65-.73-2.45-2.56-3.76-2.12-5.19,.6,.29-2.58-7.53-2.32-7.47,.17-.06,1.34,.68,2.19,1.39,.42,.34,.86,.61,.97,.59,.32,0,2.81,2.01,3.47,2.52,.87,2.34,4.99,14.39,5.35,13.99,1.52,3.61,9.26,16.95,12.63,19.42,.32-.11,.19-.32-1.3-2.2-4.34-5.65-8.08-11.98-11.26-18.18-.54-1.13-4.24-11.94-4.13-12.07,.05-.06,1.56,.94,3.35,2.23,6.34,4.76,10.96,6.76,16.6,10.75,.74,.62,.96,1.06,2.06,4.25,1.99,5.77,5.12,10.67,7.65,11.98,1.31,.76,1.77,.65,.2,1.46-2.77,1.52-2.8,1.75-7.46,3.6-2.4,.97-2.7,.95-3.69-.18-.92-1.02-1.37-.66-.1,.39Zm3.65-20.08c.06,0,1.11,.84,2.31,1.9,3.39,2.95,4.5,3.84,5.33,4.31,.44,.24,.82,.55,.87,.7,.08,.24,2.34,2.04,6.18,4.91,.89,.67,1.64,1.24,1.66,1.26,0,0-1.33,.45-2.97,.99l-2.98,.97c-4.75-2.12-9.35-10.92-10.41-15.04Zm29.48-19.78c.08,.39,5.98,11.18,6.25,14.78,.82,2.46,.93,6.39,1.06,8.28-6.16-1.48-10.34-2.6-21.01-3.83-2.66-.63-14.69-1.75-19.85-4.85-1.79-1.26-3.03-1.52-3.93-2.51-.07-.18-.37-.43-.67-.53-1.1-.5-2.08-1.69-3.31-2.5-.68-.5-1.14-.9-1-.88,3.75,.55,9.62,.41,14.51,.03,1.72-.11,2.34-.27,1.88-.51-5.7,.4-17.8,.55-18.34-.81-.99-.79-2.81-2.61-4.14-3.23-1.49-.85,2.05-.48,7.5-.35,.79,.03,1.56-.02,1.71-.14-5.96-.86-10.17,.9-13.77-3.28-.04-.25-2.44-1.5-2.48-1.72-.03-.1-.61-.48-1.28-.87-1.19-.67-1.59-1.32-.57-.91,.27,.11,.46,.11,.43,.02,8.46,2.02,28.14-1.7,37.16-.25,4.1,.05,17.67,1.07,19.86,4.07Zm-18.55-27.71c1.47,1.57,.74,1.18-1.26,1.12-2.52-.08-6.08-.43-7.92,0-5.28,.23-10.79,1.95-12.83,2.5-1.1,.13-10.26,2.6-11.31,2.83-2.26,.55-10.06,1.48-11.32,1.64-.04,.08-.68,.12-1.44,.1-1.88-.06-2.95,.05-2.67,.27,.13,.1,.93,.16,1.79,.13,2.98,0,5.96-.26,8.69-.88,.42,.2,.66,.02,.96-.04,.35,0,1.29-.13,2.21-.33,1.3-.27,1.55-.2,2.75-.39,2.34-.48,13.23-3.35,16.68-4.48,.24-.3,.29,.36,.51,.2,.8-.93,16.51-1.8,16.75-.56,2.31,2.49,5.7,6.76,7.19,9.5,1.07,2.03,2.94,4.23,4.18,5.9-8.07-1.56-22.22-3.5-30.57-2.5-1.1,.22-.62-.25-2.04,.06-2.21,.33-5.38,.27-7.23,.67-1.02,.59,1.88,.06,2.09,.16,1.83,.14,7.67-.61,9.69-.66,.56-.09,1.2-.11,1.41-.02s.37,.08,.33-.03c-.02-.1,.12-.12,.33-.05,1.62,.27,4.96,.01,6.91,.3,3.99,.47,5.48,.57,5.64,.37,.1-.12,.24-.09,.28,.06,.05,.14,.82,.33,1.69,.41,2.91,.28,10.88,1.45,11.34,1.68,.37,.19,3.41,5.18,4.14,6.82,.19,.42,.16,.42-.49,.16-.97-.88-16.38-2.94-18.78-2.99-2.48-.34-1.67-.48-8.03-.52-10.11-.17-21.98,.4-30.49-.49-3,.32-5.55-2.79-7.42-4.5-2.08-2.06-6.78-5.52-8.37-6.74-1.75-.97-6.06-6.17-8.02-8.21,7.7,2.7,18.1,2.31,24.54,.75,10.3-2.97,20.7-7.88,31.2-6.13,2.86,.3,4.04,.4,4.58,.38,1.5,.48,3.31,2.19,4.32,3.52Zm-76.36-13.12c3.56,.4,7.83-1.21,12.14-1.34,4.28-.44,5.39-.76,9.62-1.18,7.25-.88,12.3-.03,18.36,2-6.66,3.24-17.88,4.85-27.29,5.38-.76,.27,.47,.3,3.6,.11,10.37-.38,15.47-2.26,24.66-5.22,.55,.21,2.45,.86,2.58,1.14,.11,.29,1.08-.25,1.16,.18,.01,.49,4.73,1.83,2.38,2.05-1.08,.13-3.47,.78-8.87,2.39-3.37,1.37-20.69,4.06-9.41,2.61,3.15-.05,20.14-5.96,21.11-4.53,4.97,1.45,9.45,2.81,13.84,2.8,2.21-.04,4.44,.46,6,1.47-.16,0-1.36-.17-2.78-.35-9.1-.58-10.61,0-19.92,3.3-13.25,5-25,4.57-38.23,.19-1.79-.9-5.12-5.82-5.46-6.13-.05-.26,1.24,.09,1.24-.13,.04-.09-.41-.22-1.01-.3-.97-.14-1.26-.36-2.7-2.15-1.59-1.95-1.83-2.5-1.02-2.29Zm13.79,74.12c-1.77-1.57-3.6-4.14-5-5.87-.7-1.12-.92-.26-.93-.79-1-1.81-4.4-5.57-5.63-7.26-.69-.77-1.15-2.07-1.92-2.99-.5-.64-.72-1.17-.75-1.73,.06-1.08-.86-1-1.15-1.78-.09-.26-.26-.52-.38-.58-1.31-1.86-3.84-10.44-4.13-14.29-.97-5.9-.56-15.64-.57-21.59-.22-1.5,1.95-10.93,2.4-14.07,.18-.03,3.93,4.26,6.11,7.01,1.3,1.61,1.52,2.39,2.11,7.25,1.08,11.46,1.12,17.56,3.04,31.54-.35,2.71,8.93,27.67,10.47,27.16,2.44,2.63-1.59-.39-3.69-2.01Zm3.09-1.02c-2.6-5.19-6.77-17.23-7.55-21.72-1.39-9.54-1.89-23.17-3.12-32.7-.26-1.34-.05-2.34-.59-4.14,.37-.31,4.24,3.7,5.42,4.46,2.95,1.23,2.32,11.03,2.79,15.9,.11,15.49,2.07,30.51,9.37,42.45,.31,.17-.62-2.04-1.32-3.12-5.38-13.36-7.32-23.27-7.55-38.69-.21-5.76-.69-11.88-1.05-13.56-.7-2.47,.4-.69,1.2-.43,.43,.21,.58,.33,4.12,3.41l2.2,1.9c.21,4.46,.46,10.32,.83,13.22,.37,3.49,.36,3.47,.6,3.39,.3-.6-.26-1.41-.19-2.5-.32-3.29-.76-9.95-.9-13.2-.04-.38,.53,.07,1.87,1.48,2.44,2.55,2.99,3.47,5.37,5.72,.26,3.79,1.22,10.44,2.02,14.89,.57,3.59,4.29,13.44,5.58,15.37,.8,1.21,2.08,4.25,2.37,4.1,.2,.12,.31,.24,.24,.26,.33,.79,2.47,4.28,3.07,4.88,.25,0,.99,1.75,1.26,1.13,.13-.28,.06-.44-.27-.65-.25-.14-.39-.29-.3-.32,.08-.02-.35-.77-.96-1.67-1.16-1.71-3.96-6.4-4.57-7.62-.31-.48-2.35-5.86-2.67-4.79-.16,.19-.18,.14-.08-.19,.1-.29-.44-2.2-1.55-5.42-2.25-7.03-1.92-7.46-3.03-14.75-.99-6.32-.31-4.05,2-2.71,3.62,11.04,8.23,26.24,13.87,33.34,.4,.15,.42,.21,.14,.3-.29,.09-.28,.15,.05,.31,.23,.11,.5,.48,.62,.83,.44,1.32,4.06,5.39,4.41,4.98,.14-.15,.22-.01,.25,.4,.08,1.09,.74,1.64,4.48,3.73,1.83,1.03,1.72,1.23-.73,1.4-5.47,.11-10.74-.91-16.32-.58-4.16-4.48-5.19-4.66-.37,.05-5.67,.79-7.67,2.13-13.45-.93-2.04-1.33-6.6-5.97-7.55-8.22Zm18.26,13.6c.1-.03-.52-.39-1.4-.8-.87-.41-1.33-.74-1.02-.73,1.29,.03,5.05-.18,6.96-.39,2.76-.46,10.18,1.53,11.53,1.19,1.1,.14-.27,.64-1.94,1.17-4.35,1.06-7.75,2.66-11.32,.9-.99-.55-2.38-.88-2.81-1.35Zm6.39,2.64c2.94,.12,11.03-2.94,14.48-3.64,8.65-1.22,11.04-2.16,16.4-4.52,.28-.18,.51-.28,.54-.22,.01,.07-1.12,.84-2.52,1.72-7.67,4.78-18.87,12.17-26.61,8.06-1.56-.78-2.59-1.39-2.29-1.39Zm44.38,6.52c-3.27,.31-1.32,.05-.52-.71,.18-.23-.4-.07-1.54,.41-1.45,.6-2.19,.78-3.57,.8-3.2-.09-6.78,.77-9.42,.9-.31-.22-5.28,.15-2.68-.78,5.27-2.38,15.94-11.93,22.49-17.16,1.97-1.68,2.51-1.73,3.94-2.98,.88-1.89-8.95,6.16-9.29,6.48-4.8,3.99-11.97,10.33-17.52,13.24-2.95,1.65-4.75,.46-7.85,.43-3.14-.29-2.39-.18,.21-1.3,7.51-2.86,11.35-6.35,17.21-11.25,2.56-2.14,6.3-4.63,8.47-5.66,1.15-.54,1.49-1.12,.44-.77-5.34,2.21-14.3,10.58-18.22,13.01-3.1,1.9-8.95,4.55-11.61,5.26-.82,.21-8.25-2.58-8.03-3.02,3.14-.76,4.5-.55,8.43-2.04,6.86-1.66,18.7-11.83,23.82-13.24,2.68-.96,5.63-1.09,8.16-1.93,1.56-.53,3.13-.85,4.6-1.07-.87,.31-4.01,1.48-4.35,1.56-.71,1.01,2.77-.38,3.95-1.07,1.19-.84,5.4-.99,7.35-1.08,.48,.07-1.19,1.12-2.57,2.23-6.89,5.34,1.63-.5,3.42-1.98,8.49-.08-.66,.54-7.15,7.21-7.6,6.85-12.14,10.74-19.74,14.59-1.79,.85-1.73,.99,.15,.36,4.02-1.07,13.2-7.97,18.51-12.8,2.81-2.84,11.72-9.35,13.8-8.98,1.43-.24,2.8,.32,4.46,1.85,.95,.94,.96,.99,.35,1.19-1.42,.48-6.35,3.7-12.17,7.95-4.63,3.36-8.06,6.09-11.86,8.17-.63,.34-1.08,.69-1.04,.8,.09,.26,.77-.11,3.96-2.08,3.77-1.94,18.39-13.97,22.21-14.72,0,.04,4.52,3.85,4.54,3.94,0,.03-.81,.2-1.77,.37-4.85,.8-8.75,5.1-13.36,8.12-2.07,1.86-13.48,5.65-16.23,5.75Zm21.83-6.5c-1.76,.13-4.54,1.28-6.43,2.04,2.55-1.46,6.49-4.68,8.63-6.28,1.5-.96,6.85-3.29,7.81-3.09,.16-.02,4.02,3.14,2.51,2.9-1.63,.14-7.57,2-8.88,3.07-1.69,1.05-1.99,1.16-3.64,1.36Z"/>
        <path class="cls-1" d="M174.35,102.31c-9.82-2.75-21.49-1.17-32.15,1.55-2.43,.44-4.31,1.34-1.86,.82,13.58-3,19.13-3.7,28.79-3.11,.33-.04,1.24,.46,2.68,.64,1.2,.22,2.52,.51,2.9,.62,1.04,.31,.69-.19-.36-.53h0Z"/>
        <path class="cls-1" d="M138.27,104.72c-.82,.28-5.98,.55-5.44,.91,.03,.1,1,.09,2.13-.04,3.41-.37,4.02-.49,3.92-.79-.05-.14-.33-.18-.62-.08h0Z"/>
        <path class="cls-1" d="M162.94,204.69c-3,.12-16.31,.89-3.12,.67,1.42-.08,3.72-.26,3.12-.67h0Z"/>
        <path class="cls-1" d="M153.07,205.15c-.86-.08,.34,.46,.41,.2,.05-.1-.14-.2-.41-.2h0Z"/>
        <path class="cls-1" d="M152.17,205.15c-.42-.07-.14,.51,.13,.39,.37-.14,.19-.31-.13-.39h0Z"/>
        <path class="cls-1" d="M145.97,201.49c-.08,.04-2.79-.04-2.74,.25,.07,.22,4.04,.11,2.74-.25h0Z"/>
        <path class="cls-1" d="M141.3,201.5c-.33-.06-.64-.04-.68,.04-.04,.08,.25,.17,.63,.21,.87,.09,.9-.11,.05-.25h0Z"/>
        <path class="cls-1" d="M155.93,91.81c-.5-.07-.95-.07-.99,0,.17,.43,3.34,.48,.99,0h0Z"/>
        <path class="cls-1" d="M154.13,91.61c-.27-.01-.68,.05-.9,.13-.76,.38,2.2,.15,.9-.13h0Z"/>
        <path class="cls-1" d="M152.01,91.58c-.33-.06-.79,0-1,.11-.23,.13,.03,.21,.63,.2,1.14-.03,1.29-.15,.37-.31h0Z"/>
        <path class="cls-1" d="M149.36,91.48c-2.24,.15,.55,.71,.88,.2,.03-.13-.36-.22-.88-.2h0Z"/>
        <path class="cls-1" d="M147.15,91.58c-.61,.22-.62,.25-.11,.29,1.31,.22,1.07-.68,.11-.29h0Z"/>
        <path class="cls-1" d="M145.02,91.55c-1.47,.14-1.5,.47-.04,.42,2.12,0,1.47-.6,.04-.42h0Z"/>
        <path class="cls-1" d="M141.83,91.88c-.24,0-.39,.09-.34,.22,.21,.41,1.42-.25,.34-.22h0Z"/>
        <path class="cls-1" d="M139.46,91.99c-2.59,.4-4.83,.96-4.76,1.18,.44,.34,10.35-1.73,4.76-1.18h0Z"/>
        <path class="cls-1" d="M134.94,84.47c-.68,.24-.91,.37-.52,.29,.58-.06,2.3-.88,.52-.29h0Z"/>
        <path class="cls-1" d="M133.18,85c-.28,.1-.32,.18-.11,.19,.41,.06,.78-.42,.11-.19h0Z"/>
        <path class="cls-1" d="M128.71,86.47c-4.07,1.36-12.14,4.56-12.71,5.03-.57,.48,2.17-.25,4.28-1.14,5.48-2.31,6.83-2.84,9.37-3.75,4.23-1.51,3.49-1.62-.94-.14h0Z"/>
        <path class="cls-1" d="M133.31,93.39c-1.83,.32-2.61,.62-2.2,.83,.43,.21,2.72-.77,3.46-1.05l-1.26,.22h0Z"/>
        <path class="cls-1" d="M129.69,94.39c-4.85,1.32-10.53,2.94-15.19,2.07,2.79,2.38,19.82-2.97,15.19-2.07h0Z"/>
        <path class="cls-1" d="M114.58,91.7c-.73,.1-.8,.45-.1,.48,1.12,.1,1.07-.64,.1-.48h0Z"/>
        <path class="cls-1" d="M143.45,178.38c-.31-.16-7.53,1.87-7.82,1.82-1.75,1.13,5.87-1.23,6.28-1.17,1.88-.4,2.15-.51,1.54-.65h0Z"/>
        <path class="cls-1" d="M142.55,188.71c-1.01,.1-1.83,.27-1.8,.38,.19,.28,3.21-.25,3.42-.21,.95-.3-.57-.29-1.63-.17h0Z"/>
        <path class="cls-1" d="M140.16,188.87c-.75-.2-.55,.75,.1,.3,.21-.16,.19-.23-.1-.3h0Z"/>
        <path class="cls-1" d="M139.06,188.99c-2.89,.11-9.95-.06-11.72-.02-.44,.26,12.76,.95,11.72,.02h0Z"/>
        <path class="cls-1" d="M130.82,184.89c-.91,.03-3.64-.25-4.34,.01-.08,.42,8,.39,4.34-.01h0Z"/>
        <path class="cls-1" d="M149.91,141.05c-.38-.09-.26,.24,.23,.63,.66,.6,.06-.66-.23-.63h0Z"/>
        <path class="cls-1" d="M148.95,139.55c-.01,.19,.08,.41,.18,.46,.27,.17-.16-.99-.18-.46Z"/>
        <path class="cls-1" d="M147.65,136.74c-1.15-1.6,1.17,2.77,.6,1.17-.12-.35-.38-.85-.6-1.17h0Z"/>
        <path class="cls-1" d="M146.04,133.57c-.83-1.36,.05,.81,.33,.99,.47,.53,.28-.04-.33-.99h0Z"/>
        <path class="cls-1" d="M144.52,130.66c-.29,.1-.23,.29,.28,.85,.34,.37,.36,.34,.18-.26-.11-.38-.31-.64-.46-.59h0Z"/>
        <path class="cls-1" d="M143.56,128.63l-.45-.67c.11,.34,.41,1.61,.74,1.53,.48-.14-.04-.32-.29-.86h0Z"/>
        <path class="cls-1" d="M144.07,129.91c-.06,.42,.45,.77,.2,.1-.11-.28-.19-.32-.2-.1Z"/>
        <path class="cls-1" d="M142.83,127.23c-.42-.08-.15,.49,.12,.36,.37-.14,.2-.29-.12-.36h0Z"/>
        <path class="cls-1" d="M141.91,125.33c-.7-.93-.08,.79,.21,.64,.46-.16,.06-.25-.21-.64h0Z"/>
        <path class="cls-1" d="M141.26,124.17c-.2,.18-.17,.83,.17,.49,.2-.18,.17-.83-.17-.49h0Z"/>
        <path class="cls-1" d="M140.46,122.38c-.31-.57-1.94-3.99-2.45-4.41-.95-1.17,2.06,4.54,2.61,5.04,.17,.1,.26,.12,.22,.06-.04-.06-.21-.37-.37-.69h0Z"/>
        <path class="cls-1" d="M137.57,116.91c-.02,.06-2.81-4.74-2.93-4.62-.42-.19,4.04,7.13,2.93,4.62h0Z"/>
        <path class="cls-1" d="M146.81,144.85c-.83-.23,.9,1.79,.47,.61-.1-.31-.3-.57-.47-.61h0Z"/>
        <path class="cls-1" d="M146.19,143.83c-.64-.58-.07,.63,.19,.6,.37,.09,.27-.23-.19-.6h0Z"/>
        <path class="cls-1" d="M145.34,141.91c-.31-.78-1.37-1.71-.59-.21,.47,.67,.38,1.4,.94,1.47,.42-.26-.15-.62-.34-1.26h0Z"/>
        <path class="cls-1" d="M143.94,139.64c-.35,.12,.21,.5,.32,.44,.16-.12-.06-.57-.32-.44h0Z"/>
        <path class="cls-1" d="M142.63,136.5c-.76-1.02,.62,2.23,.75,2.22,.77,1.07-.62-2.24-.75-2.22h0Z"/>
        <path class="cls-1" d="M141.44,133.54c-.06,.42,.45,.77,.2,.1-.11-.28-.19-.32-.2-.1Z"/>
        <path class="cls-1" d="M140.9,143.7c-1.14-1.29-.02,1.06,.37,.95,.27-.09,.19-.27-.37-.95h0Z"/>
        <path class="cls-1" d="M143.53,154.1c-.7-.71-1.31-1.23-1.35-1.14,.02,.63,4.9,4.72,1.35,1.14h0Z"/>
        <path class="cls-1" d="M141.49,151.87c-.15-.04-.14,.13,.02,.38,.67,1.06,.46-.28-.02-.38h0Z"/>
        <path class="cls-1" d="M138.79,148.09c-1.18-1.34-1.27-2.24-2.04-2.89-.45-.1-.2,.4,1.26,2.48,.73,1.04,1.47,2.12,1.65,2.4,.33,.52,.86,.57,.61,.06-.08-.16-.75-1.08-1.49-2.04h0Z"/>
        <path class="cls-1" d="M136.05,143.93c-.33,.09-.07,.86,.24,.73,.33-.09,.07-.86-.24-.73h0Z"/>
        <path class="cls-1" d="M135.34,142.73c-.5-.4,.19,1.25,.35,1.03,.25-.08,.03-.72-.35-1.03h0Z"/>
        <path class="cls-1" d="M134.84,141.54c-.21-.1-1.82-4.29-2.18-4.31-.58-.22,2.03,5.13,2.32,5.12,.24-.08,.13-.68-.14-.82h0Z"/>
        <path class="cls-1" d="M132.18,135.73c-.7-.99,.38,2.21,.35,.77,0-.2-.14-.53-.35-.77h0Z"/>
        <path class="cls-1" d="M87.13,13.54c-1.02,2.11-.85,2.22-1.19,3.51-.14,.31-.13,.54,0,.49,.61-.69,4.07-10.07,1.18-4.01h0Z"/>
        <path class="cls-1" d="M82.43,22.86c-.2,.07-.61,3.53-.47,3.95,.24,.73,.62-.13,.62-1.41,.01-2.31,0-2.59-.15-2.54h0Z"/>
        <path class="cls-1" d="M78.97,14.93c-.21,.88-1.93,7.3-.79,7.16,.14-.05,.2-.24,.13-.42-.24,.21,1.02-7.03,.66-6.74h0Z"/>
        <path class="cls-1" d="M76.57,11.09c-1.09,.73-2.22,4.9-1.64,6.67,.22,1.01,.25,.94,.52-1.22,.16-1.26,.58-2.97,.93-3.79,.69-1.62,.72-1.84,.19-1.66h0Z"/>
        <path class="cls-1" d="M79.62,25.35c-.47-.23-.54,.1-.35,1.53,.33,2.43,.58,3.44,.81,3.37,.22-.35-.14-4.73-.46-4.9h0Z"/>
        <path class="cls-1" d="M77.12,27.94c-.9,.36,1.72,4.34,.61,1.16-.22-.68-.49-1.2-.61-1.16h0Z"/>
        <path class="cls-1" d="M74.05,22.92c-.29,.04-.06,.79,.1,.78,.11-.02,.22-.91-.1-.78h0Z"/>
        <path class="cls-1" d="M74.14,24.23c-.08,.16,0,.58,.18,.96,.54,1.45,.03-1.31-.18-.96h0Z"/>
        <path class="cls-1" d="M77.13,32.83c-1.91-3.54-.09,2.04,.51,1.53,.42-.25-.23-.74-.51-1.53h0Z"/>
        <path class="cls-1" d="M74.63,26.6c-.19,.38,.47,2.83,.73,2.74,.41,.1-.6-2.92-.73-2.74h0Z"/>
        <path class="cls-1" d="M75.54,29.57c-.25,.05,.32,1.84,.56,1.72,.27-.05-.33-1.83-.56-1.72h0Z"/>
        <path class="cls-1" d="M84.21,5.84c-1.44-.69-2.49-1.03-6.55-2.13-3.14-.85-3.94-.94-4.18-.46-.14,.29-.03,.39,.48,.42,.44-.07,5.18,1.29,5.6,.99,.11-.13,.17-.11,.13,.05-.12,.32,9.05,3.4,4.52,1.14h0Z"/>
        <path class="cls-1" d="M73.49,6.67c-2.55-.54-6.52-1.02-8.96-.89,.16,.3,7.85,.89,8.14,1.1,1.05,.25,1.62,.09,.82-.22h0Z"/>
        <path class="cls-1" d="M71.18,4.68c-2.56-.36-7.25-1.55-8.96-.6-.22,.25-.2,.31,.11,.3,2.68-.11,3.87-.06,6.56,.3,3.21,.43,4.12,.43,2.28,0h0Z"/>
        <path class="cls-1" d="M159,256.31c-1.59-2.47-3.59-6.58-5.08-9.42-.97-1.95-1.49-1.07-.59,.21,1.28,2.47,5.76,11.01,6.33,10.64,.49-.09-.22-.59-.65-1.43h0Z"/>
        <path class="cls-1" d="M152.5,255.53c-2.66-4.06-.78,0,.93,2.1,.9,1.12,.43,.06-.93-2.1h0Z"/>
        <path class="cls-1" d="M141.84,224.33c-.05,.65,.52,2.89,.76,3.83-.1-.95-.35-3.41-.55-3.95-.16-.45-.18-.44-.21,.12Z"/>
        <path class="cls-1" d="M150.44,251.78c-.64-1.1-1.22-3.28-1.91-4.07-.36-.27,1,3.2,1.95,5,.75,1.41,.71,.57-.04-.93h0Z"/>
        <path class="cls-1" d="M142.77,229.6c.06,.66,.82,3.51,.52,1.47-.06-.66-.82-3.51-.52-1.47Z"/>
        <path class="cls-1" d="M143.6,232.35c-.14,.02,.01,1.42,.3,1.29,.29-.03-.15-1.33-.3-1.29h0Z"/>
        <path class="cls-1" d="M144,234.01c-.21,.25-.26,.48,.12,.36,.3-.06,.17-.68-.12-.36h0Z"/>
        <path class="cls-1" d="M144.24,234.74c-.39-.1,0,1.06,.25,.75,.25-.31,.13-.66-.25-.75h0Z"/>
        <path class="cls-1" d="M151.6,261.41c-1.93-1.93-4.6-8.82-7.09-13.09-.29,.19,1.16,4.02,1.56,4.11,.2,.05,.24,.13,.11,.24-.56,.46,4.87,9.5,6.09,10.13,.44,.23,.15-.37-.67-1.4h0Z"/>
        <path class="cls-1" d="M143.2,244.1c-.42-.51-.41-.44,.29,1.92,.46,1.52,.68,2,.92,1.91,.23-.08,.16-.55-.3-1.78-.34-.93-.75-1.84-.92-2.05h0Z"/>
        <path class="cls-1" d="M144.09,258.77c-2.09-2.62-.21,.81,.81,1.72,.55,.48,.09-.5-.81-1.72h0Z"/>
        <path class="cls-1" d="M128.09,150.5c-3.44-3.59-7.43-10.31-9.9-15.29-.2-.4-.06,.05,.32,.99,1.88,4.69,7.12,12.83,10.79,16.3,.4-.13,.12-.59-1.21-2h0Z"/>
        <path class="cls-1" d="M116.84,118.35c-.21,.4,.04,2.91,.26,2.65,.21-.35-.16-2.12-.1-2.52,.01-.32-.04-.36-.16-.13h0Z"/>
        <path class="cls-1" d="M123.94,140.69c-1.83-2.64-5.55-12.07-5.47-13.5-1.81-3.77,1.94,8.97,4.28,12.51,.67,1.14,1.45,2.47,1.71,2.95,.27,.49,.58,.84,.71,.8,.31-.1,.23-.28-1.23-2.75h0Z"/>
        <path class="cls-1" d="M117.08,121.57c-.25,.49,.13,2.56,.45,2.45,.44-.41-.17-1.17-.15-1.9-.09-.6-.18-.78-.3-.55h0Z"/>
        <path class="cls-1" d="M117.62,124.28c-.22,.07-.25,.82-.05,1.4,.71,1.58,.45-1.41,.05-1.4h0Z"/>
        <path class="cls-1" d="M123.44,147.72c-.91-.67-.19,.57,.23,.64,.61,.24,.47-.16-.23-.64h0Z"/>
        <path class="cls-1" d="M122.06,146.43c-.14,.07-2.41-3.29-2.61-3,0,.42,2.32,3.27,2.74,3.37,.35,.08,.32,0-.13-.38h0Z"/>
        <path class="cls-1" d="M117.31,133.05c-.16-.04-.15,.13,.02,.39,.36,.53,.56,.55,.38,.03-.06-.19-.25-.38-.4-.42h0Z"/>
        <path class="cls-1" d="M118.59,141.81c-.33,.09-.06,.87,.25,.75,.33-.09,.06-.87-.25-.75h0Z"/>
        <path class="cls-1" d="M116.98,138.68c-.82-1.44-1.03-1.2-.3,.34,.76,1.6,1.53,2.52,1.08,1.29-.15-.41-.5-1.14-.77-1.63h0Z"/>
        <path class="cls-1" d="M112.38,126.59c-.32,.37,.69,2.56,.63,3.01,.1,.85,.51,.57,.44-.15-.06-.97-.8-2.95-1.07-2.86h0Z"/>
        <path class="cls-1" d="M114.65,133.17c-3.23-7.91,.21,3.25,1.32,4.13,.61,.18-.91-2.63-1.32-4.13h0Z"/>
        <path class="cls-1" d="M65.18,16c-1.59,3.11,1.09,16.9,2.63,18.07-.28-2.3-2.13-6.69-2.22-9.99-.38-3.22-.41-4.67-.18-7.82,.01-.19-.09-.31-.23-.26h0Z"/>
        <path class="cls-1" d="M61.47,19.99c-.53,1.06,1.65,11.26,2.36,11.02-.07-2.04-1.97-8.07-2.03-10.73-.07-.71-.1-.74-.32-.29h0Z"/>
        <path class="cls-1" d="M68.11,40.22c-.14-.38-1.06-.36-.73,.06,.57,.5,2.42,7.4,2.88,8.58,.4-.75-1.2-7.2-2.14-8.64h0Z"/>
        <path class="cls-1" d="M63.95,31.25c-.36,.17,.06,1.06,.37,1.09,.43,.07-.12-1.27-.37-1.09h0Z"/>
        <path class="cls-1" d="M63.17,35.07c-.05,.02-.1,.23-.11,.47,.1,.83,.52-.6,.11-.47h0Z"/>
        <path class="cls-1" d="M56,20.99c-.8,.27,.07,8.98,1.43,14.23,.8,3.08,1.01,3.01,.37-.12-.51-2.47-1.29-7.18-1.23-7.44-.18-1.5-.41-3.81-.41-6.25,0-.26-.07-.45-.15-.42h0Z"/>
        <path class="cls-1" d="M53.67,23.42c-.45,.15-.04,3.14,.44,3.26,.57,.53,.1-3.14-.44-3.26h0Z"/>
        <path class="cls-1" d="M58.43,38.59c.03,.97,.84,1.99,.3,.27-.37-1.13-.38-1.15-.3-.27Z"/>
        <path class="cls-1" d="M59.21,40.94c-.16-.04-.24,.12-.16,.33,.22,.61,.85-.31,.16-.33h0Z"/>
        <path class="cls-1" d="M60.35,44.07c.02,.26,.15,.65,.29,.86,.35,.54-.34-1.52-.29-.86Z"/>
        <path class="cls-1" d="M54.16,27.1c-.33,.11-.33,.32,.01,1.09,.58,1.23-.07,.76,.34,1.95,.98,2.28,.26-2.02,.16-2.46-.08-.55-.2-.69-.51-.59h0Z"/>
        <path class="cls-1" d="M52.55,24.34c-.59,1.12,.35,6.36,.49,6.28,.13-.82-.46-4.02-.33-5.02,.02-.74-.05-1.29-.16-1.26h0Z"/>
        <path class="cls-1" d="M60.69,52.57c-.35-.08,1.89,7.64,2.33,8.04,1.14,.62-2.45-8.65-2.33-8.04h0Z"/>
        <path class="cls-1" d="M56.16,13.15c-1.03,.75-2.1,.8-2.45,1.46-.2,.8,3.47-1.64,3.96-1.65,.1,.05,.12-.07,.05-.28-.11-.32-.31-.26-1.56,.47h0Z"/>
        <path class="cls-1" d="M52.1,14.99c-1.33,.63-11.63,4.41-11.28,4.7-.16-.05,9.84-2.97,12.62-5-.06-.18-.52-.07-1.34,.3h0Z"/>
        <path class="cls-1" d="M50.9,8.9c-.54-.03-1.4,.35-4.62,2.06-1.16,.61-2.16,1.26-2.25,1.45-.11,.24,.01,.23,.4-.02,.85-.55,4.88-2.61,5.99-3.07,.67-.28,.82-.41,.49-.42h0Z"/>
        <path class="cls-1" d="M49.47,11.04c-.65,.18-5.2,2.12-6.32,3.24,.8,.03,2.13-1.13,3.31-1.52,2.34-1.05,3.47-1.7,3.01-1.72h0Z"/>
        <path class="cls-1" d="M45.78,19.21c-2.94,.99-4.84,1.73-4.88,1.91-.05,.2,1.59-.26,4.74-1.31,2.94-.99,4.84-1.73,4.88-1.91,.05-.2-1.59,.26-4.74,1.31h0Z"/>
        <path class="cls-1" d="M42.41,14.59c-.56,.17-1.07,.58-1.45,.97,.71-.2,1.47-.68,2.07-1.16l-.62,.19h0Z"/>
        <path class="cls-1" d="M42.31,21.47c-2.38,.75-3.98,1.91-.23,.53,2.91-1.03,3.33-1.56,.23-.53h0Z"/>
        <path class="cls-1" d="M38.89,22.93c-.35,.12-.47,.21-.27,.22,.3,.06,1.17-.5,.27-.22h0Z"/>
        <path class="cls-1" d="M35.32,20.53c-.69,.18-4.25,1.92-5.17,2.53-1.39,.92-.94,1.09,.54,.21,.67-.47,4.32-2.34,4.63-2.74h0Z"/>
        <path class="cls-1" d="M34.55,22.68c-.33,.11-.58,.3-.54,.42,.3,.31,2.12-.99,.54-.42h0Z"/>
        <path class="cls-1" d="M32.71,23.59c-.61,.2-1.16,.51-1.2,.67,.2,.42,3.88-1.68,1.2-.67h0Z"/>
        <path class="cls-1" d="M118.04,186.79c-.5,2.78-1.2,16.48-1.52,18.2-.05,.46,0,.92,.13,1.02,.13,.11,.15,.27,.06,.4-.23,.33-.44,2.43-.25,2.53,.34,.17,.58-.46,.39-1.02-.29-.76,.25-.6,.18-.95-.06-.1-.04-.8,.04-1.58,.39-3.66,.45-4.44,.37-4.68,0-1.65,1.18-11.14,.61-13.92h0Z"/>
        <path class="cls-1" d="M122.82,206.08c-.51,.34-.53,11.03-.33,11.43-.41,.61,.16,6.02,.35,6.49-.31,1.57,1.27,13.21,2.34,12.9-2.26-7.17-2.22-22.29-2.36-30.82h0Z"/>
        <path class="cls-1" d="M116.58,209.26c-.4,.13-.36,.55,.06,.65,.35,.09,.39-.84-.06-.65h0Z"/>
        <path class="cls-1" d="M116.53,210.36c-.42-.59-.42,3.55,.12,2.39,.29-.65,.22-2.11-.12-2.39h0Z"/>
        <path class="cls-1" d="M125.92,239.11c-.64-.55,.36,1.43,.47,1.2,.27-.09-.03-.85-.47-1.2h0Z"/>
        <path class="cls-1" d="M125.3,237.88c-.06,.42,.45,.77,.2,.1-.11-.28-.19-.32-.2-.1Z"/>
        <path class="cls-1" d="M116.39,213.44c-.53,.32,.1,4.31,.34,1.3,.12-1.3,.08-1.44-.34-1.3h0Z"/>
        <path class="cls-1" d="M116.47,216.59c-.38,0-.31,6.03,.44,4.32,0-2.1-.19-2.73-.22-4.03,.03-.13-.06-.25-.21-.28h0Z"/>
        <path class="cls-1" d="M116.65,222.43c-.06,1.25,.35,3.33,.56,2.9,.32-.26-.23-2.81-.52-3.88l-.05,.98Z"/>
        <path class="cls-1" d="M117.33,226.45c-.18-.27-.2,.22-.06,1.25,.25,1.83,.39,2.18,.52,1.32,.11-.74-.12-2.03-.46-2.57h0Z"/>
        <path class="cls-1" d="M117.86,229.94c-.18-.15-.31-.22-.3-.15,.29,1.29,.8,3.04,.78,2.64-.06-.56-.01-2.08-.48-2.5h0Z"/>
        <path class="cls-1" d="M118.45,233.23c-.21,.23-.18,.73,.21,.62,.29-.05,.09-.93-.21-.62h0Z"/>
        <path class="cls-1" d="M85.18,114.91c-.99,.83-.98,2.05,.14,.22l.52-.87-.66,.65h0Z"/>
        <path class="cls-1" d="M63.5,86.26c-.95,.04-2.84,.43-2.63,.54-.04,.21,4.54-.57,2.63-.54h0Z"/>
        <path class="cls-1" d="M31.17,77.94l-1.01-.29,.91,.48c1.16,.64,1.43,.17,.11-.19h0Z"/>
        <path class="cls-1" d="M30.69,76.33c-.42-.08-.15,.49,.12,.36,.37-.14,.2-.29-.12-.36h0Z"/>
        <path class="cls-1" d="M29.61,75.59c-.72-.05,.43,.92,.38,.32-.05-.14-.21-.28-.38-.32h0Z"/>
        <path class="cls-1" d="M54.79,56.57c-3.38-7.66-7.75-15.42-8.53-24.03-.1-1.22-.25-2.26-.34-2.31-.44,6.25,1.82,12.67,5.88,21.43,1.29,2.83,1.07,1.84,2.16,4.33,1.49,3.49,2.21,3.47,.83,.59h0Z"/>
        <path class="cls-1" d="M51.73,54.66c-1.23-2.45-1.46-1.42-.41,.46,.74,1.26,1.3,3.7,2.05,4.52,.33,.08-.65-2.91-1.64-4.98h0Z"/>
        <path class="cls-1" d="M49.13,53.52c-.61-1.11-2.65-6.66-3.38-7.52-.18-.1,.11,.89,.74,2.49,1.34,3.71,6.08,12.87,2.64,5.03h0Z"/>
        <path class="cls-1" d="M51.91,64c-.81-1.54-2.88-6.31-3.88-7.6-.27-.12,1.17,3.41,4.58,11.22,.29,.66,.71,1.71,.94,2.37,1.73,3.56-.7-4.03-1.64-5.98h0Z"/>
        <path class="cls-1" d="M40.46,35.7c-.19,.37,.73,3.64,1.07,3.81,.28,.32-.9-4.52-1.07-3.81h0Z"/>
        <path class="cls-1" d="M41.55,39.96c-.36-.09,.36,1.79,.43,1.67,.21-.07-.18-1.61-.43-1.67h0Z"/>
        <path class="cls-1" d="M36.31,28.98c-1.45,.44-4.15,2.09-5.35,2.74-.7,.58-5.25,3.09-5.55,4.28,.05,.14-.01,.22-.13,.16-.27-.13-1.99,1.64-2.47,2.55-.45,.84-.42,1.26,.03,.48,.54-.94,2.71-3,4.52-4.31,3.69-2.78,8.61-5.25,10.44-6.19-.03-.1-.71,.03-1.49,.29h0Z"/>
        <path class="cls-1" d="M30.03,35.58c-1.68,1.08-6.69,6.53-5.69,6.2,.72-.54,4.76-5.04,5.86-5.7,.71-.43,.7-1.04-.17-.5h0Z"/>
        <path class="cls-1" d="M27.39,40.21c-.61,.21-2.59,2.2-2.48,2.51,.05,.16,2.77-2.19,2.98-2.58,.03-.06-.19-.03-.5,.07h0Z"/>
        <path class="cls-1" d="M90.83,168.36c-1.15-1.5-1.51-1.83-1.66-1.54,.12,.62,5.21,6.27,1.66,1.54h0Z"/>
        <path class="cls-1" d="M88.76,166.09c-.16,.06-.25,0-.18-.12-.39-.94-4.46-4.71-6.12-5.07,.83,1.03,3.28,2.55,5.01,4.47,1.91,2.07,2.07,.67,1.3,.72h0Z"/>
        <path class="cls-1" d="M94.84,175.99c-2.17-1.94-2.54-2.2-2.69-1.91-.06,.12,.54,.71,1.35,1.33,.75,.35,3.56,3.47,3.41,2.56-.03-.1-.96-.99-2.07-1.98h0Z"/>
        <path class="cls-1" d="M89.63,172.09c-2.22-1.45-5.43-3.18-7.17-4.83-.75-.74-.97-.87-.83-.45,.23,.69,2.86,2.76,5.17,4.05,.93,.28,5.03,3.64,5.06,2.78-.04-.1-1.04-.79-2.23-1.54h0Z"/>
        <path class="cls-1" d="M60.56,89.57c-2.42,.19-3.2,.35-2.45,.5,1.35,.17,7.91-.86,2.45-.5h0Z"/>
        <path class="cls-1" d="M60.07,90.77c-.4-.02-.84,.05-.95,.13-.11,.09,.23,.15,.78,.13,1.14-.03,1.27-.23,.17-.27h0Z"/>
        <path class="cls-1" d="M58.06,90.78c-.66,0-1.01,.34-.16,.34,.62,0,1.04-.35,.16-.34h0Z"/>
        <path class="cls-1" d="M56.86,93.59c-.91,.03-.96,.05-.44,.22,1.2,.31,2.33-.38,.44-.22h0Z"/>
        <path class="cls-1" d="M57.04,94.3c-.42,.13-4.02-.03-3.42,.45,.13,.43,6.69-.35,3.42-.45h0Z"/>
        <path class="cls-1" d="M40.3,91.43c-1.07-.45-1.97-.48-1.81-.06,.41,.44,4.8,1.35,1.81,.06h0Z"/>
        <path class="cls-1" d="M37.08,86.84c-1.14-.5-2.08-1.07-2.26-.68,.07,.02,1.03,.45,2.14,.96,2.5,1.15,2.59,.96,.12-.27h0Z"/>
        <path class="cls-1" d="M34.42,84.59c-4.29-1.74,1.31,1.21,1.49,.76-.02-.06-.69-.41-1.49-.76h0Z"/>
        <path class="cls-1" d="M96.92,185.69c-1.51-1.55-2.17-1.64-.39,.12,1.43,1.41,1.53,1.49,1.62,1.29,.03-.07-.52-.7-1.23-1.41h0Z"/>
        <path class="cls-1" d="M96.36,187.89c-1.06-1.09-6.88-5.86-7.16-5.02-.49,.38,2.43,2.02,2.63,1.76,.13-.09,.19-.06,.13,.06-.06,.13,.33,.53,.88,.9,.47,.12,5.39,4.64,4.85,3.77-.04-.14-.64-.81-1.32-1.47h0Z"/>
        <path class="cls-1" d="M93.78,182.91c-1.81-1.38-3.96-2.6-4.36-2.46-.16,.05,.17,.34,.74,.64,.79,.34,8.07,5.52,3.62,1.82h0Z"/>
        <path class="cls-1" d="M95.23,195.8c-1.89-1.88-4.41-3.83-5.31-4.09-1.08-.32-.94,.01,.32,.77,1.36,.78,4.79,3.88,5.93,4.87,1.39,1.2,.73,.12-.94-1.54h0Z"/>
        <path class="cls-1" d="M96.63,200.28c-1.21-1.72-5.34-6.2-6.83-6.3,1.06,1.48,6.51,6.01,6.79,6.86,.04,.27,.53,.19,.55,.03-.02-.04-.26-.31-.51-.59h0Z"/>
        <path class="cls-1" d="M26.76,62.19c-1.23-.84-2-1.12-1.85-.66,.08,.24,3.01,2.08,3.22,2.03,.35-.09,.05-.4-1.37-1.36h0Z"/>
        <path class="cls-1" d="M98.62,212.09c-1.73-2.14-5.73-5.62-5.95-5.18-.03,.07,.65,.72,1.54,1.47,2.11,1.61,4.66,4.82,5.29,5.21,.56-.12-.3-.63-.88-1.51h0Z"/>
        <path class="cls-1" d="M97.05,223.51c-.42,.32,.59,2.19,.33,.44-.05-.3-.19-.48-.33-.44h0Z"/>
        <path class="cls-1" d="M55.93,97.33c-.75,.12-2.95-.09-2.32,.25,.91,.61,6.21-.18,2.32-.25h0Z"/>
        <path class="cls-1" d="M43.99,96.32c-2.29-1.11-1.74-.35,.12,.35,2.24,.89,1.79,.58-.12-.35h0Z"/>
        <path class="cls-1" d="M47.65,69.68c-2.53-4.62-4.79-7.71-7.22-12.69-2.17-3.82-2.9-6.16-4.58-9.46-.19-.17-.06,.37,.32,1.27,2.03,5.31,5.4,12.27,7.87,16.03,1.59,2.52,6.74,11.26,3.62,4.85h0Z"/>
        <path class="cls-1" d="M46.45,70.9c-.63-.6,.12,1.2,.33,.99,.32-.11,.15-.6-.33-.99h0Z"/>
        <path class="cls-1" d="M44.69,67.7c-.73-1.17-1.43-2.16-1.55-2.22-.47,.17,1.57,2.89,1.93,3.76,.41,.73,.85,1.3,.98,1.25,.31-.1,.21-.3-1.36-2.79h0Z"/>
        <path class="cls-1" d="M44.65,71.25c-.33,.09,.29,.74,.39,.68,.13-.08-.13-.83-.39-.68h0Z"/>
        <path class="cls-1" d="M43.9,69.42s-2.48-3.73-2.18-2.4c.19,.02,3.4,5.72,2.61,3.37-.15-.42-.34-.84-.43-.97h0Z"/>
        <path class="cls-1" d="M37.29,55.84c-.55-1.33-.82-1.79-.76-1.31,.08,1.02,1.66,4.55,2.65,6.31-.55-1.6-1.14-3.2-1.88-5h0Z"/>
        <path class="cls-1" d="M40.45,67.5c-.38-.44-.66-.17-.33,.32,.4,.65,1.03,.4,.33-.32h0Z"/>
        <path class="cls-1" d="M39.36,65.11c-.52-.93-.85-.42-.34,.53,.25,.47,.51,1.01,.56,1.17,.72,.8,.45-.64-.22-1.71h0Z"/>
        <path class="cls-1" d="M29.62,47.08c-.62,.41-2.42,3.81-2.1,3.97,.6-.23,1.58-2.55,2.11-3.07,.71-.93,.7-1.37-.02-.91h0Z"/>
        <path class="cls-1" d="M66.19,162.4c-.44,1.02-1.64,2.49-1.18,2.6,.73-.33,3.82-7.04,1.18-2.6h0Z"/>
        <path class="cls-1" d="M66.44,172.32c-.26,.31-1.17,2.24-2.73,5.8-.38,.86-.59,1.58-.48,1.63,.23,.11,1.23-1.88,2.28-4.51,1.16-2.93,1.29-3.34,.94-2.92h0Z"/>
        <path class="cls-1" d="M66.67,175.98c-.26,.09-.55,.84-2.09,5.46-.61,1.83-1.07,3.44-1.03,3.56,.17,.5,.54,0,.78-1.05,.2-.88,1.5-5.01,2.42-7.67,.07-.21,.04-.35-.08-.31h0Z"/>
        <path class="cls-1" d="M68.54,188.27c-.65,1.05-1.44,4.1-2.04,5.62-.75,2.16-.76,2.19-.44,2.08,.21-.08,3.37-7.68,2.47-7.7h0Z"/>
        <path class="cls-1" d="M68.23,192.65c-1.14,3.31-2.8,8.67-2.74,8.85,.56-.3,2.47-6.92,3.04-8.66,.84-2.58,.58-2.74-.3-.19h0Z"/>
        <path class="cls-1" d="M68.36,208.78c-4.67,12.03-3.19,11.58,.57-1.29l-.57,1.29h0Z"/>
        <path class="cls-1" d="M67.28,207.47c-.28,.33-2,4.88-1.93,5.1,.07,.89,2.48-5.74,1.93-5.1h0Z"/>
        <path class="cls-1" d="M72.88,216.77c-.87,1.06-3.8,7.55-3.89,9.8,.66-.44,1.35-3.53,1.85-4.44,.72-1.77,.96-2.58,1.75-4.24,.31-.65,.44-1.17,.29-1.12h0Z"/>
        <path class="cls-1" d="M86.64,239.78c-1.73-.01-6.12,.98-8.13,1.82,.43-.19,10.23-1.59,8.13-1.82h0Z"/>
        <path class="cls-1" d="M83.34,241.83c-1.8,.38-8.01,1.58-9.28,2.89,.7-.13,6.06-2.03,6.93-2.06,.67-.09,3.85-.52,2.35-.83h0Z"/>
        <path class="cls-1" d="M76.39,245.13c-4.04,1.46-5.85,2.44-7.31,3.97-.88,.92-.69,.92,.36,0,1.62-1.64,7.52-4.11,10.87-5.37l-3.92,1.41h0Z"/>
      </g>
    </g>
  </g>
</svg>