<?xml version="1.0" encoding="UTF-8" standalone="no"?><!DOCTYPE svg PUBLIC "-//W3C//DTD SVG 1.1//EN" "http://www.w3.org/Graphics/SVG/1.1/DTD/svg11.dtd"><svg width="100%" height="100%" viewBox="0 0 352 882" version="1.1" xmlns="http://www.w3.org/2000/svg" xmlns:xlink="http://www.w3.org/1999/xlink" xml:space="preserve" xmlns:serif="http://www.serif.com/" style="fill-rule:evenodd;clip-rule:evenodd;stroke-linejoin:round;stroke-miterlimit:2;"><path d="M176.79,6.596c-36.083,0 -68.871,11.667 -97.454,34.675c-47.333,38.104 -71.446,87.071 -71.658,145.542c-0.492,29.154 4.967,57.317 16.217,83.712c4.779,11.208 10.55,23.179 17.65,36.588c26.421,49.938 66.825,88.337 120.092,114.133c2.367,1.142 4.917,2.267 7.817,2.3l1.075,0.008c18.6,0 36.517,-5.992 54.771,-18.313c13.742,-9.279 25.658,-20.442 39.317,-34.358c33.721,-34.346 57.963,-75.004 72.054,-120.854c10.467,-34.046 12.217,-69.629 5.35,-108.783c-4.921,-28.113 -16.512,-53 -34.446,-73.979c-33.933,-39.683 -77.296,-60.092 -128.896,-60.658l-1.887,-0.012Zm-38.021,470.746c0.513,0.192 0.917,0.342 1.242,0.342l6.408,-0.017c10.892,-0.025 21.775,-0.05 32.662,-0.238c2.746,-0.046 4.446,-0.567 5.2,-1.588c0.746,-1.017 0.742,-2.754 -0.013,-5.308c-3.162,-10.721 -6.796,-22.029 -13.321,-32.121c-1.204,-1.863 -1.979,-2.658 -2.588,-2.658c-0.792,0 -2.05,1.254 -3.175,2.483c-8.792,9.587 -16.667,19.704 -23.421,30.071l-0.387,0.587c-1.558,2.371 -3.171,4.812 -3.096,8.267c0.171,0.058 0.333,0.121 0.487,0.179m22.721,404.208c-1.604,0 -3.083,-0.742 -4.442,-1.546c-3.65,-2.15 -6.292,-5.517 -8.479,-8.496c-8.129,-11.062 -10.388,-24.367 -7.108,-41.862c2.054,-10.992 6.946,-21.921 15.383,-34.4c3.408,-5.037 6.779,-9.95 10.517,-14.7c4.583,-5.812 4.996,-11.962 1.263,-18.804c-1.946,-3.571 -4.15,-7.092 -6.279,-10.5l-1.371,-2.2c-4.913,-7.908 -9.604,-15.713 -12.979,-24.258c-6.542,-16.567 -4.842,-32.642 5.058,-47.775c4.642,-7.104 10.346,-13.513 15.329,-18.967c4.512,-4.933 8.333,-9.388 11.692,-13.617c6.796,-8.554 8.363,-18.742 4.787,-31.15c-1.654,-5.767 -4.583,-10.983 -7.237,-15.329c-4.471,-7.317 -9.888,-14.15 -14.667,-20.183c-2.862,-3.617 -5.625,-7.312 -8.387,-11.012l-1.108,-1.475c-15.787,-21.129 -16.833,-43.783 -3.196,-69.246c0.817,-1.529 1.742,-3.004 2.662,-4.479l0.992,-1.604c0.271,-0.442 0.567,-0.871 0.858,-1.3c0.787,-1.15 1.537,-2.242 1.796,-3.554c-0.875,-0.929 -1.946,-1.333 -3.5,-1.333c-0.617,0 -1.242,0.058 -1.867,0.113c-0.588,0.05 -1.183,0.104 -1.758,0.112c-1.617,0.029 -3.238,0.154 -4.854,0.279c-1.871,0.142 -3.733,0.283 -5.6,0.283l-0.508,0c-3.438,-0.05 -5.562,-0.8 -6.704,-2.367c-1.146,-1.575 -1.208,-3.854 -0.192,-7.179c1.188,-3.858 3.175,-7.808 6.083,-12.075c6.688,-9.817 13.125,-18.158 19.675,-25.5l1.104,-1.213c1.858,-2.025 3.779,-4.121 5.021,-6.912c0,0 -15.017,-7.7 -19.646,-10.058c-46.317,-23.558 -83.142,-60.675 -109.446,-110.312c-10.979,-20.725 -22.158,-42.996 -27.612,-67.404c-9.267,-41.471 -9.025,-75.558 0.758,-107.275c16.25,-52.679 48.9,-92.175 97.046,-117.392c21.358,-11.183 44.554,-16.858 68.946,-16.858c55.792,0.008 102.3,21.417 138.242,63.629c18.708,21.971 30.754,47.854 35.8,76.925c7.017,40.479 5.188,77.092 -5.6,111.929c-14.646,47.279 -39.275,88.65 -73.208,122.958c-11.725,11.854 -24.383,24.263 -38.863,34.225c-17.692,12.179 -35.083,18.762 -53.171,20.129c-0.638,0.05 -1.263,0.229 -1.842,0.392l-0.346,0.088c-0.175,0.796 -0.05,1.421 0.412,2.083c4.883,6.988 7.808,14.946 10.633,22.642c1.013,2.742 2.021,5.488 3.113,8.187c1.608,3.971 2.292,7.958 2.029,11.854c-0.417,6.171 -2.317,8.062 -8.463,8.425c-2.892,0.171 -5.783,0.212 -8.679,0.254c-1.558,0.021 -3.112,0.046 -4.662,0.087c-2.646,0.075 -4.696,0.571 -6.083,2.754c-7.725,12.175 -14.896,25.654 -15.012,41.683c-0.071,9.433 2.312,18.054 7.279,26.354c4.262,7.129 9.375,13.6 14.671,20.15c5.033,6.217 11.458,14.554 16.558,23.933c4.042,7.429 6.292,14.075 7.079,20.913c1.342,11.521 -1.817,21.692 -9.642,31.092c-3.958,4.758 -8.233,9.396 -11.996,13.492c-4.667,5.067 -10.025,11.204 -14.404,18.321c-7.688,12.496 -8.804,25.875 -3.325,39.767c3.567,9.025 8.567,17.129 13.438,24.538c3.246,4.938 6.338,9.808 8.475,15.162c2.946,7.379 2.329,14.167 -1.833,20.167c-1.704,2.467 -3.446,4.904 -5.192,7.342c-2.354,3.296 -4.712,6.587 -6.971,9.946c-8.383,12.45 -13.333,24.554 -15.125,37.008c-1.729,11.946 0.883,22.375 7.983,31.883c2.8,3.75 6.546,6.579 11.454,8.65l0.925,0.392l-0.562,0.837c-1.504,2.258 -3.188,3.358 -5.142,3.358" style="fill:#0495cb;fill-rule:nonzero;"/><path d="M33.968,231.136c-3.542,-13.546 -4.333,-28.133 -2.488,-45.904c2.2,-21.25 6.075,-40.292 11.842,-58.212c3.642,-11.325 9.171,-22.321 17.933,-35.658c0.908,-1.383 2.171,-2.513 3.867,-3.446l1.875,-1.029l-0.679,2.025c-2.212,6.613 -5.062,13.058 -7.817,19.296c-3.629,8.221 -7.392,16.721 -9.688,25.629c-4.358,16.9 -7.408,32.638 -9.337,48.121c-1.033,8.3 -1.525,16.8 -2,25.025c-0.458,7.875 -0.929,16.021 -1.875,24.042l-1.633,0.113Z" style="fill:#0495cb;fill-rule:nonzero;"/><path d="M79.382,339.095c-16.263,-12.542 -34.188,-46.496 -33.067,-62.633l0.046,-0.642l0.633,-0.121c0.271,-0.054 0.521,-0.075 0.75,-0.075c1.942,0 2.562,1.604 2.979,2.671l0.258,0.625l0.383,0.842c1.808,3.929 3.671,7.988 5.3,12.079c5.812,14.592 12.108,27.104 19.242,38.246c1.15,1.8 2.221,3.65 3.292,5.504l1.408,2.421l-1.225,1.083Z" style="fill:#0495cb;fill-rule:nonzero;"/></svg>