<?xml version="1.0" encoding="UTF-8" standalone="no"?><!DOCTYPE svg PUBLIC "-//W3C//DTD SVG 1.1//EN" "http://www.w3.org/Graphics/SVG/1.1/DTD/svg11.dtd"><svg width="100%" height="100%" viewBox="0 0 148 111" version="1.1" xmlns="http://www.w3.org/2000/svg" xmlns:xlink="http://www.w3.org/1999/xlink" xml:space="preserve" xmlns:serif="http://www.serif.com/" style="fill-rule:evenodd;clip-rule:evenodd;stroke-linejoin:round;stroke-miterlimit:2;"><g><path d="M6.335,109.707c5.096,-7.133 10.354,-15.871 19.842,-17.146c4.387,-0.592 8.85,0.287 13.221,-0.421c4.542,-0.733 8.042,-3.896 10.521,-7.629c2.925,-4.404 3.704,-9.846 6.638,-14.237c2.767,-4.142 7.142,-6.542 11.867,-7.763c9.85,-2.538 19.858,-1.917 28.212,-8.617c4.188,-3.362 7.537,-8.017 12.383,-10.496c2.487,-1.275 5.283,-1.396 8.025,-1.488c3.008,-0.108 5.9,0.092 7.838,-2.496c0.329,-0.442 0.329,-1.3 0,-1.742c-1.588,-2.133 -3.621,-2.413 -6.183,-2.658c-2.992,-0.288 -6.1,-0.237 -9.042,0.412c-5.129,1.129 -9.188,4.925 -12.808,8.496c-3.721,3.671 -7.279,6.992 -12.346,8.646c-4.887,1.596 -10.012,2.05 -15.025,3.067c-4.929,1.004 -9.583,2.775 -13.504,5.987c-4.513,3.696 -6.704,8.662 -8.688,13.992c-1.587,4.271 -4.012,9.621 -8.942,10.712c-4.183,0.921 -8.592,0.125 -12.829,1.075c-11.183,2.5 -15.687,12.225 -21.062,21.204c-0.733,1.225 1.083,2.221 1.883,1.1" style="fill:#0495cb;fill-rule:nonzero;"/><path d="M87.463,86.114c3.225,-0.783 6.2,-2.367 9.404,-3.254c2.571,-0.713 5.246,-0.533 7.887,-0.55c2.733,-0.017 5.463,0 8.196,-0.008c1.413,-0.004 2.821,0.104 4.225,-0.096c0.083,-0.008 0.821,-0.121 0.388,-0.058c-0.592,0.083 0.6,-0.071 0.846,-0.146c0.692,-0.217 1.125,-0.562 1.679,-1.004c0.775,-0.612 0.858,-2.013 0.362,-2.808c-1.571,-2.525 -4.912,-2.267 -7.5,-2.225c-2.85,0.046 -5.692,0.287 -8.529,0.504c-3.121,0.237 -6.096,0.533 -9.008,1.787c-3.204,1.379 -6,3.754 -8.842,5.746c-1.046,0.733 -0.433,2.433 0.892,2.112" style="fill:#0495cb;fill-rule:nonzero;"/><path d="M4.034,38.937c1.342,-4.146 1.054,-8.496 1.079,-12.783c0.021,-3.475 0.446,-6.412 3.038,-8.508c0.029,-0.021 0.721,-0.521 1.146,-0.817c0.575,-0.4 1.162,-0.779 1.75,-1.167c1.292,-0.854 2.583,-1.754 3.7,-2.833c2.55,-2.462 3.813,-5.775 3.512,-9.312c-0.162,-1.892 -1.5,-3.517 -3.517,-3.517c-1.775,0 -3.679,1.617 -3.517,3.517c0.071,0.812 0.083,1.529 0.008,1.896c-0.196,0.925 -0.162,0.771 -0.542,1.379c-0.079,0.121 -0.654,0.838 -0.233,0.346c-0.179,0.212 -0.371,0.408 -0.567,0.604c-0.237,0.237 -0.492,0.454 -0.742,0.679c-0.142,0.125 -0.6,0.487 -0.225,0.192c-2.438,1.917 -5,3.508 -6.821,6.088c-4.987,7.079 0.667,15.846 -0.929,23.45c-0.388,1.863 2.267,2.608 2.858,0.788" style="fill:#0495cb;fill-rule:nonzero;"/><path d="M147.548,45.977l-19.033,-0.925l-11.554,15.154l-5,-18.392l-17.983,-6.304l15.942,-10.438l0.442,-19.054l14.854,11.938l18.254,-5.467l-6.763,17.817l10.842,15.671Z" style="fill:#0495cb;fill-rule:nonzero;"/></g></svg>