<?xml version="1.0" encoding="UTF-8" standalone="no"?><!DOCTYPE svg PUBLIC "-//W3C//DTD SVG 1.1//EN" "http://www.w3.org/Graphics/SVG/1.1/DTD/svg11.dtd"><svg width="100%" height="100%" viewBox="0 0 222 314" version="1.1" xmlns="http://www.w3.org/2000/svg" xmlns:xlink="http://www.w3.org/1999/xlink" xml:space="preserve" xmlns:serif="http://www.serif.com/" style="fill-rule:evenodd;clip-rule:evenodd;stroke-linejoin:round;stroke-miterlimit:2;"><path d="M10.666,36.371c-1.704,0 -3.017,0.517 -3.9,1.529c-1.175,1.342 -1.587,3.567 -1.2,6.425c1.204,8.871 4.85,16.075 10.842,21.412c6.992,6.229 15.354,10.779 23.438,15.179c2.071,1.129 4.146,2.254 6.196,3.412c0.617,0.346 1.288,0.558 1.837,0.575l0.008,0c2.192,0 3.442,-1.375 4.7,-3.442c0.675,-1.104 0.213,-1.692 -1.175,-2.963l-0.575,-0.542c-0.967,-0.938 -2.183,-1.629 -3.475,-2.363c-1.879,-1.058 -3.817,-2.158 -5.383,-4.183l-0.942,-1.217l1.537,-0.121c0.329,-0.029 0.654,-0.042 0.975,-0.042c3.55,0 6.296,1.521 8.954,2.996c1.638,0.908 3.196,1.771 4.875,2.25c-0.104,-1.242 -0.529,-2.392 -0.942,-3.512c-0.717,-1.938 -1.454,-3.942 -0.496,-6.246l0.258,-0.621l0.663,0.125c1.888,0.35 2.608,1.75 3.192,2.871c0.254,0.496 0.492,0.962 0.8,1.312c0.35,0.4 0.6,0.863 0.842,1.308c0.525,0.988 0.8,1.383 1.438,1.383c0.083,0 0.171,-0.008 0.263,-0.021c0.312,-1.233 0.267,-2.567 0.221,-3.963c-0.079,-2.396 -0.162,-4.875 1.492,-7.237l0.475,-0.679l0.683,0.467c2.408,1.662 2.588,3.862 2.746,5.808c0.054,0.642 0.1,1.275 0.242,1.879c0.504,2.104 1.521,2.383 2.446,2.383c0.521,0 1.121,-0.1 1.846,-0.317c2.067,-0.612 2.862,-1.904 2.833,-4.596l-0.042,-4.163c-0.067,-5.929 -0.133,-11.858 -0.05,-17.792c0.121,-8.771 -1.404,-17.721 -4.662,-27.358c-0.929,-2.758 -2.008,-4.892 -3.388,-6.729c-2.496,-3.317 -5.175,-5.067 -7.758,-5.067c-2.742,0 -5.354,1.975 -7.554,5.725c-2.538,4.308 -3.979,8.921 -4.283,13.704c-0.021,0.312 -0.025,0.633 -0.029,0.958c-0.013,1.7 -0.033,4.025 -2.842,5.3l-0.267,0.121l-0.283,-0.071c-1.758,-0.446 -2.721,-1.887 -3.571,-3.158l-0.513,-0.75c-2.267,-3.188 -4.671,-5.725 -7.337,-7.767c-1.746,-1.337 -3.333,-2.017 -4.717,-2.017c-2.108,0 -3.725,1.625 -4.808,4.821c-1.546,4.558 -1.062,9.162 1.442,13.683c0.225,0.4 0.538,0.796 0.854,1.2c1.083,1.371 2.562,3.254 0.733,5.737l-0.179,0.242l-0.3,0.071c-0.387,0.092 -0.775,0.137 -1.146,0.142c-1.6,0 -2.758,-0.838 -3.779,-1.575c-0.45,-0.325 -0.896,-0.65 -1.379,-0.888c-0.692,-0.333 -1.371,-0.704 -2.054,-1.075c-1.4,-0.754 -2.725,-1.471 -4.137,-1.917c-1.342,-0.417 -2.571,-0.633 -3.663,-0.633m55.521,44.683c-6.008,1.517 -11.75,6.667 -16.333,14.717c-7.558,13.271 -10.025,30.475 -6.288,42.204c5.146,-22.425 12.383,-40.625 22.621,-56.921m29.733,-7.575c-4.333,0 -8.758,0.754 -13.042,1.479c-1.783,0.3 -3.567,0.604 -5.35,0.858c-2.129,0.3 -3.454,2.321 -4.621,4.104c-11.158,17.029 -19.125,36.271 -23.679,57.2c-0.525,2.387 -1.013,4.6 0.875,7.671c11.6,-30.675 34.8,-50.692 57.771,-68.496c-0.096,-0.075 -0.192,-0.142 -0.279,-0.208c-0.517,-0.387 -0.854,-0.646 -1.188,-0.771c-3.187,-1.238 -6.617,-1.838 -10.487,-1.838m23.9,7.929c-0.642,0 -1.617,0.246 -2.733,2.375c-1.496,2.846 -3.083,5.642 -4.667,8.437c-2.871,5.067 -5.838,10.3 -8.15,15.683c-8.912,20.737 -19.013,45.487 -26.35,71.829l-0.204,0.692c-0.458,1.488 -0.896,2.908 0.096,5.358c0.163,-0.237 0.317,-0.467 0.462,-0.683c0.742,-1.104 1.325,-1.967 2.021,-2.729l2.596,-2.863c4.362,-4.85 8.875,-9.867 14.333,-13.637c4.733,-3.271 9.388,-6.654 14.046,-10.033c14.329,-10.408 29.146,-21.171 45.992,-28.308c2.679,-1.137 4.275,-1.967 4.517,-2.854c0.25,-0.917 -0.792,-2.567 -2.558,-4.933c-11.058,-14.85 -21.6,-25.946 -33.175,-34.913c-0.713,-0.558 -1.496,-1.025 -2.275,-1.496c-0.546,-0.333 -1.092,-0.662 -1.621,-1.017c-0.896,-0.6 -1.679,-0.908 -2.329,-0.908m-7.171,-1.2c-4.675,0.379 -7.879,2.85 -11,5.579c-1.571,1.375 -3.096,2.817 -4.617,4.258c-2.625,2.483 -5.337,5.05 -8.283,7.242c-19.196,14.279 -29.254,35.429 -38.979,55.879c-1.829,3.846 -1.879,7.333 -0.313,10.988c4.788,11.167 10.087,20.4 16.208,28.242l0.408,0.546c0.721,0.987 1.346,1.842 2.617,1.842c0.138,0 0.287,-0.012 0.438,-0.033c12.296,-46.433 26.146,-82.892 43.521,-114.542m51.771,52.183c-2.904,4.196 -5.862,8.371 -8.829,12.55c-16.917,23.867 -34.408,48.533 -42.175,78.625c1.838,-0.325 2.725,-1.387 3.658,-2.504l0.538,-0.629c5.017,-5.629 11.337,-10.538 19.904,-15.45c2.104,-1.204 4.196,-2.425 6.292,-3.646c9.042,-5.279 18.4,-10.733 28.392,-14.679c3.075,-1.217 4.367,-3.038 4.458,-6.292c0.446,-16.437 -2.542,-31.229 -9.133,-45.233c-0.642,-1.379 -1.1,-2.358 -3.104,-2.742m-5.912,0.025c-8.6,3.496 -14.613,6.625 -19.992,10.387c-4.029,2.817 -8.079,5.6 -12.133,8.388c-7.625,5.237 -15.508,10.658 -23.1,16.2c-10.479,7.65 -19.6,16.917 -27.112,27.546c-3.567,5.05 -3.5,6.121 0.642,10.438c6.212,6.471 14.6,14.775 24.408,21.637c1.975,1.379 3.679,2.521 4.533,2.521c0.796,0 1.396,-1.55 2.429,-5.029c6.046,-20.283 13.604,-37.071 23.104,-51.325c2.079,-3.117 4.125,-6.258 6.175,-9.4c6.25,-9.588 12.713,-19.496 19.996,-28.629c0.746,-0.908 1.254,-1.525 1.05,-2.733m-45.108,101.238c5.221,2.446 10.542,3.683 15.829,3.683c6.95,0 13.892,-2.038 21.229,-6.233c14.075,-8.042 22.183,-20.85 25.475,-40.25c-0.463,-0.05 -0.879,-0.075 -1.263,-0.075c-1.496,0 -2.396,0.367 -3.337,0.804c-15.683,7.329 -29.992,16.129 -41.921,23.767c-6.742,4.321 -13.629,12.871 -16.012,18.304m28.762,6.629c-0.196,0 -0.417,0.029 -0.654,0.088l-0.596,0.129c-2.05,0.446 -3.329,0.829 -3.775,2.421c-0.288,1.037 -0.367,2.142 -0.454,3.312l-0.096,1.179c-1.729,18.229 4.279,34.417 10.387,47.846c1.558,3.425 3.813,6.5 6.708,9.137c2.387,2.179 4.808,3.325 6.996,3.325c3.387,0 6.071,-2.804 7.358,-7.692c0.225,-0.867 0.242,-1.808 0.258,-2.804c0.029,-1.854 0.067,-3.958 1.621,-5.783l0.221,-0.263c0,0 0.383,-0.029 0.4,-0.029c1.779,0 2.775,0.712 3.65,1.35c0.317,0.221 0.629,0.45 0.967,0.638c1.546,0.862 3.129,1.746 4.754,2.267c1.054,0.333 2.025,0.504 2.892,0.504c3.008,0 4.696,-2.017 5.029,-6c0.113,-1.346 -0.308,-2.633 -0.754,-4c-0.442,-1.354 -0.896,-2.75 -0.896,-4.333l0,-0.708l0.696,-0.117c0.317,-0.05 0.617,-0.075 0.896,-0.075c1.804,0 2.971,0.979 3.912,1.771c0.467,0.387 0.913,0.762 1.371,0.975c1.188,0.554 2.525,1.179 3.754,1.179c0.737,0 1.404,-0.225 2.038,-0.688c1.429,-1.033 1.512,-2.608 1.608,-4.425c0.025,-0.479 0.05,-0.95 0.1,-1.417c0.062,-0.592 -0.296,-1.158 -0.713,-1.825c-0.637,-1.017 -1.508,-2.404 -0.5,-4.133l0.225,-0.383l0.438,-0.025c0.167,-0.013 0.329,-0.046 0.492,-0.075c0.271,-0.05 0.529,-0.092 0.763,-0.092l0.208,0l0.554,0.179c1.958,1.054 3.842,1.592 5.592,1.592c2.525,0 4.842,-1.129 6.887,-3.354c3.417,-3.721 3.846,-8.183 1.308,-13.646c-2.029,-4.358 -5.104,-8.242 -9.4,-11.879c-9.729,-8.229 -21.104,-15.058 -33.812,-20.292c-0.937,-0.379 -1.9,-0.713 -2.871,-1.004c-0.35,-0.1 -0.662,-0.154 -0.938,-0.154c-0.646,0 -1.071,0.283 -1.379,0.913c-0.258,0.525 -0.058,0.85 0.775,1.687c0.438,0.446 0.879,0.825 1.329,1.213c1.496,1.292 3.192,2.75 3.817,5.488l0.238,1.05l-1.079,-0.033c-2.704,-0.092 -4.487,-1.404 -6.062,-2.567c-0.5,-0.367 -0.992,-0.733 -1.508,-1.042c-0.775,-0.475 -1.475,-0.704 -2.146,-0.704c-0.963,0 -1.917,0.463 -3.183,1.546c-1.567,1.333 -1.371,2.596 -0.425,4.6c0.304,0.646 0.7,1.271 1.096,1.904c1.083,1.713 2.304,3.654 1.988,6.296l-0.113,0.942l-0.921,-0.233c-2.375,-0.604 -3.425,-2.125 -4.35,-3.467c-0.279,-0.413 -0.558,-0.817 -0.875,-1.183c-0.346,-0.396 -0.654,-0.846 -0.962,-1.292c-0.888,-1.287 -1.488,-2.083 -2.608,-2.083c-0.283,0 -0.604,0.054 -0.946,0.154c-2.183,0.654 -2.342,2.062 -2.438,4.496c-0.013,0.392 -0.029,0.783 -0.062,1.175c-0.029,0.383 0.004,0.792 0.037,1.204c0.096,1.35 0.229,3.2 -1.738,4.379l-0.421,0.258l-0.429,-0.25c-1.45,-0.846 -1.7,-2.221 -1.904,-3.329c-0.075,-0.408 -0.146,-0.817 -0.292,-1.192c-0.754,-1.958 -1.104,-2.625 -2.062,-2.625m18.142,72.913c-3.975,0 -8.137,-2.313 -12.029,-6.692c-3.371,-3.787 -5.758,-7.529 -7.3,-11.425c-5.692,-14.358 -11.146,-29.796 -9.912,-46.638l0.112,-1.187c0.163,-1.529 0.321,-2.983 -0.296,-4.417c-0.117,-0.054 -0.229,-0.112 -0.346,-0.171c-0.387,-0.2 -0.787,-0.404 -1.104,-0.417c-17.308,-0.75 -30.271,-10.042 -39.625,-18.05c-15.263,-13.063 -32.288,-29.421 -42.854,-51.754c-6.7,-14.163 -10.475,-28.971 -11.208,-44.008c-0.517,-10.542 1.838,-21.317 7.204,-32.946c2.283,-4.95 2.283,-4.95 -2.496,-7.771l-5.537,-3.237c-5.563,-3.242 -11.317,-6.592 -16.8,-10.171c-9.483,-6.192 -15.4,-15.433 -17.587,-27.471c-1.05,-5.787 -0.525,-9.837 1.6,-12.379c1.85,-2.221 4.879,-3.3 9.254,-3.3c1.071,0 2.221,0.067 3.454,0.192c0.342,0.037 0.683,0.046 1.062,0.046l1.904,-0.025c0.042,-0.867 0.067,-1.688 0.087,-2.483c0.058,-2.125 0.117,-4.125 0.458,-6.062c1.012,-5.708 3.658,-9.421 7.858,-11.033c0.967,-0.371 1.942,-0.558 2.904,-0.558c3.408,0 6.225,2.35 8.487,4.242c0.604,0.504 1.163,1.071 1.725,1.642c1.175,1.196 2.292,2.329 3.879,2.904c1.521,-1.029 1.908,-2.658 2.35,-4.525c0.237,-1.008 0.483,-2.054 0.942,-3.021l0.25,-0.529c2.617,-5.538 5.583,-11.817 13.4,-11.95c8.438,0 12.212,6.225 14.829,12.308c4.008,9.317 6.1,19.908 6.404,32.375c0.075,2.954 0.088,5.908 0.1,8.863c0.017,3.575 0.033,7.146 0.154,10.713c0.142,4.2 0.712,4.554 2.45,4.554c0.583,0 1.275,-0.071 2.1,-0.196c2.937,-0.425 5.862,-0.646 8.7,-0.646c16.604,0 31.525,7.308 45.612,22.338c11.925,12.733 25.275,27.896 32.762,46.8c7.804,19.7 9.679,39.7 5.733,61.142c-0.883,4.821 -2.825,9.263 -5.079,14.163c-1.108,2.413 -1.842,4.004 -1.542,4.788c0.3,0.792 1.896,1.521 4.471,2.633c9.188,3.987 17.696,8.825 25.288,14.387c7.275,5.329 12.579,10.967 16.217,17.242c3.592,6.196 4.5,11.954 2.638,16.65c-1.821,4.583 -6.25,8.042 -12.808,9.996c-2.242,0.671 -3.287,1.283 -3.55,3.154c-0.792,5.692 -3.425,8.454 -8.046,8.458c-0.504,0 -1.038,-0.037 -1.604,-0.108l-0.058,0c-1.288,0 -1.792,0.675 -2.487,2.067c-3.354,6.721 -4.608,9.229 -8.583,9.229c-1.675,0 -3.763,-0.454 -7,-1.204c-0.646,-0.15 -1.183,-0.225 -1.633,-0.225c-1.45,0 -1.967,0.733 -2.879,3.096c-2.642,6.846 -6.913,10.621 -12.025,10.621" style="fill:#0495cb;fill-rule:nonzero;"/></svg>