<?xml version="1.0" encoding="UTF-8" standalone="no"?><!DOCTYPE svg PUBLIC "-//W3C//DTD SVG 1.1//EN" "http://www.w3.org/Graphics/SVG/1.1/DTD/svg11.dtd"><svg width="100%" height="100%" viewBox="0 0 318 439" version="1.1" xmlns="http://www.w3.org/2000/svg" xmlns:xlink="http://www.w3.org/1999/xlink" xml:space="preserve" xmlns:serif="http://www.serif.com/" style="fill-rule:evenodd;clip-rule:evenodd;stroke-linejoin:round;stroke-miterlimit:2;"><g><path d="M13.757,362.731c0.025,-4.462 0.025,-4.462 4.75,-4.479c14.204,-0.046 28.408,-0.054 42.612,-0.062c14.204,-0.008 28.417,-0.017 42.621,-0.062c1.854,0 2.971,0.288 3.588,0.904c0.583,0.587 0.867,1.621 0.862,3.167c-0.025,10.204 0,20.413 0.029,30.613c0.033,11.429 0.062,22.858 0.021,34.288c-0.017,4.812 -0.017,4.812 -5.179,4.85c-5.963,0.042 -11.925,0.054 -17.883,0.054l-25.583,-0.021l0,0.012l-23.062,0.025c-5.967,0 -11.933,-0.012 -17.904,-0.062c-4.875,-0.042 -4.875,-0.042 -4.896,-4.333c-0.104,-21.533 -0.096,-43.363 0.025,-64.892m94.433,-66.954l-0.013,10.729l-0.029,4.729c-0.025,2.863 -0.046,5.729 0.008,8.592c0.025,1.4 -0.242,2.396 -0.804,2.971c-0.554,0.562 -1.475,0.833 -2.817,0.833c-2.487,-0.067 -4.663,-0.079 -6.837,-0.079l-40.242,0.004c-12.583,0 -25.171,-0.008 -37.754,-0.054c-5.963,-0.025 -5.963,-0.025 -5.992,-5.842c-0.088,-17.471 -0.071,-34.938 0.012,-52.404c0.029,-5.867 0.029,-5.867 5.675,-5.908c5.792,-0.042 11.583,-0.054 17.375,-0.054l25.329,0.025l0,-0.079l22.887,-0.025c6.033,0 12.062,0.017 18.1,0.062c5,0.042 5,0.042 5.038,4.996c0.092,10.5 0.075,21 0.062,31.504m-0.071,49.479l0.017,2.796c0.004,1.267 -0.254,2.196 -0.779,2.758c-0.521,0.558 -1.412,0.85 -2.642,0.854l-4.683,0.038l-77.354,-0.058c-1.667,0 -3.329,-0.038 -4.996,-0.079l-0.442,-0.008c-2.517,-0.058 -3.533,-1.1 -3.513,-3.592c0.017,-1.825 -0.004,-3.654 -0.021,-5.479c-0.017,-1.558 -0.033,-3.121 -0.025,-4.683c0.033,-7.917 0.033,-7.917 7.604,-7.933l65.912,-0.012c5.642,0 11.287,-0.008 16.933,-0.133l0.358,-1.242l0,1.238c1.563,0 2.533,0.25 3.046,0.779c0.479,0.492 0.692,1.363 0.65,2.658c-0.121,4.033 -0.092,8.067 -0.067,12.1m43.767,34.396l0.004,-15.062c0,-0.758 0.025,-1.521 0.046,-2.283l0.042,-1.604c0.033,-1.929 0.771,-2.771 2.55,-2.917c1.871,-0.154 3.617,-0.296 5.362,-0.296c16.904,-0.017 33.808,-0.037 50.704,-0.037c9.438,0 18.875,0.008 28.312,0.021c6.058,0.012 6.058,0.012 6.104,5.796c0.154,20.904 0.188,42.225 0.092,63.354c-0.025,5.317 -0.025,5.317 -5.629,5.354c-5.579,0.033 -11.162,0.046 -16.742,0.046l-22.683,-0.021l-1.25,-0.017l-23.721,0.017c-5.392,0 -10.779,-0.008 -16.171,-0.033c-6.979,-0.029 -6.979,-0.029 -7,-7.146c-0.037,-15.058 -0.029,-30.112 -0.021,-45.171m93.096,-62.458c-0.05,5.158 -0.05,5.158 -5.725,5.175c-5.804,0.017 -39.413,0.013 -39.413,0.013l-1.25,-0.054l-23.462,0.012c-5.471,0 -10.942,-0.004 -16.417,-0.029c-6.767,-0.029 -6.767,-0.029 -6.796,-6.521c-0.071,-16.679 -0.071,-33.358 0.004,-50.037c0.029,-6.471 0.029,-6.471 6.808,-6.517c26.846,-0.183 53.7,-0.329 80.542,-0.45l0.554,0c5.046,0 5.142,0 5.188,5.254c0.146,18.008 0.138,35.892 -0.033,53.154m-47.354,33.971l0,0.021l-23.779,-0.004c-3.554,-0.012 -7.104,-0.05 -10.654,-0.083l-7.333,-0.067c-1.512,-0.012 -2.542,-0.321 -3.146,-0.946c-0.587,-0.608 -0.854,-1.579 -0.821,-2.979c0.092,-3.592 0.079,-7.188 0.067,-10.783l-0.008,-4.112c0.004,-2.538 1.021,-3.575 3.517,-3.575c0.675,0 3.283,-0.062 3.921,-0.062l79.017,-0.021l0.525,-1.25l0,1.246c5.883,0.146 5.883,0.146 6.137,6.05c0.121,2.842 0.088,5.688 0.042,8.533c-0.117,8.021 -0.117,8.021 -7.896,8.029l-39.587,0.004Zm-191.938,84l-0.521,1.062l1.029,0.579c2.712,1.533 5.013,1.733 6.904,1.733c0.571,0 1.133,-0.021 1.683,-0.038c0.504,-0.021 0.996,-0.042 1.492,-0.042c43.437,0.029 86.887,0.05 130.329,0.05c29.933,0 59.858,-0.008 89.792,-0.042c0.004,0 6.067,0.058 6.067,0.058c8.479,0 8.75,-2.413 8.767,-15.213c0.054,-34.942 0.058,-69.883 0.062,-104.825l0.012,-45.579c0,-1.029 0.021,-2.058 0.038,-3.087c0.029,-1.858 0.062,-3.713 -0.004,-5.575c-0.029,-0.675 0.037,-1.208 0.096,-1.758l0,-9.704l-11.196,0c-0.346,0.108 -0.65,0.25 -1.092,0.3c-1.342,0.146 -2.5,0.233 -3.488,0.233c-1.638,0 -2.458,-0.254 -2.938,-0.533l-9.442,0c-0.588,0.1 -1.275,0.125 -2.183,0.125l-4.079,-0.037c-0.804,0 -1.675,0.008 -2.621,0.037l-3.067,-0.004c-1.296,-0.021 -2.517,-0.054 -3.621,-0.121l-13.092,0c-0.692,0.163 -1.475,0.262 -2.454,0.262c-0.925,0 -1.958,-0.062 -3.121,-0.167c-0.188,-0.017 -0.3,-0.071 -0.471,-0.096l-12.879,0c-0.296,0.012 -0.546,0.025 -0.892,0.038c-2.812,0.096 -5.633,0.137 -8.454,0.137c-2.879,0 -5.767,-0.046 -8.642,-0.137c-0.371,-0.013 -0.637,-0.025 -0.963,-0.038l-11.05,0l-0.021,169.804l-0.029,1.992c-0.021,1.183 -0.046,2.363 0,3.538c0.054,1.404 -0.2,2.408 -0.754,2.988c-0.571,0.592 -1.542,0.875 -2.979,0.875c-1.621,-0.017 -3.104,-0.025 -4.596,-0.025l-11.067,0.037c-2.388,0 -4.775,-0.012 -7.162,-0.067c-4.421,-0.096 -4.421,-0.096 -4.687,-4.833c-0.092,-1.692 -0.079,-3.396 -0.062,-5.096l0.008,-116.662l-0.271,0l0,-52.55l-10.196,0c-0.983,0.062 -2.067,0.1 -3.329,0.1l-0.004,0c-1.267,0 -2.696,-0.021 -4.333,-0.054c-0.458,-0.008 -0.821,-0.029 -1.213,-0.046l-14.542,0c-0.242,0.017 -0.467,0.042 -0.729,0.058c-0.533,0.037 -1.067,0.054 -1.604,0.054c-0.462,0 -0.925,-0.012 -1.392,-0.029c-0.633,-0.021 -1.158,-0.05 -1.667,-0.083l-13.754,0c-0.133,0.004 -0.212,0.042 -0.354,0.042l-2.421,-0.008l-12.05,0.046c-1.975,0 -3.95,-0.013 -5.921,-0.042c-0.562,-0.008 -1,-0.025 -1.475,-0.038l-15.596,0c-0.65,0.088 -1.287,0.2 -2,0.2l-0.008,0c-0.942,0 -1.883,-0.083 -2.8,-0.2l-12.596,0l0,7.683c0.383,0.762 0.608,1.704 0.629,3.008c0.025,1.975 0.15,3.95 0.275,5.929c0.133,2.188 0.271,4.375 0.275,6.562c0.042,48.829 0.033,97.658 0.017,146.487l0.021,1.954c0.054,3.729 0.108,7.254 -1.617,10.754" style="fill:#0495cb;fill-rule:nonzero;"/><path d="M13.964,117.351c8.312,-12.45 19.117,-16.258 33.046,-11.65c0.942,0.312 1.904,0.667 2.871,1.054c-0.017,0.038 -0.033,0.075 -0.05,0.113c-0.287,0.65 -0.521,1.162 -0.821,1.504c-8.554,9.758 -13.5,21.304 -17.829,32.292c-3.387,8.596 -7.2,18.637 -9.529,29.071c-0.071,0.321 -0.129,0.667 -0.188,1.021c-0.275,1.617 -0.479,2.346 -1.342,2.592c-0.629,0.175 -1.237,0.158 -1.871,-0.05l-0.004,0c-0.804,-0.267 -1.617,-0.842 -2.404,-1.704c-1.421,-1.554 -2.146,-3.525 -2.029,-5.542c0.363,-6.508 -1.271,-12.808 -4.987,-19.267c-2.396,-4.167 -2.925,-8.938 -1.567,-14.192c1.467,-5.7 3.662,-10.683 6.704,-15.242m19.642,33.054l1.95,-4.925c4.012,-10.192 8.163,-20.733 15.075,-29.592c5.204,-6.667 6.688,-7.542 10.567,-6.258c1.642,0.542 3.658,1.525 6.304,2.921c-0.029,0.079 -0.054,0.15 -0.083,0.221c-0.246,0.7 -0.442,1.254 -0.725,1.683c-7.454,11.471 -13.529,24.833 -19.117,42.054c-2.167,6.675 -4.346,13.342 -6.592,19.988c-0.104,0.308 -0.196,0.633 -0.292,0.967c-0.458,1.608 -0.75,2.329 -1.629,2.458c-1.821,0.271 -3.708,0.071 -5.754,-0.604l-0.004,-0.004c-1.908,-0.629 -3.708,-1.588 -5.217,-2.446c-1.392,-0.792 -1.333,-1.842 -0.862,-4.237c0.113,-0.567 0.221,-1.125 0.283,-1.662c0.821,-7.433 3.746,-14.713 6.096,-20.562m27.417,-12.508c2.763,-6.346 5.842,-13.038 10.308,-18.954c1.921,-2.533 3.367,-4.133 5.933,-3.283l4.45,1.779c4.846,1.946 9.854,3.958 14.604,6.25c1.263,0.613 2.996,1.454 3.188,2.017c0.2,0.567 -0.596,2.196 -1.508,4.079c-6.358,13.037 -12.746,27.208 -16.4,42.529l-1.612,4.787c-1.288,3.817 -2.571,7.633 -3.738,11.483c-0.492,1.621 -1.15,2.625 -2.004,3.071c-0.821,0.429 -1.933,0.396 -3.417,-0.092l-2.296,-0.771l-11.454,-3.742c-1.875,-0.621 -3.746,-1.25 -5.608,-1.896c-6.671,-2.321 -6.758,-2.492 -4.733,-9.304c3.333,-11.233 7.742,-22.938 14.287,-37.954m32.208,16.25c2.767,-6.817 6.179,-14.812 10.504,-22.446c1.604,-2.825 3.208,-3.483 6.146,-2.513l0.392,-1.183l-0.358,1.196c3.504,1.171 5.946,2.229 6.467,3.587c0.542,1.412 -0.6,3.917 -2.483,7.246c-8.667,15.304 -15.046,32.85 -19.512,53.642c-0.504,2.333 -0.938,3.858 -1.558,4.246c-0.608,0.371 -2.117,0.092 -4.183,-0.446c-0.517,-0.133 -1.029,-0.283 -1.537,-0.454c-0.442,-0.146 -0.879,-0.304 -1.312,-0.463c-5.388,-1.983 -5.612,-2.417 -4.05,-7.708c1.271,-4.312 2.721,-8.575 4.167,-12.829c0.637,-1.892 2.3,-6.858 2.3,-6.858l-0.029,-0.008c0.421,-1.292 0.825,-2.592 1.233,-3.887c1.154,-3.696 2.346,-7.513 3.817,-11.121m11.279,21.879c1.208,-3.021 2.346,-6.088 3.483,-9.158c2.962,-7.988 6.025,-16.254 10.479,-23.692c0.717,-1.196 1.321,-2.238 1.85,-3.146c3.017,-5.217 3.017,-5.217 8.408,-3.6c1.113,0.333 2.425,0.729 3.983,1.158c0.992,0.275 1.858,0.521 2.596,0.767c1.65,0.546 2.496,1.021 2.742,1.546c0.433,0.908 -0.346,3.112 -1.417,5.896c-5.533,14.454 -10.55,29.346 -15.404,43.754l-1.938,5.763c-0.629,1.858 -1.096,3.467 -1.496,4.842c-0.817,2.8 -1.35,4.65 -2.283,5.142c-1.075,0.567 -3.625,-0.088 -7.117,-1.242l-0.004,0c-1.2,-0.4 -2.554,-0.867 -4.096,-1.412c-5.175,-1.825 -5.475,-2.342 -4.583,-7.954c1.171,-7.346 2.696,-13.275 4.796,-18.662m74.596,-57.229c0.471,-1.958 1.429,-3.696 2.438,-5.304c10.3,-16.362 22.217,-31.625 35.421,-45.358c7.475,-7.775 17.083,-13.704 28.567,-17.625c3.446,-1.179 6.583,-1.367 9.071,-0.546c4.575,1.517 6.742,6.279 5.938,13.071c-0.771,6.567 -3.371,12.321 -7.938,17.592c-12.817,14.796 -27.913,26.662 -46.633,39.921c-5.092,3.6 -11.142,6.708 -18.496,9.5c-0.271,0.1 -0.546,0.225 -0.829,0.354c-0.904,0.408 -1.521,0.65 -2.142,0.492c3.175,-3.604 7.033,-6.267 11.337,-9.088c8.225,-5.392 15.829,-11.254 22.179,-16.275c4.483,-3.554 8.712,-7.617 12.567,-12.087c2.517,-2.925 4.021,-6.212 4.467,-9.779c0.417,-3.321 -0.754,-5.775 -3.133,-6.562c-1.325,-0.438 -2.904,-0.329 -4.692,0.321c-2.579,0.938 -5.004,2.287 -7.342,3.596l-0.546,0.304c-9.371,5.225 -17.842,12.533 -27.463,23.687c-0.842,0.979 -1.679,1.971 -2.513,2.963c-3.146,3.733 -6.383,7.579 -10.258,10.825m1.213,6.9c3.275,-3.562 6.433,-7.263 9.5,-10.858c5.712,-6.7 11.621,-13.629 18.292,-19.617c4.342,-3.896 9.35,-7.367 15.754,-10.938c1.263,-0.704 2.608,-1.425 3.992,-1.829c0.833,-0.242 1.288,-0.171 1.483,-0.104c0.675,0.225 0.483,1.425 0.375,1.933c-0.654,2.983 -2.746,5.117 -4.963,7.375l-0.304,0.308c-7.567,7.729 -16.521,14.129 -25.179,20.317l-1.379,0.988c-4.475,3.196 -8.975,6.362 -13.471,9.533l-4.1,2.892Zm-9.062,51.55c2.288,-6.958 4.579,-13.917 6.933,-20.846c1.637,-4.8 1.637,-4.8 6.446,-3.633c5.963,1.446 11.767,3.25 17.154,4.983l0.713,0.229c4.375,1.45 4.412,1.513 3.679,6.792c-0.188,1.354 -0.5,2.787 -0.971,4.383c-4.533,15.433 -9.592,30.887 -15.05,45.925c-1.154,3.179 -2.708,6.217 -4.212,9.021c-2.442,4.575 -2.442,4.575 -7.033,3.225c-2.704,-0.796 -5.396,-1.642 -8.071,-2.525c-2.737,-0.908 -5.458,-1.858 -8.162,-2.846c-5.375,-1.958 -5.375,-1.958 -3.533,-7.725c2.113,-6.621 4.313,-13.213 6.508,-19.808l3.175,-9.55l-0.079,-0.025l2.504,-7.6Zm19.917,49.383l0.354,-0.817c0.829,-1.95 1.696,-3.879 2.563,-5.812c2.2,-4.892 4.475,-9.958 6.021,-15.287c1.342,-4.621 2.946,-9.267 4.496,-13.762c2.896,-8.371 5.892,-17.033 7.35,-26.054c0.308,-1.917 0.529,-2.908 1.871,-3.321c1.592,-0.487 3.204,-0.496 4.654,-0.017c3.104,1.025 4.913,4.037 4.504,7.5c-1.317,11.213 -2.829,22.133 -6.833,32.5l-0.5,1.45c-0.363,1.037 -0.725,2.079 -1.008,3.142c-2.35,8.962 -7.279,16.942 -12.046,24.654c-1.813,2.929 -3.554,3.417 -7.271,2.188c-0.883,-0.292 -1.842,-0.675 -2.912,-1.142c-1.138,-0.496 -1.838,-1.054 -2.067,-1.658c-0.354,-0.904 0.221,-2.196 0.825,-3.562m36.346,-50.533c0.629,-5.438 1.154,-9.338 2.225,-10.021c0.558,-0.358 1.875,-0.033 3.683,0.567l4.254,1.45l3.975,1.271c5.275,1.746 5.271,1.904 4.929,10.112c-0.746,17.996 -5.438,35.462 -14.346,53.396c-5.2,10.467 -5.2,10.467 -9.404,9.075l-3.858,-1.312c-0.767,-0.254 -1.596,-0.521 -2.5,-0.792l-2.913,-0.967c-3.154,-1.1 -6.138,-2.137 -6.496,-3.15c-0.333,-0.938 1.025,-3.233 2.833,-6.133c9.45,-15.183 15.212,-32.683 17.617,-53.496m24.675,1.787c0.071,-1.4 0.142,-2.825 0.229,-4.275c2.762,0.238 4.567,0.471 5.792,0.875c2.146,0.713 2.517,1.783 2.633,7.667c0.196,10.175 -0.713,18.417 -2.867,25.938c-2.088,7.287 -4.454,14.637 -6.742,21.742c-0.942,2.933 -1.887,5.871 -2.817,8.808c-0.804,2.529 -2.233,4.771 -3.879,7.233c-1.246,1.871 -2.458,2.367 -4.625,1.913c-1.321,-0.283 -2.446,-0.558 -3.388,-0.871c-2.225,-0.738 -2.75,-1.45 -2.95,-1.925c-0.467,-1.096 0.046,-3.054 1.721,-6.546l1.033,-2.1c7.754,-15.896 12.642,-31.296 14.942,-47.083c0.542,-3.721 0.725,-7.442 0.917,-11.375m-1.013,68.45c8.342,-19.492 16.021,-40.796 15.742,-64.479l-0.017,-0.637c-0.033,-1.062 -0.062,-1.942 0.433,-2.871c1.262,0.25 2.504,0.575 3.704,0.975c10.7,3.537 18.171,12.775 19.042,23.525c0.571,7.008 -0.571,14.083 -3.483,21.629c-2.054,5.304 -5.479,9.029 -10.171,11.062c-6.517,2.825 -11.417,6.742 -14.967,11.971c-1.904,2.796 -4.421,4.037 -7.496,3.688c-0.971,-0.108 -1.729,-0.254 -2.308,-0.446c-1.004,-0.333 -1.171,-0.708 -1.225,-0.833c-0.271,-0.592 -0.017,-1.8 0.746,-3.583m-32.829,-111.362c0.279,-0.033 0.55,-0.067 0.813,-0.117c14.846,-2.838 29.696,-5.667 44.567,-8.413c4.608,-0.85 9.204,-1.042 13.658,-0.583c1.246,0.125 2.696,0.321 4.037,0.763c0.521,0.175 1.029,0.388 1.525,0.65c1.683,0.896 1.929,1.454 1.796,2.225c-0.075,0.479 -0.362,0.983 -1.917,1.471c-4.742,1.492 -9.692,1.808 -14.363,2.004c-15.617,0.658 -31.237,1.217 -46.862,1.767c-0.504,0.017 -1.017,0.075 -1.529,0.137c-0.683,0.083 -1.337,0.162 -1.942,0.117c0.067,-0.008 0.142,-0.012 0.217,-0.021m-18.996,-1.75c-1.388,0.354 -2.729,0.696 -4.113,0.667c0.896,-0.888 2.062,-1.246 3.354,-1.642l7.175,-2.342c9.083,-2.979 18.467,-6.058 27.804,-8.708c13.258,-3.767 27.804,-5.854 44.483,-6.392c8.113,-0.254 15.321,0.7 22.021,2.917c0.692,0.229 1.379,0.471 2.062,0.729c6.129,2.308 9.421,6.396 9.775,12.154c0.3,4.817 -2.154,8.033 -8.467,11.104c-6.746,3.267 -13.675,4.812 -20.608,4.588c-7.983,-0.254 -15.971,-0.404 -23.954,-0.558c-17.483,-0.329 -35.562,-0.671 -53.275,-2.179l-0.617,-0.05c-1.067,-0.079 -2.075,-0.154 -3.058,-0.479c-0.362,-0.121 -0.7,-0.267 -1.021,-0.446c1.413,-0.438 2.742,-0.5 4.121,-0.567l9.008,-0.575c15.512,-1.017 31.546,-2.071 47.354,-2.196c5.2,-0.042 12.046,-0.258 18.904,-1.629c2.383,-0.471 5.358,-1.058 7.783,-2.958c1.804,-1.412 2.829,-3.383 2.812,-5.4c-0.017,-1.996 -1.017,-3.85 -2.804,-5.2c-1.092,-0.829 -2.354,-1.308 -3.579,-1.779l-0.925,-0.362c-0.529,-0.217 -1.058,-0.408 -1.583,-0.583c-6.921,-2.292 -13.921,-1.287 -19.942,-0.171c-11.983,2.225 -23.954,4.533 -35.925,6.842c-8.254,1.596 -16.508,3.188 -24.767,4.75c-0.671,0.129 -1.342,0.296 -2.021,0.467m-44.517,-20.258c-0.042,-0.008 -0.075,-0.021 -0.108,-0.033c-0.492,-0.162 -0.879,-0.696 -1.325,-1.321c-0.183,-0.258 -0.363,-0.504 -0.554,-0.737c-8.667,-10.629 -16.433,-21.475 -23.075,-32.242c-5.496,-8.908 -10.154,-18.521 -14.367,-27.583c-2.221,-4.767 -4.383,-10.475 -3.613,-16.662c0.296,-2.375 0.65,-4.088 2.488,-4.512c0.479,-0.108 0.942,-0.088 1.408,0.067c0.992,0.329 1.921,1.217 2.775,2.133c3.729,3.967 5.729,8.742 7.954,14.575c5.663,14.808 12.646,30.754 21.983,50.179c1.958,4.083 3.671,8.392 5.325,12.558l0.7,1.704c0.446,0.992 0.596,1.463 0.408,1.875m0.454,-15.333c-1.175,-1.087 -1.8,-2.612 -2.467,-4.208c-0.242,-0.592 -0.483,-1.171 -0.75,-1.738c-7.387,-15.608 -13.954,-29.721 -19.563,-44.325l-0.308,-0.8c-2.058,-5.363 -4.183,-10.904 -7.812,-15.617l-0.662,-0.875c-1.667,-2.217 -3.558,-4.729 -6.433,-5.679c-1.25,-0.412 -2.604,-0.504 -4.025,-0.267c-4.038,0.683 -6.679,5.967 -6.567,13.15c0.096,6.046 2.246,11.571 4.25,16.271c8.083,18.942 19.375,37.608 34.512,57.079c0.458,0.588 0.929,1.167 1.4,1.75c1.467,1.792 2.862,3.504 3.808,5.454c-1.429,-1.183 -2.854,-2.375 -4.279,-3.567c-4.071,-3.413 -8.283,-6.933 -12.583,-10.229l-1.375,-1.054c-5.017,-3.842 -10.208,-7.812 -14.658,-12.392c-13.65,-14.008 -21.292,-28.463 -23.367,-44.179c-1.583,-12.017 0.9,-23.042 7.379,-32.771c4.671,-7.004 10.8,-9.688 17.258,-7.55c2.5,0.825 5.008,2.358 7.446,4.554c3.808,3.433 7.096,7.908 10.358,14.088c6.713,12.708 11.137,26.404 13.533,41.883c0.767,4.946 1.567,9.892 2.371,14.833c0.746,4.587 1.488,9.175 2.204,13.767c0.046,0.283 0.108,0.575 0.175,0.867c0.171,0.762 0.242,1.217 0.154,1.554m-154.85,35.65c-1.108,6.204 -0.133,12.083 2.896,17.475c2.829,5.037 4.071,9.554 3.904,14.213c-0.221,6.125 2.196,10.879 6.979,13.742c1.238,0.737 1.883,1.587 2.1,2.683l7.912,2.621c0.908,-0.633 2.233,-0.233 5.087,0.688c5.517,1.775 11.017,3.583 16.517,5.404l24.038,7.979l0.021,-0.075l21.738,7.167c5.729,1.896 11.45,3.808 17.167,5.746c2.725,0.929 3.85,1.342 4.05,2.413l6.058,2.004l22.846,-69.05c1.817,-5.508 1.817,-5.508 7.267,-3.963c3.475,0.983 6.913,2.079 10.354,3.167c3.525,1.121 7.05,2.237 10.608,3.242l0.479,0.146c1.337,0.442 2.15,1.008 2.479,1.729c0.354,0.779 0.217,1.904 -0.421,3.421c-0.287,0.696 -0.512,1.408 -0.729,2.125l-0.296,0.938l-22.567,68.179l6.612,2.187c1.062,-0.692 2.654,-0.208 6.096,0.904c25.546,8.258 51.083,16.558 76.604,24.875l0.529,0.171c3.138,1.042 4.238,1.438 4.183,2.975l6.954,2.304c0.958,-0.85 2.196,-1.154 3.929,-0.946c5.125,0.625 9.662,-1.662 13.112,-6.608c2.804,-4.029 6.475,-6.938 11.542,-9.163c6.317,-2.767 10.879,-7.375 13.563,-13.688c3.892,-9.121 5.354,-18.338 4.358,-27.396c-1.217,-11.008 -7.367,-19.392 -19.375,-26.371c-2.271,-1.321 -4.521,-2.354 -6.692,-3.075l-0.721,-0.225c-7.833,-2.354 -15.683,-4.671 -23.533,-6.979c-9.662,-2.85 -19.329,-5.7 -28.975,-8.629c-3.412,-1.038 -6.812,-2.133 -10.25,-3.271c-2.787,-0.921 -10.667,-3.583 -11.779,-3.958c0.075,0.017 0.15,0.033 0.229,0.046c0.558,0.117 1.1,0.225 1.637,0.296c20.55,2.713 41.508,2.942 61.779,3.158c7.567,0.083 15.133,0.167 22.696,0.371c9.05,0.242 17.863,-1.967 26.192,-6.567c5.017,-2.771 10.671,-7.013 9.904,-15.296c-0.712,-7.688 -4.712,-13.258 -11.575,-16.113c-1.579,-0.658 -3.175,-1.254 -4.783,-1.787c-7.954,-2.633 -16.317,-3.708 -24.846,-3.192c-20.683,1.25 -37.629,4.308 -53.333,9.621c-1.688,0.575 -3.425,1.004 -5.154,1.408c-0.004,-0.004 -0.046,-0.021 -0.063,-0.021c0.758,-1.554 2.171,-2.575 3.654,-3.642c0.529,-0.379 1.054,-0.754 1.546,-1.154l2.85,-2.3c10.088,-8.125 20.513,-16.525 29.383,-26.483c5.2,-5.842 8.683,-12.521 10.637,-20.417c1.85,-7.471 0.217,-13.888 -4.717,-18.554c-1.567,-1.487 -3.346,-2.563 -5.279,-3.204c-3.487,-1.154 -7.471,-0.938 -12.167,0.667c-14.404,4.929 -25.517,11.917 -33.975,21.35c-14.258,15.908 -29.037,33.171 -39.358,53.787l-0.354,0.758c-0.463,1.037 -0.787,1.692 -1.525,2.037c-0.883,-0.392 -1.062,-1.088 -1.3,-2.55c-0.071,-0.454 -0.142,-0.896 -0.246,-1.317c-3.738,-14.975 -7.888,-32.771 -10.329,-51.267c-2.296,-17.358 -7.604,-33.429 -15.788,-47.754c-2.863,-5.017 -6.967,-11.358 -13.333,-15.879c-2.183,-1.55 -4.408,-2.708 -6.621,-3.438c-7.533,-2.496 -14.879,-0.017 -20.675,6.975c-6.829,8.233 -10.483,18.475 -10.875,30.438c-0.342,10.658 2.058,20.975 7.35,31.542c7.221,14.412 17.858,26.596 32.5,37.258c6.146,4.471 11.9,9.638 17.467,14.633c2.471,2.221 4.942,4.438 7.45,6.608c2.992,2.579 5.125,5.225 6.533,8.092c0.333,0.683 0.4,1.287 0.171,1.613c-0.246,0.354 -0.887,0.517 -1.717,0.429c-1.008,-0.104 -2.021,-0.383 -3.092,-0.683l-1.3,-0.35c-7.496,-1.875 -15.071,-4.075 -22.517,-6.542c-11.996,-3.967 -24.167,-8.792 -36.175,-14.333c-10.837,-5.008 -22.187,-9.325 -33.167,-13.504l-7.567,-2.892c-0.583,-0.221 -1.179,-0.437 -1.775,-0.633c-3.121,-1.033 -6.479,-1.737 -9.967,-2.088c-16.221,-1.646 -28.354,4.404 -36.054,17.975c-2.596,4.575 -5.738,10.729 -7,17.796" style="fill:#0495cb;fill-rule:nonzero;"/><path d="M156.662,257.636c-1.358,1.492 -3.942,1.479 -5.854,1.633c-2.35,0.196 -4.771,0.133 -7.129,0.171c-4.825,0.087 -9.658,0.004 -14.488,-0.008c-4.833,-0.012 -9.667,-0.021 -14.5,-0.033c-4.921,-0.012 -10.454,0.408 -14.829,-2.254c-1,-0.604 -1.708,-1.525 -1.092,-2.612c0.85,-1.488 3.783,-1.738 5.346,-1.883c2.367,-0.217 4.812,-0.079 7.187,-0.088l13.938,-0.033c4.65,-0.013 9.313,-0.117 13.958,-0.008c4.867,0.112 10.812,-0.562 15.287,1.646c1.033,0.508 3.5,2.017 2.175,3.471" style="fill:#0495cb;fill-rule:nonzero;"/><path d="M156.909,225.491c-3.317,2.596 -9.213,-0.042 -12.821,-0.929c-4.492,-1.104 -9.033,-2.588 -13.167,-4.683c-1.871,-0.946 -3.571,-2 -5.529,-2.767c-2.038,-0.8 -4.042,-1.571 -6.021,-2.504c-1.704,-0.804 -3.542,-1.204 -5.325,-1.792c-2.179,-0.717 -3.4,-1.446 -4.438,-3.417c-0.354,-0.683 0.317,-1.171 0.942,-1.217c0.796,-0.054 1.487,-0.329 2.312,-0.3c1.054,0.037 2.096,0.4 3.108,0.65c1.938,0.475 3.908,0.833 5.838,1.338c4.137,1.083 8.346,1.992 12.304,3.642c3.521,1.471 6.921,2.887 10.579,4.017c4.204,1.296 8.088,2.562 11.804,4.942c1.15,0.737 1.579,2.108 0.412,3.021" style="fill:#0495cb;fill-rule:nonzero;"/></g></svg>