<?xml version="1.0" encoding="UTF-8" standalone="no"?><!DOCTYPE svg PUBLIC "-//W3C//DTD SVG 1.1//EN" "http://www.w3.org/Graphics/SVG/1.1/DTD/svg11.dtd"><svg width="100%" height="100%" viewBox="0 0 859 522" version="1.1" xmlns="http://www.w3.org/2000/svg" xmlns:xlink="http://www.w3.org/1999/xlink" xml:space="preserve" xmlns:serif="http://www.serif.com/" style="fill-rule:evenodd;clip-rule:evenodd;stroke-linejoin:round;stroke-miterlimit:2;"><g><path d="M830.959,309.094c1.371,-0.225 2.5,-1.375 2.288,-3.496c-0.267,-2.658 -1.121,-5.142 -4.179,-5.6c-2.133,-0.317 -3.263,1.154 -3.5,3.162c-0.346,2.938 1.975,5.812 5.392,5.933m-90.983,-77.875c-0.183,-2.613 -1.25,-4.754 -4.146,-4.625c-2.808,0.125 -4.963,1.721 -5.283,4.775c-0.283,2.671 2.833,5.25 5.812,5.004c3.242,-0.267 3.3,-2.783 3.617,-5.154m-5.4,-78.45c2.875,-0.208 5.15,-2.783 4.938,-5.846c-0.171,-2.408 -0.8,-4.771 -3.858,-4.771c-2.204,-0.004 -6.317,4.142 -6.308,6.025c0.008,2.467 2.646,4.779 5.229,4.592m-647.862,145.225c-5.229,-10.287 -13.004,-18.367 -22.425,-24.925c-2.396,-1.667 -4.858,-3.979 -8.325,-2.546c1.1,7.7 17.592,22.958 30.75,27.471m-41.929,36.979c-2.525,-4.587 -4.808,-8.087 -5.029,-12.342c-0.092,-1.721 -1.317,-3.033 -2.904,-3.296c-6.692,-1.104 -13.429,-1.829 -19.971,0.783c-2.758,1.1 -5.183,2.825 -5.171,6.158c0.008,3.146 2.704,4.296 5.042,5.338c8.521,3.779 17.442,4.579 28.033,3.358m-38.612,-37.246c0.192,3.404 2.412,4.542 4.379,5.633c8.704,4.825 17.958,8.133 27.717,10.179c4.829,1.008 8.421,-0.708 12.012,-3.567c-9.079,-9.2 -13.583,-12.696 -19.104,-12.933c-8.296,-0.35 -16.804,-3.358 -25.004,0.688m809.675,-234.733c-8.129,-2.558 -12.504,2.008 -16.758,6.529c-1.942,2.062 -3.171,4.771 -5.508,6.517c-1.046,0.779 -2.196,1.583 -3.508,0.579c-1.433,-1.092 -1.637,-2.504 -0.875,-4.137c1.125,-2.408 3.017,-4.208 4.767,-6.117c2.433,-2.654 3.558,-5.729 2.817,-9.3c-0.267,-1.271 -0.925,-2.425 -2.496,-2.571c-3.375,-0.317 -12.717,6.763 -12.583,10.337c0.288,7.646 0.896,15.371 5.171,22.862c11.104,-6.954 23.225,-11.538 28.975,-24.7m-12.958,-4.267c11.758,-1.029 18.083,-9.383 25.062,-16.6c3.258,-3.363 5.938,-7.275 7.896,-11.588c0.958,-2.108 2.35,-4.533 0.4,-6.517c-1.742,-1.771 -3.908,-0.012 -5.825,0.513c-0.987,0.267 -1.9,0.854 -2.8,1.379c-9.85,5.758 -17.712,13.633 -24.321,22.854c-2.192,3.058 -2.492,6.167 -0.413,9.958m-448.508,244.817c-7.417,0.058 -13.467,1.633 -19.583,2.592c-5.992,0.938 -6.433,1.729 -3.304,6.833c6,9.775 12.921,18.917 19.929,27.983c0.437,0.562 1.096,1.204 2.921,-0.087c-0.604,-11.696 -0.558,-24.062 0.038,-37.321m421.683,-225.396c1.45,-3.887 1.463,-6.638 -1.15,-8.562c-2.471,-1.821 -2.696,-4.246 -2.892,-6.871c-0.888,-11.892 -7.267,-20.962 -15.208,-29.15c-1.9,-1.958 -4.038,-4.967 -7.2,-3.179c-2.621,1.483 -1.254,4.721 -1.383,7.229c-0.013,0.258 0.021,0.525 0.067,0.779c3.288,17.188 14.671,28.55 27.767,39.754m36.621,1.083c13.125,-3.675 25.629,-7.233 34.821,-17.717c0.679,-0.775 1.242,-1.683 1.712,-2.6c3.004,-5.921 0.792,-9.671 -5.779,-9.796c-5.921,-0.113 -11.125,2.279 -16.346,4.683c-4.038,1.858 -7.046,4.133 -6.779,9.296c0.183,3.5 -2.054,6.337 -3.896,9.192c-1.229,1.904 -3.575,3.117 -3.733,6.942m-650.004,332.767c10.108,0.017 15.3,-5.388 15.596,-15.821c0.292,-10.488 -6.154,-15.346 -16.242,-12.271c-3.058,0.929 -5.696,2.496 -7.912,4.817c-2.167,2.258 -3.029,4.667 -1.813,7.796c1.408,3.633 2.6,7.367 3.708,11.108c1.083,3.654 3.408,5.021 6.662,4.371m47.15,-91.75l0,0.142c-2.337,0 -4.679,-0.087 -7.012,0.017c-7.5,0.342 -10.171,3.1 -10.312,10.533c-0.125,6.642 3.854,11.329 10.479,12.396c2.867,0.462 5.717,0.208 8.533,-0.267c8.183,-1.388 13.592,-8.817 12.471,-16.992c-0.629,-4.583 -2.487,-6.238 -7.154,-6.183c-2.333,0.025 -4.671,0.229 -7.004,0.354m-148.237,-29.879c-1.608,-3.85 -4.567,-5.742 -6.6,-8.333c-7.858,-10.021 -18.646,-15.575 -30.525,-19.083c-3.496,-1.029 -8.292,-2.596 -10.546,1.783c-1.996,3.875 1.513,6.846 4.158,9.217c12.121,10.871 25.65,18.321 43.513,16.417m719.808,-236.158c4.867,-2.121 8.287,-4.087 11.971,-5.075c3.312,-0.888 4.721,-2.779 5.371,-5.775c2.183,-10.033 2.713,-20.092 0.346,-30.167c-0.413,-1.754 -1,-3.533 -1.871,-5.1c-2.15,-3.867 -5.092,-4.108 -8.008,-0.696c-1,1.167 -1.783,2.571 -2.442,3.971c-6.304,13.375 -6.633,27.458 -5.367,42.842m-656.642,268.163c0.163,3.762 1.263,6.1 2.279,8.446c2.892,6.667 6.083,13.221 8.629,20.017c2.058,5.488 4.217,6.942 10.754,3.033c2.971,-1.771 5.012,-4.542 6.121,-7.842c2.129,-6.313 2.158,-12.742 0.825,-19.221c-0.608,-2.954 -2.442,-4.538 -5.433,-4.575c-7.487,-0.092 -14.996,-0.646 -23.175,0.142m-68.35,-17.625c5.071,3.354 10.717,5.229 16.446,6.925c1.737,0.517 3.467,1.079 5.146,1.754c1.3,0.521 2.192,1.6 1.9,3.025c-0.375,1.854 -1.937,2.433 -3.583,2.154c-2.546,-0.438 -5.096,-1 -7.554,-1.788c-4.837,-1.55 -9.771,-1.296 -14.696,-0.958c-4.142,0.279 -6.7,3.263 -7.942,6.613c-1.408,3.804 1.65,6.192 4.521,8.171c3.621,2.496 7.275,2.971 11.754,1.771c9.45,-2.525 16.75,-7.967 23.388,-14.779c2.242,-2.3 2.35,-4.104 0.558,-6.758c-6.583,-9.746 -16.575,-12.296 -27.042,-14.175c-1.125,3.125 -1.975,5.492 -2.896,8.046m178.7,92.362c3.012,0.125 5.079,-1.429 6.083,-4.596c1.579,-4.971 2.983,-10.021 4.946,-14.838c2.1,-5.15 0.621,-8.871 -3.117,-12.583c-3.921,-3.896 -8.3,-5.342 -13.521,-3.938c-7.287,1.962 -13.342,11.887 -12.292,19.825c1.133,8.575 9.525,16.275 17.9,16.129m142.4,-21.562c2.392,-1.996 1.658,-4.225 1.65,-6.163c-0.058,-12.5 -0.05,-24.979 1.15,-37.458c0.917,-9.575 0.125,-19.258 1.363,-28.858c0.542,-4.212 -0.625,-5.154 -4.925,-4.575c-3.854,0.517 -7.675,1.388 -11.475,2.263c-6.183,1.429 -6.238,1.479 -6.579,7.558c-0.583,10.408 -0.083,20.792 0.321,31.208c0.388,9.904 3.063,18.304 9.704,25.562c3.062,3.35 4.896,7.825 8.792,10.462m70.629,91.717c6.942,-12.654 43.129,-187.262 41.271,-198.979c-7.446,1.196 -14.375,4.25 -21.617,6.008c-4.513,1.096 -5.617,3.558 -5.308,7.933c0.383,5.446 0.333,10.983 -0.162,16.421c-2.833,30.929 -5.933,61.829 -8.783,92.754c-1.675,18.187 -3.146,36.396 -4.496,54.612c-0.5,6.708 -2.717,13.342 -0.904,21.25m194.558,-39.646c2.221,-1.392 2.508,-3.783 3.021,-6.025c4.779,-20.883 7.083,-42.158 9.975,-63.342c0.479,-3.533 -0.992,-4.392 -4.471,-4.254c-26.275,1.05 -51.35,-3.583 -74.675,-16.246c-1.396,-0.758 -2.825,-2.621 -4.817,-0.971c5.275,10.846 64.542,86.712 70.967,90.837m-227.363,-137.196c-8.562,-0.158 -15.35,2.738 -22.354,4.383c-6.617,1.558 -6.562,1.742 -6.929,8.15c-0.196,3.392 -0.521,6.771 -0.633,10.163c-0.667,20.6 -2.571,41.162 -1.825,61.812c0.271,7.475 1.779,14.258 6.525,20.417c5.567,7.225 10.404,15.012 15.642,22.496c1.454,2.075 2.567,4.562 5.5,5.683c2.908,-3.042 2.221,-6.867 2.05,-10.3c-1.438,-28.696 -1.112,-57.413 -1.104,-86.125c0,-4.962 0.167,-9.9 0.808,-14.842c0.9,-6.946 1.496,-13.933 2.321,-21.838m25.867,178.146c1.237,-2.354 1.529,-4.642 1.729,-6.983c2.188,-25.712 4.35,-51.425 6.617,-77.129c2.471,-28.042 5.117,-56.071 7.512,-84.121c0.483,-5.7 0.421,-11.479 0.158,-17.2c-0.196,-4.288 -1.229,-4.95 -5.5,-3.825c-9.067,2.379 -18.013,5.246 -27.121,7.454c-4.371,1.062 -4.879,3.95 -5.296,7.479c-1.771,15.037 -2.5,30.113 -2.692,45.262c-0.379,29.742 1.654,59.462 0.65,89.2c-0.129,3.796 0.767,7.067 2.921,10.271c5.667,8.446 11.033,17.087 16.579,25.612c0.958,1.471 1.546,3.383 4.442,3.979m88.375,-195.292c0.333,1.204 0.375,2.046 0.767,2.658c9.304,14.504 18.654,28.979 27.971,43.471c2.037,3.171 5.021,5.212 8.046,7.308c16.425,11.392 34.8,17.592 54.329,20.958c9.85,1.7 19.725,2.196 29.642,1.446c6.033,-0.458 7.008,-1.692 7.683,-7.729c0.438,-3.892 1.008,-7.783 1.129,-11.688c0.35,-11.225 0.633,-22.45 0.667,-33.679c0.017,-4.917 -0.675,-5.429 -5.625,-4.708c-4.683,0.688 -9.363,0.742 -14.058,0.783c-13.588,0.117 -27.133,-0.625 -40.692,-1.517c-21.825,-1.438 -42.887,-5.671 -62.658,-15.379c-2.008,-0.988 -3.892,-2.729 -7.2,-1.925m-10.988,-15.562c1.304,3.721 3.833,4.746 6.054,6.017c10.9,6.221 22.242,11.4 34.217,15.304c14.296,4.662 29.087,5.971 43.896,7.092c16.15,1.225 32.354,1.096 48.513,0.137c8.604,-0.508 9.467,-1.571 9.692,-9c0.763,-25.304 2.163,-50.592 1.542,-75.921c-0.067,-2.779 0.512,-5.821 -3.054,-8.767c-45.025,24.796 -93.479,43.254 -140.858,65.137m-252.496,58.021c-13.704,0.254 -25.933,2.163 -37.908,3.454c-0.813,1.871 -0.254,3.092 -0.042,4.363c3.404,20.158 -11.371,28.154 -26.483,25.342c-10.75,-2.004 -15.729,-10.192 -13.462,-20.854c0.4,-1.887 2.221,-3.654 0.575,-5.921c-9.079,0 -18.163,-0.008 -27.25,0.004c-3.288,0.008 -4.896,1.421 -4.013,4.892c0.388,1.517 0.875,3.029 1.038,4.571c1.533,14.217 -2.962,25.729 -16.508,30c-0.396,0.125 -0.629,0.762 -1.358,1.7c2.517,6.892 4.033,14.525 8.058,21.104c3,-0.358 4.467,-2.463 6.529,-3.517c6.083,-3.113 12.354,-4.021 18.883,-1.533c4.188,1.596 7.162,4.508 7.996,8.917c0.967,5.146 1.121,10.421 -0.271,15.533c-2.042,7.508 -6.942,12.038 -14.729,13.312c-2.004,0.325 -4.213,-0.396 -6.771,1.725c10.525,30.5 21.146,61.287 31.883,92.4c2.992,-1.808 3.542,-4.204 4.521,-6.271c12.167,-25.704 23.304,-51.837 32.621,-78.725c2.05,-5.912 4.288,-11.762 6.204,-17.717c1.533,-4.779 1.258,-5.046 -3.725,-6.388c-0.75,-0.204 -1.558,-0.208 -2.308,-0.421c-9.25,-2.658 -16.287,-10.967 -17.183,-20.254c-0.921,-9.579 4.029,-18.896 12.475,-23.479c6.754,-3.667 12.721,-2.971 18.779,2.058c1.717,1.425 2.792,3.946 6.4,3.546c5.171,-15.417 10.433,-31.092 16.05,-47.842m470.454,-73.037c9.038,10.367 75.621,60.267 84.171,62.833c0.021,-5.083 1.408,-9.642 7.071,-10.608c3.763,-0.642 6.404,1.625 8.329,4.7c3.962,6.342 0.067,10.617 -5.283,14.958c7.746,4.996 13.933,10.392 21.296,14.062c2.175,-3.288 0.771,-5.871 0.267,-8.271c-4.742,-22.467 -9.75,-44.863 -17.154,-66.654c-16.3,-47.967 -36.825,-94.313 -54.175,-141.871c-0.763,-2.087 -1.212,-4.612 -4.529,-5.754c-12.471,10.758 -25.829,20.992 -37.404,33.075c5.413,7.846 5.633,11.971 1.308,15.871c-1.837,1.658 -3.992,2.133 -6.433,2.379c-4.954,0.5 -6.963,-3.871 -9.7,-5.854c-18.75,12.733 -36.988,25.112 -55.225,37.496c3.562,4.875 48.2,40.321 54.3,43.013c1.958,-2.604 2.683,-6.104 5.546,-8.246c5.458,-4.087 10.746,-3.708 14.325,1.325c3.421,4.817 2.333,10.833 -2.6,14.421c-1.229,0.896 -3.054,0.892 -4.108,3.125m-68.158,-45c-2.167,2.963 -1.546,5.658 -1.512,8.179c0.504,41.55 -1.858,83.021 -3.45,124.508c-0.712,18.517 -4.367,36.783 -6.85,55.137c-1.538,11.371 -3.654,22.667 -5.608,33.979c-0.667,3.858 -1.663,7.679 -3.479,11.179c-2.45,4.717 -4.679,5.146 -8.35,1.504c-2.4,-2.383 -4.608,-4.996 -6.696,-7.667c-26.208,-33.537 -52.996,-66.65 -77.221,-101.683c-9.796,-14.167 -18.692,-28.954 -28.108,-43.383c-3.567,-5.462 -7.575,-10.642 -11.138,-16.104c-2.112,-3.237 -4.612,-3.837 -7.975,-2.375c-1.671,0.729 -3.371,1.458 -5.133,1.892c-5.029,1.229 -6.671,4.35 -7.421,9.471c-1.933,13.154 -4.6,26.212 -7.3,39.242c-4.554,21.971 -7.525,44.242 -12.629,66.108c-7.35,31.508 -14.554,63.05 -21.896,94.558c-0.763,3.283 -1.721,6.596 -3.137,9.642c-1.971,4.246 -4.704,4.579 -7.808,1.242c-1.233,-1.325 -2.242,-2.888 -3.2,-4.442c-28.383,-46.058 -59.762,-90.058 -91.667,-133.704c-8,-10.95 -16.617,-21.517 -22.596,-33.821c-1.217,-2.5 -2.967,-3.267 -5.679,-2.883c-13.167,1.858 -26.321,3.875 -39.542,5.233c-4.942,0.508 -7.642,2.7 -9.208,6.958c-3.967,10.771 -8.383,21.408 -11.725,32.375c-10.733,35.221 -22.979,69.9 -35.983,104.329c-7.667,20.296 -17.646,39.567 -26.275,59.433c-0.208,0.479 -0.383,0.979 -0.65,1.425c-0.929,1.529 -1.55,3.538 -3.775,3.513c-2.725,-0.033 -2.992,-2.525 -3.863,-4.333c-0.333,-0.696 -0.458,-1.492 -0.688,-2.242c-15.971,-51.908 -35.687,-102.512 -53.479,-153.787c-4.179,-12.058 -9.733,-23.642 -14.554,-35.479c-1.129,-2.767 -2.854,-4.083 -5.887,-4.113c-3.913,-0.033 -7.829,-0.329 -11.733,-0.629c-2.442,-0.188 -4.792,0.154 -6.725,1.575c-6.533,4.808 -14.325,7.538 -20.646,12.704c-3.071,2.508 -6.612,4.342 -10.671,4.454c-10.942,0.304 -21.821,2.075 -32.821,1.071c-5.796,-0.529 -11.342,-1.825 -16.583,-4.238c-10.812,-4.971 -11.567,-13.154 -1.963,-20.137c1.208,-0.875 2.892,-1.246 3.288,-3.046c-1.179,-2.337 -3.775,-2.617 -5.679,-3.9c-2.375,-1.596 -4.883,-3.038 -7.071,-4.863c-2.267,-1.892 -3.996,-4.379 -3.025,-7.542c1.021,-3.337 3.775,-5.042 7.033,-5.454c3.35,-0.425 6.771,-0.337 10.163,-0.387c3.887,-0.054 7.771,-0.012 11.7,-0.012c0.467,-3.133 -2.004,-3.638 -3.529,-4.675c-4.325,-2.946 -8.658,-5.863 -12.212,-9.754c-2.133,-2.329 -3.958,-4.817 -4.413,-8.113c-0.933,-6.696 2.154,-10.279 9.154,-10.454c7.604,-0.196 14.242,2.858 20.717,6.325c3.2,1.717 6.283,3.642 9.325,5.417c6.738,-6.479 9.571,-7.067 17.067,-2.158c15.717,10.296 28.237,23.283 32.575,42.329c1.033,4.546 3.654,5.838 7.758,5.921c11.487,0.229 22.975,0.667 34.467,0.812c27.433,0.346 54.788,-1.067 82.154,-3.042c23.7,-1.717 47.3,-4.338 70.85,-7.213c43.262,-5.279 86.104,-13.012 128.229,-24.483c40.05,-10.908 79.992,-22.192 117.888,-39.404c38.242,-17.367 76.858,-33.883 114.317,-53.037c31.929,-16.329 60.25,-37.429 87.442,-60.35c11.975,-10.1 23.612,-20.604 35.375,-30.95c1.925,-1.696 4.304,-3.037 5.042,-5.808c-0.917,-2.954 -3.55,-4.425 -5.558,-6.417c-5.746,-5.704 -11.742,-11.167 -17.254,-17.083c-7.021,-7.533 -12.421,-16.088 -14.879,-26.3c-0.933,-3.879 -1.263,-7.783 -0.746,-11.658c0.879,-6.65 6.271,-9.242 11.975,-5.708c5.413,3.354 9.271,8.371 12.958,13.467c1.804,2.496 3.538,5.046 5.483,7.821c3.171,-2.092 2.087,-4.938 2.167,-7.262c0.321,-9.217 1.962,-18.154 5.317,-26.742c1.329,-3.404 2.95,-6.725 5.575,-9.367c4.85,-4.883 10.079,-4.342 13.529,1.608c3.646,6.296 4.042,13.396 4.433,20.458c0.225,4.029 -0.629,8.15 0.363,12.175c3.304,-0.113 4.425,-2.471 6.075,-3.967c4.663,-4.233 9.613,-8.063 15.229,-10.929c2.075,-1.054 4.292,-1.996 6.554,-2.471c6.692,-1.412 9.412,1.454 7.825,8.217c-0.904,3.85 -3.017,7.192 -5.062,10.546c-1.317,2.154 -3.675,3.808 -3.517,7.062c4.392,-0.258 8.742,-0.825 13.071,-0.696c7.504,0.221 11.229,5.683 9.054,12.842c-1.167,3.838 -3.496,6.975 -6.242,9.829c-5.933,6.179 -13.279,10.037 -21.229,12.887c-11.783,4.225 -23.587,8.387 -35.125,13.283c-2.525,1.071 -4.454,2.479 -6.354,4.254c-1.975,1.842 -2.296,3.667 -1.296,6.271c7.762,20.221 14.954,40.671 23.137,60.713c12.742,31.188 24.45,62.75 35.246,94.637c6.862,20.283 11.158,41.304 15.479,62.267c0.625,3.042 0.904,6.242 0.746,9.338c-0.196,3.904 -2.325,5.087 -5.825,3.292c-3.004,-1.542 -5.767,-3.567 -8.567,-5.483c-40.079,-27.475 -79.079,-56.387 -116.854,-86.971c-16.846,-13.637 -34.071,-26.8 -51.154,-40.146c-2.217,-1.733 -4.279,-3.796 -7.542,-4.617" style="fill:#0495cb;fill-rule:nonzero;"/><path d="M780.324,233.908c2.654,-0.346 3.354,-2.05 2.925,-4.392c-0.525,-2.862 -1.312,-5.837 -4.971,-5.671c-2.817,0.129 -3.737,2.375 -3.558,4.963c0.217,3.067 2.779,5.333 5.604,5.1m-1.962,-14.758c5.4,-0.088 8.962,4.092 8.913,10.45c-0.042,5.208 -3.025,8.633 -7.775,8.925c-4.762,0.296 -9.629,-4.808 -9.754,-10.225c-0.113,-4.929 3.788,-9.075 8.617,-9.15" style="fill:#0495cb;fill-rule:nonzero;"/><path d="M773.051,169.745c-0.304,-1.6 -0.933,-2.904 -2.842,-2.954c-2.392,-0.062 -4.754,2.621 -4.408,5.133c0.217,1.596 1.038,2.9 2.821,3.054c2.171,0.188 4.587,-2.742 4.429,-5.233m4.708,0.892c-0.029,5.246 -4.371,9.846 -9.254,9.8c-4.117,-0.042 -8.137,-4.517 -8.108,-9.029c0.025,-4.537 4.992,-9.642 9.583,-9.863c4.129,-0.192 7.808,4.104 7.779,9.092" style="fill:#0495cb;fill-rule:nonzero;"/><path d="M694.187,187.503c-2.192,0.408 -3.133,1.867 -2.954,3.817c0.196,2.167 1.233,4.096 3.771,3.858c2.221,-0.208 3.875,-1.558 3.337,-4.092c-0.45,-2.121 -1.775,-3.608 -4.154,-3.583m-0.283,-4.6c5.296,-0.175 8.596,3.117 8.663,8.642c0.062,4.992 -3.812,9.279 -8.438,9.338c-4.388,0.05 -8.192,-4.358 -8.238,-9.546c-0.042,-5.15 2.921,-8.267 8.013,-8.433" style="fill:#0495cb;fill-rule:nonzero;"/><path d="M741.627,195.58c-0.258,-3.417 -2.558,-5.642 -5.054,-5.217c-2.337,0.4 -2.779,2.183 -2.525,4.1c0.337,2.571 1.679,4.404 4.554,4.333c2.3,-0.054 3.075,-1.558 3.025,-3.217m-4.517,7.688c-4.654,-0.133 -8.396,-4.338 -8.413,-9.458c-0.013,-4.95 3.5,-8.7 8.1,-8.642c4.925,0.058 9.696,5.296 9.571,10.504c-0.096,4.158 -4.454,7.733 -9.258,7.596" style="fill:#0495cb;fill-rule:nonzero;"/><path d="M811.274,216.431c-0.013,-3.408 -2.346,-6.221 -4.979,-6.154c-2.679,0.067 -4.338,1.475 -4.592,4.204c-0.288,3.046 2.65,6.475 5.471,6.308c2.833,-0.171 3.879,-2.117 4.1,-4.358m-4.071,8.146c-5.375,0.208 -9.737,-4.104 -9.879,-9.758c-0.121,-4.938 3.671,-9.079 8.508,-9.304c4.479,-0.204 9.296,5.146 9.513,10.575c0.192,4.742 -3.221,8.296 -8.142,8.487" style="fill:#0495cb;fill-rule:nonzero;"/><path d="M780.153,260.271c-0.267,-3.458 -2.817,-6.004 -5.062,-5.488c-2.804,0.65 -3.612,2.812 -3.383,5.354c0.204,2.279 1.342,4.196 3.925,3.833c2.317,-0.325 4.658,-1.188 4.521,-3.7m4.383,0.721c-0.1,4.421 -4.45,7.696 -9.958,7.508c-4.471,-0.15 -7.5,-3.892 -7.408,-9.15c0.096,-5.342 3.65,-9.167 8.513,-9.158c4.875,0.008 8.992,5.029 8.854,10.8" style="fill:#0495cb;fill-rule:nonzero;"/><path d="M821.717,270.998c0.246,-2.913 -2.375,-6.375 -4.796,-6.158c-2.512,0.225 -4.25,1.675 -4.654,4.333c-0.458,2.996 1.8,5.921 4.683,5.758c2.492,-0.142 4.362,-1.363 4.767,-3.933m4.825,-0.167c0.017,4.533 -3.083,7.562 -7.875,7.7c-6.488,0.183 -10.429,-3.071 -10.554,-8.713c-0.108,-4.908 4.387,-9.683 9.142,-9.708c4.529,-0.017 9.267,5.446 9.288,10.721" style="fill:#0495cb;fill-rule:nonzero;"/><path d="M775.491,132.547c-0.288,-2.546 -1.025,-5.008 -4.237,-5.233c-2.363,-0.163 -3.921,1.212 -4.033,3.608c-0.133,2.871 1.1,5.037 4.225,5.254c2.279,0.158 3.933,-0.883 4.046,-3.629m4.129,-1.146c0.188,5.067 -3.571,9.075 -8.588,9.167c-4.688,0.083 -7.954,-3.35 -8.179,-8.592c-0.237,-5.608 2.921,-9.454 7.929,-9.654c4.646,-0.183 8.646,3.925 8.838,9.079" style="fill:#0495cb;fill-rule:nonzero;"/><path d="M182.518,439.963c0.029,8.254 5.358,14.825 11.842,14.6c6.467,-0.225 14.408,-6.812 14.4,-11.946c-0.013,-8.271 -6.846,-16.021 -14.021,-15.904c-7.271,0.121 -12.246,5.513 -12.221,13.25m-5.479,0.025c-0.021,-10.933 7.35,-18.604 17.842,-18.554c9.483,0.042 17.533,9.329 17.596,20.304c0.054,9.162 -9.208,18.058 -18.954,18.204c-9.246,0.142 -16.458,-8.592 -16.483,-19.954" style="fill:#0495cb;fill-rule:nonzero;"/></g></svg>