<?xml version="1.0" encoding="UTF-8" standalone="no"?><!DOCTYPE svg PUBLIC "-//W3C//DTD SVG 1.1//EN" "http://www.w3.org/Graphics/SVG/1.1/DTD/svg11.dtd"><svg width="100%" height="100%" viewBox="0 0 84 71" version="1.1" xmlns="http://www.w3.org/2000/svg" xmlns:xlink="http://www.w3.org/1999/xlink" xml:space="preserve" xmlns:serif="http://www.serif.com/" style="fill-rule:evenodd;clip-rule:evenodd;stroke-linejoin:round;stroke-miterlimit:2;"><path d="M72.841,15.139c10.683,11.45 11.979,24.396 10.483,38.062c-0.237,2.2 -0.942,4.446 -3.517,4.392c-3.217,-0.071 -3.321,-2.762 -3.271,-5.183c0.037,-2.083 0.225,-4.167 0.354,-6.25c0.858,-13.992 -4.304,-25.546 -14.562,-34.804c-11.354,-10.242 -24.596,-9.175 -37.546,-4.521c-12.421,4.462 -19.954,13.454 -21.333,27.296c-1.717,17.221 16.692,30.213 27.513,30.9c7.746,0.487 13.667,-3.296 17.904,-9.35c4.242,-6.062 2.058,-14.562 -4.279,-18.454c-3.329,-2.042 -6.821,-2.562 -10.288,-0.188c-0.646,0.442 -1.271,0.921 -1.887,1.4c-1.808,1.408 -3.958,2.225 -5.567,0.258c-1.883,-2.312 -0.296,-4.288 1.513,-6.054c4.062,-3.979 8.892,-5.471 14.354,-4.125c7.467,1.842 12.313,7.096 14.621,13.975c2.367,7.067 0.817,14.029 -4.479,19.617c-7.933,8.375 -20.367,10.675 -30.983,5.963c-17.362,-7.708 -25.508,-23.996 -20.329,-41.513c3.821,-12.917 13.558,-20.462 25.746,-24.096c17.954,-5.35 34.154,-2.367 45.554,12.675" style="fill:#0495cb;fill-rule:nonzero;"/></svg>