<?xml version="1.0" encoding="UTF-8" standalone="no"?><!DOCTYPE svg PUBLIC "-//W3C//DTD SVG 1.1//EN" "http://www.w3.org/Graphics/SVG/1.1/DTD/svg11.dtd"><svg width="100%" height="100%" viewBox="0 0 124 124" version="1.1" xmlns="http://www.w3.org/2000/svg" xmlns:xlink="http://www.w3.org/1999/xlink" xml:space="preserve" xmlns:serif="http://www.serif.com/" style="fill-rule:evenodd;clip-rule:evenodd;stroke-linejoin:round;stroke-miterlimit:2;"><path d="M54.222,92.736c0.033,7.896 3.154,9.883 10.233,6.492c0.933,-0.446 1.846,-0.958 2.704,-1.533c13.671,-9.225 19.654,-23.017 22.571,-38.504c0.704,-3.729 -0.517,-4.483 -4.408,-3.796c-16.346,2.896 -31.167,20.696 -31.1,37.342m-2.271,-59.158c-0.029,-0.646 0.008,-2.742 -0.25,-4.8c-0.629,-5.025 -1.65,-5.65 -6.642,-4.346c-13.742,3.592 -24.596,15.583 -26.508,29.7c-0.7,5.158 -1.379,11.05 3.75,14.242c5.35,3.329 10.492,0.429 15.079,-2.879c1.05,-0.758 2.017,-1.65 2.942,-2.558c7.825,-7.658 11.933,-16.879 11.629,-29.358m-51.021,-11.421c-2.029,-2.692 -0.313,-5.254 1.096,-7.517c5.158,-8.279 12.975,-12.804 22.388,-14.188c12.7,-1.862 22.55,1.842 27.992,14.583c1.333,3.117 3.346,4.329 6.625,4.204c4.171,-0.158 8.3,0.054 12.379,1.329c11.4,3.571 18.812,10.767 21.433,22.625c1.521,6.892 1.583,6.875 8.137,7.446c12.142,1.054 19.654,7.808 21.517,20.004c2.875,18.854 -1.558,35.738 -14.458,50.088c-1.312,1.462 -2.379,3.6 -5.008,2.8c-1.717,-1.75 -0.042,-2.913 0.771,-4.05c2.425,-3.392 5.071,-6.629 7.487,-10.029c8.779,-12.342 9.467,-26.342 7.358,-40.529c-1.429,-9.65 -9.167,-14.908 -19.183,-14.833c-3.667,0.029 -5.708,0.971 -6.333,5.037c-1.275,8.3 -4.154,16.15 -8.146,23.554c-3.904,7.242 -9.138,13.35 -16.075,17.833c-2.167,1.4 -4.571,2.592 -7.029,3.346c-5.604,1.721 -9.317,-0.567 -10.167,-6.262c-0.658,-4.404 -0.667,-8.9 0.592,-13.213c4.642,-15.879 14.333,-26.983 30.538,-31.787c0.75,-0.221 1.533,-0.325 2.279,-0.554c5.133,-1.587 5.454,-2.075 4.787,-7.108c-1.442,-10.908 -9.412,-19.358 -20.633,-21.838c-1.525,-0.333 -3.088,-0.533 -4.642,-0.704c-8.154,-0.896 -9.379,-0.029 -8.854,7.979c0.804,12.317 -2.146,23.288 -10.492,32.55c-3.704,4.113 -7.933,7.521 -13.408,9.117c-8.146,2.379 -13.925,-1 -15.588,-9.333c-1.104,-5.533 -0.2,-10.938 1.613,-16.171c4.108,-11.896 12.521,-19.571 24.05,-24.108c8.15,-3.208 8.804,-6.025 2.746,-12.396c-3.358,-3.525 -7.496,-5.7 -12.438,-5.783c-12.704,-0.217 -23.017,3.892 -28.596,16.258c-0.446,0.988 -1,1.808 -2.737,1.65" style="fill:#0495cb;fill-rule:nonzero;"/></svg>