<?xml version="1.0" encoding="UTF-8" standalone="no"?><!DOCTYPE svg PUBLIC "-//W3C//DTD SVG 1.1//EN" "http://www.w3.org/Graphics/SVG/1.1/DTD/svg11.dtd"><svg width="100%" height="100%" viewBox="0 0 123 144" version="1.1" xmlns="http://www.w3.org/2000/svg" xmlns:xlink="http://www.w3.org/1999/xlink" xml:space="preserve" xmlns:serif="http://www.serif.com/" style="fill-rule:evenodd;clip-rule:evenodd;stroke-linejoin:round;stroke-miterlimit:2;"><path d="M70.186,5.921c-2.125,0 -4.25,-0.054 -6.375,-0.192c-4.558,-0.292 -9.129,-0.7 -13.683,-1.104l-4.783,-0.45c-1.421,-0.146 -2.837,-0.292 -4.267,-0.367c-0.3,-0.017 -0.604,-0.025 -0.908,-0.025c-0.846,0 -1.696,0.05 -2.546,0.104c-0.875,0.046 -1.75,0.096 -2.617,0.096l-0.896,-0.017c-0.583,-0.029 -1.067,-0.396 -1.229,-0.942c-0.163,-0.558 0.046,-1.163 0.525,-1.508c1.75,-1.258 4.192,-1.471 6.571,-1.512l0.533,-0.004c2.275,0 4.558,0.217 6.771,0.425c5.379,0.504 10.692,0.971 15.992,1.35c2.521,0.179 5.046,0.233 7.571,0.233c1.688,0 3.375,-0.025 5.062,-0.046l6.254,-0.054c2.025,0 4.046,0.025 6.075,0.1l1.292,0.038c2.213,0.062 4.5,0.125 6.608,0.708c0.562,0.15 0.954,0.708 0.917,1.329c-0.037,0.583 -0.442,1.042 -1.017,1.125c-1.446,0.212 -2.958,0.242 -4.25,0.242l-3.562,0.004c-2.108,0.046 -8.137,0.242 -8.137,0.242l-1.371,0.042c-2.842,0.092 -5.688,0.183 -8.529,0.183" style="fill:#0495cb;fill-rule:nonzero;"/><path d="M80.127,143.238c-5.562,0 -11.858,-0.7 -18.717,-2.079c-7.917,-1.596 -15.312,-4.258 -21.996,-7.925c-11.383,-6.254 -22.142,-15.617 -30.283,-26.362c-9.237,-12.188 -9.837,-26.921 -8.712,-37.133c1.354,-12.321 7.129,-23.358 12.708,-34.033c0.858,-1.633 3.104,-5.983 3.104,-5.983c2.854,-5.583 5.804,-11.363 9.767,-16.304c0.971,-1.208 1.975,-2.383 2.979,-3.558c0.721,-0.842 2.933,-3.467 2.933,-3.467c1.183,-1.383 2.408,-2.813 2.967,-4.367c0.308,-0.858 1.058,-1.392 1.958,-1.392c0.663,0 1.283,0.3 1.667,0.8c0.371,0.488 0.475,1.1 0.3,1.742c-0.642,2.317 -2.204,4.304 -3.583,6.054c-1.025,1.296 -2.1,2.55 -3.179,3.804c-0.854,0.996 -1.713,1.996 -2.542,3.017c-1.996,2.458 -3.621,5.275 -5.196,8.004l-0.208,0.358c-2.042,3.529 -3.988,7.108 -5.888,10.708l-1.112,2.112c-5.867,11.079 -11.933,22.537 -12.879,35.467c-0.504,6.838 0.021,13.121 1.55,18.683c1.6,5.792 4.517,11.096 8.929,16.208c9.508,11.029 19.737,19.183 30.408,24.242c5.779,2.742 12.383,4.729 19.633,5.917c4.438,0.721 8.975,0.908 13.362,1.092c2.642,0.113 5.292,0.221 7.942,0.442c1,0.079 1.729,0.842 1.738,1.808c0.008,0.983 -0.717,1.767 -1.725,1.867c-1.879,0.188 -3.875,0.279 -5.921,0.279l-0.004,0Z" style="fill:#0495cb;fill-rule:nonzero;"/><path d="M109.338,111.711c-1.542,0 -3.146,-0.192 -4.912,-0.583c-5.546,-1.233 -10.367,-4.212 -14.754,-7.258c-6.517,-4.525 -14.592,-10.854 -19.246,-19.737c-4.804,-9.167 -4.754,-19.912 -4.329,-29.262c0.4,-8.812 3.346,-17.829 9.275,-28.379c2.467,-4.392 5.367,-8.667 8.617,-12.704c1.392,-1.729 3.092,-3.733 5.171,-5.492l1.221,-1.025c1.263,-1.054 2.525,-2.108 3.704,-3.25l0.242,-0.233l0.571,-0.092c0.387,0 0.75,0.183 0.975,0.492l0.25,0.342l-0.092,0.679c-0.783,2.446 -2.621,4.192 -4.1,5.596c-1.912,1.817 -3.471,3.508 -4.9,5.329c-3.383,4.3 -6.45,8.979 -9.104,13.904c-2.704,5.012 -4.542,9.192 -5.792,13.158c-1.283,4.079 -1.975,8.567 -2.175,14.121c-0.308,8.675 -0.208,18.633 4.946,27.071c4.729,7.758 12.35,13.492 19.183,18.075c4.658,3.121 8.983,4.9 13.237,5.438c0.492,0.062 0.975,0.088 1.458,0.088c2.162,0 4.217,-0.55 6.387,-1.142c1.638,-0.442 3.333,-0.9 5.1,-1.108l0.037,0c1.142,0 1.842,0.692 1.896,1.646c0.054,0.925 -0.542,1.975 -1.742,2.117c-1.504,0.167 -2.942,0.583 -4.458,1.025c-1.146,0.333 -2.292,0.667 -3.463,0.892c-1.033,0.196 -2.108,0.296 -3.204,0.296" style="fill:#0495cb;fill-rule:nonzero;"/><path d="M84.688,143.23c-0.912,0 -1.8,-0.65 -2.108,-1.542c-0.275,-0.796 -0.037,-1.608 0.625,-2.133c3.783,-2.996 7.696,-6.096 11.417,-9.546l1.483,-1.383c2.562,-2.4 5.217,-4.879 8.079,-7.046c1.121,-0.85 2.258,-1.683 3.392,-2.508c1.888,-1.379 3.775,-2.758 5.596,-4.229c2.358,-1.913 5.008,-4.179 6.621,-6.933l0.242,-0.413l0.783,-0.167c0.346,0 0.671,0.142 0.896,0.388l0.246,0.271l0.042,0.596c-0.3,3.358 -2.767,6.083 -5.388,8.529c-2.317,2.15 -4.862,4.067 -7.325,5.921l-1.679,1.271c-2.862,2.175 -5.554,4.7 -8.158,7.133l-3.358,3.137c-3.233,3.029 -6.575,6.167 -10.392,8.379c-0.317,0.183 -0.658,0.275 -1.013,0.275" style="fill:#0495cb;fill-rule:nonzero;"/></svg>