<?xml version="1.0" encoding="UTF-8" standalone="no"?><!DOCTYPE svg PUBLIC "-//W3C//DTD SVG 1.1//EN" "http://www.w3.org/Graphics/SVG/1.1/DTD/svg11.dtd"><svg width="100%" height="100%" viewBox="0 0 375 402" version="1.1" xmlns="http://www.w3.org/2000/svg" xmlns:xlink="http://www.w3.org/1999/xlink" xml:space="preserve" xmlns:serif="http://www.serif.com/" style="fill-rule:evenodd;clip-rule:evenodd;stroke-linejoin:round;stroke-miterlimit:2;"><path d="M18.246,36.792c-2.188,0 -4.517,0.113 -6.713,0.929l-1.017,0.354c-2.45,0.829 -3.946,1.483 -4.037,3.546c-0.087,1.867 1.379,2.629 3.625,3.575l0.554,0.233c3.354,1.45 6.117,2.417 8.7,3.042c7.717,1.867 15.721,2.979 23.796,3.312l0.421,0.012c1.704,0.054 4.283,0.142 4.812,2.858c0.592,3.017 -1.987,3.725 -3.696,4.192c-2.458,0.692 -4.358,1.246 -6.2,1.992c-4.158,1.696 -9.454,4.188 -13.533,8.458c-2.121,2.221 -3.017,4.117 -2.658,5.629c0.367,1.554 2.092,2.892 5.125,3.983c1.929,0.692 4.046,1.025 6.467,1.025c2.35,0 4.737,-0.304 7.046,-0.6c19.85,-2.546 35.467,-13.3 48.125,-23.479c2.254,-1.808 2.654,-3.35 1.483,-5.675c-0.263,-0.525 -0.513,-1.062 -0.763,-1.596c-0.508,-1.096 -1.017,-2.192 -1.671,-3.196c-13.158,-20.25 -32.404,-33.488 -57.204,-39.333c-1.192,-0.283 -2.388,-0.425 -3.562,-0.425c-1.3,0 -2.571,0.175 -3.775,0.517c-1.383,0.392 -3.146,1.167 -3.688,2.621c-0.537,1.45 0.288,3.179 1.075,4.371c2.108,3.2 5.138,5.679 7.542,7.483c3.625,2.721 7.3,5.375 10.975,8.029l5.442,3.946c1.7,1.233 3.75,2.725 2.75,5.342c-0.521,1.354 -1.438,2.046 -2.721,2.046c-0.725,0 -1.438,-0.217 -2.129,-0.421c-0.279,-0.087 -0.558,-0.171 -0.825,-0.233c-5.771,-1.358 -11.425,-2.579 -17.163,-2.579c-0.638,0 -1.279,0.017 -1.921,0.046c-0.483,0.017 -0.954,0.021 -1.425,0.021l-3.238,-0.025Zm84.225,26.463c0.879,2.579 2.425,4.796 3.925,6.95c1.287,1.837 2.612,3.742 3.517,5.854c2.429,5.696 4.858,8.017 8.379,8.017c1.3,0 2.779,-0.342 4.396,-1.017c0.3,-0.125 0.629,-0.183 1.013,-0.183c0.337,0 0.692,0.046 1.046,0.096c0.221,0.029 0.671,0.075 0.683,0.075c1.863,0 2.608,-0.721 2.717,-2.325c0.067,-0.913 0.408,-1.688 0.742,-2.442c0.354,-0.804 0.667,-1.513 0.588,-2.267c-6.633,-5.038 -19.967,-11.288 -27.004,-12.758m34.058,46.887c2.271,0 4.642,0.758 7.05,2.258c0.333,0.204 0.783,0.333 1.221,0.446c1.008,0.254 1.796,0.379 2.417,0.379c0.871,0 1.196,-0.246 1.363,-0.429c0.463,-0.504 0.613,-1.642 0.45,-3.471c-0.842,-9.467 -0.217,-10.3 9.579,-12.742c0.225,-0.054 0.454,-0.083 0.687,-0.117c0.271,-0.037 0.529,-0.075 0.713,-0.154c1.287,-0.546 2.117,-1.517 2.217,-2.6c0.088,-0.958 -0.413,-1.85 -1.408,-2.504c-5.804,-3.825 -12.283,-7.183 -19.25,-9.979c-0.975,-0.388 -1.917,-0.583 -2.808,-0.583c-2.183,0 -3.771,1.163 -4.471,3.271c-1.333,4.008 -3.458,5.8 -6.888,5.8c-0.854,0 -1.804,-0.108 -2.904,-0.329c-0.6,-0.121 -1.15,-0.179 -1.65,-0.179c-0.825,0 -1.921,0.167 -2.45,0.971c-0.538,0.812 -0.446,2.167 0.254,3.817c2.737,6.454 5.858,12.413 9.525,18.192c2.054,-1.358 4.192,-2.046 6.354,-2.046m21.758,46.637c2.212,0 4.567,1.388 8.229,3.654l0.787,0.512c0.383,0.254 0.762,0.508 1.162,0.733c3.063,1.717 5.521,2.588 7.312,2.588c1.1,0 1.95,-0.325 2.592,-0.996c1.263,-1.321 1.808,-4.071 1.625,-8.175c-0.271,-6.029 0.771,-10.063 3.288,-12.692c2.196,-2.3 5.442,-3.417 9.921,-3.417c1.612,0 3.421,0.15 5.367,0.446c1,0.154 1.975,0.433 2.954,0.717c0.788,0.225 1.575,0.454 2.375,0.604c0.5,0.092 1,0.246 1.504,0.4c0.758,0.238 1.471,0.458 2.196,0.458c0.562,0 1.079,-0.133 1.6,-0.421c0.062,-0.971 0.075,-1.971 0.087,-2.971c0.063,-4.446 0.129,-9.454 4.946,-13.188c-4.442,-4.15 -9.046,-7.071 -13.504,-9.9c-1.217,-0.775 -2.425,-1.537 -3.617,-2.325c-6.596,-4.325 -13.779,-8.754 -21.963,-13.533c-2.046,-1.196 -3.454,-1.979 -4.338,-1.979c-0.954,0 -1.742,0.967 -3.746,3.733c-1.479,2.046 -3.033,2.879 -5.354,2.879l-0.546,-0.012c-1.062,-0.054 -1.962,-0.096 -2.721,-0.096c-1.413,0 -2.171,0.154 -2.454,0.492c-0.529,0.625 -0.233,2.679 0.25,5.508c0.621,3.671 0.138,6.483 -1.442,8.354c-1.333,1.579 -3.425,2.413 -6.05,2.413c-1.033,0.004 -2.142,-0.125 -3.304,-0.379c-1.296,-0.283 -2.587,-0.621 -3.846,-1.033c-1.892,-0.625 -3.308,-0.929 -4.329,-0.929c-1.071,0 -1.483,0.333 -1.696,0.583c-0.675,0.775 -0.792,2.575 -0.371,5.504c0.171,1.167 0.592,2.358 0.996,3.513l0.287,0.821c3.613,10.621 7.238,21.237 10.883,31.846c0.079,0.229 0.146,0.471 0.213,0.713c0.3,1.096 0.483,1.517 1.225,1.633c-0.196,-0.033 0.004,-0.083 0.208,-0.125c0.188,-0.046 0.471,-0.113 0.542,-0.167c3.904,-3.787 6.062,-5.767 8.729,-5.767m-0.254,6.988c-1.317,0 -3,0.567 -4.337,4.979c-1.358,4.483 -1.358,9.367 -0.012,15.842c0.575,2.763 1.171,5.517 1.767,8.275c0.946,4.379 1.892,8.763 2.758,13.158c0.579,2.95 1.004,5.929 1.429,8.912c0.658,4.667 1.342,9.483 2.662,14.133c0.113,-0.013 0.221,-0.029 0.325,-0.046c0.421,-0.054 0.896,-0.121 1.037,-0.246c3.192,-2.825 6.817,-4.254 10.775,-4.254c2.388,0 4.883,0.492 7.621,1.508c2.196,0.813 4.458,1.225 6.713,1.225c0.467,0 0.929,-0.017 1.396,-0.05c5.579,-0.417 8.329,-2.917 9.188,-8.362c0.258,-1.629 0.329,-3.342 0.4,-5c0.037,-0.912 0.075,-1.821 0.146,-2.729c0.775,-10.583 6.338,-16.417 15.654,-16.417c1.513,0 3.133,0.158 4.825,0.463c1.558,0.283 3.096,0.683 4.633,1.088c1.492,0.392 2.983,0.783 4.496,1.054c1.088,0.2 1.996,0.317 2.762,0.317c2.104,0 3.021,-0.721 3.979,-4.763c0.321,-1.362 0.588,-2.742 0.854,-4.121c0.471,-2.442 0.958,-4.967 1.767,-7.367c2.188,-6.529 5.862,-9.075 13.096,-9.075c4.163,0.013 7.796,1.546 10.879,2.979c0.842,0.392 1.562,0.583 2.2,0.583c1.35,0 2.421,-0.854 3.7,-2.938c1.808,-2.942 0.488,-4.304 -1.996,-6.463l-0.342,-0.3c-13.067,-11.425 -26.279,-22.275 -39.267,-32.25c-1.913,-1.467 -4.142,-3.029 -6.458,-3.029c-0.9,0 -1.767,0.225 -2.654,0.688c-3.042,1.588 -2.633,4.233 -2.162,7.3c0.083,0.538 0.167,1.079 0.229,1.613c0.413,3.467 0.033,5.725 -1.192,7.104c-0.9,1.012 -2.2,1.504 -3.975,1.504c-1.225,0 -2.687,-0.237 -4.467,-0.725c-1.279,-0.35 -2.537,-0.775 -3.8,-1.2c-2.725,-0.921 -5.296,-1.792 -8.083,-1.929l-0.825,-0.021c-2.596,0 -4.504,0.642 -5.675,1.913c-1.1,1.196 -1.567,2.992 -1.375,5.342c0.267,3.275 0.229,6.142 -0.117,8.771c-0.825,6.346 -4.192,9.188 -10.908,9.208c-4.783,0 -8.529,-2.25 -12.15,-4.429l-1.188,-0.713c-1.746,-1.033 -3.154,-1.533 -4.308,-1.533m17.5,132.154c4.033,0 8.079,0.787 13.104,2.562c2.258,0.796 4.308,1.2 6.087,1.2c5.196,0 8.442,-3.308 10.225,-10.408c0.292,-1.175 0.558,-2.362 0.821,-3.55c0.642,-2.871 1.304,-5.838 2.396,-8.621c3.371,-8.579 10.242,-13.5 18.854,-13.5c1.975,0 4.025,0.267 6.092,0.792c1.867,0.471 3.696,1.079 5.529,1.692c1.637,0.546 3.271,1.092 4.933,1.533c2.333,0.625 4.267,0.929 5.908,0.929c4.771,0 7.562,-2.588 9.958,-9.225c0.438,-1.213 0.825,-2.45 1.217,-3.683c0.704,-2.229 1.433,-4.533 2.446,-6.696c3.158,-6.779 8.512,-10.517 15.071,-10.517c2.367,0 4.846,0.492 7.383,1.454c0.938,0.358 1.842,0.804 2.746,1.25c0.742,0.363 1.479,0.733 2.242,1.042c1.817,0.746 3.433,1.121 4.808,1.121c3.387,0 5.579,-2.354 6.7,-7.2c0.167,-0.725 0.246,-1.471 0.325,-2.212l0.088,-0.8c0.817,-6.721 2.613,-14.162 9.662,-18.683c-0.021,-0.088 -0.046,-0.167 -0.062,-0.242c-0.087,-0.325 -0.158,-0.604 -0.246,-0.717c-8.737,-11.246 -18.929,-21.504 -28.783,-31.425l-4.613,-4.654c-0.892,-0.904 -1.671,-1.367 -2.308,-1.367c-0.771,0 -1.612,0.7 -2.575,2.138c-2.446,3.662 -3.971,5.296 -6.533,5.296c-1.371,0 -2.946,-0.475 -5.208,-1.3c-0.854,-0.308 -1.688,-0.671 -2.521,-1.037c-1.346,-0.583 -2.613,-1.142 -3.946,-1.467c-1.596,-0.396 -2.929,-0.588 -4.075,-0.588c-3.658,0 -5.629,2.013 -7.037,7.187c-0.404,1.504 -0.65,3.05 -0.892,4.592c-0.204,1.279 -0.408,2.558 -0.7,3.812c-1.421,6.171 -3.458,9.996 -9.212,9.996c-1.55,0 -3.379,-0.254 -5.75,-0.796c-1.075,-0.246 -2.142,-0.542 -3.204,-0.838c-2.592,-0.717 -5.042,-1.396 -7.65,-1.396c-6.367,0.171 -8.896,2.192 -10.067,7.721c-0.625,2.975 -0.871,5.771 -0.733,8.317c0.254,4.579 -1.096,8.567 -3.904,11.533c-3.05,3.229 -7.558,5.008 -12.696,5.008c-0.75,0 -1.513,-0.042 -2.279,-0.121c-2.183,-0.225 -4.333,-0.796 -6.412,-1.346c-1.192,-0.317 -2.379,-0.629 -3.575,-0.883c-1.075,-0.225 -2.092,-0.342 -3.033,-0.342c-4.317,0 -7.171,2.417 -8.483,7.175c-0.992,3.596 -1.321,7.408 -0.979,11.329c0.954,10.912 1.829,21.829 2.7,32.746c0.246,3.067 0.458,6.133 0.687,9.525l0.317,4.529c2.417,-0.583 4.775,-0.867 7.179,-0.867m4.417,67.783c3.738,0 7.642,1.058 11.613,3.142c1.467,0.771 3.075,1.467 4.917,2.133c3.104,1.117 5.717,1.663 7.992,1.663c5.175,0 8.879,-2.808 12.375,-9.387c0.333,-0.625 0.642,-1.258 0.954,-1.892c0.379,-0.779 0.763,-1.554 1.175,-2.308c5.071,-9.204 12.433,-13.871 21.888,-13.871c2.079,0 4.275,0.233 6.533,0.696c1.412,0.292 2.8,0.671 4.192,1.054c0.887,0.246 1.771,0.488 2.662,0.708c3.688,0.904 6.413,1.325 8.571,1.325c5.725,0 8.521,-2.783 11.967,-11.913l0.279,-0.733c4.821,-12.775 10.838,-17.983 20.754,-17.983c2.858,0 6.075,0.437 9.842,1.337c1.746,0.413 3.433,0.625 5.025,0.625c4.7,0 8.883,-1.837 12.788,-5.617c3.042,-2.95 5.083,-6.429 7.442,-10.671c3.454,-6.217 8.592,-10.983 16.171,-15.008c1.887,-1 3.867,-1.229 5.788,-1.446c1.517,-0.171 2.958,-0.337 4.262,-0.875c0.35,-1.933 -0.463,-3.467 -1.321,-5.088l-0.425,-0.812c-8.721,-17.233 -19.629,-34.492 -33.337,-52.758c-1.696,-2.262 -3.179,-3.992 -5.496,-3.992c-0.417,0 -0.867,0.058 -1.333,0.171c-3.196,0.779 -4.121,3.592 -4.796,6.4c-0.358,1.504 -0.617,3.038 -0.875,4.571c-0.342,2.042 -0.696,4.15 -1.292,6.183c-2.092,7.087 -6.554,10.992 -12.567,10.992c-2.292,0 -4.771,-0.571 -7.371,-1.692c-0.525,-0.229 -1.029,-0.496 -1.533,-0.762c-0.421,-0.221 -0.846,-0.442 -1.279,-0.638c-2.829,-1.271 -5.246,-1.883 -7.396,-1.883c-4.683,0 -8.004,3.021 -10.45,9.517c-0.479,1.275 -0.913,2.571 -1.346,3.867c-0.796,2.4 -1.625,4.879 -2.754,7.196c-3.054,6.25 -7.458,9.288 -13.458,9.288c-1.504,0 -3.142,-0.196 -4.863,-0.583c-2.317,-0.517 -4.596,-1.275 -6.804,-2.008c-0.996,-0.329 -1.987,-0.663 -2.987,-0.971c-3.038,-0.942 -5.817,-1.421 -8.258,-1.421c-7.771,0 -12.683,4.825 -15.012,14.754c-0.229,0.979 -0.429,1.967 -0.633,2.958c-0.475,2.333 -0.967,4.742 -1.825,7.004c-2.588,6.829 -8.675,11.417 -15.15,11.417c-1.808,0 -3.604,-0.354 -5.337,-1.054c-3.204,-1.292 -6.417,-2.325 -9.546,-3.075c-1.079,-0.254 -2.117,-0.383 -3.092,-0.383c-4.817,0 -7.904,3.142 -8.471,8.617c-0.121,1.163 -0.113,2.338 -0.104,3.508l-0.017,7.612c-0.012,10.967 -0.029,22.308 -1.254,33.471c-0.113,1.021 -0.263,2.05 -0.413,3.079c-0.467,3.221 -0.954,6.542 -0.187,9.55c0.258,0.096 0.492,0.142 0.708,0.142c0.492,0 0.879,-0.25 1.329,-0.538c3.954,-2.45 7.829,-3.617 11.758,-3.617m0.108,7.188c-7.283,0 -13.042,4.792 -15.025,12.508c-0.729,2.829 -1.029,4.671 -0.375,5.696c0.579,0.917 2.058,1.496 5.454,2.138c15.758,2.988 30.017,4.438 43.592,4.438l1.313,-0.004c10.592,-0.004 23.096,-0.371 35.592,-3.067c40.596,-8.758 76.65,-28.471 107.154,-58.592c13.358,-13.196 13.496,-13.792 7.35,-31.946c0,0 -0.371,-1.238 -0.454,-1.483c-1.992,-5.663 -4.787,-8.3 -8.808,-8.3c-1.954,0 -4.275,0.65 -6.892,1.933c-6.85,3.354 -10.954,9.254 -14.067,14.583c-6.704,11.475 -13.217,15.946 -23.225,15.95c-2.9,0 -6.188,-0.387 -10.042,-1.179c-1.842,-0.379 -3.567,-0.571 -5.121,-0.571c-6.521,0 -10.833,3.221 -13.992,10.442c-0.617,1.417 -1.138,2.879 -1.663,4.338c-0.533,1.487 -1.062,2.975 -1.692,4.417c-3.567,8.196 -8.242,11.387 -16.683,11.387c-0.625,0 -1.267,-0.021 -1.933,-0.054c-3.075,-0.158 -6.017,-0.946 -8.858,-1.708c-1.162,-0.308 -2.317,-0.617 -3.488,-0.887c-2.821,-0.65 -5.275,-0.963 -7.504,-0.963c-7.521,0 -12.654,3.742 -17.154,12.512l-0.775,1.55c-0.679,1.375 -1.362,2.746 -2.171,4.037c-3.887,6.213 -9.154,9.229 -16.108,9.229l-0.871,-0.017c-5.292,-0.183 -9.9,-2.129 -14.358,-4.012l-2.254,-0.942c-2.321,-0.95 -4.654,-1.433 -6.942,-1.433m36.008,31.079c-6.5,0 -13.171,-0.329 -19.829,-0.979c-6.967,-0.679 -13.975,-1.712 -20.75,-2.704c-2.396,-0.354 -4.792,-0.704 -7.188,-1.042c-9.679,-1.363 -11.038,-2.983 -10.387,-12.379c0.829,-11.888 1.938,-24.396 3.4,-38.233c1.508,-14.275 1.15,-28.833 0.808,-42.908l-0.133,-5.513c-0.742,-33.296 -4.804,-67.729 -12.075,-102.338c-8.825,-42.008 -21.858,-77.617 -39.838,-108.854c-2.242,-3.896 -4.233,-8.004 -6.158,-11.975c-1.35,-2.779 -2.7,-5.558 -4.138,-8.288c-1.754,-3.321 -2.825,-4.5 -4.104,-4.5c-1.029,0 -2.454,0.683 -4.925,2.363l-3.763,2.583c-9.154,6.312 -18.621,12.837 -30.042,15.663c-6.729,1.663 -13.029,2.896 -19.258,3.775c-1.129,0.158 -2.258,0.238 -3.379,0.238c-3.908,0 -7.804,-0.938 -11.571,-2.779c-3.75,-1.833 -6.1,-4.379 -6.804,-7.354c-0.717,-3.042 0.296,-6.471 2.929,-9.917c1.613,-2.108 3.637,-3.633 5.788,-5.246c1.496,-1.121 3.033,-2.275 4.458,-3.671c-2.675,-1.258 -5.267,-1.762 -7.783,-2.254c-1.65,-0.321 -3.204,-0.621 -4.758,-1.121c-3.738,-1.192 -7.971,-2.55 -11.646,-5.087c-3.371,-2.333 -5.112,-5.167 -4.904,-7.983c0.208,-2.846 2.383,-5.429 6.129,-7.275c3.679,-1.821 7.733,-2.704 12.392,-2.704l0.908,0.008c1.562,0.038 3.125,0.05 4.717,0.05l6.771,-0.025c-0.725,-1.646 -1.883,-2.483 -3.1,-3.363c-0.392,-0.279 -0.771,-0.558 -1.129,-0.85c-3.6,-2.975 -7.325,-6.046 -10.308,-9.838c-3.171,-4.029 -3.792,-8.017 -1.85,-11.842c1.792,-3.517 5.083,-5.392 9.787,-5.575c0.883,-0.033 1.767,-0.054 2.646,-0.054c4.788,0 8.712,0.562 12.354,1.767c20.146,6.667 36.862,17.938 49.679,33.5c3.329,4.042 5.987,8.679 7.896,13.779c1.067,2.85 2.812,4.625 5.833,5.933c64.758,28.071 121.983,64.817 170.088,109.213c38.854,35.858 67.804,72.875 88.504,113.171c5.404,10.512 9.642,21.621 12.604,33.012c2.288,8.792 0.408,15.542 -6.287,22.567c-18.617,19.533 -40.762,35.596 -67.713,49.104c-26.375,13.221 -54.592,19.925 -83.871,19.925" style="fill:#0495cb;fill-rule:nonzero;"/></svg>