<svg width="212" height="228" viewBox="0 0 212 228" fill="none" xmlns="http://www.w3.org/2000/svg">
<g clip-path="url(#clip0_11_2)">
<path d="M31.3031 62.4626C33.3688 55.3475 36.3734 48.5066 40.187 42.142C43.9717 35.7341 48.8687 30.0767 54.1123 24.8667C56.698 22.2112 59.5293 19.801 62.3606 17.3908C63.8629 16.294 65.3797 15.2115 66.9109 14.1436C68.4421 13.09 70.1322 12.2674 71.7356 11.3293C73.3246 10.3623 75.0292 9.59742 76.7048 8.80365C78.3805 8.00987 80.0417 7.14394 81.8041 6.53779C83.5519 5.88834 85.2565 5.16673 87.0333 4.58944L92.3925 3.07406C94.1837 2.56893 96.0327 2.32359 97.8384 1.93392C98.7485 1.76073 99.6585 1.54425 100.569 1.39992C101.493 1.28447 102.403 1.18344 103.328 1.03912C104.252 0.923661 105.162 0.779339 106.087 0.620585L107.459 0.404102L108.846 0.288644C110.695 0.158754 112.558 0.072161 114.422 0C121.875 0.0288644 129.3 1.16901 136.422 3.27611C139.961 4.38739 143.486 5.61413 146.895 7.10065C150.304 8.6016 153.583 10.4056 156.66 12.5127C162.886 16.597 168.375 21.7638 173.026 27.5222C173.113 27.6377 173.099 27.8109 172.983 27.8975C172.868 27.984 172.709 27.9696 172.608 27.8686C167.682 22.3988 162.149 17.5063 155.967 13.5518C149.784 9.65515 143.226 6.22028 136.162 4.15648C129.113 2.09267 121.745 1.16901 114.436 1.24117C110.781 1.47209 107.098 1.2989 103.443 1.81846C102.533 1.90505 101.623 2.03494 100.699 2.1504C99.7885 2.29472 98.8929 2.5112 97.9973 2.71325C96.2061 3.14622 94.386 3.4493 92.6381 3.99772C78.4383 7.89442 65.5097 15.5435 54.6468 25.4151C44.0006 35.6187 36.4312 48.6798 31.8231 62.6213C31.7798 62.7657 31.6353 62.8378 31.4909 62.7945C31.3464 62.7512 31.2742 62.6069 31.3175 62.4626H31.3031Z" fill="#E1D7C6"/>
<path d="M190.708 225.792C190.736 226.744 189.884 227.61 188.931 227.581L186.562 227.61L181.838 227.654L172.376 227.697C166.078 227.697 159.766 227.784 153.467 227.755L115.65 227.682C109.351 227.682 103.039 227.856 96.7406 227.971C90.4424 228.072 84.1298 228 77.8316 227.971L40.0136 227.798L30.5519 227.74C30.1764 227.726 29.7719 227.784 29.2663 227.654C28.804 227.538 28.3851 227.25 28.0818 226.889C27.7784 226.513 27.5906 226.052 27.5617 225.575C27.5617 225.128 27.5617 224.767 27.5617 224.363C27.5617 222.79 27.5762 221.217 27.5617 219.644C27.504 213.351 27.2728 207.044 27.3451 200.752L27.504 162.968C27.5473 150.369 27.1717 137.784 27.3595 125.185C27.4606 112.586 27.4751 100.001 27.6918 87.4014C27.6918 87.2571 27.8218 87.1272 27.9662 87.1417C28.1107 87.1417 28.2262 87.2571 28.2262 87.4014C28.4429 100.001 28.4718 112.586 28.5585 125.185C28.7463 137.784 28.3707 150.384 28.414 162.968L28.5729 200.752C28.6307 207.044 28.414 213.351 28.3562 219.644C28.3274 221.217 28.3418 222.79 28.3562 224.363V225.518C28.3851 225.835 28.5151 226.124 28.7174 226.369C28.9196 226.6 29.1941 226.788 29.4974 226.86C29.7719 226.946 30.1619 226.903 30.5664 226.903L40.0281 226.845L77.846 226.672C84.1442 226.629 90.4568 226.557 96.755 226.672C103.053 226.788 109.366 226.946 115.664 226.961L153.482 226.889C159.78 226.845 166.093 226.932 172.391 226.946L181.853 226.99L186.576 227.033L188.945 227.062C189.595 227.091 190.188 226.528 190.188 225.864C190.188 225.72 190.303 225.59 190.448 225.59C190.592 225.59 190.722 225.705 190.722 225.85L190.708 225.792Z" fill="#E1D7C6"/>
<path d="M211.913 138.852C211.884 137.12 211.884 135.389 211.884 133.657C211.884 132.112 211.769 130.727 211.48 129.226C211.191 127.754 211.234 126.152 210.772 124.738C210.57 124.146 210.613 123.525 210.44 122.934C210.223 122.169 209.819 121.519 209.747 120.697C209.732 120.509 209.573 120.408 209.429 120.408C209.429 120.379 209.429 120.35 209.429 120.321C209.429 119.874 208.735 119.874 208.735 120.321C208.735 121.014 208.62 121.707 208.562 122.4C208.519 123.063 208.562 123.742 208.504 124.42C208.374 126.036 207.912 127.638 207.652 129.24C207.19 132.04 206.135 134.638 205.196 137.308C204.041 140.599 202.712 143.817 201.412 147.035C201.989 144.668 202.408 142.287 202.914 139.906C203.434 137.467 203.867 135.013 204.344 132.574C204.546 131.535 204.806 130.482 204.907 129.428C204.965 128.865 204.907 128.302 205.008 127.739C205.11 127.162 205.211 126.671 205.211 126.08C205.211 124.896 205.442 123.742 205.485 122.544C205.528 121.231 205.716 119.975 205.702 118.662C205.687 117.536 205.875 116.482 205.976 115.385C206.092 114.043 205.976 112.744 206.179 111.402C206.511 109.035 206.222 106.423 206.049 104.042C205.861 101.458 205.572 98.8751 205.456 96.2773C205.341 93.6073 204.907 91.0239 204.46 88.3828C204.228 87.0406 203.809 85.8572 203.405 84.5583C203.073 83.4903 202.972 82.3502 202.293 81.4121C202.134 81.1812 201.802 81.0946 201.585 81.3255C201.224 81.7007 201.137 82.1914 201.05 82.6821C200.92 83.4037 200.718 84.0532 200.487 84.7459C199.866 86.6365 199.49 88.6282 198.696 90.4611C197.222 93.8671 195.792 97.2298 194.651 100.78C194.059 102.613 193.582 104.475 193.25 106.38C192.918 108.285 192.412 110.161 192.051 112.066C191.69 113.942 191.574 115.833 191.574 117.738C191.574 119.73 191.545 121.765 191.675 123.756C191.892 126.729 192.21 129.673 192.744 132.589C192.427 131.954 192.08 131.333 191.762 130.713C191.343 129.861 191.112 128.952 190.794 128.057C190.274 126.57 189.48 125.228 189.075 123.698C188.627 122.039 188.425 120.336 188.194 118.633C187.761 115.385 187.342 112.109 187.27 108.833C187.197 105.312 187.255 101.761 187.327 98.2256C187.371 96.2051 187.443 94.1413 187.631 92.1063C188.035 89.9848 188.324 87.8633 188.974 85.7995C189.48 84.1831 190.115 82.5955 190.838 81.0657C191.285 80.6183 191.69 80.1132 192.109 79.6369C192.6 79.0596 193.12 78.6411 193.727 78.1793C194.839 77.3278 195.865 76.4763 196.847 75.4804C197.93 74.3692 198.927 73.2146 199.909 72.0311C200.718 71.0498 200.993 69.9818 201.253 68.755C201.44 67.8169 201.628 66.6912 200.79 65.9985C200.068 65.4068 199.057 65.5222 198.248 65.7964C197.757 65.9552 197.237 66.0273 196.76 66.2583C196.182 66.5325 195.677 66.9221 195.229 67.384C194.319 68.3221 193.669 69.3179 193.048 70.458C192.297 71.8435 191.719 73.3589 191.314 74.8743C190.866 76.5629 190.664 78.2803 190.332 79.9977C190.303 80.1565 190.375 80.2719 190.476 80.3441C189.841 81.6574 189.263 83.0141 188.757 84.3995C188.815 83.9233 188.887 83.447 188.931 82.9708C189.09 81.3399 189.436 79.6947 189.465 78.0494C189.494 76.3464 189.711 74.7011 189.87 72.9981C190.029 71.3095 189.985 69.6065 189.841 67.9324C189.682 66.0418 189.436 64.1656 189.249 62.2894C189.061 60.4421 188.902 58.6092 188.526 56.7907C188.151 54.9867 187.674 53.2115 187.212 51.4364C186.923 50.3107 186.562 49.185 185.941 48.218C186.345 48.218 186.735 48.1747 187.154 48.117C188.151 47.9727 189.104 47.8572 189.841 47.0779C190.968 45.88 191.256 44.3069 190.52 42.8348C190.202 42.1998 189.711 41.6225 189.147 41.1318C189.754 40.7421 190.303 40.2659 190.794 39.7607C191.935 38.6062 192.022 36.7733 191.228 35.4022C190.173 33.5837 188.281 33.4827 186.446 34.0456C186.822 32.5013 186.793 30.553 186.244 29.1531C185.738 27.883 184.742 26.0501 183.095 26.3243C182.387 26.4398 181.795 26.8439 181.347 27.3779C180.798 28.0129 180.321 28.6191 179.917 29.3407C179.7 28.8788 179.455 28.417 179.151 27.9696C178.501 26.9882 177.172 25.2708 175.771 25.6316C174.384 25.9924 173.648 27.9119 173.489 29.1531C173.344 30.2788 173.431 31.4622 173.676 32.6024C173.648 32.5879 173.604 32.5591 173.575 32.5446C172.189 31.8519 170.108 31.5632 168.736 32.4436C168.245 32.7611 168.707 33.5549 169.198 33.2374C170.282 32.5302 172.03 32.7755 173.142 33.3095C173.445 33.4539 173.734 33.6126 174.009 33.8002C174.11 34.1177 174.225 34.4497 174.355 34.7528C174.745 35.6764 175.251 36.4558 175.829 37.2784C176.176 37.7547 176.724 38.4185 177.302 38.5917C177.533 38.6639 177.736 38.6062 177.895 38.4907C177.88 38.5196 177.851 38.534 177.837 38.5629C177.49 38.9814 177.172 39.501 177.36 40.0638C177.389 40.1504 177.447 40.2226 177.49 40.2947C177.49 40.3236 177.49 40.338 177.504 40.3669C177.562 40.5256 177.649 40.67 177.765 40.7854C177.721 40.7999 177.678 40.8287 177.635 40.8864C176.58 42.474 175.381 44.2636 174.962 46.1542C174.5 46.8614 174.023 47.5974 173.416 48.1747C173.041 48.5499 172.608 48.8819 172.102 49.0551C171.625 49.2283 170.585 49.3726 170.166 48.9829C169.834 48.6798 169.993 47.7562 170.065 47.3954C170.195 46.7604 170.484 46.1831 170.759 45.6058C170.787 45.548 170.816 45.4903 170.845 45.4326C171.091 45.3749 171.336 45.3027 171.582 45.2305C172.925 44.8697 174.457 44.2636 175.497 43.2822C176.392 42.4451 175.872 41.406 174.688 41.3627C173.171 41.305 171.77 42.575 170.917 43.7007C170.672 44.0182 170.412 44.379 170.195 44.7543C170.007 44.7831 169.805 44.812 169.617 44.8264C169.011 44.8553 168.317 44.711 167.739 44.5667C167.523 44.5089 167.104 44.3935 166.974 44.1914C166.772 43.8595 167.075 43.3688 167.248 43.0801C167.595 42.5173 168.057 42.041 168.606 41.6658C169.69 40.9153 170.975 40.3813 172.261 40.1648C172.983 40.0494 173.662 40.136 174.384 40.1648C174.63 40.1648 174.875 40.1793 175.135 40.2081C175.583 40.3957 176.031 40.5834 176.522 40.5978C176.782 40.5978 176.912 40.2659 176.739 40.0927C176.291 39.6308 175.598 39.4721 174.977 39.4144C174.847 39.3422 174.717 39.27 174.601 39.2267C173.951 38.9381 173.243 38.3897 172.694 37.9423C171.553 36.9897 170.441 35.9651 169.892 34.5363C169.747 34.1466 169.112 34.3198 169.256 34.7095C169.848 36.3403 171.062 37.5093 172.347 38.6206C172.608 38.8371 172.896 39.068 173.214 39.2845C172.868 39.2845 172.521 39.2845 172.16 39.3278C170.498 39.5587 168.751 40.2514 167.465 41.3483C166.512 42.1565 164.98 44.1337 166.512 45.1151C167.147 45.5336 167.898 45.5769 168.635 45.6779C169.011 45.7212 169.372 45.7068 169.718 45.6779C169.271 46.5872 168.982 47.583 169.068 48.5644C169.213 50.3973 171.423 50.455 172.752 49.8055C173.518 49.4303 174.153 48.8242 174.659 48.1314C174.485 49.5458 174.485 51.0756 175.251 52.1436C176.277 53.5579 177.736 52.8652 178.458 51.5374C178.718 51.0611 178.949 50.5849 179.166 50.1086C179.484 50.7003 179.845 51.2343 180.292 51.7683C180.798 52.3745 181.275 53.0239 182.011 53.3703C183.485 54.0775 184.409 53.0384 184.915 51.725C185.334 50.6426 185.319 49.4447 185.088 48.2902C185.941 49.387 186.302 50.7725 186.634 52.1003C187.038 53.76 187.486 55.4052 187.833 57.0794C188.526 60.4854 188.714 64.0501 189.032 67.5139C189.176 69.1447 189.249 70.79 189.133 72.4208C189.017 74.1671 188.656 75.8845 188.656 77.6308C188.656 79.2761 188.324 80.907 188.165 82.5234C187.992 84.2408 187.79 85.9005 187.472 87.6035C186.172 94.3578 186.504 101.444 186.518 108.299C186.518 111.474 186.88 114.707 187.356 117.839C187.833 121 188.223 124.045 189.581 126.975C190.332 128.591 190.751 130.294 191.589 131.882C192.455 133.541 193.105 135.143 193.625 136.933C193.698 137.207 193.77 137.467 193.842 137.727C193.293 136.399 192.701 135.1 192.037 133.83C191.545 132.892 191.069 131.939 190.462 131.073C189.841 130.179 189.061 129.414 188.44 128.504C187.862 127.667 187.111 126.989 186.461 126.195C185.738 125.315 184.929 124.507 184.222 123.612C183.572 122.804 182.95 121.967 182.228 121.231C181.463 120.451 180.914 119.528 180.162 118.734C178.487 116.944 176.883 114.996 176.017 112.672C175.54 111.417 175.005 110.161 174.774 108.833C174.644 108.155 174.63 107.491 174.558 106.813C174.471 106.077 174.298 105.398 174.5 104.662C174.572 104.403 174.269 104.128 174.023 104.302C173.344 104.763 173.142 105.73 172.839 106.438C172.391 107.491 172.174 108.66 171.972 109.786C171.553 112.124 171.423 114.419 171.481 116.785C171.539 118.965 171.842 121.231 172.246 123.367C172.434 124.42 172.781 125.43 173.055 126.469C173.373 127.667 173.893 128.764 174.269 129.933C174.962 132.055 175.294 134.306 176.161 136.384C177.071 138.549 178.386 140.656 179.599 142.662C180.755 144.567 182.113 146.328 183.34 148.19C183.889 149.013 184.279 149.922 184.814 150.744C185.449 151.697 186.071 152.664 186.605 153.689C189.147 158.538 191.618 163.892 192.123 169.405C192.152 169.723 192.557 169.795 192.701 169.607C192.658 169.737 192.629 169.867 192.585 169.997C191.733 172.465 190.982 174.962 190.361 177.487C189.711 180.186 189.364 182.972 189.09 185.728C188.931 187.388 188.902 189.047 189.032 190.707C189.147 192.179 189.133 193.622 189.379 195.08C189.624 196.596 190.159 198.024 190.433 199.525C190.549 200.189 190.592 200.94 190.91 201.531C190.852 201.907 190.78 202.282 190.751 202.643C190.606 204.144 190.635 205.645 190.635 207.16C190.635 208.892 190.65 210.624 190.664 212.356C190.664 213.972 190.823 215.646 190.635 217.248C190.448 218.85 190.606 220.438 190.332 222.04C190.101 223.382 189.956 225.013 189.162 226.153C189.046 226.311 189.306 226.514 189.436 226.369C190.086 225.648 190.476 224.666 190.722 223.743C191.04 222.487 191.329 221.188 191.372 219.889C191.401 219.182 191.358 218.475 191.444 217.768C191.531 217.118 191.618 216.483 191.618 215.834C191.632 214.261 191.618 212.687 191.618 211.114C191.632 208.04 191.372 204.822 191.834 201.777C191.935 201.156 191.993 200.593 191.993 199.958C191.993 199.814 191.993 199.655 192.008 199.511C192.109 199.078 192.253 198.659 192.383 198.241C192.817 196.826 193.163 195.455 193.756 194.084C194.926 191.414 195.966 188.672 197.237 186.046C198.421 183.578 199.981 181.312 201.137 178.844C201.686 177.66 202.394 176.549 202.957 175.366C203.564 174.096 204.084 172.797 204.734 171.541C206.02 169.088 206.987 166.548 207.912 163.935C208.403 162.564 208.649 161.136 209.082 159.75C209.501 158.422 209.978 157.138 210.238 155.781C210.772 153.025 211.307 150.268 211.538 147.468C211.653 146.083 211.841 144.726 211.971 143.341C212.116 141.897 211.971 140.411 211.957 138.953L211.913 138.852ZM191.646 76.4185C191.935 75.2062 192.21 74.0228 192.643 72.8394C193.091 71.627 193.741 70.5591 194.348 69.4189C194.882 68.4087 195.821 67.384 196.832 66.8211C197.295 66.5613 197.8 66.4747 198.306 66.316C198.884 66.1284 199.404 65.9696 200.01 66.1428C201.498 66.5613 200.877 68.452 200.588 69.5344C200.227 70.8621 199.461 71.6992 198.566 72.695C197.714 73.6476 196.832 74.5424 195.966 75.466C194.998 76.4618 193.828 77.2556 192.744 78.1071C192.484 78.3092 192.268 78.5256 192.065 78.7566C193.987 75.3073 196.413 72.161 198.508 68.8128C198.638 68.6107 198.335 68.452 198.205 68.6396C195.706 71.959 193.163 75.3217 191.199 79.0019C191.343 78.1504 191.473 77.2845 191.675 76.433L191.646 76.4185ZM173.156 42.474C173.59 42.1853 174.413 41.7524 174.962 41.9977C175.757 42.3441 174.774 42.9358 174.442 43.1379C173.561 43.6719 172.622 44.1193 171.611 44.3646C171.524 44.379 171.437 44.4079 171.351 44.4368C171.827 43.6719 172.405 42.9791 173.156 42.474ZM187.486 34.5796C188.757 34.3775 189.971 34.7095 190.578 35.9218C191.314 37.365 190.794 38.7072 189.61 39.6741C189.22 39.9916 188.83 40.2947 188.411 40.5545C187.732 40.0927 187.01 39.703 186.302 39.4432C185.348 39.0824 184.366 38.736 183.369 38.6206C184.496 37.6103 185.536 36.3836 186.114 34.9837C186.562 34.8105 187.01 34.6662 187.472 34.594L187.486 34.5796ZM181.491 39.5875C181.751 39.5587 182.026 39.4577 182.286 39.3566C182.56 39.3278 182.849 39.3278 183.052 39.3566C184.366 39.4288 186.071 40.0205 187.168 40.7277C187.298 40.8143 187.428 40.9009 187.573 41.0019C187.053 41.1895 186.49 41.2617 185.854 41.1462C185.291 41.0452 184.727 40.9009 184.164 40.7854C183.427 40.6411 182.864 40.3813 182.214 40.0349C182.055 39.9484 181.881 39.8906 181.737 39.7896C181.549 39.6453 181.434 39.6597 181.506 39.6164L181.491 39.5875ZM181.361 38.7505C181.448 38.635 181.535 38.3464 181.607 38.2021C182.156 37.264 183.182 36.5712 184.077 36.0228C184.395 35.8352 184.713 35.6476 185.045 35.4744C184.51 36.3692 183.774 37.0619 183.023 37.8268C182.69 38.1732 182.416 38.4474 181.954 38.6206C181.795 38.6495 181.636 38.6639 181.477 38.7072C181.434 38.7072 181.39 38.736 181.347 38.7505H181.361ZM180.292 33.0209C180.422 33.9157 180.552 35.0558 180.134 35.9073C179.758 36.6578 179.426 35.8929 179.354 35.4022C179.238 34.7095 179.223 34.0023 179.339 33.2951C179.455 32.5591 179.657 31.8086 179.917 31.1014C180.09 31.722 180.206 32.357 180.307 33.0209H180.292ZM177.23 37.6392C177.057 37.5959 176.869 37.3794 176.739 37.2495C176.089 36.5712 175.583 35.6331 175.222 34.7095C175.583 35.0414 175.93 35.3878 176.262 35.763C176.623 36.1815 177.028 36.6289 177.302 37.1052C177.36 37.2207 177.418 37.3506 177.476 37.466C177.476 37.798 177.403 37.8701 177.244 37.6392H177.23ZM177.447 36.1238C176.696 35.027 175.814 34.0167 174.731 33.2374C174.413 32.0395 174.225 30.7117 174.298 29.485C174.355 28.4026 175.063 25.8625 176.609 26.4109C177.707 26.7862 178.443 28.0418 179.021 28.9799C179.223 29.3262 179.397 29.6726 179.541 30.0334C178.862 31.4766 178.357 33.2085 178.602 34.7672C178.689 35.2867 179.166 37.365 180.119 36.8166C181.029 36.297 181 34.2188 180.928 33.3961C180.827 32.2704 180.625 31.2169 180.264 30.221C180.35 30.019 180.437 29.8314 180.538 29.6438C181.087 28.6191 182.3 26.7284 183.687 27.0171C184.987 27.2913 185.695 29.3407 185.811 30.4808C185.955 31.7653 185.955 33.1219 185.536 34.3631C184.409 34.8249 183.369 35.4599 182.604 36.0228C182.04 36.4413 181.463 36.8887 181.058 37.466C180.957 37.6103 180.841 37.7835 180.74 37.9856C180.668 37.9134 180.581 37.8412 180.495 37.7835C180.061 37.466 179.484 37.3506 178.963 37.5093C178.689 37.5959 178.429 37.7547 178.227 37.9567C178.183 38 178.14 38.0577 178.097 38.101C178.097 38.101 178.053 38.1588 178.039 38.1876L178.01 38.2165C178.01 38.2165 177.981 38.2454 177.981 38.2598C178.053 38.1588 178.097 38.0289 178.126 37.8845C178.212 37.2495 177.75 36.6145 177.418 36.1238H177.447ZM178.631 49.4592C178.299 50.1664 177.981 51.0611 177.432 51.6384C176.204 52.9229 175.453 51.0323 175.41 50.0653C175.323 48.5788 175.439 46.7748 175.93 45.3604C176.464 43.845 177.244 42.4596 178.068 41.1029C178.068 41.0741 178.082 41.0596 178.097 41.0308C178.198 41.0885 178.299 41.1462 178.415 41.1895C177.923 41.7812 177.707 42.9935 177.649 43.4698C177.447 45.4037 178.01 47.4242 178.761 49.1994C178.718 49.286 178.689 49.3726 178.646 49.4592H178.631ZM179.122 48.2902C179.079 48.1747 179.021 48.0448 178.978 47.9294C178.458 46.4428 178.155 44.6965 178.328 43.1379C178.371 42.7626 178.443 42.2286 178.66 41.8967C178.703 41.8101 178.732 41.7235 178.776 41.6369C178.949 41.6369 179.093 41.6658 179.209 41.7091C179.296 42.1276 179.498 42.575 179.744 42.9935C179.787 43.542 179.758 44.1626 179.772 44.6533C179.816 45.8944 179.541 47.1356 179.108 48.2902H179.122ZM184.294 50.9168C184.12 51.5663 183.73 52.7641 182.907 52.8219C182.243 52.8796 181.578 52.2879 181.174 51.8549C180.437 51.0611 179.902 50.1375 179.469 49.1561C179.888 48.016 180.177 46.8469 180.292 45.6202C180.35 45.0285 180.307 44.4079 180.264 43.7873C180.437 44.0327 180.581 44.2491 180.711 44.4223C181.679 45.8223 182.589 47.0057 184.106 47.7129C184.395 48.7664 184.554 49.9066 184.294 50.9024V50.9168ZM179.946 41.4204C180.076 41.4926 180.235 41.6081 180.292 41.6369C180.841 41.9689 181.289 42.4884 181.694 42.9935C182.517 44.0327 183.225 45.245 183.702 46.4861C182.604 45.8367 181.867 44.6821 181.159 43.6574C180.711 43.008 180.408 42.3297 180.018 41.6514C179.975 41.5792 179.975 41.4782 179.946 41.406V41.4204ZM184.713 46.9335C184.612 46.616 184.496 46.313 184.38 46.0099C183.673 44.2924 182.56 42.8204 181.203 41.5648C180.986 41.3627 180.524 40.9586 180.09 40.7566C180.162 40.6844 180.249 40.6267 180.321 40.5545C180.495 40.3813 180.654 40.1937 180.784 39.9772C180.928 40.2081 181.159 40.4246 181.463 40.5834C182.95 41.3771 184.583 41.8823 186.273 41.9833C186.995 42.0266 187.688 41.8534 188.339 41.5503C188.916 42.041 189.436 42.6183 189.725 43.2678C190.346 44.6532 189.682 46.4428 188.165 46.8758C187.01 47.2078 185.839 47.2655 184.713 46.9191V46.9335ZM192.629 125.113C192.441 123.251 192.427 121.404 192.398 119.542C192.354 117.55 192.297 115.544 192.571 113.567C192.845 111.662 193.365 109.8 193.77 107.924C194.146 106.149 194.434 104.374 194.94 102.627C195.46 100.838 196.096 99.0915 196.731 97.3308C197.367 95.5701 198.147 93.9248 198.884 92.2074C199.635 90.4466 200.241 88.7292 200.762 86.8819C201.05 85.8861 201.426 84.9191 201.715 83.9233C201.816 83.5625 201.816 83.0429 201.917 82.5955C202.177 83.245 202.293 83.9377 202.481 84.616C202.813 85.7995 203.289 86.8819 203.477 88.0942C203.867 90.5621 204.373 93.0156 204.474 95.5268C204.662 100.448 205.312 105.355 205.211 110.291C205.196 111.417 204.907 112.499 204.922 113.625C204.936 114.866 204.734 116.021 204.662 117.262C204.575 118.474 204.734 119.686 204.604 120.913C204.46 122.241 204.387 123.554 204.2 124.882C204.127 125.387 204.199 125.892 204.171 126.397C204.142 126.888 203.997 127.35 203.939 127.84C203.795 129.053 203.752 130.236 203.506 131.449C203.029 133.83 202.611 136.211 202.134 138.592C201.859 139.964 201.513 141.32 201.253 142.691C201.007 144.033 200.819 145.361 200.487 146.689C200.184 147.959 200.054 149.2 199.895 150.485C199.866 150.701 199.823 150.918 199.779 151.12C199.461 151.957 199.144 152.808 198.84 153.66C198.407 154.886 197.815 156.027 197.266 157.21C196.948 157.903 196.673 158.581 196.428 159.274C196.486 158.942 196.543 158.596 196.587 158.264C196.933 156.676 197.121 155.074 197.295 153.458C197.497 151.581 197.829 149.72 197.829 147.844C197.829 146.934 198.031 146.054 198.046 145.145C198.075 144.077 198.075 143.038 198.176 141.97C198.364 139.978 198.624 138.015 198.696 136.024C198.768 134.003 199.144 132.026 199.274 130.02C199.418 127.942 199.418 125.806 199.375 123.713C199.36 122.847 199.259 121.995 199.129 121.144C198.985 120.076 198.97 119.037 198.898 117.969C198.768 115.992 198.696 114.043 198.681 112.066C198.652 109.959 198.754 107.895 198.913 105.803C199.071 103.508 199.779 101.271 199.851 98.9761C199.851 98.7885 199.577 98.8029 199.563 98.9761C199.375 100.953 198.725 102.844 198.479 104.792C198.364 105.745 198.335 106.697 198.248 107.65C198.176 108.588 198.017 109.483 198.017 110.421C198.017 114.26 197.959 118.07 198.421 121.894C198.652 123.872 198.522 125.892 198.537 127.884C198.537 129.919 198.335 131.896 198.147 133.916C197.959 135.966 197.959 138.015 197.771 140.065C197.685 141.003 197.598 141.926 197.54 142.864C197.482 144.005 197.555 145.13 197.41 146.27C197.295 147.18 197.367 148.089 197.324 149.013C197.28 150.066 197.092 151.105 196.977 152.144C196.876 153.111 196.775 154.093 196.673 155.06C196.659 154.569 196.645 154.078 196.645 153.588C196.645 152.39 196.601 151.25 196.471 150.066C196.341 148.868 196.168 147.67 196.023 146.472C196.009 146.343 195.995 146.213 195.966 146.068C196.096 146.04 196.197 145.895 196.11 145.765C196.009 145.592 195.937 145.404 195.879 145.217C196.038 144.481 196.038 143.788 195.879 143.052C195.706 142.258 195.576 141.465 195.417 140.671C195.258 139.891 194.853 139.184 194.781 138.376C194.738 137.856 194.608 137.351 194.449 136.861C194.478 136.788 194.492 136.702 194.463 136.601C193.452 132.82 192.975 129.024 192.585 125.142L192.629 125.113ZM188.873 156.488C187.905 154.41 187.024 152.332 185.753 150.412C184.626 148.709 183.803 146.833 182.546 145.188C181.159 143.384 179.989 141.392 178.877 139.415C178.313 138.434 177.75 137.452 177.201 136.457C176.652 135.461 176.392 134.349 176.031 133.281C175.699 132.286 175.453 131.275 175.164 130.265C174.832 129.082 174.254 127.999 173.922 126.83C173.286 124.622 172.824 122.472 172.55 120.191C172.232 117.637 172.015 115.054 172.261 112.47C172.391 111.114 172.622 109.728 172.911 108.386C173.07 107.65 173.272 106.943 173.561 106.235C173.619 106.12 173.662 105.976 173.705 105.846C173.749 106.322 173.821 106.813 173.85 107.318C173.893 108.386 174.023 109.439 174.355 110.45C175.02 112.571 175.757 114.534 177.071 116.352C177.577 117.06 178.198 117.767 178.79 118.402C179.512 119.181 180.177 119.961 180.856 120.783C181.549 121.62 182.329 122.356 182.994 123.222C183.658 124.103 184.366 124.925 185.088 125.733C185.738 126.469 186.345 127.234 186.981 127.97C187.717 128.793 188.209 129.789 188.945 130.611C190.52 132.343 191.516 134.797 192.47 136.918C193.438 139.054 194.319 141.306 194.637 143.629C194.694 144.091 194.897 144.495 194.983 144.943C195.113 145.534 195.084 146.169 195.171 146.776C195.33 147.973 195.446 149.171 195.605 150.369C195.763 151.639 195.735 152.895 195.763 154.179C195.792 155.449 195.908 156.734 195.778 157.989C195.662 159.158 195.475 160.356 195.171 161.468C195.012 162.045 194.897 162.622 194.752 163.199C194.651 163.618 194.622 164.441 194.391 164.787C194.348 164.845 194.362 164.917 194.391 164.96C194.146 165.566 193.886 166.172 193.64 166.779C193.64 166.721 193.669 166.678 193.683 166.62C193.741 166.245 193.698 165.84 193.77 165.465C193.929 164.628 194.16 163.935 194.146 163.07C194.117 161.265 194.218 159.404 194.016 157.614C193.799 155.767 193.438 153.876 192.961 152.072C192.513 150.412 192.268 148.608 191.589 147.035C191.242 146.242 191.098 145.419 190.765 144.64C190.433 143.86 189.942 143.153 189.581 142.374C189.22 141.58 188.945 140.757 188.526 139.992C188.093 139.17 187.558 138.419 187.111 137.611C186.244 135.98 185.161 134.508 184.207 132.935C183.153 131.203 182.055 129.486 180.812 127.869C180.235 127.104 179.888 126.267 179.354 125.488C178.776 124.637 178.169 123.843 177.635 122.948C177.504 122.731 177.158 122.919 177.288 123.15C177.663 123.799 178.039 124.492 178.472 125.098C178.747 125.474 179.036 125.806 179.238 126.224C179.44 126.614 179.585 127.032 179.83 127.408C180.812 128.88 181.867 130.28 182.763 131.795C183.687 133.339 184.597 134.898 185.536 136.442C185.984 137.178 186.345 137.943 186.764 138.679C187.197 139.444 187.688 140.166 188.064 140.959C188.425 141.753 188.743 142.576 189.147 143.341C189.581 144.163 190.072 144.871 190.289 145.78C190.462 146.53 190.852 147.165 191.126 147.887C191.473 148.81 191.589 149.821 191.849 150.759C192.34 152.534 192.773 154.295 193.12 156.099C193.51 158.105 193.452 160.053 193.495 162.074C193.51 163.113 193.495 164.008 193.221 165.003C193.12 165.364 193.105 165.696 193.077 166.071C193.033 166.562 192.86 166.966 192.773 167.428C192.701 167.818 192.773 168.207 192.744 168.597C192.73 168.814 192.687 169.016 192.643 169.232C192.253 164.83 190.679 160.414 188.83 156.431L188.873 156.488ZM211.003 136.356C211.003 137.842 210.989 139.343 210.974 140.829C210.974 142.273 210.787 143.629 210.599 145.058C210.411 146.487 210.324 147.916 210.122 149.344C209.92 150.773 209.588 152.173 209.328 153.588C209.082 154.93 208.851 156.258 208.403 157.556C207.941 158.884 207.551 160.197 207.247 161.569C206.93 162.997 206.352 164.412 205.846 165.783C205.341 167.154 204.821 168.51 204.171 169.809C202.972 172.205 201.859 174.615 200.646 177.011C200.025 178.252 199.476 179.522 198.811 180.749C198.176 181.932 197.497 183.087 196.876 184.285C195.431 187.099 194.377 190.144 193.149 193.06C192.961 193.521 192.788 193.969 192.614 194.416C192.687 193.897 192.773 193.377 192.889 192.858C193.524 189.986 193.669 186.998 194.434 184.155C194.796 182.827 194.926 181.485 195.33 180.157C195.749 178.757 196.096 177.343 196.486 175.929C197.28 173.114 198.797 170.603 199.924 167.919C200.501 166.562 201.123 165.249 201.773 163.921C202.408 162.622 202.842 161.323 203.304 159.952C204.373 156.835 205.76 153.746 206.511 150.542C206.901 148.868 207.002 147.122 207.479 145.477C207.941 143.875 207.854 142.215 208.331 140.613C208.475 140.108 207.71 139.906 207.551 140.397C207.117 141.782 207.146 143.225 206.771 144.596C206.366 146.025 206.02 147.439 205.716 148.897C205.124 151.755 204.041 154.497 203.102 157.268C202.625 158.682 202.206 160.125 201.715 161.554C201.224 162.997 200.458 164.34 199.837 165.725C199.245 167.053 198.754 168.424 198.132 169.752C197.555 170.964 196.905 172.147 196.413 173.403C195.922 174.659 195.59 175.943 195.287 177.256C194.969 178.642 194.463 179.984 194.174 181.384C194.03 182.048 194.016 182.726 193.842 183.39C193.669 184.04 193.51 184.675 193.351 185.338C193.019 186.81 192.831 188.297 192.585 189.784C192.354 191.241 191.935 192.656 191.69 194.113C191.444 195.585 191.271 197.072 191.04 198.558C190.982 198.919 190.968 199.265 190.968 199.612C190.939 199.265 190.895 198.934 190.838 198.645C190.534 197.259 190.144 195.932 189.927 194.532C189.725 193.247 189.769 191.948 189.667 190.635C189.552 189.091 189.566 187.547 189.696 186.017C189.942 183.202 190.303 180.359 190.982 177.617C191.358 176.073 191.791 174.558 192.268 173.042C192.354 173.013 192.412 172.941 192.427 172.826C192.441 172.638 192.484 172.45 192.513 172.277C192.845 171.267 193.178 170.242 193.539 169.246C194.463 166.678 195.706 164.21 196.515 161.612C196.933 160.255 197.324 158.971 197.93 157.672C198.407 156.633 198.941 155.622 199.346 154.54C199.375 154.453 199.418 154.352 199.447 154.266C199.577 154.295 199.736 154.251 199.765 154.078C199.981 153.01 200.545 152.072 200.718 151.004C200.718 150.961 200.718 150.918 200.733 150.874C202.336 146.776 204.012 142.706 205.485 138.549C206.496 135.692 207.724 132.834 208.23 129.832C208.504 128.187 208.909 126.556 209.111 124.896C209.198 124.204 209.169 123.496 209.198 122.804C209.212 122.472 209.241 122.154 209.284 121.822C209.313 121.952 209.342 122.082 209.385 122.212C209.588 122.861 209.689 123.41 209.747 124.088C209.79 124.622 210.035 125.098 210.108 125.632C210.209 126.282 210.281 126.931 210.368 127.581C210.57 129.01 210.974 130.482 210.989 131.925C211.018 133.411 210.974 134.912 210.974 136.399L211.003 136.356Z" fill="#E1D7C6"/>
<path d="M51.2521 104.273C50.9054 102.873 48.2908 102.555 47.1352 102.541C47.1352 102.541 47.1207 102.541 47.1063 102.541C47.5685 102.31 48.0308 102.065 48.4497 101.761C49.5764 100.997 51.8299 99.106 50.6021 97.5473C50.082 96.8834 49.2153 96.9844 48.4642 97.0855C47.4096 97.2298 46.3696 97.5473 45.4306 98.0524C45.1417 98.2112 44.8528 98.3988 44.5784 98.6008C44.8384 98.1823 45.0984 97.7493 45.3295 97.3019C45.8207 96.3494 47.3808 93.6939 45.7629 93.0011C45.0695 92.6981 44.1883 93.131 43.5816 93.463C42.7149 93.9537 42.0071 94.7474 41.5015 95.5845C41.357 95.8299 41.2126 96.0752 41.0826 96.3206C41.1259 95.9742 41.1548 95.6134 41.1693 95.2526C41.2126 93.9681 41.097 90.4899 39.0313 90.7642C37.3701 90.9806 36.6912 93.665 36.5323 94.9784C36.489 95.3392 36.4601 95.7 36.4456 96.0752C35.6945 94.7619 34.3944 93.5063 32.7621 93.7083C30.8408 93.9537 31.7509 96.7679 32.372 97.7638C32.8632 98.5431 33.5132 99.106 34.2355 99.64C33.2532 99.4668 32.2276 99.4379 31.3609 99.4956C30.0752 99.5967 27.9229 99.943 27.8362 101.603C27.7351 103.508 29.6708 104.691 31.2742 105.052C32.0109 105.211 32.7621 105.341 33.5132 105.341C32.4443 106.207 31.1442 107.65 30.9275 109.035C30.6819 110.608 32.4876 110.421 33.4554 110.103C34.2499 109.844 34.9866 109.439 35.6656 108.978C35.3333 109.901 35.1022 110.854 35.16 111.835C35.2178 112.918 35.7234 114.736 37.1823 114.505C37.3557 114.476 37.5146 114.419 37.6735 114.361C37.5435 114.779 37.4279 115.198 37.269 115.602C36.9512 116.367 36.5612 117.103 36.2578 117.882C35.6511 119.427 34.9722 120.956 34.2355 122.457C32.7187 125.546 30.8553 128.374 28.9774 131.246C27.1573 134.046 25.9005 137.207 24.2682 140.122C24.1382 140.368 24.0226 140.613 23.8926 140.844C23.387 139.761 22.8814 138.665 22.2892 137.611C21.148 135.576 20.0357 133.556 19.039 131.477C19.0823 131.232 18.9667 131.001 18.779 130.814C18.7501 130.785 18.7067 130.741 18.6634 130.713C17.9989 129.284 17.4066 127.812 16.9155 126.282C15.5721 122.14 14.792 117.853 14.2287 113.553C13.9253 111.2 14.012 108.848 13.7953 106.481C13.5642 103.941 13.8242 101.329 14.0264 98.8029C14.2287 96.2773 14.5465 93.7949 15.3121 91.3703C15.9188 89.422 16.4388 87.4447 17.0022 85.4964C17.1611 85.3232 17.3055 85.1645 17.4355 85.0201C18.0711 84.2985 18.6056 83.5192 19.0534 82.6965C19.7179 84.1109 20.888 85.3809 22.347 85.9438C23.777 86.4922 25.2649 86.117 25.9872 84.7026C26.5217 83.6491 26.7528 82.4512 26.695 81.2822C28.0818 81.6141 29.6563 81.4987 30.6675 80.4307C31.8664 79.1751 31.462 77.6308 30.653 76.2887C30.2197 75.5815 29.7285 75.0042 29.1507 74.5279C29.4685 74.3259 29.7719 74.095 30.0463 73.8063C31.0142 72.7672 31.462 71.1075 30.5664 69.8663C30.263 69.4478 29.8441 69.188 29.3674 69.0293C30.3208 68.1345 31.1442 67.0665 31.5053 65.8397C31.8809 64.5697 31.5775 63.1553 30.2919 62.5636C28.7174 61.842 26.9695 62.6502 25.6838 63.5883C25.4238 63.7759 25.1638 63.9924 24.9038 64.2089C24.9038 63.444 24.8171 62.7079 24.6438 62.0585C24.2971 60.8173 23.3292 59.3308 21.8847 59.2586C20.4113 59.1865 19.4146 60.774 18.8656 61.9286C18.4756 62.7945 18.2156 63.7182 18.1145 64.6563C17.3633 63.7182 16.4244 62.8811 15.3265 62.4193C14.1998 61.943 12.813 61.9863 12.2497 63.2275C11.643 64.5841 12.3074 66.2294 13.0297 67.4561C11.4263 67.2252 9.80839 67.6582 8.88389 69.0725C7.03488 71.9157 11.903 74.1238 14.7776 74.5568C13.8386 74.9753 12.943 75.5526 12.163 76.1299C10.8773 77.0824 9.73616 78.4823 9.20169 79.9977C8.855 80.9647 8.76833 82.6821 10.0684 82.9563C10.7907 83.1151 11.6574 82.8264 12.3652 82.5811C12.163 83.1439 12.0041 83.7212 11.903 84.2985C11.7152 85.4098 11.7874 87.4015 13.2031 87.6612C14.1564 87.8344 15.1532 87.2283 15.991 86.5067C15.5721 87.7767 15.1821 89.0612 14.7776 90.3312C14.1131 92.3661 13.6509 94.3578 13.4197 96.4937C13.1742 98.7307 13.0875 100.982 13.0153 103.234C12.9286 105.485 13.3186 107.693 13.2897 109.93C13.2608 111.994 13.622 114.043 13.9831 116.064C14.3587 118.2 14.5898 120.379 15.1676 122.472C15.7021 124.434 16.2799 126.368 16.9588 128.273C16.0488 126.931 15.0376 125.661 13.8386 124.564C12.0185 122.905 9.51948 121.461 6.9771 121.447C5.34478 121.447 2.81684 122.717 4.31916 124.536C5.08476 125.459 5.98037 126.267 6.93377 126.989C7.91605 127.739 9.07168 128.115 10.2129 128.577C10.5307 128.706 10.8918 128.706 11.1951 128.851C11.4263 128.952 11.4985 129.067 11.7585 129.125C12.5241 129.298 13.2464 129.356 13.9975 129.601C14.7631 129.861 15.5143 130.092 16.2655 130.424C16.8433 130.684 17.6089 130.987 18.1145 131.434C18.1289 131.449 18.1434 131.463 18.1723 131.477C18.2011 131.506 18.23 131.521 18.2589 131.55C18.6489 132.416 19.0534 133.267 19.5157 134.104C20.888 136.63 22.2025 139.184 23.4448 141.768C23.1126 142.59 22.8237 143.427 22.5492 144.293C22.0725 145.794 21.4513 147.252 20.9602 148.738C20.3391 150.629 19.9057 152.563 19.5446 154.497C19.5734 152.722 19.4868 150.946 19.0534 149.186C18.8223 148.248 18.6489 147.223 18.2156 146.357C18.0134 145.953 17.6956 145.621 17.45 145.246C17.2189 144.914 17.0455 144.567 16.6988 144.351C15.3265 143.514 13.9398 144.524 13.8675 146.025C13.8242 146.963 14.2142 148.002 14.5754 148.854C14.9943 149.85 15.5865 150.788 16.0632 151.769C16.5688 152.794 17.32 153.631 17.8545 154.641C18.2734 155.435 18.6056 156.33 18.8512 157.224C18.8945 157.398 18.9379 157.585 18.9667 157.758C18.9379 157.932 18.909 158.105 18.8801 158.292C18.3167 161.554 18.0134 164.816 17.9122 168.135C17.8689 169.694 18.23 171.224 18.4323 172.768C18.6634 174.457 18.9234 176.116 19.3423 177.776C20.1079 180.893 20.8446 183.982 22.1303 186.926C22.9248 188.73 23.5315 190.606 24.1526 192.482C24.7593 194.315 25.4672 196.105 25.9438 197.981C26.305 199.381 26.5939 200.795 26.7961 202.21C26.6661 201.834 26.5361 201.459 26.3917 201.084C26.1894 200.579 25.8572 200.218 25.5972 199.756C25.3805 199.381 25.2649 198.962 25.0771 198.573C24.8749 198.14 24.6582 197.707 24.4415 197.274C24.1815 196.769 23.7915 196.379 23.517 195.888C23.0114 195.037 22.5781 194.243 21.9569 193.449C21.668 193.088 21.3358 192.771 21.0469 192.41C20.6713 191.934 20.3679 191.414 19.9635 190.967C19.5734 190.534 19.0823 190.216 18.7067 189.784C18.3167 189.336 18.0567 188.773 17.7244 188.283C17.1466 187.46 16.3232 186.868 15.7021 186.089C14.3009 184.314 12.7552 182.654 11.0796 181.139C10.2851 180.417 9.23058 179.667 8.58054 178.815C8.27718 178.411 8.08939 177.935 7.80049 177.531C7.46824 177.083 7.02044 176.751 6.65931 176.333C6.22594 175.813 5.96593 175.178 5.5759 174.63C5.21477 174.125 4.79585 173.706 4.50695 173.158C3.95802 172.147 3.52466 171.094 3.01908 170.055C2.75906 169.535 2.39793 169.059 2.18125 168.525C1.92123 167.904 1.74789 167.212 1.60343 166.562C1.30008 165.148 1.0834 163.661 1.18452 162.218C1.21341 161.756 0.52003 161.727 0.476694 162.175C0.361131 163.272 0.130005 164.325 0.0577787 165.436C-0.014448 166.533 -0.0866748 167.63 -2.67963e-06 168.727C0.187787 171.051 0.260014 173.374 0.606702 175.669C0.9245 177.747 1.5601 179.825 2.10902 181.86C2.62905 183.809 3.43799 185.641 4.16026 187.518C4.91142 189.48 6.28373 191.27 7.42491 193.031C7.90161 193.781 8.45053 194.402 9.08612 195.008C9.89506 195.773 10.5018 196.697 11.224 197.534C11.8596 198.27 12.5819 198.934 13.2464 199.626C13.9975 200.391 14.662 201.243 15.4132 201.993C16.9011 203.48 18.5912 204.779 20.0935 206.251C21.8125 207.925 23.4737 209.83 24.6582 211.923C25.2649 212.991 25.785 214.116 26.3483 215.213C26.9984 216.483 27.2584 217.695 27.3162 219.124C27.3162 219.254 27.4173 219.341 27.5184 219.355C27.5184 219.528 27.5328 219.701 27.5617 219.889C27.6773 220.943 27.5617 221.982 27.5617 223.035C27.5473 224.118 27.6051 225.2 27.634 226.283C27.634 226.557 28.024 226.571 28.0529 226.311C28.3129 224.493 28.6885 222.602 28.6596 220.755C28.6596 220.279 28.6162 219.817 28.5874 219.355C28.6451 219.009 28.6307 218.648 28.6451 218.33C28.7029 217.133 28.8763 215.906 28.804 214.708C28.804 214.491 28.7896 214.275 28.7751 214.059C28.934 214.03 29.0929 213.9 29.0496 213.698C28.8474 212.659 28.7751 211.605 28.8185 210.537C28.8618 209.397 28.7751 208.271 28.7896 207.131C28.8329 205.024 29.0207 202.917 29.1218 200.824C29.353 196.437 29.7574 192.021 30.4219 187.676C31.0719 183.347 31.722 178.931 32.9932 174.745C33.5854 172.768 34.0766 170.776 34.7555 168.814C35.4344 166.865 36.1423 164.931 36.9079 163.012C37.8035 160.76 38.6558 158.552 39.7392 156.387C40.7937 154.251 42.2815 152.39 43.4661 150.34C43.5527 150.196 43.3505 150.066 43.2494 150.196C42.0504 151.986 40.6492 153.631 39.6236 155.536C38.6413 157.354 37.789 159.216 37.0668 161.15C35.5933 165.119 33.961 169.016 32.8632 173.114C32.2998 175.207 31.6787 177.256 31.2597 179.378C30.8408 181.528 30.4941 183.693 30.1186 185.858C29.353 190.303 28.8185 194.864 28.5729 199.367C28.4429 201.82 28.2696 204.273 28.1684 206.727C28.154 207.16 28.154 207.578 28.1684 208.011C28.1251 207.29 28.0962 206.583 28.0529 205.861C27.9806 204.865 28.0529 203.898 28.024 202.902C27.9951 201.777 27.764 200.68 27.8362 199.54C27.9806 197.389 27.7206 195.253 27.8506 193.088C27.9806 190.88 28.1395 188.687 28.2696 186.479C28.3851 184.314 28.3707 182.134 28.5874 179.984C28.7896 177.834 29.1796 175.727 29.353 173.576C29.5263 171.397 29.613 169.232 29.743 167.053C29.8008 166.057 29.9163 165.047 29.9163 164.036C29.9163 162.911 29.743 161.785 29.6708 160.674C29.5407 158.61 29.4541 156.561 29.0063 154.526C28.5729 152.534 27.9084 150.615 27.2728 148.695C26.6517 146.833 25.9727 145.015 25.0482 143.269C24.7449 142.691 24.4704 142.114 24.196 141.537C24.8316 140.137 25.6983 138.823 26.4061 137.467C27.1862 135.98 27.8795 134.465 28.7029 133.007C28.7896 132.863 28.8763 132.719 28.9629 132.574C29.9452 131.708 31.2164 131.073 32.3576 130.525C33.7877 129.832 35.3189 129.341 36.8068 128.793C38.0491 128.331 39.6092 127.999 40.577 127.018C41.0537 126.527 41.6893 125.401 41.1837 124.738C41.227 124.665 41.2559 124.564 41.1981 124.463C40.9526 123.9 40.5481 123.727 39.9703 123.626C39.3202 123.511 38.5546 123.453 37.919 123.641C36.4456 124.088 35.1311 124.911 33.9321 125.849C33.3688 126.282 32.8343 126.758 32.3287 127.249C33.0365 126.051 33.7155 124.839 34.3222 123.583C35.1166 121.952 35.8389 120.307 36.4745 118.618C36.7779 117.825 37.0957 117.031 37.4424 116.251C37.7746 115.515 37.9624 114.736 38.208 113.986C39.2769 113.25 39.9847 111.835 40.3459 110.709C40.4903 110.276 40.6059 109.829 40.6926 109.367C40.8948 109.988 41.1548 110.594 41.5159 111.157C42.2093 112.239 43.8128 113.379 45.1128 112.615C46.4851 111.806 46.6152 109.916 46.2829 108.545C46.0807 107.693 45.7918 106.798 45.3295 106.048C46.1529 106.207 47.0485 106.264 47.8863 106.192C48.8253 106.12 51.5266 105.629 51.1654 104.128L51.2521 104.273ZM19.0679 80.9358C18.8078 79.8101 18.8223 78.6411 19.1834 77.6308C19.3279 77.2412 20.3679 75.6969 20.3535 76.7793C20.3535 77.4288 19.949 78.2659 19.7612 78.8864C19.5446 79.5648 19.3279 80.2575 19.0679 80.9358ZM18.4178 72.6373C18.4178 72.7239 18.4178 72.8105 18.4612 72.8971C18.5189 73.1136 18.6489 73.3156 18.7934 73.5032C18.9234 73.7486 19.1256 73.9218 19.3857 74.0084C19.7468 74.2248 20.1802 74.3259 20.5702 74.2393C21.1191 74.1094 21.7836 73.4455 21.8125 72.8249C21.9136 73.128 21.7691 73.4599 21.6391 73.7197C21.3936 74.1816 20.9746 74.5279 20.4402 74.5856C19.9635 74.6289 19.5012 74.4413 19.1256 74.1382C18.6923 73.7774 18.2878 73.4022 18.3745 72.7961C18.3745 72.7383 18.4034 72.695 18.4178 72.6373ZM30.393 77.2123C30.7975 78.0061 31.0575 78.7854 30.5519 79.5936C30.0174 80.4596 28.934 80.7915 27.9518 80.7626C27.5328 80.7626 27.085 80.6616 26.6372 80.5173C26.5794 80.1565 26.4928 79.7957 26.3772 79.4493C25.8861 77.9772 25.0338 76.2742 23.517 75.6392C22.0147 75.0042 21.4802 76.7216 21.9858 77.8618C22.7081 79.4926 24.2682 80.4451 25.8716 81.0801C25.9294 81.5131 25.9439 81.9461 25.9005 82.379C25.7272 84.1975 24.9327 86.2613 22.7081 85.4964C21.2202 84.9768 20.0501 83.6491 19.4146 82.0904C19.6746 81.5564 19.9057 81.0224 20.1224 80.4596C20.4546 79.5503 20.6857 78.5978 20.9313 77.6597C21.0758 77.0969 21.2491 76.4474 20.9169 75.9134C20.758 75.6681 20.5846 75.5382 20.4257 75.4804C20.8013 75.4804 21.1769 75.4083 21.538 75.2207C22.0292 74.9753 22.4914 74.5424 22.7514 74.0372C23.1559 74.8743 24.9905 75.264 25.6405 75.3217C26.6083 75.3939 27.5906 75.2928 28.4718 74.9465C29.2663 75.5237 29.9019 76.2598 30.393 77.2412V77.2123ZM25.6983 80.1276C24.9327 79.7524 24.2249 79.2473 23.7048 78.7133C23.4304 78.439 22.3758 77.068 22.7803 76.5773C23.257 76.0144 24.4704 77.5587 24.6727 77.8762C25.1205 78.5545 25.4672 79.3194 25.6838 80.1276H25.6983ZM23.8782 73.5754C24.6871 73.2867 25.8861 73.6909 26.6517 73.9651C27.085 74.1238 27.4895 74.3114 27.8651 74.5279C26.8539 74.8021 25.7127 74.7733 24.7593 74.5135C24.4415 74.4269 23.777 74.2104 23.6326 73.9073C23.4737 73.561 23.6326 73.662 23.8637 73.5754H23.8782ZM15.0521 86.4489C14.1998 87.0695 13.0008 87.5025 12.6108 86.1458C12.3797 85.3232 12.5097 84.4573 12.7408 83.6491C12.8853 83.1872 13.0442 82.7254 13.2319 82.2636C13.9109 81.9605 14.5609 81.5997 15.1821 81.1812C16.641 80.1853 17.9556 78.7999 18.5767 77.1257C18.909 76.2454 18.8801 75.1052 17.6378 75.567C16.9733 75.8268 16.4533 76.3608 15.9621 76.8371C15.211 77.5731 14.532 78.3813 13.9975 79.2905C13.5064 80.1276 13.0297 81.0224 12.6541 81.9461C12.6108 81.9605 12.5675 81.9894 12.5241 82.0038C11.7296 82.3213 10.0395 82.9852 9.60616 81.8595C9.28836 81.008 9.69283 80.0266 10.0829 79.2905C10.7618 78.0349 11.7296 76.9525 12.9286 76.1588C14.1276 75.365 15.6588 74.6145 17.1177 74.5568C17.58 74.5424 17.5367 73.8929 17.06 73.9218C16.7566 73.9506 16.4533 74.0084 16.1499 74.0805C16.0921 74.0517 16.0343 74.0228 15.9621 74.0372C14.0409 74.2248 7.07822 71.5838 9.85173 68.9427C10.8629 67.9901 12.1919 67.8169 13.4631 68.1056C14.1853 69.2169 15.0232 70.256 16.2655 70.79C17.3778 71.2662 17.6233 70.5591 16.9588 69.6643C16.2221 68.654 14.9654 67.9035 13.6364 67.5716C13.5353 67.4128 13.4342 67.2397 13.3475 67.0809C12.683 65.9119 11.5563 62.7368 13.8386 62.5781C15.2832 62.477 16.641 63.7904 17.4644 64.815C17.6667 65.0604 17.8689 65.3346 18.0567 65.6232C18.0422 66.2294 18.0567 66.8356 18.1434 67.4417C18.23 68.1056 18.6201 70.79 19.6601 70.6168C19.7468 70.6024 19.819 70.5302 19.8624 70.4436C20.4691 68.8128 19.6601 66.9221 18.7934 65.5799C18.7067 65.4501 18.6201 65.3202 18.5189 65.1758C18.5912 63.9635 18.8801 62.7512 19.429 61.6977C19.7612 61.0627 20.209 60.4132 20.8158 60.0236C21.798 59.3885 22.8237 59.8792 23.4592 60.7452C24.3693 61.9575 24.2971 63.4873 24.1093 64.9305C23.1992 65.8253 22.3903 66.85 21.8414 67.9035C21.538 68.4664 20.628 70.1838 21.6536 70.5735C22.7948 70.992 23.9359 68.5241 24.2393 67.8025C24.5571 67.0232 24.7738 66.0706 24.8604 65.1181C25.496 64.5264 26.2039 63.9924 26.955 63.5883C28.3129 62.8811 30.9275 62.6502 30.8553 64.8583C30.8119 66.3449 29.6419 67.7448 28.6596 68.755C28.6162 68.7983 28.5729 68.8272 28.5296 68.8705C27.7784 68.8128 26.9984 68.9282 26.3772 69.1303C25.8716 69.3035 23.1848 70.2849 24.0804 71.1796C24.4993 71.6126 25.4672 71.3673 25.9438 71.2374C26.7672 71.0209 27.5184 70.5158 28.1973 70.0106C28.3562 69.8952 28.5296 69.7653 28.6885 69.6354C28.7751 69.6498 28.8474 69.6498 28.934 69.6787C30.8697 70.2416 30.653 72.5796 29.3674 73.7197C29.1652 73.9073 28.9196 74.0517 28.674 74.1815C28.0529 73.7486 27.345 73.4022 26.5506 73.128C25.8427 72.8826 23.6759 72.3054 22.9103 73.027C22.9103 72.9692 22.9103 72.9259 22.9103 72.8682C22.737 72.0312 22.0436 71.3817 21.3069 71.0209C20.5557 70.6601 19.7179 70.6601 18.9523 71.0209C18.2878 71.324 17.8256 71.8868 17.6811 72.5651C17.5655 72.7383 17.4933 72.9115 17.4644 73.1136C17.3344 73.9651 18.1434 74.6289 18.8078 75.0042C19.2268 75.2351 19.6746 75.3794 20.1368 75.4227C19.429 75.567 18.7356 76.9958 18.5623 77.5443C18.1434 78.8576 18.2589 80.4163 18.6923 81.7729C18.49 82.2492 18.2589 82.711 17.9989 83.1439C17.8111 83.447 17.6233 83.7357 17.4066 84.0387C17.3344 83.8367 16.9877 83.7645 16.8866 84.0387C16.7422 84.3995 16.6122 84.7748 16.4821 85.1356C16.0343 85.6263 15.5432 86.0737 15.0376 86.4489H15.0521ZM13.5353 81.5564C13.8531 80.8637 14.1998 80.1709 14.5898 79.5215C15.2832 78.3525 16.3666 76.9092 17.5944 76.2598C18.5912 75.7258 17.8256 77.2845 17.6378 77.6164C17.2477 78.3092 16.7566 78.973 16.2077 79.5503C15.4421 80.3585 14.5176 81.0368 13.5353 81.5708V81.5564ZM14.142 68.3365C14.2287 68.3654 14.3009 68.3942 14.3876 68.4231C15.0809 68.7117 15.731 69.0725 16.251 69.621C16.381 69.7509 16.93 70.357 16.8144 70.458C16.7277 70.5446 16.3666 70.3281 16.2655 70.2849C15.4132 69.8807 14.7054 69.1447 14.142 68.3365ZM18.5623 66.4314C19.0101 67.2397 19.3423 68.12 19.4434 68.9571C19.4723 69.188 19.5446 69.823 19.429 69.8086C19.299 69.8086 19.1256 69.1303 19.0823 69.0148C18.779 68.1922 18.6201 67.3118 18.5623 66.4314ZM23.9937 66.0562C23.9071 66.6335 23.7915 67.2108 23.5604 67.7448C23.3292 68.2932 22.8525 69.4189 22.3036 69.7509C21.5236 70.2127 22.0292 69.0437 22.1736 68.7117C22.4914 67.9757 22.9248 67.3118 23.4448 66.7057C23.6181 66.4892 23.8204 66.2727 24.0082 66.0706L23.9937 66.0562ZM27.7495 69.5921C27.5039 69.7653 27.2728 69.9385 27.0128 70.0972C26.7528 70.256 26.4928 70.4147 26.2183 70.5302C26.1316 70.5735 24.9182 70.9632 24.7593 70.8044C24.6438 70.689 26.0739 70.0106 26.3194 69.9096C26.7672 69.7364 27.2584 69.621 27.7495 69.5921ZM15.3843 128.317C14.9943 128.1 14.6187 127.84 14.2431 127.595C13.8531 127.364 13.4342 127.205 13.0297 127.003C12.0908 126.527 11.0796 126.152 10.0684 125.834C9.69283 125.719 9.50504 126.282 9.88062 126.412C10.7618 126.7 11.6285 127.061 12.4663 127.451C12.8564 127.624 13.2464 127.812 13.6364 128.014C14.012 128.201 14.3298 128.476 14.6909 128.692C15.1387 128.966 15.601 129.24 16.0343 129.515C15.1676 129.183 14.272 128.923 13.3475 128.75C12.8708 128.649 12.3652 128.75 11.8885 128.678C11.6863 128.634 11.5129 128.49 11.3107 128.432C11.0507 128.36 10.7762 128.403 10.5162 128.331C9.44726 128.043 8.27718 127.566 7.38157 126.902C6.45707 126.224 5.66258 125.445 4.91142 124.579C4.42028 124.002 4.08803 123.41 4.72363 122.804C5.22921 122.327 5.95148 122.096 6.64486 122.068C8.97056 121.981 11.5418 123.395 13.2031 124.896C14.5754 126.137 15.7021 127.595 16.6988 129.125C16.2655 128.851 15.8321 128.591 15.3843 128.331V128.317ZM18.779 154.064C18.6345 153.328 18.36 152.635 18.1 151.928C17.8256 151.177 17.6233 150.398 17.2622 149.691C17.1177 149.402 16.6699 149.633 16.8144 149.922C17.1611 150.586 17.3344 151.307 17.5944 152.014C17.8689 152.75 18.1434 153.472 18.3023 154.251C18.3023 154.251 18.3023 154.251 18.3023 154.266C18.0278 153.746 17.71 153.256 17.3489 152.794C16.6266 151.841 16.2221 150.629 15.6299 149.59C15.0665 148.608 14.3731 147.194 14.5031 146.025C14.5465 145.563 14.8065 144.972 15.2398 144.755C15.9043 144.409 16.5544 144.914 16.9011 145.433C17.2044 145.881 17.58 146.256 17.8256 146.747C18.0711 147.252 18.2011 147.829 18.3456 148.378C18.6634 149.59 18.9523 150.788 19.0679 152.043C19.169 153.169 19.1401 154.309 19.0823 155.449C18.9812 154.987 18.8801 154.526 18.779 154.064ZM19.2845 166.49C19.5012 165.364 19.8046 164.253 20.3391 163.228C20.5991 162.752 20.9169 162.319 21.2202 161.872C21.5669 161.367 21.8269 160.731 22.2892 160.313C22.6359 159.995 23.3437 159.606 23.8059 159.779C24.456 160.01 24.5282 160.89 24.5138 161.453C24.4704 162.651 23.9937 163.921 23.387 164.931C23.0837 165.436 22.7659 165.956 22.3614 166.389C22.0292 166.735 21.668 167.067 21.3647 167.442C20.7435 168.251 20.3102 169.16 19.7901 170.026C19.7323 170.112 19.689 170.199 19.6457 170.271C19.7901 169.665 19.9635 169.059 20.1657 168.453C20.628 167.096 21.1913 165.754 21.3791 164.325C21.408 164.08 21.0324 164.065 20.9891 164.311C20.7435 165.812 20.079 167.168 19.5446 168.583C19.3568 169.073 19.1979 169.578 19.0534 170.084C19.0245 168.871 19.0534 167.731 19.2845 166.504V166.49ZM27.4173 208.791C27.5617 210.119 27.9229 211.432 27.9373 212.774C27.9373 213.207 27.9662 213.626 27.9806 214.059C27.6051 213.019 27.085 212.038 26.6372 211.028C25.9005 209.368 24.7304 207.939 23.8637 206.337C23.0114 204.735 22.0869 203.263 21.0902 201.733C20.3246 200.55 19.6746 199.107 18.5912 198.169C17.2911 197.043 16.4821 195.455 15.2832 194.214C14.6476 193.55 14.0553 192.872 13.4053 192.223C12.7841 191.602 12.3219 190.895 11.7874 190.202C11.1663 189.379 10.4295 188.687 9.86617 187.806C9.3028 186.912 8.63832 186.089 8.10384 185.18C7.09267 183.419 6.35595 181.456 5.22921 179.782C5.01253 179.464 4.47806 179.739 4.69474 180.056C5.67702 181.499 6.34151 183.188 7.17934 184.732C7.98828 186.204 8.94167 187.734 9.99618 189.047C10.5307 189.711 11.1518 190.289 11.6285 191.01C12.033 191.616 12.423 192.15 12.9141 192.684C14.1709 194.027 15.3554 195.427 16.4099 196.927C17.32 198.241 18.4467 199.265 19.299 200.608C20.1802 201.993 21.1047 203.379 21.9425 204.793C22.8525 206.352 23.647 207.968 24.6149 209.512C25.5394 210.984 26.2328 212.586 26.955 214.16C27.2873 214.881 27.4173 215.617 27.4751 216.382C27.1717 215.458 26.695 214.607 26.2905 213.727C25.4383 211.836 24.5138 210.046 23.1559 208.459C21.7547 206.842 20.3391 205.356 18.779 203.898C18.0278 203.191 17.2622 202.498 16.4966 201.791C15.7454 201.113 15.1532 200.29 14.4453 199.569C13.6942 198.789 12.8997 198.039 12.163 197.245C11.4407 196.466 10.8629 195.542 10.0973 194.792C9.37503 194.07 8.71054 193.464 8.14718 192.583C7.52603 191.631 6.93377 190.678 6.29817 189.74C5.1281 188.008 4.46361 186.046 3.68356 184.126C2.86018 182.091 2.45571 179.926 1.87789 177.819C1.18452 175.322 1.02562 172.739 0.881164 170.17C0.794492 168.785 0.70782 167.457 0.794492 166.071C0.794492 166.071 0.794492 166.043 0.794492 166.028C0.967836 166.923 1.21341 167.789 1.50231 168.611C1.66121 169.059 1.89234 169.463 2.13791 169.882C2.42682 170.401 2.61461 170.949 2.86018 171.469C3.27909 172.349 3.69801 173.345 4.24693 174.153C4.79585 174.962 5.31589 175.799 5.86481 176.592C6.09594 176.924 6.38484 177.199 6.67375 177.487C7.16489 177.978 7.42491 178.555 7.80049 179.118C8.36386 179.97 9.27391 180.634 10.0251 181.326C10.8629 182.12 11.7007 182.885 12.4808 183.736C13.2031 184.53 13.9975 185.266 14.6476 186.132C15.3121 187.027 16.1499 187.734 16.8433 188.615C17.5078 189.437 17.9122 190.318 18.7067 191.025C19.559 191.79 20.1224 192.757 20.9024 193.594C21.5958 194.344 22.2169 195.196 22.6648 196.119C22.8525 196.495 23.0837 196.754 23.3292 197.086C23.7048 197.606 23.9215 198.198 24.2104 198.76C24.4126 199.15 24.5571 199.569 24.7449 199.973C24.9616 200.434 25.3371 200.81 25.5683 201.272C26.1028 202.383 26.4639 203.696 26.7817 204.88C27.1428 206.15 27.2584 207.477 27.4028 208.791H27.4173ZM25.1205 145.217C26.0016 147.18 26.6372 149.272 27.3017 151.322C27.9373 153.313 28.4718 155.348 28.6885 157.427C28.804 158.523 28.8329 159.62 28.9051 160.717C28.9774 161.843 29.1652 162.968 29.1652 164.08C29.1652 166.259 28.934 168.453 28.8185 170.618C28.5874 175.019 27.8506 179.349 27.7206 183.736C27.6484 186.219 27.4895 188.701 27.3739 191.183C27.3162 192.425 27.215 193.651 27.2439 194.893C27.2728 196.134 27.4751 197.36 27.4173 198.602C27.3884 199.208 27.3739 199.785 27.3884 200.362C27.3595 200.189 27.345 200.016 27.3017 199.843C26.6517 196.48 25.5827 193.161 24.456 189.928C23.4015 186.868 21.8847 184.054 21.0469 180.922C20.5991 179.277 20.1224 177.632 19.7612 175.957C19.5157 174.832 19.3568 173.706 19.1834 172.58C19.2701 172.407 19.3134 172.248 19.3423 172.075C19.6601 171.397 19.9635 170.719 20.3679 170.084C20.888 169.261 21.3069 168.381 21.928 167.63C22.5781 166.836 23.2859 166.201 23.8348 165.321C24.3982 164.397 24.7738 163.43 25.0049 162.362C25.2794 161.136 25.0771 158.653 23.1992 159.043C22.3325 159.216 21.6825 159.779 21.2058 160.501C20.6424 161.352 20.0213 162.189 19.559 163.098C19.2268 163.777 18.9812 164.484 18.7934 165.191C18.8512 163.791 18.9234 162.391 19.1256 161.006C19.2268 160.327 19.3279 159.649 19.4434 158.971C19.5157 158.971 19.5879 158.927 19.5879 158.841C19.5879 158.653 19.5879 158.451 19.559 158.264C19.949 155.897 20.3968 153.53 20.9891 151.206C21.408 149.575 21.9569 147.988 22.5636 146.415C23.0548 145.13 23.4159 143.803 23.9071 142.532C24.326 143.413 24.7304 144.308 25.1349 145.202L25.1205 145.217ZM33.3977 127.306C34.3944 126.368 35.4778 125.546 36.7201 124.968C37.3412 124.68 38.0491 124.319 38.728 124.247C39.378 124.175 40.4903 124.146 40.7937 124.824C40.7937 124.824 40.7937 124.824 40.8081 124.853C40.8948 125.387 40.8803 125.979 40.5481 126.426C40.1436 126.989 39.5658 127.278 38.9447 127.566C37.6446 128.172 36.2289 128.649 34.8711 129.096C33.5854 129.529 32.3287 130.092 31.1297 130.756C30.653 131.016 30.1474 131.319 29.6708 131.665C29.7719 131.521 29.873 131.362 29.9741 131.218C30.003 131.174 30.0319 131.145 30.0608 131.102C30.1186 131.044 30.1908 130.987 30.2486 130.915C30.5375 130.626 30.8697 130.366 31.1875 130.106C31.9098 129.515 32.7476 129.024 33.5421 128.548C34.3077 128.1 35.0589 127.638 35.8389 127.22C36.6334 126.787 37.4857 126.498 38.3091 126.123C38.5691 126.008 38.3669 125.618 38.1068 125.733C37.3123 126.094 36.4745 126.383 35.6945 126.787C34.8855 127.205 34.1199 127.711 33.3543 128.201C32.6609 128.649 31.9242 129.111 31.2886 129.645C31.1731 129.746 31.0575 129.861 30.9419 129.962C31.722 129.053 32.4876 128.144 33.3688 127.306H33.3977ZM40.7937 98.3266C41.0248 97.6483 41.3282 96.9989 41.6748 96.3783C42.036 95.7144 42.4549 95.0938 43.0038 94.5743C43.4516 94.1702 45.4162 92.7558 45.9073 93.8959C46.1818 94.5454 45.5317 95.6711 45.2862 96.2628C44.9684 96.9989 44.6072 97.706 44.2028 98.3988C43.9861 98.7885 43.7405 99.1637 43.495 99.5245C43.3505 99.6688 43.1916 99.7987 43.0616 99.943C42.4838 100.535 41.6604 101.357 41.4293 102.18C41.1115 101.906 40.7648 101.646 40.4036 101.458C40.3892 101.458 40.3603 101.43 40.3459 101.43C40.6203 100.78 40.5914 99.842 40.6637 99.2647C40.707 98.9472 40.7648 98.6297 40.8081 98.3266H40.7937ZM37.5579 93.2898C37.8035 92.6259 38.3091 91.4136 39.1036 91.2693C40.4036 91.0384 40.6781 93.3187 40.7214 94.1413C40.7648 94.9062 40.7214 95.6567 40.6348 96.4216C40.5625 96.9844 40.4614 97.5473 40.3603 98.1102C40.2881 98.3411 40.2014 98.5575 40.1436 98.7885C39.9414 99.5101 39.6958 100.362 39.638 101.155C39.1758 101.025 38.6847 100.982 38.2224 101.054C38.338 100.564 38.0057 99.8564 37.8757 99.4668C37.6735 98.8318 37.4279 98.1967 37.1679 97.5762C37.139 96.9267 37.1101 96.2917 37.139 95.6567C37.1679 94.8485 37.2835 94.0403 37.5724 93.2754L37.5579 93.2898ZM38.9302 105.139C38.9302 105.355 38.3957 105.875 38.3091 105.961C38.0057 106.293 37.7024 106.611 37.3846 106.943C37.7746 106.106 38.1791 105.442 38.468 105.196C38.6702 105.023 38.9013 104.763 38.9158 105.139H38.9302ZM33.6866 98.4132C32.8632 97.605 30.8842 93.6506 33.6577 94.3433C35.1889 94.733 35.8678 96.0896 36.4312 97.4318C36.4456 97.4896 36.4745 97.5329 36.489 97.5906C36.5034 97.9514 36.5323 98.2978 36.5756 98.6441C36.6623 99.4379 36.879 100.665 37.5146 101.271C37.4424 101.3 37.3701 101.343 37.2979 101.386C37.399 101.3 37.4279 101.155 37.2979 101.04C36.9079 100.665 36.4456 100.39 35.94 100.16C35.7522 100.001 35.5645 99.8564 35.4056 99.741C34.8277 99.3225 34.2066 98.9183 33.6866 98.4277V98.4132ZM33.051 104.634C31.4909 104.504 29.6419 104.114 28.8763 102.57C27.8795 100.549 30.6675 100.188 32.0253 100.131C32.9932 100.087 34.2355 100.131 35.3044 100.463C35.8534 100.896 36.4312 101.314 37.009 101.458C37.0812 101.473 37.1534 101.458 37.2112 101.43C36.8501 101.675 36.619 102.021 36.6045 102.469C36.5901 102.945 36.7923 103.407 37.1101 103.753C37.1246 103.768 37.1534 103.796 37.1679 103.811C37.0234 103.854 36.8934 103.897 36.749 103.941C36.2145 104.042 35.68 104.201 35.1744 104.403C34.4811 104.576 33.7732 104.677 33.051 104.619V104.634ZM32.2998 109.858C30.2919 109.887 33.1232 106.741 33.6577 106.235C34.1055 105.803 34.6255 105.456 35.1744 105.168C35.9256 104.98 36.6623 104.706 37.399 104.46C37.5868 104.431 37.789 104.417 37.9768 104.417C38.0635 104.475 38.1646 104.518 38.2513 104.576C37.5579 105.196 36.9079 106.394 36.749 106.726C36.5178 107.188 36.2867 107.65 36.0845 108.126C35.0011 108.992 33.6288 109.829 32.3143 109.844L32.2998 109.858ZM40.1292 110.017C39.927 110.782 39.6814 111.575 39.248 112.239C39.0313 112.586 38.6991 113.033 38.3091 113.379C38.1935 113.336 38.0635 113.379 38.0057 113.509C37.9913 113.553 37.9768 113.596 37.9624 113.639C37.7746 113.755 37.5579 113.841 37.3557 113.856C35.2755 114.029 35.8967 110.681 36.9079 108.054C37.3123 107.708 37.6879 107.332 38.0491 106.943C38.3524 106.625 39.3347 105.774 39.5514 105.052C39.638 105.081 39.7247 105.11 39.8258 105.124C39.9414 105.139 40.0425 105.153 40.1581 105.168C40.1292 105.211 40.1147 105.254 40.1147 105.312C40.057 106.25 40.2592 107.188 40.4759 108.112C40.4181 108.79 40.2881 109.454 40.1436 109.988L40.1292 110.017ZM50.4143 104.532C50.2987 105.947 47.6119 105.759 46.5863 105.615C45.8495 105.514 45.1273 105.341 44.4772 104.965C44.015 104.706 43.6105 104.287 43.1194 104.114C42.7005 103.955 42.2382 104.561 42.6138 104.893C43.0183 105.24 43.5238 105.456 43.9428 105.803C44.4917 106.25 44.8817 106.813 45.1706 107.462C45.7484 108.79 46.3985 110.608 45.2284 111.806C43.9861 113.076 42.3827 111.157 41.8626 110.118C41.4726 109.324 41.1837 108.4 40.9959 107.462C40.9959 106.741 40.9815 105.889 40.707 105.24C40.707 105.225 40.6926 105.211 40.6781 105.196C40.8659 105.167 41.0392 105.11 41.2126 105.023C41.5737 104.836 41.9349 104.561 42.036 104.143C42.0938 103.897 42.0793 103.652 42.0071 103.407C42.1804 103.32 42.2815 103.104 42.1226 102.916C42.0071 102.786 41.8915 102.671 41.776 102.541C42.0071 102.382 42.0938 102.151 42.2671 101.92C42.6138 101.444 42.9894 100.997 43.3361 100.52C43.4227 100.405 43.495 100.289 43.5816 100.174C43.9717 99.8132 44.3617 99.4668 44.795 99.1637C45.474 98.673 46.1962 98.2833 46.9907 98.038C47.6841 97.8215 48.8542 97.4318 49.5764 97.6483C52.1766 98.4277 48.103 101.473 47.2796 101.935C46.8318 102.18 46.384 102.397 45.9218 102.613C45.344 102.671 44.7661 102.772 44.1883 102.931C43.5816 103.104 43.0327 103.248 42.6138 103.739C42.4982 103.883 42.6282 104.114 42.8016 104.114C43.5383 104.143 44.405 103.739 45.1417 103.421C45.6473 103.349 46.1385 103.277 46.644 103.262C47.3085 103.234 47.9586 103.262 48.6231 103.392C48.8975 103.45 49.1864 103.508 49.4609 103.594C49.7353 103.681 49.9809 103.796 50.212 103.955C50.5009 104.056 50.5732 104.244 50.4287 104.561L50.4143 104.532Z" fill="#E1D7C6"/>
<path d="M58.9804 146.472C58.677 144.25 54.8923 145.217 53.5634 145.506C53.52 145.506 53.4767 145.534 53.4478 145.534C55.1812 144.336 57.348 142.475 56.4091 140.627C55.8602 139.559 54.6756 139.675 53.7222 140.065C52.4222 140.599 51.2521 141.176 50.2554 142.186C50.1687 142.273 50.082 142.374 49.9954 142.475C50.0098 142.446 50.0242 142.417 50.0387 142.388C50.6454 141.32 51.1654 140.194 51.2954 138.968C51.3821 138.217 51.3965 137.366 50.6021 137.005C48.7675 136.182 47.1352 139.574 46.5285 140.757C46.384 141.032 46.2396 141.32 46.1095 141.609C46.124 141.479 46.1529 141.349 46.1673 141.219C46.2973 139.776 46.5718 138.304 46.4129 136.846C46.3262 136.081 46.1096 134.984 45.2717 134.681C44.4772 134.407 44.0005 135.1 43.6683 135.72C43.0038 136.991 42.4693 138.405 42.2671 139.819C42.1082 140.945 42.1371 142.085 42.296 143.196C41.906 142.561 41.5159 141.912 41.1115 141.291C40.4614 140.295 38.4391 137.669 36.9368 138.694C36.3012 139.126 36.3156 140.036 36.5178 140.685C36.8501 141.768 37.4857 142.864 38.049 143.846C38.5691 144.755 39.118 145.693 39.8547 146.444C38.9013 146.198 37.9335 145.967 36.9656 145.823C35.7956 145.65 33.6577 146.068 34.6544 147.641C35.5933 149.128 37.4423 149.662 39.0458 150.037C39.6525 150.182 40.317 150.225 40.9815 150.225C39.9414 150.643 38.9735 151.177 38.0924 151.899C37.5146 152.375 36.5467 153.472 37.2257 154.237C37.5868 154.656 38.1357 154.627 38.6269 154.526C39.5225 154.338 40.1725 154.122 40.967 153.66C41.8048 153.169 42.4404 152.736 43.1483 152.058C43.3072 151.899 43.4805 151.755 43.6538 151.596C43.5816 152.88 43.755 154.15 44.2894 155.392C44.6361 156.2 44.9395 156.921 45.5606 157.556C45.9507 157.96 46.6729 158.653 47.2941 158.581C47.9586 158.509 47.9874 157.715 48.0886 157.21C48.2764 156.2 48.1897 155.276 47.9586 154.28C47.8141 153.66 47.6552 153.039 47.4385 152.433C48.0597 152.938 48.7242 153.371 49.4609 153.761C50.9632 154.569 53.4333 155.594 54.9646 154.251C56.3946 152.996 54.3867 151.163 53.2889 150.643C52.7977 150.412 52.2922 150.21 51.7866 150.008C52.7689 149.922 53.7656 149.792 54.7045 149.59C56.0191 149.301 59.2693 148.334 59.0237 146.487L58.9804 146.472ZM51.7288 141.724C52.4944 141.176 54.0978 140.194 55.0801 140.425C56.0913 140.671 55.8168 141.854 55.4268 142.504C55.1523 142.98 54.7768 143.398 54.3867 143.774C53.65 144.495 52.7977 145.116 51.9455 145.693C51.6277 145.91 51.2954 146.112 50.9776 146.328C50.5876 146.487 50.212 146.646 49.8365 146.819C48.8686 147.266 47.7419 147.627 46.8463 148.248C46.8029 148.19 46.7596 148.118 46.7018 148.06C46.8896 147.714 47.0774 147.367 47.2507 147.035C47.3374 146.92 47.4096 146.79 47.4963 146.675C48.1319 145.722 48.8686 144.813 49.5764 143.904C50.212 143.095 50.8621 142.33 51.7143 141.724H51.7288ZM46.7307 141.926C47.1352 141.075 47.5541 140.194 48.0597 139.401C48.4208 138.838 50.1542 136.442 50.761 138.001C51.1221 138.924 50.5154 140.353 50.1254 141.161C49.6631 142.1 49.0853 142.994 48.5364 143.875C47.9874 144.741 47.4241 145.592 46.904 146.458C46.6585 146.804 46.4129 147.165 46.1818 147.54C45.8929 147.324 45.5606 147.165 45.2139 147.064C45.2717 146.545 45.3584 146.04 45.4451 145.52C45.7773 144.264 46.2107 143.023 46.7307 141.926ZM43.4372 137.712C43.6394 137.12 43.8561 136.543 44.1305 135.995C44.1883 135.894 44.3328 135.504 44.4339 135.432C44.8384 135.475 45.2284 135.518 45.6329 135.562C45.7195 135.677 45.7773 135.807 45.8206 135.951C46.1962 136.976 45.994 138.289 45.8206 139.329C45.6473 140.454 45.604 141.594 45.2862 142.691C45.0117 143.644 44.8961 144.596 44.6506 145.549C44.6506 145.549 44.6506 145.578 44.6506 145.592C44.535 146.039 44.4483 146.501 44.3761 146.949C44.3472 146.949 44.3039 146.949 44.275 146.963C44.1016 146.357 43.8127 145.809 43.4949 145.246C43.1627 143.947 42.9749 142.605 42.8882 141.234C42.816 140.021 43.0471 138.852 43.4372 137.712ZM39.6236 144.842C39.1036 144.149 38.6124 143.413 38.1791 142.662C37.7601 141.926 37.009 140.786 37.0379 139.906C37.0956 138.419 38.8291 139.819 39.2625 140.267C39.9269 140.959 40.3603 141.825 40.8226 142.648C41.3137 143.528 41.7615 144.438 42.2526 145.332C42.5271 145.823 42.8305 146.299 43.076 146.819C43.1627 147.107 43.2349 147.382 43.3216 147.656C42.8593 147.295 42.3249 147.05 41.8048 146.761C40.9237 146.256 40.2158 145.664 39.6091 144.856L39.6236 144.842ZM39.5947 149.272C38.2802 149.186 36.4601 148.738 35.5356 147.714C34.7699 146.862 35.6367 146.53 36.4601 146.602C37.2979 146.675 38.1357 146.963 38.9302 147.209C39.6669 147.425 40.4325 147.613 41.1692 147.872C41.8626 148.118 42.4115 148.551 43.0905 148.81C43.1338 148.825 43.1627 148.81 43.206 148.825C43.2205 148.854 43.2494 148.883 43.2638 148.926C42.9171 149.171 42.296 149.171 41.8915 149.215C41.1548 149.301 40.3459 149.316 39.5947 149.258V149.272ZM43.0905 151.076C42.6282 151.61 42.1226 152.188 41.5593 152.592C41.0681 152.938 40.4759 153.313 39.9269 153.588C39.4502 153.833 38.4969 154.136 37.9768 154.006C36.3445 153.616 39.118 151.711 39.5947 151.437C40.7503 150.788 41.9204 150.369 43.1916 150.066C43.2494 150.066 43.3072 150.037 43.3794 150.023C43.4516 150.008 43.5383 149.979 43.6105 149.965C43.6827 149.965 43.7261 149.922 43.755 149.878C43.5816 150.297 43.4372 150.687 43.0905 151.091V151.076ZM47.3518 156.662C47.323 156.82 47.2363 157.513 47.1496 157.571C46.7885 157.816 46.1096 156.95 45.8495 156.633C45.4162 156.099 45.0406 155.175 44.8384 154.497C44.6217 153.79 44.4917 153.025 44.4194 152.289C44.3472 151.538 44.4772 150.86 44.6506 150.153C44.8961 150.297 45.1562 150.398 45.4306 150.427C45.4595 150.47 45.4884 150.528 45.5317 150.571C46.0084 151.351 46.5285 152.115 46.8318 152.996C47.0629 153.674 47.2218 154.381 47.323 155.103C47.3952 155.622 47.4241 156.128 47.3518 156.647V156.662ZM51.8444 150.874C52.5811 151.192 55.6146 152.851 53.9389 153.689C52.48 154.425 50.6309 153.357 49.3886 152.649C48.6808 152.245 48.0597 151.784 47.453 151.264C47.0918 150.946 46.6874 150.629 46.3551 150.268C46.4851 150.254 46.6151 150.21 46.7307 150.153C46.904 150.066 47.0052 149.922 47.0918 149.777C47.9152 149.835 48.7097 149.994 49.5187 150.066C50.2987 150.268 51.0499 150.542 51.8444 150.889V150.874ZM49.7787 149.388C49.0131 149.215 48.2619 149.142 47.4819 149.128C47.8285 149.027 48.1608 148.825 48.4497 148.666C49.1286 148.262 49.8076 147.858 50.472 147.439C51.0643 147.209 51.6566 146.978 52.2633 146.804C53.1589 146.545 54.0545 146.386 54.979 146.27C55.5424 146.198 58.5037 145.823 57.7525 147.18C57.4347 147.757 56.3657 148.06 55.7879 148.305C54.849 148.709 53.8956 148.912 52.8844 149.056C51.8588 149.2 50.8187 149.402 49.7931 149.402L49.7787 149.388Z" fill="#E1D7C6"/>
</g>
<defs>
<clipPath id="clip0_11_2">
<rect width="212" height="228" fill="white"/>
</clipPath>
</defs>
</svg>
