<svg width="187" height="244" viewBox="0 0 187 244" fill="none" xmlns="http://www.w3.org/2000/svg">
<g clip-path="url(#clip0_10_17)">
<path d="M186.75 232.54C190.75 234.43 195.29 235.32 199.7 234.78C204.27 234.21 208.41 232.02 212.03 229.26C213.76 227.95 215.64 226.53 216.75 224.62C217.91 222.61 217.71 220.3 216.82 218.23C215.94 216.17 214.53 214.32 213.06 212.64C211.56 210.94 209.9 209.38 208.13 207.97C204.53 205.09 200.52 202.7 196.38 200.71C193.07 199.12 189.64 197.81 186.12 196.78C189.95 196.67 193.75 196.08 197.43 194.83C204.73 192.36 210.99 187.61 216.47 182.31C219.28 179.59 221.92 176.72 224.52 173.8C225.85 172.31 227.28 170.84 228.44 169.2C229.56 167.61 230.35 165.63 229.88 163.66C228.91 159.64 223.82 159.63 220.54 159.35C215.92 158.96 211.26 158.76 206.64 159.22C202.59 159.63 198.56 160.56 194.86 162.28C192.21 163.51 189.6 165.14 187.51 167.24C187.87 165.81 188.17 164.37 188.4 162.92C189.27 157.46 189.19 151.86 188.17 146.43C187.14 140.97 185.21 135.69 182.48 130.85C181.8 129.65 181.08 128.48 180.31 127.34C180.29 127.27 180.27 127.19 180.25 127.12C180.23 127.05 180.16 127.03 180.1 127.03C177.82 123.7 175.16 120.65 172.14 117.97C171.62 117.51 171.09 117.06 170.55 116.62C169.99 116.16 169.39 115.71 168.69 115.51C167.27 115.1 166.13 115.99 165.32 117.07C163.54 119.46 162.04 122.12 160.7 124.78C157.97 130.17 156.03 135.96 154.91 141.9C153.79 147.84 153.53 153.94 154.18 159.96C154.73 165.09 155.92 170.16 157.69 175.02C155.11 171.43 152.21 168.06 148.87 165.16C144.52 161.39 139.42 158.64 134.14 156.42C128.46 154.03 122.58 152.05 116.69 150.25C115.2 149.79 113.69 149.31 112.17 148.96C110.78 148.64 109.28 148.54 107.94 149.12C105.86 150.02 104.76 152.16 104.27 154.26C103.68 156.76 103.87 159.47 104.35 161.97C104.47 162.58 104.61 163.18 104.77 163.78C104.77 163.81 104.77 163.84 104.77 163.87C104.13 162.65 103.51 161.42 102.91 160.18C102.48 159.27 102.08 158.32 101.62 157.4C101.44 156.63 101.29 155.85 101.08 155.08C100.8 154.05 100.55 153.02 100.29 151.98C99.38 148.33 98.61 144.63 98.03 140.91C97.74 139.04 97.49 137.15 97.29 135.27C97.19 134.33 97.1 133.38 97.02 132.44C96.98 132.01 96.95 131.59 96.92 131.16C100.9 134.91 105.68 137.81 110.83 139.65C116.21 141.57 121.97 142.34 127.67 141.8C133.4 141.26 139 139.44 143.98 136.56C146.47 135.12 148.81 133.41 150.93 131.45C151.92 130.53 153.08 129.52 153.35 128.13C153.62 126.74 152.73 125.54 151.68 124.73C150.53 123.84 149.17 123.15 147.87 122.51C146.47 121.83 145.02 121.24 143.54 120.76C141.82 120.21 140.05 119.77 138.26 119.5C139.16 119.25 140.06 118.98 140.95 118.67C145.37 117.12 149.4 114.67 152.72 111.36C156.08 108.01 158.71 103.83 160.12 99.29C160.21 98.99 160.3 98.68 160.38 98.38C160.42 98.33 160.46 98.29 160.5 98.25C160.56 98.18 160.52 98.11 160.46 98.07C161.62 93.52 161.47 88.63 159.01 84.5C157.86 82.58 156.24 80.94 154.28 79.86C152.03 78.62 149.43 78.25 146.89 78.28C144.36 78.31 141.83 78.71 139.35 79.21C136.97 79.69 134.63 80.32 132.33 81.09C127.74 82.62 123.34 84.73 119.26 87.33C115.54 89.7 112.08 92.48 109.08 95.7C110.57 87.57 110.5 79.09 108.05 71.16C106.82 67.17 104.96 63.36 102.44 60.03C99.98 56.77 96.44 53.24 92.07 53.16C87.45 53.07 84.46 57.33 81.99 60.66C79.21 64.41 76.78 68.42 74.73 72.61C72.67 76.83 70.91 81.27 69.75 85.82C69.17 88.09 68.87 90.5 69.46 92.79C69.6 93.34 69.79 93.87 70.03 94.37C70 94.36 69.98 94.34 69.95 94.33C69.88 94.28 69.81 94.22 69.74 94.18L69.65 94.14C69.51 94.08 69.37 94.1 69.26 94.17C69.09 94.16 68.92 94.17 68.76 94.18C68.68 94.14 68.59 94.1 68.51 94.06C68.47 94.04 68.43 94.06 68.39 94.07C68.32 93.44 68.24 92.82 68.17 92.2C68.05 91.17 67.93 90.15 67.81 89.12C67.15 83.78 66.41 78.42 65.32 73.13C65.45 73.05 65.54 72.91 65.52 72.71C65.43 71.84 65.33 70.97 65.23 70.1C65.18 69.67 65.12 69.25 65.07 68.82C65.1 68.75 65.11 68.67 65.1 68.58C65.07 68.22 65.04 67.87 65.03 67.51C65.12 67.37 65.17 67.19 65.09 67L65.02 66.83C65.02 66.64 65.02 66.45 65.02 66.27C65.03 66 65.06 65.73 65.09 65.46C65.21 65.32 65.29 65.14 65.31 64.94C65.32 64.82 65.32 64.69 65.31 64.56C65.49 64.2 65.67 63.84 65.85 63.48C65.89 63.4 65.93 63.32 65.97 63.24C66.17 63.01 66.37 62.78 66.58 62.55C66.91 62.17 67.36 61.78 67.43 61.25C67.49 60.8 67.22 60.35 66.81 60.16C66.72 60.12 66.62 60.08 66.51 60.06C68.23 56.1 71.21 52.62 74.34 49.76C76.75 47.56 79.33 45.54 81.84 43.45C82.02 43.35 82.2 43.26 82.36 43.14C82.6 42.96 82.83 42.74 83.06 42.54C86.75 39.43 90.75 36.67 94.98 34.34C99.23 31.99 103.7 30.05 108.33 28.57C110.69 27.81 113.2 27.34 115.41 26.19C117.36 25.17 119.11 23.47 119.54 21.23C119.96 19.07 118.84 17.08 117.3 15.66C115.64 14.13 113.47 13.11 111.33 12.44C107 11.08 102.17 11.05 97.91 12.69C97.93 11.79 97.94 10.89 97.9 10C97.84 8.46001 97.67 6.92001 97.42 5.40001C97.18 4.01001 96.89 2.64001 96.14 1.42001C95.5 0.380012 94.45 -0.479988 93.16 -0.329988C91.67 -0.159988 90.79 1.20001 90.1 2.37001C88.66 4.82001 87.25 7.33001 86.05 9.92001C86.16 8.10001 86.22 6.27001 86.21 4.45001C86.19 2.38001 86.08 0.300011 85.88 -1.76999C85.71 -3.52999 85.19 -5.45999 83.24 -5.92999C82.72 -6.05999 82.18 -6.03999 81.65 -5.94999C80.5 -10.64 78.27 -15.04 75.13 -18.72C74.4 -19.57 73.63 -20.38 72.81 -21.15C72.01 -21.91 71.18 -22.64 70.22 -23.2C69.28 -23.74 68.2 -24.09 67.11 -23.95C66.01 -23.8 65.03 -23.2 64.19 -22.49C62.51 -21.06 61.01 -19.35 59.59 -17.66C58.11 -15.91 56.73 -14.07 55.47 -12.15C54.33 -10.41 53.27 -8.60999 52.31 -6.74999C51.69 -7.72999 51.07 -8.69999 50.36 -9.62999C49.55 -10.68 48.71 -11.72 47.85 -12.73C46.34 -14.52 44.74 -16.24 43.09 -17.9C41.71 -19.29 40.03 -20.72 37.94 -20.08C36.16 -19.53 35.03 -17.72 34.19 -16.17C33.15 -14.25 32.2 -12.3 31.3 -10.31C29.45 -11.73 27.54 -13.06 25.56 -14.29C25.32 -14.44 24.95 -14.42 24.84 -14.11C24.56 -13.3 24.29 -12.49 24.02 -11.68C22.33 -6.56999 20.79 -1.16999 20.89 4.24001V4.26001C20.62 5.56001 20.53 6.89001 20.4 8.21001C20.27 9.54001 20.16 10.87 20.09 12.21C19.95 14.84 19.96 17.49 20.29 20.11L20.31 20.22C19.43 20.07 18.55 19.94 17.66 19.85C13.69 19.43 9.66 19.59 5.74 20.32C5.04 20.45 4.33 20.61 3.64 20.84C3.51 20.83 3.37 20.88 3.27 20.98C2.71 21.2 2.16 21.47 1.67 21.83C0.460004 22.72 -0.189996 24.16 0.150004 25.65C0.540004 27.32 1.77 28.6 2.93 29.77C3.97 30.81 5.06 31.81 6.19 32.75C8.48 34.65 10.93 36.33 13.48 37.85C18.63 40.92 24.13 43.34 29.65 45.66C35.21 48 40.81 50.25 46.19 52.97C48.84 54.31 51.44 55.78 53.92 57.41C55.15 58.22 56.35 59.08 57.51 59.98C58.05 60.4 58.58 60.82 59.11 61.25C58.93 61.42 58.89 61.74 59.05 61.93C59.57 62.5 60.12 63.04 60.69 63.55C60.97 63.8 61.26 64.03 61.56 64.26C61.63 64.31 61.7 64.35 61.77 64.39C61.95 64.72 62.13 65.06 62.31 65.39V65.45C62.45 65.69 62.58 65.93 62.71 66.16C62.86 66.45 63.02 66.75 63.17 67.04C63.4 67.57 63.59 68.11 63.72 68.66C63.74 68.75 63.79 68.82 63.85 68.88C64.08 70.48 64.33 72.08 64.59 73.68C65.19 77.3 65.76 80.93 66.27 84.56C66.33 84.97 66.37 85.38 66.43 85.79C65.22 83.71 63.76 81.76 62.27 79.9C60.34 77.51 58.23 75.27 55.98 73.19C57.06 68.15 55.73 62.68 52.65 58.58C52.48 58.36 52.08 58.38 51.98 58.66C51.17 61.01 50.97 63.54 51.4 65.99C51.61 67.21 51.97 68.41 52.49 69.53C52.65 69.89 52.84 70.26 53.04 70.63C52.22 69.96 51.4 69.31 50.55 68.68C46.17 65.44 41.38 62.76 36.34 60.71C35.99 60.57 35.59 60.85 35.64 61.23C35.83 62.55 36.27 63.82 36.94 64.97C38.14 67.02 40.05 68.65 42.31 69.4C43.52 69.81 44.79 69.98 46.07 69.93C47.21 69.88 48.46 69.69 49.45 69.08C52.05 70.97 54.52 73.04 56.81 75.29C58.73 77.17 60.53 79.16 62.21 81.25C63.78 83.22 65.18 85.29 66.64 87.33C66.75 88.21 66.88 89.08 66.98 89.96C67.09 90.88 67.2 91.8 67.3 92.71C67.39 93.52 67.44 94.35 67.57 95.15C65.15 94.31 62.68 93.65 60.17 93.16C54.07 91.98 47.65 91.75 41.64 93.5C36.58 94.97 31.72 97.98 28.72 102.39C27.2 104.62 26.13 107.26 26.05 109.98C25.96 112.65 26.85 115.2 28.67 117.17C31.84 120.6 36.34 121.63 40.84 121.92V122.04C41.24 124.86 42.52 127.34 44.22 129.53C44.22 129.65 44.28 129.76 44.4 129.83C44.43 129.85 44.46 129.86 44.49 129.88C45.86 131.58 47.49 133.1 49.16 134.46C50.98 135.94 52.86 137.35 54.76 138.74C56.65 140.12 58.59 141.43 60.64 142.55C64.72 144.79 69.42 146.24 74.11 145.66C78.59 145.1 82.29 142.48 85.52 139.47C87.24 137.87 88.88 136.18 90.55 134.53C91.81 133.28 93.06 132.01 94.28 130.73C94.29 130.76 94.3 130.79 94.32 130.82C94.28 131.34 94.36 131.93 94.67 132.36C94.8 132.53 95.03 132.57 95.21 132.49C95.36 136.78 95.86 141.07 96.69 145.28C97.64 150.09 99 154.81 100.76 159.38C101.43 161.13 102.18 162.84 102.96 164.54C101.74 163.38 100.47 162.28 99.11 161.27C97.6 160.14 96.02 159.1 94.4 158.15C94.4 157.02 94.22 155.86 93.98 154.76C92.97 150.17 90.27 146 86.48 143.22C86.19 143.01 85.84 143.24 85.86 143.57C86.03 148.26 87.88 152.93 91.1 156.35C89.59 155.6 88.05 154.93 86.48 154.33C81.99 152.62 77.28 151.51 72.5 151.09C72.07 151.05 71.81 151.5 72.04 151.86C72.96 153.26 74.11 154.5 75.42 155.54C80.06 159.2 86.65 160.36 92.17 158.12C92.23 158.09 92.28 158.06 92.32 158.02C92.67 158.21 93.02 158.39 93.36 158.58C93.43 158.62 93.49 158.66 93.56 158.69C93.6 158.96 93.89 159.08 94.12 159.02C97.52 161.01 100.7 163.37 103.64 165.99C104.71 168.21 105.88 170.39 107.13 172.51C109.62 176.72 112.48 180.72 115.67 184.43C117.27 186.29 118.95 188.07 120.72 189.77C122.37 191.36 124.09 193 126.01 194.28C126.62 194.84 127.25 195.37 127.9 195.88C125.45 196.92 123.11 198.2 120.9 199.7C116.98 202.35 113.48 205.6 110.36 209.14C109.58 210.02 108.83 210.92 108.1 211.84C107.35 212.78 106.64 213.78 106.18 214.91C105.76 215.96 105.56 217.13 105.94 218.22C106.32 219.32 107.27 220.07 108.3 220.52C109.47 221.03 110.75 221.31 111.98 221.64C113.34 222.01 114.71 222.36 116.09 222.67C118.86 223.31 121.67 223.82 124.5 224.15C129.8 224.77 135.2 224.77 140.45 223.75C145.26 222.81 149.93 221.07 154.03 218.36C157.99 215.74 161.26 212.18 163.47 207.99C164.92 205.24 165.89 202.25 166.22 199.18C166.26 199.37 166.3 199.56 166.33 199.75C166.13 201.01 165.93 202.27 165.64 203.52C165.18 205.48 164.58 207.41 163.84 209.28C161.19 216 156.72 221.91 150.77 226.05C150 226.59 149.21 227.1 148.41 227.58C147.16 227.44 145.9 227.38 144.64 227.38C138.71 227.4 132.77 228.97 127.61 231.9C127.29 232.08 127.27 232.61 127.7 232.67C129.46 232.91 131.24 233 133.01 232.93C135.02 232.85 137.03 232.57 138.99 232.11C137.76 232.6 136.53 233.07 135.29 233.51C133.47 234.16 131.63 234.79 129.87 235.61C129.55 235.76 129.66 236.31 130.03 236.23C132.19 235.76 134.3 235.03 136.37 234.27C138.46 233.51 140.53 232.7 142.56 231.79C144.26 231.03 145.93 230.2 147.55 229.28C146.37 230.36 145.23 231.49 144.17 232.69C142.04 235.12 140.17 237.79 138.63 240.62C138.29 241.24 137.71 242.03 137.83 242.77C137.96 243.55 138.78 243.72 139.42 243.48C140.11 243.23 140.71 242.66 141.28 242.21C141.93 241.7 142.56 241.18 143.17 240.63C145.55 238.5 147.68 236.09 149.48 233.45C150.39 232.12 151.22 230.73 151.95 229.29C152.62 227.98 153.36 226.54 153.63 225.07C156.09 222.99 158.27 220.58 160.1 217.92C162.17 214.91 163.81 211.61 164.98 208.16C165.56 206.45 166.02 204.7 166.37 202.92C166.47 202.39 166.57 201.85 166.65 201.31C168.41 209.59 171.21 217.82 176.66 224.42C179.44 227.78 182.85 230.63 186.81 232.5L186.75 232.54ZM130.18 232.11C130.38 232.09 130.58 232.07 130.78 232.05C131.51 231.98 132.24 231.89 132.96 231.8C137.25 231.24 141.49 230.35 145.61 229.06L145.54 229.1C140.76 231.38 135.45 232.42 130.17 232.11H130.18ZM146.46 228.34C143.83 229.12 141.17 229.79 138.48 230.32C136.83 230.64 135.18 230.9 133.52 231.1C132.69 231.2 131.85 231.28 131.02 231.35C130.78 231.37 130.54 231.39 130.3 231.41C130.95 231.11 131.6 230.82 132.26 230.57C136.77 228.82 141.64 228.08 146.47 228.35L146.46 228.34ZM150.9 227.73C150.43 228.41 149.96 229.09 149.48 229.76C147.93 231.9 146.31 233.98 144.53 235.93C143.63 236.92 142.7 237.9 141.73 238.82C141.25 239.27 140.79 239.74 140.31 240.19C140.04 240.44 139.71 240.69 139.43 240.97C139.77 240.35 140.12 239.73 140.49 239.13C142.07 236.56 143.93 234.18 146.03 232.01C147.06 230.94 148.16 229.93 149.31 228.98C149.83 228.55 150.37 228.13 150.91 227.73H150.9ZM152.5 226.31C152.4 226.52 152.3 226.73 152.2 226.94C151.83 227.7 151.45 228.45 151.04 229.19C150.24 230.66 149.35 232.08 148.37 233.44C146.63 235.86 144.63 238.1 142.39 240.07C141.82 240.57 141.24 241.05 140.65 241.52C140.35 241.75 140.05 241.98 139.75 242.21C139.5 242.39 139.25 242.61 138.95 242.69C138.49 242.82 138.72 242.33 138.84 242.09C138.89 241.98 138.95 241.87 139.01 241.76C139.08 241.9 139.26 241.99 139.42 241.92C139.77 241.78 140.01 241.48 140.28 241.23C140.55 240.97 140.82 240.71 141.08 240.45C141.6 239.93 142.11 239.41 142.61 238.87C146.04 235.22 149.2 231.26 151.82 226.98C152.06 226.76 152.29 226.54 152.52 226.3L152.5 226.31ZM74.51 153.49C74.74 153.6 74.97 153.7 75.19 153.8C75.82 154.1 76.46 154.38 77.1 154.65C81.07 156.31 85.34 157.5 89.65 157.85C88.81 158.06 87.94 158.2 87.07 158.26C82.46 158.56 77.74 156.78 74.51 153.49ZM91.04 157.42C88.12 157.01 85.2 156.48 82.37 155.63C80.87 155.18 79.38 154.65 77.93 154.05C77.19 153.74 76.46 153.42 75.74 153.07C75.21 152.82 74.69 152.49 74.13 152.27C76.16 152.52 78.17 152.88 80.15 153.37C83.91 154.3 87.57 155.67 91.03 157.42H91.04ZM87.18 146.12C87.45 146.66 87.72 147.21 87.98 147.75C88.54 148.89 89.1 150.02 89.66 151.16C90.67 153.21 91.69 155.25 92.74 157.28C92.63 157.22 92.52 157.16 92.41 157.1C89.26 153.79 87.16 149.58 86.64 145.05C86.79 145.42 87 145.78 87.17 146.12H87.18ZM93.36 157.44C92.37 155.25 91.32 153.08 90.28 150.91C89.73 149.77 89.18 148.63 88.63 147.49C88.35 146.92 88.08 146.35 87.8 145.78C87.71 145.6 87.62 145.4 87.53 145.2C87.95 145.58 88.35 145.98 88.72 146.41C90.21 148.11 91.39 150.06 92.19 152.17C92.59 153.21 92.9 154.29 93.11 155.38C93.24 156.07 93.3 156.75 93.35 157.44H93.36ZM46.87 67.37C46.44 67.31 46 67.24 45.58 67.15C44.49 66.92 43.43 66.58 42.41 66.15C41.39 65.72 40.41 65.19 39.49 64.56C38.55 63.92 37.77 63.18 36.94 62.41L36.88 62.38C36.84 62.26 36.8 62.13 36.77 62.01C39.25 63.04 41.67 64.23 43.99 65.58C44.97 66.15 45.92 66.75 46.87 67.37ZM48.35 68.35C48.04 68.44 47.73 68.52 47.42 68.59C46.78 68.72 46.13 68.8 45.47 68.8C43.25 68.8 41.1 67.98 39.46 66.49C38.59 65.7 37.89 64.73 37.38 63.67C37.95 64.17 38.57 64.63 39.19 65.04C40.13 65.67 41.14 66.22 42.18 66.66C43.25 67.11 44.36 67.46 45.5 67.69C46.07 67.8 46.64 67.9 47.22 67.95C47.4 67.97 47.62 67.99 47.84 68C48.01 68.12 48.19 68.23 48.36 68.35H48.35ZM53.23 65.83C53.36 66.83 53.49 67.83 53.63 68.83C53.7 69.34 53.77 69.86 53.84 70.37C53.86 70.53 53.88 70.69 53.9 70.84L53.85 70.75C53.58 70.26 53.33 69.76 53.1 69.25C52.63 68.18 52.29 67.04 52.09 65.89C51.74 63.82 51.83 61.69 52.41 59.67C52.45 59.73 52.49 59.8 52.53 59.86C52.71 61.86 52.95 63.84 53.21 65.82L53.23 65.83ZM55.15 72.46C54.96 72.29 54.77 72.13 54.58 71.96C54.53 71.88 54.48 71.8 54.44 71.72C54.52 71.7 54.6 71.66 54.63 71.57C54.76 71.12 54.63 70.66 54.57 70.2C54.5 69.69 54.42 69.17 54.35 68.66C54.21 67.69 54.07 66.72 53.92 65.74C53.67 64.07 53.4 62.4 53.1 60.74C55.12 64.27 55.82 68.43 55.16 72.45L55.15 72.46ZM64.41 59.83C64.43 59.97 64.45 60.11 64.47 60.25C64.47 60.25 64.45 60.25 64.44 60.25C64.44 60.11 64.42 59.96 64.41 59.82V59.83ZM64.17 57.39C64.12 56.98 64.06 56.57 64.01 56.16C63.84 54.79 63.66 53.43 63.48 52.06C62.22 42.44 60.91 32.83 59.82 23.19C59.82 23.12 59.78 23.07 59.74 23.03C61.92 17.21 64.95 11.71 68.73 6.78001C71.03 3.78001 73.6 0.99001 76.41 -1.53999C76.4 3.06001 75.69 7.61001 74.63 12.09C72.69 20.33 69.51 28.19 67.16 36.31C65.19 43.1 63.7 50.29 64.17 57.4V57.39ZM61.98 48.98C60.75 42.57 59.36 36.17 57.55 29.9C57.6 29.84 57.63 29.77 57.65 29.69C57.71 29.45 57.78 29.22 57.84 28.99C57.88 28.94 57.92 28.89 57.94 28.81C58.04 28.46 58.11 28.1 58.18 27.75C58.25 27.5 58.31 27.24 58.39 26.99C58.7 25.96 59.04 24.94 59.41 23.92C59.76 26.43 60.11 28.93 60.43 31.45C61.04 36.26 61.65 41.07 62.25 45.89C62.55 48.3 62.85 50.7 63.15 53.11C63.45 55.51 63.64 57.96 64.16 60.32C64.16 60.32 64.16 60.33 64.17 60.34C64.08 60.36 63.99 60.39 63.9 60.41C63.34 56.59 62.71 52.79 61.98 48.99V48.98ZM58.79 59.12C58.79 59.12 58.81 59.16 58.82 59.18C58.82 59.18 58.81 59.2 58.8 59.2C58.8 59.17 58.8 59.15 58.79 59.12ZM58.62 59.28C58.62 59.28 58.67 59.31 58.7 59.31C58.7 59.31 58.68 59.32 58.68 59.33C58.66 59.31 58.64 59.3 58.63 59.28H58.62ZM57.83 57.95C57.89 58 57.94 58.05 58 58.09V58.13L58.03 58.11C58.14 58.2 58.26 58.3 58.37 58.4C58.5 58.62 58.63 58.84 58.76 59.06C58.47 58.68 58.15 58.31 57.83 57.95ZM11.24 32.2C14.78 34.84 18.74 36.92 22.65 38.95C26.78 41.09 30.97 43.12 35.12 45.2C39.28 47.29 43.42 49.43 47.41 51.84C49.4 53.04 51.35 54.3 53.25 55.65C53.82 56.05 54.37 56.47 54.92 56.89C51.9 54.78 48.66 52.97 45.39 51.34C40.11 48.71 34.62 46.54 29.2 44.24C23.84 41.97 18.5 39.59 13.52 36.55C11.09 35.06 8.75 33.42 6.57 31.58C5.47 30.65 4.4 29.67 3.4 28.63C2.36 27.56 0.950004 26.1 1.19 24.46C1.36 23.32 2.32 22.62 3.32 22.18C4.71 26.33 7.77 29.61 11.24 32.2ZM11.98 20.81C13.52 24.78 15.99 28.3 18.96 31.33C24.54 37.03 31.54 40.98 38.44 44.84C42.08 46.88 45.73 48.93 49.19 51.27C50.91 52.43 52.58 53.67 54.17 55.01C55.72 56.32 57.12 57.77 58.55 59.21C56.82 57.62 54.9 56.21 52.99 54.87C50.91 53.42 48.77 52.07 46.59 50.78C38.66 46.11 30.23 42.4 22.13 38.06C18.28 35.99 14.37 33.87 10.93 31.15C7.91001 28.75 5.12 25.69 4.13 21.89C5.59 21.41 7.16 21.22 8.67 21.04C9.77 20.91 10.88 20.84 11.99 20.81H11.98ZM25.33 32.45C28.1 35.84 31.67 38.46 35.27 40.9C39.3 43.63 43.34 46.33 47.21 49.28C47.55 49.54 47.89 49.81 48.22 50.07C41.49 45.63 34.13 42.25 27.5 37.67C21.28 33.37 15.51 27.95 12.7 20.8C15.23 20.77 17.76 20.97 20.26 21.42C20.32 21.43 20.37 21.42 20.43 21.42C21.13 25.46 22.7 29.26 25.32 32.46L25.33 32.45ZM21.28 8.49001C22.46 14.52 25.91 19.83 29.91 24.39C34.24 29.32 39.21 33.64 43.62 38.51C47.83 43.16 51.71 48.13 55.19 53.35C55.91 54.43 56.6 55.51 57.28 56.61C55.95 55.34 54.56 54.13 53.16 52.94C51 51.12 48.79 49.36 46.54 47.65C42.79 44.81 38.83 42.26 34.96 39.58C31.42 37.13 27.94 34.45 25.36 30.97C22.66 27.31 21.38 22.94 21.02 18.44C20.84 16.12 20.88 13.79 21.02 11.47C21.08 10.47 21.17 9.48001 21.27 8.49001H21.28ZM24.33 -9.79999C24.32 -9.74999 24.3 -9.69999 24.29 -9.63999C23 -4.36999 23.83 1.34001 25.73 6.37001C27.63 11.43 30.65 16 33.98 20.22C37.49 24.68 41.44 28.77 45.04 33.16C48.58 37.48 51.84 41.97 54.5 46.89C56.66 50.89 58.43 55.08 59.82 59.41C58.26 56.66 56.61 53.97 54.83 51.35C51.34 46.19 47.46 41.3 43.23 36.73C38.79 31.93 33.82 27.63 29.64 22.6C25.73 17.88 22.51 12.35 21.9 6.15001C21.37 0.720011 22.69 -4.61999 24.33 -9.78999V-9.79999ZM25.79 -12.9C25.87 -12.23 25.96 -11.56 26.09 -10.9C27.06 -5.62999 29.38 -0.689988 32.15 3.87001C35.12 8.76001 38.7 13.22 42.18 17.74C45.6 22.19 48.8 26.77 51.54 31.68C54.17 36.39 56.41 41.32 58.25 46.39C59.16 48.91 59.97 51.48 60.69 54.06C61.06 55.39 61.4 56.74 61.71 58.09C61.9 58.88 62.06 59.67 62.24 60.47C61.79 60.42 61.36 60.31 60.94 60.15C60.89 60 60.85 59.85 60.81 59.71C59.19 54.6 57.01 49.65 54.34 45C51.58 40.2 48.27 35.81 44.62 31.65C40.93 27.44 37.11 23.32 33.71 18.88C30.42 14.59 27.5 9.92001 25.81 4.75001C24.09 -0.489988 23.69 -6.06999 25.1 -11.43C25.13 -11.53 25.01 -11.59 24.92 -11.56C25.1 -12.11 25.29 -12.66 25.47 -13.2C25.59 -13.13 25.7 -13.05 25.81 -12.98C25.81 -12.95 25.8 -12.92 25.81 -12.88L25.79 -12.9ZM31.53 -8.93999C34.54 -6.56999 37.35 -3.94999 39.93 -1.11999C43.85 3.19001 47.26 7.98001 50 13.12C53.11 18.95 55.32 25.2 57.07 31.56C58.91 38.23 60.35 45.03 61.58 51.84C62.1 54.72 62.57 57.6 62.99 60.49C62.85 60.49 62.71 60.49 62.56 60.48C62.53 60.33 62.51 60.18 62.48 60.03C61.44 54.77 59.95 49.6 58.04 44.58C56.14 39.56 53.83 34.69 51.16 30.04C48.35 25.16 45.07 20.62 41.67 16.15C38.22 11.63 34.69 7.12001 31.86 2.17001C29.28 -2.34999 27.4 -7.23999 26.72 -12.42C28.13 -11.49 29.49 -10.51 30.83 -9.47999C30.7 -9.05999 31.19 -8.76999 31.52 -8.94999L31.53 -8.93999ZM57 28.09C56.96 27.96 56.92 27.83 56.88 27.7C56.92 27.71 56.97 27.71 57.01 27.71C57.03 27.76 57.05 27.81 57.07 27.86C57.05 27.93 57.02 28.01 57 28.08V28.09ZM34.21 -14.35C34.8 -12.83 35.42 -11.32 36.11 -9.83999C37.31 -7.23999 38.66 -4.69999 40.14 -2.22999C39.81 -2.58999 39.47 -2.94999 39.13 -3.29999C36.9 -5.59999 34.51 -7.74999 31.99 -9.72999C32.69 -11.29 33.42 -12.83 34.21 -14.35ZM38.1 -19.18C38.4 -17.1 38.78 -15.02 39.26 -12.97C40.81 -6.26999 43.36 0.160012 46.79 6.11001C45.32 3.96001 43.74 1.89001 42.05 -0.0799885C38.99 -4.74999 36.44 -9.76999 34.58 -15.03C34.77 -15.38 34.96 -15.74 35.15 -16.09C35.81 -17.26 36.75 -18.72 38.1 -19.18ZM40.81 -18.64C41.25 -16.99 41.74 -15.35 42.23 -13.72C43.24 -10.35 44.25 -6.96999 45.27 -3.59999C45.78 -1.90999 46.28 -0.219989 46.77 1.47001C47.22 3.04001 47.62 4.62001 48.12 6.18001C48.12 6.75001 48.16 7.32001 48.24 7.88001C47.18 6.13001 46.18 4.33001 45.28 2.49001C41.92 -4.35999 39.61 -11.74 38.65 -19.32C38.69 -19.32 38.73 -19.33 38.77 -19.34C39.52 -19.4 40.21 -19.08 40.81 -18.66V-18.64ZM51.98 -6.24999C50.97 -4.24999 50.09 -2.19999 49.35 -0.0899887C48.86 1.33001 48.46 2.79001 48.25 4.28001C47.86 3.06001 47.45 1.86001 47.07 0.640011C46.04 -2.69999 45.03 -6.03999 44.02 -9.38999C43.12 -12.35 42.27 -15.33 41.29 -18.27C42.1 -17.6 42.82 -16.82 43.54 -16.06C45.06 -14.47 46.53 -12.83 47.95 -11.14C48.64 -10.32 49.31 -9.47999 49.98 -8.62999C50.62 -7.80999 51.32 -7.04999 51.98 -6.23999V-6.24999ZM52.11 1.25001C52.22 5.85001 52.68 10.43 53.52 14.95C54.23 18.78 55.17 22.59 56.48 26.27C56.48 26.34 56.5 26.42 56.51 26.49C54.78 21.09 52.63 15.83 49.81 10.9C49.04 9.13001 48.76 7.21001 48.95 5.28001C49.18 2.97001 49.93 0.760012 50.81 -1.37999C51.23 -2.39999 51.68 -3.40999 52.15 -4.39999C52.13 -3.77999 52.12 -3.14999 52.11 -2.52999C52.08 -1.25999 52.09 1.19209e-05 52.11 1.27001V1.25001ZM66.93 -22.91C65.07 -19.83 63.42 -16.62 62.04 -13.3C59.38 -6.90999 57.59 -0.179988 56.63 6.67001C55.83 12.39 55.7 18.19 56.22 23.93C55.9 22.83 55.6 21.72 55.31 20.62C54.19 16.22 53.42 11.73 53 7.20001C52.79 4.94001 52.68 2.67001 52.66 0.390011C52.66 -0.769989 52.66 -1.92999 52.7 -3.08999C52.73 -4.01999 52.8 -4.93999 52.84 -5.86999C54.06 -8.24999 55.43 -10.54 56.96 -12.74C58.19 -14.51 59.52 -16.21 60.94 -17.83C61.65 -18.64 62.38 -19.43 63.13 -20.2C63.86 -20.95 64.6 -21.71 65.47 -22.3C65.92 -22.61 66.41 -22.82 66.92 -22.93L66.93 -22.91ZM74.13 -18.26C73.03 -17.04 72.1 -15.63 71.2 -14.26C70.25 -12.81 69.38 -11.32 68.56 -9.78999C65.52 -4.10999 63.33 1.95001 61.63 8.14001C60.71 11.52 59.91 14.93 59.19 18.36C58.83 20.06 58.47 21.77 58.12 23.47C57.91 24.48 57.67 25.49 57.47 26.51C57.42 26.66 57.38 26.81 57.34 26.96C56.84 23.25 56.62 19.51 56.64 15.77C56.68 8.90001 57.65 2.05001 59.51 -4.55999C61.32 -11 63.98 -17.18 67.33 -22.98C67.67 -23.01 68.02 -22.99 68.38 -22.9C69.42 -22.64 70.32 -21.97 71.12 -21.29C72.2 -20.37 73.21 -19.35 74.14 -18.27L74.13 -18.26ZM80.6 -5.71999C79.76 -5.40999 78.96 -4.92999 78.28 -4.43999C76.72 -3.31999 75.3 -1.94999 73.93 -0.609989C71.13 2.12001 68.58 5.10001 66.32 8.30001C63.41 12.43 61.02 16.9 59.17 21.59C59.42 20.14 59.75 18.71 60.04 17.27C61.39 10.71 63.09 4.22001 65.51 -2.02999C66.64 -4.93999 67.93 -7.77999 69.44 -10.51C70.2 -11.89 71 -13.24 71.86 -14.56C72.64 -15.75 73.51 -16.88 74.3 -18.05C74.65 -17.63 75 -17.21 75.32 -16.77C77.8 -13.5 79.61 -9.71999 80.58 -5.71999H80.6ZM94.21 0.740011C93.5 5.15001 92.97 9.58001 92.06 13.96C90.45 21.72 88.03 29.49 83.64 36.16C81.66 39.18 79.24 41.9 76.79 44.56C78.75 41.65 80.53 38.68 81.99 35.47C83.54 32.07 84.76 28.52 85.8 24.93C86.84 21.33 87.7 17.68 88.44 14.01C88.81 12.18 89.16 10.34 89.49 8.50001C89.79 6.85001 90.12 5.18001 90.31 3.51001C90.42 3.33001 90.52 3.15001 90.63 2.97001C91.01 2.34001 91.39 1.68001 91.92 1.16001C92.39 0.710011 93.01 0.400012 93.67 0.520012C93.87 0.560012 94.04 0.640011 94.21 0.730011V0.740011ZM117.4 17.45C116.16 16.52 114.6 15.88 113.16 15.44C110.15 14.51 106.94 14.46 103.92 15.32C102.45 15.74 101.04 16.36 99.74 17.16C99.1 17.55 98.47 17.98 97.89 18.45C97.65 18.65 97.39 18.85 97.14 19.07C97.49 17.25 97.7 15.4 97.8 13.55C102.65 11.99 107.94 12.08 112.65 14.1C114.43 14.86 116.22 15.89 117.41 17.45H117.4ZM118.45 20.23C115.93 20 113.4 20.14 110.91 20.58C106.22 21.4 101.71 23.26 97.77 25.92C96.33 26.89 94.97 27.99 93.71 29.18C95.14 26.31 96.21 23.26 96.91 20.13C97.12 19.93 97.32 19.71 97.53 19.51C97.82 19.24 98.12 18.97 98.43 18.72C99.07 18.19 99.75 17.71 100.47 17.3C103.11 15.78 106.17 15.02 109.22 15.19C110.78 15.28 112.32 15.58 113.79 16.1C115.25 16.62 116.52 17.42 117.87 18.17C117.88 18.17 117.89 18.17 117.9 18.17C118.25 18.8 118.46 19.51 118.47 20.23H118.45ZM88.6 36.9C88.86 36.6 89.13 36.3 89.38 35.99C90.64 34.42 91.75 32.74 92.73 30.99C92.94 30.77 93.14 30.54 93.35 30.33C96.65 27 100.69 24.4 105.06 22.73C109.33 21.09 113.86 20.43 118.42 20.6C118.33 21.55 117.92 22.43 117.33 23.18C115.89 25 113.63 25.8 111.48 26.43C109.19 27.1 106.92 27.77 104.69 28.6C100.36 30.21 96.18 32.22 92.21 34.59C90.98 35.32 89.78 36.1 88.6 36.9ZM73.54 49.03C74.84 47.53 76.18 46.07 77.51 44.59C78.89 43.06 80.25 41.51 81.52 39.88C82.74 38.32 83.83 36.64 84.83 34.93C86.83 31.52 88.43 27.89 89.69 24.14C90.95 20.38 91.89 16.51 92.65 12.62C93.41 8.76001 94.07 4.84001 94.48 0.930012C94.67 1.08001 94.84 1.26001 94.99 1.45001C95.81 2.50001 96.12 3.81001 96.35 5.09001C97.42 11.04 96.98 17.25 95.17 23.02C94.19 26.16 92.8 29.14 91.07 31.91C90.1 33.02 89.2 34.22 88.52 35.5C87.67 36.56 86.77 37.58 85.81 38.54C85.22 39.13 84.61 39.71 83.98 40.27C83.86 40.36 83.74 40.45 83.62 40.55C82.87 41.15 82.09 41.75 81.44 42.46C78.8 44.65 76.07 46.73 73.54 49.03ZM69.64 52.62C69.81 52.34 69.97 52.06 70.15 51.78C72.53 48.09 75.09 44.55 77.18 40.68C81.18 33.3 83.88 25.23 85.2 16.95C85.48 15.16 85.69 13.37 85.84 11.57C86.07 11.14 86.31 10.7 86.54 10.27C87.42 8.63001 88.29 6.99001 89.22 5.37001C89.41 5.04001 89.6 4.72001 89.79 4.40001C89.48 5.93001 89.25 7.49001 88.97 9.02001C88.59 11.09 88.19 13.16 87.76 15.23C86.22 22.51 84.16 29.69 80.87 36.39C79.17 39.85 77.1 43.06 74.76 46.11C73.08 48.3 71.31 50.43 69.64 52.63V52.62ZM64.73 59.2C64.26 55.09 64.41 50.94 65.05 46.85C66.36 38.43 69.38 30.44 72.06 22.39C74.68 14.5 77.02 6.39001 76.9 -1.98999C78.12 -3.08999 79.4 -4.19999 80.96 -4.76999C81.66 -5.01999 82.48 -5.17999 83.2 -4.90999C84.06 -4.57999 84.48 -3.74999 84.66 -2.88999C84.85 -1.94999 84.9 -0.979989 84.97 -0.0299892C85.05 0.990011 85.1 2.02001 85.13 3.04001C85.19 5.07001 85.17 7.10001 85.07 9.13001C84.85 13.23 84.29 17.31 83.41 21.31C81.64 29.28 78.57 37 74.29 43.95C71.99 47.68 69.33 51.19 67.3 55.08C66.49 56.62 65.78 58.27 65.25 59.97C65.23 59.97 65.22 59.98 65.2 59.99C65.88 55.66 67.53 51.56 69.33 47.58C71.19 43.5 73.12 39.47 74.77 35.3C76.42 31.11 77.87 26.83 79.08 22.49C80.31 18.09 81.31 13.63 82.1 9.14001C82.88 4.66001 83.54 0.0900126 83.69 -4.45999C83.69 -4.57999 83.51 -4.61999 83.5 -4.48999C83.23 -1.95999 83 0.580012 82.68 3.11001C82.35 5.64001 81.96 8.16001 81.49 10.67C79.81 19.62 77.18 28.42 73.68 36.83C71.96 40.98 69.91 44.97 68.1 49.08C66.66 52.34 65.41 55.71 64.75 59.21L64.73 59.2ZM95.78 125.66C95.78 125.66 95.79 125.71 95.8 125.74C95.8 125.75 95.8 125.77 95.8 125.78C95.8 125.74 95.79 125.7 95.78 125.66ZM57.86 139.57C59.22 139.83 60.61 139.9 61.99 139.86C64.61 139.77 67.2 139.23 69.73 138.55C72.48 137.81 75.2 136.92 77.89 135.97C80.62 135 83.3 133.88 85.95 132.71C88.52 131.58 91.05 130.35 93.51 128.99C93.77 129.07 94.03 129.16 94.28 129.26V129.28C94.28 129.28 94.29 129.32 94.3 129.34C94.24 129.33 94.17 129.34 94.09 129.36C93.87 129.44 93.78 129.71 93.86 129.91C93.86 129.91 93.86 129.92 93.86 129.93C90.47 133.04 87.33 136.43 83.86 139.47C82.28 140.85 80.6 142.15 78.72 143.09C76.79 144.05 74.72 144.59 72.57 144.67C67.99 144.85 63.56 143.1 59.7 140.77C59.07 140.39 58.45 139.98 57.84 139.57H57.86ZM93.55 127.63C93.76 127.88 93.97 128.13 94.16 128.4C94.17 128.52 94.18 128.64 94.2 128.76C94.08 128.71 93.95 128.67 93.83 128.62C93.8 128.55 93.73 128.5 93.63 128.55C90.38 127.43 86.81 127.89 83.45 128.33C76.36 129.24 69.23 129.23 62.16 128.05C55.65 126.96 49.32 124.9 43.39 122.02C43.64 122.02 43.88 122.03 44.13 122.03C44.17 122.07 44.22 122.11 44.29 122.12C45.27 122.28 46.27 122.31 47.25 122.38L50.22 122.59C52.17 122.73 54.13 122.87 56.08 123.02C63.09 123.56 70.09 124.1 77.1 124.64C80.24 124.88 83.4 125.03 86.52 125.5C88.96 125.86 91.38 126.48 93.57 127.63H93.55ZM85.87 124.98C82.65 124.54 79.4 124.37 76.16 124.11C72.59 123.82 69.02 123.54 65.45 123.25C61.91 122.97 58.36 122.68 54.82 122.4C53.06 122.26 51.31 122.1 49.55 121.95C49.49 121.95 49.43 121.94 49.37 121.93C53.96 121.73 58.54 121.3 63.13 121.04C69.15 120.7 75.26 120.64 81.2 121.85C83.99 122.42 86.8 123.23 89.34 124.53C90.57 125.16 91.78 125.93 92.8 126.88C90.63 125.86 88.25 125.32 85.87 124.99V124.98ZM47.17 131.18C49.26 131.99 51.46 132.5 53.68 132.8C56.65 133.2 59.66 133.22 62.65 133.1C65.91 132.97 69.16 132.68 72.41 132.34C79.22 131.63 85.99 130.55 92.66 129C92.77 128.98 92.81 128.88 92.8 128.8C92.87 128.82 92.94 128.84 93.01 128.86C90.35 130.13 87.67 131.38 84.95 132.52C82.35 133.61 79.69 134.57 77.03 135.5C74.39 136.42 71.71 137.28 69.01 137.98C66.53 138.62 64 139.12 61.43 139.16C60.19 139.18 58.94 139.08 57.72 138.83C57.2 138.72 56.68 138.58 56.18 138.41C55.52 137.94 54.86 137.46 54.21 136.97C52.37 135.59 50.53 134.2 48.8 132.69C48.25 132.21 47.72 131.72 47.2 131.2L47.17 131.18ZM41.99 122.14C45.43 123.86 49.01 125.29 52.69 126.41C59.44 128.47 66.49 129.55 73.55 129.56C77.13 129.56 80.67 129.22 84.22 128.77C86.88 128.43 89.69 128.13 92.34 128.69C88.68 129.39 85.01 130.02 81.33 130.57C74.86 131.53 68.31 132.27 61.77 132.46C56.36 132.62 50.85 132.18 45.92 129.86C43.98 127.64 42.47 125.08 41.98 122.14H41.99ZM27.13 111.39C27.13 111.39 27.14 111.39 27.15 111.39C32.37 110.91 37.63 110.79 42.87 111.06C52.14 111.53 61.36 113.09 70.25 115.78C74.68 117.12 79.03 118.73 83.26 120.6C85.24 121.48 87.21 122.4 89.12 123.42C88.5 123.12 87.86 122.84 87.22 122.59C84.49 121.53 81.62 120.83 78.73 120.39C72.83 119.5 66.82 119.73 60.88 120.11C54.87 120.49 48.86 121.07 42.84 120.93C37.53 120.8 31.15 119.86 28.22 114.81C27.59 113.72 27.25 112.57 27.13 111.4V111.39ZM30.61 101.72C35.55 102.5 40.47 103.31 45.35 104.45C54.16 106.51 62.79 109.3 71.12 112.84C78.59 116.02 85.8 119.78 92.7 124.06V124.15C92.39 124.38 91.97 124.49 91.64 124.24C91.57 124.19 91.5 124.16 91.43 124.14C90.69 123.69 89.93 123.27 89.18 122.87C86.88 121.64 84.49 120.55 82.09 119.52C73.47 115.82 64.38 113.22 55.12 111.7C45.86 110.18 36.42 109.84 27.07 110.62C27.01 107.44 28.55 104.21 30.6 101.72H30.61ZM42.65 94.41C43.65 94.76 44.66 95.05 45.67 95.37C46.9 95.76 48.13 96.14 49.35 96.53C51.8 97.31 54.25 98.11 56.67 98.98C64.82 101.92 72.8 105.44 79.9 110.48C84.85 114 89.26 118.23 92.79 123.15C92.76 123.2 92.73 123.26 92.73 123.33C92.73 123.42 92.73 123.51 92.71 123.61C89.31 121.48 85.83 119.47 82.27 117.62C74.19 113.41 65.73 109.9 57.06 107.1C52.77 105.72 48.42 104.5 44.02 103.49C39.78 102.51 35.48 101.64 31.16 101.1C31.29 100.96 31.41 100.82 31.54 100.68C34.54 97.56 38.49 95.51 42.66 94.42L42.65 94.41ZM78.57 102C82.99 105.06 86.79 108.94 89.68 113.47C90.64 114.98 91.49 116.57 92.23 118.21C92.23 118.22 92.22 118.23 92.21 118.24C92.13 118.93 92.24 119.54 92.47 120.19C92.71 120.87 93.03 121.54 93.19 122.25C93.24 122.47 93.26 122.7 93.25 122.93H93.11C91.64 120.87 90.02 118.92 88.25 117.11C82.52 111.24 75.55 106.73 68.18 103.2C64.01 101.2 59.72 99.49 55.37 97.91C53.17 97.11 50.96 96.35 48.74 95.6C47.19 95.08 45.64 94.53 44.07 94.06C44.62 93.95 45.17 93.84 45.72 93.76C51.68 92.86 57.85 93.61 63.64 95.16C68.94 96.58 74.05 98.86 78.57 101.99V102ZM70.28 87.54C72.74 89.07 75.1 90.77 77.31 92.64C81.57 96.26 85.55 100.51 88.46 105.31C89.92 107.72 91.29 110.21 92.46 112.78C93.48 115.03 94.43 117.35 95.2 119.71C95.2 120.05 95.2 120.39 95.19 120.73C95.12 120.64 95.05 120.54 94.98 120.44C94.82 120.03 94.67 119.62 94.49 119.22C92.3 114.13 89.19 109.44 85.36 105.44C82.31 102.26 78.75 99.37 74.78 97.36C74.13 96.92 73.43 96.56 72.69 96.29C72.47 96.16 72.24 96.04 72.02 95.91L71.99 95.89C71.71 95.57 71.45 95.22 71.22 94.85C69.85 92.63 69.81 90.06 70.29 87.53L70.28 87.54ZM76.77 70.91C77.73 72.68 78.78 74.39 79.71 76.18C80.61 77.92 81.49 79.67 82.33 81.44C85.36 87.81 87.99 94.38 90.22 101.07C91.33 104.41 92.35 107.77 93.25 111.16C93.83 113.33 94.33 115.51 94.81 117.7C94.63 117.1 94.44 116.5 94.23 115.91C93.7 114.42 93.07 112.96 92.4 111.53C91.8 110.26 91.15 109 90.45 107.78C89.75 106.55 88.95 105.4 88.17 104.23C86.59 101.87 84.86 99.6 82.99 97.46C79.37 93.32 75.11 89.73 70.43 86.85C70.81 85.14 71.39 83.46 71.91 81.93C73.22 78.1 74.86 74.38 76.76 70.81C76.76 70.84 76.76 70.87 76.78 70.9L76.77 70.91ZM83.9 59.81C84.45 60.75 85.02 61.67 85.53 62.63C86.09 63.66 86.61 64.72 87.11 65.78C88.11 67.91 88.98 70.09 89.77 72.31C92.64 80.4 94.11 88.93 94.79 97.47C95.16 102.13 95.37 106.86 95.3 111.54C95.27 113.64 95.25 115.75 95.22 117.85C94.66 115.19 94.01 112.55 93.32 109.93C91.52 103.08 89.29 96.34 86.61 89.78C85.26 86.48 83.81 83.22 82.25 80.01C81.47 78.41 80.67 76.81 79.84 75.24C79.02 73.69 78.26 72.08 77.37 70.57C77.27 70.4 77.07 70.4 76.93 70.48C77.1 70.17 77.25 69.86 77.42 69.56C79.32 66.15 81.5 62.88 83.91 59.81H83.9ZM106.77 100.87C105 107.59 102.35 114.01 99.5 120.34C99.44 120.35 99.39 120.38 99.35 120.44C98.94 121 98.5 121.62 97.84 121.91C97.55 122.04 97.25 122.07 96.97 122.02C97.58 118.09 98.11 114.15 98.68 110.21C99.39 105.31 100.1 100.41 100.81 95.51C101.51 90.65 102.19 85.78 102.42 80.87C102.81 72.64 101.83 64.09 97.89 56.76C98.8 57.51 99.63 58.36 100.39 59.25C101.7 60.79 102.86 62.46 103.86 64.22C105.84 67.71 107.19 71.54 107.99 75.46C109.72 83.91 108.94 92.58 106.77 100.87ZM117.61 89.63C116.53 92.13 115.42 94.61 114.25 97.07C110.21 105.61 105.54 113.8 100.47 121.76C100.24 122.02 100.01 122.28 99.78 122.54C103.5 114.28 106.95 105.83 108.76 96.93C109.52 96.19 110.3 95.48 111.1 94.78C113.17 92.94 115.34 91.22 117.6 89.64L117.61 89.63ZM142.51 79.8C141.46 81.29 140.26 82.62 138.84 83.79C137.2 85.14 135.4 86.29 133.63 87.46C131.97 88.56 130.34 89.69 128.81 90.96C127.13 92.36 125.55 93.88 124.02 95.44C120.79 98.73 117.78 102.24 114.73 105.69C110.75 110.19 106.75 114.68 102.77 119.18C103.28 118.38 103.8 117.59 104.3 116.78C107 112.44 109.53 108 111.88 103.46C114.24 98.9 116.44 94.26 118.41 89.52C118.47 89.36 118.42 89.23 118.33 89.15C119.71 88.22 121.14 87.34 122.6 86.53C126.76 84.24 131.19 82.43 135.77 81.19C137.98 80.59 140.23 80.13 142.5 79.81L142.51 79.8ZM154.81 81.6C154.81 81.6 154.73 81.62 154.71 81.66C152.25 86.11 148.34 89.51 144.22 92.39C140.14 95.24 135.8 97.73 131.5 100.23C127.03 102.82 122.54 105.37 118.2 108.17C114.33 110.66 110.53 113.35 107.03 116.35C106.23 117.04 105.44 117.74 104.67 118.46C105.41 117.61 106.15 116.75 106.88 115.9C110.08 112.18 113.32 108.49 116.54 104.78C119.53 101.33 122.44 97.77 125.66 94.53C127.22 92.96 128.89 91.49 130.66 90.16C132.21 88.99 133.85 87.95 135.46 86.88C138.29 84.99 141.44 82.8 143.08 79.71C145.48 79.39 147.92 79.24 150.31 79.69C151.94 80 153.48 80.64 154.81 81.6ZM158.78 99.53C155.7 102.41 152.12 104.7 148.28 106.44C139.39 110.47 129.61 111.6 120.24 114.01C115.9 115.13 111.6 116.52 107.58 118.52C106.17 119.22 104.79 119.99 103.47 120.85C105.24 118.99 107.1 117.2 109.06 115.54C116.65 109.14 125.43 104.35 133.93 99.28C138.1 96.8 142.31 94.3 146.19 91.38C149.68 88.76 152.89 85.65 154.93 81.74C154.94 81.71 154.93 81.69 154.93 81.67C155.39 82.01 155.83 82.4 156.24 82.82C157.76 84.4 158.83 86.37 159.43 88.48C160.46 92.1 159.99 95.96 158.77 99.52L158.78 99.53ZM136.14 118.85C135.55 118.99 134.95 119.11 134.36 119.23C130.47 120 126.51 120.38 122.56 120.74C118.03 121.15 113.49 121.54 109.03 122.46C106.84 122.91 104.67 123.5 102.58 124.28C102.48 124.32 102.37 124.36 102.27 124.4C101.95 124.39 101.62 124.4 101.3 124.45C100.97 124.49 100.63 124.52 100.29 124.5L100.35 124.43L100.51 124.28C101.42 123.48 102.38 122.74 103.38 122.04C105.39 120.64 107.53 119.44 109.76 118.42C118.65 114.33 128.5 113.16 137.89 110.67C145.23 108.72 152.96 105.8 158.48 100.39C158.1 101.37 157.68 102.33 157.21 103.24C155.13 107.3 152.07 110.84 148.39 113.52C144.75 116.16 140.52 117.83 136.16 118.84L136.14 118.85ZM150.29 125.13C146.47 124.91 142.65 124.81 138.82 124.76C131.67 124.67 124.51 124.89 117.37 125.32C111.39 125.67 105.42 126.24 99.47 126.96C99.71 126.84 99.95 126.71 100.2 126.59C104.3 124.59 108.77 123.57 113.26 122.92C117.92 122.25 122.62 121.96 127.3 121.44C130.11 121.13 132.92 120.74 135.68 120.13C135.96 120.17 136.23 120.2 136.51 120.23C139.46 120.62 142.35 121.37 145.1 122.5C146.45 123.05 147.77 123.69 149.04 124.41C149.43 124.63 149.86 124.87 150.28 125.13H150.29ZM139.81 129.77C132.46 129.81 125.15 128.61 117.84 127.91C113.42 127.49 108.94 127.19 104.5 127.44C105.64 127.31 106.77 127.17 107.91 127.05C115.04 126.3 122.2 125.8 129.37 125.58C136.56 125.35 143.75 125.41 150.95 125.59C151.4 125.94 151.79 126.35 152.02 126.84C152.29 127.41 152.22 127.95 151.98 128.45C147.99 129.37 143.91 129.74 139.81 129.77ZM135.66 136.6C128.94 137.05 122.3 135.51 115.9 133.63C109.87 131.86 103.89 129.72 97.67 128.76C101.2 128.11 104.79 127.85 108.38 127.87C115.75 127.9 123.04 129.06 130.35 129.81C137.25 130.52 144.37 130.93 151.21 129.53C151.03 129.72 150.84 129.91 150.67 130.07C149.68 131.02 148.63 131.91 147.54 132.75C146.96 133.2 146.36 133.62 145.75 134.04C142.6 135.56 139.15 136.38 135.66 136.61V136.6ZM96.9 129.4C100.32 129.87 103.71 130.64 107.03 131.57C113.75 133.45 120.36 135.85 127.31 136.79C132.66 137.51 138.28 137.41 143.35 135.52C142.45 136.04 141.53 136.54 140.59 136.98C135.63 139.33 130.19 140.64 124.7 140.74C119.31 140.84 113.91 139.71 108.97 137.58C106.51 136.52 104.16 135.21 101.97 133.66C100.86 132.88 99.8 132.04 98.78 131.15C98.14 130.58 97.52 129.99 96.9 129.4ZM96.54 121.89C96.34 121.8 96.15 121.69 95.97 121.55H95.95C95.88 121.12 95.79 120.71 95.72 120.3C95.79 116.75 95.75 113.2 95.72 109.66C95.63 100.62 95.08 91.53 93.23 82.66C92.37 78.53 91.25 74.44 89.76 70.49C89.02 68.52 88.19 66.58 87.27 64.69C86.38 62.86 85.44 61 84.33 59.29C84.54 59.03 84.74 58.75 84.96 58.49C86.26 56.92 87.74 55.33 89.69 54.6C91.62 53.88 93.69 54.26 95.49 55.17C95.82 55.34 96.14 55.52 96.45 55.72C96.46 55.76 96.47 55.79 96.49 55.83C99.03 59.96 100.53 64.66 101.26 69.44C102.69 78.79 101.26 88.27 99.95 97.55C99.27 102.4 98.59 107.25 97.91 112.1C97.46 115.36 96.97 118.63 96.54 121.89ZM165.8 193.65C165.62 193.5 165.41 193.57 165.3 193.73C159.46 192.91 153.66 191.77 147.94 190.29C142.15 188.8 136.45 186.96 130.87 184.81C125.99 182.92 121.11 180.86 116.77 177.91C114.82 176.58 113 175.07 111.41 173.36C113.94 175.04 116.64 176.49 119.37 177.78C126.77 181.29 134.67 183.72 142.45 186.24C150.36 188.8 158.3 191.32 166.32 193.53C166.42 193.66 166.52 193.79 166.63 193.91C166.41 193.88 166.2 193.85 165.98 193.82C165.92 193.76 165.86 193.7 165.8 193.65ZM165.24 195.38C165.31 195.38 165.37 195.38 165.44 195.38C165.46 195.48 165.48 195.58 165.49 195.69C165.31 195.69 165.13 195.69 164.95 195.68C165.05 195.58 165.14 195.48 165.23 195.38H165.24ZM117.35 221.67C119.46 222.04 121.59 222.29 123.73 222.41C128.88 222.69 134.06 222.22 139.04 220.86C143.32 219.69 147.41 217.81 151.09 215.33C154.63 212.94 157.79 209.97 160.37 206.57C162.58 203.65 164.42 200.32 165.52 196.8C165.51 197.2 165.49 197.6 165.45 198C165.06 202.5 163.3 206.78 160.65 210.42C157.92 214.17 154.25 217.14 150.12 219.22C145.86 221.36 141.2 222.6 136.47 223.09C131.19 223.64 125.85 223.24 120.63 222.32C119.53 222.13 118.44 221.9 117.34 221.67H117.35ZM108.77 218.58C113.77 218.62 118.77 218.63 123.77 218.31C132.67 217.73 141.6 216.09 149.58 211.95C153.04 210.15 156.29 207.92 159.11 205.22C161.35 203.07 163.39 200.58 164.89 197.83C163.54 201.38 161.57 204.7 159.13 207.61C156.41 210.85 153.13 213.6 149.52 215.8C145.65 218.15 141.38 219.79 136.96 220.74C132.01 221.81 126.89 222.02 121.86 221.51C117.4 221.06 113.01 220.06 108.78 218.59L108.77 218.58ZM107.08 215.85C111.76 214.27 116.53 213.05 121.37 212.07C129.69 210.38 138.14 209.1 146.22 206.4C149.91 205.17 153.51 203.65 156.89 201.71C159.7 200.1 162.41 198.19 164.73 195.9C165 195.88 165.26 195.87 165.53 195.85C165.53 195.85 165.53 195.86 165.53 195.87C164.52 197.8 163.42 199.65 162.08 201.37C160.77 203.05 159.29 204.6 157.69 206.01C151.62 211.34 144 214.58 136.14 216.17C126.63 218.09 116.89 217.95 107.24 217.81C107.17 217.81 107.11 217.82 107.05 217.85C107 217.72 106.96 217.59 106.94 217.45C106.85 216.91 106.92 216.37 107.08 215.85ZM110.53 210.9C113.93 208.54 117.76 206.9 121.72 205.74C128.93 203.62 136.44 203.11 143.84 202.04C147.54 201.51 151.23 200.84 154.83 199.81C157.99 198.91 161.12 197.72 163.95 196.04C161.25 198.36 158.33 200.37 155.14 202.01C148 205.68 140.16 207.66 132.34 209.22C128 210.09 123.64 210.87 119.31 211.77C115.35 212.59 111.37 213.51 107.52 214.8C107.59 214.66 107.67 214.52 107.74 214.39C108.3 213.42 109.03 212.55 109.74 211.69C109.94 211.44 110.15 211.2 110.36 210.96C110.42 210.96 110.47 210.93 110.53 210.89V210.9ZM113.66 207.62C115.09 206.53 116.5 205.45 118.08 204.57C119.6 203.72 121.2 203 122.84 202.39C125.84 201.27 128.96 200.5 132.08 199.84C135.74 199.06 139.43 198.4 143.14 197.85C146.86 197.3 150.59 196.87 154.33 196.56C157.37 196.31 160.42 196.17 163.46 195.99C160.18 197.68 156.74 198.95 153.14 199.83C145.79 201.63 138.21 202.04 130.75 203.18C124.26 204.17 117.73 205.71 112.04 209.04C112.47 208.57 112.9 208.12 113.34 207.66C113.45 207.69 113.56 207.69 113.66 207.61V207.62ZM138.65 194.44C143.91 193.93 149.2 194.4 154.46 194.83C157.83 195.11 161.22 195.36 164.6 195.38C164.43 195.47 164.25 195.57 164.07 195.66C160.31 195.61 156.55 195.87 152.81 196.18C145.3 196.8 137.81 197.87 130.45 199.46C127.33 200.13 124.22 200.95 121.25 202.14C119.79 202.72 118.37 203.4 117.02 204.2C119.54 202.03 122.26 200.08 125.19 198.52C129.39 196.28 133.92 194.91 138.65 194.45V194.44ZM114.71 181.64C114.86 181.84 115 182.04 115.15 182.23C116.22 183.61 117.31 184.96 118.44 186.29C117.8 185.59 117.16 184.87 116.54 184.15C115.92 183.32 115.31 182.49 114.71 181.64ZM111.37 175.04C113.53 177.16 116.02 178.97 118.63 180.5C123.43 183.31 128.67 185.37 133.89 187.25C139.66 189.33 145.56 191.07 151.54 192.46C153.9 193.01 156.27 193.48 158.64 193.91C155.68 193.71 152.72 193.42 149.76 193.22C144.34 192.86 138.83 192.76 133.51 194.01C131.78 194.42 130.1 194.96 128.46 195.61C127.38 194.35 126.22 193.18 125.07 191.99C123.82 190.69 122.59 189.36 121.39 188.01C117.76 183.92 114.41 179.59 111.36 175.05L111.37 175.04ZM106.58 165.67C109.31 168 112.42 169.9 115.59 171.56C119.27 173.49 123.08 175.15 126.88 176.81C130.97 178.61 135.09 180.33 139.22 182.04C145.95 184.83 152.75 187.48 159.56 190.08C160.92 190.93 162.32 191.72 163.77 192.41C160.43 191.41 157.08 190.42 153.75 189.4C145.55 186.88 137.34 184.29 129.28 181.34C125.61 180 121.98 178.53 118.47 176.79C115.49 175.31 112.69 173.6 109.99 171.67C108.71 170.04 107.63 168.25 106.82 166.29C106.73 166.08 106.66 165.87 106.58 165.66V165.67ZM105.14 155.84C105.67 156.07 106.19 156.31 106.72 156.54C111.35 158.63 115.89 160.9 120.35 163.33C124.83 165.78 129.22 168.4 133.5 171.18C137.76 173.95 141.92 176.85 145.96 179.93C149.76 182.83 153.42 185.93 157.36 188.65C157.64 188.85 157.93 189.03 158.22 189.22C155.58 188.18 152.94 187.14 150.31 186.08C142.06 182.79 133.83 179.46 125.73 175.79C122.04 174.12 118.35 172.42 114.82 170.45C111.71 168.71 108.78 166.71 106.12 164.35C105.5 162.38 105.15 160.33 105.07 158.27C105.04 157.48 105.05 156.65 105.14 155.83V155.84ZM108.16 150.73C108.73 150.91 109.3 151.1 109.87 151.3C114.36 152.82 118.73 154.66 122.99 156.73C127.29 158.83 131.46 161.18 135.49 163.76C139.5 166.33 143.35 169.12 147.03 172.15C150.72 175.19 154.25 178.44 157.56 181.89C160.86 185.32 163.95 188.94 166.87 192.7C166.9 192.75 166.95 192.76 166.99 192.76C167.09 192.94 167.19 193.12 167.3 193.31C167.11 193.14 166.91 192.97 166.69 192.83C166.61 192.77 166.52 192.76 166.44 192.76C162.96 189.75 159.45 186.79 155.9 183.87C152.11 180.77 148.24 177.76 144.28 174.86C140.34 171.98 136.31 169.22 132.18 166.63C128.06 164.05 123.83 161.65 119.48 159.48C115.13 157.32 110.65 155.39 106.05 153.83C105.64 153.69 105.36 154.31 105.78 154.46C106.34 154.66 106.91 154.87 107.47 155.09C112.01 156.82 116.46 158.76 120.79 160.96C125.12 163.16 129.33 165.59 133.42 168.19C137.54 170.8 141.56 173.59 145.49 176.5C149.41 179.4 153.27 182.39 157.05 185.47C160.1 187.95 163.12 190.47 166.14 192.98L166.12 193.04C164.65 192.44 163.22 191.74 161.83 190.97C162.62 191.27 163.4 191.57 164.19 191.87C164.33 191.92 164.43 191.71 164.28 191.65C162.93 191.11 161.57 190.58 160.21 190.04C158.69 189.13 157.22 188.14 155.77 187.09C151.86 184.24 148.15 181.13 144.27 178.23C140.22 175.21 136.07 172.32 131.81 169.61C127.57 166.92 123.24 164.38 118.81 162.01C114.36 159.62 109.82 157.4 105.21 155.35C105.39 154.16 105.74 153 106.39 151.99C106.81 151.34 107.35 150.79 108.01 150.42C107.96 150.55 107.99 150.71 108.16 150.76V150.73ZM159.56 179.69C161.11 183.08 162.96 186.3 165.13 189.33C165.45 189.94 165.78 190.54 166.1 191.14C166.08 191.11 166.06 191.08 166.04 191.06C163.17 187.28 160 183.71 156.66 180.34C153.28 176.93 149.7 173.72 145.94 170.72C142.2 167.74 138.3 164.97 134.25 162.43C130.22 159.91 126.04 157.63 121.74 155.6C117.4 153.55 112.94 151.76 108.41 150.2C108.47 150.17 108.53 150.14 108.59 150.11C109.97 149.61 111.5 149.98 112.86 150.36C115.83 151.18 118.78 152.13 121.7 153.11C127.25 154.97 132.84 156.91 138.09 159.51C142.97 161.93 147.42 165.05 151.22 168.95C154.39 172.21 157.11 175.86 159.56 179.68V179.69ZM156.28 140.39C156.26 140.61 156.24 140.82 156.22 141.04C156.03 143.28 155.93 145.52 155.91 147.76C155.81 155.83 156.83 163.89 158.85 171.71C159.76 175.25 160.9 178.74 162.22 182.15C161.53 180.99 160.83 179.83 160.11 178.69C159.31 176.87 158.59 175.01 157.96 173.11C156.15 167.6 155.11 161.84 154.89 156.05C154.69 150.8 155.17 145.53 156.28 140.39ZM160.79 127.02C160.46 131.3 160.28 135.59 160.24 139.88C160.15 149.11 160.82 158.34 162.08 167.48C162.7 172.01 163.47 176.53 164.4 181.01C164.87 183.28 165.38 185.53 165.93 187.78C166.1 188.49 166.28 189.2 166.46 189.91C165.48 187.98 164.46 186.07 163.39 184.18C163.03 183.34 162.68 182.49 162.35 181.64C159.46 174.17 157.66 166.31 156.87 158.35C156.47 154.34 156.37 150.29 156.52 146.27C156.6 144.27 156.76 142.27 156.98 140.28C157.09 139.28 157.22 138.29 157.36 137.3C157.46 136.54 157.6 135.79 157.69 135.03C158.54 132.29 159.58 129.62 160.79 127.02ZM169.02 116.87C169.29 119.72 169.66 122.56 169.97 125.4C170.3 128.39 170.6 131.38 170.88 134.37C171.37 139.71 171.77 145.05 172.08 150.4C172.39 155.61 172.65 160.84 172.72 166.06C172.79 170.88 172.66 175.72 171.98 180.51C171.36 184.86 170.26 189.08 168.54 193.11C168.54 193.11 168.53 193.13 168.52 193.14C168.36 193.1 168.19 193.06 168.03 193.01C168.01 193.01 167.99 193.01 167.98 193.01C167.92 192.88 167.86 192.74 167.8 192.61C167.94 192.58 168.05 192.43 167.94 192.28C167.7 191.96 167.47 191.63 167.24 191.3C166.85 189.8 166.43 188.31 166.07 186.81C165.46 184.3 164.91 181.79 164.41 179.26C162.62 170.28 161.53 161.17 161.09 152.03C160.66 143.13 160.84 134.21 161.6 125.33C162.13 124.27 162.68 123.23 163.27 122.21C164.01 120.93 164.79 119.68 165.62 118.46C166.29 117.48 167.19 116.05 168.58 116.65C168.73 116.71 168.87 116.79 169.01 116.88L169.02 116.87ZM180.4 129.56C180.76 131.27 181.11 132.98 181.39 134.7C181.79 137.22 182.08 139.75 182.25 142.29C182.87 151.33 182.09 160.47 179.93 169.26C178.84 173.69 177.41 178.04 175.63 182.24C174.75 184.33 173.77 186.38 172.73 188.4C172.01 189.79 171.23 191.14 170.44 192.49C170.13 192.76 169.81 193.02 169.49 193.28C169.43 193.25 169.38 193.22 169.32 193.19C171.28 188.72 172.36 183.85 172.88 179.02C173.4 174.21 173.42 169.35 173.28 164.52C173.13 159.24 172.86 153.97 172.52 148.7C172.17 143.3 171.73 137.9 171.2 132.52C170.7 127.39 170.21 122.22 169.39 117.13C169.68 117.35 169.96 117.59 170.24 117.82C170.76 118.25 171.27 118.69 171.77 119.14C172.77 120.04 173.73 120.99 174.64 121.97C176.8 124.3 178.73 126.85 180.4 129.55V129.56ZM186.38 166.84C185.08 172.02 182.93 177 180.05 181.5C177.82 184.99 175.15 188.2 172.12 191.02C173.92 187.78 175.47 184.38 176.8 180.94C180.11 172.41 182.11 163.38 182.71 154.24C183.01 149.69 182.96 145.12 182.56 140.58C182.36 138.32 182.07 136.07 181.69 133.83C181.51 132.8 181.32 131.77 181.11 130.74C181.98 132.24 182.78 133.77 183.49 135.35C185.7 140.27 187.12 145.53 187.63 150.9C188.14 156.24 187.69 161.64 186.38 166.83V166.84ZM213.18 160.06C209.74 161.04 206.41 162.41 203.23 164.02C196.05 167.63 189.62 172.62 184.21 178.56C183.11 179.77 182.04 181.01 180.97 182.27C181.73 181.08 182.44 179.87 183.1 178.62C184.77 175.47 186.1 172.15 187.07 168.73C187.46 168.35 187.86 167.99 188.26 167.63C194.21 162.42 202.17 160.4 209.92 160.11C211.01 160.07 212.09 160.06 213.18 160.07V160.06ZM227.55 162.06C227.25 162.1 226.95 162.14 226.64 162.19C222.22 162.88 217.86 164.06 213.61 165.43C209.32 166.82 205.13 168.48 201.06 170.43C197.01 172.37 193.1 174.6 189.33 177.05C186.74 178.73 184.23 180.54 181.81 182.46C182.98 181.06 184.17 179.66 185.4 178.31C188.11 175.33 191.1 172.62 194.33 170.21C197.59 167.78 201.07 165.67 204.71 163.89C207.78 162.39 210.98 161.17 214.22 160.08C217.23 160.15 220.24 160.39 223.23 160.72C224.71 160.88 226.34 161.13 227.55 162.07V162.06ZM227.65 168.34C223.91 170.78 219.89 172.75 215.75 174.41C207.59 177.69 199.01 179.77 190.73 182.7C186.71 184.13 182.74 185.77 178.98 187.79C177.64 188.51 176.33 189.27 175.05 190.09C175.94 189.19 176.81 188.27 177.65 187.33C178 186.94 178.33 186.54 178.67 186.15C179.21 185.67 179.75 185.19 180.3 184.73C183.69 181.83 187.28 179.16 191.03 176.74C194.79 174.31 198.74 172.15 202.79 170.25C206.82 168.36 210.99 166.7 215.24 165.36C219.37 164.06 223.56 163.15 227.78 162.24C229.18 163.51 229.05 165.6 228.31 167.18C228.12 167.58 227.9 167.97 227.65 168.34ZM214.78 182.3C214.02 182.58 213.34 183.07 212.61 183.44C211.89 183.8 211.15 184.12 210.38 184.39C208.77 184.95 207.1 185.28 205.41 185.48C202.02 185.88 198.6 185.7 195.19 185.77C192.05 185.83 188.94 186.19 185.86 186.83C183.24 187.37 180.68 188.17 178.2 189.17C179.12 188.64 180.05 188.13 181 187.65C188.71 183.72 197.07 181.29 205.27 178.59C212.87 176.09 220.55 173.31 227.26 168.9C226.5 169.93 225.58 170.87 224.75 171.82C223.51 173.23 222.25 174.63 220.98 176.01C218.98 178.18 216.93 180.3 214.77 182.31L214.78 182.3ZM205.28 189.72C203.06 189.78 200.85 189.9 198.64 190.06C193.85 190.4 189.06 190.82 184.28 191.36C181.87 191.63 179.45 191.93 177.04 192.25C175.85 192.41 174.66 192.57 173.47 192.74C173.19 192.78 172.91 192.82 172.63 192.86L172.81 192.73C173.23 192.48 173.65 192.22 174.08 191.99C175.59 191.17 177.14 190.42 178.73 189.77C181.57 188.6 184.53 187.68 187.55 187.11C190.72 186.51 193.92 186.32 197.14 186.31C200.47 186.3 203.84 186.38 207.13 185.78C208.57 185.52 210 185.14 211.35 184.59C212.01 184.32 212.65 184.01 213.27 183.65C213.3 183.63 213.33 183.61 213.36 183.59C213.23 183.71 213.1 183.83 212.97 183.95C210.56 186.07 208 188.04 205.27 189.73L205.28 189.72ZM180.43 195.37C178.23 194.92 175.99 194.57 173.75 194.39C173.07 194.25 172.39 194.1 171.71 193.94C171.82 193.92 171.93 193.9 172.04 193.88C172.69 193.78 173.34 193.68 173.98 193.58C175.33 193.38 176.68 193.18 178.03 192.99C182.79 192.33 187.56 191.75 192.34 191.24C196.46 190.8 200.59 190.46 204.72 190.05C201.28 192.12 197.59 193.74 193.64 194.63C189.29 195.61 184.84 195.76 180.42 195.36L180.43 195.37ZM215.11 224.85C213.02 221.62 210.59 218.6 207.96 215.8C202.94 210.44 197.15 205.81 190.84 202.06C187.71 200.2 184.43 198.56 181.05 197.18C180.47 196.94 179.87 196.72 179.28 196.5C180.3 196.61 181.32 196.69 182.34 196.74C187.92 198.12 193.32 200.17 198.39 202.9C202.24 204.98 205.96 207.42 209.22 210.36C210.83 211.81 212.32 213.41 213.61 215.15C214.9 216.89 216.18 218.88 216.37 221.1C216.49 222.56 215.94 223.8 215.1 224.87L215.11 224.85ZM208.8 230C206.73 226.56 204.44 223.27 201.94 220.13C197.48 214.53 192.5 209.37 186.97 204.82C182.83 201.41 178.39 198.35 173.76 195.65C174.13 195.72 174.5 195.79 174.88 195.86C175.34 196 175.8 196.13 176.26 196.28C178.18 196.92 180.07 197.63 181.94 198.42C188.65 201.26 194.97 205.05 200.61 209.67C206.08 214.16 210.76 219.42 214.9 225.15C214.54 225.57 214.15 225.96 213.73 226.33C212.2 227.68 210.55 228.91 208.82 230H208.8ZM201.18 233.23C199.02 230.19 196.78 227.21 194.49 224.26C190.19 218.74 185.73 213.34 181.16 208.04C178.87 205.39 176.49 202.82 174.1 200.28C172.89 199 171.67 197.72 170.45 196.46C170.13 196.13 169.81 195.81 169.5 195.48C169.59 195.49 169.68 195.5 169.77 195.51C170.1 195.55 170.31 195.35 170.4 195.12C170.52 195.1 170.61 195.06 170.68 194.99C173.53 196.52 176.32 198.17 179.01 199.97C184.92 203.93 190.41 208.51 195.4 213.58C200.36 218.63 204.71 224.23 208.53 230.18C208.52 230.18 208.5 230.2 208.49 230.21C206.22 231.61 203.77 232.66 201.2 233.23H201.18ZM195.54 233.62C194.4 232.7 193.27 231.78 192.23 230.75C190.96 229.49 189.81 228.12 188.74 226.69C184.83 221.49 182.1 215.55 179.07 209.83C177.54 206.95 175.91 204.08 174.01 201.43C174.13 201.56 174.25 201.68 174.37 201.8C179.19 206.88 183.9 212.08 188.4 217.44C192.71 222.59 196.8 227.93 200.83 233.3C199.31 233.61 197.75 233.74 196.16 233.67C195.95 233.67 195.75 233.63 195.54 233.62ZM191.22 232.87C188.7 231.3 186.5 229.25 184.62 226.95C180.63 222.06 178.11 216.24 175.6 210.51C174.28 207.49 172.95 204.46 171.38 201.56C170.61 200.15 169.79 198.76 168.89 197.43C168.56 196.94 168.21 196.46 167.86 195.99L167.99 195.9C170.45 197.99 172.56 200.44 174.4 203.1C178.15 208.5 180.8 214.51 184.02 220.22C185.6 223.01 187.31 225.74 189.34 228.22C190.32 229.43 191.38 230.58 192.52 231.64C193.25 232.32 194.01 232.97 194.82 233.55C193.6 233.42 192.4 233.19 191.21 232.86L191.22 232.87ZM175.43 220.85C170.44 213.46 168.29 204.67 166.79 195.99C166.89 196.11 166.99 196.23 167.09 196.36C167.64 197.07 168.18 197.8 168.68 198.55C169.73 200.1 170.67 201.72 171.55 203.37C174.59 209.11 176.8 215.26 180.01 220.92C182.54 225.38 185.73 229.63 190 232.51C187.97 231.84 186.03 230.9 184.24 229.73C180.71 227.43 177.78 224.33 175.44 220.85H175.43Z" fill="#E1D7C6"/>
</g>
<defs>
<clipPath id="clip0_10_17">
<rect width="229.99" height="267.61" fill="white" transform="translate(0 -24)"/>
</clipPath>
</defs>
</svg>
