<svg width="249" height="75" viewBox="0 0 249 75" fill="none" xmlns="http://www.w3.org/2000/svg">
<g clip-path="url(#clip0_43_11)">
<path d="M145.45 29.83C145.23 29.71 144.95 29.73 144.72 29.82C144.49 29.91 144.28 30.11 144.19 30.34C144.09 30.58 144.11 30.87 144.23 31.1C144.37 31.36 144.6 31.55 144.9 31.6C145.15 31.65 145.44 31.56 145.63 31.4C145.86 31.21 145.97 30.95 145.95 30.66C145.95 30.64 145.95 30.62 145.94 30.6C145.94 30.54 145.93 30.49 145.92 30.44C145.85 30.18 145.7 29.96 145.45 29.83Z" fill="#E1D7C6"/>
<path d="M146.42 28.65C146.42 28.65 146.48 28.71 146.53 28.72C146.59 28.74 146.65 28.75 146.71 28.74C146.71 28.74 146.73 28.74 146.74 28.74C146.77 28.74 146.79 28.74 146.83 28.72C146.83 28.72 146.83 28.72 146.84 28.72H146.86C146.9 28.7 146.93 28.68 146.96 28.65C146.96 28.65 146.96 28.65 146.96 28.64C146.96 28.64 146.98 28.63 146.98 28.62C147.01 28.6 147.03 28.58 147.04 28.55C147.06 28.52 147.07 28.49 147.07 28.46C147.07 28.44 147.07 28.42 147.07 28.39C147.07 28.35 147.05 28.31 147.02 28.27C147 28.25 146.99 28.24 146.97 28.22C146.97 28.22 146.97 28.22 146.96 28.22C146.94 28.2 146.92 28.19 146.9 28.17C146.9 28.17 146.9 28.17 146.89 28.17C146.88 28.17 146.87 28.15 146.86 28.14C146.86 28.14 146.85 28.14 146.84 28.14C146.84 28.14 146.84 28.14 146.82 28.14C146.79 28.14 146.76 28.12 146.73 28.12H146.7C146.64 28.12 146.58 28.12 146.52 28.14C146.49 28.15 146.47 28.17 146.44 28.18C146.39 28.22 146.36 28.26 146.33 28.32C146.31 28.36 146.3 28.41 146.31 28.45C146.31 28.5 146.31 28.54 146.33 28.58C146.35 28.62 146.37 28.66 146.41 28.69L146.42 28.65Z" fill="#E1D7C6"/>
<path d="M147.7 30.18C147.7 30.18 147.73 30.2 147.74 30.22C147.77 30.24 147.8 30.26 147.84 30.26C147.84 30.26 147.86 30.26 147.87 30.26C147.87 30.26 147.87 30.26 147.88 30.26C147.88 30.26 147.88 30.26 147.89 30.26C147.92 30.26 147.95 30.26 147.98 30.26C148.01 30.26 148.03 30.24 148.06 30.22C148.07 30.21 148.09 30.19 148.1 30.18C148.12 30.15 148.14 30.11 148.14 30.07C148.14 30.07 148.14 30.06 148.14 30.04C148.14 30.02 148.14 30.02 148.14 30.01C148.14 29.98 148.13 29.95 148.11 29.93C148.1 29.9 148.08 29.88 148.06 29.87C148.04 29.87 148.03 29.85 148.01 29.84C147.97 29.82 147.93 29.82 147.89 29.83C147.89 29.83 147.89 29.83 147.88 29.83C147.88 29.83 147.88 29.83 147.87 29.83C147.87 29.83 147.85 29.83 147.84 29.83C147.81 29.83 147.79 29.84 147.77 29.86C147.75 29.87 147.73 29.89 147.71 29.91L147.68 29.96C147.68 29.96 147.66 30.01 147.67 30.04C147.67 30.06 147.67 30.08 147.67 30.09C147.67 30.12 147.69 30.14 147.7 30.16V30.18Z" fill="#E1D7C6"/>
<path d="M120.36 54.91C120.36 54.91 120.45 55.06 120.47 55.09C120.54 55.19 120.67 55.22 120.78 55.18C120.81 55.18 120.83 55.2 120.86 55.21C120.99 55.27 121.14 55.3 121.29 55.29C121.47 55.28 121.64 55.2 121.79 55.09C121.99 54.97 122.15 54.78 122.24 54.55C122.35 54.26 122.34 53.94 122.24 53.66C122.21 53.54 122.17 53.43 122.11 53.33C122.04 53.22 121.95 53.13 121.84 53.07C121.72 52.95 121.57 52.85 121.42 52.8C121.1 52.7 120.8 52.8 120.59 53.06C120.49 53.18 120.43 53.32 120.38 53.47C120.27 53.63 120.19 53.81 120.16 54.01C120.11 54.31 120.18 54.65 120.37 54.89C120.37 54.9 120.39 54.92 120.39 54.93C120.37 54.9 120.37 54.9 120.38 54.93L120.36 54.91Z" fill="#E1D7C6"/>
<path d="M121.73 56.62C121.68 56.58 121.62 56.56 121.55 56.55C121.5 56.55 121.45 56.55 121.41 56.56C121.36 56.56 121.32 56.59 121.28 56.62C121.24 56.65 121.21 56.68 121.19 56.73C121.16 56.77 121.15 56.82 121.14 56.87C121.14 56.9 121.14 56.94 121.14 56.97C121.14 57.03 121.17 57.09 121.21 57.14C121.23 57.16 121.25 57.18 121.28 57.21C121.33 57.25 121.39 57.27 121.46 57.28C121.51 57.28 121.56 57.28 121.6 57.27C121.65 57.27 121.69 57.24 121.73 57.21C121.77 57.18 121.8 57.15 121.82 57.1C121.85 57.06 121.86 57.01 121.87 56.96C121.87 56.93 121.87 56.89 121.87 56.86C121.87 56.8 121.84 56.74 121.8 56.69C121.78 56.67 121.76 56.65 121.73 56.62Z" fill="#E1D7C6"/>
<path d="M124.11 56.9C124.11 56.9 124.09 56.86 124.07 56.84C124.06 56.83 124.05 56.82 124.03 56.81C124.02 56.8 124 56.79 123.98 56.79C123.96 56.79 123.95 56.79 123.93 56.79C123.9 56.79 123.88 56.79 123.85 56.8C123.82 56.81 123.79 56.82 123.76 56.84C123.68 56.87 123.63 56.94 123.62 57.03C123.62 57.07 123.62 57.11 123.64 57.15C123.65 57.18 123.67 57.2 123.69 57.22C123.71 57.24 123.73 57.26 123.76 57.27C123.8 57.29 123.84 57.29 123.88 57.29C123.92 57.29 123.96 57.27 123.99 57.24C124.02 57.21 124.05 57.18 124.06 57.14C124.07 57.11 124.08 57.08 124.1 57.05C124.1 57.03 124.1 57.02 124.11 57C124.11 56.98 124.11 56.96 124.11 56.95C124.11 56.93 124.11 56.92 124.1 56.9H124.11Z" fill="#E1D7C6"/>
<path d="M87.63 36.32C87.58 36.26 87.53 36.2 87.47 36.14C87.24 35.94 86.91 35.91 86.63 36.01C86.37 36.1 86.13 36.33 86.05 36.59C85.95 36.89 85.99 37.21 86.15 37.48C86.31 37.76 86.58 37.93 86.89 38C87.17 38.06 87.49 38 87.71 37.82C87.92 37.65 88.07 37.38 88.07 37.1C88.07 36.8 87.95 36.51 87.69 36.35C87.67 36.34 87.65 36.33 87.62 36.32H87.63Z" fill="#E1D7C6"/>
<path d="M89.63 36.36C89.63 36.36 89.54 36.31 89.48 36.3C89.44 36.3 89.4 36.3 89.36 36.31C89.32 36.31 89.28 36.33 89.25 36.36C89.22 36.38 89.19 36.41 89.17 36.45C89.15 36.48 89.13 36.52 89.13 36.57C89.13 36.6 89.13 36.63 89.13 36.65C89.13 36.7 89.16 36.75 89.19 36.8L89.25 36.86C89.25 36.86 89.34 36.91 89.4 36.92C89.44 36.92 89.48 36.92 89.52 36.91C89.56 36.91 89.6 36.89 89.63 36.86C89.66 36.84 89.69 36.81 89.71 36.77C89.73 36.74 89.75 36.7 89.75 36.65C89.75 36.62 89.75 36.59 89.75 36.57C89.75 36.52 89.72 36.47 89.69 36.42L89.63 36.36Z" fill="#E1D7C6"/>
<path d="M89.21 38.49C89.44 38.49 89.48 38.14 89.25 38.14C89.02 38.14 88.98 38.49 89.21 38.49Z" fill="#E1D7C6"/>
<path d="M23.27 15.88C23.43 15.81 23.56 15.69 23.65 15.55C23.74 15.46 23.8 15.35 23.84 15.23C23.92 14.96 23.86 14.68 23.68 14.46C23.52 14.26 23.27 14.11 23.01 14.11C22.71 14.11 22.46 14.22 22.26 14.44C22.08 14.63 22 14.91 22.03 15.16C22.11 15.72 22.74 16.12 23.27 15.88Z" fill="#E1D7C6"/>
<path d="M25.13 16.43C25.13 16.43 25.12 16.41 25.11 16.39C24.99 16.14 24.64 16.15 24.53 16.39L24.51 16.43C24.24 17.01 25.4 17.02 25.13 16.43Z" fill="#E1D7C6"/>
<path d="M25.55 15.34C25.55 15.34 25.56 15.37 25.57 15.39C25.58 15.42 25.6 15.44 25.63 15.46C25.64 15.47 25.66 15.48 25.67 15.49C25.67 15.49 25.68 15.49 25.69 15.49H25.73C25.73 15.49 25.77 15.5 25.79 15.49C25.8 15.49 25.81 15.49 25.82 15.48C25.84 15.48 25.85 15.46 25.86 15.44C25.86 15.44 25.86 15.44 25.86 15.43C25.86 15.42 25.88 15.4 25.89 15.39C25.9 15.36 25.91 15.33 25.9 15.29C25.9 15.27 25.9 15.26 25.89 15.24C25.89 15.21 25.87 15.17 25.87 15.14C25.87 15.11 25.85 15.08 25.83 15.05C25.82 15.04 25.81 15.03 25.79 15.02C25.76 15 25.73 14.99 25.7 14.98C25.67 14.98 25.65 14.98 25.62 14.98C25.6 14.98 25.57 15 25.55 15.01C25.53 15.02 25.51 15.04 25.5 15.07C25.49 15.09 25.48 15.12 25.47 15.14C25.47 15.17 25.47 15.21 25.48 15.24C25.5 15.27 25.51 15.31 25.53 15.34H25.55Z" fill="#E1D7C6"/>
<path d="M42.07 47.51V47.5H42.08H42.07V47.51Z" fill="#E1D7C6"/>
<path d="M42.41 46.28C41.86 46.11 41.24 46.33 40.93 46.84C40.78 47.1 40.7 47.37 40.74 47.67C40.77 47.92 40.88 48.18 41.04 48.37C41.39 48.8 41.98 48.96 42.49 48.73C42.92 48.54 43.26 48.09 43.24 47.61C43.24 47.6 43.24 47.58 43.24 47.57C43.31 47.02 42.93 46.45 42.4 46.28H42.41Z" fill="#E1D7C6"/>
<path d="M42.07 47.5C42.07 47.5 42.07 47.49 42.07 47.48C42.07 47.48 42.07 47.48 42.07 47.5C42.07 47.5 42.06 47.5 42.05 47.5C42.05 47.5 42.04 47.5 42.03 47.5C42.03 47.5 42.03 47.5 42.03 47.49L42.07 47.5Z" fill="#E1D7C6"/>
<path d="M42.96 49.82C42.96 49.82 42.91 49.77 42.89 49.75C42.83 49.71 42.77 49.68 42.69 49.67C42.63 49.67 42.58 49.67 42.53 49.69C42.48 49.7 42.43 49.72 42.39 49.76C42.35 49.79 42.31 49.83 42.29 49.88C42.26 49.93 42.24 49.98 42.24 50.03C42.24 50.07 42.24 50.1 42.24 50.14C42.25 50.21 42.28 50.28 42.32 50.33C42.34 50.35 42.37 50.38 42.39 50.4C42.45 50.44 42.51 50.47 42.59 50.48C42.65 50.48 42.7 50.48 42.75 50.46C42.8 50.45 42.85 50.43 42.89 50.39C42.93 50.36 42.97 50.32 42.99 50.27C43.02 50.22 43.04 50.17 43.04 50.12C43.04 50.08 43.04 50.05 43.04 50.01C43.03 49.94 43 49.87 42.96 49.82Z" fill="#E1D7C6"/>
<path d="M45.46 48.39C45.46 48.39 45.43 48.33 45.4 48.3C45.38 48.28 45.37 48.27 45.34 48.26C45.32 48.24 45.3 48.24 45.27 48.23C45.23 48.22 45.2 48.21 45.16 48.23C45.14 48.23 45.11 48.24 45.09 48.25C45.07 48.26 45.05 48.27 45.03 48.29C45.01 48.31 45 48.32 44.98 48.34C44.96 48.37 44.94 48.4 44.93 48.44C44.92 48.48 44.91 48.51 44.93 48.55V48.57C44.93 48.59 44.93 48.6 44.95 48.63C44.97 48.67 44.97 48.68 45 48.7C45.01 48.72 45.03 48.73 45.05 48.74C45.05 48.74 45.07 48.75 45.08 48.75C45.1 48.75 45.12 48.76 45.14 48.77C45.14 48.77 45.14 48.77 45.15 48.77H45.17C45.17 48.77 45.22 48.77 45.24 48.77C45.28 48.77 45.31 48.75 45.34 48.73C45.36 48.73 45.38 48.71 45.4 48.69C45.42 48.67 45.43 48.66 45.44 48.63C45.46 48.6 45.47 48.56 45.48 48.53C45.48 48.51 45.48 48.48 45.48 48.46L45.46 48.39Z" fill="#E1D7C6"/>
<path d="M207.61 34.33C207.38 34.2 207.07 34.2 206.83 34.32C206.59 34.43 206.39 34.64 206.3 34.89C206.2 35.17 206.23 35.46 206.38 35.72C206.52 35.96 206.76 36.14 207.05 36.18C207.3 36.21 207.59 36.13 207.78 35.95C207.88 35.85 207.97 35.73 208.02 35.59C208.13 35.41 208.18 35.19 208.13 34.99C208.06 34.7 207.88 34.48 207.62 34.34L207.61 34.33Z" fill="#E1D7C6"/>
<path d="M208.33 36.77C208.31 36.96 208.46 37.2 208.66 37.2C208.86 37.2 209.06 37.09 209.09 36.87C209.11 36.68 208.96 36.44 208.76 36.44C208.56 36.44 208.36 36.55 208.33 36.77Z" fill="#E1D7C6"/>
<path d="M210.9 35.04C210.9 35.04 210.84 35.01 210.81 35.01C210.79 35.01 210.77 35.01 210.74 35.01C210.7 35.01 210.66 35.03 210.62 35.06C210.61 35.06 210.6 35.08 210.58 35.09C210.55 35.11 210.53 35.13 210.52 35.16C210.52 35.18 210.51 35.18 210.5 35.2C210.5 35.2 210.5 35.2 210.5 35.21L210.48 35.27C210.48 35.27 210.48 35.31 210.48 35.34C210.48 35.36 210.49 35.38 210.5 35.4C210.51 35.43 210.53 35.46 210.55 35.48C210.56 35.5 210.58 35.51 210.6 35.52C210.62 35.53 210.64 35.54 210.66 35.54C210.68 35.54 210.7 35.55 210.72 35.54C210.75 35.54 210.78 35.54 210.81 35.52C210.81 35.52 210.82 35.52 210.83 35.52C210.88 35.5 210.91 35.46 210.94 35.42C210.94 35.41 210.96 35.4 210.97 35.38C210.99 35.35 211 35.33 211.01 35.29C211.02 35.26 211.02 35.23 211.01 35.19L210.99 35.13C210.99 35.13 210.96 35.07 210.94 35.05C210.93 35.03 210.91 35.02 210.89 35.01L210.9 35.04Z" fill="#E1D7C6"/>
<path d="M248.27 32.39C247.81 32.55 247.36 32.74 246.91 32.93C246.89 32.93 246.87 32.92 246.84 32.93C245.45 33.51 243.92 33.66 242.41 33.57C242.38 33.57 242.36 33.56 242.33 33.55C241.85 33.45 241.37 33.35 240.89 33.26C240.04 33.1 239.18 32.95 238.32 32.81C236.68 32.34 235.07 31.73 233.44 31.23C229.16 29.91 224.62 29.52 220.18 30.1C217.67 30.43 215.22 31.07 212.85 31.97C212.77 32 212.72 32.06 212.7 32.12C209.47 32.06 206.24 32.33 203.05 32.84C199.3 33.44 195.59 34.31 191.93 35.32C196.08 33.74 200.1 31.76 203.8 29.3C207.37 30.35 211.31 30.2 214.87 29.18C215.92 28.88 216.95 28.49 217.94 28.03C218.11 27.95 218.07 27.71 217.89 27.67C214.44 27.02 210.94 27.07 207.49 27.71C206.79 27.84 206.09 28.01 205.4 28.19C206.75 27.2 208.04 26.13 209.24 24.98C209.26 25.01 209.29 25.03 209.33 25.03C210.95 25.08 212.59 24.78 214.14 24.33C215.7 23.87 217.2 23.21 218.59 22.35C219.39 21.86 220.16 21.3 220.88 20.69C221.03 20.56 220.92 20.34 220.73 20.35C217.51 20.49 214.33 21.41 211.52 23C211.26 23.15 211 23.31 210.75 23.47C212.32 21.78 213.72 19.94 214.9 17.95C214.93 17.95 214.95 17.95 214.98 17.94C217.7 16.45 220.07 14.29 221.99 11.86C222.55 11.15 223.05 10.41 223.53 9.64C223.62 9.5 223.49 9.26 223.31 9.35C220.64 10.72 218.3 12.65 216.5 15.04C216.42 15.14 216.35 15.25 216.28 15.36C217.15 13.5 217.83 11.53 218.11 9.5C218.14 9.28 217.83 9.26 217.78 9.46C217.35 11.14 216.84 12.79 216.18 14.38C216.72 12.37 216.97 10.28 216.93 8.19C216.91 7.27 216.84 6.35 216.7 5.45C216.67 5.27 216.41 5.23 216.34 5.41C215.62 7.3 215.09 9.25 214.83 11.26C214.56 13.26 214.56 15.3 214.73 17.31C214.73 17.31 214.73 17.32 214.73 17.33C213.69 19.16 212.44 20.88 211.05 22.46C211.03 22.49 211 22.51 210.97 22.54C211.36 21.63 211.65 20.67 211.87 19.72C212.29 17.97 212.42 16.17 212.26 14.38C212.24 14.18 211.97 14.17 211.9 14.34C211.21 15.83 210.63 17.35 210.28 18.96C209.93 20.54 209.78 22.16 209.82 23.78C208.06 25.59 206.12 27.21 204.06 28.66C204.02 28.66 203.98 28.66 203.95 28.66C203.87 28.66 203.83 28.75 203.86 28.8C202.66 29.63 201.42 30.41 200.15 31.14C200.32 30.98 200.48 30.83 200.64 30.67C201.28 30.03 201.88 29.35 202.42 28.63C203.52 27.16 204.4 25.53 205.02 23.8C205.37 22.82 205.59 21.83 205.78 20.82C205.81 20.65 205.59 20.59 205.49 20.7C205.47 20.72 205.45 20.75 205.43 20.77C205.35 20.72 205.24 20.74 205.21 20.85C205.18 20.95 205.15 21.04 205.13 21.14C203.1 23.61 201.36 26.32 199.9 29.16C199.46 30.02 199.05 30.9 198.64 31.78C198.61 31.85 198.62 31.91 198.64 31.96C198.64 31.96 198.62 31.98 198.61 31.99C196.1 33.32 193.49 34.46 190.86 35.55C190.75 35.46 190.59 35.47 190.5 35.55C190.5 35.55 190.5 35.55 190.49 35.55C191.83 34.75 192.97 33.67 193.84 32.33C195.16 30.3 195.86 27.9 196.02 25.49C196.23 22.45 195.69 19.43 194.98 16.49C194.74 15.49 194.54 13.79 193.2 13.73C192.87 13.71 192.55 13.8 192.24 13.9C191.84 14.02 191.45 14.15 191.06 14.28C190.33 14.51 189.6 14.75 188.87 14.98C186.17 15.84 183.4 16.62 180.79 17.73C178.7 18.62 176.74 19.82 175.18 21.48C175.53 20.39 175.53 19.18 175.24 18.09C174.77 16.32 173.57 14.83 172.09 13.79C170.68 12.81 169.04 12.24 167.36 11.94C167.36 11.84 167.2 11.8 167.16 11.9C166.91 11.86 166.65 11.82 166.4 11.79C165.33 11.66 164.23 11.6 163.15 11.74C162.12 11.88 161.15 12.26 160.26 12.78C159.38 13.29 158.57 13.9 157.75 14.51C157.01 15.06 156.27 15.63 155.6 16.27C154.2 17.6 153.17 19.23 152.99 21.19C152.65 25.03 155.01 28.63 157.81 31.03C158.25 31.4 158.71 31.75 159.18 32.07C159.13 32.07 159.08 32.07 159.03 32.09C159.03 32.09 159.01 32.1 159.01 32.11C153.57 30.86 147.75 31.27 142.44 32.89C141.13 33.29 139.87 33.78 138.63 34.34C139.04 34 139.44 33.65 139.83 33.27C140.55 32.56 141.23 31.8 141.86 31C143.14 29.36 144.19 27.54 144.99 25.62C145.39 24.65 145.72 23.64 145.98 22.62C145.98 22.61 146 22.59 146.01 22.58C146.03 22.54 146.03 22.5 146.02 22.47C146.03 22.41 146.05 22.35 146.07 22.29C146.12 22.1 145.86 22 145.73 22.1C142.16 24.56 139.28 27.96 137.45 31.89C136.93 33.01 136.5 34.17 136.15 35.36C136.13 35.44 136.14 35.51 136.17 35.57C135.63 35.86 135.1 36.17 134.57 36.49C133.25 37.28 131.96 38.13 130.65 38.93C130.01 39.25 129.37 39.59 128.73 39.92C128.64 39.97 128.6 40.05 128.59 40.13C128.37 40.25 128.15 40.37 127.93 40.49C128.67 39.73 129.29 38.84 129.78 37.91C131.03 35.53 131.56 32.87 132.48 30.36C132.93 29.13 133.48 27.94 134.23 26.86C134.33 26.78 134.43 26.7 134.53 26.61C134.62 26.53 134.61 26.4 134.54 26.32C134.52 26.21 134.43 26.1 134.3 26.13C131.87 26.64 129.9 28.41 128.74 30.56C128.06 31.82 127.65 33.22 127.42 34.64C127.31 35.34 127.24 36.05 127.2 36.76C127.16 37.49 127.17 38.22 127.09 38.94C127.01 39.7 126.82 40.45 126.33 41.06C126.22 41.19 126.11 41.31 125.98 41.42C124.01 42.26 121.86 42.83 119.71 42.87C120.31 42.53 120.84 42.06 121.31 41.57C122.74 40.09 123.64 38.18 124.23 36.23C126.22 34.64 127.25 32.2 127.81 29.77C128.47 26.92 128.58 23.96 129.43 21.14C129.87 19.7 130.49 18.32 131.44 17.15C131.62 16.93 131.36 16.66 131.12 16.74C128.67 17.57 126.64 19.55 125.32 21.73C123.77 24.29 123.14 27.27 123.11 30.25C123.09 32.12 123.33 33.95 123.59 35.8C123.61 35.94 123.74 35.98 123.84 35.95C123.44 37.37 122.89 38.73 122.04 39.99C121.35 41.01 120.11 42.42 118.78 42.87C118.48 42.85 118.19 42.83 117.89 42.79C117.87 42.77 117.85 42.75 117.81 42.74C117.66 42.7 117.49 42.71 117.33 42.69C117.17 42.67 117.01 42.66 116.85 42.62C116.79 42.61 116.74 42.58 116.68 42.57C116.61 42.52 116.54 42.46 116.47 42.4C116.42 42.35 116.34 42.4 116.32 42.45C116.28 42.43 116.24 42.42 116.2 42.4C116.11 42.36 116.03 42.32 115.94 42.34C115.92 42.32 115.89 42.29 115.87 42.27C117.15 41.91 118.19 41.01 118.9 39.89C119.81 38.46 120.13 36.79 120.08 35.12C120.05 34.13 119.9 33.14 119.68 32.17C119.49 31.29 119.27 30.4 118.97 29.56C118.48 28.18 117.49 26.83 115.85 27.05C114.83 27.18 113.88 27.8 113.04 28.36C112.37 28.81 111.73 29.3 111.14 29.84C111.33 28.85 111.44 27.85 111.46 26.85C111.46 26.09 111.45 25.31 111.33 24.56C111.23 23.89 111.01 23.21 110.51 22.72C109.39 21.63 107.71 22.12 106.6 22.93C104.7 24.32 103.31 26.37 102.41 28.56C102.51 27.9 102.61 27.24 102.7 26.59C103.15 23.53 103.6 20.46 104.05 17.4C104.29 15.76 104.52 14.11 104.76 12.47C104.8 12.42 104.8 12.37 104.77 12.32C104.77 12.26 104.79 12.2 104.8 12.13C104.82 11.96 104.63 11.79 104.47 11.88C101.13 13.78 98.52 16.88 97.18 20.48C95.8 24.21 95.9 28.36 97.34 32.06C97.58 32.67 97.86 33.26 98.16 33.84C98.02 33.79 97.87 33.75 97.71 33.73C97.56 33.72 97.41 33.73 97.26 33.75C96.82 33.6 96.35 33.5 95.91 33.41C95.26 33.27 94.59 33.19 93.93 33.13C92.58 33.02 91.22 33.04 89.87 33.11C87.15 33.24 84.41 33.56 81.69 33.29C81.07 33.23 80.45 33.13 79.83 33C81.2 32.95 82.56 32.68 83.88 32.17C86.2 31.27 88.27 29.73 89.83 27.8C90.87 26.51 91.68 25.05 92.27 23.51C92.28 23.48 92.29 23.46 92.3 23.43C92.63 22.55 92.9 21.64 93.09 20.71C93.63 18.15 93.7 15.37 93.17 12.79C92.91 11.53 92.41 10.3 91.39 9.46C90.43 8.67 89.16 8.31 87.93 8.31C86.47 8.31 85.05 8.76 83.72 9.32C82.63 9.78 81.57 10.33 80.56 10.94C80.48 10.99 80.4 11.04 80.31 11.1C80.24 11.08 80.17 11.1 80.13 11.19C80.13 11.2 80.13 11.21 80.12 11.22C79.2 11.8 78.32 12.44 77.48 13.14C76.91 10.29 75.74 7.58 74.09 5.19C73.22 3.93 72.2 2.77 71.08 1.73C70.15 0.870001 68.41 -0.809999 67.2 0.540001C66.94 0.830001 66.77 1.21 66.58 1.55C66.35 1.98 66.11 2.4 65.88 2.83C65.42 3.67 64.96 4.5 64.5 5.34C64.07 6.13 63.62 6.91 63.18 7.71C62.62 7.51 62.02 7.4 61.44 7.29C60.78 7.16 60.12 7.04 59.46 6.94C58.15 6.74 56.83 6.61 55.51 6.55C54.2 6.48 52.88 6.48 51.56 6.53C50.58 6.57 49.44 6.57 48.59 7.15C47.58 7.84 47.72 9.18 47.68 10.26C47.63 11.65 47.58 13.03 47.55 14.42C47.52 15.77 47.49 17.13 47.47 18.48C47.45 19.77 47.42 21.07 47.6 22.34C47.91 24.52 49.11 27.03 51.46 27.54C51.05 27.77 50.66 28.02 50.28 28.29C50.25 28.31 50.23 28.33 50.2 28.35C50.04 28.39 49.87 28.44 49.71 28.48C49.52 28.52 49.34 28.56 49.15 28.59C49.14 28.59 49.13 28.59 49.11 28.59C49.08 28.6 49.05 28.61 49.03 28.62C48.67 28.69 48.3 28.75 47.94 28.8C47.86 28.8 47.78 28.8 47.69 28.8C47.68 28.8 47.67 28.8 47.66 28.8C46.55 28.72 45.47 28.16 44.48 27.58C44.43 27.48 44.39 27.37 44.34 27.27C44.34 27.24 44.34 27.2 44.35 27.17C44.38 27.16 44.4 27.13 44.41 27.1C44.46 26.93 44.45 26.73 44.42 26.54C44.45 26.1 44.44 25.66 44.43 25.23C44.42 24.4 44.35 23.58 44.23 22.77C43.98 21.16 43.5 19.59 42.85 18.09C42.8 17.97 42.61 17.99 42.59 18.13C42.48 18.97 42.38 19.79 42.38 20.63C42.38 21.44 42.45 22.25 42.58 23.05C42.81 24.48 43.23 25.87 43.82 27.19C43.78 27.16 43.73 27.14 43.69 27.11C42.49 26.4 41.31 25.68 40.12 24.96C40.22 24.1 40.05 23.17 39.91 22.33C39.75 21.44 39.52 20.55 39.23 19.7C38.63 17.97 37.76 16.34 36.63 14.9C36.52 14.76 36.27 14.82 36.25 15C36.02 18.3 36.99 21.63 38.97 24.27C38.82 24.18 38.67 24.09 38.52 24C37.33 23.29 36.13 22.59 34.9 21.93C34.92 21.84 34.9 21.74 34.82 21.66C34.79 21.64 34.77 21.61 34.75 21.59C33.89 18.17 32.15 15.02 29.76 12.42C29.63 12.27 29.35 12.36 29.39 12.58C29.87 15.4 31.04 18.08 32.85 20.31C33.14 20.67 33.45 21.01 33.77 21.34C31.89 20.38 29.96 19.53 27.94 18.89C25.92 18.25 23.75 17.75 21.62 17.84C21.45 17.84 21.47 18.11 21.62 18.13C23.56 18.41 25.47 18.73 27.36 19.31C28.03 19.52 28.7 19.75 29.36 20C29.26 20 29.16 19.99 29.06 19.98C28.22 19.93 27.37 19.95 26.53 20.02C24.84 20.16 23.16 20.52 21.56 21.09C20.63 21.42 19.75 21.83 18.88 22.27C18.71 22.36 18.73 22.62 18.93 22.65C22.2 23.15 25.59 22.84 28.75 21.88C29.66 21.6 30.56 21.26 31.43 20.87C31.89 21.07 32.34 21.29 32.79 21.51C34.68 22.44 36.5 23.48 38.31 24.56C37.1 24.24 35.84 24.06 34.6 23.96C32.8 23.82 30.98 23.91 29.2 24.19C28.97 24.23 28.88 24.61 29.14 24.68C30.99 25.24 32.88 25.62 34.81 25.82C36.67 26.01 38.61 26.07 40.48 25.85C41.44 26.43 42.4 27 43.37 27.56C44.3 28.09 45.34 28.7 46.43 28.99C44.5 29.12 42.57 28.99 40.66 28.79C40.64 28.79 40.62 28.79 40.6 28.79C40.6 28.71 40.57 28.64 40.48 28.6C40.34 28.53 40.19 28.57 40.04 28.59C39.89 28.6 39.74 28.62 39.59 28.64C39.54 28.64 39.5 28.65 39.45 28.66C39.3 28.64 39.14 28.62 38.99 28.6C36.78 27.03 34.17 26.09 31.51 25.61C28.57 25.09 25.53 25.15 22.61 25.7C19.64 26.26 16.8 27.34 14.17 28.8C11.52 30.27 9.08001 32.1 6.87001 34.16C4.62001 36.25 2.58001 38.55 0.720007 40.99C0.710007 41.01 0.690007 41.03 0.680007 41.05C0.620007 41.08 0.580007 41.13 0.580007 41.19C0.400007 41.43 0.220007 41.67 0.0400072 41.91C-0.179993 42.22 0.280007 42.57 0.510007 42.26C0.570007 42.17 0.640007 42.09 0.710007 42C0.870007 41.81 1.04001 41.63 1.21001 41.45C2.50001 41.7 3.82001 41.81 5.13001 41.91C6.59001 42.02 8.06001 42.08 9.53001 42.04C12.35 41.96 15.15 41.43 17.72 40.24C22.48 38.04 26.2 34.15 30.9 31.84C32.34 31.13 33.86 30.57 35.42 30.18C36.22 29.98 37.02 29.82 37.83 29.7C37.88 29.7 37.94 29.69 37.99 29.68C38.27 29.66 38.55 29.63 38.83 29.62C38.88 29.62 38.92 29.6 38.96 29.58C39.4 29.54 39.84 29.49 40.26 29.39C40.3 29.38 40.34 29.36 40.37 29.33C41.86 29.49 43.37 29.59 44.87 29.57C44.4 29.74 43.94 29.93 43.48 30.12C42.89 30.36 42.31 30.6 41.72 30.85C40.55 31.34 39.38 31.85 38.23 32.38C35.91 33.45 33.64 34.63 31.5 36.02C29.31 37.44 27.32 39.09 25.48 40.95C23.59 42.87 21.85 44.93 19.87 46.76C18.83 47.72 17.74 48.63 16.56 49.4C15.39 50.16 14.11 50.85 12.78 51.28C12.62 51.33 12.7 51.6 12.86 51.56C12.88 51.56 12.9 51.55 12.92 51.54V51.56C12.9 51.56 12.88 51.57 12.86 51.58C12.7 51.64 12.78 51.87 12.94 51.85C13.33 51.81 13.71 51.74 14.09 51.66C16.99 51.68 19.91 51.48 22.77 51.04C25.67 50.6 28.54 49.83 31.19 48.55C33.59 47.39 35.81 45.83 37.57 43.81C39.55 41.55 40.61 38.78 41.86 36.09C43.13 33.37 44.87 30.56 47.81 29.45C47.85 29.43 47.88 29.41 47.91 29.39C48.37 29.28 48.84 29.19 49.31 29.12C48.25 30.06 47.34 31.16 46.56 32.34C45.4 34.1 44.51 36.02 43.71 37.97C43.51 38.46 43.31 38.96 43.11 39.45C43.03 39.65 42.9 39.86 43.03 40.07C43.16 40.28 43.35 40.48 43.51 40.67C44.1 41.4 44.71 42.11 45.36 42.8C47.82 45.41 50.85 47.7 54.43 48.44C57.6 49.1 61.21 48.55 63.7 46.36C63.88 46.2 64.05 46.04 64.21 45.87C64.21 45.99 64.2 46.12 64.19 46.25C64.17 48.02 64.49 49.78 65.12 51.43C65.83 53.28 66.94 54.95 68.35 56.34C68.43 56.41 68.57 56.42 68.67 56.38C73.78 54.03 79.12 50.64 80.91 44.97C81.72 42.41 81.65 39.54 80.46 37.11C79.69 35.55 78.5 34.39 77.12 33.44C78.07 33.88 78.98 34.43 79.82 35.06C82.02 37.14 82.97 40.44 83.2 43.37C83.4 45.87 83.22 48.37 83.3 50.87C83.37 53.15 83.71 55.38 84.41 57.55C85.16 59.87 86.3 62.06 87.76 64.02C87.89 64.2 88.14 64.13 88.23 63.96C88.26 63.9 88.28 63.85 88.31 63.79C88.4 63.77 88.48 63.71 88.5 63.61C88.52 63.5 88.54 63.38 88.55 63.27C90.62 58.65 91.13 53.35 89.99 48.42C88.9 43.68 86.27 39.4 82.62 36.19C81.17 34.91 79.55 33.81 77.83 32.93C78.07 32.96 78.3 32.98 78.54 33C83.18 34.8 88.45 33.32 93.3 33.62C94.05 33.67 94.8 33.75 95.54 33.9C95.84 33.96 96.13 34.03 96.42 34.1C96.29 34.18 96.16 34.27 96.04 34.37C95.09 35.13 94.28 36.13 93.62 37.14C92.26 39.21 91.42 41.63 91.25 44.1C91.21 44.7 91.19 45.31 91.25 45.9C91.3 46.44 91.43 47.02 91.8 47.43C92.66 48.37 94.03 47.89 95.01 47.43C96.24 46.86 97.41 46.17 98.5 45.38C97.63 46.63 96.85 47.95 96.27 49.36C95.64 50.88 95.22 52.51 95.11 54.16C95.06 54.97 95.08 55.78 95.19 56.58C95.29 57.32 95.44 58.11 95.77 58.79C96.08 59.43 96.57 59.95 97.27 60.16C98 60.38 98.81 60.35 99.57 60.34C100.98 60.32 102.5 60.11 103.65 59.22C104.77 58.36 105.29 57 105.5 55.64C105.57 55.19 105.61 54.73 105.64 54.27C105.78 58.23 106.23 62.45 108.5 65.81C109.53 67.34 110.92 68.51 112.54 69.38C114.11 70.22 115.81 70.79 117.48 71.41C119.1 72.01 120.73 72.68 122.16 73.67C122.35 73.93 122.53 74.2 122.69 74.48C122.86 74.76 123.31 74.48 123.17 74.19C123.17 74.17 123.15 74.15 123.14 74.13C123.24 74.05 123.3 73.89 123.26 73.75C122.23 70.16 120.47 66.77 118.05 63.93C116.86 62.53 115.51 61.29 114.06 60.16C112.66 59.07 111.2 58.06 109.83 56.93C109.93 56.96 110.04 56.99 110.14 57.01C112.73 57.54 115.31 56.23 116.76 54.1C118.16 52.04 118.48 49.49 118.06 47.08C118.08 47.03 118.08 46.98 118.06 46.92C118.05 46.89 118.03 46.87 118.02 46.84C117.97 46.57 117.91 46.29 117.83 46.02C117.55 44.96 117.14 43.89 116.49 42.99C116.5 42.99 116.52 42.99 116.53 42.99C117.68 44.23 119.23 44.94 120.8 45.52C120.78 45.57 120.78 45.64 120.85 45.65C122.4 46.06 123.82 46.82 124.99 47.86C124.97 47.89 124.96 47.93 124.99 47.96C125.5 48.59 126.07 49.17 126.64 49.76C127.03 50.35 127.36 50.99 127.61 51.68C128.25 53.41 128.16 55.21 128.14 57.02C128.12 58.83 128.27 60.64 129.33 62.17C129.82 62.88 130.45 63.47 131.13 64C131.16 64.08 131.23 64.12 131.3 64.13C132.08 64.71 132.92 65.21 133.75 65.68C133.9 65.77 134.03 65.71 134.1 65.61C134.11 65.61 134.12 65.6 134.13 65.59C136.9 62.73 137.95 58.19 136.87 54.37C135.83 50.71 132.9 47.63 129.27 46.46C126.66 45.62 123.88 45.73 121.23 45.08C121.18 45.07 121.14 45.08 121.1 45.09C119.75 44.63 118.42 44.09 117.29 43.23C117.54 43.31 117.81 43.35 118.08 43.35C121.81 44.19 125.61 44.66 129.42 44.92C130.38 44.99 131.36 45.04 132.34 45.08C132.63 46.44 133.27 47.69 134.2 48.74C134.42 48.99 134.67 49.31 135.01 49.39C135.33 49.46 135.62 49.25 135.68 48.93C135.76 48.56 135.51 48.24 135.31 47.95C135.08 47.6 134.84 47.26 134.59 46.92C134.32 46.55 134.04 46.18 133.75 45.82C133.57 45.59 133.38 45.34 133.18 45.11C133.82 45.11 134.46 45.11 135.1 45.09C136.44 46.87 138.19 48.26 140.21 49.2C140.57 49.36 141.13 49.48 141.28 48.99C141.42 48.52 140.92 48.08 140.64 47.78C139.9 47 139.06 46.33 138.14 45.79C137.63 45.49 137.09 45.23 136.54 45.01C136.54 45.01 136.54 45.01 136.53 45.01C137.9 44.88 139.24 44.62 140.54 44.17C140.57 44.17 140.59 44.15 140.62 44.14C142.26 45.31 144.68 45.05 146.27 43.93C146.42 43.82 146.35 43.55 146.16 43.54C145.3 43.5 144.44 43.49 143.59 43.53C143.16 43.55 142.73 43.57 142.31 43.6C142.16 43.61 142.02 43.62 141.87 43.63C142.26 43.44 142.65 43.23 143.02 43C143.78 42.52 144.56 41.94 145.04 41.17C145.12 41.04 144.98 40.88 144.84 40.98C144.24 41.43 143.68 41.92 143.06 42.35C143.42 41.94 143.73 41.49 143.98 41C144.09 40.78 144.3 40.45 144.21 40.19C144.1 39.88 143.75 39.95 143.54 40.11C143.27 40.31 143.03 40.57 142.8 40.82C142.57 41.07 142.34 41.33 142.14 41.6C141.72 42.16 141.36 42.78 141.08 43.42C140.99 43.46 140.91 43.5 140.82 43.53C139.68 43.98 138.49 44.26 137.29 44.43C138.83 43.54 140.16 42.3 141.19 40.85C141.29 40.71 141.15 40.51 140.98 40.59C138.9 41.55 137.06 42.92 135.52 44.61C135.38 44.61 135.25 44.61 135.11 44.62C135 44.61 134.9 44.59 134.79 44.59C134.74 44.59 134.7 44.61 134.67 44.64C133.6 44.67 132.54 44.65 131.47 44.61C131.7 44.47 131.93 44.3 132.15 44.13C132.49 43.87 132.82 43.59 133.13 43.31C133.76 42.73 134.33 42.08 134.85 41.4C134.93 41.29 134.84 41.11 134.7 41.14C132.88 41.5 131.33 42.83 130.73 44.58C130.47 44.57 130.2 44.55 129.94 44.54C128.01 44.43 126.08 44.26 124.16 44.03C122.38 43.82 120.61 43.56 118.85 43.28C118.96 43.25 119.06 43.22 119.17 43.17C121 43.3 122.78 42.99 124.51 42.42C124.54 42.44 124.57 42.46 124.61 42.47C125.37 42.58 126.06 42.21 126.56 41.65C126.61 41.62 126.65 41.59 126.7 41.56C127.42 41.23 128.13 40.87 128.82 40.5C130.15 40.21 131.5 40.12 132.87 40.15C134.36 40.18 135.86 40.28 137.35 40.19C140.17 40.02 142.95 39.29 145.49 38.08C146.62 37.54 147.7 36.9 148.72 36.17C148.89 36.14 149.07 36.11 149.23 36.04C149.35 35.99 149.35 35.84 149.26 35.77C149.35 35.71 149.43 35.65 149.52 35.58C149.7 35.44 149.6 35.18 149.4 35.14C144.2 34.12 138.89 35.33 134.07 37.36C136.39 35.97 138.77 34.72 141.34 33.83C144.01 32.91 146.81 32.34 149.63 32.12C152.77 31.88 155.9 32.12 158.98 32.69C158.99 32.7 159.01 32.71 159.03 32.72C157.67 32.93 156.35 33.41 155.16 34.11C153.36 35.18 151.97 36.75 151 38.6C149.99 40.53 149.45 42.67 148.97 44.79C148.7 45.97 148.45 47.16 148.19 48.34C148.05 48.98 147.91 49.62 147.77 50.26C147.64 50.87 147.47 51.48 147.4 52.1C147.13 54.32 149.19 55.73 150.97 56.54C151.53 56.8 152.12 57 152.72 57.16C152.74 57.18 152.77 57.2 152.8 57.2C152.81 57.2 152.83 57.2 152.84 57.2C154.2 57.54 155.62 57.64 157 57.48C160.67 57.04 163.67 54.67 165.97 51.86C166.02 55.09 168.42 57.73 170.74 59.81C172.03 60.96 173.38 62.34 175.11 62.79C176.84 63.25 178.72 62.67 180.23 61.79C181.56 61.01 182.71 59.91 183.47 58.56C184.1 57.43 184.35 56.18 184.32 54.92C185.05 55.11 185.85 55.11 186.6 55.06C187.44 55 188.27 54.84 189.07 54.59C190.69 54.09 192.21 53.21 193.44 52.03C194.79 50.74 195.84 49.1 195.83 47.18C195.83 46.15 195.54 45.14 195.23 44.16C194.93 43.22 194.59 42.29 194.2 41.38C193.76 40.36 193.27 39.36 192.71 38.4C192.44 37.92 192.15 37.45 191.85 36.99C191.67 36.71 191.48 36.42 191.28 36.14C192.1 36.24 192.93 36.31 193.76 36.41C194.83 36.54 195.89 36.69 196.95 36.88C198.83 37.21 200.69 37.68 202.46 38.38C203.53 39.39 204.4 40.56 205.12 41.85C205.85 43.15 206.46 44.52 207.21 45.81C207.93 47.05 208.76 48.23 209.86 49.15C211.01 50.11 212.42 50.65 213.9 50.88C215.63 51.14 217.43 51.04 219.16 50.87C219.18 50.87 219.2 50.86 219.22 50.85C219.25 50.86 219.27 50.87 219.3 50.88C219.62 51.01 219.81 50.53 219.5 50.39C219.15 50.24 218.84 50.04 218.56 49.81C218.54 49.77 218.5 49.74 218.45 49.72C217.58 48.96 217.03 47.88 216.56 46.81C216.21 46.01 215.88 45.21 215.43 44.46C215.04 43.81 214.58 43.2 214.07 42.64C211.9 40.28 208.91 38.94 205.85 38.15C204.07 37.69 202.25 37.39 200.42 37.2C199.57 36.96 198.71 36.75 197.84 36.58C196.65 36.34 195.46 36.17 194.26 36.02C193.56 35.93 192.86 35.85 192.15 35.78C193.45 35.49 194.75 35.15 196.05 34.85C197.94 34.41 199.85 34 201.76 33.67C205.24 33.06 208.77 32.69 212.31 32.74C213.25 33.06 214.16 33.46 215.02 33.99C216.12 34.67 217.13 35.49 218.12 36.32C220.08 37.97 222.06 39.71 224.54 40.5C229.89 42.22 235.35 39.81 239.99 37.26C241.36 36.51 242.72 35.72 244.1 34.99C244.92 34.55 245.76 34.15 246.6 33.76C246.77 33.7 246.94 33.65 247.11 33.59C247.46 33.46 247.8 33.28 248.14 33.1C248.24 33.06 248.35 33.01 248.45 32.97C248.77 32.84 248.56 32.37 248.24 32.48L248.27 32.39ZM216.95 16.13C216.49 16.48 216.02 16.82 215.55 17.15C215.62 17.03 215.69 16.91 215.77 16.79C215.8 16.85 215.86 16.88 215.93 16.83C217.17 15.75 218.38 14.64 219.55 13.48C220.11 12.92 220.67 12.35 221.22 11.78C221.62 11.36 222.05 10.95 222.44 10.53C220.89 12.64 219.04 14.55 216.96 16.13H216.95ZM221.3 10.93C221.53 10.77 221.77 10.62 222.01 10.48C221.71 10.83 221.41 11.18 221.1 11.51C220.53 12.12 219.94 12.72 219.35 13.31C218.23 14.42 217.09 15.51 215.92 16.56C217.3 14.34 219.14 12.41 221.31 10.93H221.3ZM216.41 6.22C216.77 9.64 216.37 13.07 215.26 16.32C215.26 16.32 215.26 16.34 215.25 16.35C215.21 16.42 215.17 16.49 215.13 16.57C214.74 13.11 215.21 9.5 216.41 6.22ZM211.91 15.21C211.94 16.68 211.8 18.16 211.48 19.6C211.22 20.76 210.8 21.85 210.34 22.93C210.36 20.31 210.86 17.62 211.91 15.22V15.21ZM218.13 20.99C218.61 20.91 219.09 20.85 219.57 20.8C219.4 20.88 219.23 20.95 219.06 21.03C218.64 21.22 218.22 21.4 217.8 21.58C216.94 21.94 216.07 22.29 215.19 22.61C214.31 22.93 213.43 23.23 212.54 23.52C211.8 23.75 211.03 23.94 210.3 24.22C212.64 22.59 215.33 21.49 218.14 20.99H218.13ZM209.74 24.61C209.74 24.61 209.8 24.61 209.83 24.57C209.84 24.55 209.85 24.53 209.87 24.52C209.87 24.52 209.89 24.51 209.89 24.5C210.8 24.42 211.7 24.1 212.57 23.83C213.48 23.55 214.38 23.25 215.28 22.93C216.18 22.61 217.06 22.27 217.94 21.91C218.36 21.74 218.79 21.56 219.21 21.37C219.3 21.33 219.38 21.29 219.47 21.25C217.26 22.84 214.7 23.94 212.01 24.43C211.21 24.57 210.4 24.65 209.59 24.72C209.64 24.68 209.69 24.65 209.74 24.61ZM214.95 27.66C215.39 27.69 215.83 27.74 216.27 27.8C216.15 27.82 216.03 27.85 215.92 27.87C215.49 27.95 215.05 28.02 214.62 28.09C213.78 28.22 212.94 28.34 212.1 28.42C210.38 28.58 208.64 28.67 206.91 28.67C206.42 28.67 205.94 28.67 205.45 28.66C208.53 27.76 211.75 27.43 214.95 27.67V27.66ZM204.43 28.85C205.99 28.98 207.58 28.96 209.15 28.9C210.89 28.83 212.63 28.67 214.37 28.47C214.86 28.41 215.35 28.35 215.83 28.28C216.06 28.25 216.3 28.22 216.54 28.18C213.45 29.39 210.07 29.85 206.77 29.51C205.88 29.42 204.98 29.27 204.1 29.08C204.21 29 204.33 28.93 204.44 28.85H204.43ZM204.03 23.14C204.3 22.76 204.58 22.39 204.86 22.02C204.03 24.59 202.74 26.98 201.03 29.08C200.58 29.64 200.08 30.16 199.6 30.69C200.82 28.04 202.34 25.51 204.03 23.14ZM199.36 31.21C199.36 31.21 199.4 31.21 199.42 31.19C200.61 30.2 201.61 28.91 202.47 27.63C203.35 26.33 204.09 24.94 204.68 23.48C204.83 23.11 204.96 22.74 205.09 22.36C204.75 23.55 204.27 24.71 203.72 25.79C202.91 27.37 201.87 28.83 200.64 30.11C200.22 30.55 199.76 30.95 199.3 31.35C199.32 31.3 199.34 31.25 199.37 31.21H199.36ZM130.38 17.66C127.6 22.07 128.58 27.81 126.51 32.52C125.99 33.69 125.28 34.8 124.36 35.7C125.55 31.28 125.2 26.51 127 22.24C127.76 20.44 128.88 18.87 130.38 17.66ZM123.5 30.92C123.47 29.32 123.6 27.71 123.96 26.15C124.54 23.59 125.78 21.14 127.71 19.34C128.03 19.04 128.37 18.77 128.73 18.51C128.09 19.2 127.55 19.98 127.1 20.8C126.07 22.71 125.54 24.83 125.21 26.96C124.78 29.76 124.64 32.72 123.93 35.49C123.65 33.98 123.52 32.44 123.5 30.91V30.92ZM21.78 22.38C21.42 22.38 21.06 22.36 20.69 22.34C22.38 22.16 24.06 21.92 25.74 21.65C26.69 21.5 27.64 21.34 28.59 21.17C29.06 21.09 29.54 21 30.01 20.91C30.03 20.91 30.06 20.91 30.08 20.9C27.43 21.9 24.62 22.4 21.78 22.38ZM29.86 20.58C29.39 20.67 28.92 20.77 28.44 20.86C27.51 21.04 26.58 21.2 25.65 21.36C23.77 21.67 21.88 21.94 20 22.24C19.96 22.24 19.95 22.27 19.93 22.29C19.85 22.29 19.78 22.28 19.7 22.27C22.48 20.9 25.68 20.26 28.76 20.34C29.22 20.35 29.68 20.36 30.13 20.4C30.27 20.41 30.4 20.43 30.54 20.44C30.31 20.48 30.07 20.54 29.85 20.59L29.86 20.58ZM29.98 13.26C31.9 15.59 33.36 18.28 34.33 21.13C32.15 19.02 30.6 16.23 29.98 13.26ZM36.68 16.01C37.13 17.38 37.61 18.73 38.09 20.09C38.51 21.31 38.9 22.53 39.3 23.76C37.65 21.53 36.72 18.78 36.69 16.01H36.68ZM34.91 25.22C33.45 25.08 32 24.82 30.57 24.46C31.92 24.31 33.27 24.29 34.63 24.38C36.31 24.49 37.94 24.82 39.57 25.22C39.6 25.24 39.64 25.26 39.67 25.28C38.08 25.36 36.5 25.38 34.91 25.22ZM38.31 20C37.81 18.58 37.32 17.16 36.79 15.76C37.66 17 38.36 18.35 38.87 19.78C39.16 20.62 39.39 21.48 39.55 22.35C39.63 22.79 39.69 23.23 39.74 23.67C39.74 23.72 39.74 23.77 39.75 23.82C39.27 22.55 38.77 21.28 38.32 20H38.31ZM43.03 22.95C42.82 21.66 42.72 20.29 42.82 18.96C43.07 20.28 43.36 21.58 43.59 22.91C43.71 23.6 43.81 24.29 43.89 24.99C43.93 25.33 43.97 25.67 44 26.01C44.01 26.14 44.02 26.29 44.03 26.44C43.57 25.32 43.23 24.15 43.03 22.95ZM43.86 22.87C43.71 21.98 43.54 21.1 43.34 20.22C43.58 21.06 43.77 21.92 43.9 22.78C43.95 23.15 44 23.52 44.03 23.9C43.97 23.56 43.92 23.21 43.86 22.87ZM25.04 34.69C22.94 36.21 20.86 37.81 18.56 39.03C17.39 39.66 16.16 40.18 14.88 40.55C13.49 40.95 12.06 41.18 10.62 41.29C9.00001 41.41 7.38001 41.4 5.76001 41.3C7.29001 41.22 8.82001 40.94 10.3 40.56C12.71 39.93 15.03 38.99 17.28 37.92C21.19 36.05 24.92 33.8 28.9 32.09C27.57 32.89 26.29 33.78 25.03 34.69H25.04ZM24.95 33.57C20.51 35.87 16.17 38.49 11.36 39.95C8.94001 40.69 6.46001 41.06 3.94001 41.06C8.01001 40.38 11.92 38.82 15.68 37.17C20.06 35.25 24.35 33.1 28.89 31.57C29.09 31.5 29.3 31.44 29.5 31.37C27.95 32.04 26.44 32.8 24.95 33.57ZM29.64 30.75C27.38 31.49 25.17 32.4 23 33.36C18.63 35.3 14.34 37.47 9.83001 39.09C7.41001 39.96 4.94001 40.61 2.40001 41.04C2.27001 41.04 2.13001 41.02 2.00001 41.01C4.13001 40.45 6.13001 39.53 8.11001 38.57C10.38 37.46 12.62 36.31 14.94 35.31C19.58 33.31 24.4 31.71 29.33 30.61C30.15 30.43 30.97 30.26 31.79 30.11C31.07 30.31 30.35 30.53 29.65 30.76L29.64 30.75ZM33.88 29.26C32.65 29.49 31.42 29.75 30.2 30.02C27.74 30.57 25.31 31.22 22.91 31.98C20.49 32.74 18.11 33.61 15.77 34.6C13.44 35.58 11.18 36.69 8.92001 37.83C6.59001 39 4.23001 40.1 1.75001 40.91C3.60001 39.56 5.53001 38.31 7.48001 37.11C9.67001 35.75 11.94 34.51 14.27 33.41C16.59 32.32 18.97 31.36 21.42 30.62C23.92 29.86 26.49 29.37 29.1 29.13C30.55 29 32.02 28.95 33.47 29C33.93 29.02 34.4 29.05 34.86 29.08C34.53 29.13 34.2 29.18 33.87 29.25L33.88 29.26ZM35.96 28.91C35.3 28.83 34.64 28.79 33.99 28.75C32.7 28.68 31.41 28.69 30.12 28.77C27.49 28.94 24.89 29.44 22.34 30.12C17.34 31.46 12.63 33.7 8.19001 36.33C6.94001 37.07 5.69001 37.84 4.47001 38.63C3.85001 39.03 3.24001 39.44 2.64001 39.85C3.16001 39.3 3.69001 38.76 4.24001 38.24C5.49001 37.06 6.83001 35.97 8.24001 34.98C11.06 32.98 14.17 31.39 17.43 30.24C20.69 29.09 24.11 28.4 27.56 28.21C29.39 28.11 31.23 28.17 33.05 28.34C34.29 28.46 35.52 28.62 36.75 28.79C36.49 28.82 36.23 28.87 35.97 28.91H35.96ZM34.19 27.87C32.28 27.64 30.36 27.52 28.44 27.57C24.95 27.65 21.49 28.26 18.17 29.32C14.86 30.37 11.69 31.88 8.79001 33.79C7.66001 34.53 6.57001 35.34 5.53001 36.2C5.81001 35.91 6.08001 35.62 6.36001 35.34C8.49001 33.26 10.82 31.37 13.37 29.82C15.9 28.29 18.65 27.09 21.53 26.41C24.39 25.73 27.37 25.52 30.29 25.88C33.04 26.21 35.62 27.1 38.05 28.39C36.76 28.21 35.47 28.02 34.18 27.87H34.19ZM19.34 47.94C21.38 46.23 23.14 44.21 24.98 42.29C26.81 40.37 28.75 38.6 30.93 37.1C32.88 35.77 34.96 34.64 37.08 33.62C35.14 34.91 33.33 36.39 31.58 37.92C28.07 40.99 24.71 44.28 20.91 47.01C20.1 47.59 19.27 48.15 18.42 48.66C18.73 48.43 19.03 48.19 19.33 47.94H19.34ZM15.44 50.55C17.14 49.84 18.74 48.87 20.26 47.85C22.19 46.54 23.99 45.07 25.75 43.55C29.27 40.49 32.62 37.25 36.49 34.62C37.57 33.89 38.68 33.21 39.83 32.59C40.13 32.43 40.43 32.28 40.73 32.14C38.68 33.59 36.85 35.34 35.09 37.13C32.98 39.28 30.93 41.5 28.6 43.42C26.46 45.19 24.13 46.74 21.66 48.03C20.27 48.75 18.84 49.4 17.38 49.96C16.5 50.3 15.6 50.58 14.71 50.88C14.96 50.78 15.2 50.67 15.44 50.55ZM42.08 34.26C40.66 36.92 39.78 39.87 37.99 42.33C34.69 46.86 29.25 49.25 23.88 50.26C22.1 50.6 20.29 50.81 18.48 50.95C17.62 51.02 16.77 51.06 15.91 51.11C16.03 51.07 16.15 51.03 16.27 50.99C21.04 50.43 25.77 48.91 29.66 46.06C33.56 43.2 36.59 39.36 39.85 35.83C40.87 34.73 41.93 33.65 43.04 32.64C42.68 33.17 42.36 33.71 42.07 34.26H42.08ZM35.4 40.13C33.81 41.91 32.15 43.64 30.28 45.13C28.26 46.75 26.01 48.01 23.58 48.91C21.69 49.61 19.75 50.08 17.79 50.45C18.84 50.05 19.87 49.6 20.88 49.1C23.4 47.87 25.8 46.39 28.01 44.67C30.33 42.87 32.39 40.77 34.42 38.66C36.48 36.53 38.56 34.4 40.96 32.64C42.17 31.75 43.46 30.97 44.84 30.36C41.26 33.15 38.41 36.75 35.4 40.12V40.13ZM86.25 41.1C89.05 45.25 90.33 50.29 89.98 55.28C89.83 57.36 89.4 59.42 88.7 61.38C88.74 60.72 88.76 60.05 88.79 59.39C88.84 58.01 88.85 56.62 88.82 55.24C88.76 52.64 88.52 50.05 87.94 47.51C87.08 43.71 85.46 40.01 82.84 37.11C84.12 38.3 85.27 39.64 86.25 41.11V41.1ZM84.59 40.33C87.11 44.6 88.01 49.59 88.2 54.49C88.26 56.01 88.25 57.53 88.2 59.05C88.18 59.79 88.14 60.53 88.11 61.27C88.09 61.84 88.04 62.42 88.04 63C88 63.08 87.97 63.16 87.93 63.24C86.73 61.57 85.77 59.73 85.08 57.79C84.32 55.63 83.93 53.38 83.83 51.09C83.64 46.62 84.28 41.94 82.26 37.78C82.02 37.28 81.73 36.8 81.42 36.34C82.66 37.52 83.72 38.88 84.58 40.33H84.59ZM90.28 25.97C89.45 27.28 88.4 28.46 87.19 29.43C87.2 29.32 87.13 29.19 86.98 29.22C84.68 29.63 82.37 29.9 80.04 29.95C77.69 30 75.33 29.86 73 29.55C72.23 29.45 71.46 29.31 70.7 29.18C70.6 29.06 70.5 28.95 70.41 28.83C73.02 28.76 75.55 27.8 77.93 26.74C80.8 25.46 83.64 23.95 86.76 23.38C88.34 23.09 90 23.08 91.56 23.47C91.21 24.34 90.78 25.18 90.28 25.98V25.97ZM92.73 18.81C92.56 20.24 92.23 21.67 91.73 23.02C88.83 22.33 85.79 23.02 83.07 24.09C80.09 25.26 77.33 26.91 74.26 27.85C72.96 28.25 71.61 28.52 70.25 28.57C70.17 28.45 70.09 28.33 70.01 28.21C72.84 27.05 75.47 25.43 78.1 23.89C81.33 21.99 84.56 20.09 87.79 18.18C89.46 17.19 91.15 16.23 92.83 15.26C92.9 16.44 92.87 17.63 92.74 18.81H92.73ZM89.21 9.08C89.28 9.1 89.35 9.11 89.42 9.13C90.59 9.46 91.54 10.21 92.06 11.32C92.56 12.39 92.71 13.61 92.8 14.78C89.68 16.65 86.55 18.51 83.41 20.36C80.24 22.23 77.08 24.13 73.89 25.96C72.61 26.7 71.3 27.38 69.94 27.97C69.92 27.84 69.9 27.7 69.89 27.57C72.46 25.8 74.93 23.9 77.28 21.85C80.06 19.42 82.69 16.82 85.16 14.07C86.56 12.52 87.9 10.91 89.19 9.27C89.24 9.2 89.24 9.13 89.21 9.08ZM80.33 11.85C81.95 10.79 83.72 9.89 85.56 9.32C86.63 8.99 87.78 8.82 88.89 9.01C88.89 9.01 88.87 9.02 88.87 9.03C86.59 11.94 84.13 14.72 81.51 17.34C78.9 19.95 76.13 22.4 73.24 24.69C72.14 25.56 71.02 26.4 69.89 27.24C70 27.09 70.11 26.94 70.22 26.79C70.62 26.26 71.04 25.75 71.47 25.25C72.35 24.21 73.27 23.21 74.18 22.2C75.99 20.18 77.63 18.04 78.83 15.6C79.17 14.91 79.48 14.2 79.76 13.48C79.96 12.96 80.18 12.41 80.33 11.86V11.85ZM79.27 12.57C79.44 12.44 79.62 12.32 79.8 12.2C79.7 12.52 79.6 12.84 79.49 13.15C79.25 13.79 78.99 14.41 78.7 15.03C78.11 16.27 77.43 17.47 76.64 18.59C75.1 20.8 73.21 22.73 71.46 24.77C70.97 25.34 70.49 25.92 70.03 26.52C69.99 26.58 69.94 26.64 69.9 26.69C69.93 26.29 69.98 25.89 70.04 25.5C70.05 25.41 70 25.35 69.93 25.32C70.9 22.38 72.42 19.62 74.37 17.21C75.79 15.45 77.44 13.88 79.27 12.56V12.57ZM76.8 12.52C76.88 12.86 76.95 13.19 77.01 13.53C76.36 14.1 75.73 14.71 75.13 15.34C72.86 17.75 71.05 20.59 69.83 23.67C70.12 22.32 70.58 21 71.15 19.73C72.13 17.54 73.4 15.49 74.54 13.38C75.1 12.34 75.63 11.28 76.1 10.19C76.38 10.95 76.62 11.72 76.8 12.51V12.52ZM69.95 1.45C71.08 2.39 72.1 3.45 73 4.61C74.19 6.14 75.16 7.84 75.88 9.65C74.08 14.15 70.93 18.05 69.68 22.79C69.51 23.44 69.38 24.1 69.3 24.76C69.29 24.76 69.27 24.76 69.26 24.76C69.86 21.84 70.15 18.84 70.27 15.87C70.4 12.52 70.27 9.15 69.86 5.82C69.75 4.88 69.61 3.93 69.45 3C69.37 2.52 69.28 2.05 69.19 1.57C69.14 1.31 69.09 1.05 69.03 0.790001C69.38 0.980001 69.7 1.25 69.95 1.46V1.45ZM67.97 0.660001C68.17 0.570001 68.39 0.560001 68.6 0.610001C68.64 0.920001 68.71 1.22 68.77 1.52C68.85 1.93 68.92 2.34 68.99 2.75C69.13 3.57 69.26 4.4 69.36 5.22C69.58 6.87 69.73 8.54 69.82 10.2C70 13.56 69.91 16.94 69.56 20.29C69.4 21.81 69.18 23.32 68.94 24.83C68.8 24.16 68.62 23.49 68.45 22.83C67.99 21.04 67.65 19.22 67.48 17.38C67.31 15.5 67.3 13.61 67.46 11.73C67.62 9.91 67.93 8.11 68.12 6.29C68.22 5.31 68.28 4.33 68.24 3.34C68.2 2.47 68.11 1.57 67.82 0.740001C67.87 0.700001 67.91 0.660001 67.97 0.630001V0.660001ZM63.75 8.25C63.79 8.05 63.84 7.85 63.89 7.66C63.89 7.65 63.9 7.64 63.91 7.62C64.8 6.01 65.68 4.4 66.57 2.79C66.8 2.38 67.02 1.97 67.25 1.56C67.36 1.36 67.48 1.12 67.64 0.930001C67.78 1.65 67.91 2.37 67.96 3.11C68.01 4.02 67.98 4.93 67.89 5.83C67.73 7.63 67.38 9.4 67.18 11.2C66.78 14.84 67.01 18.53 67.86 22.09C68.09 23.07 68.36 24.04 68.55 25.03C68.6 25.28 68.64 25.54 68.68 25.8L68.3 26.64C68.27 26.53 68.25 26.41 68.22 26.3C68.04 25.54 67.83 24.78 67.61 24.03C67.16 22.49 66.6 21 66.01 19.51C64.88 16.68 63.65 13.81 63.56 10.71C63.54 9.89 63.59 9.06 63.75 8.26V8.25ZM63.44 8.48C63.36 8.97 63.31 9.46 63.29 9.94C63.23 11.42 63.44 12.91 63.8 14.34C64.59 17.44 66 20.34 66.93 23.4C67.2 24.27 67.43 25.15 67.64 26.03C67.69 26.23 67.73 26.43 67.77 26.63C67.54 26.22 67.27 25.83 67 25.48C66.51 24.85 65.97 24.26 65.46 23.64C64.93 23 64.43 22.35 63.96 21.67C62.07 18.93 60.82 15.54 61.78 12.22C62.16 10.9 62.79 9.68 63.44 8.49V8.48ZM59.12 7.49C59.82 7.59 60.51 7.71 61.2 7.84C61.78 7.95 62.35 8.11 62.93 8.2C62.59 8.84 62.25 9.49 61.95 10.15C61.24 11.72 60.81 13.36 60.9 15.09C60.99 16.81 61.54 18.49 62.34 20.01C63.14 21.54 64.18 22.92 65.29 24.23C65.99 25.05 66.84 25.91 67.38 26.89C67.27 26.83 67.17 26.75 67.09 26.65C67.03 26.58 66.93 26.59 66.88 26.65C66.88 26.65 66.87 26.64 66.86 26.63C66.39 26.07 65.92 25.52 65.45 24.96C65.15 24.6 64.85 24.25 64.55 23.89C63.74 22.82 62.98 21.72 62.3 20.55C61.5 19.18 60.84 17.74 60.27 16.26C59.7 14.79 59.21 13.3 58.64 11.83C58.02 10.21 57.34 8.61 56.38 7.16C57.3 7.23 58.21 7.33 59.12 7.46V7.49ZM51.18 7.11C52.42 7.05 53.67 7.05 54.92 7.11C55.35 7.13 55.77 7.16 56.2 7.19C56.18 7.21 56.17 7.24 56.2 7.27C57.71 10.06 58.65 13.06 59.75 16.03C60.3 17.51 60.9 18.98 61.66 20.36C61.75 20.52 61.84 20.67 61.93 20.83C61.72 20.58 61.51 20.33 61.3 20.08C59.91 18.45 58.51 16.82 57.13 15.18C55.93 13.76 54.74 12.32 53.44 10.98C52.14 9.64 50.7 8.39 49.05 7.52C49.67 7.16 50.52 7.14 51.19 7.11H51.18ZM48.21 11.38C48.23 10.74 48.26 10.1 48.29 9.46C48.31 8.92 48.27 8.27 48.66 7.83C48.72 7.77 48.78 7.71 48.85 7.66C50.34 8.54 51.69 9.62 52.92 10.84C54.21 12.13 55.36 13.53 56.52 14.93C59.21 18.19 61.88 21.48 64.56 24.75C64.57 24.77 64.58 24.78 64.59 24.8C63.16 23.68 61.71 22.58 60.23 21.51C58.82 20.49 57.38 19.5 55.92 18.55C54.55 17.66 53.15 16.83 51.77 15.95C51.08 15.5 50.4 15.03 49.78 14.48C49.15 13.92 48.67 13.26 48.17 12.59C48.18 12.19 48.19 11.78 48.21 11.38ZM48.08 15.28C48.1 14.47 48.13 13.67 48.16 12.86C48.69 14.07 49.87 15.02 50.91 15.77C52.23 16.71 53.64 17.52 55 18.4C57.94 20.31 60.78 22.36 63.5 24.57C64.12 25.07 64.73 25.58 65.33 26.09C63.65 25.3 61.84 24.74 60.09 24.25C58.46 23.8 56.82 23.39 55.22 22.87C53.71 22.38 52.16 21.82 50.83 20.93C49.43 20 48.27 18.59 48.11 16.86C48.11 16.82 48.08 16.8 48.05 16.79C48.06 16.29 48.07 15.79 48.08 15.29V15.28ZM48.18 22.71C47.96 21.53 47.97 20.32 47.99 19.12C47.99 18.67 48.01 18.22 48.02 17.77C48.63 20.46 51.53 21.96 53.94 22.86C57.09 24.04 60.43 24.64 63.57 25.87C64.64 26.29 65.66 26.8 66.63 27.4C66.75 27.54 66.86 27.68 66.98 27.82C66.33 27.59 65.67 27.37 65.01 27.17C63.96 26.85 62.9 26.57 61.83 26.36C59.81 25.96 57.73 25.81 55.69 26.11C54.33 26.31 53.03 26.72 51.82 27.34C51.82 27.28 51.79 27.22 51.71 27.2C49.69 26.59 48.54 24.7 48.18 22.71ZM49.68 29.56C50.1 29.18 50.55 28.84 51.01 28.52C51.13 28.48 51.24 28.44 51.36 28.39C51.82 28.21 52.26 28.01 52.69 27.75C52.77 27.7 52.78 27.61 52.74 27.55C53.38 27.27 54.05 27.04 54.74 26.88C56.75 26.42 58.84 26.46 60.87 26.78C61.29 26.85 61.71 26.93 62.12 27.01C62.1 27.11 62.15 27.25 62.28 27.26C62.53 27.3 62.76 27.38 63.01 27.43C63.25 27.48 63.5 27.53 63.74 27.59C63.99 27.65 64.23 27.73 64.47 27.82C64.79 28.01 65.08 28.24 65.34 28.51C64.97 28.56 64.61 28.61 64.25 28.67C63.87 28.71 63.49 28.73 63.11 28.76C61.52 28.86 59.92 28.87 58.32 28.93C55.61 29.03 52.84 29.31 50.32 30.36C49.31 30.78 48.37 31.32 47.52 32C48.15 31.12 48.87 30.29 49.69 29.55L49.68 29.56ZM46.84 33C46.84 33 46.86 33 46.87 32.98C50.71 29.32 56.27 29.46 61.28 29.32C59.99 29.67 58.72 30.1 57.49 30.61C55.84 31.3 54.25 32.13 52.75 33.1C51.26 34.06 49.9 35.18 48.57 36.35C47.84 36.99 47.11 37.62 46.32 38.18C45.5 38.76 44.63 39.2 43.71 39.6C43.71 39.6 43.71 39.6 43.7 39.61C44.6 37.36 45.55 35.05 46.85 32.99L46.84 33ZM45.34 41.81C44.75 41.15 44.18 40.47 43.63 39.78C43.63 39.76 43.64 39.75 43.65 39.73C43.66 39.78 43.7 39.82 43.76 39.81C45.39 39.45 46.82 38.3 48.07 37.25C49.42 36.11 50.72 34.94 52.18 33.93C55.14 31.88 58.48 30.39 61.97 29.53C62.45 29.41 62.94 29.31 63.42 29.22C64.09 29.18 64.76 29.12 65.43 29.04C65.53 29.03 65.63 29.01 65.73 28.99C65.92 29.25 66.1 29.52 66.25 29.8C63.94 31.61 61.64 33.43 59.33 35.23C57.88 36.36 56.42 37.48 54.97 38.61C53.64 39.63 52.32 40.7 50.79 41.42C49.09 42.21 47.22 42.45 45.44 41.79C45.39 41.77 45.36 41.79 45.33 41.82L45.34 41.81ZM47.41 43.88C46.77 43.31 46.17 42.71 45.59 42.08C46.95 42.72 48.6 42.58 50 42.11C51.59 41.58 52.98 40.58 54.3 39.57C57.27 37.3 60.23 35.01 63.21 32.75C64.31 31.92 65.4 31.08 66.49 30.25C66.49 30.27 66.51 30.29 66.52 30.31C66.65 30.58 66.76 30.87 66.85 31.15C66.61 31.77 66.35 32.38 66.07 32.98C65.37 34.48 64.54 35.91 63.6 37.28C61.72 40.02 59.38 42.38 56.67 44.31C55.19 45.36 53.54 46.45 51.73 46.79C50.16 46.05 48.71 45.03 47.41 43.88ZM56.01 47.97C54.66 47.86 53.37 47.5 52.15 46.97C53.63 46.68 54.99 45.89 56.25 45.07C57.67 44.15 58.99 43.09 60.22 41.92C62.67 39.59 64.73 36.86 66.26 33.84C66.56 33.24 66.83 32.63 67.09 32.01C67.23 32.7 67.27 33.41 67.21 34.11C67.2 34.24 67.26 34.33 67.34 34.38C67.06 35.48 66.7 36.58 66.32 37.66C65.62 38.91 64.64 39.97 63.92 41.2C63.29 42.27 62.77 43.4 62.18 44.49C61.52 45.7 60.73 46.87 59.6 47.69C58.43 47.98 57.21 48.06 56.02 47.96L56.01 47.97ZM64.05 45.08C63.04 46.24 61.72 47.03 60.28 47.5C62.03 46.02 62.88 43.75 63.96 41.78C64.29 41.18 64.65 40.61 65.06 40.06C65.31 39.73 65.56 39.4 65.81 39.07C65.66 39.51 65.5 39.95 65.36 40.39C64.87 41.88 64.44 43.41 64.28 44.98C64.2 44.98 64.12 45.01 64.05 45.09V45.08ZM64.78 46.46C64.75 42.93 66.27 39.71 67.32 36.41C67.47 36 67.59 35.59 67.69 35.16C67.7 35.11 67.72 35.05 67.74 35C67.9 34.41 68.03 33.81 68.13 33.21C68.17 33.22 68.22 33.21 68.26 33.18C68.31 33.13 68.36 33.07 68.41 33.02C68.41 33.1 68.42 33.18 68.43 33.26C68.57 34.92 68.7 36.58 68.82 38.23C69.05 41.23 69.15 44.34 67.87 47.14C67.3 48.39 66.47 49.46 65.42 50.33C65.02 49.08 64.8 47.77 64.79 46.46H64.78ZM65.5 50.63C67.67 49.18 68.76 46.48 69.13 43.99C69.37 42.37 69.37 40.72 69.29 39.08C69.2 37.39 69.07 35.71 68.95 34.02C68.91 33.42 68.88 32.83 68.85 32.23C68.97 31.93 69.1 31.65 69.36 31.45C70.27 33.82 70.82 36.32 70.93 38.86C71.01 40.63 70.89 42.41 70.57 44.16C70.24 45.96 69.65 47.66 68.98 49.35C68.34 50.99 67.6 52.85 67.72 54.66C66.75 53.46 66 52.09 65.49 50.63H65.5ZM68.54 55.57C68.48 55.5 68.41 55.44 68.35 55.37C68.24 54.42 68.28 53.51 68.49 52.57C68.7 51.63 69.04 50.72 69.39 49.83C70.06 48.12 70.68 46.42 71.03 44.61C71.71 41.12 71.55 37.48 70.62 34.05C70.36 33.1 70.05 32.18 69.67 31.29C69.79 31.24 69.92 31.22 70.04 31.2C70.07 31.26 70.1 31.31 70.13 31.37C70.54 32.19 70.88 33.04 71.18 33.91C71.77 35.66 72.16 37.47 72.56 39.27C73.01 41.33 73.47 43.42 73.4 45.54C73.33 47.48 72.79 49.31 71.7 50.92C70.64 52.47 69.3 53.85 68.55 55.58L68.54 55.57ZM68.89 55.51C69.63 54.01 70.83 52.81 71.82 51.48C72.38 50.73 72.86 49.93 73.18 49.06C73.52 48.14 73.71 47.17 73.78 46.19C73.95 44.09 73.6 41.99 73.17 39.94C72.77 38.06 72.37 36.18 71.81 34.35C71.5 33.35 71.14 32.36 70.68 31.42C70.65 31.35 70.61 31.28 70.57 31.21C70.64 31.21 70.71 31.23 70.78 31.24C72.77 33.93 75.27 36.25 76.81 39.25C77.77 41.11 78.33 43.23 77.9 45.32C77.49 47.32 76.23 49.01 74.85 50.46C74.01 51.35 73.1 52.17 72.15 52.95C71.19 53.74 70.14 54.42 69.16 55.18C69.08 55.24 69.13 55.36 69.21 55.37C69.1 55.42 68.99 55.48 68.88 55.53L68.89 55.51ZM79.21 36.26C80.7 38.38 81.06 41.16 80.53 43.66C79.98 46.26 78.46 48.6 76.59 50.45C74.54 52.47 72.07 53.96 69.5 55.21C70.4 54.7 71.22 54.06 72.02 53.42C72.9 52.71 73.76 51.96 74.56 51.16C75.99 49.75 77.35 48.13 77.99 46.19C78.65 44.19 78.39 42.09 77.63 40.15C76.84 38.13 75.56 36.38 74.19 34.72C73.28 33.62 72.33 32.54 71.47 31.4C71.62 31.45 71.77 31.51 71.91 31.56C72.07 31.62 72.2 31.55 72.27 31.43C72.72 31.67 73.16 31.89 73.61 32.12C75.68 33.17 77.84 34.29 79.21 36.24V36.26ZM78.24 32.25C76.13 32.03 74.12 31.29 72.15 30.51C72.13 30.47 72.11 30.44 72.07 30.41C71.7 30.15 71.35 29.86 71.04 29.53C72.68 29.84 74.36 30.02 76 30.12C78.34 30.26 80.69 30.24 83.02 30.06C84.34 29.95 85.66 29.81 86.96 29.59C86.37 30.04 85.75 30.45 85.1 30.8C83 31.92 80.61 32.49 78.23 32.24L78.24 32.25ZM118.78 39.09C118.11 40.39 117 41.47 115.61 41.96C114.77 41.25 113.75 40.82 112.66 40.6C111.1 40.28 109.44 40.29 107.85 40.39C107.59 40.41 107.33 40.43 107.07 40.46C108.34 39.8 109.63 39.2 110.93 38.63C112.55 38.23 114.19 37.93 115.85 37.73C116.44 37.66 117.03 37.6 117.62 37.56C117.92 37.54 118.23 37.52 118.53 37.5C118.82 37.48 119.13 37.51 119.4 37.39C119.27 37.98 119.07 38.55 118.78 39.1V39.09ZM106.26 40.26C106.26 40.26 106.22 40.24 106.19 40.24C105.68 40.27 105.2 40.48 104.77 40.78C104.61 40.81 104.44 40.84 104.28 40.87C105.24 40.46 106.21 40.08 107.2 39.74C106.88 39.9 106.57 40.08 106.26 40.26ZM119.56 34.38C119.64 35.31 119.62 36.25 119.44 37.16C119.44 37.16 119.43 37.14 119.41 37.14C119.18 37.05 118.95 37.08 118.7 37.09C118.43 37.1 118.16 37.12 117.89 37.14C117.33 37.18 116.77 37.23 116.22 37.3C115.12 37.43 114.03 37.6 112.95 37.82C112.92 37.82 112.89 37.83 112.85 37.84C113 37.78 113.15 37.72 113.29 37.66C113.72 37.49 114.16 37.33 114.6 37.16C115.04 36.99 115.51 36.83 115.93 36.59C116.05 36.52 116.01 36.33 115.86 36.35C115.45 36.4 115.06 36.55 114.66 36.66C114.26 36.77 113.86 36.93 113.47 37.08C112.69 37.38 111.91 37.7 111.15 38.04C110.85 38.17 110.55 38.31 110.25 38.45C109.69 38.6 109.12 38.76 108.57 38.94C111.16 37.82 113.73 36.66 116.3 35.48C117.38 34.99 118.46 34.51 119.52 33.98C119.54 34.12 119.55 34.25 119.57 34.39L119.56 34.38ZM117.33 27.81C117.86 28.2 118.18 28.81 118.42 29.4C118.72 30.13 118.91 30.91 119.09 31.68C119.24 32.31 119.37 32.94 119.46 33.58C118.48 34.01 117.52 34.48 116.56 34.93C115.52 35.42 114.47 35.9 113.43 36.38C111.34 37.34 109.24 38.28 107.14 39.22C106.28 39.6 105.43 39.99 104.57 40.38C106.46 39.19 108.29 37.88 110.09 36.56C111.23 35.72 112.37 34.88 113.48 34.01C114.42 33.27 115.34 32.46 115.92 31.39C116.55 30.24 116.71 28.84 116.69 27.52C116.91 27.58 117.12 27.67 117.32 27.81H117.33ZM104.56 39.01C105.4 37.98 106.19 36.9 106.91 35.76C108.08 33.89 109.09 31.93 109.91 29.89C110.27 29 110.6 28.08 110.9 27.16C110.8 29.84 110.04 32.51 108.69 34.83C107.98 36.05 107.11 37.18 106.12 38.18C105.59 38.45 105.08 38.73 104.56 39.01ZM112.85 29.01C113.55 28.51 114.29 28.02 115.09 27.69C115.49 27.53 115.91 27.43 116.32 27.45C116.21 28.62 116.18 29.8 115.67 30.89C115.17 31.98 114.25 32.79 113.34 33.53C111.29 35.17 109.16 36.73 107.02 38.25C107.02 38.18 107 38.12 106.96 38.06C107.61 37.36 108.21 36.6 108.73 35.8C109.76 34.21 110.5 32.45 110.95 30.61C111.54 30.03 112.17 29.49 112.84 29.01H112.85ZM107.52 22.98C107.52 22.98 107.52 22.94 107.5 22.92C108.1 22.6 108.76 22.44 109.44 22.64C110.85 23.06 110.87 24.89 110.9 26.1C110.9 26.13 110.9 26.16 110.9 26.18C110.89 26.19 110.88 26.21 110.87 26.24C109.57 30.45 107.6 34.4 105.01 37.96C104.68 38.42 104.34 38.87 103.99 39.32C103.83 39.41 103.62 39.53 103.4 39.64C104.34 38.09 105.11 36.44 105.73 34.75C106.61 32.36 107.18 29.84 107.42 27.31C107.56 25.87 107.59 24.42 107.51 22.97L107.52 22.98ZM102.48 41.88C102.48 41.88 102.56 41.95 102.6 41.98C102.7 42.14 102.8 42.31 102.89 42.47C102.82 42.52 102.75 42.57 102.68 42.62C102.57 42.28 102.46 41.95 102.34 41.61C102.34 41.61 102.35 41.61 102.36 41.61C102.4 41.67 102.43 41.72 102.46 41.78C102.44 41.81 102.44 41.85 102.46 41.88H102.48ZM103.04 42.76C103.14 42.95 103.24 43.15 103.33 43.34C103.27 43.28 103.2 43.22 103.14 43.16C103.05 43.06 102.95 42.97 102.85 42.88C102.91 42.84 102.98 42.8 103.04 42.76ZM103.3 41.82C103.3 41.82 103.21 41.76 103.16 41.73C103.14 41.72 103.12 41.71 103.1 41.72C103.1 41.72 103.09 41.7 103.08 41.69C103.4 41.61 103.72 41.53 104.04 41.46C103.94 41.59 103.84 41.72 103.75 41.85C103.6 41.85 103.45 41.82 103.3 41.82ZM105.8 24.27C106.2 23.87 106.67 23.43 107.2 23.1C107.46 28.12 106.38 33.18 104.17 37.69C103.81 38.42 103.42 39.12 103.01 39.82C102.83 39.89 102.66 39.93 102.49 39.94C103.95 36.6 105.28 33.1 104.88 29.4C104.77 28.41 104.55 27.33 104.1 26.42C104.59 25.65 105.15 24.92 105.8 24.27ZM103.94 26.65C104.08 27.01 104.21 27.36 104.31 27.73C104.43 28.19 104.53 28.65 104.59 29.12C104.72 30.1 104.72 31.09 104.61 32.07C104.4 34.07 103.79 35.99 103.04 37.85C102.76 38.54 102.46 39.21 102.15 39.88C102.04 39.83 101.94 39.76 101.85 39.65C101.52 36.96 101.47 34.23 102.02 31.57C102.38 29.85 103.01 28.16 103.93 26.65H103.94ZM101.99 43.15C101.99 43.15 102.02 43.18 102.03 43.2C101.99 43.2 101.95 43.2 101.91 43.2C101.87 43.2 101.82 43.22 101.78 43.22C101.78 43.08 101.8 42.94 101.81 42.8C101.83 42.75 101.84 42.7 101.86 42.66C101.91 42.53 101.95 42.39 102 42.26C102.03 42.36 102.07 42.47 102.1 42.57C102.08 42.58 102.06 42.6 102.05 42.62C102.01 42.67 102 42.73 101.99 42.79C101.92 42.89 101.89 43.03 101.99 43.15ZM101.72 30.5C101.71 30.58 101.7 30.67 101.68 30.75C101.42 31.79 101.25 32.84 101.15 33.9C101.08 33.25 101.01 32.59 100.97 31.94C100.86 30.4 100.85 28.85 100.92 27.31C101.06 24.26 101.51 21.22 102.32 18.28C102.78 16.63 103.35 15.03 103.98 13.44C103.99 13.41 103.98 13.39 103.98 13.37C104.05 13.29 104.11 13.21 104.18 13.13C103.35 18.92 102.52 24.71 101.72 30.5ZM100.49 31.39C100.52 32.1 100.56 32.81 100.63 33.52C100.13 31.67 99.64 29.82 99.45 27.91C99.09 24.32 99.82 20.65 101.38 17.41C101.82 16.5 102.33 15.64 102.89 14.81C103.12 14.47 103.36 14.15 103.61 13.84C102.48 16.52 101.74 19.34 101.16 22.19C100.55 25.2 100.37 28.33 100.49 31.39ZM98.04 32.52C97.26 30.75 96.78 28.84 96.67 26.9C96.45 23.13 97.69 19.37 99.98 16.38C101.14 14.87 102.56 13.57 104.17 12.56C103.66 13.07 103.2 13.64 102.77 14.21C102.23 14.94 101.75 15.71 101.33 16.51C100.47 18.11 99.84 19.83 99.43 21.61C99.03 23.39 98.88 25.21 98.98 27.02C99.09 29.05 99.57 31.03 100.1 32.99C100.45 34.29 100.79 35.58 101.07 36.89C101.07 36.96 101.07 37.03 101.07 37.09C100.69 36.66 100.32 36.23 99.97 35.78C99.72 35.32 99.46 34.86 99.11 34.48C99.06 34.43 99.02 34.38 98.97 34.33C98.62 33.75 98.31 33.15 98.03 32.53L98.04 32.52ZM93.53 38.27C94.07 37.29 94.74 36.38 95.5 35.56C95.95 35.08 96.56 34.45 97.22 34.27C97.38 34.32 97.55 34.37 97.71 34.41C97.84 34.44 97.92 34.37 97.95 34.28C98.09 34.33 98.23 34.4 98.37 34.5C98.61 34.68 98.81 34.91 98.98 35.16C99 35.19 99.01 35.21 99.03 35.24C99.19 35.48 99.34 35.73 99.47 35.98C99.81 36.59 100.11 37.23 100.37 37.88C100.64 38.54 100.86 39.21 101.05 39.9C101.08 40.01 101.1 40.12 101.13 40.23C101.13 40.25 101.13 40.28 101.13 40.3C101.15 40.38 101.17 40.46 101.21 40.53C101.28 40.85 101.36 41.17 101.44 41.48C98.87 40.16 96.07 39.24 93.21 38.87C93.31 38.67 93.41 38.47 93.51 38.28L93.53 38.27ZM91.79 45.77C91.76 45.38 91.77 44.99 91.78 44.68C91.83 42.74 92.3 40.83 93.13 39.08C95.88 39.58 98.54 40.44 101.03 41.71C98.31 41.91 95.64 42.9 93.41 44.45C92.84 44.85 92.3 45.29 91.8 45.76L91.79 45.77ZM95.97 46.24C95.46 46.52 94.93 46.79 94.4 47.03C93.92 47.24 93.37 47.43 92.84 47.34C92.19 47.22 91.93 46.69 91.83 46.08C94.01 44.2 96.59 42.87 99.44 42.35C100 42.25 100.56 42.19 101.13 42.15C100.8 42.5 100.48 42.85 100.16 43.21C98.89 44.38 97.49 45.4 95.98 46.23L95.97 46.24ZM95.85 57.07C95.69 56.31 95.62 55.53 95.62 54.76C95.63 53.2 95.94 51.65 96.47 50.19C97 48.72 97.74 47.34 98.6 46.04C99.03 45.4 99.49 44.79 99.96 44.19C100.46 43.77 100.93 43.32 101.39 42.85C101.32 43.05 101.26 43.25 101.19 43.44C101.11 43.49 101.03 43.54 100.96 43.61C100.83 43.72 100.71 43.85 100.62 44C100.52 44.15 100.48 44.31 100.44 44.49C100.4 44.66 100.64 44.68 100.71 44.56C100.76 44.47 100.83 44.39 100.9 44.31C100.53 45.4 100.17 46.5 99.8 47.6C99.06 49.81 98.38 52.05 97.5 54.2C97.05 55.29 96.53 56.35 95.91 57.36C95.89 57.27 95.86 57.17 95.85 57.08V57.07ZM96.59 58.95C96.29 58.58 96.12 58.13 96 57.67C97.23 55.83 98.03 53.72 98.75 51.64C99.57 49.3 100.38 46.96 101.18 44.62C101.23 44.48 101.28 44.34 101.33 44.19C101.31 44.58 101.29 44.97 101.27 45.36C101.2 46.73 101.13 48.1 101.06 49.47C100.99 50.82 100.92 52.17 100.87 53.53C100.83 54.81 100.81 56.11 100.36 57.33C99.97 58.38 99.17 59.3 98.08 59.63C97.52 59.57 96.97 59.42 96.6 58.95H96.59ZM102.41 59.13C102.41 59.13 102.37 59.15 102.36 59.17C101.82 59.4 101.22 59.54 100.62 59.6C99.98 59.67 99.34 59.68 98.7 59.66C99.35 59.36 99.87 58.82 100.24 58.19C100.87 57.12 100.99 55.87 101.07 54.66C101.26 51.84 101.44 49.02 101.6 46.19C101.65 45.39 101.69 44.6 101.74 43.8C101.74 43.8 101.74 43.79 101.74 43.78C101.82 43.76 101.89 43.75 101.97 43.74C102.15 43.73 102.32 43.77 102.49 43.83C102.57 44.12 102.66 44.4 102.74 44.69C103.06 45.89 103.33 47.11 103.54 48.34C103.76 49.6 103.94 50.87 104.06 52.14C104.17 53.39 104.29 54.67 104.2 55.92C104.11 57.19 103.63 58.52 102.42 59.12L102.41 59.13ZM105.02 54.16C104.96 55.32 104.8 56.56 104.21 57.58C104.28 57.4 104.34 57.22 104.39 57.04C104.71 55.77 104.6 54.37 104.55 53.07C104.43 50.38 104.05 47.71 103.39 45.1C103.35 44.93 103.3 44.77 103.26 44.6C103.28 44.6 103.3 44.62 103.32 44.63C103.39 44.65 103.44 44.63 103.49 44.61C103.51 44.61 103.54 44.61 103.56 44.61C103.65 44.58 103.74 44.5 103.77 44.41C104.42 46.14 104.77 47.99 104.93 49.83C105.06 51.27 105.09 52.72 105.02 54.16ZM113.62 69.23C112 68.5 110.51 67.52 109.37 66.13C108.16 64.66 107.36 62.89 106.86 61.07C106.48 59.66 106.27 58.22 106.11 56.77C106.64 59.24 107.75 61.61 109.27 63.6C110.3 64.96 111.55 66.18 112.93 67.18C114.6 68.38 116.48 69.21 118.24 70.25C119.12 70.77 119.98 71.34 120.74 72.02L120.76 72.04C118.48 70.9 115.93 70.28 113.61 69.23H113.62ZM105.96 54.53C106.17 55.25 106.43 55.96 106.74 56.65C107.48 58.28 108.47 59.8 109.59 61.2C111.98 64.2 114.94 66.64 117.8 69.17C118.03 69.38 118.26 69.59 118.49 69.8C117.04 68.99 115.53 68.31 114.1 67.47C111.1 65.68 108.72 62.95 107.31 59.74C106.59 58.09 106.14 56.33 105.94 54.54L105.96 54.53ZM112.92 59.91C114.37 61 115.77 62.16 117 63.5C118.27 64.88 119.39 66.4 120.32 68.03C121.19 69.56 121.89 71.18 122.38 72.87C122.07 72.48 121.73 72.12 121.36 71.78C121.23 71.65 121.09 71.51 120.96 71.38C120.27 70.7 119.57 70.05 118.84 69.41C117.38 68.12 115.88 66.87 114.43 65.58C111.7 63.15 109.11 60.51 107.42 57.23C106.98 56.37 106.6 55.47 106.31 54.55C106.23 54.28 106.16 54.01 106.09 53.74C106.12 53.78 106.16 53.82 106.19 53.87C106.41 54.28 106.66 54.67 106.96 55.03C107.31 55.45 107.71 55.81 108.14 56.11C109.61 57.51 111.3 58.71 112.91 59.93L112.92 59.91ZM111.2 56.49C110.22 56.48 109.3 56.2 108.5 55.69C107.5 54.73 106.6 53.67 105.93 52.44C105.92 52.42 105.9 52.4 105.88 52.38C105.85 52.32 105.82 52.25 105.8 52.19C105.76 51.99 105.73 51.78 105.69 51.58C105.69 51.54 105.66 51.52 105.63 51.51C105.63 51.38 105.63 51.24 105.61 51.11C105.49 48.37 105.03 45.58 103.85 43.09C104.26 43.45 104.65 43.81 105.04 44.19C105.86 45 106.62 45.87 107.33 46.79C108.75 48.65 109.93 50.67 110.81 52.84C111.29 54.01 111.67 55.22 111.97 56.45C111.72 56.48 111.46 56.5 111.2 56.5V56.49ZM112.42 56.37C111.49 52.44 109.62 48.75 107 45.68C107.61 46.16 108.23 46.62 108.86 47.07C109.82 47.74 110.8 48.36 111.8 48.97C112.78 49.56 113.77 50.18 114.57 51.02C115.35 51.84 115.94 52.87 116.03 54.02C115.12 55.19 113.87 56.07 112.42 56.37ZM116.81 52.77C116.69 53.01 116.56 53.23 116.43 53.46C116.05 51.52 114.37 50.14 112.75 49.12C111.74 48.48 110.71 47.89 109.71 47.22C108.71 46.55 107.74 45.84 106.8 45.08C105.95 44.4 105.12 43.68 104.3 42.96C104.28 42.94 104.26 42.92 104.23 42.9C104.22 42.89 104.2 42.88 104.19 42.86C104.14 42.82 104.09 42.77 104.04 42.73C104.04 42.73 104.05 42.72 104.06 42.71C104.65 43.1 105.3 43.43 105.92 43.72C107.01 44.22 108.14 44.62 109.27 45.02C111.36 45.76 113.48 46.52 115.27 47.88C116.2 48.59 116.99 49.45 117.53 50.48C117.4 51.27 117.17 52.04 116.82 52.76L116.81 52.77ZM117.6 49.9C115.35 46.16 110.52 45.28 106.76 43.73C106.15 43.48 105.54 43.2 104.96 42.87C104.73 42.75 104.52 42.61 104.3 42.47C104.4 42.38 104.49 42.28 104.6 42.19C106.26 42.39 107.92 42.64 109.56 42.96C110.62 43.17 111.68 43.41 112.73 43.7C113.72 43.98 114.72 44.3 115.61 44.84C116.31 45.27 116.92 45.82 117.37 46.49C117.63 47.6 117.72 48.76 117.61 49.89L117.6 49.9ZM116.87 44.94C116.93 45.1 116.99 45.26 117.04 45.42C116.09 44.49 114.78 43.9 113.51 43.53C112.45 43.22 111.36 42.99 110.28 42.76C109.17 42.53 108.06 42.33 106.94 42.17C106.26 42.07 105.58 42 104.9 41.93C105.28 41.63 105.67 41.35 106.08 41.09C107.79 40.86 109.52 40.8 111.23 40.96C112.46 41.07 113.73 41.33 114.76 42.04C115.77 42.74 116.42 43.8 116.86 44.93L116.87 44.94ZM129.9 62.15C129.33 61.44 128.95 60.61 128.76 59.72C128.56 58.78 128.55 57.81 128.56 56.85C128.58 55.08 128.62 53.33 128.01 51.64C127.91 51.37 127.8 51.1 127.68 50.84C128.15 51.38 128.57 51.94 128.91 52.57C129.17 53.06 129.36 53.56 129.54 54.08C129.74 54.68 129.94 55.27 130.1 55.88C130.42 57.14 130.43 58.4 130.47 59.69C130.49 60.41 130.54 61.12 130.67 61.83C130.75 62.3 130.86 62.76 130.97 63.22C130.59 62.89 130.23 62.54 129.91 62.15H129.9ZM133.78 64.91C133.78 64.91 133.78 64.98 133.81 65C133.81 65.03 133.8 65.07 133.79 65.1C133.01 64.66 132.22 64.19 131.5 63.65C131.21 62.47 130.91 61.32 130.85 60.1C130.79 58.78 130.83 57.46 130.54 56.16C130.41 55.57 130.23 54.98 130.03 54.41C129.84 53.85 129.67 53.29 129.41 52.76C128.96 51.84 128.31 51.04 127.61 50.3C127.45 50.14 127.29 49.98 127.13 49.82C126.67 49.08 126.12 48.4 125.49 47.81C124.99 47.33 124.43 46.91 123.84 46.55C125.05 46.98 126.24 47.43 127.39 48.01C129.24 48.93 130.99 50.14 132.32 51.74C133.67 53.36 134.44 55.29 134.6 57.39C134.7 58.65 134.6 59.92 134.4 61.17C134.21 62.43 133.87 63.66 133.79 64.94L133.78 64.91ZM128.05 46.55C129.96 46.97 131.72 47.87 133.18 49.17C136.03 51.71 137.57 55.71 136.78 59.5C136.56 60.57 136.22 61.61 135.73 62.59C135.32 63.4 134.78 64.15 134.19 64.84C134.19 64.76 134.19 64.68 134.19 64.6C134.53 63.65 134.73 62.65 134.89 61.65C135.08 60.51 135.2 59.36 135.19 58.21C135.17 56.07 134.61 54.01 133.39 52.23C131.13 48.94 127.44 47.23 123.76 45.96C125.19 46.14 126.63 46.25 128.05 46.56V46.55ZM143.22 40.76C143.28 40.7 143.83 40.12 143.91 40.21C143.97 40.27 143.85 40.47 143.83 40.53C143.77 40.67 143.7 40.8 143.63 40.93C143.37 41.43 143.03 41.88 142.64 42.29C142.41 42.53 142.16 42.76 141.9 42.97C141.79 43.03 141.68 43.08 141.57 43.13C141.99 42.26 142.53 41.45 143.22 40.76ZM142.29 43.99C142.72 43.95 143.14 43.93 143.57 43.91C144.17 43.89 144.78 43.89 145.38 43.91C144.78 44.21 144.12 44.38 143.44 44.41C142.72 44.45 142.02 44.31 141.34 44.09C141.65 44.06 141.97 44.02 142.28 44L142.29 43.99ZM140.48 41.15C139.4 42.49 138.06 43.59 136.56 44.45C136.43 44.46 136.31 44.48 136.18 44.49C137.38 43.11 138.85 41.98 140.47 41.15H140.48ZM136.03 45.27C136.47 45.42 136.89 45.61 137.3 45.81C138.12 46.22 138.89 46.74 139.58 47.34C139.94 47.65 140.27 47.98 140.58 48.33C140.66 48.42 141.03 48.82 140.76 48.85C140.58 48.87 140.32 48.69 140.17 48.62C139.3 48.2 138.48 47.68 137.71 47.1C136.92 46.5 136.18 45.83 135.51 45.1C135.68 45.16 135.86 45.21 136.03 45.27ZM132.66 45.05C132.83 45.29 133.04 45.51 133.22 45.73C133.44 46 133.66 46.28 133.87 46.57C134.28 47.11 134.67 47.67 135.03 48.24C135.12 48.37 135.22 48.52 135.25 48.68C135.28 48.85 135.2 48.97 135.03 48.89C134.77 48.76 134.55 48.44 134.37 48.22C133.98 47.75 133.64 47.24 133.35 46.7C133.07 46.17 132.84 45.62 132.66 45.06V45.05ZM134.29 41.49C133.86 42.01 133.41 42.52 132.91 42.98C132.61 43.26 132.31 43.52 131.99 43.78C131.71 44 131.42 44.21 131.15 44.43C131.67 43.03 132.86 41.91 134.29 41.49ZM127.69 36.12C127.91 33.38 128.73 30.57 130.71 28.57C131.53 27.74 132.53 27.09 133.63 26.72C133.43 26.89 133.25 27.06 133.07 27.24C132.7 27.6 132.36 27.98 132.05 28.38C131.38 29.24 130.83 30.18 130.36 31.16C129.34 33.29 128.71 35.59 127.89 37.8C127.8 38.03 127.71 38.27 127.62 38.5C127.66 37.7 127.63 36.89 127.69 36.11V36.12ZM127.2 40.58C127.2 40.58 127.23 40.52 127.24 40.49C127.34 40.24 127.4 39.99 127.46 39.73C128.14 38.23 128.62 36.63 129.17 35.09C129.91 33.02 130.73 30.95 132.01 29.14C132.35 28.66 132.73 28.2 133.14 27.77C133.16 27.75 133.18 27.74 133.19 27.72C131.09 31.59 130.94 36.4 127.97 39.81C127.73 40.08 127.47 40.34 127.2 40.58ZM141.74 38.92C140.41 39.3 139.03 39.55 137.65 39.66C136.14 39.79 134.63 39.7 133.11 39.68C132.02 39.67 130.9 39.68 129.82 39.87C130 39.77 130.18 39.68 130.36 39.58C135.18 38.38 140.05 37.35 144.96 36.6C145.67 36.49 146.38 36.4 147.08 36.3C147.26 36.27 147.45 36.25 147.63 36.22C145.81 37.4 143.82 38.32 141.73 38.91L141.74 38.92ZM144.61 35.19C146 35.13 147.4 35.22 148.77 35.45C148.67 35.53 148.56 35.6 148.45 35.67C148.07 35.72 147.69 35.79 147.33 35.85C146.69 35.94 146.05 36.05 145.41 36.16C144.13 36.37 142.86 36.59 141.58 36.83C139.04 37.3 136.49 37.81 133.98 38.43C133.06 38.66 132.14 38.89 131.23 39.14C135.4 37 139.9 35.39 144.61 35.2V35.19ZM136.73 35.23C137.87 31.22 140.16 27.52 143.18 24.66C143.87 24.01 144.61 23.4 145.37 22.84C145.18 23.1 145 23.38 144.82 23.64C144.53 24.05 144.25 24.47 143.96 24.88C143.37 25.72 142.79 26.56 142.2 27.39C141.02 29.08 139.83 30.77 138.65 32.46C138.02 33.36 137.38 34.27 136.78 35.2C136.76 35.21 136.74 35.22 136.72 35.23H136.73ZM137.31 34.93C138.4 33.47 139.43 31.95 140.48 30.45C141.66 28.76 142.85 27.07 144.03 25.38C144.37 24.9 144.71 24.42 145.05 23.94C145.1 23.86 145.16 23.79 145.21 23.71C144.12 27.07 142.25 30.17 139.8 32.71C139.09 33.45 138.32 34.16 137.52 34.82C137.45 34.85 137.38 34.89 137.31 34.93ZM194 30.8C192.94 32.91 191.25 34.61 189.08 35.55C184.24 37.63 178.93 36.12 173.87 35.98C173.6 35.95 173.32 35.93 173.04 35.91C172.93 35.91 172.81 35.91 172.7 35.9C172.58 35.87 172.47 35.82 172.37 35.76C175.35 35.35 178.33 34.92 181.3 34.4C184.37 33.86 187.5 33.34 190.45 32.33C191.72 31.9 192.94 31.33 194.07 30.61C194.04 30.67 194.02 30.73 193.99 30.79L194 30.8ZM195.01 19.31C195.27 20.74 195.45 22.18 195.49 23.63C195.54 25.77 195.22 27.93 194.41 29.91C192.05 31.56 189.23 32.42 186.45 33.04C183.25 33.75 180 34.27 176.77 34.81C175.22 35.07 173.68 35.32 172.13 35.56C172.13 35.55 172.11 35.54 172.1 35.53C172.69 35.21 173.29 34.91 173.92 34.66C174.97 34.23 176.03 33.85 177.1 33.49C179.1 32.8 181.07 32.08 182.92 31.05C186.35 29.14 189.33 26.45 191.6 23.24C192.85 21.47 193.88 19.55 194.65 17.52C194.78 18.12 194.91 18.71 195.02 19.31H195.01ZM193.4 14.31C193.49 14.34 193.57 14.38 193.65 14.45C193.86 14.64 193.98 14.93 194.07 15.19C194.28 15.82 194.41 16.48 194.55 17.12C194.55 17.13 194.55 17.14 194.55 17.15C194.48 17.13 194.4 17.15 194.36 17.25C192.98 20.92 190.74 24.25 187.89 26.93C186.46 28.28 184.87 29.48 183.17 30.47C181.38 31.51 179.48 32.26 177.54 32.95C176.38 33.36 175.21 33.76 174.06 34.24C173.35 34.54 172.62 34.87 171.94 35.27C172.52 34.67 173.11 34.07 173.75 33.52C174.54 32.84 175.37 32.22 176.23 31.63C177.99 30.42 179.85 29.37 181.7 28.32C185.27 26.29 188.88 23.98 191.3 20.59C192.55 18.83 193.47 16.83 193.74 14.68C193.77 14.4 193.34 14.35 193.31 14.63C192.82 18.6 190.24 21.88 187.2 24.3C183.88 26.95 180.04 28.83 176.52 31.19C175.57 31.83 174.64 32.51 173.77 33.25C173.12 33.8 172.46 34.39 171.89 35.03C171.88 34.92 171.86 34.8 171.83 34.69C171.83 34.48 171.83 34.28 171.84 34.09C171.86 33.78 171.89 33.47 171.94 33.16C173.15 30.52 174.82 28.1 176.85 26.02C178.31 24.52 179.97 23.2 181.77 22.13C183.89 20.87 186.23 20.04 188.4 18.89C190.38 17.84 192.38 16.38 193.38 14.32L193.4 14.31ZM179.22 19.03C181.51 17.82 184.01 17.08 186.47 16.3C187.91 15.84 189.36 15.38 190.8 14.92C191.47 14.71 192.16 14.41 192.86 14.29C192.95 14.27 193.04 14.27 193.12 14.27C190.82 18.42 185.82 19.5 181.95 21.72C178.35 23.79 175.28 26.73 173.08 30.25C172.36 31.4 171.74 32.61 171.21 33.86C171.29 33.53 171.34 33.2 171.36 32.86C171.39 32.45 171.37 31.99 171.26 31.58C171.67 28.8 172.47 26.09 174.01 23.73C175.31 21.72 177.1 20.16 179.21 19.04L179.22 19.03ZM172.23 14.51C173.02 15.13 173.7 15.88 174.19 16.75C175.05 18.29 175.28 20.16 174.64 21.83C174.57 22.01 174.49 22.19 174.4 22.36C172.2 25.2 171.16 28.76 170.78 32.33C170.47 32.93 170.52 33.63 170.37 34.28C169.05 29.18 169.07 23.72 170.59 18.67C171.02 17.24 171.58 15.86 172.23 14.51ZM167.26 12.42C168.3 12.61 169.31 12.9 170.26 13.33C170.82 13.58 171.37 13.89 171.88 14.25C169.33 19.36 168.48 25.4 169.37 31.03C169.55 32.19 169.82 33.33 170.17 34.46C168.86 32.13 167.87 29.63 167.23 27.04C166.45 23.87 166.18 20.58 166.45 17.33C166.59 15.68 166.88 14.04 167.27 12.43L167.26 12.42ZM161.38 12.79C162.33 12.36 163.34 12.18 164.38 12.18C165.25 12.18 166.14 12.25 167.02 12.39C166.18 15.39 165.9 18.55 166.07 21.66C166.26 24.98 166.97 28.26 168.19 31.35C168.7 32.64 169.31 33.89 170 35.1C169.78 35.37 169.47 35.51 169.1 35.48C168.95 35.47 168.8 35.45 168.65 35.42C167.9 34.65 167.21 33.83 166.59 32.95C165.69 31.66 164.94 30.27 164.31 28.82C162.92 25.63 162.16 22.18 161.64 18.76C161.35 16.86 161.13 14.95 160.91 13.04C161.07 12.96 161.22 12.87 161.38 12.8V12.79ZM154.88 17.85C155.96 16.43 157.44 15.38 158.86 14.34C159.47 13.9 160.09 13.46 160.74 13.1C161.07 16.66 161.45 20.22 162.29 23.7C163.05 26.88 164.25 29.98 166.01 32.74C166.54 33.57 167.13 34.36 167.77 35.11C167.54 35.01 167.32 34.91 167.09 34.81C166.4 34.48 165.73 34.11 165.08 33.71C163.81 32.92 162.61 32.02 161.51 31.02C159.27 28.99 157.43 26.54 156.1 23.83C155.35 22.29 154.75 20.67 154.34 19.01C154.32 18.93 154.22 18.92 154.17 18.96C154.37 18.57 154.61 18.2 154.87 17.85H154.88ZM153.64 23.17C153.48 22.19 153.48 21.18 153.72 20.21C153.82 19.79 153.98 19.38 154.17 18.99C154.17 19 154.16 19.02 154.17 19.03C154.8 22.03 156.08 24.87 157.83 27.38C159.58 29.89 161.8 32.1 164.35 33.8C164.83 34.12 165.32 34.41 165.83 34.7C164.2 34.1 162.61 33.42 161.11 32.55C161.09 32.53 161.06 32.51 161.03 32.5C160.55 32.22 160.08 31.93 159.62 31.61C156.75 29.62 154.24 26.69 153.66 23.15L153.64 23.17ZM154.22 35.27C155.76 34.02 157.61 33.24 159.57 32.95C159.61 32.95 159.66 32.95 159.7 32.93C159.77 32.95 159.85 32.97 159.93 32.97C160 32.97 160.08 32.98 160.14 32.97C160.2 32.96 160.27 32.93 160.33 32.9C160.35 32.9 160.36 32.87 160.38 32.86C160.42 32.86 160.45 32.86 160.49 32.86C162.82 34.25 165.39 35.22 167.97 36.06C166.08 36.39 164.18 36.66 162.26 36.78C161.1 36.85 159.94 36.87 158.78 36.84C157.67 36.81 156.56 36.7 155.44 36.66C154.47 36.63 153.5 36.67 152.58 36.96C153.06 36.34 153.6 35.76 154.23 35.26L154.22 35.27ZM149.15 46.3C149.59 44.24 150.01 42.16 150.79 40.2C151.16 39.26 151.62 38.35 152.18 37.52C152.18 37.52 152.18 37.52 152.19 37.52C153.18 37.09 154.27 37.01 155.34 37.04C156.42 37.07 157.49 37.18 158.57 37.21C160.82 37.27 163.09 37.17 165.32 36.85C166.39 36.7 167.44 36.5 168.49 36.24C168.6 36.27 168.7 36.31 168.81 36.34C168.39 36.39 167.96 36.46 167.55 36.54C166.74 36.69 165.94 36.88 165.15 37.11C163.55 37.56 162 38.15 160.51 38.88C159.03 39.61 157.62 40.47 156.29 41.45C154.98 42.42 153.8 43.53 152.67 44.69C151.5 45.89 150.31 47.09 148.82 47.87C148.93 47.34 149.04 46.81 149.16 46.29L149.15 46.3ZM148 51.74C148.11 51.14 148.25 50.54 148.38 49.94C148.5 49.36 148.63 48.79 148.75 48.21C150.13 47.68 151.28 46.69 152.32 45.66C153.48 44.51 154.61 43.35 155.89 42.34C158.27 40.46 160.98 39.02 163.85 38.05C165.02 37.83 166.2 37.68 167.39 37.56C166.73 37.95 166.08 38.35 165.44 38.76C163.9 39.76 162.42 40.84 161.01 42C159.61 43.16 158.27 44.39 157.01 45.7C155.65 47.11 154.39 48.61 152.95 49.94C151.5 51.27 149.86 52.38 147.99 53.01C147.9 52.6 147.92 52.18 147.99 51.75L148 51.74ZM148.09 53.33C148.09 53.33 148.07 53.25 148.05 53.21C151.58 52.3 154.1 49.27 156.5 46.73C159.06 44.02 161.9 41.59 165.01 39.52C165.89 38.93 166.79 38.38 167.71 37.86C167.96 37.72 168.22 37.59 168.47 37.45C168.51 37.45 168.55 37.45 168.58 37.45C168.69 37.47 168.8 37.5 168.91 37.53C168.84 37.6 168.77 37.68 168.71 37.75C168.1 38.42 167.57 39.16 167.07 39.91C166.06 41.45 165.2 43.08 164.2 44.62C162.07 47.89 159.3 50.77 156.12 53.03C154.27 54.34 152.02 55.58 149.68 55.07C149.02 54.62 148.4 54.06 148.09 53.32V53.33ZM152.81 56.52C151.9 56.27 151.02 55.9 150.21 55.42C151.94 55.7 153.68 55 155.17 54.09C156.88 53.04 158.47 51.76 159.93 50.38C161.37 49.02 162.68 47.53 163.84 45.92C164.96 44.37 165.89 42.7 166.89 41.07C167.42 40.2 167.99 39.35 168.64 38.56C168.87 38.28 169.11 38.02 169.35 37.77C169.39 37.81 169.44 37.85 169.47 37.89C169.5 37.93 169.53 37.98 169.56 38.02C169.09 39.06 168.78 40.19 168.5 41.28C168.03 43.12 167.63 44.96 166.84 46.7C165.25 50.19 162.54 53.12 159.15 54.92C157.5 55.8 155.72 56.4 153.88 56.75C153.52 56.69 153.17 56.62 152.82 56.52H152.81ZM166.08 50.61C166.08 50.67 166.07 50.73 166.06 50.79C165.39 51.66 164.67 52.48 163.88 53.24C162.4 54.67 160.67 55.89 158.67 56.47C157.38 56.85 156.01 56.97 154.67 56.84C157.91 56.18 160.96 54.57 163.33 52.27C164.69 50.96 165.84 49.45 166.72 47.78C167.62 46.09 168.15 44.28 168.61 42.43C168.87 41.38 169.12 40.33 169.5 39.31C169.6 39.05 169.71 38.8 169.83 38.55C169.9 38.77 169.95 39.01 170 39.23C170.13 39.83 170.25 40.42 170.38 41.02C170.38 41.03 170.38 41.04 170.39 41.05C169.98 43.63 169.03 46.13 167.7 48.37C167.26 49.11 166.77 49.83 166.24 50.52C166.19 50.48 166.09 50.49 166.08 50.58V50.61ZM166.31 51.93C166.29 51.77 166.28 51.6 166.27 51.44C166.61 51.01 166.93 50.56 167.24 50.12C169.25 47.2 170.63 43.8 171.04 40.27C171.04 40.43 171.06 40.59 171.07 40.75C171.14 42.17 171.18 43.6 171.14 45.02C171.07 47.63 170.8 50.23 170.04 52.74C169.63 54.09 169.07 55.39 168.47 56.67C167.35 55.3 166.51 53.76 166.3 51.93H166.31ZM174.08 61.64C173.41 61.26 172.8 60.76 172.21 60.26C170.98 59.21 169.69 58.1 168.62 56.83C170.03 54.68 170.72 52.05 171.15 49.53C171.61 46.81 171.67 44.04 171.58 41.29C171.55 40.5 171.51 39.71 171.47 38.92C171.47 38.86 171.47 38.79 171.46 38.73C171.5 38.87 171.54 39.02 171.58 39.16C171.82 40.01 172.06 40.86 172.29 41.71C172.75 43.39 173.18 45.09 173.58 46.79C173.98 48.51 174.33 50.23 174.64 51.97C174.92 53.55 175.2 55.15 175.25 56.76C175.3 58.45 175.06 60.19 174.09 61.62V61.64H174.08ZM176.8 62.28C175.92 62.35 175.07 62.17 174.29 61.76C176.04 59.18 175.57 55.81 175.14 52.91C174.61 49.34 173.77 45.82 172.86 42.33C172.71 41.76 172.56 41.19 172.4 40.62C173.52 43.04 174.66 45.46 175.71 47.91C176.88 50.62 177.97 53.36 179.03 56.12C179.62 57.64 180.18 59.17 180.74 60.7C179.59 61.55 178.21 62.16 176.79 62.28H176.8ZM181.15 60.39C181.15 60.39 181.12 60.41 181.1 60.43C179.12 54.93 176.83 49.53 174.38 44.22C174.02 43.43 173.64 42.65 173.27 41.87C173.99 42.97 174.77 44.03 175.58 45.05C177.58 47.61 179.72 50.08 181.28 52.94C182.14 54.51 182.81 56.18 183.12 57.95C182.65 58.89 181.96 59.72 181.15 60.4V60.39ZM183.57 56.81C183.53 56.96 183.47 57.11 183.42 57.26C182.74 54.35 181.19 51.73 179.42 49.34C177.49 46.73 175.28 44.33 173.48 41.62C173.03 40.95 172.63 40.24 172.25 39.53C172.22 39.23 172.21 38.92 172.25 38.62C172.3 38.51 172.35 38.39 172.42 38.29C172.5 38.18 172.59 38.07 172.69 37.98C173.42 38.29 174.18 38.56 174.86 38.94C176.26 39.72 177.47 40.81 178.49 42.03C180.74 44.74 182.05 48.13 183.1 51.46C183.64 53.17 184.07 55.04 183.56 56.82L183.57 56.81ZM187 54.52C186.11 54.63 185.23 54.57 184.34 54.57C184.32 54.2 184.28 53.83 184.21 53.47C184.04 52.5 183.74 51.56 183.43 50.63C183.13 49.73 182.81 48.83 182.46 47.95C181.77 46.21 180.96 44.51 179.9 42.97C178.96 41.59 177.82 40.33 176.47 39.33C175.8 38.83 175.09 38.4 174.33 38.05C173.98 37.89 173.63 37.75 173.28 37.61C173.87 37.36 174.55 37.36 175.18 37.36C175.41 37.44 175.64 37.53 175.87 37.63C177.34 38.29 178.64 39.24 179.79 40.36C180.99 41.53 182.01 42.86 182.98 44.22C184 45.66 184.99 47.13 185.98 48.58C187.18 50.33 188.36 52.09 189.56 53.84C189.56 53.84 189.57 53.85 189.58 53.86C188.75 54.18 187.87 54.41 186.99 54.52H187ZM193.61 51.13C192.6 52.24 191.34 53.11 189.96 53.7C189.96 53.65 189.96 53.61 189.92 53.56C188.83 51.97 187.73 50.39 186.64 48.79C185.6 47.26 184.57 45.72 183.51 44.21C181.62 41.52 179.44 38.84 176.4 37.4C176.35 37.37 176.29 37.35 176.23 37.33C176.59 37.33 176.95 37.33 177.31 37.32C178.99 37.97 180.56 38.88 182.06 39.88C184.97 41.82 187.83 43.95 190.24 46.49C191.56 47.87 192.71 49.39 193.7 51.02C193.67 51.06 193.64 51.09 193.61 51.13ZM193.3 40.64C193.69 41.48 194.05 42.33 194.36 43.21C194.69 44.13 195.01 45.07 195.2 46.03C195.39 47 195.42 47.96 195.06 48.9C194.78 49.62 194.35 50.26 193.85 50.85C192.35 47.74 189.81 45.21 187.16 43.06C185.76 41.92 184.3 40.86 182.82 39.85C181.77 39.13 180.69 38.45 179.57 37.86C182.43 38.6 185.27 39.46 188.21 39.69C189.71 39.8 191.21 39.74 192.68 39.42C192.89 39.83 193.1 40.24 193.3 40.66V40.64ZM191.97 38.14C192.14 38.42 192.29 38.71 192.45 38.99C187.91 39.98 183.44 38.41 179.01 37.31H179.05C179.46 37.31 179.95 37.34 180.33 37.18C180.35 37.18 180.36 37.16 180.37 37.14C182.95 37.33 185.52 37.34 188.06 36.58C188.61 36.42 189.13 36.21 189.63 35.97C189.7 36 189.76 36.01 189.84 36C189.88 36 189.93 35.99 189.97 35.99C189.98 35.99 190 35.99 190.01 35.99C190.03 35.99 190.05 35.99 190.07 35.99C190.11 35.99 190.16 36 190.2 36.01C190.22 36.01 190.24 36.02 190.27 36.03C190.27 36.03 190.28 36.03 190.29 36.03C190.33 36.05 190.36 36.06 190.4 36.08C190.42 36.09 190.44 36.11 190.46 36.12C190.5 36.15 190.53 36.18 190.56 36.21C190.61 36.26 190.69 36.27 190.76 36.25C190.9 36.46 191.05 36.68 191.19 36.89C191.46 37.29 191.71 37.7 191.96 38.11L191.97 38.14ZM210.39 48.82C208.07 47.03 207.04 44.16 205.63 41.69C205.01 40.61 204.31 39.52 203.39 38.66C203.86 38.87 204.31 39.1 204.76 39.35C206.33 40.61 207.69 42.11 209.02 43.62C210.67 45.49 212.37 47.38 214.53 48.68C215.37 49.19 216.27 49.59 217.22 49.84C217.52 50.01 217.83 50.17 218.15 50.3C215.46 50.48 212.63 50.53 210.39 48.8V48.82ZM206.23 40.3C207.03 40.86 207.79 41.47 208.52 42.14C210.14 43.63 211.59 45.28 213.2 46.79C213.9 47.45 214.63 48.08 215.41 48.66C214.17 48.03 213.04 47.18 212 46.26C210.11 44.58 208.57 42.56 206.76 40.8C206.59 40.63 206.41 40.47 206.23 40.31V40.3ZM205.14 38.27C206.8 38.66 208.44 39.19 209.97 39.96C211.34 40.66 212.63 41.56 213.69 42.68C214.2 43.22 214.66 43.81 215.04 44.44C215.49 45.19 215.81 46.01 216.15 46.81C216.52 47.7 216.97 48.65 217.59 49.43C217.2 49.21 216.81 48.99 216.44 48.74C215.56 48.14 214.74 47.46 213.95 46.75C212.32 45.27 210.84 43.63 209.23 42.12C207.64 40.64 205.92 39.33 203.95 38.4C203.4 38.14 202.84 37.91 202.27 37.7C203.23 37.87 204.19 38.05 205.14 38.27ZM226.38 30.43C228.63 30.58 230.86 30.97 233.03 31.61C233.85 31.85 234.66 32.13 235.47 32.4C234.43 32.26 233.39 32.13 232.35 32.03C228.52 31.63 224.66 31.46 220.81 31.52C218.86 31.55 216.91 31.64 214.97 31.82C218.63 30.64 222.56 30.19 226.38 30.44V30.43ZM214.24 32.05C214.24 32.05 214.29 32.09 214.33 32.09C218.17 31.84 222.01 31.73 225.86 31.88C229.68 32.03 233.49 32.41 237.26 33.05C237.45 33.08 237.63 33.12 237.81 33.15C238.45 33.34 239.1 33.51 239.75 33.65C240.45 33.8 241.16 33.9 241.88 33.95C241.91 33.95 241.94 33.96 241.97 33.97C242.19 34.02 242.42 34.07 242.64 34.12C240.97 34.4 239.28 34.55 237.58 34.58C233.82 34.65 230.07 34.19 226.35 33.64C222.47 33.07 218.59 32.42 214.67 32.18C214.42 32.16 214.17 32.16 213.92 32.15C214.02 32.11 214.13 32.08 214.23 32.04L214.24 32.05ZM239.84 35.03C239.27 35.16 238.7 35.28 238.13 35.39C236.14 35.77 234.11 36.1 232.08 36.21C230.03 36.32 227.99 36.21 225.96 35.89C224 35.58 222.08 35.07 220.19 34.47C218.74 34.01 217.32 33.47 215.89 32.95C215.81 32.9 215.73 32.85 215.65 32.8C218.88 33.06 222.08 33.56 225.28 34.04C229.01 34.6 232.76 35.12 236.55 35.14C237.64 35.14 238.74 35.11 239.84 35.02V35.03ZM233.38 39.63C230.84 40.43 228.08 40.74 225.47 40.1C222.91 39.47 220.87 37.81 218.89 36.15C217.8 35.23 216.69 34.31 215.47 33.56C214.95 33.24 214.39 32.93 213.8 32.68C213.89 32.68 213.98 32.69 214.08 32.7C214.98 32.83 215.74 33.39 216.48 33.9C217.31 34.48 218.17 35.01 219.07 35.49C220.9 36.47 222.84 37.21 224.85 37.72C228.93 38.74 233.25 38.71 237.31 37.6C238 37.41 238.68 37.19 239.35 36.95C237.43 38 235.47 38.97 233.38 39.63ZM241.79 35.59C238.63 37.08 235.21 37.97 231.7 38.08C227.56 38.21 223.4 37.25 219.71 35.36C218.77 34.87 217.85 34.32 216.98 33.72C217.78 34.02 218.59 34.3 219.41 34.57C221.29 35.2 223.2 35.74 225.15 36.09C229.17 36.82 233.31 36.58 237.33 35.91C238.49 35.72 239.64 35.49 240.79 35.25C241.67 35.06 242.56 34.88 243.44 34.67C242.89 34.97 242.34 35.28 241.8 35.59H241.79Z" fill="#E1D7C6"/>
</g>
<defs>
<clipPath id="clip0_43_11">
<rect width="248.64" height="74.53" fill="white"/>
</clipPath>
</defs>
</svg>
