<svg width="39" height="96" viewBox="0 0 39 96" fill="none" xmlns="http://www.w3.org/2000/svg">
<g clip-path="url(#clip0_12_19)">
<path d="M0.413707 43.101C4.3519 43.5309 8.21848 44.6177 11.8225 46.3129C15.4106 48 18.7362 50.2548 21.6163 53.0125C22.1573 53.5315 22.6824 54.075 23.1916 54.6265C21.6958 51.5849 20.3115 48.4866 19.1579 45.299C19.0783 45.299 18.9988 45.2585 18.9749 45.153C18.9192 44.8935 18.8794 44.6421 18.8317 44.3825C18.243 42.6711 17.7179 40.9354 17.2882 39.1753C16.9382 37.7397 16.6597 36.2798 16.4529 34.8117C12.634 31.5106 9.61873 27.22 7.51836 22.6049C6.8978 21.2423 6.35679 19.8391 5.89535 18.4035C5.79988 18.1034 6.13402 17.7789 6.40453 18.006C10.3905 21.3801 13.5967 25.6059 15.7687 30.3994C15.888 30.659 15.9994 30.9185 16.1028 31.1781C16.071 30.5049 16.0551 29.8317 16.063 29.1585C16.0949 25.8573 16.6279 22.613 17.5906 19.466C19.5239 13.1801 23.0165 7.5106 26.6603 2.12499C27.1218 1.43557 27.6151 0.762372 28.0845 0.0810608C28.2277 -0.129821 28.522 0.113504 28.3947 0.324386C24.918 5.87221 21.2901 11.4687 19.0624 17.6816C17.9565 20.7637 17.2246 23.9756 17.0098 27.2605C16.795 30.6184 17.1212 34.0006 17.8054 37.2936C18.0202 38.3237 18.2668 39.3376 18.5453 40.3433C18.5453 39.9378 18.5453 39.5322 18.5453 39.1267C18.5692 37.0828 18.7362 35.0388 19.0465 33.0192C19.6591 29.0125 20.7968 25.0706 22.4437 21.3801C23.3745 19.3038 24.4565 17.2923 25.6897 15.3862C25.8647 15.1186 26.3262 15.2565 26.3421 15.5728C26.8831 23.2781 26.4455 31.3808 22.7222 38.2832C21.7913 40.0108 20.6775 41.6248 19.3647 43.0686C20.8764 47.6593 22.937 52.0797 25.1248 56.3622C25.4033 56.9057 25.6818 57.441 25.9602 57.9844C25.992 58.025 26.0239 58.0736 26.0557 58.1142C26.1034 58.1872 26.1273 58.2602 26.1353 58.3251C26.4296 58.8928 26.724 59.4525 27.0263 60.0121C26.1114 54.0912 26.533 47.9594 28.2117 42.225C28.7766 40.3028 29.4847 38.4292 30.3201 36.6042C30.4474 36.3284 30.8929 36.369 30.9168 36.6934C31.4737 43.3524 30.9963 50.0925 29.5006 56.5974C29.1267 58.2277 28.6812 59.8418 28.1401 61.4234C28.2197 61.8127 28.3072 62.202 28.3947 62.5914C30.4474 66.4602 32.492 70.3372 34.2423 74.3683C36.828 80.3217 38.9523 86.786 39 93.3477C39 94.1507 38.9761 94.9293 38.8807 95.7242C38.8329 96.0892 38.2521 96.0973 38.2283 95.7242C38.0373 92.3987 37.8146 89.1301 37.0906 85.8695C36.3586 82.6008 35.2766 79.4214 34.0116 76.3311C32.1897 71.8864 29.9859 67.6282 27.7423 63.3943C27.7264 63.3781 27.7185 63.3538 27.7105 63.3376C26.8592 61.7316 26.008 60.1257 25.1646 58.5116C23.4859 57.9682 21.839 57.368 20.216 56.6786C18.4339 55.9161 16.6916 55.0726 14.981 54.1642C11.5759 52.3636 8.31395 50.2791 5.21909 47.9675C3.46879 46.6536 1.76622 45.2585 0.13525 43.7904C-0.143208 43.539 0.0397762 43.0767 0.421661 43.1172L0.413707 43.101Z" fill="#E1D7C6"/>
</g>
<defs>
<clipPath id="clip0_12_19">
<rect width="39" height="96" fill="white" transform="matrix(-1 0 0 1 39 0)"/>
</clipPath>
</defs>
</svg>
