<svg width="105" height="84" viewBox="0 0 105 84" fill="none" xmlns="http://www.w3.org/2000/svg">
<g clip-path="url(#clip0_29_2)">
<path d="M66.2849 56.8913C63.8821 53.5976 60.9416 50.6994 57.6044 48.3423C54.2824 45.9954 50.5991 44.1691 46.7054 42.9939C45.973 42.7737 45.2276 42.5799 44.4832 42.4045C47.9127 42.2023 51.3345 41.8721 54.7155 41.2913C54.7565 41.3622 54.8329 41.4127 54.9374 41.3807C55.193 41.2993 55.4333 41.2078 55.6849 41.1194C57.4844 40.7802 59.2724 40.372 61.0326 39.8664C62.4681 39.4537 63.888 38.9649 65.2782 38.4081C70.1303 40.1459 75.4341 40.6678 80.5507 40.2102C82.0616 40.0755 83.5671 39.8494 85.0599 39.536C85.3715 39.4696 85.4832 39.0079 85.1454 38.8814C80.1435 37.0316 74.7981 36.3067 69.4886 36.7905C69.2003 36.8152 68.916 36.8469 68.6358 36.8857C69.2408 36.5742 69.8377 36.2486 70.4223 35.9016C73.2925 34.2066 75.8551 32.0935 78.1115 29.6466C82.613 24.7497 85.773 18.7738 88.6069 12.8066C88.9723 12.0472 89.3071 11.2676 89.6612 10.5052C89.7719 10.271 89.4077 10.1315 89.2888 10.3514C86.227 16.2516 83.2005 22.3112 78.9143 27.4336C76.7883 29.9755 74.3565 32.2495 71.5946 34.0994C68.7689 35.9862 65.6435 37.4029 62.4118 38.4554C61.4006 38.784 60.3871 39.076 59.3643 39.3355C59.7189 39.1307 60.0735 38.926 60.4281 38.7213C62.2031 37.6681 63.9044 36.4873 65.5107 35.1911C68.6991 32.6221 71.5604 29.6178 73.9398 26.2866C75.2764 24.4085 76.4784 22.4284 77.5104 20.3668C77.6544 20.0757 77.2963 19.7339 77.0115 19.8795C69.9953 23.2872 63.1353 27.768 59.016 34.5719C57.9844 36.2739 57.1463 38.0817 56.5595 39.9808C51.7672 40.9509 46.8413 41.3456 41.9704 41.5573C41.3519 41.5834 40.7405 41.6054 40.122 41.6315C40.0702 41.6237 40.0112 41.6199 39.9594 41.612C39.871 41.6063 39.7949 41.6218 39.734 41.6475C39.0861 41.6717 38.4452 41.6918 37.8002 41.7049C43.4486 39.5313 48.5934 36.0597 52.7437 31.6682C54.1339 30.1942 55.4078 28.6171 56.5736 26.9511C56.7492 26.6984 56.4844 26.3217 56.1885 26.4642C50.079 29.3295 44.4309 33.1578 39.5126 37.7752C38.2795 38.9316 37.0974 40.1437 35.9929 41.4244C35.6115 41.5501 35.226 41.6686 34.8405 41.7871C30.401 41.9105 25.9585 42.0451 21.5327 42.5199C14.9961 43.2204 8.25015 44.5903 2.48784 47.8604C1.7857 48.2658 1.11711 48.6802 0.471195 49.1666C0.176607 49.3934 0.468434 49.9152 0.806968 49.7481C3.81312 48.2395 6.786 46.7879 10.0098 45.7872C13.2447 44.7895 16.5818 44.1489 19.9351 43.7165C24.7594 43.0967 29.6172 42.9115 34.4742 42.7741C34.4965 42.7801 34.5219 42.7749 34.5402 42.7738C36.3826 42.7219 38.2251 42.67 40.0705 42.6069C41.4097 43.8291 42.7821 44.9942 44.2203 46.093C45.8042 47.2968 47.4386 48.4241 49.1133 49.4904C52.4404 51.6169 55.942 53.4724 59.5562 55.0643C61.606 55.9613 63.7022 56.7748 65.8254 57.4876C66.1886 57.6088 66.4986 57.2123 66.2666 56.8924L66.2849 56.8913Z" fill="white"/>
</g>
<defs>
<clipPath id="clip0_29_2">
<rect width="40.1453" height="96.9319" fill="white" transform="translate(84.1141 0.73349) rotate(60)"/>
</clipPath>
</defs>
</svg>
