<svg width="65" height="90" viewBox="0 0 65 90" fill="none" xmlns="http://www.w3.org/2000/svg">
<g clip-path="url(#clip0_1_102)">
<path d="M62.1519 69.8291C60.2387 63.3175 57.4027 57.084 53.767 51.3571C50.5004 46.2232 46.5755 41.5094 42.1032 37.395C42.2077 37.3332 42.2754 37.2096 42.2077 37.0675C42.1585 36.9625 42.1155 36.8636 42.0724 36.7586C42.4661 34.3431 42.5276 31.8534 42.3554 29.4193C42.1647 26.7751 41.6725 24.1495 40.8912 21.6227C40.4422 20.1833 39.907 18.7747 39.2672 17.4094C39.1749 17.2117 38.8735 17.2487 38.8427 17.4711C38.1229 22.7038 38.529 28.0539 40.0977 33.1013C40.4668 34.2936 40.9097 35.4613 41.408 36.6104C41.2357 36.4991 41.0573 36.3941 40.8851 36.2891C40.9528 36.0976 40.8359 35.8443 40.5837 35.8937C40.5406 35.8999 40.4914 35.9122 40.4483 35.9184C38.1845 33.9724 35.7852 32.2055 33.343 30.5004C33.3983 27.8686 33.1461 25.2244 32.7216 22.6359C32.291 20.035 31.6574 17.465 30.833 14.9567C30.3594 13.5173 29.8118 12.1025 29.209 10.7125C29.1413 10.5519 28.8399 10.5642 28.846 10.7619C28.8891 16.2108 28.9075 21.7772 30.913 26.9295C31.2883 27.8995 31.7374 28.8385 32.2541 29.7405C29.4181 27.7945 26.5391 25.9164 23.74 23.9209C23.74 23.9209 23.7339 23.9085 23.7277 23.9085C23.2971 23.5502 22.8295 23.2228 22.3497 22.9201C22.0852 22.7224 21.8206 22.5309 21.5561 22.3332C20.9225 21.8575 20.2888 21.3632 19.6675 20.8628C19.6306 20.7825 19.5875 20.7022 19.5506 20.6219C19.5998 20.591 19.6368 20.5416 19.6491 20.4798C19.7844 19.794 19.7905 19.0898 19.8152 18.3978C19.8398 17.7306 19.8582 17.0572 19.8644 16.39C19.8767 15.0309 19.8398 13.6655 19.7475 12.3126C19.5629 9.64372 19.1385 6.99956 18.4002 4.42337C17.9758 2.94685 17.4406 1.50739 16.7885 0.117357C16.6962 -0.074159 16.444 -0.0185576 16.4009 0.172958C15.1521 5.65278 15.552 11.4786 17.4529 16.7607C17.9019 18.0148 18.4433 19.2319 19.0892 20.3933C14.4323 16.563 10.2245 12.0346 7.79452 6.45591C7.44387 5.65278 7.14243 4.83729 6.87175 4.00945C6.79178 3.76233 6.42267 3.92296 6.50264 4.17007C8.64347 10.8052 13.3804 16.1985 18.6586 20.5725C19.12 20.9555 19.5875 21.3262 20.0612 21.6968C19.932 21.6351 19.7967 21.5733 19.6675 21.5177C18.2157 20.869 16.7085 20.3624 15.1705 19.967C12.0639 19.1763 8.84648 18.8674 5.64754 18.8735C3.83276 18.8735 2.02413 18.9786 0.221646 19.1639C-0.0797922 19.1948 -0.0367296 19.6149 0.227798 19.6705C5.80749 20.8752 11.3933 22.0737 17.0468 22.8954C18.6463 23.1239 20.2458 23.3278 21.8514 23.4884C21.999 23.5008 22.0913 23.4081 22.1221 23.2969C22.2021 23.3402 22.282 23.3834 22.362 23.4267C25.7578 25.9164 29.3074 28.1898 32.777 30.5869C32.8201 30.6487 32.857 30.7166 32.9 30.7784C32.98 30.8958 33.0908 30.9081 33.1892 30.8711C34.7456 31.9522 36.2835 33.0642 37.7846 34.238C38.2829 34.6272 38.775 35.035 39.2672 35.4427C38.6643 35.1647 38.0491 34.9052 37.4216 34.6828C35.816 34.1083 34.155 33.682 32.4694 33.3855C28.8891 32.7553 25.2287 32.7183 21.6176 32.9839C19.5014 33.1384 17.3913 33.404 15.2874 33.7129C15.029 33.75 14.9675 34.1392 15.2259 34.2319C18.3756 35.4304 21.6545 36.2953 24.9827 36.7957C28.2985 37.2899 31.6697 37.4258 35.0163 37.2096C36.8557 37.0861 38.695 36.8513 40.5098 36.5053C44.7669 40.2121 48.5564 44.4501 51.7922 49.0836C55.674 54.6561 58.7561 60.7846 60.9338 67.222C63.1054 73.6532 64.3665 80.4057 64.588 87.1952C64.6188 88.0539 64.6249 88.9127 64.6249 89.7714C64.6249 90.0309 65.0248 90.0803 65.0248 89.8208C65.0617 83.056 64.0836 76.3097 62.1765 69.8229L62.1519 69.8291Z" fill="#FFCA61"/>
</g>
<defs>
<clipPath id="clip0_1_102">
<rect width="65" height="90" fill="white"/>
</clipPath>
</defs>
</svg>
