<svg xmlns="http://www.w3.org/2000/svg" xmlns:xlink="http://www.w3.org/1999/xlink" width="500" zoomAndPan="magnify" viewBox="0 0 375 374.999991" height="500" preserveAspectRatio="xMidYMid meet" version="1.0"><path fill="#ffbd59" d="M 347.265625 238.507812 C 320.285156 265.492188 276.960938 266.027344 249.238281 240.265625 L 249.144531 240.359375 L 234.042969 225.261719 C 249.132812 232.171875 267.546875 229.445312 279.972656 217.019531 C 295.953125 201.039062 295.953125 175.128906 279.972656 159.148438 C 267.964844 147.144531 250.375 144.195312 235.589844 150.238281 L 249.144531 136.683594 L 249.238281 136.777344 C 276.960938 111.015625 320.285156 111.554688 347.265625 138.535156 C 374.875 166.140625 374.875 210.902344 347.265625 238.507812 Z M 135.183594 126.398438 L 150.035156 141.253906 C 143.125 126.164062 145.851562 107.753906 158.277344 95.324219 C 174.257812 79.34375 200.167969 79.34375 216.148438 95.324219 C 228.378906 107.554688 231.21875 125.585938 224.71875 140.539062 L 238.859375 126.398438 L 238.765625 126.304688 C 264.527344 98.582031 263.988281 55.257812 237.007812 28.273438 C 209.402344 0.667969 164.640625 0.667969 137.035156 28.277344 C 110.050781 55.257812 109.515625 98.582031 135.273438 126.304688 Z M 125.8125 238.285156 L 139.367188 224.726562 C 124.578125 230.773438 106.988281 227.824219 94.984375 215.816406 C 79.003906 199.835938 79.003906 173.925781 94.984375 157.945312 C 107.410156 145.519531 125.820312 142.796875 140.910156 149.707031 L 125.8125 134.605469 L 125.71875 134.699219 C 97.992188 108.9375 54.671875 109.476562 27.6875 136.457031 C 0.0820312 164.066406 0.0820312 208.824219 27.6875 236.433594 C 54.667969 263.414062 97.992188 263.949219 125.71875 238.191406 Z M 239.773438 248.570312 L 224.917969 233.714844 C 231.828125 248.804688 229.105469 267.214844 216.675781 279.640625 C 200.695312 295.621094 174.789062 295.621094 158.808594 279.640625 C 146.578125 267.410156 143.734375 249.378906 150.238281 234.425781 L 136.097656 248.570312 L 136.1875 248.660156 C 110.429688 276.386719 110.964844 319.710938 137.949219 346.691406 C 165.554688 374.296875 210.3125 374.296875 237.921875 346.691406 C 264.902344 319.710938 265.441406 276.386719 239.679688 248.660156 Z M 239.773438 248.570312 " fill-opacity="1" fill-rule="nonzero"/></svg>