<svg xmlns="http://www.w3.org/2000/svg" xmlns:xlink="http://www.w3.org/1999/xlink" width="500" zoomAndPan="magnify" viewBox="0 0 375 374.999991" height="500" preserveAspectRatio="xMidYMid meet" version="1.0"><defs><g/></defs><g fill="#212224" fill-opacity="1"><g transform="translate(63.761836, 208.774409)"><g><path d="M 9.890625 0 C 8.492188 0 7.3125 -0.476562 6.34375 -1.4375 C 5.382812 -2.40625 4.90625 -3.585938 4.90625 -4.984375 L 4.90625 -54.46875 C 4.90625 -55.90625 5.382812 -57.09375 6.34375 -58.03125 C 7.3125 -58.976562 8.492188 -59.453125 9.890625 -59.453125 L 39.984375 -59.453125 C 41.421875 -59.453125 42.609375 -58.957031 43.546875 -57.96875 C 44.484375 -56.976562 44.953125 -55.785156 44.953125 -54.390625 L 44.953125 -18.359375 C 44.953125 -16.972656 45.421875 -15.804688 46.359375 -14.859375 C 47.304688 -13.921875 48.453125 -13.453125 49.796875 -13.453125 C 51.179688 -13.453125 52.34375 -13.921875 53.28125 -14.859375 C 54.21875 -15.804688 54.6875 -16.972656 54.6875 -18.359375 L 54.6875 -54.46875 C 54.6875 -55.90625 55.171875 -57.09375 56.140625 -58.03125 C 57.109375 -58.976562 58.285156 -59.453125 59.671875 -59.453125 L 65.984375 -59.453125 C 67.421875 -59.453125 68.609375 -58.976562 69.546875 -58.03125 C 70.492188 -57.09375 70.96875 -55.90625 70.96875 -54.46875 L 70.96875 -4.984375 C 70.96875 -3.585938 70.492188 -2.40625 69.546875 -1.4375 C 68.609375 -0.476562 67.421875 0 65.984375 0 L 35.890625 0 C 34.503906 0 33.328125 -0.492188 32.359375 -1.484375 C 31.390625 -2.472656 30.90625 -3.660156 30.90625 -5.046875 L 30.90625 -41.171875 C 30.90625 -42.503906 30.4375 -43.640625 29.5 -44.578125 C 28.5625 -45.523438 27.398438 -46 26.015625 -46 C 24.671875 -46 23.523438 -45.523438 22.578125 -44.578125 C 21.640625 -43.640625 21.171875 -42.503906 21.171875 -41.171875 L 21.171875 -4.984375 C 21.171875 -3.585938 20.703125 -2.40625 19.765625 -1.4375 C 18.828125 -0.476562 17.640625 0 16.203125 0 Z M 9.890625 0 "/></g></g></g><g fill="#212224" fill-opacity="1"><g transform="translate(141.714956, 208.774409)"><g/></g></g><g fill="#212224" fill-opacity="1"><g transform="translate(172.181867, 208.774409)"><g/></g></g><g fill="#212224" fill-opacity="1"><g transform="translate(202.648779, 208.774409)"><g/></g></g><g fill="#212224" fill-opacity="1"><g transform="translate(233.1212, 208.774409)"><g><path d="M 9.890625 0 C 8.492188 0 7.3125 -0.476562 6.34375 -1.4375 C 5.382812 -2.40625 4.90625 -3.585938 4.90625 -4.984375 L 4.90625 -54.46875 C 4.90625 -55.90625 5.382812 -57.09375 6.34375 -58.03125 C 7.3125 -58.976562 8.492188 -59.453125 9.890625 -59.453125 L 16.203125 -59.453125 C 17.640625 -59.453125 18.828125 -58.976562 19.765625 -58.03125 C 20.703125 -57.09375 21.171875 -55.90625 21.171875 -54.46875 L 21.171875 -21.703125 C 21.171875 -20.316406 21.640625 -19.148438 22.578125 -18.203125 C 23.523438 -17.265625 24.671875 -16.796875 26.015625 -16.796875 C 27.398438 -16.796875 28.5625 -17.265625 29.5 -18.203125 C 30.4375 -19.148438 30.90625 -20.316406 30.90625 -21.703125 L 30.90625 -54.390625 C 30.90625 -55.828125 31.375 -57.03125 32.3125 -58 C 33.257812 -58.96875 34.453125 -59.453125 35.890625 -59.453125 L 42.203125 -59.453125 C 43.640625 -59.453125 44.828125 -58.96875 45.765625 -58 C 46.710938 -57.03125 47.1875 -55.828125 47.1875 -54.390625 L 47.1875 -21.703125 C 47.1875 -20.316406 47.65625 -19.148438 48.59375 -18.203125 C 49.539062 -17.265625 50.679688 -16.796875 52.015625 -16.796875 C 53.398438 -16.796875 54.5625 -17.265625 55.5 -18.203125 C 56.445312 -19.148438 56.921875 -20.316406 56.921875 -21.703125 L 56.921875 -54.46875 C 56.921875 -55.90625 57.40625 -57.09375 58.375 -58.03125 C 59.34375 -58.976562 60.519531 -59.453125 61.90625 -59.453125 L 68.21875 -59.453125 C 69.65625 -59.453125 70.84375 -58.976562 71.78125 -58.03125 C 72.726562 -57.09375 73.203125 -55.90625 73.203125 -54.46875 L 73.203125 -4.984375 C 73.203125 -3.585938 72.726562 -2.40625 71.78125 -1.4375 C 70.84375 -0.476562 69.65625 0 68.21875 0 L 48.890625 0 C 47.503906 0 46.328125 -0.476562 45.359375 -1.4375 C 44.398438 -2.40625 43.921875 -3.585938 43.921875 -4.984375 L 43.921875 -6.6875 C 43.921875 -8.019531 43.445312 -9.171875 42.5 -10.140625 C 41.5625 -11.109375 40.398438 -11.59375 39.015625 -11.59375 C 37.671875 -11.59375 36.53125 -11.117188 35.59375 -10.171875 C 34.65625 -9.234375 34.1875 -8.070312 34.1875 -6.6875 L 34.1875 -4.984375 C 34.1875 -3.585938 33.710938 -2.40625 32.765625 -1.4375 C 31.828125 -0.476562 30.640625 0 29.203125 0 Z M 9.890625 0 "/></g></g></g><g fill="#292827" fill-opacity="1"><g transform="translate(135.547195, 242.013661)"><g><path d="M 0.875 0 L 0.875 -7.34375 L 3.796875 -7.34375 C 4.566406 -7.34375 5.242188 -7.1875 5.828125 -6.875 C 6.410156 -6.570312 6.863281 -6.144531 7.1875 -5.59375 C 7.507812 -5.039062 7.671875 -4.398438 7.671875 -3.671875 C 7.671875 -2.941406 7.507812 -2.300781 7.1875 -1.75 C 6.863281 -1.195312 6.410156 -0.765625 5.828125 -0.453125 C 5.242188 -0.148438 4.566406 0 3.796875 0 Z M 2.546875 -1.53125 L 3.765625 -1.53125 C 4.191406 -1.53125 4.566406 -1.617188 4.890625 -1.796875 C 5.222656 -1.972656 5.484375 -2.222656 5.671875 -2.546875 C 5.859375 -2.867188 5.953125 -3.242188 5.953125 -3.671875 C 5.953125 -4.109375 5.859375 -4.484375 5.671875 -4.796875 C 5.484375 -5.117188 5.222656 -5.367188 4.890625 -5.546875 C 4.566406 -5.722656 4.179688 -5.8125 3.734375 -5.8125 L 2.546875 -5.8125 Z M 2.546875 -1.53125 "/></g></g></g><g fill="#292827" fill-opacity="1"><g transform="translate(143.644187, 242.013661)"><g><path d="M 0.875 0 L 0.875 -7.34375 L 2.546875 -7.34375 L 2.546875 0 Z M 0.875 0 "/></g></g></g><g fill="#292827" fill-opacity="1"><g transform="translate(147.073867, 242.013661)"><g><path d="M 4.3125 0.140625 C 3.5625 0.140625 2.894531 -0.0195312 2.3125 -0.34375 C 1.726562 -0.664062 1.269531 -1.113281 0.9375 -1.6875 C 0.613281 -2.257812 0.453125 -2.921875 0.453125 -3.671875 C 0.453125 -4.421875 0.613281 -5.082031 0.9375 -5.65625 C 1.257812 -6.226562 1.707031 -6.675781 2.28125 -7 C 2.863281 -7.332031 3.53125 -7.5 4.28125 -7.5 C 4.875 -7.5 5.421875 -7.390625 5.921875 -7.171875 C 6.421875 -6.960938 6.847656 -6.664062 7.203125 -6.28125 C 7.554688 -5.90625 7.804688 -5.460938 7.953125 -4.953125 L 6.15625 -4.953125 C 5.988281 -5.265625 5.738281 -5.507812 5.40625 -5.6875 C 5.082031 -5.875 4.71875 -5.96875 4.3125 -5.96875 C 3.882812 -5.96875 3.503906 -5.867188 3.171875 -5.671875 C 2.835938 -5.472656 2.578125 -5.203125 2.390625 -4.859375 C 2.210938 -4.515625 2.125 -4.117188 2.125 -3.671875 C 2.125 -3.234375 2.210938 -2.84375 2.390625 -2.5 C 2.578125 -2.15625 2.832031 -1.882812 3.15625 -1.6875 C 3.488281 -1.488281 3.878906 -1.390625 4.328125 -1.390625 C 4.867188 -1.390625 5.316406 -1.523438 5.671875 -1.796875 C 6.023438 -2.066406 6.253906 -2.425781 6.359375 -2.875 L 3.984375 -2.875 L 3.984375 -4.171875 L 8.125 -4.171875 C 8.164062 -3.535156 8.101562 -2.957031 7.9375 -2.4375 C 7.78125 -1.914062 7.53125 -1.457031 7.1875 -1.0625 C 6.84375 -0.675781 6.425781 -0.378906 5.9375 -0.171875 C 5.457031 0.0351562 4.914062 0.140625 4.3125 0.140625 Z M 4.3125 0.140625 "/></g></g></g><g fill="#292827" fill-opacity="1"><g transform="translate(155.632342, 242.013661)"><g><path d="M 0.875 0 L 0.875 -7.34375 L 2.546875 -7.34375 L 2.546875 0 Z M 0.875 0 "/></g></g></g><g fill="#292827" fill-opacity="1"><g transform="translate(159.062021, 242.013661)"><g><path d="M 2.640625 0 L 2.640625 -5.78125 L 0.3125 -5.78125 L 0.3125 -7.34375 L 6.640625 -7.34375 L 6.640625 -5.78125 L 4.3125 -5.78125 L 4.3125 0 Z M 2.640625 0 "/></g></g></g><g fill="#292827" fill-opacity="1"><g transform="translate(166.015783, 242.013661)"><g><path d="M 0.09375 0 L 3.015625 -7.34375 L 4.65625 -7.34375 L 7.578125 0 L 5.78125 0 L 5.296875 -1.265625 L 2.375 -1.265625 L 1.875 0 Z M 2.796875 -2.578125 L 4.875 -2.578125 L 3.828125 -5.265625 Z M 2.796875 -2.578125 "/></g></g></g><g fill="#292827" fill-opacity="1"><g transform="translate(173.672269, 242.013661)"><g><path d="M 0.875 0 L 0.875 -7.34375 L 2.546875 -7.34375 L 2.546875 -1.5625 L 5.765625 -1.5625 L 5.765625 0 Z M 0.875 0 "/></g></g></g><g fill="#292827" fill-opacity="1"><g transform="translate(179.713547, 242.013661)"><g/></g></g><g fill="#292827" fill-opacity="1"><g transform="translate(182.178307, 242.013661)"><g><path d="M 0.875 0 L 0.875 -7.34375 L 2.546875 -7.34375 L 2.546875 0 Z M 0.875 0 "/></g></g></g><g fill="#292827" fill-opacity="1"><g transform="translate(185.607987, 242.013661)"><g><path d="M 0.875 0 L 0.875 -7.34375 L 2.296875 -7.34375 L 5.546875 -2.875 L 5.546875 -7.34375 L 7.203125 -7.34375 L 7.203125 0 L 5.78125 0 L 2.546875 -4.5 L 2.546875 0 Z M 0.875 0 "/></g></g></g><g fill="#292827" fill-opacity="1"><g transform="translate(193.684002, 242.013661)"><g><path d="M 2.921875 0 L 0.09375 -7.34375 L 1.890625 -7.34375 L 2.859375 -4.734375 L 3.75 -2.40625 L 5.59375 -7.34375 L 7.375 -7.34375 L 4.5625 0 Z M 2.921875 0 "/></g></g></g><g fill="#292827" fill-opacity="1"><g transform="translate(201.151694, 242.013661)"><g><path d="M 0.875 0 L 0.875 -7.34375 L 2.546875 -7.34375 L 2.546875 0 Z M 0.875 0 "/></g></g></g><g fill="#292827" fill-opacity="1"><g transform="translate(204.581374, 242.013661)"><g><path d="M 2.640625 0 L 2.640625 -5.78125 L 0.3125 -5.78125 L 0.3125 -7.34375 L 6.640625 -7.34375 L 6.640625 -5.78125 L 4.3125 -5.78125 L 4.3125 0 Z M 2.640625 0 "/></g></g></g><g fill="#292827" fill-opacity="1"><g transform="translate(211.535136, 242.013661)"><g><path d="M 0.09375 0 L 3.015625 -7.34375 L 4.65625 -7.34375 L 7.578125 0 L 5.78125 0 L 5.296875 -1.265625 L 2.375 -1.265625 L 1.875 0 Z M 2.796875 -2.578125 L 4.875 -2.578125 L 3.828125 -5.265625 Z M 2.796875 -2.578125 "/></g></g></g><g fill="#292827" fill-opacity="1"><g transform="translate(219.191622, 242.013661)"><g><path d="M 0.875 0 L 0.875 -7.34375 L 2.546875 -7.34375 L 2.546875 0 Z M 0.875 0 "/></g></g></g><g fill="#292827" fill-opacity="1"><g transform="translate(222.621301, 242.013661)"><g><path d="M 4.375 0.140625 C 3.601562 0.140625 2.921875 -0.0195312 2.328125 -0.34375 C 1.742188 -0.664062 1.285156 -1.113281 0.953125 -1.6875 C 0.617188 -2.257812 0.453125 -2.921875 0.453125 -3.671875 C 0.453125 -4.421875 0.617188 -5.082031 0.953125 -5.65625 C 1.285156 -6.226562 1.742188 -6.675781 2.328125 -7 C 2.921875 -7.332031 3.601562 -7.5 4.375 -7.5 C 5.132812 -7.5 5.804688 -7.332031 6.390625 -7 C 6.984375 -6.675781 7.445312 -6.226562 7.78125 -5.65625 C 8.125 -5.082031 8.296875 -4.421875 8.296875 -3.671875 C 8.296875 -2.921875 8.125 -2.257812 7.78125 -1.6875 C 7.445312 -1.113281 6.984375 -0.664062 6.390625 -0.34375 C 5.804688 -0.0195312 5.132812 0.140625 4.375 0.140625 Z M 2.15625 -3.671875 C 2.15625 -3.234375 2.25 -2.84375 2.4375 -2.5 C 2.625 -2.164062 2.882812 -1.90625 3.21875 -1.71875 C 3.550781 -1.53125 3.9375 -1.4375 4.375 -1.4375 C 4.8125 -1.4375 5.195312 -1.53125 5.53125 -1.71875 C 5.863281 -1.90625 6.117188 -2.164062 6.296875 -2.5 C 6.484375 -2.84375 6.578125 -3.234375 6.578125 -3.671875 C 6.578125 -4.117188 6.484375 -4.507812 6.296875 -4.84375 C 6.117188 -5.175781 5.863281 -5.4375 5.53125 -5.625 C 5.195312 -5.8125 4.8125 -5.90625 4.375 -5.90625 C 3.9375 -5.90625 3.550781 -5.8125 3.21875 -5.625 C 2.882812 -5.4375 2.625 -5.175781 2.4375 -4.84375 C 2.25 -4.507812 2.15625 -4.117188 2.15625 -3.671875 Z M 2.15625 -3.671875 "/></g></g></g><g fill="#292827" fill-opacity="1"><g transform="translate(231.358075, 242.013661)"><g><path d="M 0.875 0 L 0.875 -7.34375 L 2.296875 -7.34375 L 5.546875 -2.875 L 5.546875 -7.34375 L 7.203125 -7.34375 L 7.203125 0 L 5.78125 0 L 2.546875 -4.5 L 2.546875 0 Z M 0.875 0 "/></g></g></g><path fill="#ffbd59" d="M 229.933594 193.070312 C 222.765625 200.238281 211.257812 200.378906 203.894531 193.539062 L 203.871094 193.5625 L 199.859375 189.550781 C 203.867188 191.386719 208.757812 190.664062 212.058594 187.363281 C 216.304688 183.117188 216.304688 176.234375 212.058594 171.992188 C 208.871094 168.800781 204.199219 168.019531 200.269531 169.625 L 203.871094 166.023438 L 203.894531 166.046875 C 211.257812 159.203125 222.765625 159.347656 229.933594 166.515625 C 237.269531 173.847656 237.269531 185.738281 229.933594 193.070312 Z M 173.597656 163.289062 L 177.542969 167.238281 C 175.710938 163.226562 176.433594 158.335938 179.734375 155.035156 C 183.980469 150.792969 190.859375 150.792969 195.105469 155.035156 C 198.355469 158.285156 199.109375 163.074219 197.382812 167.046875 L 201.136719 163.289062 L 201.113281 163.265625 C 207.957031 155.902344 207.8125 144.394531 200.648438 137.226562 C 193.3125 129.894531 181.425781 129.894531 174.089844 137.226562 C 166.921875 144.394531 166.78125 155.902344 173.625 163.265625 Z M 171.109375 193.011719 L 174.710938 189.410156 C 170.78125 191.015625 166.109375 190.230469 162.921875 187.042969 C 158.675781 182.796875 158.675781 175.914062 162.921875 171.671875 C 166.222656 168.371094 171.113281 167.644531 175.121094 169.480469 L 171.109375 165.472656 L 171.085938 165.496094 C 163.71875 158.652344 152.210938 158.796875 145.046875 165.960938 C 137.710938 173.296875 137.710938 185.183594 145.046875 192.519531 C 152.210938 199.6875 163.71875 199.828125 171.085938 192.984375 Z M 201.382812 195.742188 L 197.433594 191.796875 C 199.269531 195.804688 198.546875 200.695312 195.246094 203.996094 C 191 208.242188 184.121094 208.242188 179.875 203.996094 C 176.625 200.746094 175.871094 195.957031 177.597656 191.984375 L 173.839844 195.742188 L 173.867188 195.765625 C 167.023438 203.132812 167.167969 214.640625 174.332031 221.804688 C 181.667969 229.140625 193.554688 229.140625 200.890625 221.804688 C 208.054688 214.640625 208.199219 203.132812 201.355469 195.765625 Z M 201.382812 195.742188 " fill-opacity="1" fill-rule="nonzero"/></svg>