<?xml version="1.0" encoding="UTF-8"?>
<svg id="Layer_2" data-name="Layer 2" xmlns="http://www.w3.org/2000/svg" viewBox="0 0 153.81 58.75">
  <defs>
    <style>
      .cls-1 {
        fill: #ba9e69;
      }
    </style>
  </defs>
  <g id="OBJECTS">
    <path class="cls-1" d="M28.36,22.96c3.67,3.51,7.68,6.65,11.97,9.37,4.27,2.71,8.8,5.01,13.51,6.85,2.31,.9,4.67,1.69,7.06,2.36-3.7,.41-7.41,.69-11.13,.85-1.81-3.13-4.47-5.72-7.51-7.66-.3-.19-.6,.13-.48,.43,.68,1.71,1.65,3.31,2.85,4.71,.59,.68,1.23,1.31,1.92,1.89,.31,.25,.63,.49,.95,.72-2.27,.07-4.54,.09-6.82,.07,0,0,0,0,0-.01-.87-2.16-2.24-4.14-3.72-5.93-1.02-1.24-2.15-2.4-3.35-3.47-.07-.08-.15-.16-.22-.23-.04-.04-.09-.07-.13-.09-.43-.38-.88-.74-1.33-1.09-.27-.21-.62,.14-.47,.42,2.01,3.99,4.82,7.52,8.24,10.39-1.57-.03-3.14-.07-4.71-.14-2.01-.09-4.02-.23-6.02-.4-.96-1.51-2.41-2.71-3.89-3.69-1.57-1.03-3.29-1.83-5.08-2.37-1.78-.53-3.64-.81-5.49-.79-2.21,.02-4.39,.48-6.55,.93-2.1,.44-4.21,.88-6.36,.9-.06-.01-.11-.03-.17-.04-.08-.02-.16,0-.22,.04-.26,0-.52-.01-.78-.03-.2-.01-.35,.14-.37,.32-.07,.08-.08,.22,.06,.26,0,0,0,0,.01,0,0,0,0,0,0,.01,2.6,2.89,5.93,5.13,9.57,6.49,3.9,1.46,8.16,1.84,12.26,1.16,2.4-.4,4.71-1.17,6.89-2.24,.1-.05,.15-.12,.18-.21,.68,.06,1.37,.12,2.05,.17,.52,.04,1.05,.06,1.58,.09-.1,.09-.2,.17-.3,.26-.08,.02-.16,.05-.24,.08-.09-.04-.2-.04-.32,.03-.1,.06-.21,.12-.31,.18-1.31,.45-2.59,1.01-3.81,1.65-2.16,1.12-4.19,2.49-6.04,4.08-.25,.21-.04,.7,.3,.6,4.2-1.26,8.14-3.4,11.4-6.35,.38-.14,.77-.27,1.15-.4,4.52,.23,9.05,.29,13.57,.15-2.16,.59-4.31,1.19-6.46,1.79-2.18,.6-4.36,1.19-6.5,1.94-3.78,1.32-7.44,3.17-10.19,6.15-1.37,1.49-2.46,3.21-3.11,5.13-.04,.13-.01,.23,.05,.31,0,.04,.02,.09,.07,.1,.05,0,.09,0,.14,.02,0,0,.02,0,.03,0,.49,.06,.98-.01,1.47-.07,.6-.06,1.19-.15,1.79-.25,1.17-.19,2.33-.4,3.48-.65,2.28-.49,4.54-1.13,6.7-2,3.68-1.48,7.12-3.67,9.77-6.64,.71-.8,1.37-1.64,1.94-2.54,.29-.46,.57-.93,.82-1.42,.21-.41,.42-.81,.53-1.25,.12-.08,.18-.22,.17-.35,.11-.1,.23-.2,.34-.3,0,0,.02,0,.02-.01,2.71-.1,5.41-.27,8.12-.5-.11,.07-.21,.15-.32,.22-.02,0-.03,.01-.05,.02-1.05,.47-2.07,1-3.06,1.6-1.93,1.16-3.72,2.54-5.33,4.12-.92,.9-1.77,1.87-2.56,2.88-.25,.33,.17,.66,.48,.54,4.14-1.57,7.99-3.87,11.22-6.9,.46-.43,.91-.88,1.35-1.33,.41-.43,.88-.85,1.11-1.41,.77-.08,1.55-.16,2.32-.25,2.61-.31,5.2-.68,7.79-1.12-1.31,.54-2.58,1.18-3.79,1.92-3.49,2.15-6.46,5.13-8.62,8.61-1.18,1.9-2.19,3.95-2.7,6.14-.12,.08-.09,.25,.01,.32,.04,.1,.18,.16,.29,.07,.06-.05,.13-.1,.19-.15,.98-.27,1.94-.62,2.89-.96,1.09-.39,2.18-.79,3.26-1.22,2.15-.86,4.26-1.82,6.27-2.97,3.4-1.95,6.47-4.45,8.82-7.6,1.2-1.6,2.14-3.38,2.8-5.28,.55-.37,1.1-.75,1.65-1.12,.28-.07,.56-.14,.85-.21,.81-.04,1.61-.13,2.41-.27-2.56,1.88-4.34,4.88-4.95,7.96-.23,1.15-.29,2.32-.19,3.49,.03,.33,.55,.42,.71,.14,2.02-3.59,4.08-7.16,6.1-10.75,.32-.34,.64-.69,.96-1.04,.2-.22,.39-.45,.59-.67,.04-.04,.08-.09,.11-.13,.32-.14,.64-.3,.94-.47,.04-.02,.06-.05,.09-.07,1.61-.47,3.22-.95,4.81-1.47,3.34-1.08,6.65-2.29,9.91-3.58-.11,.2-.23,.39-.34,.59-3.5,1.75-7.1,3.67-9.59,6.79-1.23,1.55-2.14,3.34-2.93,5.15-.89,2.02-1.69,4.08-2.53,6.11-.48,1.17-.97,2.34-1.45,3.51-.25,.61-.5,1.21-.74,1.82-.19,.48-.39,.96-.52,1.47-.03,.01-.05,.03-.07,.04-.14,.08-.1,.26,.02,.31,.02,.12,.18,.15,.26,.07,.06,.04,.13,.05,.19-.01,.13-.13,.25-.28,.38-.41,4.11-2.04,7.95-4.62,11.48-7.55,1.74-1.44,3.5-2.94,4.9-4.72,1.32-1.68,2.1-3.63,2.31-5.76,.23-2.34-.1-4.74-.51-7.05,0-.03-.02-.05-.03-.08,.15-.26,.29-.52,.43-.78,2.87-1.16,5.7-2.4,8.49-3.72-.02,.02-.03,.04-.05,.06-.33,.24-.63,.58-.89,.85-.41,.42-.81,.86-1.18,1.31-.73,.88-1.37,1.83-1.92,2.82-.55,1-1.01,2.04-1.36,3.12-.19,.56-.34,1.13-.47,1.7-.12,.52-.26,1.11-.21,1.64,0,.05,.03,.08,.05,.1,.03,.27,.33,.47,.58,.25,3.44-3.09,6.01-7.39,6.71-11.99,.02-.12-.01-.21-.06-.29,.08-.08,.15-.16,.23-.24,3.04-1.46,6.03-3.02,8.97-4.66,.28-.15,.55-.31,.82-.47-.81,.92-1.57,1.9-2.25,2.92-2.61,3.9-4.23,8.37-5.41,12.88-.34,1.32-.65,2.65-.95,3.98-.29,1.31-.63,2.68-.67,4.03,0,.16,.21,.2,.27,.05,.01-.03,.02-.07,.04-.1,.04,0,.07-.02,.11-.04,2.18-1.75,4.32-3.56,6.47-5.35,2.02-1.69,4.09-3.34,6.05-5.09,1.73-1.54,3.31-3.26,4.28-5.38,.9-1.95,1.24-4.12,1.27-6.26,.03-2.26-.23-4.54-.59-6.78,.02-.04,.04-.09,.06-.13,6.08-3.96,11.9-8.31,17.4-13.04,1.02-.87,2.01-1.77,2.99-2.68,.43-.39-.16-1.06-.6-.67-6.35,5.6-13.03,10.78-20.09,15.43-.08,.02-.15,.07-.21,.13-.03,.02-.06,.04-.08,.05-.15,.01-.29,.1-.37,.24-.32,.21-.65,.42-.97,.62-.73,.29-1.41,.69-2.07,1.12-.59,.39-1.16,.81-1.71,1.25-.23,.14-.45,.28-.68,.42-.8-.44-1.74-.69-2.6-.94-1.06-.3-2.13-.54-3.21-.71-1.73-.28-3.47-.37-5.22-.32-.04,0-.07-.01-.11-.02-.08-.01-.15,0-.21,.03-.37,.01-.75,.03-1.12,.05-.31,.02-.39,.51-.13,.65,1.81,1.01,3.77,1.69,5.82,2.03,1.69,.28,3.51,.37,5.23,.12-3.35,1.94-6.76,3.77-10.23,5.48-.56-.07-1.13-.13-1.69-.19-.61-.9-1.41-1.7-2.16-2.47-.85-.86-1.72-1.71-2.62-2.52-1.8-1.6-3.75-3.02-5.91-4.08-2.22-1.09-4.6-1.8-7.01-2.35-2.55-.58-5.13-1.02-7.71-1.41-2.63-.39-5.27-.7-7.92-.93-.13-.06-.27-.11-.4-.17-.2-.09-.37-.03-.47,.09-.06,0-.12-.01-.18-.02-.15-.01-.27,.05-.34,.14-.16,0-.31,.12-.25,.32,.39,1.26,1.07,2.45,1.77,3.56,.7,1.11,1.48,2.17,2.34,3.17,1.73,2.02,3.75,3.78,5.99,5.21,4.61,2.93,10.08,4.34,15.53,4.06,3.08-.16,6.11-.83,8.95-2.01,.05-.02,.08-.05,.11-.08,.39,.03,.77,.06,1.16,.08-3.19,1.54-6.42,2.99-9.71,4.33-.08,0-.15,.03-.22,.09-1.07,.43-2.14,.85-3.21,1.26-.28-.35-.72-.61-1.08-.83-.43-.26-.87-.5-1.32-.72-.97-.47-1.99-.82-3.03-1.1-1.12-.3-2.26-.5-3.4-.67-.07-.01-.15-.02-.22-.03-1.07-.23-2.15-.4-3.24-.52-.24-.03-.44,.29-.29,.49,0,.14,.07,.28,.22,.35,.09,.04,.19,.06,.29,.08,3,2.42,6.82,3.71,10.67,3.49-.79,.29-1.57,.59-2.36,.87-2.17,.77-4.36,1.48-6.56,2.15-.07-.02-.14-.03-.22-.04-.05-.05-.11-.09-.16-.14-.93-2.24-2.54-4.27-4.2-6-1.81-1.87-3.89-3.49-6.17-4.76-2.34-1.3-4.85-2.21-7.47-2.75-2.8-.57-5.64-.78-8.49-.92-3.25-.16-6.52-.26-9.75-.74-.4-.06-.56,.45-.35,.72,3.48,4.48,7.2,8.9,11.77,12.31,3.81,2.85,8.27,4.97,13.02,5.49-2.86,.64-5.74,1.2-8.64,1.69,0-.03,0-.06-.01-.09-.88-1.37-1.98-2.53-3.27-3.53-1.31-1.02-2.74-1.76-4.25-2.42-.27-.12-.46,.2-.37,.43,.62,1.56,1.73,2.96,3,4.04,.64,.54,1.33,1.01,2.07,1.39,.33,.17,.68,.32,1.03,.47-.66,.1-1.33,.21-1.99,.31-1.27,.18-2.53,.35-3.8,.5,0-.05-.02-.09-.02-.13,.02-.04,.03-.08,0-.13-.01-.03-.03-.05-.05-.08-.09-.52-.19-1.02-.35-1.54-.21-.69-.46-1.37-.74-2.03-.54-1.31-1.19-2.59-1.94-3.8-1.51-2.45-3.41-4.64-5.61-6.49-4.41-3.72-10.02-5.81-15.77-6.08-1.59-.07-3.2,0-4.78,.19-1.57,.2-3.18,.5-4.66,1.06-.29,0-.53,.39-.29,.63Zm-15.06,12.97c3.69-.29,7.45,.63,10.63,2.5,.88,.52,1.71,1.1,2.5,1.75,.68,.56,1.32,1.17,1.96,1.77-.13-.01-.26-.03-.39-.04-2.52-2.23-5.81-3.45-9.08-4.06-1.95-.36-3.94-.46-5.92-.41-1.84,.04-3.68,.26-5.53,.3-1,.02-2-.02-3-.13-.18-.02-.37-.05-.55-.08,3.14-.39,6.21-1.35,9.37-1.6Zm14.25,5.94c-7.68-.7-15.3-1.93-22.84-3.6,.54,.04,1.08,.05,1.62,.04,1.81-.04,3.61-.24,5.42-.34,3.83-.22,7.8-.04,11.41,1.38,1.59,.62,3.05,1.48,4.39,2.53Zm-11.12,2.91c-3.86-.25-7.62-1.5-10.88-3.57-1.49-.94-2.85-2.06-4.08-3.31,8.62,2.39,17.46,3.92,26.36,4.75-3.54,1.66-7.51,2.39-11.4,2.13Zm30.29,1.18c-.48,.81-1.03,1.58-1.63,2.3-1.19,1.44-2.6,2.69-4.11,3.78-3.45,2.47-7.5,3.96-11.59,4.95-1.26,.3-2.53,.56-3.8,.79-.48,.08-.95,.16-1.43,.25,7-2.62,13.67-6.14,19.71-10.53,1.18-.86,2.36-1.75,3.49-2.69-.2,.39-.4,.78-.63,1.16Zm-2.62,.6c-1.65,1.19-3.34,2.32-5.07,3.39-3.43,2.12-7,4.02-10.69,5.65-1.8,.79-3.63,1.52-5.48,2.18,1.18-1.22,2.43-2.36,3.79-3.36,1.46-1.07,3.01-1.99,4.61-2.83,3.38-1.76,6.88-3.29,10.39-4.8,1.04-.45,2.07-.89,3.11-1.34,.61-.26,1.25-.51,1.86-.78-.83,.64-1.66,1.28-2.52,1.89Zm-2.97-.57c.78-.21,1.55-.43,2.33-.64-.48,.21-.95,.43-1.43,.65-1.87,.85-3.73,1.7-5.6,2.55-3.3,1.51-6.57,3.11-9.51,5.26-1.51,1.11-2.95,2.35-4.11,3.82,1.27-2.98,3.64-5.38,6.37-7.09,3.64-2.27,7.85-3.42,11.95-4.54Zm63.02-7.61c-.07,2.05-.63,3.98-1.82,5.67-1.25,1.77-2.93,3.24-4.56,4.65-1.77,1.53-3.63,2.97-5.54,4.32-1.62,1.14-3.29,2.21-4.98,3.23,2.44-2.64,4.73-5.44,6.91-8.3,2.59-3.39,5-6.93,7.24-10.56,.81-1.32,1.58-2.65,2.34-4,.25,1.66,.48,3.31,.42,5Zm-13.93,13.55c-1.29,1.63-2.62,3.22-3.95,4.82,.08-.17,.15-.33,.23-.5,.23-.51,.46-1.03,.68-1.55,.45-1.03,.89-2.07,1.33-3.1,.85-1.99,1.7-3.98,2.56-5.96,.8-1.83,1.63-3.66,2.79-5.29,1.13-1.58,2.57-2.89,4.16-3.99,1.42-.98,2.94-1.8,4.48-2.58-3.65,6.34-7.72,12.42-12.28,18.15Zm26.94-8.36c.88-1.15,1.72-2.32,2.55-3.51,1.27-1.82,2.52-3.67,3.71-5.55,2.4-3.8,4.65-7.69,6.74-11.67,.66-1.24,1.28-2.51,1.9-3.78-.18,3.2-1.11,6.34-2.49,9.22-1.91,3.98-4.65,7.41-7.67,10.6-.87,.92-1.76,1.82-2.66,2.7-.68,.67-1.39,1.31-2.06,1.98Zm14.88-14.8c-.81,2.13-2.29,3.87-3.93,5.41-1.85,1.74-3.82,3.34-5.74,5-.28,.24-.55,.48-.83,.72,.06-.05,.11-.11,.17-.16,1.63-1.63,3.19-3.34,4.61-5.16,2.6-3.32,4.73-7.01,5.8-11.11,.3-1.13,.51-2.28,.63-3.44,.32,2.95,.36,5.92-.71,8.73Zm-4.68-8.58c1.53-.91,3.04-1.84,4.54-2.8-1.7,3.47-3.41,6.93-5.3,10.3-2.17,3.89-4.49,7.69-6.94,11.41-1.23,1.86-2.5,3.69-3.74,5.54,.23-.8,.39-1.62,.59-2.42,.28-1.14,.54-2.28,.83-3.41,.59-2.28,1.27-4.54,2.12-6.73,1.59-4.12,3.84-8.02,7.03-11.11,.28-.27,.57-.53,.86-.79Zm-32.94-5.44c2.38,.49,4.74,1.11,6.97,2.07,2.18,.94,4.15,2.27,5.98,3.78,1.03,.86,2.02,1.77,2.98,2.71,.73,.72,1.45,1.51,2.24,2.18-.1-.01-.19-.02-.29-.03-1.77-1.31-3.69-2.43-5.58-3.54-1.99-1.17-4.08-2.17-6.19-3.1-2.11-.93-4.26-1.78-6.45-2.5-2.25-.74-4.55-1.33-6.84-1.97-1.44-.4-2.85-.85-4.24-1.35,3.84,.41,7.66,.97,11.43,1.75Zm-8.34,.03c2.28,.61,4.57,1.18,6.83,1.88,2.2,.68,4.38,1.46,6.51,2.34,2.15,.89,4.23,1.92,6.3,2.97,2.01,1.03,3.92,2.21,5.84,3.4-1.21-.16-2.42-.35-3.62-.57-2.54-.46-5.05-1.08-7.52-1.85-4.94-1.53-9.7-3.62-14.15-6.25-1.24-.73-2.45-1.51-3.64-2.31-.54-.37-1.07-.75-1.6-1.13,1.65,.62,3.35,1.06,5.05,1.52Zm10.89,12.04c-5.07-1.14-9.68-3.85-13.22-7.65-.98-1.05-1.88-2.18-2.67-3.39-.61-.92-1.11-1.89-1.63-2.85,.73,.63,1.52,1.21,2.3,1.76,1.06,.76,2.16,1.47,3.27,2.15,2.22,1.36,4.53,2.59,6.89,3.67,4.75,2.18,9.79,3.75,14.92,4.72,1.45,.27,2.91,.49,4.37,.66,.08,0,.17,.02,.25,.03-4.61,1.65-9.71,1.96-14.49,.89Zm-24.05,21.7c-3.12,2.83-6.86,4.83-10.71,6.48-1.17,.5-2.35,.97-3.55,1.42-.63,.24-1.27,.46-1.9,.7,2.85-2.24,5.65-4.54,8.52-6.76,3.33-2.57,6.72-5.07,10.17-7.48,1-.7,2-1.39,3-2.08-1.2,2.97-3.17,5.57-5.54,7.72Zm5.38-8.56c-6.1,4.18-12.04,8.62-17.75,13.32-1.34,1.1-2.67,2.2-3.97,3.35,.7-1.15,1.44-2.26,2.31-3.31,1.14-1.37,2.42-2.63,3.77-3.8,2.98-2.58,6.34-4.68,9.68-6.75,.96-.6,1.92-1.2,2.93-1.72,.79-.41,1.6-.73,2.44-1.02,.2-.02,.39-.05,.59-.07Zm-5.56,1.77c-1.75,1.1-3.49,2.19-5.2,3.35-3.12,2.12-6.17,4.48-8.58,7.42-1.19,1.45-2.36,3.03-3.1,4.77-.12,.11-.23,.21-.35,.31,.73-1.68,1.5-3.35,2.46-4.91,1.02-1.66,2.22-3.21,3.56-4.62,2.92-3.04,6.55-5.38,10.53-6.76,.85-.3,1.72-.55,2.6-.75-.67,.38-1.31,.8-1.94,1.19Zm-1.62-19.53c5.2,.85,10.04,3.13,13.88,6.77,1.04,.99,2,2.06,2.86,3.21,.48,.64,.92,1.3,1.35,1.97-1.29-1.08-2.67-2.07-4.06-3-2.01-1.34-4.1-2.54-6.26-3.61-4.48-2.24-9.21-3.92-14.05-5.2-1.23-.33-2.46-.62-3.7-.9,3.34,.14,6.68,.23,9.98,.77Zm-.12,2.67c4.58,1.56,9.03,3.56,13.12,6.17,2.03,1.29,3.91,2.74,5.76,4.26-.22-.01-.45-.03-.67-.04-.64-.04-1.29-.11-1.92-.2-1.23-.17-2.44-.44-3.64-.76-2.38-.64-4.67-1.54-6.92-2.53-4.86-2.13-9.55-4.63-14.16-7.25-1.29-.73-2.57-1.48-3.86-2.22-.42-.24-.84-.49-1.25-.73,4.59,.78,9.14,1.81,13.55,3.32Zm2.43,11.54c-4.87-1.85-9.03-5.17-12.6-8.9-1.81-1.9-3.48-3.92-5.12-5.96,.12,.07,.24,.14,.36,.21,.58,.34,1.16,.68,1.75,1.02,1.17,.68,2.34,1.35,3.51,2.01,2.35,1.32,4.72,2.61,7.12,3.84,2.38,1.22,4.78,2.39,7.23,3.48,2.29,1.02,4.62,1.94,7.03,2.62,1.35,.38,2.71,.67,4.1,.84,.72,.09,1.44,.15,2.16,.17,.22,0,.44,.01,.66,.01-2.56,.76-5.14,1.45-7.73,2.09-.32,.02-.65,.02-.97,.02-2.57-.02-5.1-.54-7.5-1.45Zm-25.28-.57c-4.5-2.21-8.78-4.85-12.77-7.88-1.75-1.33-3.44-2.73-5.07-4.2,4.37,1.66,8.73,3.35,12.98,5.33,4.53,2.11,8.91,4.57,12.93,7.55,1.11,.83,2.19,1.7,3.23,2.61,.6,.52,1.17,1.06,1.75,1.59-4.49-1.27-8.86-2.94-13.05-4.99Zm13.72,4.84s.02,.05,.03,.08c-.54-.61-1.13-1.17-1.73-1.72-.9-.83-1.83-1.61-2.79-2.37-1.95-1.53-4-2.92-6.12-4.19-4.46-2.68-9.21-4.85-14.03-6.82-2.13-.87-4.28-1.7-6.43-2.52,2.33-.48,4.75,0,7.06,.57,2.4,.61,4.75,1.42,7,2.46,4.53,2.1,8.66,4.99,12.17,8.56,1.81,1.84,3.35,3.87,4.85,5.95Zm-24.82-18.81c2.74,.02,5.48,.47,8.09,1.33,5.33,1.76,9.9,5.3,13.09,9.9,.9,1.3,1.69,2.69,2.34,4.13,.31,.68,.58,1.37,.83,2.07-1.04-1.51-2.25-2.93-3.5-4.26-1.73-1.85-3.63-3.53-5.67-5.04-4.09-3.03-8.73-5.39-13.64-6.78-1.45-.41-2.94-.78-4.43-.97-.35-.04-.7-.08-1.06-.1,1.31-.2,2.63-.29,3.95-.28Z"/>
  </g>
</svg>