<?xml version="1.0" encoding="UTF-8"?>
<svg id="Layer_2" data-name="Layer 2" xmlns="http://www.w3.org/2000/svg" viewBox="0 0 184.12 46.56">
  <defs>
    <style>
      .cls-1 {
        fill: #fff;
      }
    </style>
  </defs>
  <g id="OBJECTS">
    <path class="cls-1" d="M62.86,23.29c-1.02-2.04-2.28-3.96-3.63-5.79-1.42-1.94-2.96-3.79-4.62-5.53-1.65-1.73-3.41-3.36-5.26-4.87-1.8-1.47-3.7-2.85-5.87-3.7-1.84-.72-4.41-1.26-6.15,0-.84,.61-1.27,1.58-1.24,2.61,.04,1.14,.57,2.15,1.28,3.02,.74,.92,1.63,1.72,2.49,2.52,.86,.79,1.76,1.55,2.67,2.28,1.83,1.45,3.75,2.78,5.75,3.99,3.55,2.15,7.33,3.93,11.22,5.38-5.26-.11-10.53-.04-15.78,.36-2.68-2.63-5.55-5.02-8.67-7.12-3.29-2.21-6.78-4.1-10.42-5.67-1.43-.62-3.54-1.65-4.97-.48-.66,.54-.87,1.4-.74,2.22,.14,.9,.71,1.64,1.37,2.24,1.42,1.29,3.13,2.33,4.79,3.27,1.7,.96,3.46,1.78,5.27,2.5,3.33,1.35,6.78,2.36,10.25,3.31-3.58,.37-7.17,.89-10.73,1.62-.06-.03-.13-.04-.21-.04-.22,0-.45,.01-.67,.02-.66-.52-1.32-1.04-2.01-1.51-.9-.61-1.82-1.17-2.76-1.71-1.91-1.09-3.89-2.04-5.93-2.87-4.05-1.64-8.3-2.75-12.63-3.33-1.17-.16-2.42-.27-3.55,.17-.87,.33-1.61,1-1.94,1.87-.81,2.12,1.5,3.51,3.04,4.36,3.71,2.03,7.84,3.09,12.02,3.61,3.42,.43,6.87,.48,10.31,.42-5.76,1.48-11.34,3.58-16.5,6.52-1.19,.68-2.33,1.41-3.45,2.2-.34,.24-.05,.79,.33,.58,4.88-2.77,9.9-5.19,15.25-6.93,1.42-.46,2.84-.88,4.28-1.25-2,.7-3.98,1.47-5.91,2.36-4.31,2-8.4,4.64-11.62,8.17-1.44,1.58-3,3.53-2.57,5.81,.18,.96,.75,1.87,1.64,2.31,.97,.48,2.09,.37,3.1,.1,2.22-.6,4.29-1.81,6.11-3.19,1.86-1.41,3.52-3.05,5.06-4.8,3.24-3.66,5.98-7.76,9.55-11.12,.4-.38,.82-.75,1.24-1.1,.05-.02,.1-.03,.16-.05,1.74-.32,3.49-.59,5.24-.82,2.12-.28,4.25-.49,6.37-.65-1.66,.51-3.29,1.16-4.83,1.9-3.31,1.57-6.36,3.67-9.01,6.2-1.09,1.04-2.56,2.67-1.73,4.29,.88,1.72,3.1,1.35,4.58,.83,3.19-1.1,6.17-2.76,8.82-4.86,3-2.37,5.55-5.31,7.45-8.62,0-.01,0-.02,.01-.03,4.44-.16,8.9-.13,13.35,.02-5.79,1.45-11.13,4.98-14.83,9.6-.53,.66-1.08,1.34-1.5,2.08-.42,.73-.67,1.65-.12,2.38,.85,1.12,2.57,.7,3.69,.34,3.09-1.01,5.93-2.71,8.32-4.91,2.67-2.46,4.83-5.56,6.03-9,.04-.11,.02-.2-.02-.28,.2-.05,.41-.09,.61-.13,2.55,.1,5.11,.23,7.66,.38,3.73,.22,7.47,.46,11.2,.68,0,0,0,0,.01,.01,.09,.1,.22,.08,.31,0,.2,.01,.39,.02,.59,.03-2.83,.42-5.62,1.19-8.28,2.16-1.97,.72-3.89,1.59-5.74,2.59-.03,.02-.06,.03-.08,.05-.11-.01-.22,.04-.26,.14-1.59,.88-3.14,1.9-4.38,3.23-1,1.08-2.19,3.05-.83,4.34,1.15,1.09,3.08,.59,4.44,.29,3.56-.79,6.99-2.22,10.08-4.15,3.46-2.17,6.48-4.98,8.88-8.28,.04-.06,.05-.11,.06-.17,3.39,.17,6.79,.29,10.19,.34-.93,.27-1.85,.59-2.74,.98-.03,.01-.06,.03-.09,.04-.14-.03-.31,.04-.39,.18-1.25,.59-2.44,1.29-3.57,2.09-.01,0-.03,.02-.04,.03-1.94,1.39-3.69,3.06-5.18,4.9-.62,.76-1.21,1.55-1.76,2.37-.52,.77-1.19,1.64-1.26,2.61-.12,1.73,1.81,2.44,3.23,2.46,4.15,.04,7.76-2.74,10.78-5.27,4.04-3.4,8.08-6.82,11.93-10.42,.04-.04,.05-.07,.06-.11,6.49-.31,12.92-1.15,19.28-2.39-.18,.08-.35,.16-.53,.24-1,.45-1.99,.91-2.96,1.39-1.87,.93-3.68,1.98-5.36,3.22-1.51,1.12-2.92,2.37-4.13,3.81-.61,.73-1.18,1.5-1.67,2.31-.49,.81-.94,1.74-.9,2.71,.07,1.91,1.99,2.82,3.7,2.66,.98-.09,1.92-.4,2.84-.73,.8-.29,1.59-.62,2.35-.99,3.05-1.48,5.79-3.59,8.03-6.14,1.03-1.17,1.94-2.43,2.74-3.76,.1-.04,.16-.15,.15-.26,1.09-1.86,1.95-3.85,2.52-5.93,3.2-.77,6.38-1.63,9.54-2.57,4.52-1.35,8.98-2.85,13.42-4.45-.04,.03-.07,.07-.09,.13,0,.02-.01,.04-.02,.06-.67,.38-1.34,.76-2,1.16-1.74,1.05-3.42,2.19-5.06,3.39-2.78,2.05-5.77,4.34-7.07,7.66-.3,.76-.63,1.75-.1,2.48,.45,.62,1.26,.64,1.94,.47,.78-.19,1.54-.58,2.27-.92,.79-.37,1.57-.77,2.33-1.19,2.98-1.66,5.73-3.74,8.14-6.14,2.74-2.73,5.05-5.89,6.8-9.34,.07-.14,.05-.28-.01-.39,4.68-1.75,9.36-3.54,13.9-5.58,1.47-.66,2.96-1.26,4.44-1.88,.21-.09,.12-.43-.09-.35-4.74,1.87-9.48,3.75-14.25,5.57-1.16-.49-2.35-.92-3.51-1.4-1.18-.49-2.35-1.02-3.5-1.58-2.31-1.11-4.59-2.27-6.91-3.36C151.16,1.69,146.23-.1,141.11,0c-1.24,.03-2.48,.17-3.69,.44,0,0,0,0,0,0-.09-.04-.19,0-.26,.07-.89,.22-1.77,.53-2.5,1.09-.82,.63-1.35,1.57-1.29,2.62,.06,1.15,.7,2.19,1.46,3.02,1.58,1.71,3.78,2.8,5.92,3.63,2.36,.92,4.8,1.62,7.28,2.11,3.91,.78,7.92,1.03,11.89,.76-3.55,1.26-7.12,2.48-10.71,3.6-2.59,.81-5.19,1.58-7.81,2.3-.04,0-.08,0-.11,.01-1.71-1.49-3.59-2.81-5.45-4.1-2.01-1.4-4.06-2.74-6.18-3.96-4.18-2.41-8.75-4.46-13.53-5.26-2.29-.38-4.89-.27-6.53,1.6-.69,.78-1.09,1.79-.99,2.84,.11,1.16,.74,2.18,1.53,3.02,1.66,1.77,3.95,2.92,6.19,3.79,2.42,.94,4.95,1.61,7.49,2.13,4.33,.89,8.77,1.25,13.19,1.08-7.93,1.96-16,3.39-24.16,3.97-2.51,.18-5.03,.28-7.55,.32-1.19-1.76-2.54-3.43-3.92-5.05-1.49-1.75-3.09-3.41-4.75-4.99-.45-.43-.92-.84-1.39-1.27-.03-.11-.12-.18-.23-.21-1.18-1.07-2.38-2.11-3.63-3.1-1.77-1.41-3.59-2.85-5.57-3.97-.96-.54-1.98-.97-3.07-1.13-.87-.13-1.99-.05-2.46,.83-.49,.92,.05,2.08,.39,2.96,.39,1.01,.84,1.99,1.35,2.94,2.03,3.81,5,7.12,8.58,9.54,2.2,1.49,4.63,2.63,7.17,3.4-4.81-.1-9.63-.36-14.44-.65-.07-.09-.13-.18-.2-.27-.01-.09-.06-.16-.15-.21-1.1-1.47-2.25-2.9-3.41-4.32-1.52-1.85-3.08-3.67-4.73-5.4-1.63-1.71-3.34-3.35-5.17-4.85-1.72-1.42-3.53-2.78-5.56-3.71-.97-.45-1.99-.8-3.05-.97-.22-.04-.45-.07-.69-.09-.06-.03-.11-.03-.16-.02-.74-.07-1.5-.06-2.18,.17-.97,.33-1.44,1.19-1.16,2.18,.29,1.02,.98,1.99,1.57,2.86,2.42,3.6,5.73,6.54,9.41,8.8,4.06,2.49,8.56,4.19,13.13,5.49,.34,.1,.67,.18,1.01,.28-2.05-.13-4.1-.26-6.14-.38-4.32-.27-8.65-.51-12.97-.65ZM22.56,15.59c-.13-.09-.27-.19-.42-.29,.26-.04,.52-.12,.76-.15,.39-.04,.79-.04,1.18-.01,.87,.07,1.73,.33,2.48,.76,.7,.4,1.32,.93,1.82,1.56,.25,.32,.48,.67,.66,1.03,.15,.29,.27,.6,.43,.89-2.42-1.04-4.75-2.27-6.92-3.79Zm7.34,3.97s.02-.03,.02-.05c.01-.84-.54-1.71-1.03-2.36-.54-.72-1.22-1.33-2.01-1.77-.8-.46-1.7-.73-2.61-.83-.47-.05-.95-.05-1.42,0-.41,.04-.97,.06-1.28,.35-.55-.41-1.11-.89-1.49-1.43,.09-.02,.19-.05,.28-.07,.28-.06,.57-.11,.85-.15,.53-.07,1.06-.09,1.59-.08,1.1,.03,2.2,.23,3.24,.61,1.95,.71,3.65,2.05,4.84,3.75,.32,.46,.61,.95,.86,1.45,.25,.51,.43,1.04,.67,1.55-.84-.31-1.67-.62-2.5-.97Zm2.74,1.05c.05-.04,.09-.1,.08-.17-.14-1.03-.69-2.07-1.26-2.93-.57-.88-1.27-1.69-2.08-2.37-1.7-1.44-3.83-2.31-6.04-2.51-.66-.06-1.33-.06-1.99,0-.31,.03-.62,.07-.92,.12-.22,.04-.45,.07-.66,.15-.16-.41-.21-.84-.08-1.31,.54-1.89,3.17-.73,4.32-.25,2.59,1.09,5.1,2.36,7.52,3.78,.04,.04,.09,.07,.13,.11,.3,.27,.59,.54,.87,.82,.61,.62,1.18,1.29,1.69,1.99,.49,.68,.93,1.4,1.31,2.14,.28,.54,.52,1.09,.78,1.63-1.23-.38-2.46-.77-3.67-1.2Zm10.14,3.01c-1.97-.52-3.95-1.06-5.92-1.64-.35-1.56-1.28-3.06-2.19-4.33-.3-.41-.62-.81-.95-1.19,.08,.05,.16,.1,.24,.15,3.21,2.07,6.29,4.42,9.12,6.99-.1,0-.2,.02-.29,.02Zm-25.28,1.69c-3.99-.3-7.98-1.01-11.68-2.57-.91-.38-1.79-.82-2.65-1.3-.41-.23-.84-.48-1.23-.78,.78-.18,1.56-.34,2.36-.39,.95-.06,1.9-.03,2.84,.08,1.93,.23,3.82,.78,5.64,1.44,3.22,1.16,6.28,2.73,9.56,3.71-1.62-.02-3.24-.07-4.85-.19Zm6.25-.03c-1.82-.44-3.58-1.1-5.32-1.81-3.55-1.45-7.06-3.11-10.9-3.63-1.95-.27-4.13-.26-5.99,.48-.21-.21-.4-.45-.53-.72-.03-.06-.04-.12-.07-.18,.77-.19,1.52-.46,2.3-.63,.84-.19,1.7-.32,2.56-.4,1.69-.16,3.4-.11,5.08,.11,3.4,.46,6.7,1.67,9.58,3.54,.81,.53,1.59,1.11,2.33,1.75,.61,.53,1.17,1.1,1.74,1.66-.26-.05-.52-.1-.78-.16Zm1.26,.22c-1.01-1.33-2.38-2.44-3.74-3.4-1.43-1.01-2.98-1.84-4.61-2.49-3.27-1.32-6.82-1.9-10.34-1.69-.97,.06-1.94,.18-2.89,.36-.86,.17-1.77,.35-2.59,.69-.02-.63,.34-1.24,.87-1.64,.87-.67,2.04-.68,3.08-.59,2.1,.19,4.19,.61,6.23,1.11,2,.49,3.98,1.1,5.91,1.82,1.95,.73,3.87,1.59,5.73,2.54,1.86,.95,3.62,2.05,5.41,3.12,.06,.03,.11,.07,.16,.1-1.07,.03-2.14,.05-3.22,.06ZM7.88,39.28c1.08-1.27,2.28-2.43,3.57-3.49-.13,1.63-.69,3.19-1.67,4.51-.53,.72-1.19,1.36-1.92,1.87-.59,.41-1.21,.71-1.84,.99,.02-1.42,.98-2.84,1.87-3.89Zm-1.79,4.62c-.02-.09-.04-.18-.05-.27,.77-.22,1.52-.64,2.17-1.08,.76-.53,1.44-1.18,2.01-1.92,1.17-1.52,1.82-3.42,1.86-5.33,2.06-1.62,4.32-3,6.66-4.17,.09-.05,.19-.09,.28-.14-.15,.25-.3,.51-.45,.75-.39,.64-.78,1.28-1.17,1.93-.79,1.31-1.59,2.61-2.38,3.91-1.31,2.15-2.61,4.56-4.92,5.8-1.24,.67-2.65,.93-4.02,.52Zm6.26,.83c-1.6,.78-4.54,2.09-5.84,.15-.07-.1-.13-.2-.18-.3,2.35,.59,4.76-.74,6.32-2.45,.91-1.01,1.64-2.16,2.34-3.32,.8-1.34,1.57-2.71,2.36-4.06l1.36-2.32c.33-.57,.72-1.15,1.02-1.76,1.84-.87,3.73-1.62,5.65-2.31-.27,.26-.52,.53-.76,.79-.88,.96-1.64,2.03-2.33,3.14-1.44,2.31-2.52,4.81-3.95,7.12-.61,.98-1.28,1.92-2.02,2.81-1.23,.98-2.54,1.84-3.97,2.53Zm10.04-8.77c-1.34,1.63-2.76,3.25-4.32,4.71,.89-1.22,1.65-2.54,2.38-3.85,1.28-2.29,2.48-4.67,4.17-6.68,.47-.56,.99-1.1,1.54-1.58,.36-.31,.74-.59,1.11-.88,1.01-.34,2.03-.68,3.05-1-2.95,2.81-5.36,6.14-7.95,9.29Zm7.89-2.47c1.59-1.55,3.34-2.94,5.2-4.15,.11,1.53-1.01,2.87-2.24,3.68-.71,.47-1.47,.83-2.24,1.19-.65,.31-1.34,.6-1.99,.96,.28-.64,.77-1.2,1.27-1.68Zm-1.44,2.18c.88-.3,1.73-.75,2.56-1.14,.87-.41,1.75-.82,2.53-1.4,1.28-.95,2.3-2.47,2.05-4.11,.86-.54,1.73-1.04,2.63-1.51,.2-.1,.4-.19,.6-.29,.11,1.74-.59,3.46-1.66,4.82-1.32,1.68-3.17,2.74-5.16,3.46-1.14,.41-2.31,.68-3.48,1-.09-.26-.12-.54-.06-.84Zm5.62,.77c-.73,.31-1.47,.6-2.23,.84-.83,.26-1.76,.46-2.57,.05-.27-.14-.47-.32-.62-.54,4.12-.65,8.79-2.71,10.35-6.87,.36-.95,.48-1.96,.38-2.96,1.34-.63,2.71-1.17,4.11-1.63,1.14-.37,2.31-.67,3.47-.93,.29-.01,.59-.03,.88-.04-3.17,5.37-8.05,9.65-13.79,12.1Zm7.67-23.93c1.58,.05,3.19,.36,4.52,1.25,.69,.46,1.27,1.09,1.68,1.81,.2,.36,.36,.74,.46,1.14,.05,.18,.07,.37,.09,.56-2.36-1.42-4.62-3-6.74-4.76Zm8.44,5.74c-.39-.22-.78-.44-1.16-.67,.14-.71-.19-1.59-.48-2.18-.4-.81-1.03-1.5-1.74-2.04-1.61-1.2-3.71-1.52-5.67-1.5-.04,0-.08,.01-.11,.02-.49-.42-.96-.85-1.43-1.29,1.96-.36,4.02-.14,5.85,.68,1.97,.88,3.59,2.42,4.61,4.32,.55,1.02,.82,2.08,1.13,3.18-.33-.18-.66-.35-.98-.53Zm1.38,.75s.02-.03,.02-.05c.02-1.1-.38-2.23-.85-3.22-.48-1.02-1.15-1.97-1.94-2.78-1.6-1.65-3.74-2.69-6.01-3-1.24-.17-2.5-.11-3.72,.17-.64-.61-1.37-1.32-1.9-2.11,.19-.04,.37-.09,.56-.12,.39-.08,.78-.14,1.17-.18,.76-.08,1.53-.08,2.29-.02,1.51,.11,3.01,.49,4.4,1.12,2.8,1.27,5.02,3.56,6.3,6.35,.36,.78,.63,1.59,.83,2.43,.17,.71,.22,1.43,.32,2.14-.49-.24-.99-.48-1.48-.73Zm1.95,.97c.06-.72-.08-1.48-.22-2.18-.16-.79-.39-1.56-.69-2.3-.59-1.46-1.42-2.82-2.47-4-2.14-2.4-5.12-3.89-8.3-4.28-.89-.11-1.79-.13-2.69-.06-.71,.06-1.56,.11-2.26,.38-.19-.36-.32-.74-.38-1.12,1.77-.24,3.52-.32,5.3-.05,1.8,.27,3.56,.83,5.18,1.66,3.21,1.64,5.79,4.33,7.37,7.56,.86,1.77,1.28,3.61,1.65,5.52-.84-.36-1.67-.74-2.49-1.13Zm8.12,3.3c-1.78-.6-3.53-1.28-5.25-2.01,0-1.81-.57-3.65-1.28-5.3-.74-1.7-1.75-3.28-2.99-4.66-2.49-2.79-5.91-4.67-9.58-5.34-1.97-.36-4.08-.44-6.06-.04,0-.3,.06-.61,.18-.92,.79-2.03,3.71-1.62,5.33-1.14,2.13,.63,4.01,1.9,5.75,3.25,1.8,1.41,3.5,2.94,5.12,4.56,1.61,1.62,3.13,3.34,4.54,5.14,1.42,1.81,2.69,3.72,3.95,5.65,.18,.27,.35,.54,.53,.81-.08,0-.15,0-.23,0Zm-13.94,11.25c.72-.9,1.49-1.75,2.31-2.55-.13,.77-.46,1.51-.97,2.1-.56,.64-1.25,1.04-2.02,1.31,.27-.36,.53-.67,.69-.87Zm-1.39,1.98c.1-.2,.22-.4,.34-.59,1.06-.11,2.07-.72,2.76-1.5,.73-.83,1.15-1.9,1.2-3,.84-.77,1.72-1.49,2.65-2.16,.31,1.84-.2,3.81-1.44,5.21-1.39,1.55-3.46,2.24-5.51,2.04Zm1.16,.87c-.31,0-.63,0-.94-.02-.17,0-.33-.02-.49-.02,.02-.17,.07-.34,.14-.52,2.18,.44,4.55-.39,6.04-2.02,1.45-1.59,2.03-3.83,1.6-5.92,.35-.24,.71-.48,1.07-.7,.23-.14,.46-.28,.7-.41,.16,.39,.32,.78,.41,1.2,.11,.51,.14,1.03,.11,1.55-.07,1.07-.4,2.12-.95,3.03-1.21,2.02-3.36,3.2-5.63,3.64-.67,.13-1.36,.19-2.05,.2Zm10.6-4.92c-2.04,2.12-4.5,3.84-7.25,5.02-.7,.3-1.43,.57-2.17,.78-.59,.17-1.26,.29-1.87,.12-.42-.12-.64-.34-.72-.61,.41,.1,.91,.07,1.28,.07,.61,0,1.22-.04,1.82-.13,1.25-.18,2.48-.57,3.57-1.2,2.04-1.17,3.52-3.22,3.86-5.56,.16-1.11,.11-2.5-.47-3.51,.43-.24,.88-.46,1.32-.67,.3,.4,.6,.78,.82,1.25,.24,.53,.38,1.1,.41,1.68,.03,.55-.04,1.1-.19,1.63-.08,.27-.18,.52-.29,.78-.05,.11-.09,.24-.13,.36Zm.87-.96c.19-.58,.28-1.2,.26-1.81-.03-.63-.17-1.24-.41-1.82-.19-.46-.47-.97-.82-1.36,1.61-.74,3.27-1.33,4.98-1.78-.94,2.48-2.3,4.77-4.01,6.76ZM140.47,.88c3.03-.16,6.03,.39,8.92,1.29-.09,.03-.18,.06-.27,.09-.4,.11-.81,.19-1.23,.25-.9,.13-1.82,.14-2.72,.06-1.75-.17-3.44-.76-4.94-1.67,.08,0,.16-.01,.24-.02Zm-.63,.05c-.02,.07,0,.16,.07,.22,1.53,1.08,3.34,1.72,5.2,1.92,.93,.1,1.87,.08,2.8-.04,.45-.06,.9-.15,1.34-.26,.31-.08,.68-.16,.99-.3,.85,.29,1.7,.62,2.53,.95-.01,0-.02,0-.03,0-4.02,1.82-8.81,1.6-12.58-.73-.71-.44-1.38-.95-1.99-1.52,.55-.1,1.11-.18,1.67-.23Zm3.48,9.95c-1.44-.46-2.87-.98-4.23-1.66,1.52-.62,3.22-.97,4.82-.5,.86,.26,1.63,.76,2.27,1.37,.63,.59,1.09,1.3,1.62,1.96-1.51-.32-3.01-.7-4.49-1.18Zm7.14,1.66c-.75-.11-1.49-.24-2.23-.39-.31-.94-1.04-1.78-1.74-2.44-.7-.66-1.52-1.2-2.44-1.48-1.85-.55-3.82-.07-5.55,.68-.48-.26-.96-.55-1.41-.87-.49-.34-1.08-.81-1.6-1.36,5.02-1.2,10.38,.11,14.24,3.57,.83,.75,1.59,1.59,2.27,2.48-.52-.06-1.03-.12-1.54-.19Zm2.05,.25c-2.76-4.36-7.81-6.96-12.92-7.13-1.53-.05-3.05,.13-4.54,.52-.34-.44-.61-.91-.75-1.39,.78-.03,1.55-.12,2.32-.14,.82-.02,1.64,0,2.45,.05,1.67,.11,3.32,.39,4.93,.82,3.19,.84,6.2,2.27,8.88,4.2,1.35,.97,2.61,2.09,3.76,3.29-1.38,0-2.76-.08-4.14-.21Zm5.22,.21c-.21,0-.43,0-.64,0-4.32-5.05-10.76-8.15-17.34-8.78-.94-.09-1.89-.13-2.84-.11-.89,.02-1.81,.05-2.69,.23-.05-.51,.06-1.03,.43-1.53,.55-.74,1.5-1.13,2.36-1.38,.2-.06,.4-.11,.61-.15,3.09,2.81,7.34,4.18,11.49,3.56,1.32-.19,2.59-.59,3.8-1.15,.09-.04,.1-.13,.06-.19,.53,.22,1.07,.44,1.59,.67,4.43,1.97,8.69,4.46,13.32,5.95,.36,.12,.73,.21,1.1,.3-1.9,.72-3.81,1.44-5.72,2.14-1.83,.21-3.66,.42-5.51,.45Zm-6.6,7.81c1.13-.86,2.29-1.68,3.46-2.48,0,0,0,0,0,.01-.08,.21-.16,.42-.26,.62-.2,.42-.42,.82-.68,1.2-.53,.8-1.18,1.51-1.91,2.12-.72,.6-1.53,1.1-2.39,1.47-.44,.19-.89,.34-1.35,.46-.32,.08-.64,.13-.96,.2,1.21-1.37,2.7-2.53,4.1-3.61Zm-4.46,4.03c.93,.1,2.01-.31,2.86-.66,.91-.38,1.75-.89,2.52-1.51,.76-.62,1.44-1.34,2-2.15,.28-.41,.54-.84,.75-1.28,.17-.35,.54-.95,.45-1.35,.42-.28,.82-.56,1.24-.83,.55-.35,1.1-.69,1.65-1.03-.07,.24-.15,.49-.24,.72-.2,.54-.44,1.06-.7,1.57-.53,1.02-1.18,1.98-1.94,2.85-1.59,1.83-3.64,3.23-5.91,4.07-1.17,.43-2.36,.66-3.58,.85,.27-.43,.56-.85,.89-1.25Zm5.43,1.72c-1.38,.88-2.81,1.66-4.29,2.34-.67,.31-1.39,.7-2.13,.81-.29,.04-.63,.04-.85-.18-.32-.32-.17-.87-.06-1.25,.08-.27,.18-.52,.28-.78,.66,.1,1.35,.08,2.01,.04,.78-.05,1.55-.17,2.31-.34,1.53-.35,3.01-.95,4.36-1.76-.53,.38-1.08,.76-1.63,1.11Zm9.76-12.75c.24-.09,.49-.18,.74-.27,.07-.03,.15-.06,.22-.08,.14-.02,.29-.03,.43-.05,.43-.06,.86-.15,1.29-.24-2,3.72-4.66,7.08-7.81,9.89,1.18-1.22,2.15-2.64,2.85-4.2,.62-1.4,1.02-2.87,1.19-4.38,.37-.22,.74-.44,1.1-.65Zm-4.67,8.03c-1.86,2.37-4.44,4.06-7.34,4.86-.84,.23-1.69,.39-2.56,.47-.71,.07-1.42,.05-2.13,.06,.11-.25,.23-.49,.36-.72,1.21-.02,2.45-.31,3.6-.69,1.2-.4,2.36-.95,3.43-1.64,2.02-1.3,3.71-3.09,4.92-5.16,.32-.56,.61-1.13,.86-1.72,.23-.55,.48-1.14,.6-1.73,.41-.25,.82-.49,1.23-.73-.35,2.55-1.37,4.99-2.96,7.01Zm-35.2-13.13c2.16,.81,4.25,1.81,6.27,2.92,.04,.02,.09,.05,.13,.07-1.6-.03-3.17-.3-4.66-.94-1.5-.64-2.84-1.61-3.93-2.81,.74,.24,1.47,.49,2.18,.76Zm-2.96-.99c2.31,2.81,6.19,4.65,9.86,4.27,1.14,.65,2.26,1.34,3.37,2.04-2.59,.41-5.2,.31-7.72-.48-2.39-.75-4.57-2.09-6.34-3.86-.81-.81-1.5-1.71-2.13-2.66,1,.16,1.99,.4,2.97,.68Zm-6.48,7.17c-.38-.26-.79-.56-1.19-.9,.02,0,.04,0,.06,.01,.28,.07,.56,.17,.84,.27,.57,.21,1.13,.47,1.67,.76,.51,.28,1,.61,1.48,.96,.26,.19,.51,.39,.75,.6,.09,.07,.17,.16,.26,.24-1.34-.52-2.65-1.14-3.85-1.94Zm6.52,2.85c-.69-.21-1.37-.43-2.05-.68,.01-.03,.01-.07,0-.11-.12-.26-.36-.47-.57-.66-.24-.22-.48-.44-.73-.64-.49-.39-1.01-.74-1.55-1.05-.53-.3-1.08-.57-1.65-.79-.3-.12-.61-.22-.92-.32-.28-.09-.63-.26-.92-.22-.02,0-.05,.01-.07,.02-.51-.55-.95-1.16-1.17-1.83,1.18-.22,2.28-.23,3.45,.09,1.14,.31,2.21,.85,3.15,1.56,1.75,1.3,3.01,3.11,4.13,4.96-.37-.1-.74-.2-1.11-.31Zm1.55,.44c-1.03-2.16-2.46-4.17-4.4-5.6-1.89-1.39-4.55-2.29-6.91-1.73-.06-.47-.02-.95,.18-1.45,.08-.19,.17-.37,.27-.53,.49,.12,1,.19,1.5,.31,.57,.14,1.13,.31,1.68,.51,1.1,.39,2.17,.89,3.17,1.48,2,1.19,3.73,2.74,5.17,4.56,.76,.96,1.42,2,1.97,3.08-.88-.19-1.76-.41-2.63-.64Zm5.83,1.25c-.96-.15-1.91-.33-2.85-.53-1.9-4.36-5.66-7.82-10.07-9.55-.61-.24-1.24-.45-1.87-.62-.49-.13-1.02-.28-1.54-.35,1.17-1.33,3.25-1.64,4.97-1.47,.11,.01,.22,.03,.33,.04,2.58,4.39,7.51,7.3,12.55,7.63,1.54,.1,3.09,0,4.59-.36,2.52,1.63,4.96,3.37,7.42,5.1,.21,.14,.41,.28,.63,.42-4.7,.51-9.47,.41-14.15-.32Zm-41.56,18.3c.49-.77,1.01-1.52,1.57-2.25,.5-.65,1.03-1.27,1.59-1.87,.1,1.09-.19,2.2-.85,3.08-.4,.53-.93,.96-1.52,1.27-.3,.15-.61,.27-.93,.36-.08,.02-.16,.04-.25,.06,.12-.23,.26-.46,.39-.66Zm-.59,1.1c.54-.02,1.13-.24,1.57-.45,.66-.32,1.25-.79,1.7-1.37,.85-1.09,1.18-2.53,.94-3.88,.96-.99,2.01-1.91,3.12-2.73,.15,2.13-.49,4.34-1.8,6.01-.72,.91-1.62,1.66-2.64,2.22-.95,.52-1.94,.79-2.98,1.02-.05-.27-.01-.55,.09-.82Zm.09,1.28c-.03-.05-.05-.1-.08-.15,1.74-.09,3.51-1,4.8-2.1,1.5-1.27,2.56-3.06,2.97-4.98,.2-.96,.24-1.93,.14-2.9,.86-.59,1.76-1.13,2.69-1.6,.14-.07,.28-.13,.42-.2,.19,2.25-.32,4.55-1.43,6.52-1.24,2.2-3.23,3.91-5.57,4.84-1.2,.48-2.45,.68-3.72,.83-.08-.08-.16-.16-.23-.26Zm4.5,.64c-.85,.21-1.77,.35-2.65,.25-.38-.04-.81-.14-1.18-.33,1.02-.02,2.05-.25,3-.57,1.23-.42,2.39-1.03,3.42-1.82,2.11-1.61,3.61-3.94,4.21-6.52,.3-1.26,.37-2.56,.24-3.85,1.98-.85,4.1-1.39,6.24-1.57-.91,.39-1.67,1.07-2.16,1.93-.53,.93-.85,2-1.11,3.03-.29,1.13-.44,2.28-.49,3.44-2.84,2.44-5.82,5.12-9.54,6.02Zm18.51-13.55c-1.93,1.56-3.83,3.15-5.72,4.76,.01-.16,.02-.32,.05-.47,.07-.38,.2-.76,.37-1.1,.34-.68,.85-1.29,1.45-1.75,.68-.53,1.49-.89,2.32-1.12,.4-.11,.81-.2,1.22-.27,.1-.02,.21-.03,.32-.03Zm.08-.59c-.19,.03-.39,.07-.55,.1-.47,.07-.94,.18-1.4,.32-.88,.27-1.72,.68-2.43,1.26-.64,.52-1.16,1.19-1.49,1.93-.27,.6-.51,1.42-.36,2.1-.78,.67-1.57,1.34-2.35,2.01,.12-.9,.29-1.8,.52-2.68,.25-.95,.53-1.93,1.02-2.78,.45-.79,1.06-1.45,1.89-1.83,.37-.17,.79-.29,1.2-.34,.42-.05,.87,.04,1.27-.07,.16-.04,.2-.2,.16-.32,.84,.05,1.68,.15,2.52,.31Zm20.76-2.26c.8-.38,1.64-.74,2.42-1.19,.13-.03,.27-.06,.4-.09,0,.08,0,.16,0,.24-.02,.23-.08,.46-.17,.67-.18,.44-.51,.82-.92,1.06-.41,.23-.89,.31-1.35,.26-.24-.03-.49-.09-.71-.19-.21-.09-.4-.22-.62-.3,.32-.16,.63-.31,.95-.46Zm-1.11,.54s-.01,.07,0,.1c.24,.48,.92,.71,1.42,.77,.58,.08,1.18-.02,1.69-.31,.5-.29,.89-.74,1.11-1.27,.14-.33,.28-.81,.23-1.22,.49-.1,.98-.22,1.47-.32-.04,1.44-.81,2.8-2.17,3.43-1.54,.71-3.16,.16-4.41-.83,.22-.11,.44-.23,.66-.34Zm-11.27,8.3c1.12-1.43,2.45-2.7,3.87-3.83,.7-.55,1.43-1.06,2.17-1.54-.44,1.42-1.16,2.72-2.25,3.76-1.15,1.09-2.63,1.79-4.18,2.12,.13-.17,.26-.34,.39-.51Zm-1.52,2.34s.04-.08,.06-.12c.25-.48,.54-.94,.85-1.38,3.53-.29,6.73-3.09,7.37-6.61,0-.02,0-.04,0-.06,.52-.32,1.06-.64,1.6-.94,.28,.99,.23,1.96-.12,2.96-.35,.99-.94,1.91-1.64,2.69-1.36,1.53-3.14,2.63-5.13,3.14-.55,.14-1.12,.24-1.69,.29-.43,.04-.86,.01-1.29,.02Zm4.71,3.11c-.73,.25-1.48,.48-2.25,.54,0-.04-.02-.08-.04-.12-.03-.06-.05-.11-.06-.17-.02-.13,0-.26,.05-.38,.12-.31,.4-.48,.71-.54,.34-.07,.72,0,1.04,.13,.27,.11,.46,.28,.61,.51-.02,0-.04,.02-.06,.02Zm11.69-9.53c.2,.01,.4,.06,.6,.11-.98,1.43-2.11,2.76-3.36,3.96-.7-.94-.68-2.21,.14-3.1,.42-.45,.96-.75,1.55-.88,.35-.08,.71-.1,1.07-.08Zm1.3-1c-.14,.22-.26,.45-.41,.67-.31-.1-.68-.12-.97-.13-.4-.02-.8,.02-1.19,.12-.69,.18-1.33,.57-1.78,1.12-.8,.98-.94,2.6,.05,3.49-.39,.36-.8,.71-1.21,1.05-.9-1.61-.63-3.63,.66-4.96,1.26-1.31,3.12-1.72,4.85-1.37Zm2.61-5.83c-.55,1.89-1.35,3.69-2.34,5.38-2-.42-4.16,.03-5.57,1.6-1.34,1.49-1.64,3.74-.47,5.39-.93,.74-1.91,1.43-2.93,2.03-1.23,.72-2.52,1.32-3.86,1.81-.08-.25-.28-.47-.49-.62-.3-.21-.67-.32-1.03-.37-.73-.09-1.53,.25-1.7,1.02-.04,.19-.05,.46,.04,.67-.01,0-.03,0-.04,0-.81-.04-1.7-.4-2.11-1.15-.38-.68-.23-1.47,.05-2.17,.92,.19,2,.03,2.89-.15,1.08-.22,2.11-.61,3.08-1.13,1.96-1.06,3.64-2.73,4.48-4.82,.46-1.14,.66-2.53,.17-3.69,.13-.07,.26-.15,.4-.22,.33-.18,.67-.35,1.01-.52,1,1.49,3.25,1.84,4.82,1.15,1.53-.67,2.55-2.33,2.53-3.99,.37-.08,.73-.16,1.1-.24Zm-33.47-1.35c-1.1-.13-2.19-.63-2.95-1.43-.74-.79-1.15-1.87-1.16-2.95,1.42,1.41,2.79,2.87,4.11,4.38Zm-5.83-6.04c.38,.36,.75,.73,1.13,1.09-.13,1.4,.3,2.81,1.27,3.85,.96,1.03,2.35,1.58,3.75,1.46,.49,.57,.97,1.14,1.45,1.72-.25,.03-.5,.11-.72,.14-.48,.07-.97,.07-1.46,.04-.99-.07-1.96-.36-2.83-.84-1.81-1-3.02-2.84-3.26-4.89-.12-.99,0-1.96,.32-2.89,.11,.1,.23,.2,.35,.31Zm-10.74,.01c.09,.02,.17,.04,.26,.07,.37,.13,.72,.28,1.07,.47,.66,.36,1.27,.81,1.81,1.34,.97,.96,1.62,2.12,2.03,3.4-1.96-1.5-3.7-3.28-5.16-5.28Zm5.61,5.62c-.21-1.54-1.05-2.98-2.14-4.08-.57-.57-1.23-1.06-1.94-1.44-.59-.31-1.28-.6-1.96-.73-.15-.22-.31-.44-.45-.66-.41-.64-.79-1.3-1.14-1.98,2.25,.37,4.38,1.44,5.99,3.06,.92,.92,1.67,2.01,2.21,3.19,.55,1.2,.78,2.45,1.06,3.73-.56-.35-1.1-.71-1.63-1.1Zm2.38,1.55c-.17-.1-.34-.21-.5-.31,.03-.02,.06-.06,.06-.1,.08-1.08-.2-2.16-.57-3.17-.37-1.02-.87-1.99-1.52-2.87-1.22-1.66-2.87-2.95-4.76-3.76-.97-.41-1.98-.68-3.03-.81-.48-.97-.9-1.97-1.25-2.99-.14-.41-.32-.94-.15-1.37,5.31,2.4,10.77,5.76,12.64,11.63,.47,1.49,.57,2.99,.55,4.53-.5-.24-.99-.5-1.48-.78Zm1.78,.92c.32-1.37,.17-2.83-.17-4.18-.36-1.45-1-2.84-1.81-4.1-1.68-2.6-4.11-4.61-6.75-6.19-1.41-.85-2.88-1.58-4.38-2.26,.24-.13,.55-.16,.81-.16,1.02,0,2.06,.41,2.96,.88,1.88,.98,3.6,2.34,5.28,3.63,1.45,1.12,2.84,2.31,4.2,3.54-.67,1.96-.42,4.26,.61,6.04,1.06,1.85,2.99,3.07,5.09,3.38,.59,.09,1.19,.1,1.78,.03,.33-.04,.88-.06,1.22-.28,.32,.4,.65,.79,.97,1.19,.16,.2,.31,.39,.47,.59-1.17,.02-2.34,.02-3.51,.02-2.33-.4-4.61-1.12-6.75-2.13Zm-28.52,11.41c1.18-1.34,2.66-2.37,4.2-3.24-.02,.35-.09,.68-.27,1.02-.27,.51-.67,.96-1.14,1.29-.52,.37-1.13,.62-1.74,.81-.39,.12-.8,.19-1.2,.29,.05-.06,.09-.11,.14-.17Zm-.49,.64c.61-.05,1.23-.22,1.8-.39,.67-.2,1.33-.5,1.88-.93,.82-.64,1.57-1.74,1.52-2.84,1.4-.77,2.85-1.45,4.33-2.06-.2,1-.44,1.94-.95,2.86-.55,.98-1.29,1.85-2.19,2.51-.99,.73-2.14,1.2-3.35,1.43-.62,.12-1.25,.16-1.88,.13-.48-.02-.97-.15-1.45-.18,.08-.18,.18-.35,.28-.52Zm-.5,1.87c-.01-.05-.03-.1-.03-.16-.03-.3,.02-.59,.11-.87,.34,.14,.74,.19,1.1,.24,.52,.06,1.05,.07,1.58,.03,1.01-.07,2-.32,2.92-.74,1.71-.78,3.13-2.16,4-3.83,.46-.89,.86-1.95,.89-2.97,0,0,0-.01,0-.02,.06-.02,.11-.05,.17-.07,1.28-.5,2.58-.94,3.9-1.32-1.31,4.93-5.29,8.94-10.33,10-.74,.16-1.5,.26-2.26,.22-.41-.02-.82-.08-1.21-.2-.29-.09-.56-.21-.84-.31Zm22.71-11.21c-4.01,5.49-9.86,9.63-16.38,11.56-.82,.24-1.65,.45-2.49,.63-.75,.16-1.52,.31-2.29,.23-.52-.06-1.01-.28-1.31-.67,.4,.21,.88,.31,1.3,.37,.68,.09,1.36,.06,2.04-.03,1.35-.18,2.67-.59,3.89-1.18,2.43-1.15,4.51-3,5.99-5.24,.85-1.28,1.49-2.71,1.83-4.21,.01-.05,0-.1,0-.15,.59-.16,1.18-.31,1.78-.45,1.66-.39,3.34-.66,5.02-.9,.2,.01,.41,.02,.61,.03Zm-27.24-14.41c-.37-.45-.71-.92-1.05-1.39,2,.63,3.83,1.73,5.34,3.18,.79,.76,1.48,1.61,2.07,2.54,.29,.45,.55,.93,.79,1.41,.12,.25,.22,.5,.33,.76-2.81-1.77-5.37-3.92-7.47-6.5Zm9.76,7.84c-.58-.31-1.14-.64-1.7-.98-.16-.72-.53-1.44-.87-2.07-.42-.77-.93-1.5-1.49-2.18-1.15-1.38-2.56-2.55-4.14-3.41-.89-.48-1.82-.87-2.79-1.14-.07-.02-.12,0-.17,.02-.14-.21-.29-.42-.43-.64-.27-.43-.53-.88-.76-1.33-.19-.37-.39-.84-.29-1.26,5.26,1.7,9.79,5.49,12.58,10.24,.4,.68,.77,1.39,1.09,2.11,.22,.49,.4,1,.6,1.49-.55-.26-1.09-.54-1.63-.83Zm2.07,1.03c-.13-.55-.37-1.08-.58-1.6-.28-.66-.6-1.31-.94-1.94-.69-1.27-1.5-2.46-2.42-3.58-1.83-2.23-4.06-4.13-6.57-5.57-1.26-.72-2.6-1.32-3.97-1.79,.56-.58,1.81-.48,2.5-.43,.17,.01,.34,.04,.52,.06,4.96,2.84,9.16,6.93,12.09,11.84,.43,.72,.84,1.46,1.22,2.21,.19,.38,.37,.76,.54,1.14,.15,.33,.23,.7,.56,.88,.02,.01,.04,0,.05-.02,.09-.31-.05-.55-.18-.84-.15-.35-.31-.7-.47-1.05-.33-.69-.68-1.37-1.05-2.04-.73-1.3-1.56-2.54-2.47-3.73-1.81-2.38-3.93-4.5-6.3-6.32-.82-.63-1.67-1.21-2.54-1.76,.36,.11,.72,.23,1.08,.37,1.98,.8,3.74,2.06,5.4,3.39,1.76,1.41,3.42,2.94,5.01,4.55,3.01,3.05,5.71,6.38,8.38,9.72-3.36-.92-6.68-2.03-9.84-3.51Z"/>
  </g>
</svg>