<?xml version="1.0" encoding="UTF-8"?>
<svg id="Layer_2" data-name="Layer 2" xmlns="http://www.w3.org/2000/svg" viewBox="0 0 101.57 27.51">
  <defs>
    <style>
      .cls-1 {
        fill: #B99470;
      }
    </style>
  </defs>
  <g id="OBJECTS">
    <path class="cls-1" d="M41.5,27.51c.31,0,.38-.47,.07-.55-7.18-1.73-11.38-8.51-17.21-12.5,3.13,1.07,6.33,1.94,9.57,2.58,3,.59,6.03,.99,9.07,1.2,6.96,1.95,13,6.79,20.19,8.16,2.27,.43,4.59,.49,6.85,0,.28-.06,.28-.51,0-.57-.17-.03-.34-.08-.51-.12-.04-.13-.16-.23-.33-.18-.07,.02-.14,.03-.21,.05-5.56-1.5-10.07-5.56-15.5-7.38,2.53-.21,5.03-.55,7.52-.98,5.84,.71,10.7,4.84,16.21,6.64,1.66,.54,3.39,.85,5.13,.79,.27,0,.45-.37,.23-.56-4.51-4.15-10.32-6.78-16.41-7.52-.34-.04-.69-.08-1.03-.11,3.06-.59,6.11-1.21,9.18-1.73,2.7-.46,5.42-.82,8.15-.99,5.08,2.4,8.96,6.73,14.01,9.19,1.49,.73,3.06,1.27,4.7,1.53,.27,.04,.51-.27,.28-.49-.12-.11-.24-.22-.35-.34-.02-.09-.07-.17-.19-.2,0,0-.02,0-.02,0-4.15-3.95-8.61-7.9-14.15-9.69-.12-.04-.25-.07-.37-.11,3.27,.06,6.45,.5,9.64,1.29,.88,.22,1.74,.45,2.6,.75,.38,.13,.65-.5,.28-.67-1.65-.72-3.29-1.3-5.05-1.68-1.75-.37-3.53-.6-5.32-.71-3.6-.23-7.22,0-10.79,.48-2.03,.27-4.04,.61-6.05,.99,2.27-.78,4.64-1.24,7.04-1.54,3.49-.44,7.02-.64,10.45-1.45,1.88-.45,3.72-1.1,5.42-2.05,.2-.11,.17-.46-.07-.51-7.07-1.35-14.49-.28-20.94,2.91-1.8,.89-3.6,1.93-5.15,3.22-.02,.01-.03,.03-.04,.05-4.07,.8-8.13,1.63-12.25,2.13-2.31,.28-4.62,.43-6.95,.48-.49-.03-.99-.03-1.48,0-.31,0-.61,0-.92,0,3.31-.34,6.57-1.18,9.64-2.48,1.81-.77,3.55-1.71,5.19-2.81,.21-.14,.17-.45-.07-.53-3.44-1.18-7.14-.52-10.51,.59-3.39,1.11-6.6,2.71-10.06,3.6-1.38,.35-2.8,.55-4.22,.55-.25-.04-.51-.08-.75-.13-.09-.02-.16,.04-.19,.1-.28-.02-.55-.04-.83-.08-.05,0-.09,.01-.12,.04-4.75-.85-9.43-2.17-13.92-3.93,.07,.01,.14,.02,.21,.03,3.12,.42,6.26,.2,9.39,.13,1.93-.04,3.87,0,5.78,.28,.32,.05,.44-.38,.13-.49-6.18-2.12-12.44-4.35-19.02-4.68-1.79-.09-3.58-.03-5.35,.2-.19-.02-.38-.04-.57-.05-.02,0-.03,.01-.04,.02C8.28,5.84,5.2,3.79,2.22,1.57,1.55,1.07,.88,.55,.22,.03,.1-.07-.08,.1,.04,.21,4.29,4.27,9.26,7.58,14.49,10.26c6.25,5.74,11.83,12.75,19.97,15.88,2.25,.86,4.63,1.36,7.04,1.36Zm44.62-12.23c-.81-.52-1.65-.97-2.52-1.39,2.3,.66,4.35,1.87,6.28,3.31,2.22,1.66,4.28,3.55,6.67,4.98,.43,.26,.87,.5,1.33,.73-4.31-1.73-7.87-5.16-11.76-7.63Zm-.07-1.16c1.41,.41,2.77,.98,4.07,1.66,2.63,1.38,4.99,3.2,7.21,5.16,.77,.67,1.51,1.36,2.26,2.06-.87-.3-1.71-.67-2.53-1.14-1.21-.69-2.35-1.5-3.45-2.34-2.26-1.71-4.43-3.58-6.98-4.87-.81-.41-1.66-.75-2.53-.99,.66,.12,1.31,.27,1.95,.45Zm7.54-5.2c-5.95,2.95-12.9,2.32-19.26,3.83,.08-.03,.16-.07,.24-.1,1.43-.54,2.89-1.02,4.36-1.45,2.97-.86,6.03-1.45,9.1-1.79,1.71-.19,3.43-.31,5.15-.37,.1,0,.13-.1,.09-.17,.1,.02,.21,.03,.31,.05Zm-20.38,3.38c1.57-.84,3.21-1.54,4.91-2.1,3.34-1.12,6.86-1.7,10.39-1.7,1.47,0,2.94,.12,4.4,.32-6.08,.02-12.19,1.17-17.92,3.16-.81,.28-1.62,.58-2.42,.9-.36,.15-.74,.29-1.11,.45,.57-.36,1.15-.71,1.75-1.03Zm-8.76,4.79c.36,.02,.72,.03,1.09,.07,1.48,.14,2.95,.41,4.39,.78,2.89,.75,5.66,1.94,8.19,3.53,1.18,.74,2.3,1.58,3.36,2.49-.14,0-.28-.02-.41-.03,0-.04-.02-.08-.05-.11-.41-.45-1.09-.74-1.62-1.05-.58-.34-1.17-.66-1.77-.97-1.19-.62-2.41-1.2-3.65-1.72-2.45-1.02-4.97-1.89-7.55-2.54-.65-.17-1.31-.31-1.97-.45Zm-1.89-.06c2.37,.45,4.71,1.03,7,1.78,2.54,.84,4.98,1.93,7.34,3.18,.66,.35,1.31,.71,1.96,1.09,.32,.19,.64,.38,.96,.58,.08,.05,.15,.1,.23,.15-2.36-.35-4.62-1.26-6.77-2.3-2.87-1.39-5.67-3-8.71-3.98-.66-.21-1.33-.37-2-.5Zm-17.61-2.05c3.4-1.23,6.72-2.8,10.32-3.36,1.85-.29,3.74-.26,5.55,.24-.06,.04-.13,.08-.19,.12-6.34-.39-12.15,2.94-18.26,4.04-.54,.1-1.08,.16-1.61,.2,1.43-.3,2.84-.74,4.19-1.23Zm-3.36,1.67c1.56-.23,3.08-.62,4.59-1.07,3.07-.92,6.08-2.1,9.21-2.8,1.6-.36,3.24-.57,4.89-.58-5.52,3.36-12.01,4.94-18.46,4.61-.3-.02-.59-.04-.89-.06,.22-.03,.44-.06,.66-.09Zm22.55,8.79c.71,.29,1.44,.54,2.18,.68-2.99-.08-5.94-.94-8.71-2.07-3.92-1.61-7.6-3.77-11.57-5.26,2.86,.58,5.68,1.35,8.43,2.33,1.74,.62,3.45,1.33,5.12,2.12,1.52,.72,2.99,1.56,4.55,2.21Zm-12.42-7.14c1.39,.33,2.73,.82,4.03,1.41,3.07,1.4,5.86,3.33,8.89,4.81,.96,.47,1.95,.89,2.96,1.24-1.07,0-2.13-.28-3.14-.68-1.6-.63-3.09-1.49-4.65-2.21-3.18-1.46-6.48-2.65-9.85-3.54-1.47-.39-2.95-.71-4.45-.97,2.07,.07,4.14,.05,6.21-.06Zm-31.67-5.46c.31,.13,.62,.25,.93,.37,.77,.33,1.51,.7,2.24,1.15,1.6,.99,3.06,2.19,4.46,3.44,2.71,2.44,5.21,5.13,8.24,7.18,.17,.12,.35,.23,.53,.34-.67-.27-1.34-.55-2-.87-1.79-.86-3.5-1.88-5.1-3.04-1.61-1.17-3.08-2.5-4.49-3.9-1.3-1.29-2.57-2.62-3.98-3.78-.48-.4-.99-.78-1.51-1.13,.23,.08,.45,.16,.67,.24Zm11.09-1.96c.27,.09,.53,.18,.8,.27-5.11-1.23-10.3-2.12-15.5-2.88-.61-.09-1.23-.18-1.84-.27,5.63-.22,11.21,1.16,16.54,2.89Zm-18.51-2.63c1.07,.16,2.15,.26,3.22,.41,1.48,.21,2.96,.41,4.44,.65,2.9,.46,5.79,.99,8.67,1.55,1.33,.26,2.65,.52,3.97,.78-.11,0-.22,.01-.33,.01-.75,0-1.49-.01-2.23-.04-1.52-.06-3.03-.18-4.53-.35-3.07-.34-6.1-.94-9.08-1.75-1.39-.38-2.76-.83-4.13-1.26Zm5.37,2.72s-.07-.03-.11-.04c-1.09-.49-2.17-1-3.23-1.54-.05-.03-.09-.07-.14-.1,1.97,.68,4.01,1.2,6.01,1.63,2.12,.46,4.27,.79,6.44,1-3.03,.06-6.04,0-8.97-.95Zm11.56,12.01c-3.66-2.36-6.75-5.42-9.87-8.43-1.13-1.09-2.28-2.17-3.45-3.22,3.26,1.32,5.7,4.04,8.14,6.49,2.79,2.79,5.87,5.19,9.41,6.94,1,.49,2.02,.94,3.06,1.33,.53,.2,1.06,.39,1.6,.56,.03,0,.06,.02,.09,.03-3.2-.56-6.24-1.93-8.98-3.7Z"/>
  </g>
</svg>