<?xml version="1.0" encoding="UTF-8"?>
<svg id="Layer_2" data-name="Layer 2" xmlns="http://www.w3.org/2000/svg" viewBox="0 0 98.71 34.28">
  <defs>
    <style>
      .cls-1 {
        fill: #fff;
      }
    </style>
  </defs>
  <g id="OBJECTS">
    <path class="cls-1" d="M66.98,29.39c7.79-3.91,12.65-11.44,18.31-17.77,4.94-3.18,9.56-6.97,13.39-11.42,.11-.13-.08-.28-.2-.16-.6,.58-1.22,1.16-1.84,1.73-2.75,2.5-5.61,4.84-8.62,6.98-.02,0-.03-.02-.05-.01-.19,.03-.38,.07-.57,.1-1.79-.05-3.58,.06-5.35,.33-6.52,.98-12.53,3.81-18.47,6.53-.3,.14-.14,.56,.18,.48,1.88-.48,3.8-.7,5.72-.85,3.12-.24,6.27-.33,9.33-1.05,.07-.02,.14-.04,.21-.05-4.3,2.19-8.82,3.96-13.47,5.28-.03-.03-.07-.04-.12-.03-.27,.06-.54,.12-.82,.16-.04-.06-.1-.11-.2-.08-.24,.07-.49,.14-.74,.21-1.41,.14-2.84,.09-4.26-.13-3.54-.54-6.89-1.82-10.37-2.59-3.46-.77-7.2-1.07-10.51,.45-.23,.11-.25,.41-.02,.53,1.74,.93,3.56,1.69,5.44,2.28,3.18,1,6.5,1.5,9.84,1.52-.3,.03-.61,.06-.91,.09-.49,.01-.99,.06-1.48,.14-2.31,.18-4.64,.25-6.96,.21-4.15-.09-8.28-.51-12.4-.91-.01-.02-.02-.03-.04-.04-1.67-1.13-3.56-1.99-5.44-2.7-6.73-2.53-14.22-2.87-21.12-.83-.24,.07-.23,.42-.02,.51,1.78,.77,3.67,1.25,5.59,1.5,3.49,.47,7.03,.32,10.54,.41,2.42,.06,4.82,.29,7.16,.84-2.03-.17-4.07-.32-6.11-.39-3.6-.12-7.23,0-10.79,.58-1.77,.29-3.52,.69-5.22,1.23-1.71,.55-3.29,1.29-4.86,2.17-.36,.2-.03,.81,.34,.64,.82-.38,1.66-.7,2.51-1,3.09-1.1,6.22-1.85,9.47-2.23-.12,.05-.24,.09-.36,.14-5.34,2.33-9.38,6.69-13.13,11.03,0,0-.01,0-.02,0-.11,.04-.16,.13-.17,.21-.11,.12-.21,.25-.32,.37-.21,.24,.07,.53,.33,.46,1.6-.42,3.12-1.12,4.52-1.99,4.79-2.95,8.22-7.64,13.04-10.53,2.74-.1,5.48,0,8.21,.19,3.1,.22,6.2,.54,9.3,.82-.34,.07-.68,.14-1.02,.21-5.98,1.33-11.5,4.52-15.59,9.09-.19,.22,.01,.56,.29,.54,1.74-.12,3.43-.59,5.03-1.29,5.31-2.33,9.74-6.93,15.48-8.2,2.52,.18,5.05,.28,7.58,.23-5.23,2.35-9.31,6.83-14.7,8.87-.07-.01-.14-.02-.21-.03-.17-.04-.28,.08-.31,.21-.16,.06-.32,.12-.49,.17-.28,.09-.23,.53,.05,.57,2.3,.27,4.61-.01,6.82-.67,7.02-2.07,12.55-7.48,19.29-10.1,3.01-.51,5.99-1.2,8.91-2.08,3.17-.96,6.26-2.13,9.27-3.51-5.41,4.55-8.92,11.71-15.9,14.14-.3,.1-.19,.57,.12,.54,2.4-.24,4.72-.97,6.87-2.05ZM3.55,32.42c.43-.27,.85-.56,1.25-.86,2.24-1.66,4.1-3.74,6.15-5.62,1.78-1.63,3.7-3.03,5.92-3.91-.82,.5-1.61,1.04-2.37,1.63-3.62,2.84-6.84,6.61-10.95,8.76Zm12.8-10.56c-.85,.32-1.65,.75-2.42,1.23-2.41,1.53-4.38,3.6-6.46,5.53-1.02,.95-2.07,1.87-3.21,2.67-.77,.54-1.57,.99-2.41,1.38,.67-.76,1.35-1.53,2.05-2.27,2.02-2.16,4.19-4.21,6.67-5.84,1.23-.81,2.52-1.51,3.89-2.06,.62-.25,1.25-.46,1.9-.64Zm-9.6-3.87c-.03,.07,0,.17,.11,.16,1.72-.11,3.44-.16,5.17-.14,3.09,.04,6.19,.32,9.23,.88,1.51,.28,3,.62,4.48,1.01,.08,.02,.17,.05,.25,.07-6.47-.88-13.33,.44-19.54-1.91,.1-.03,.21-.05,.31-.08Zm22.15,2.28c-.38-.12-.77-.22-1.15-.33-.83-.24-1.66-.46-2.5-.66-5.9-1.42-12.09-1.95-18.14-1.38,1.43-.35,2.88-.61,4.35-.76,3.51-.35,7.07-.12,10.51,.67,1.74,.39,3.44,.93,5.09,1.61,.63,.26,1.24,.55,1.84,.85Zm5.43,3.7c-2.5,.91-4.92,2.02-7.26,3.27-1.19,.64-2.34,1.33-3.47,2.07-.56,.37-1.12,.75-1.66,1.14-.49,.35-1.14,.71-1.51,1.2-.03,.03-.03,.07-.04,.11-.14,.02-.27,.06-.41,.07,.96-1.01,1.99-1.96,3.1-2.81,2.36-1.83,5-3.29,7.8-4.32,1.4-.51,2.83-.92,4.29-1.21,.36-.07,.72-.12,1.07-.17-.64,.2-1.28,.41-1.92,.64Zm1.85-.19c-2.94,1.28-5.56,3.16-8.28,4.82-2.04,1.24-4.2,2.37-6.51,2.95,.07-.06,.14-.11,.21-.17,.3-.23,.6-.45,.9-.67,.6-.44,1.22-.87,1.84-1.28,2.23-1.48,4.56-2.8,7-3.88,2.2-.98,4.48-1.78,6.79-2.46-.66,.19-1.3,.42-1.94,.69Zm23.56-3.65c-.54,0-1.08,0-1.62-.04-6.19-.49-12.3-3.23-18.57-2.22-.07-.03-.13-.06-.2-.1,1.75-.68,3.62-.89,5.5-.79,3.64,.2,7.1,1.44,10.6,2.33,1.4,.35,2.84,.66,4.29,.82Zm-.12,.54c-.29,.05-.59,.11-.88,.15-6.39,.97-13,.03-18.83-2.77,1.64-.15,3.29-.11,4.92,.09,3.19,.4,6.29,1.27,9.44,1.88,1.54,.3,3.1,.54,4.67,.62,.22,.01,.44,.02,.67,.03Zm-17.94,8.3c1.59-.95,3.22-1.82,4.89-2.61,2.64-1.24,5.37-2.28,8.16-3.14-3.81,1.88-7.25,4.39-11,6.37-2.64,1.4-5.5,2.55-8.46,2.92,.72-.22,1.43-.53,2.1-.89,1.49-.8,2.86-1.78,4.31-2.64Zm13.54-6.24c-1.46,.41-2.91,.87-4.33,1.4-3.27,1.22-6.44,2.73-9.46,4.5-1.48,.86-2.89,1.87-4.41,2.65-.96,.49-1.99,.88-3.06,.98,.97-.44,1.91-.96,2.82-1.52,2.87-1.77,5.46-3.96,8.38-5.66,1.23-.72,2.52-1.34,3.87-1.8,2.07-.09,4.13-.28,6.19-.55Zm25.44-8.3c-.48,.4-.95,.83-1.39,1.27-1.29,1.3-2.43,2.74-3.59,4.16-1.26,1.53-2.59,3.01-4.08,4.33-1.48,1.31-3.08,2.5-4.78,3.53-.62,.38-1.26,.73-1.9,1.06,.17-.13,.33-.26,.49-.39,2.82-2.34,5.04-5.27,7.5-7.96,1.27-1.39,2.6-2.72,4.1-3.86,.68-.52,1.38-.96,2.11-1.36,.3-.15,.59-.3,.89-.46,.21-.1,.43-.2,.65-.31Zm4.3-5.05c-.6,.15-1.21,.3-1.81,.45-5.09,1.27-10.18,2.67-15.14,4.39,.26-.12,.51-.23,.77-.35,5.14-2.25,10.56-4.17,16.18-4.5Zm-2,1.72c-2.88,1.1-5.85,1.99-8.86,2.63-1.48,.32-2.97,.59-4.48,.79-.74,.1-1.48,.19-2.22,.26-.11,.01-.22,.01-.33,.02,1.29-.39,2.59-.78,3.88-1.17,2.81-.85,5.64-1.65,8.48-2.4,1.45-.38,2.9-.73,4.35-1.08,1.05-.25,2.11-.47,3.16-.73-1.32,.57-2.64,1.15-3.99,1.66Zm-9.92,3.4c2.13-.42,4.24-.96,6.31-1.63,1.96-.63,3.94-1.34,5.83-2.21-.04,.04-.09,.08-.13,.11-1,.64-2.02,1.26-3.06,1.85-.04,.02-.07,.04-.11,.05-2.82,1.23-5.81,1.59-8.83,1.83Zm-10.06,15.82s.06-.03,.09-.04c.52-.22,1.03-.46,1.54-.71,1-.49,1.97-1.03,2.91-1.62,3.36-2.1,6.18-4.79,8.68-7.84,2.19-2.67,4.34-5.63,7.46-7.26-1.06,1.16-2.1,2.34-3.12,3.54-2.81,3.3-5.59,6.65-8.99,9.36-2.55,2.02-5.44,3.7-8.57,4.56Z"/>
  </g>
</svg>