<?xml version="1.0" encoding="UTF-8"?>
<svg id="Layer_2" data-name="Layer 2" xmlns="http://www.w3.org/2000/svg" viewBox="0 0 78.87 43.64">
  <defs>
    <style>
      .cls-1 {
        fill: #ffff;
        stroke: #ffff;
        stroke-miterlimit: 10;
        stroke-width: .5px;
      }
    </style>
  </defs>
  <g id="OBJECTS">
    <g>
      <path class="cls-1" d="M63.69,15.95c2.24,.03,4.48,.05,6.73,.09,.12,0,.24,.1,.36,.15,0,0,.02,.02,.03,.03,0-.02-.01-.03-.02-.05,.3-.05,.61-.18,.89-.13,2.11,.37,4.21,.77,6.31,1.17,.08,.02,.15,.13,.29,.25-.31,.02-.54,.04-.77,.06l-.04-.02h.04c.13,.07,.27,.14,.4,.22,0,.04,0,.08-.01,.12,0,.06-.02,.12-.03,.17v-.02c-1.69-.29-3.38-.61-5.08-.87-1.63-.26-3.26-.52-4.89-.68-.99-.1-2,0-3-.04-.94-.03-1.7,.34-2.4,.91-1.84,1.51-3.69,3.02-5.53,4.52-.13,.11-.27,.21-.44,.26,1.85-2.13,4-3.91,6.37-5.51-.51,.07-1.03,.09-1.52,.21-2.9,.72-5.72,1.67-8.43,2.94-2.8,1.31-5.6,2.61-8.43,3.85-2.08,.91-4.21,1.71-6.32,2.56-.21,.09-.41,.22-.61,.34h.01c-.08,0-.16-.01-.25-.02h.02c-1.29,.36-2.56,.79-3.86,1.07-1.89,.41-3.79,.76-5.7,1.04-1.26,.18-2.2,.96-3.26,1.5-1.56,.8-3.07,1.72-4.6,2.6-.27,.15-.54,.33-.75,.55-.99,1.08-1.88,2.26-2.96,3.25-1.4,1.28-3.1,2.09-4.99,2.44-.58,.11-1.16,.23-1.75,.28-.23,.02-.47-.15-.71-.23,.1-.23,.14-.51,.3-.67,2.42-2.37,5.14-4.22,8.51-4.97,.39-.09,.79-.16,1.18-.23-.06,.15-.12,.3-.19,.46-.05-.05-.12-.16-.15-.15-3.01,.77-5.75,2.05-8.06,4.17-.43,.39-.78,.87-1.17,1.3-.03-.04-.05-.07-.08-.11,.03,.04,.05,.07,.08,.1,.48-.05,.96-.05,1.43-.15,1.72-.34,3.36-.96,4.72-2.04,1.17-.93,2.16-2.09,3.23-3.14,.05-.15,.1-.3,.16-.46,2.36-1.37,4.72-2.74,7.08-4.11l-.04-.18c-1.05,.01-2.11,.07-3.16,.03-1.71-.07-3.41-.2-5.11-.31,0-.03,0-.07,.01-.1,.58,0,1.16,.01,1.85,.02-.76-.63-1.46-1.21-2.15-1.78,.07-.06,.13-.13,.2-.19,.01,.05,.02,.09,.03,.13,.03-.02,.05-.03,.08-.05-.04-.02-.08-.04-.12-.07-.08-.04-.16-.08-.24-.12,.02,.1,.05,.19,.07,.29-.28-.4-.56-.8-.84-1.19,.02,.03,.04,.06,.06,.09,0-.01,0-.03,0-.03-.02-.01-.04-.02-.06-.03-1.48-.95-3.1-1.73-4.4-2.89-2.01-1.79-3.27-4.12-3.6-6.84-.08-.66,.12-1.37,.24-2.05,.03-.17,.24-.31,.37-.46,.13,.12,.29,.23,.39,.37,1.18,1.66,2.31,3.36,3.54,4.97,1.14,1.49,2.22,3,2.92,4.75,.12,.29,.09,.64,.14,.97-.91-2.44-2.46-4.46-4.14-6.41-.89-1.04-1.61-2.24-2.4-3.36-.1-.14-.21-.29-.32-.43-.09,.17-.19,.34-.25,.52-.03,.09-.02,.2-.02,.3-.04,1.6,.34,3.09,1.19,4.46,1.43,2.31,2.97,4.48,5.95,4.91,.33,.46,.62,.97,1.01,1.38,.77,.81,1.53,1.65,2.41,2.31,.49,.36,1.23,.57,1.85,.54,2.7-.1,5.39-.3,8.09-.49,.5-.03,.99-.16,1.45-.24-1.7-1.12-3.39-2.25-5.1-3.36-1.02-.66-2.1-1.23-3.07-1.96-1.08-.81-2.13-1.69-3.06-2.66-.94-.97-1.81-2.04-2.54-3.17-.89-1.39-1.12-2.98-.93-4.62,.01-.1,.16-.24,.24-.24,.11,0,.27,.09,.32,.19,.82,1.58,2.11,2.76,3.4,3.93,1.02,.92,2.15,1.7,3.19,2.59,1.73,1.47,3.56,2.85,4.55,5,.11,.23,.15,.49,.22,.73-.03,0-.06,0-.09,0-.1-.18-.24-.35-.31-.54-.5-1.41-1.63-2.33-2.68-3.28-1.22-1.11-2.58-2.05-3.83-3.12-1.57-1.35-3.25-2.62-4.36-4.44-.04-.07-.17-.08-.26-.12-.03,.07-.09,.15-.08,.21,.13,.81,.15,1.65,.43,2.41,.72,1.97,2.09,3.52,3.64,4.86,2.1,1.82,4.4,3.37,6.84,4.7,.18,.1,.44,.07,.66,.1h-.03c.08,.27,.07,.62,.24,.79,.36,.36,.84,.59,1.23,.93,1.39,1.22,2.9,.88,4.41,.37,2.55-.87,5.11-1.73,7.64-2.67,1.18-.43,2.3-1.01,3.44-1.53h-.02s.09-.07,.14-.11v.02c1.26-.54,2.54-1.06,3.8-1.62,2.09-.92,4.15-1.93,6.27-2.77,1.82-.72,3.71-1.28,5.58-1.86,.9-.28,1.83-.43,2.75-.64h-.03c.08,0,.17,.02,.25,.03v-.02Zm11.84,1.1c.07,.03,.14,.06,.21,.09,.09-.05,.17-.1,.26-.14,.09,.11,.19,.22,.28,.34,.15,0,.3-.01,.45-.02,0,0,.02,0,.03,.01-.01,0-.02-.01-.04-.02-.15,.01-.3,.03-.45,.04-.09-.11-.19-.23-.29-.34-.08,.05-.17,.11-.25,.16-.07-.03-.14-.06-.21-.09-.08,0-.16,.01-.24,.02-.1-.09-.2-.19-.31-.28-.14,0-.28,.02-.42,.03-.08-.02-.17-.03-.25-.05-.15-.06-.3-.12-.46-.17-.02,0-.07,.06-.1,.09,.19,.02,.38,.04,.56,.06,.08,.02,.17,.03,.25,.05,.14,0,.28-.01,.42-.02,.1,.09,.21,.18,.31,.27,.08,0,.16,0,.24,0Zm-3.72-.66s-.03,.02-.05,.03c.03,.01,.06,.02,.08,.03,0,0,.02-.03,.03-.05-.02,0-.04,0-.06-.01ZM16.9,25.9c-.06-.03-.1-.06-.14-.08,0,.06,0,.12,.03,.18,.02,.03,.07,.05,.11,.07,0-.06,0-.12,0-.17Zm56.3-9.39s-.03,.06-.02,.07c.04,.03,.08,.05,.12,.08,0-.02,.02-.06,.01-.07-.03-.03-.08-.05-.11-.08ZM26.11,28.83v-.05s-.04,.02-.04,.02l.04,.02Zm-7.68-1.4h-.04s.02,.04,.02,.04l.02-.04Z"/>
      <path class="cls-1" d="M62.27,15.44c-.68-.24-1.37-.44-2.02-.74-.38-.17-.65-.31-1.12-.16-.34,.11-.86-.12-1.23-.33-1.15-.63-1.97-1.61-2.77-2.64-1.05-1.36-2.26-2.6-3.38-3.91-1.3-1.52-2.54-3.08-2.9-5.14-.1-.6-.31-1.19-.36-1.8-.03-.4,.27-.47,.53-.16,1.62,1.91,3.9,2.98,5.78,4.56,1.54,1.3,2.92,2.75,3.6,4.71,.45,1.29,.87,2.6,1.39,3.87,.16,.39,.56,.72,.92,.96,.48,.33,1.04,.55,1.56,.81v-.02Zm-3.15-2.57c-.24-.66-.52-1.3-.72-1.98-.83-2.86-2.87-4.79-5.14-6.46-1.47-1.08-3.09-1.96-4.53-3.47,.25,.77,.4,1.33,.61,1.87,.51,1.36,1.13,2.65,2.12,3.76,1.52,1.72,2.98,3.51,4.48,5.26,.76,.89,1.49,1.81,2.63,2.26,.22,.09,.49,.06,.74,.09-.02-.2-.05-.39-.07-.59-.03-.25-.06-.51-.1-.75,0,.04,.02,.07,.03,.11,0-.01,0-.03,0-.04,0-.02-.02-.04-.03-.06Z"/>
      <path class="cls-1" d="M50.1,17.01c-3.2-.52-6.14-1.5-8.6-3.81-2.38-2.23-4.07-4.9-5.76-7.61-.34-.54-.72-1.05-1.05-1.59-.11-.18-.13-.43-.19-.65,.23-.02,.51-.13,.69-.04,1.16,.57,2.42,1.03,3.43,1.8,1.93,1.47,3.76,3.07,5.55,4.72,.83,.76,1.46,1.75,2.16,2.64,.67,.86,1.32,1.74,1.97,2.61,.03,.04,.1,.08,.1,.11,.04,1.09,.9,1.43,1.69,1.84v-.03Zm-5.21-5.8c-1.5-1.42-2.94-2.92-4.53-4.25-1.14-.95-2.47-1.68-3.74-2.47-.39-.24-.87-.35-1.31-.52,.23,.42,.46,.83,.69,1.25,1.78,3.24,3.82,6.28,6.75,8.62,1.49,1.19,3.17,2.04,5.06,2.43,.16,.03,.34-.03,.51-.06-.06-.14-.09-.29-.17-.4-1.07-1.53-2.15-3.05-3.25-4.6Z"/>
      <path class="cls-1" d="M50.36,25.24c1.62-.82,3.25-1.64,4.88-2.46,.43-.21,.62-.2,.63,.43,0,1.65-.74,2.95-1.84,4.05-1.42,1.43-2.84,2.87-4.42,4.11-2.27,1.77-4.69,3.36-7.32,4.59-.23,.11-.53,.08-.79,.11,.09-.23,.12-.52,.27-.7,2.52-3.01,5.04-6.01,7.59-9,.31-.37,.73-.65,1.1-.96-.03-.05-.05-.11-.08-.16Zm5.13-2.29c-1.18,.6-2.33,1.12-3.4,1.75-1.81,1.07-3.22,2.62-4.57,4.19-1.18,1.37-2.32,2.78-3.48,4.17-.71,.85-1.4,1.72-2.1,2.58,1.38-.65,2.68-1.38,3.95-2.16,2.81-1.75,5.48-3.69,7.67-6.18,1.08-1.23,2.13-2.54,1.93-4.36Z"/>
      <path class="cls-1" d="M36.82,20.5c-2.34,.47-4.34-.36-6.11-1.76-2.13-1.68-4.19-3.45-6.23-5.23-1.04-.91-1.99-1.93-2.97-2.91-.08-.08-.13-.35-.11-.36,.2-.09,.44-.24,.63-.2,.81,.16,1.63,.3,2.4,.6,1.52,.59,3.07,1.17,4.5,1.94,1.74,.94,3.38,2.09,4.62,3.69,.87,1.13,1.66,2.32,2.51,3.47,.21,.28,.52,.48,.78,.72v.05Zm-3.51-3.93c-.72-.64-1.64-1.45-2.57-2.26-1.3-1.13-2.85-1.82-4.4-2.48-1.09-.46-2.23-.77-3.36-1.12-.21-.07-.47,0-.7,0,.12,.18,.21,.4,.36,.55,1.06,1,2.12,1.99,3.2,2.96,2.36,2.14,4.58,4.47,7.59,5.75,.56,.24,1.19,.35,1.8,.44,.46,.07,.7-.08,.32-.59-.72-.98-1.38-2-2.24-3.24Z"/>
      <path class="cls-1" d="M37.43,26.59c-.65,.7-1.35,1.36-1.95,2.1-.4,.5-.66,1.1-.95,1.67-.06,.12,0,.3,.02,.45,.1,.62,.35,1.26,.3,1.86-.14,1.58-.64,3.1-1.58,4.38-1.14,1.55-2.4,3.02-3.67,4.47-.55,.62-1.25,1.11-1.9,1.64-.14,.11-.37,.11-.56,.16-.04-.21-.16-.46-.09-.63,1.31-3.18,2.06-6.59,4.05-9.47,.11-.16,.29-.27,.44-.41h-.02c-.15,.31-.25,.67-.44,.96-1.35,2.05-2.03,4.38-2.86,6.65-.3,.8-.61,1.59-.78,2.54,.41-.32,.86-.6,1.22-.97,1.85-1.88,3.76-3.72,4.87-6.18,.61-1.35,1.18-2.72,.95-4.25-.03-.23-.28-.44-.3-.67-.03-.29,.04-.6,.14-.87,.47-1.19,1.33-2.08,2.27-2.91,.25-.22,.5-.43,.76-.65h-.02s.07,.1,.11,.14h0Z"/>
      <path class="cls-1" d="M10.68,28.41c-1.59,.26-3.1-.13-4.54-.71-2.05-.82-3.84-2.07-5.24-3.8-.3-.37-.74-.95-.63-1.27,.22-.7,.86-.16,1.26-.07,1.95,.48,3.99,.81,5.78,1.65,1.76,.83,3.26,2.21,4.88,3.34,.25,.17,.53,.31,.79,.47h0c-.53,.35-1.08,.58-1.72,.38,0-.03,0-.06,0-.09,.27-.09,.54-.18,.81-.26,0,.01,0,.03,0,.04,0-.01,.02-.02,.02-.03-.16-.11-.34-.2-.49-.33-1.54-1.36-3.07-2.76-5.08-3.38-1.72-.53-3.48-.95-5.22-1.41-.21-.05-.43-.04-.65-.05,.08,.21,.1,.48,.25,.63,.69,.69,1.36,1.4,2.12,2.01,2.06,1.63,4.39,2.6,7.04,2.74,.21,.01,.42,.11,.63,.17v-.02Z"/>
      <path class="cls-1" d="M17.51,28.51c-.51-.02-1.03-.03-1.54-.07-1.1-.1-1.56,.33-2.05,1.32-1.03,2.11-2.51,3.84-4.86,4.57-.78,.24-1.6,.39-2.41,.51-.26,.04-.56-.15-.84-.23,.13-.23,.23-.5,.41-.69,.68-.74,1.41-1.42,2.06-2.18,1.24-1.44,2.9-2.02,4.67-2.46,.54-.13,1.04-.46,1.55-.72,0,0-.06-.27-.12-.29-.31-.09-.64-.14-.96-.21v.02c1.11,.07,2.23,.15,3.34,.23,.25,.02,.5,.07,.75,.11,0,.03,0,.07-.01,.1Zm-8.36,2.87c-.84,.88-1.68,1.75-2.52,2.64-.08,.08-.09,.21-.14,.32,.12,.02,.25,.07,.37,.06,1.31-.1,2.54-.46,3.64-1.18,1.35-.87,2.26-2.14,3.08-3.48,.04-.06,.02-.14,.03-.22-.11,0-.23,0-.34,.02-1.47,.39-2.99,.65-4.12,1.84Z"/>
      <path class="cls-1" d="M44.85,22.68c-.31,.06-.64,.23-.94,.17-2.48-.44-4.84-1.22-7.09-2.35v-.05c1.92,.61,3.82,1.24,5.75,1.81,.74,.22,1.52,.3,2.28,.44v-.02Z"/>
      <path class="cls-1" d="M31.54,32.82c.3-.46,.58-.94,.92-1.37,.47-.59,1-1.15,1.5-1.72,.06,.04,.13,.08,.19,.12-.13,.2-.24,.41-.39,.59-.55,.66-1.1,1.33-1.68,1.97-.15,.17-.38,.27-.57,.4,0,0,.02,.01,.02,.01Z"/>
      <path class="cls-1" d="M51.2,17.33c1.03,.29,2.07,.59,3.1,.88-.03,.09-.06,.17-.08,.26-1.01-.35-2.02-.7-3.03-1.05,0-.03,0-.06,.01-.1Z"/>
      <path class="cls-1" d="M50.1,17.03c.37,.1,.73,.2,1.1,.3,0,.03,0,.06-.01,.1-.36-.14-.72-.28-1.08-.42v.02Z"/>
      <path class="cls-1" d="M62.27,15.46c.27,.14,.54,.29,.81,.43h0c-.27-.15-.54-.3-.82-.45v.02Z"/>
      <path class="cls-1" d="M28.03,24.23c-.02,.26-.04,.52-.05,.78h.03c-.02-.26-.04-.52-.06-.78,.03,0,.06,0,.09,0Z"/>
      <path class="cls-1" d="M77.9,17.72c.1,.08,.21,.16,.31,.24-.12,0-.23,.02-.35,.03v.02c0-.06,.02-.12,.02-.17,0-.04,0-.08,.01-.12Z"/>
      <path class="cls-1" d="M11.25,28.41c-.19,0-.38,0-.57,0v.02c.19-.04,.38-.08,.57-.12,0,.03,0,.06,0,.09Z"/>
      <path class="cls-1" d="M63.08,15.89c.16-.02,.33-.04,.49-.06h0s-.09,.07-.14,.1h.03c-.12-.02-.25-.03-.37-.05,0,0-.01,0-.01,0Z"/>
      <path class="cls-1" d="M63.57,15.83s.08,.08,.11,.12c0,0,0,.01,0,.01-.04-.05-.07-.09-.11-.14h0Z"/>
      <path class="cls-1" d="M44.84,22.7c.07,.04,.14,.08,.22,.11,0,0,0-.02,0-.02-.05,.04-.09,.07-.14,.11h.02c-.03-.07-.07-.15-.1-.22,0,0,0,.02,0,.02Z"/>
      <path class="cls-1" d="M37.56,26.48s-.09,.07-.13,.11h0s.09-.07,.14-.11h-.01Z"/>
      <path class="cls-1" d="M13.18,28.13c.08-.02,.16-.04,.24-.06v-.02c-.08,.02-.16,.04-.24,.06v.03Z"/>
      <path class="cls-1" d="M13.19,28.11c-.07-.03-.14-.05-.21-.08h0c.07,.03,.14,.07,.21,.1,0,0,0-.02,0-.02Z"/>
    </g>
  </g>
</svg>