<svg width="43" height="32" viewBox="0 0 43 32" fill="none" xmlns="http://www.w3.org/2000/svg">
<path d="M34.3409 30.9302H5.26356C2.46401 30.9302 0.190308 28.6565 0.190308 25.857V5.26344C0.190308 2.45888 2.46401 0.190186 5.26356 0.190186H37.7364C40.541 0.190186 42.8097 2.45888 42.8097 5.26344V24.4897L34.3409 30.9302Z" fill="url(#paint0_linear_200_6)"/>
<g opacity="0.48">
<path d="M22.3614 0.195312H5.26356C2.46401 0.195312 0.190308 2.46401 0.190308 5.26857V22.136L0.375611 12.4703L22.3614 0.195312Z" fill="url(#paint1_linear_200_6)"/>
<path opacity="0.35" d="M42.8097 5.26857C42.8097 2.46401 40.536 0.195312 37.7364 0.195312H22.3614L0.375611 12.4703L0.190308 22.136V25.8621C0.190308 27.8002 1.27708 29.483 2.87468 30.3344L42.8097 8.03307V5.26857Z" fill="white"/>
<path d="M27.9505 30.9304L42.8097 22.6369V22.5667V14.0178L12.5204 30.9304H27.9505Z" fill="url(#paint2_linear_200_6)"/>
<path opacity="0.35" d="M27.9505 30.9304L42.8097 22.6369V22.5667V14.0178L12.5204 30.9304H27.9505Z" fill="white"/>
</g>
<mask id="mask0_200_6" style="mask-type:luminance" maskUnits="userSpaceOnUse" x="0" y="0" width="43" height="32">
<path d="M34.2003 31.1208H6.10958C6.10958 31.1208 0.00463867 28.8471 0.00463867 26.0475V5.07839C0.00463867 2.27883 2.27834 0.00512695 5.0779 0.00512695H36.9498C39.7543 0.00512695 42.9996 2.27883 42.9996 5.07839V24.3448L34.2003 31.1208Z" fill="white"/>
</mask>
<g mask="url(#mask0_200_6)">
<path style="mix-blend-mode:screen" opacity="0.41" d="M-51.4938 50.1466C-53.8526 45.8646 -24.0992 24.9205 14.9644 3.36042C54.023 -18.1997 87.6026 -32.2075 89.9615 -27.9255C92.3203 -23.6435 62.5669 -2.69945 23.5033 18.8606C-15.5553 40.4207 -49.1349 54.4235 -51.4938 50.1466Z" fill="url(#paint3_radial_200_6)"/>
<path style="mix-blend-mode:screen" opacity="0.41" d="M-23.4332 55.0649C-24.6552 52.8563 -0.951595 37.4362 29.508 20.6238C59.9676 3.81146 85.6444 -8.02781 86.8664 -5.81922C88.0884 -3.61062 64.3848 11.8095 33.9252 28.6218C3.4656 45.4342 -22.2112 57.2735 -23.4332 55.0649Z" fill="url(#paint4_radial_200_6)"/>
</g>
<path opacity="0.61" d="M36.5693 0.305664H5.78423C3.20002 0.305664 1.26687 1.58775 0.380431 3.4007L0.104985 4.63772C0.445539 2.4141 2.86448 0.686283 5.78924 0.686283H19.9974V2.1737C19.9423 2.18372 19.8872 2.19875 19.8271 2.20876C19.6167 2.24382 19.4064 2.28388 19.2061 2.33397C19.1009 2.35901 19.0007 2.38906 18.9006 2.41911C18.7153 2.47419 18.53 2.53429 18.3497 2.5994C18.2696 2.62945 18.1944 2.65449 18.1143 2.68454C17.8739 2.77969 17.6435 2.88987 17.4182 3.00506C17.328 3.05013 17.2379 3.10522 17.1527 3.1553C17.0075 3.23543 16.8673 3.32558 16.7321 3.41072C16.6619 3.45579 16.5818 3.49586 16.5117 3.54594C16.3614 3.65111 16.2112 3.7663 16.076 3.88149L16.0109 3.93157C15.8807 4.04675 15.7505 4.16194 15.6002 4.30718L15.5601 4.34224C15.4349 4.46744 15.3198 4.59765 15.2046 4.72786L15.1545 4.78295C14.9041 5.08344 14.6837 5.40396 14.4984 5.72949C14.4734 5.77457 14.4483 5.81964 14.4283 5.86471L14.3882 5.94484C14.3382 6.04 14.2881 6.13515 14.243 6.23532C14.213 6.30042 14.1879 6.36553 14.1629 6.43063L14.1128 6.54582H0.104985V6.92144H13.9726C13.9575 6.97652 13.9525 7.03161 13.9375 7.0867C13.8824 7.272 13.8423 7.46231 13.8073 7.65763C13.7923 7.73776 13.7823 7.81789 13.7672 7.89802C13.7322 8.14843 13.7121 8.39884 13.7121 8.65426C13.7121 8.65426 13.7121 8.65425 13.7121 8.65926C13.7121 9.99143 14.1679 11.2735 15.0243 12.3653C15.1294 12.4955 15.2096 12.6407 15.2947 12.781H0.104985V13.1566H15.5251C15.6303 13.3619 15.7254 13.5673 15.8005 13.7826C15.8206 13.8427 15.8356 13.9028 15.8556 13.9629C15.9157 14.1482 15.9608 14.3385 16.0009 14.5338C16.0109 14.6039 16.0259 14.669 16.0359 14.7392C16.071 14.9896 16.096 15.245 16.096 15.5054V16.457C16.096 16.7274 16.071 16.9878 16.0309 17.2482C16.0159 17.3434 15.9908 17.4386 15.9708 17.5337C15.9358 17.694 15.9007 17.8542 15.8506 18.0095C15.8156 18.1147 15.7755 18.2198 15.7354 18.325C15.6803 18.4652 15.6202 18.6004 15.5551 18.7357C15.5051 18.8358 15.45 18.936 15.3949 19.0362C15.3648 19.0912 15.3248 19.1413 15.2897 19.1964H0.0999756V19.572H15.0393C15.0393 19.572 15.0243 19.5871 15.0193 19.5971C14.1629 20.6939 13.7071 21.9709 13.7071 23.3031C13.7071 23.5435 13.7272 23.7839 13.7572 24.0193C13.7572 24.0543 13.7672 24.0844 13.7722 24.1194C13.8023 24.3448 13.8524 24.5652 13.9075 24.7805C13.9075 24.7905 13.9075 24.8055 13.9125 24.8156H0.0999756V25.1912H14.0226C14.0427 25.2513 14.0777 25.3114 14.1028 25.3715C14.1529 25.5067 14.213 25.6419 14.273 25.7721C14.3231 25.8773 14.3682 25.9825 14.4233 26.0826C14.5235 26.2679 14.6286 26.4432 14.7438 26.6185C14.8139 26.7187 14.8891 26.8188 14.9642 26.919C15.0393 27.0192 15.1194 27.1193 15.2046 27.2195C15.2847 27.3096 15.3598 27.3998 15.445 27.4899C15.6002 27.6502 15.7605 27.8104 15.9307 27.9607C15.9858 28.0058 16.0459 28.0508 16.101 28.0959C16.2613 28.2261 16.4215 28.3463 16.5918 28.4665C16.6519 28.5066 16.712 28.5466 16.7721 28.5867C17.2429 28.8872 17.7537 29.1476 18.2946 29.3479C18.3196 29.358 18.3447 29.363 18.3697 29.373C18.8805 29.5583 19.4214 29.6985 19.9874 29.7836V30.9606H20.363V29.4531H20.3329L20.0675 29.408C20.0224 29.403 19.9773 29.393 19.9373 29.388L19.8772 29.378C19.7369 29.3529 19.5967 29.3329 19.4615 29.3029H19.4565C19.4114 29.2929 19.3613 29.2778 19.3163 29.2678C18.7303 29.1276 18.1744 28.9222 17.6586 28.6618C17.6235 28.6468 17.5884 28.6268 17.5584 28.6067C17.3531 28.5016 17.1628 28.3864 16.9724 28.2612C16.9174 28.2261 16.8623 28.1911 16.8122 28.156C16.6119 28.0208 16.4215 27.8755 16.2412 27.7203C16.1711 27.6602 16.101 27.5951 16.0359 27.53C15.9308 27.4298 15.8256 27.3297 15.7254 27.2245C15.6453 27.1393 15.5652 27.0592 15.495 26.9691C15.3949 26.8539 15.2997 26.7287 15.2096 26.6035C15.1144 26.4733 15.0243 26.338 14.9341 26.1978C14.869 26.0926 14.8039 25.9825 14.7488 25.8723C14.6937 25.7721 14.6436 25.672 14.5986 25.5718C14.5184 25.3965 14.4483 25.2212 14.3832 25.0409L14.3532 24.9458C14.2731 24.6854 14.2129 24.4299 14.1679 24.1695C14.1629 24.1345 14.1579 24.1044 14.1529 24.0693C14.1128 23.8139 14.0928 23.5535 14.0928 23.2981C14.0928 22.0561 14.5184 20.8541 15.3248 19.8274C15.3498 19.7974 15.3648 19.7623 15.3849 19.7323C15.4249 19.6772 15.47 19.6171 15.5101 19.562H15.5201L15.5752 19.4769C15.5752 19.4769 15.5952 19.4418 15.6052 19.4218L15.7655 19.1814H15.7454C15.7955 19.0963 15.8406 19.0061 15.8857 18.916C15.9558 18.7757 16.0159 18.6305 16.076 18.4853C16.1211 18.3651 16.1711 18.2499 16.2112 18.1297C16.2613 17.9644 16.3013 17.7941 16.3364 17.6239C16.3614 17.5187 16.3915 17.4135 16.4065 17.3033C16.4516 17.0179 16.4766 16.7324 16.4766 16.4419V15.4904C16.4766 15.2149 16.4516 14.9445 16.4115 14.6791C16.3965 14.5839 16.3765 14.4888 16.3564 14.3936C16.3214 14.2183 16.2763 14.048 16.2262 13.8778C16.1962 13.7826 16.1661 13.6824 16.1311 13.5873C16.076 13.432 16.0059 13.2868 15.9358 13.1366H15.9608L15.8156 12.8711V12.8611C15.8156 12.8611 15.8005 12.8461 15.7955 12.8411L15.7555 12.7659H15.7454C15.6152 12.5406 15.475 12.3152 15.3198 12.1149C14.5134 11.0882 14.0878 9.88626 14.0878 8.64424C14.0878 8.36378 14.1178 8.08834 14.1579 7.8179C14.1679 7.75279 14.1779 7.68768 14.1879 7.62257C14.233 7.37717 14.3031 7.13679 14.3832 6.9014C14.829 5.6093 15.7555 4.47746 16.9875 3.68116C17.1127 3.60103 17.2379 3.5209 17.3681 3.45079C17.4733 3.39069 17.5734 3.3356 17.6836 3.28051C17.8739 3.18535 18.0742 3.09521 18.2746 3.01507C18.3697 2.97501 18.4699 2.94496 18.57 2.9099C18.7503 2.8448 18.9306 2.78971 19.1209 2.73963C19.2211 2.71459 19.3213 2.68454 19.4264 2.6645C19.6318 2.61943 19.8421 2.57937 20.0575 2.54932C20.1075 2.5393 20.1576 2.52928 20.2127 2.52428L20.378 2.50424V0.681276H21.9956V2.48922L22.1609 2.50925C22.1609 2.50925 22.1859 2.50925 22.201 2.51426C22.4714 2.54431 22.7368 2.59439 22.9973 2.64948C23.0724 2.6645 23.1475 2.68454 23.2226 2.70457C23.463 2.76467 23.7034 2.83478 23.9388 2.91992C23.9688 2.92994 23.9989 2.93995 24.0289 2.94997C24.2843 3.04512 24.5348 3.1553 24.7751 3.2755C24.8403 3.30555 24.9054 3.34061 24.9705 3.37566C25.1808 3.48584 25.3811 3.60604 25.5764 3.73625C26.6131 4.42737 27.4245 5.35388 27.9002 6.42062C27.9102 6.44065 27.9153 6.46068 27.9253 6.48072C27.9804 6.61093 28.0304 6.74114 28.0755 6.87636C28.1607 7.12677 28.2308 7.37718 28.2758 7.63259C28.2859 7.69269 28.2959 7.75279 28.3059 7.81289C28.351 8.08833 28.376 8.36378 28.376 8.64424C28.376 8.64424 28.376 8.64424 28.376 8.64925C28.376 9.88626 27.9503 11.0832 27.154 12.1099C26.9938 12.3152 26.8535 12.5406 26.7233 12.771H26.7133L26.6732 12.8461C26.6732 12.8461 26.6632 12.8611 26.6582 12.8711L26.508 13.1516H26.533C26.4629 13.3018 26.3928 13.4521 26.3377 13.6073C26.3126 13.6824 26.2876 13.7576 26.2676 13.8377C26.2075 14.033 26.1574 14.2283 26.1223 14.4287C26.1073 14.5038 26.0923 14.5789 26.0823 14.654C26.0422 14.9245 26.0172 15.1999 26.0172 15.4804V16.477C26.0172 17.5587 26.3227 18.5954 26.9036 19.4819L26.9587 19.567H42.3137V24.8156H28.1657L28.1256 24.9458C27.4595 27.0542 25.5815 28.6718 23.2126 29.2578C22.872 29.3429 22.5265 29.403 22.1659 29.4431L22.0006 29.4631V30.9556H22.3762V29.7987C22.7368 29.7536 23.0874 29.6835 23.428 29.5933C25.8168 28.9623 27.7099 27.3246 28.4411 25.1912H41.252L33.93 30.9556H34.496L42.6893 24.6453V5.17359C42.6893 2.48922 39.9498 0.305664 36.5844 0.305664H36.5693ZM42.2987 19.1914H27.149C26.6432 18.3901 26.3778 17.4536 26.3778 16.482V15.4854C26.3778 15.225 26.4028 14.9695 26.4378 14.7191C26.4479 14.654 26.4629 14.5889 26.4729 14.5238C26.508 14.3235 26.558 14.1282 26.6181 13.9379C26.6332 13.8828 26.6482 13.8277 26.6682 13.7726C26.7433 13.5622 26.8335 13.3569 26.9387 13.1566H42.2937V19.1964L42.2987 19.1914ZM42.2987 12.771H27.169C27.2592 12.6257 27.3443 12.4805 27.4495 12.3453C28.3009 11.2535 28.7516 9.97641 28.7516 8.64925V8.63923C28.7516 8.38382 28.7266 8.1284 28.6915 7.87799C28.6815 7.80287 28.6715 7.72775 28.6565 7.65263C28.6214 7.44228 28.5713 7.23695 28.5162 7.03662C28.5062 6.99656 28.5012 6.95148 28.4862 6.91142H42.2987V12.7659V12.771ZM42.2987 6.54081H28.346C28.346 6.54081 28.346 6.5358 28.346 6.5308L28.2909 6.40059C28.2909 6.40059 28.2909 6.39057 28.2859 6.38556C28.2758 6.36052 28.2658 6.33047 28.2508 6.30543C28.2358 6.27538 28.2258 6.24533 28.2107 6.21027C28.1657 6.11011 28.1106 6.00995 28.0505 5.89476L28.0154 5.82465C27.9954 5.78458 27.9754 5.74452 27.9553 5.70946C27.8602 5.54419 27.76 5.38393 27.6498 5.23369L27.5797 5.14354C27.4896 5.01834 27.3944 4.89313 27.2892 4.76793L27.1891 4.65274C27.0889 4.54256 26.9887 4.43238 26.8836 4.32721L26.7784 4.22204C26.6883 4.13189 26.5931 4.05176 26.4929 3.96662C26.4829 3.96162 26.4779 3.9516 26.4729 3.94659C26.4579 3.93658 26.4479 3.92155 26.4328 3.91153L26.3377 3.8314C26.2525 3.76129 26.1524 3.69117 26.0622 3.62106C26.0322 3.59602 26.0021 3.57599 25.9671 3.55095C25.947 3.53592 25.927 3.5209 25.907 3.50588L25.8619 3.47582C25.8218 3.45078 25.7768 3.42574 25.7367 3.4007C25.5614 3.28551 25.3811 3.17533 25.1908 3.07517C25.1257 3.04011 25.0606 3.00506 24.9955 2.97C24.7551 2.84981 24.5097 2.73462 24.2543 2.63946C24.2042 2.61943 24.1491 2.60441 24.094 2.58437C23.8787 2.50424 23.6583 2.43914 23.433 2.37904C23.3578 2.35901 23.2827 2.33897 23.2076 2.31894C22.9321 2.25384 22.6517 2.19875 22.3662 2.15868V0.686283H36.5744C39.7345 0.686283 42.3037 2.69956 42.3037 5.1786V6.54081H42.2987Z" fill="white"/>
<path d="M36.8901 0.00500922H6.10494C2.73946 0.00500922 0 2.18856 0 4.87794V26.2527C0 28.9371 2.73946 31.1207 6.10494 31.1207H34.1957L42.995 24.3446V4.87293C42.995 2.18856 40.2555 0 36.8901 0V0.00500922ZM0.380617 4.87293C0.380617 2.3939 2.9498 0.380621 6.10994 0.380621H20.3181V1.86804C20.263 1.87806 20.2079 1.89308 20.1478 1.9031C19.9375 1.93815 19.7271 1.97822 19.5268 2.0283C19.4216 2.05334 19.3215 2.08339 19.2213 2.11344C19.031 2.16853 18.8507 2.22863 18.6704 2.29373C18.5903 2.32378 18.5151 2.34882 18.435 2.37887C18.1946 2.47403 17.9642 2.58421 17.7389 2.69939C17.6487 2.74447 17.5586 2.79956 17.4734 2.84964C17.3282 2.92977 17.193 3.01992 17.0528 3.10506C16.9826 3.15013 16.9025 3.19019 16.8324 3.24028C16.6822 3.34545 16.5319 3.46064 16.3967 3.57582L16.3316 3.6259C16.2014 3.74109 16.0712 3.85628 15.9209 4.00151L15.8808 4.03657C15.7556 4.16178 15.6405 4.29199 15.5253 4.4222L15.4752 4.47729C15.2248 4.77778 15.0044 5.0983 14.8191 5.42383C14.7941 5.4689 14.769 5.51398 14.749 5.55905L14.7089 5.63918C14.6589 5.73433 14.6088 5.82949 14.5637 5.92965C14.5337 5.99476 14.5086 6.05986 14.4836 6.12497L14.4335 6.24016H0.380617V4.87794V4.87293ZM0.380617 6.61577H14.2983C14.2833 6.67086 14.2782 6.72595 14.2632 6.78104C14.2081 6.96634 14.1681 7.15665 14.133 7.35197C14.118 7.4321 14.108 7.51223 14.0929 7.59236C14.0579 7.84277 14.0379 8.09318 14.0379 8.34859C14.0379 8.34859 14.0379 8.34859 14.0379 8.3536C14.0379 9.68577 14.4936 10.9679 15.35 12.0596C15.4552 12.1898 15.5353 12.3351 15.6204 12.4753H0.385626V6.62078L0.380617 6.61577ZM0.380617 12.8459H15.8458C15.951 13.0512 16.0461 13.2566 16.1212 13.4719C16.1413 13.532 16.1563 13.5921 16.1763 13.6522C16.2364 13.8375 16.2815 14.0278 16.3166 14.2232C16.3316 14.2933 16.3416 14.3584 16.3516 14.4285C16.3867 14.6789 16.4117 14.9343 16.4117 15.1947V16.1463C16.4117 16.4167 16.3867 16.6772 16.3466 16.9376C16.3316 17.0327 16.3065 17.1279 16.2865 17.223C16.2515 17.3833 16.2164 17.5436 16.1663 17.6988C16.1313 17.804 16.0912 17.9092 16.0511 18.0143C15.996 18.1546 15.9359 18.2898 15.8708 18.425C15.8208 18.5252 15.7657 18.6253 15.7106 18.7255C15.6805 18.7806 15.6405 18.8307 15.6054 18.8857H0.370602V12.8459H0.380617ZM0.380617 19.2614H15.365C15.365 19.2614 15.35 19.2764 15.345 19.2864C14.4836 20.3832 14.0328 21.6603 14.0328 22.9924C14.0328 23.2328 14.0529 23.4732 14.0829 23.7086C14.0829 23.7437 14.0929 23.7737 14.0979 23.8088C14.133 24.0341 14.1781 24.2545 14.2332 24.4698C14.2332 24.4799 14.2332 24.4949 14.2432 24.5049H0.385626V19.2563L0.380617 19.2614ZM20.3131 30.7451H6.10494C2.94479 30.7451 0.375611 28.7318 0.375611 26.2527V24.8905H14.3433C14.3634 24.9506 14.3984 25.0107 14.4235 25.0708C14.4736 25.206 14.5337 25.3413 14.5938 25.4715C14.6438 25.5766 14.6889 25.6818 14.744 25.782C14.8442 25.9673 14.9493 26.1426 15.0645 26.3178C15.1346 26.418 15.2098 26.5182 15.2849 26.6183C15.36 26.7185 15.4401 26.8187 15.5253 26.9188C15.6054 27.009 15.6805 27.0991 15.7657 27.1893C15.9209 27.3545 16.0812 27.5098 16.2515 27.66C16.3065 27.7051 16.3666 27.7502 16.4217 27.7952C16.582 27.9255 16.7423 28.0457 16.9125 28.1659C16.9726 28.2059 17.0327 28.246 17.0928 28.286C17.5636 28.5865 18.0744 28.847 18.6153 29.0473C18.6403 29.0573 18.6654 29.0623 18.6904 29.0723C19.2013 29.2576 19.7421 29.4029 20.3081 29.483V30.7451H20.3131ZM41.5576 24.8855L34.1205 30.74H22.6819V29.493C23.0425 29.4429 23.3931 29.3778 23.7336 29.2877C26.1225 28.6566 28.0156 27.019 28.7468 24.8855H41.5576ZM42.6194 24.5099H28.4713L28.4313 24.6401C27.7652 26.7485 25.8871 28.3662 23.5183 28.9521C23.1777 29.0373 22.8322 29.0974 22.4716 29.1374L22.3063 29.1575V30.74H20.6887V29.1474L20.6586 29.1424L20.3932 29.1024C20.3481 29.0974 20.303 29.0874 20.263 29.0823L20.2029 29.0723C20.0627 29.0473 19.9224 29.0273 19.7872 28.9972H19.7822C19.7371 28.9872 19.687 28.9722 19.642 28.9621C19.056 28.8219 18.5001 28.6166 17.9843 28.3562C17.9492 28.3361 17.9142 28.3211 17.8791 28.3011C17.6788 28.1959 17.4835 28.0807 17.2932 27.9605C17.2381 27.9255 17.183 27.8904 17.1329 27.8553C16.9326 27.7201 16.7423 27.5749 16.562 27.4196C16.4918 27.3595 16.4267 27.2944 16.3566 27.2293C16.2464 27.1292 16.1463 27.029 16.0461 26.9238C15.966 26.8387 15.8859 26.7586 15.8157 26.6684C15.7156 26.5532 15.6204 26.428 15.5303 26.3028C15.4351 26.1726 15.345 26.0374 15.2598 25.8972C15.1947 25.792 15.1296 25.6818 15.0695 25.5716C15.0144 25.4715 14.9644 25.3713 14.9193 25.2711C14.8392 25.0959 14.769 24.9206 14.7039 24.7403L14.6739 24.6451C14.5938 24.3847 14.5337 24.1293 14.4886 23.8689C14.4836 23.8338 14.4786 23.8038 14.4736 23.7687C14.4335 23.5133 14.4135 23.2529 14.4135 22.9974C14.4135 21.7554 14.8392 20.5535 15.6455 19.5318C15.6705 19.5017 15.6855 19.4667 15.7056 19.4366C15.7506 19.3816 15.7907 19.3215 15.8308 19.2664H15.8408L15.8959 19.1812C15.8959 19.1812 15.9159 19.1462 15.9259 19.1311L16.0862 18.8908H16.0662C16.1162 18.8056 16.1613 18.7155 16.2064 18.6253C16.2765 18.4851 16.3366 18.3399 16.3967 18.1946C16.4418 18.0744 16.4918 17.9592 16.5319 17.839C16.587 17.6738 16.6221 17.5035 16.6571 17.3332C16.6822 17.228 16.7122 17.1229 16.7272 17.0127C16.7723 16.7272 16.7973 16.4418 16.7973 16.1513V15.1997C16.7973 14.9243 16.7723 14.6539 16.7322 14.3884C16.7172 14.2933 16.6972 14.1981 16.6772 14.103C16.6421 13.9277 16.597 13.7574 16.5469 13.5871C16.5169 13.487 16.4868 13.3918 16.4518 13.2966C16.3967 13.1414 16.3266 12.9962 16.2565 12.8459H16.2815L16.1363 12.5855V12.5755C16.1363 12.5755 16.1212 12.5604 16.1162 12.5554L16.0712 12.4803H16.0611C15.9309 12.255 15.7907 12.0296 15.6355 11.8293C14.8291 10.8026 14.4034 9.60063 14.4034 8.35861C14.4034 8.35861 14.4034 8.35861 14.4034 8.3536C14.4034 8.07815 14.4335 7.8027 14.4736 7.53226C14.4836 7.46715 14.4936 7.40205 14.5036 7.33694C14.5487 7.09154 14.6188 6.85115 14.6989 6.61577C15.1446 5.32367 16.0712 4.19183 17.3032 3.39553C17.4284 3.3154 17.5536 3.23527 17.6838 3.16515C17.789 3.10505 17.8891 3.04996 17.9993 2.99488C18.1896 2.89972 18.3899 2.80957 18.5903 2.72944C18.6854 2.68938 18.7856 2.65933 18.8857 2.62427C19.066 2.55917 19.2463 2.50408 19.4366 2.454C19.5368 2.42895 19.637 2.39891 19.7371 2.37887C19.9475 2.3338 20.1578 2.29373 20.3682 2.26369C20.4182 2.25367 20.4683 2.24365 20.5234 2.23864L20.6887 2.21861V0.395645H22.3063V2.20359L22.4716 2.22362C22.4866 2.22362 22.4966 2.22362 22.5116 2.22863C22.7821 2.25868 23.0475 2.30876 23.3079 2.36385C23.3831 2.37887 23.4582 2.39891 23.5333 2.41894C23.7737 2.47904 24.0141 2.54915 24.2495 2.63429C24.2795 2.64431 24.3096 2.65432 24.3396 2.66434C24.595 2.75949 24.8454 2.86967 25.0858 2.98987C25.1509 3.01992 25.216 3.05497 25.2812 3.09003C25.4915 3.20021 25.6918 3.32041 25.8871 3.45062C26.9238 4.14174 27.7352 5.06825 28.2109 6.13499C28.2209 6.15502 28.226 6.17505 28.236 6.19508C28.2911 6.3253 28.3411 6.45551 28.3862 6.59073C28.4713 6.84114 28.5415 7.09155 28.5865 7.34696C28.5966 7.40706 28.6066 7.46716 28.6166 7.52725C28.6617 7.8027 28.6867 8.07815 28.6917 8.35861C28.6917 9.60063 28.266 10.7976 27.4697 11.8243C27.3095 12.0296 27.1692 12.255 27.039 12.4853H27.029L26.9889 12.5604C26.9889 12.5604 26.9789 12.5755 26.9739 12.5855L26.8237 12.8609H26.8487C26.7786 13.0112 26.7085 13.1614 26.6534 13.3217C26.6283 13.3968 26.6033 13.4719 26.5833 13.5521C26.5232 13.7474 26.4731 13.9427 26.438 14.143C26.423 14.2181 26.408 14.2933 26.398 14.3684C26.3579 14.6388 26.3329 14.9143 26.3329 15.1947V16.1914C26.3329 17.2731 26.6384 18.3148 27.2193 19.1962L27.2744 19.2814H42.6294V24.5299L42.6194 24.5099ZM42.6194 18.8857H27.4697C26.9639 18.0844 26.6985 17.1479 26.6985 16.1763V15.1797C26.6985 14.9193 26.7235 14.6639 26.7586 14.4135C26.7686 14.3484 26.7786 14.2833 26.7936 14.2181C26.8287 14.0178 26.8788 13.8225 26.9389 13.6322C26.9539 13.5771 26.9689 13.522 26.9889 13.4669C27.0641 13.2566 27.1542 13.0512 27.2594 12.8509H42.6144V18.8908L42.6194 18.8857ZM42.6194 12.4703H27.4897C27.5799 12.3251 27.665 12.1798 27.7702 12.0446C28.6216 10.9528 29.0723 9.67575 29.0723 8.34859V8.33857C29.0723 8.07815 29.0473 7.82774 29.0122 7.57734C29.0022 7.50221 28.9922 7.42709 28.9772 7.35197C28.9421 7.14163 28.892 6.93629 28.8369 6.73597C28.8269 6.6959 28.8219 6.65083 28.8069 6.61076H42.6194V12.4653V12.4703ZM28.6717 6.23515C28.6717 6.23515 28.6717 6.23014 28.6717 6.22514L28.6166 6.09492C28.6166 6.09492 28.6166 6.08491 28.6116 6.0799C28.6016 6.05486 28.5915 6.02481 28.5765 5.99977C28.5615 5.96972 28.5515 5.93967 28.5365 5.90461C28.4914 5.80445 28.4363 5.70429 28.3762 5.5891L28.3411 5.51898C28.3211 5.47892 28.3011 5.43885 28.281 5.4038C28.1859 5.23853 28.0857 5.07827 27.9755 4.92802L27.9054 4.83788C27.8153 4.71267 27.7201 4.58747 27.615 4.46226L27.5148 4.34708C27.4146 4.2369 27.3145 4.12672 27.2093 4.02155L27.1041 3.91638C27.014 3.82623 26.9138 3.7461 26.8187 3.66096C26.8086 3.65595 26.8036 3.64594 26.7936 3.64093C26.7786 3.63091 26.7686 3.61589 26.7536 3.60587L26.6584 3.52574C26.5733 3.45562 26.4731 3.38551 26.3829 3.32041C26.3529 3.29537 26.3229 3.27533 26.2878 3.25029C26.2678 3.23527 26.2477 3.22024 26.2277 3.20522L26.1826 3.17517C26.1426 3.14512 26.0975 3.12509 26.0574 3.10005C25.8821 2.98486 25.7018 2.87468 25.5115 2.77452C25.4464 2.73946 25.3813 2.7044 25.3162 2.66935C25.0758 2.54915 24.8304 2.43396 24.575 2.33881C24.5249 2.31878 24.4698 2.30375 24.4147 2.28372C24.1994 2.20359 23.979 2.13848 23.7537 2.07838C23.6785 2.05835 23.6034 2.03832 23.5283 2.01829C23.2529 1.95318 22.9724 1.89809 22.6869 1.85802V0.385628H36.8951C40.0552 0.385628 42.6244 2.39891 42.6244 4.87794V6.24016H28.6717V6.23515Z" fill="#101010"/>
<path d="M36.8901 0.00500922H6.10494C2.73946 0.00500922 0 2.18856 0 4.87293V26.2477C0 28.9321 2.73946 31.1157 6.10494 31.1157H34.1957L42.995 24.3396V4.86792C42.995 2.18355 40.2555 0 36.8901 0V0.00500922ZM42.6194 24.5099L41.5576 24.8855L34.1205 30.74H22.6819V30.6699H22.3063V30.74H20.6887V30.6699H20.3131V30.74H6.10494C2.94479 30.74 0.375611 28.7268 0.375611 26.2477V4.87293C0.375611 2.3939 2.94479 0.380621 6.10494 0.380621H11.8393V0.360588H32.9587V0.380621H36.8901C40.0502 0.380621 42.6194 2.3939 42.6194 4.87293V24.5099Z" fill="#B3B3B3"/>
<defs>
<linearGradient id="paint0_linear_200_6" x1="-6.64081" y1="23.1175" x2="52.1549" y2="6.08478" gradientUnits="userSpaceOnUse">
<stop stop-color="#F7B261"/>
<stop offset="0.24" stop-color="#F9CC62"/>
<stop offset="0.5" stop-color="#FAE163"/>
<stop offset="0.75" stop-color="#FBED64"/>
<stop offset="1" stop-color="#FCF265"/>
</linearGradient>
<linearGradient id="paint1_linear_200_6" x1="-9.13487" y1="14.4986" x2="49.6558" y2="-2.53413" gradientUnits="userSpaceOnUse">
<stop stop-color="#F7B261"/>
<stop offset="0.24" stop-color="#F9CC62"/>
<stop offset="0.5" stop-color="#FAE163"/>
<stop offset="0.75" stop-color="#FBED64"/>
<stop offset="1" stop-color="#FCF265"/>
</linearGradient>
<linearGradient id="paint2_linear_200_6" x1="-3.55578" y1="33.76" x2="55.2399" y2="16.7222" gradientUnits="userSpaceOnUse">
<stop stop-color="#F7B261"/>
<stop offset="0.24" stop-color="#F9CC62"/>
<stop offset="0.5" stop-color="#FAE163"/>
<stop offset="0.75" stop-color="#FBED64"/>
<stop offset="1" stop-color="#FCF265"/>
</linearGradient>
<radialGradient id="paint3_radial_200_6" cx="0" cy="0" r="1" gradientUnits="userSpaceOnUse" gradientTransform="translate(86.79 -17.2072) rotate(151.1) scale(80.4903 8.81545)">
<stop stop-color="#FFFF00"/>
<stop offset="0.09" stop-color="#E5E500"/>
<stop offset="0.28" stop-color="#A2A203"/>
<stop offset="0.51" stop-color="#484807"/>
<stop offset="0.91" stop-color="#00000A"/>
</radialGradient>
<radialGradient id="paint4_radial_200_6" cx="0" cy="0" r="1" gradientUnits="userSpaceOnUse" gradientTransform="translate(4.66506 5.85398) rotate(151.1) scale(62.764 4.54765)">
<stop stop-color="#FFFF00"/>
<stop offset="0.09" stop-color="#E5E500"/>
<stop offset="0.28" stop-color="#A2A203"/>
<stop offset="0.51" stop-color="#484807"/>
<stop offset="0.91" stop-color="#00000A"/>
</radialGradient>
</defs>
</svg>
