<svg width="150" height="16" viewBox="0 0 150 16" fill="none" xmlns="http://www.w3.org/2000/svg">
<g clip-path="url(#clip0_150_33178)">
<path d="M0.0312007 6.02285C1.49009 8.22289 3.90856 9.15127 6.45186 9.47113C7.98876 9.66617 9.48665 9.15907 10.9299 8.72218C13.5356 7.93423 14.7995 10.2669 16.9059 11.0392C19.2308 11.8974 20.9237 10.9534 22.7727 9.51014C25.0039 7.7704 26.6578 7.7938 28.811 9.86121C29.7628 10.774 31.0657 11.6244 32.431 11.64C33.8742 11.6634 35.2395 11.4293 36.5502 10.7818C38.7034 9.72858 41.9254 6.7484 44.1879 9.27609C45.99 11.2967 48.5411 11.8506 51.0454 10.6258C52.7383 9.79879 54.1582 8.59736 55.6951 7.53635C57.3646 6.38172 58.5427 8.68318 59.9001 9.55695C62.3186 11.1173 65.213 9.97823 66.7265 7.84061C67.3116 7.00585 66.0009 6.01505 65.3222 6.7562C61.0626 11.4527 60.025 4.90724 56.6391 5.02426C55.6795 5.05547 54.6965 5.93704 53.9632 6.45194C52.0986 7.75479 50.5617 9.22928 48.1588 9.42432C45.4829 9.64276 44.7964 5.7342 41.9878 6.12427C37.8764 6.68598 34.3189 12.2953 30.0515 8.59736C28.7252 7.45053 27.3678 5.82782 25.3862 6.17108C22.7337 6.63137 21.228 9.45553 18.5598 9.69737C15.9151 9.94702 14.3392 6.2725 11.3512 7.05266C9.66609 7.48954 8.22281 8.13707 6.44406 8.21508C4.06459 8.32431 2.13761 7.02925 0.296453 5.7342C0.132621 5.62498 -0.0780207 5.84342 0.0312007 5.99945V6.02285Z" fill="white"/>
<path d="M10.2278 4.87587C9.36184 4.43119 8.41005 5.5156 9.159 6.26455C10.0952 7.20073 11.3512 5.45319 10.2278 4.87587Z" fill="white"/>
<path d="M17.3272 7.21636C18.3102 7.21636 18.3102 5.68726 17.3272 5.68726C16.3442 5.68726 16.3442 7.21636 17.3272 7.21636Z" fill="white"/>
<path d="M26.0883 12.0378C26.9855 12.0378 26.9855 10.6414 26.0883 10.6414C25.1911 10.6414 25.1911 12.0378 26.0883 12.0378Z" fill="white"/>
<path d="M40.3417 13.567C40.4587 13.4811 40.5602 13.3719 40.6382 13.2549C40.9892 12.8336 40.802 12.0613 40.1545 12.0925C39.936 12.1003 39.7332 12.1315 39.5226 12.1705C38.2587 12.4201 39.2339 14.5578 40.3339 13.567H40.3417Z" fill="white"/>
<path d="M49.1106 6.35056C49.3057 6.49099 49.4929 6.5534 49.7347 6.5378C50.1326 6.51439 50.4135 6.23354 50.4369 5.83566C50.4525 5.59381 50.3901 5.40658 50.2496 5.21154C49.4461 4.13493 48.034 5.547 49.1106 6.35056Z" fill="white"/>
<path d="M58.9093 11.4604L58.7065 11.4838C57.8327 11.5852 57.8327 12.7398 58.7065 12.8412L58.9093 12.8646C59.8143 12.9739 59.8143 11.3511 58.9093 11.4604Z" fill="white"/>
<path d="M2.83195 11.2967C3.0738 11.4761 3.19862 11.5073 3.50288 11.5073C4.01778 11.5151 4.0958 10.8832 3.74473 10.6179C3.50288 10.4385 3.37805 10.4073 3.07379 10.4073C2.55889 10.3995 2.48088 11.0314 2.83195 11.2967Z" fill="white"/>
<path d="M64.4094 5.99151C65.3924 5.99151 65.3924 4.47021 64.4094 4.47021C63.4264 4.47021 63.4264 5.99151 64.4094 5.99151Z" fill="white"/>
<path d="M149.704 5.7575C146.31 8.13696 143.423 8.69867 139.476 7.28659C136.971 6.39722 135.138 7.85611 133.125 9.14336C130.161 11.0313 128.288 7.41922 125.831 6.51424C123.678 5.71849 122.125 6.57666 120.534 8.05895C116.383 11.9129 113.731 8.12136 109.861 6.62346C107.193 5.58586 105.812 6.58446 104.018 8.55044C100.827 12.0377 96.4737 5.85891 93.6183 5.07096C89.9984 4.07236 89.4133 11.9831 84.6856 6.76389C84.0069 6.02275 82.6962 7.01354 83.2813 7.8483C84.631 9.75968 86.948 10.9143 89.2729 9.92351C90.6304 9.3462 91.5822 8.59725 92.4871 7.42702C93.5013 6.10856 97.2539 9.68166 98.2134 10.2746C100.023 11.3824 103.011 11.8661 104.743 10.337C105.321 9.82989 105.804 9.29159 106.319 8.72208C107.903 6.94333 110.399 9.01073 111.702 9.8611C113.068 10.7505 115.002 11.6867 116.664 11.6633C118.115 11.6398 119.2 11.359 120.409 10.532C122.094 9.38521 123.319 7.15397 125.722 8.43342C128.132 9.71287 129.412 11.7491 132.4 11.3044C133.679 11.1171 134.881 9.97032 135.903 9.27598C137.993 7.85611 140.412 9.31499 142.667 9.49443C145.405 9.72067 148.463 8.29299 149.969 6.03055C150.078 5.87452 149.86 5.64827 149.704 5.7653V5.7575Z" fill="white"/>
<path d="M140.662 4.87587C139.796 4.43119 138.844 5.5156 139.593 6.26455C140.529 7.20073 141.785 5.45319 140.662 4.87587Z" fill="white"/>
<path d="M132.673 7.21636C133.656 7.21636 133.656 5.68726 132.673 5.68726C131.69 5.68726 131.69 7.21636 132.673 7.21636Z" fill="white"/>
<path d="M123.912 12.0378C124.809 12.0378 124.809 10.6414 123.912 10.6414C123.015 10.6414 123.015 12.0378 123.912 12.0378Z" fill="white"/>
<path d="M110.477 12.1705C110.267 12.1315 110.064 12.1003 109.846 12.0925C109.198 12.0613 109.011 12.8336 109.362 13.2549C109.448 13.3719 109.549 13.4811 109.658 13.567C110.758 14.5578 111.734 12.4201 110.47 12.1705H110.477Z" fill="white"/>
<path d="M99.7504 5.21911C99.6099 5.41414 99.5475 5.60138 99.5631 5.84323C99.5865 6.24111 99.8674 6.52196 100.265 6.54537C100.507 6.56097 100.694 6.49856 100.889 6.35813C101.966 5.55457 100.554 4.1425 99.7504 5.21911Z" fill="white"/>
<path d="M91.0907 12.8646L91.2935 12.8412C92.1673 12.7398 92.1673 11.5852 91.2935 11.4838L91.0907 11.4604C90.1857 11.3511 90.1857 12.9739 91.0907 12.8646Z" fill="white"/>
<path d="M146.926 10.4073C146.63 10.4073 146.497 10.4385 146.255 10.6179C145.904 10.8832 145.974 11.5151 146.497 11.5073C146.794 11.5073 146.926 11.4761 147.168 11.2967C147.519 11.0314 147.449 10.3995 146.926 10.4073Z" fill="white"/>
<path d="M85.5906 5.99151C86.5736 5.99151 86.5736 4.47021 85.5906 4.47021C84.6076 4.47021 84.6076 5.99151 85.5906 5.99151Z" fill="white"/>
<path d="M68.3648 5.17247C68.9109 3.89302 69.6754 3.06605 70.8067 2.25469C72.6478 0.928434 74.2939 1.35752 76.2521 2.2859C78.6784 3.43272 80.1217 5.54694 80.4494 8.17605C80.8394 11.2499 78.889 14.6825 75.3784 13.8166C73.5918 13.3719 72.1875 11.7336 71.5088 10.1108C71.0719 8.69876 71.4074 7.50512 72.523 6.52213C76.5018 5.82779 77.3131 6.70156 74.9571 9.15905C74.5046 9.10444 74.3252 9.82218 74.723 10.0172C79.0295 12.0534 78.1323 2.54335 74.1145 4.07245C67.647 6.53773 69.9485 13.8166 75.7294 15.3535C78.2961 16.0322 80.3011 14.23 81.3309 12.0846C82.509 9.63494 81.9863 6.68596 80.7224 4.40011C79.3025 1.83341 75.8933 0.19509 73.0847 5.20069e-05C70.713 -0.16378 68.3336 2.98024 67.8499 4.95402C67.7797 5.25048 68.2322 5.46892 68.357 5.16466L68.3648 5.17247Z" fill="white"/>
</g>
<defs>
<clipPath id="clip0_150_33178">
<rect width="150" height="15.5094" fill="white"/>
</clipPath>
</defs>
</svg>
