<?xml version="1.0" encoding="UTF-8"?>
<svg id="Layer_2" data-name="Layer 2" xmlns="http://www.w3.org/2000/svg" viewBox="0 0 211.27 236.75">
  <defs>
    <style>
      .cls-1 {
        fill: #d1caa1;
      }
    </style>
  </defs>
  <g id="image">
    <g>
      <path class="cls-1" d="M107.56,20.4c56.73,0,102.71,45.99,102.71,102.71s-45.99,102.71-102.71,102.71S4.85,179.84,4.85,123.11,50.83,20.4,107.56,20.4m0-1C50.37,19.4,3.85,65.93,3.85,123.11s46.53,103.71,103.71,103.71,103.71-46.53,103.71-103.71S164.75,19.4,107.56,19.4h0Z"/>
      <path class="cls-1" d="M103.71,18.55c56.73,0,102.71,45.99,102.71,102.71s-45.99,102.71-102.71,102.71S1,178,1,121.27,46.99,18.55,103.71,18.55m0-1C46.53,17.55,0,64.08,0,121.27s46.53,103.71,103.71,103.71,103.71-46.53,103.71-103.71S160.9,17.55,103.71,17.55h0Z"/>
      <path class="cls-1" d="M63.76,227.41c-.06,.02-.11,.05-.14,.11-.04,.07-.07,.16-.11,.26-.16-.05-.34-.04-.52,.07-.62,.38-.59,1.56-.56,2.16,.02,.37,.16,.91,.39,1.44,.19,.73,.64,1.4,1.27,1.75,.1,.06,.23,.04,.31-.05,.34,.05,.71-.09,1.08-.53,1.17-1.39,.31-3.94-1.12-4.97-.16-1.71-.62-3.34-1.27-4.92,.09,.1,.18,.21,.26,.3,.51,.59,1.07,1.31,1.71,1.82,.13,1.34,1.59,2.36,2.75,2.77,.19,.06,.36-.11,.32-.3-.26-1.33-1.58-2.38-2.78-2.89-.45-.54-1.04-1.01-1.48-1.51-.64-.72-1.17-1.46-1.64-2.3-.03-.05-.08-.06-.13-.05-.63-1.25-1.34-2.48-2.06-3.71-.43-.73-.89-1.58-1.41-2.42,1.47,1.66,3.16,3.38,5.08,4.53-.09,.08-.15,.21-.09,.34,.66,1.58,2.35,3.21,4.12,3.33,.23,.02,.39-.21,.35-.42-.23-1.09-1.09-2.14-1.97-2.8-.43-.32-1.38-.91-1.92-.54-1.89-1.58-3.75-3.2-5.64-4.77-.04-.04-.09,0-.11,.03-.85-1.35-1.84-2.67-3.07-3.52,6.82,2.23,13.84,3.96,20.49,5.74,.37,.1,.75,.19,1.12,.29,1.4,1.27,2.59,2.63,3.66,4.04-.06,1.14-.34,2.16-.97,3.21-.19,.32-.4,.64-.59,.95-.5-.32-1.19-.39-1.77-.12-.62,.29-1.06,.86-1.25,1.51-.15,.51-.27,1.32-.07,1.93,.04,.33,.24,.62,.58,.74,1.5,.52,3.3-1.49,3.2-2.92-.02-.3-.12-.55-.28-.76,.78-1.25,1.4-2.69,1.46-4.11,1.45,1.99,2.67,4.11,3.87,6.28-.93,.91-1.74,2.1-2.39,3.24-.4-.15-.8-.14-1.18-.01-.27-.05-.57-.01-.85,.14-.13,.07-.07,.22,.05,.25,.03,0,.06,.01,.09,.02-.14,.12-.27,.25-.39,.4-.52,.65-1.09,1.79-.79,2.65,.41,1.16,1.9,.03,2.28-.55,.05-.07,.09-.16,.13-.24,.6-.36,1.04-1.47,1.25-2.07,.04-.13-.01-.26-.12-.33-.08-.05-.16-.09-.24-.13,.89-.89,1.59-2.04,2.28-3.1,.76,1.38,1.54,2.8,2.35,4.21-.17,.31-.24,.61-.23,.91-.31,1.75,.75,3.87,2.63,3.98,.11,0,.25-.07,.27-.19,.11-.6,.05-1.15-.11-1.66,.04-1.35-.8-2.74-1.99-3.35-.04-.02-.09-.02-.13-.02-.03-.05-.08-.07-.14-.06-.97-2.08-2.01-4.31-3.21-6.45,1.38,1.28,2.91,2.55,4.57,3.42-.13,.08-.2,.23-.17,.46,.01,.11,.13,.15,.22,.14,.36-.04,.55-.22,.96-.07,.49,.17,.96,.42,1.39,.71,.51,.34,1.09,.75,1.52,1.25-.64-.22-1.24-.53-1.81-.91,.15,.07,.29,.13,.44,.2,.09,.04,.16-.07,.08-.13-.59-.43-1.22-.77-1.88-1.08-.22-.1-.41,.23-.25,.38,1.08,1.08,2.49,1.91,3.98,2.26,.22,.05,.42-.16,.31-.37-.54-1.15-1.93-2.05-3.03-2.59-.19-.09-.69-.28-1.14-.33-1.92-1.31-3.84-2.52-5.61-4.06-.29-.49-.58-.97-.89-1.44,1.39,.98,3.12,1.71,4.78,2.15,0,.06,.02,.13,.07,.18,.16,.15,.34,.26,.51,.39,.15,.37,.6,.77,1.02,1.01,.77,.44,2.36,1.16,3.06,.18,.63-.88-.82-1.76-1.44-2.07-.83-.41-2.1-.73-2.9-.11-1.91-.76-3.83-1.29-5.58-2.47-1.4-2.05-3.02-3.89-4.94-5.25,6.12,1.59,12.29,2.9,18.51,3.84,1.25,.92,2.62,1.66,3.98,2.41,.76,.94,1.5,1.89,2.09,2.95,.42,.76,.74,1.55,1.07,2.35,0,0-.02,.01-.02,.02-.02,.03-.03,.06-.05,.09-.1-.01-.19,.09-.15,.2-.1-.05-.26-.04-.31,.11-.51,1.4-.31,3.58,1.26,4.17,.12,.05,.27-.01,.34-.12,.91-1.47,.42-3.22-.61-4.49-.59-1.76-1.72-3.5-2.96-4.9,.57,.32,1.13,.64,1.69,.98,2.06,1.28,3.82,2.75,5.48,4.44-.14-.03-.32,.04-.35,.19-.32,1.84,1.55,3.32,3.29,3.05,.12-.02,.25-.16,.24-.29-.05-.8-.5-1.43-1.14-1.9-.31-.23-.78-.6-1.23-.76-1.06-1.48-2.44-2.77-3.98-3.9,1.35,.54,2.72,1.03,4.08,1.52,.02,.02,.04,.04,.07,.05,.1,.03,.2,.06,.3,.08,.1,.04,.21,.08,.31,.11,.05,.08,.1,.15,.16,.22-.25-.04-.42,.31-.18,.48,.71,.51,1.5,.87,2.33,1.12,.1,.06,.2,.11,.31,.16,.05,.03,.1,0,.13-.04,.48,.12,.98,.22,1.48,.28,.17,.02,.35-.18,.29-.35-.34-.94-1.12-1.56-2.03-1.94-.74-.31-1.79-.69-2.66-.57-1.87-.88-3.99-1.44-5.95-2.06-2.16-1.39-4.51-2.54-6.66-3.57,4.46,.65,8.94,1.11,13.45,1.33,.01,.02,.03,.04,.06,.05,1.37,.25,2.73,.69,4.02,1.21,.71,.29,1.44,.65,2.17,.95-.43,.1-.74,.29-.39,.65-.03,.09-.03,.18,.03,.25,1.01,1.06,2.65,1.73,4.11,1.35,.15-.04,.26-.19,.22-.35-.34-1.26-1.65-1.85-2.87-1.98-1.63-1.07-3.79-1.72-5.8-2.06,1.92,.07,3.85,.09,5.79,.07,1.04,.87,5.46,1.18,5.22-.94-.14-1.18-2.14-1.06-2.94-.95-.36,.05-2.89,.74-2.53,1.54-2.49-.26-4.99-.46-7.49-.64,.62-.19,1.22-.42,1.82-.67,1.07-.44,2.17-.83,3.24-1.26,1.2,.62,5.32,.79,4.52-1.52-.63-1.85-4.29-.23-4.88,.95-.05,.1-.06,.24,0,.33-.9,.28-1.78,.71-2.62,1.06-1.01,.42-2.04,.76-3.08,1.05-3.79-.26-7.57-.49-11.34-.89-2.81-.3-5.57-.76-8.31-1.33,3.54-.09,7.04-.93,10.48-2.05,.01,0,.02,.01,.03,.02,1.28,.21,2.68,.57,4.05,.72-.02,.05-.02,.11-.03,.17-.11,.03-.22,.07-.32,.13-.2,.13-.17,.39,.04,.48,1.55,.68,3.79,.78,5.02-.58,.1-.11,.15-.31,.02-.42-.86-.73-2.29-.75-3.35-.55-.27,.05-.64,.16-.94,.32-1.32-.18-2.65-.39-3.97-.47,2.57-.86,5.11-1.86,7.59-2.81,.02,0,.04,.01,.06,.01,0,.12,.02,.23,.1,.31,.07,.06,.17,.08,.25,.01,.08-.07,.14-.15,.2-.24,1.06,.09,2.25-.05,3.16-.28,.86-.22,2.38-1.02,1.46-2.11-1.06-1.25-3.73,.28-4.76,1.52-.28,.11-.55,.21-.85,.25-.13,.02-.18,.14-.16,.25-2.66,.85-5.26,1.81-7.87,2.68,.98-.75,1.8-1.76,2.51-2.79,.35,.16,.78,.16,1.1-.1,.87-.73,1.03-2.49,.74-3.53-.07-.24-.33-.32-.53-.17-.64,.52-2.33,2.36-1.69,3.33,0,.05,0,.1,.02,.15-.99,1.21-1.73,2.55-3.04,3.39-3.13,1.01-6.31,1.87-9.71,2.2-.04,0-.06,.04-.06,.07-4.25-.89-8.44-2.01-12.67-3.13-2.48-.65-5.03-1.31-7.59-1.98,5.15,.61,10.26-.67,15.28-2.32,1.03,.02,2.06,.04,3.06,.26,.78,.18,1.49,.45,2.19,.76-.11,.1-.17,.27-.09,.4,.37,.65,.94,1.07,1.59,1.29,.55,.45,1.18,.75,1.87,.99,.13,.04,.25,0,.33-.1,.25,.03,.5-.02,.65-.25,.27-.41,.11-.96-.12-1.35-.55-.92-1.78-1.59-2.89-1.48-.41-.21-.87-.36-1.26-.19-.11,.05-.09,.19-.01,.25,.01,.01,.03,.02,.04,.03-1.29-.68-2.87-.95-4.37-.94,2.36-.79,4.7-1.64,7.01-2.39,.06,.02,.11,.04,.17,.05,0,0,.02,.01,.03,.01,.53,.21,1.13,.14,1.7-.05,1.05-.2,2.1-.66,2.67-1.23,.18-.17,.28-.34,.33-.49,.09-.09,.19-.18,.27-.28,.12-.16,.02-.43-.17-.47-.12-.03-.24-.04-.36-.06-.51-.45-1.54-.65-2.14-.52-.91,.2-2.07,.62-2.63,1.41-.23,.32-.31,.74-.21,1.09-4.15,1.07-8.09,2.62-12.12,3.77,.45-.33,.87-.73,1.27-1.16,1.01-1.11,1.98-2.25,2.99-3.34,.19,.05,.38,.06,.54,.05,1.5-.08,2.66-1.05,2.68-2.61,0-.49-.05-1.24-.62-1.43-.52-.17-1.07,.13-1.48,.44-1.11,.83-2.45,2.36-2.5,3.81,0,.07,.03,.14,.08,.19-1.26,1.48-2.28,3.37-3.86,4.29-.71,.19-1.43,.37-2.16,.53-.04,0-.08,0-.13,0-.04,0-.05,.01-.07,.04-2.81,.6-5.71,.89-8.8,.6-.03,0-.05,0-.07,.03-5.57-1.49-11.23-3.12-16.64-5.19,2.08,.31,4.18,.07,6.27-.48,2.13-.29,3.93,.25,5.87,.83-.03,.02-.04,.01-.06,.01-.07,0-.12,.05-.14,.1-.1-.02-.21-.03-.31-.06-.31-.12-.46,.37-.16,.49,.12,.05,.25,.09,.39,.12-.05,.69,.73,.93,1.49,.89,.71,.1,1.51-.09,2.04-.49,.14-.11,.15-.36,.03-.48-.64-.62-2.17-1.47-3.04-.84-1.31-.52-2.77-1.1-4.18-1.18,1.74-.61,3.46-1.42,5.15-2.27,1.9-.22,3.63-.24,5.44-.01-.24,.31-.38,.68-.23,1.05,.26,.65,.98,.61,1.53,.4,1.22,.51,2.57,.6,3.87,.15,.21-.07,.28-.25,.21-.45-.6-1.59-3.3-2.78-4.77-1.75-.07,.05-.15,.11-.22,.17-1.47-.33-2.97-.46-4.46-.28,2.21-1.16,4.36-2.35,6.41-3.33,.05,.02,.1,.04,.17,.02,.03,0,.07-.03,.1-.04,.63,.45,1.99,.3,2.55,.14,.63-.18,2.19-1.08,1.84-1.96-.29-.73-1.73-.2-2.2-.03-.55,.2-1.09,.42-1.6,.71-.29,.09-.57,.2-.81,.38-.06,.04-.03,.14,.04,.16-.04,.04-.07,.07-.1,.11-3.03,1.1-5.99,2.86-8.97,4.43,.94-.89,1.64-2.11,2.17-3.4-.21,.07-.44,.11-.66,.12-.7,1.36-1.54,2.63-2.67,3.84-.01,.01-.01,.03-.02,.04-4.1,2.05-8.27,3.51-12.8,2.14-.23-.09-.46-.19-.7-.29-.2,.16-.43,.26-.71,.26-.17,0-.33-.01-.49-.02,2.1,.9,4.25,1.72,6.43,2.48,0,0,.01,.02,.03,.02,3.32,.9,5.35,4.98,6.99,8.01-.07-.11-.24-.03-.22,.1,.46,2.22-.16,3.97-.86,5.89-.08-.12-.17-.24-.27-.35-.15-.15-.35-.15-.51-.03-.45,.34-.84,.78-1.1,1.28-.06,.01-.11,.04-.14,.1-.54,1.18-.53,2.5-.19,3.74,.06,.22,.28,.31,.48,.22,1.48-.6,2.5-2.79,2-4.38,1.1-1.9,1.65-4.58,.83-6.53,.15,.27,.3,.54,.44,.79,1.61,2.84,2.61,5.61,3.05,8.64Zm.06,1.28c.04,.05,.07,.1,.1,.15,.05,.62,.09,1.26,.09,1.91,0,.04,.02,.06,.03,.09-.35-.6-.39-1.42-.23-2.15Zm.55,1.35c.1,.43,.15,.88,.12,1.31-.19-.14-.32-.31-.43-.5,.08,.07,.22,.04,.24-.1,.03-.24,.05-.48,.07-.72Zm-.89,1.51c-.11-.23-.21-.48-.29-.72-.02-.18-.01-.36,.01-.54,.09,.77,.42,1.37,1.19,1.32,.03,0,.05-.01,.07-.03-.04,.27-.11,.54-.21,.79-.3-.13-.59-.42-.78-.82Zm1.9,.14c-.16,.41-.38,.62-.61,.7,.41-1.18,.28-2.64-.36-3.72,0-.06,0-.12,0-.18,.77,.85,1.33,2.25,.97,3.19Zm.79-6.1c.53,.35,1.01,.73,1.29,1.31-.72-.35-1.28-.87-1.7-1.54,.09,.09,.19,.17,.29,.25,.04,.03,.09,0,.11-.03Zm1.1-3.72c-1.19-.3-2.08-1.31-2.8-2.3-.01-.02-.02-.03-.03-.05,1.21,.14,2.37,1.18,2.83,2.35Zm9.99,6.4c-.51,.36-.72-.32-.74-.74,.05-.09,.12-.18,.18-.26,.04,.19,.05,.39,.21,.5,.28,.18,.67-.33,.81-.48,.02-.02,.03-.05,.05-.08-.03,.41-.16,.81-.51,1.06Zm1.41-.9c-.12,.15-.27,.33-.44,.5,.14-.37,.17-.77,.11-1.16,.05,0,.1,0,.14-.05,.22-.27,.43-.56,.64-.86,.13,.49-.12,1.15-.45,1.58Zm.12-2.03c-.2,.35-.38,.71-.51,1.1-.02-.06-.02-.13-.04-.19-.11-.32-.57-.23-.51,.12,.03,.21,.05,.45,.05,.68-.02-.06-.06-.11-.14-.14-.09-.04-.19-.07-.28-.11-.08-.03-.17,0-.24,.05-.02,.02-.05,.04-.08,.05,.02-.02,.04-.04,.06-.05,.07-.06-.01-.17-.09-.12-.09,.06-.19,.14-.29,.22-.05-.07-.14,.01-.1,.08-.03,.02-.05,.04-.08,.06,.1-.99,.64-2.11,1.81-1.92,.19,.03,.34,.1,.45,.18Zm2.78,6.71c-.02,.22-.08,.42-.16,.61-.04,0-.07,0-.11,.02-.11,.07-.2,.13-.29,.15-.03-.02-.06-.04-.1-.07-.08-.08-.18-.05-.23,.02-.08-.03-.16-.04-.25-.01-.09,.03-.15,.12-.1,.22,.08,.15,.18,.24,.29,.3,.08,.06,.17,.11,.31,.12-.06,.06-.12,.13-.2,.19-.4,.32-.86,.62-.81-.07,.06-.8,.59-1.88,1.33-2.27,.22,.15,.36,.39,.31,.79Zm7.91,4.11c-.95-.18-1.57-1-1.81-1.95,.47,.6,1.15,1.11,1.77,1.46,.02,0,.03,.01,.05,.02,.01,.15,0,.31-.01,.47Zm-1.19-3.11c.41,.66,.87,1.32,1.08,2.04-.69-.43-1.47-1.08-1.8-1.82,0-.26,.04-.51,.11-.75,.11,.18,.2,.36,.31,.54,.08,.13,.24,.09,.29,0Zm3.43-6.92c-.69-.7-1.6-1-2.51-1.29,.01-.02,.02-.04,.01-.06,.43-.03,.89,.09,1.27,.23,.49,.19,1.48,.61,1.62,1.2,.17,.67-.99,.54-2,.14,.44,.13,.89,.23,1.38,.26,.25,.02,.4-.31,.23-.49Zm12.33,5.21c-.5-.47-.7-1.15-.56-1.82,.27,.59,.52,1.18,.56,1.82Zm5.14-1.23c.17,.11,.34,.22,.5,.35,.3,.31,.54,.66,.69,1.06-.9-.11-1.56-.86-1.79-1.73,.19,.12,.41,.21,.59,.32Zm2.77-2.26c-.25-.1-.5-.2-.74-.31,.02-.04,.01-.1-.03-.13-.08-.05-.16-.1-.24-.15,.95,.2,1.86,.51,2.37,1.34-.49-.08-.97-.2-1.44-.35,.23,0,.32-.3,.08-.4Zm7.81-1.82c-1.08,.17-2.12-.31-3-.94,.15-.03,.3-.02,.44,.06,.16,.05,.24-.19,.08-.25-.04-.02-.07-.03-.11-.05,.4,.02,.8,.05,.89,.07,.68,.18,1.37,.48,1.69,1.11Zm-1.66-4.34c.08-.09,.17-.18,.28-.24,.4-.22,.83-.36,1.27-.44,.58-.1,2.04-.34,2.48,.24,.6,.79-1.9,1.04-2.19,1.03-.04,0-.12,0-.22,0,.27-.09,.52-.2,.71-.32,.14-.09,.18-.3,.02-.4-.35-.22-.72-.28-1.12-.25-.12,.01-.18,.16-.07,.23,.16,.11,.34,.16,.52,.22-.57,.24-1.37,.4-1.68-.06Zm-2.34-3.14s-.03-.08-.07-.09c.03-.02,.05-.03,.08-.05,.22-.06,.45-.11,.68-.14,.27-.03,.54-.03,.8,0-.17,.06-.35,.12-.53,.17-.05,.01-.44,.1-.7,.14-.08,0-.16-.01-.24,0,0,0-.02,0-.02-.01Zm.05,.42s.04-.08,.03-.11c.15,.03,.36,.02,.6-.01,.16,.04,.33,.1,.5,.17,.07,.03,.13-.09,.06-.13-.08-.04-.16-.07-.24-.11,.59-.13,1.2-.36,1.33-.42,.17-.08,.14-.34-.03-.39-.35-.11-.73-.17-1.12-.19,.9-.37,1.81-.48,1.97,.24,.3,1.33-1.96,1.27-3.22,1.03,.04-.03,.08-.05,.12-.09Zm-11.25-1.21c-.08,0-.16,0-.24,0,.03-.02,.07-.04,.11-.06,.52,.02,1.03,0,1.52-.08,.13-.02,.1-.21-.02-.22-.03,0-.07,0-.1-.01,.02,0,.05,0,.07,0,.58-.02,1.33-.03,1.88,.26-.98,.8-2.42,.78-3.63,.45,0-.01,0-.02,0-.03,.13-.05,.28-.08,.43-.1,.12-.01,.1-.2-.02-.21Zm5.11-4.86c-.13,.04-.26,.08-.39,.12,.22-.18,.45-.35,.69-.5,.45-.27,2.24-1.3,2.61-.45,.41,.95-1.63,1.2-3.27,1.27,.15-.06,.3-.12,.45-.17,.15-.06,.06-.31-.1-.27Zm-7.24-.66s-.09,.09-.14,.14c0-.04-.04-.08-.08-.09,.2-.63,.56-1.18,1.02-1.67,.04,.51-.02,1.07-.15,1.52-.08,.29-.23,.87-.6,.94-.07,.01-.18,.01-.27,0,.15-.22,.3-.44,.43-.65,.09-.13-.09-.29-.21-.18Zm-10.07,1.42c-.28-.39-.63-.75-1.01-1.06,.45,.14,.87,.37,1.19,.74,.23,.27,.54,.67,.48,1.06-.03,.18-.15,.25-.3,.27-.03-.05-.07-.09-.1-.14,.11-.29-.11-.66-.26-.87Zm.17-6.61c.58-.41,1.29-.71,2-.82,.07-.01,.21-.01,.38,0,0,.04,.02,.08,.08,.09,.39,.08,.75,.22,1.11,.36-.3,.29-.68,.56-1.09,.8-.03-.04-.08-.06-.14-.05-.5,.09-.99,.2-1.49,.31,.23-.21,.33-.46,.04-.74-.08-.07-.18-.04-.22,.05-.05,.11-.09,.23-.14,.34-.35,.13-.7,.29-1.03,.46,0-.25,.18-.55,.5-.78Zm-8.24-2.06c.29-.3,1.7-1.69,1.91-.68,.25,1.22-.33,2.34-1.56,2.66-.24,.06-.5,.11-.76,.11,.02-.02,.03-.03,.05-.05,.54-.18,.95-.6,.93-1.28,0-.15-.1-.24-.24-.26-.22-.03-.5-.04-.76,0,.14-.17,.27-.35,.42-.5Zm-.96,1.69c.05,.08,.17,.02,.17-.06,0-.06,.02-.12,.03-.17,.07-.06,.14-.12,.2-.16,.05-.04,.01-.12-.04-.12,.16-.15,.4-.2,.67-.19-.01,.11-.04,.2-.09,.29-.32,.15-.62,.34-.91,.56-.03,0-.05,.01-.08,.02,0-.05,0-.1,.04-.15Zm-19.31,2.05c.39,.08,.78,.33,1.09,.58-.46,.19-.96,.17-1.43,.02,.02,0,.04,0,.06,0,.22,0,.33-.25,.24-.41,.1,0,.14-.13,.05-.18Zm8.28-3.33c-.1-.02-.19-.05-.29-.07,.14,.03,.2-.16,.06-.21-.48-.18-.97-.34-1.47-.48,.36-.16,.74-.2,1.17-.08,.79,.22,1.73,.64,2.2,1.37-1.03,.27-1.97,.14-2.9-.15,.1,.01,.21,0,.28-.04,.27,0,.54,0,.82,.06,.27,.06,.4-.34,.13-.41Zm-2.19-.46c.07,.01,.14,.03,.21,.04-.03,.03-.03,.08,.02,.1,.15,.06,.29,.12,.44,.17-.16,.07-.24,.26-.14,.38-.28-.11-.57-.22-.85-.34,.08-.14,.2-.26,.25-.31,.02-.02,.05-.03,.07-.05Zm2.33-4.48c.29-.13,.58-.27,.86-.39,.03-.01,.05-.03,.06-.05,.18-.01,.36-.06,.54-.18,.08-.05,.1-.12,.1-.19,.53-.23,1.15-.47,1.7-.42,.02,0,.03,0,.05,0-.08,.17-.21,.33-.34,.47-.35,.36-.69,.62-1.19,.72-.45,.09-.91,.13-1.37,.09-.1,0-.26-.01-.42-.03,0,0,.02-.01,.03-.02Zm-13.66,24.5c-.03,.1-.07,.19-.1,.29s.07,.14,.14,.11c.01,1.01-.56,2.13-1.33,2.69-.15-.66-.17-1.29-.13-1.94,.4-.6,.68-1.24,1.18-1.76,.11,.19,.2,.39,.24,.6Z"/>
      <path class="cls-1" d="M154.73,15.31c.06,0,.12-.02,.16-.07,.05-.06,.1-.14,.16-.23,.15,.08,.32,.12,.52,.05,.69-.23,.93-1.39,1.04-1.98,.07-.36,.05-.92-.06-1.49-.01-.75-.3-1.51-.84-2-.09-.08-.22-.09-.31-.02-.32-.13-.71-.07-1.17,.27-1.46,1.09-1.19,3.77-.04,5.1-.24,1.7-.15,3.4,.12,5.08-.06-.12-.12-.24-.18-.36-.36-.69-.74-1.52-1.25-2.16,.18-1.34-1.01-2.66-2.05-3.32-.17-.11-.37,.03-.38,.22-.05,1.36,.99,2.68,2.05,3.44,.31,.63,.78,1.22,1.1,1.81,.46,.84,.81,1.69,1.08,2.61,.02,.05,.07,.08,.12,.08,.33,1.36,.74,2.72,1.16,4.08,.25,.81,.51,1.74,.82,2.68-1.05-1.95-2.31-4.01-3.92-5.56,.11-.06,.19-.18,.17-.31-.28-1.69-1.56-3.66-3.26-4.18-.22-.07-.43,.11-.43,.33-.03,1.12,.58,2.33,1.28,3.17,.35,.41,1.14,1.2,1.75,.96,1.48,1.97,2.92,3.97,4.41,5.93,.03,.04,.08,.03,.11,0,.52,1.51,1.18,3.02,2.19,4.12-6.13-3.72-12.58-7-18.65-10.25-.34-.18-.68-.35-1.02-.53-1.08-1.56-1.93-3.15-2.64-4.77,.32-1.1,.82-2.03,1.67-2.9,.26-.27,.53-.53,.79-.79,.42,.43,1.07,.65,1.69,.52,.67-.14,1.23-.6,1.56-1.19,.26-.47,.56-1.23,.51-1.86,.04-.33-.1-.66-.4-.85-1.34-.85-3.55,.7-3.78,2.12-.05,.3,0,.57,.1,.81-1.04,1.04-1.97,2.3-2.36,3.67-.96-2.27-1.67-4.6-2.34-6.99,1.12-.67,2.18-1.65,3.06-2.61,.36,.23,.75,.32,1.14,.28,.25,.11,.55,.14,.86,.06,.14-.04,.12-.2,0-.25-.03-.01-.06-.02-.09-.04,.16-.08,.32-.18,.47-.3,.65-.52,1.47-1.5,1.38-2.4-.13-1.23-1.84-.46-2.35,.01-.06,.06-.12,.14-.18,.2-.67,.21-1.35,1.19-1.68,1.73-.07,.11-.05,.26,.04,.35,.06,.07,.13,.13,.2,.18-1.07,.66-2.02,1.63-2.93,2.5-.43-1.52-.86-3.07-1.33-4.64,.23-.26,.37-.54,.43-.83,.7-1.63,.14-3.94-1.66-4.47-.11-.03-.26,.02-.31,.12-.25,.56-.31,1.11-.27,1.64-.35,1.31,.15,2.85,1.17,3.71,.04,.03,.08,.04,.12,.05,.02,.05,.07,.09,.12,.09,.47,2.25,.98,4.65,1.66,7.02-1.05-1.56-2.26-3.14-3.67-4.37,.15-.05,.25-.17,.27-.41,.01-.11-.09-.18-.19-.19-.36-.04-.58,.09-.95-.15-.44-.28-.84-.62-1.19-1.01-.42-.45-.89-.98-1.19-1.56,.57,.36,1.09,.8,1.55,1.29-.13-.1-.26-.19-.38-.29-.07-.06-.17,.03-.11,.1,.48,.55,1.01,1.03,1.59,1.48,.19,.15,.45-.13,.33-.32-.8-1.3-1.99-2.43-3.36-3.11-.21-.1-.44,.06-.39,.29,.27,1.24,1.42,2.43,2.36,3.21,.16,.13,.61,.43,1.03,.58,1.57,1.72,3.17,3.32,4.54,5.23,.17,.54,.35,1.08,.54,1.61-1.13-1.27-2.65-2.37-4.16-3.18,.02-.06,.01-.13-.03-.19-.12-.18-.27-.33-.4-.49-.06-.4-.41-.89-.76-1.21-.65-.6-2.03-1.66-2.94-.87-.81,.71,.4,1.9,.93,2.34,.72,.59,1.88,1.19,2.8,.77,1.69,1.17,3.44,2.13,4.87,3.68,.9,2.32,2.05,4.47,3.62,6.23-5.6-2.94-11.31-5.62-17.15-7.94-1.01-1.18-2.17-2.21-3.32-3.25-.53-1.09-1.03-2.18-1.37-3.35-.24-.83-.37-1.68-.51-2.53,0,0,.02,0,.03-.02,.02-.02,.04-.05,.07-.07,.09,.04,.21-.04,.19-.16,.08,.07,.24,.1,.33-.04,.81-1.25,1.12-3.41-.28-4.35-.11-.07-.27-.05-.36,.04-1.22,1.23-1.14,3.04-.43,4.51,.17,1.84,.88,3.8,1.77,5.44-.48-.44-.96-.88-1.42-1.34-1.71-1.72-3.09-3.54-4.33-5.57,.13,.06,.32,.03,.38-.11,.73-1.71-.76-3.59-2.51-3.72-.13,0-.28,.1-.3,.23-.13,.79,.17,1.51,.68,2.11,.25,.29,.62,.77,1.02,1.02,.7,1.68,1.74,3.25,2.99,4.7-1.19-.83-2.41-1.62-3.63-2.41-.01-.02-.03-.05-.06-.06-.09-.05-.18-.1-.27-.15-.09-.06-.18-.12-.28-.18-.03-.08-.06-.17-.11-.25,.23,.09,.48-.2,.29-.43-.58-.66-1.27-1.19-2.01-1.62-.09-.08-.17-.15-.26-.23-.04-.04-.1-.02-.13,.01-.44-.23-.9-.44-1.38-.61-.16-.06-.39,.1-.37,.28,.11,.99,.74,1.78,1.53,2.35,.65,.47,1.58,1.08,2.46,1.16,1.62,1.29,3.56,2.31,5.33,3.36,1.79,1.85,3.82,3.5,5.68,4.99-4.19-1.65-8.45-3.11-12.8-4.35,0-.02-.02-.05-.05-.06-1.27-.55-2.5-1.29-3.63-2.1-.63-.44-1.25-.96-1.9-1.42,.44,0,.78-.12,.52-.54,.05-.08,.07-.17,.03-.25-.74-1.26-2.19-2.29-3.69-2.24-.16,0-.3,.13-.3,.29,.05,1.31,1.19,2.18,2.34,2.58,1.34,1.41,3.3,2.53,5.18,3.32-1.86-.51-3.73-.96-5.62-1.39-.82-1.09-5.05-2.39-5.29-.27-.14,1.18,1.84,1.52,2.64,1.6,.37,.03,2.98-.06,2.81-.93,2.37,.82,4.75,1.59,7.15,2.32-.64,.05-1.29,.14-1.92,.24-1.14,.19-2.3,.32-3.44,.49-1.03-.87-5-1.98-4.75,.45,.2,1.94,4.13,1.2,4.97,.19,.07-.08,.12-.22,.08-.32,.94-.07,1.89-.29,2.79-.43,1.08-.18,2.16-.28,3.24-.32,3.63,1.11,7.26,2.2,10.84,3.44,2.67,.93,5.25,2.01,7.79,3.18-3.46-.72-7.07-.7-10.67-.39,0,0-.01-.02-.02-.02-1.2-.49-2.48-1.17-3.78-1.62,.03-.05,.05-.1,.06-.16,.11,0,.23-.01,.34-.05,.23-.08,.25-.34,.07-.48-1.35-1.01-3.52-1.62-5.02-.58-.12,.08-.22,.27-.12,.41,.67,.91,2.06,1.26,3.14,1.29,.28,.01,.66-.01,.98-.1,1.25,.48,2.49,.99,3.76,1.36-2.7,.25-5.4,.65-8.03,1.02-.02,0-.04-.02-.05-.03,.03-.12,.04-.23-.03-.32-.06-.08-.15-.12-.24-.07-.09,.05-.17,.12-.25,.19-1.01-.33-2.21-.46-3.14-.44-.89,.02-2.55,.45-1.9,1.73,.74,1.46,3.69,.57,4.98-.4,.29-.04,.59-.08,.89-.05,.13,.01,.2-.09,.21-.2,2.79-.22,5.53-.57,8.27-.82-1.13,.5-2.15,1.31-3.08,2.15-.31-.24-.73-.34-1.09-.15-1.01,.51-1.57,2.19-1.52,3.27,.01,.25,.25,.39,.47,.28,.74-.36,2.81-1.77,2.41-2.86,.02-.05,.03-.1,.02-.15,1.24-.95,2.27-2.09,3.73-2.61,3.28-.28,6.57-.39,9.95,.06,.04,0,.07-.02,.08-.05,3.93,1.84,7.77,3.88,11.63,5.92,2.27,1.2,4.6,2.41,6.94,3.66-4.88-1.76-10.14-1.67-15.41-1.21-.99-.25-1.99-.5-2.92-.95-.72-.35-1.35-.77-1.96-1.24,.13-.07,.23-.22,.18-.37-.22-.71-.67-1.26-1.26-1.62-.43-.56-.98-1-1.6-1.39-.11-.07-.25-.05-.34,.02-.24-.09-.49-.09-.69,.1-.35,.33-.33,.91-.19,1.34,.32,1.02,1.37,1.95,2.48,2.09,.35,.29,.76,.55,1.19,.47,.12-.02,.13-.16,.07-.24,0-.01-.03-.02-.04-.04,1.11,.95,2.58,1.57,4.04,1.91-2.48,.24-4.95,.53-7.37,.74-.05-.03-.1-.06-.15-.09,0,0-.01-.01-.02-.02-.47-.33-1.07-.39-1.67-.34-1.07-.04-2.2,.17-2.88,.59-.21,.13-.35,.27-.44,.41-.11,.07-.23,.13-.33,.21-.15,.12-.12,.41,.06,.5,.11,.06,.22,.09,.33,.14,.39,.55,1.35,.98,1.97,.99,.93,.01,2.15-.13,2.89-.78,.29-.26,.47-.65,.45-1.02,4.29-.1,8.47-.71,12.66-.92-.51,.22-1.01,.51-1.5,.84-1.24,.85-2.43,1.74-3.67,2.58-.17-.09-.36-.15-.52-.18-1.48-.27-2.83,.42-3.2,1.93-.12,.48-.24,1.22,.28,1.53,.47,.28,1.07,.11,1.54-.09,1.27-.55,2.92-1.74,3.3-3.15,.02-.07,0-.15-.04-.21,1.56-1.15,2.98-2.77,4.73-3.3,.74-.02,1.48-.04,2.22-.03,.04,.01,.08,.01,.12,.03,.03,.01,.06,0,.07-.02,2.87,.06,5.76,.43,8.71,1.41,.03,0,.05,0,.08-.01,5.09,2.72,10.23,5.59,15.03,8.84-1.95-.77-4.05-1.02-6.22-.95-2.14-.2-3.77-1.13-5.53-2.14,.03,0,.05,0,.06,0,.07,.01,.13-.02,.16-.07,.1,.04,.19,.08,.29,.12,.28,.19,.54-.26,.26-.44-.11-.07-.23-.14-.35-.2,.2-.66-.5-1.07-1.25-1.21-.66-.26-1.49-.25-2.1,.01-.16,.07-.23,.32-.13,.46,.49,.75,1.78,1.92,2.77,1.51,1.15,.81,2.45,1.7,3.8,2.09-1.83,.2-3.69,.59-5.54,1.04-1.9-.22-3.59-.59-5.3-1.22,.3-.25,.52-.58,.47-.97-.1-.69-.81-.82-1.4-.74-1.07-.77-2.37-1.17-3.73-1.03-.22,.02-.33,.18-.3,.39,.22,1.68,2.58,3.46,4.24,2.79,.08-.03,.17-.07,.26-.12,1.36,.66,2.79,1.12,4.28,1.28-2.42,.62-4.78,1.3-7,1.78-.04-.04-.09-.06-.16-.06-.03,0-.07,.01-.11,.02-.52-.58-1.87-.74-2.45-.71-.66,.03-2.38,.56-2.24,1.49,.12,.78,1.64,.59,2.14,.53,.58-.07,1.16-.16,1.72-.33,.3-.02,.6-.06,.88-.18,.07-.03,.06-.13,0-.17,.04-.03,.09-.05,.12-.09,3.21-.39,6.48-1.43,9.74-2.27-1.12,.66-2.07,1.69-2.89,2.81,.22-.02,.45,0,.67,.03,.99-1.16,2.09-2.21,3.48-3.13,.01,0,.02-.02,.03-.04,4.46-1.06,8.85-1.53,12.96,.82,.21,.15,.41,.3,.61,.44,.23-.11,.48-.15,.75-.09,.16,.04,.32,.09,.47,.13-1.85-1.35-3.75-2.64-5.7-3.87,0,0,0-.02-.02-.03-3.02-1.63-4.07-6.07-4.99-9.38,.04,.12,.23,.08,.23-.04,.06-2.27,1.06-3.83,2.18-5.54,.05,.14,.11,.27,.19,.4,.11,.18,.31,.22,.5,.14,.52-.23,.99-.57,1.36-.99,.06,0,.12-.02,.15-.07,.79-1.03,1.08-2.31,1.04-3.59,0-.23-.2-.36-.42-.33-1.57,.25-3.07,2.15-2.95,3.81-1.5,1.6-2.65,4.08-2.29,6.17-.08-.3-.16-.59-.25-.87-.92-3.13-1.27-6.05-1.01-9.11Zm.24-1.26c-.02-.06-.05-.11-.06-.17,.09-.62,.2-1.24,.34-1.88,0-.04,0-.07-.01-.09,.2,.67,.05,1.47-.26,2.14Zm-.23-1.44c0-.44,.06-.89,.18-1.31,.15,.18,.24,.38,.31,.58-.06-.08-.21-.09-.26,.04-.09,.23-.16,.46-.23,.68Zm1.21-1.27c.06,.25,.09,.51,.11,.77-.02,.18-.07,.36-.13,.53,.08-.77-.1-1.43-.86-1.55-.03,0-.06,0-.08,.01,.1-.26,.22-.5,.38-.73,.27,.19,.48,.54,.57,.97Zm-1.82-.57c.25-.36,.51-.52,.75-.55-.67,1.06-.87,2.51-.5,3.7-.01,.06-.02,.12-.03,.17-.56-1-.79-2.5-.22-3.33Zm-2.16,5.77c-.43-.46-.82-.94-.96-1.57,.63,.51,1.05,1.13,1.3,1.88-.07-.11-.14-.21-.23-.31-.03-.04-.08-.03-.12,0Zm-1.92,3.38c1.1,.56,1.73,1.75,2.2,2.88,0,.02,.02,.04,.02,.06-1.14-.41-2.04-1.69-2.22-2.93Zm-8.27-8.51c.58-.24,.63,.48,.56,.89-.07,.08-.16,.15-.24,.22,0-.19,.04-.39-.09-.53-.23-.24-.72,.17-.89,.28-.03,.02-.05,.04-.06,.07,.13-.4,.34-.76,.73-.92Zm-1.57,.55c.15-.12,.33-.26,.54-.39-.22,.33-.34,.71-.37,1.11-.04-.02-.1-.02-.14,.01-.27,.21-.55,.45-.82,.7-.01-.51,.38-1.09,.8-1.43Zm-.58,1.94c.27-.3,.53-.61,.75-.95,0,.07-.01,.13,0,.2,.04,.33,.5,.35,.53,0,.02-.21,.05-.45,.11-.68,0,.06,.04,.13,.1,.17,.08,.06,.16,.11,.25,.17,.07,.04,.17,.04,.24,0,.03-.01,.06-.02,.09-.03-.02,.01-.05,.03-.07,.04-.08,.04-.03,.17,.06,.14,.1-.04,.22-.1,.33-.15,.03,.08,.14,.02,.12-.05,.03-.02,.06-.02,.09-.04-.32,.94-1.11,1.91-2.2,1.46-.18-.07-.3-.17-.4-.28Zm-1.18-7.16c.07-.2,.18-.39,.3-.56,.04,0,.07,.02,.11,0,.13-.05,.22-.08,.32-.08,.03,.03,.05,.05,.08,.09,.06,.1,.17,.09,.23,.03,.07,.04,.14,.08,.24,.07,.1,0,.18-.09,.15-.19-.04-.17-.12-.28-.22-.36-.07-.08-.14-.15-.27-.19,.07-.05,.15-.1,.23-.14,.46-.22,.98-.41,.77,.25-.24,.77-1,1.69-1.81,1.9-.18-.2-.26-.46-.13-.84Zm-6.77-5.8c.88,.39,1.31,1.34,1.32,2.31-.32-.69-.87-1.34-1.39-1.83-.01-.01-.03-.02-.05-.03,.02-.15,.07-.3,.12-.46Zm.45,3.3c-.25-.74-.55-1.48-.59-2.23,.57,.58,1.19,1.39,1.34,2.18-.07,.25-.16,.49-.28,.7-.06-.2-.11-.4-.18-.6-.05-.14-.21-.14-.28-.06Zm-4.91,5.95c.51,.84,1.33,1.34,2.15,1.83-.02,.01-.02,.03-.03,.05-.42-.07-.85-.29-1.18-.52-.43-.3-1.3-.93-1.31-1.53,0-.69,1.08-.3,1.98,.32-.4-.23-.82-.42-1.28-.57-.24-.08-.46,.21-.33,.42Zm-10.82-7.87c.38,.57,.42,1.28,.14,1.9-.13-.63-.23-1.27-.14-1.9Zm-5.28,.03c-.14-.14-.28-.29-.41-.45-.22-.37-.37-.77-.43-1.19,.85,.31,1.32,1.19,1.35,2.09-.16-.16-.35-.3-.5-.44Zm-3.21,1.57c.22,.16,.44,.31,.65,.47-.03,.04-.03,.09,0,.14,.06,.07,.13,.13,.2,.2-.88-.41-1.7-.92-2-1.84,.46,.19,.9,.42,1.32,.67-.22-.05-.38,.22-.17,.37Zm-8.02,0c1.09,.08,1.99,.78,2.7,1.6-.15,0-.29-.05-.42-.15-.15-.09-.27,.13-.13,.23,.04,.03,.06,.05,.1,.07-.38-.11-.77-.23-.85-.27-.62-.33-1.23-.78-1.4-1.47Zm.63,4.6c-.1,.07-.21,.14-.32,.17-.44,.12-.89,.17-1.34,.14-.59-.03-2.07-.13-2.37-.79-.41-.9,2.09-.58,2.37-.51,.04,0,.12,.03,.21,.05-.28,.02-.55,.08-.77,.15-.16,.06-.24,.25-.11,.38,.29,.29,.64,.44,1.04,.5,.12,.02,.21-.11,.12-.21-.13-.14-.3-.24-.46-.33,.61-.1,1.43-.08,1.62,.45Zm1.57,3.59s.01,.08,.05,.1c-.03,.01-.06,.02-.09,.03-.23,0-.46,0-.7-.02-.27-.03-.53-.09-.78-.18,.18-.02,.37-.04,.55-.04,.05,0,.45,0,.72,.03,.08,.03,.15,.05,.23,.06,0,0,.01,.01,.01,.02Zm.04-.42s-.06,.06-.06,.1c-.14-.07-.35-.11-.58-.12-.15-.08-.3-.17-.45-.28-.06-.05-.15,.06-.09,.11,.07,.06,.14,.11,.21,.16-.6,0-1.25,.08-1.39,.11-.19,.04-.21,.3-.06,.39,.32,.19,.67,.33,1.05,.44-.96,.15-1.87,.05-1.86-.68,0-1.36,2.2-.79,3.37-.28-.05,.02-.09,.03-.14,.06Zm10.68,3.73c.08,.02,.15,.04,.23,.06-.03,.02-.08,.02-.12,.03-.5-.14-1-.24-1.5-.27-.13,0-.14,.18-.03,.22,.03,.01,.06,.02,.1,.03-.02,0-.05,0-.06-.01-.57-.11-1.3-.27-1.77-.68,1.13-.56,2.53-.21,3.64,.39,0,.01,0,.02-.01,.03-.14,.02-.29,.02-.44,0-.12-.02-.14,.18-.03,.2Zm-6.08,3.57c.14,0,.27-.02,.41-.03-.26,.13-.52,.24-.79,.33-.5,.16-2.48,.76-2.65-.15-.19-1.02,1.86-.8,3.47-.49-.16,.02-.32,.04-.48,.06-.16,.02-.13,.29,.03,.28Zm6.9,2.29c.06-.03,.11-.07,.16-.1,0,.04,.02,.09,.06,.1-.34,.57-.81,1.02-1.37,1.4,.07-.51,.27-1.04,.49-1.45,.15-.27,.42-.79,.79-.78,.08,0,.18,.03,.27,.07-.19,.18-.39,.36-.57,.54-.11,.11,.03,.3,.17,.22Zm10.13,.91c.18,.44,.44,.87,.74,1.26-.41-.24-.77-.56-.99-.99-.16-.32-.37-.78-.23-1.14,.07-.17,.2-.21,.35-.2,.02,.05,.04,.1,.06,.16-.17,.26-.04,.66,.06,.91Zm-1.67,6.39c-.66,.26-1.42,.4-2.13,.35-.07,0-.21-.03-.37-.08,0-.04,0-.08-.05-.1-.36-.17-.68-.38-1-.61,.36-.21,.79-.39,1.24-.53,.02,.04,.06,.08,.13,.08,.51,.03,1.01,.03,1.52,.04-.27,.15-.42,.38-.21,.71,.06,.09,.17,.08,.23,0,.08-.1,.14-.2,.21-.3,.38-.05,.75-.12,1.11-.21-.05,.24-.3,.5-.67,.65Zm7.56,3.88c-.35,.22-2.04,1.26-2.02,.22,.03-1.24,.86-2.2,2.12-2.23,.25,0,.51,0,.77,.07-.02,.01-.04,.03-.06,.04-.57,.05-1.06,.37-1.2,1.03-.03,.14,.04,.26,.18,.31,.2,.08,.48,.16,.74,.18-.17,.14-.35,.28-.53,.39Zm1.32-1.43c-.04-.09-.16-.06-.18,.02-.02,.06-.04,.11-.07,.16-.08,.04-.17,.09-.23,.11-.06,.03-.04,.11,.02,.13-.19,.11-.44,.1-.7,.03,.04-.1,.09-.19,.15-.26,.35-.07,.68-.19,1.01-.34,.03,0,.06,0,.08,0,0,.05-.03,.1-.08,.14Zm19.27,2.39c-.36-.17-.69-.5-.93-.81,.49-.08,.98,.05,1.4,.31-.02,0-.04,0-.06-.01-.22-.04-.38,.17-.33,.35-.1-.02-.17,.1-.09,.17Zm-8.82,1.36c.09,.05,.18,.09,.27,.13-.12-.06-.23,.11-.11,.19,.43,.28,.87,.55,1.32,.8-.38,.07-.77,.02-1.16-.19-.72-.4-1.54-1.02-1.83-1.83,1.07-.03,1.95,.31,2.79,.81-.1-.03-.2-.05-.28-.03-.27-.06-.52-.12-.78-.24-.24-.12-.46,.24-.22,.37Zm2.02,.94c-.07-.03-.13-.06-.2-.09,.03-.03,.05-.07,0-.1-.13-.09-.26-.18-.39-.27,.17-.03,.29-.2,.22-.34,.25,.17,.5,.34,.75,.53-.11,.12-.25,.21-.31,.25-.03,.01-.05,.02-.08,.03Zm-3.29,3.83c-.31,.06-.63,.13-.93,.19-.03,0-.05,.02-.07,.04-.18-.03-.37-.02-.57,.05-.09,.03-.13,.1-.14,.16-.57,.1-1.23,.2-1.75,.02-.02,0-.03,0-.05-.01,.11-.15,.28-.28,.44-.38,.42-.27,.81-.44,1.33-.43,.46,.01,.92,.08,1.36,.22,.1,.03,.25,.07,.41,.13,0,0-.02,0-.03,.01Zm18.87-20.75c.05-.09,.11-.17,.16-.26s-.03-.16-.11-.14c.22-.99,1.03-1.95,1.91-2.32,0,.67-.13,1.3-.32,1.92-.52,.5-.94,1.06-1.55,1.44-.07-.21-.1-.42-.09-.64Z"/>
    </g>
  </g>
</svg>