<?xml version="1.0" encoding="UTF-8"?>
<svg id="Layer_2" data-name="Layer 2" xmlns="http://www.w3.org/2000/svg" viewBox="0 0 95.47 95">
  <defs>
    <style>
      .cls-1 {
        fill: #d1caa1;
      }
    </style>
  </defs>
  <g id="content_cover" data-name="content cover">
    <g>
      <g>
        <path class="cls-1" d="M62.9,61.94l.31-.03,.15-.02,.14-.03c.19-.05,.38-.1,.56-.15,.17-.07,.33-.14,.49-.21,.08-.04,.16-.07,.24-.12l.25-.15c.65-.43,1.09-1.01,1.36-1.58,.26-.58,.37-1.17,.32-1.77-.03-.3-.1-.61-.28-.92-.05-.08-.09-.15-.16-.23-.06-.07-.13-.14-.21-.21-.15-.13-.34-.22-.52-.27-.37-.09-.65,0-.85,.07-.19,.09-.33,.19-.43,.29-.39,.41-.42,.72-.3,.87,.12,.16,.44,.13,.8,.13,.06,0,.12,.01,.17,.02-.03,.02-.07,.04-.11,.06-.08,.03-.05,.02-.07,.03,0,0-.01,.02-.02,.03-.01,.03-.03,.06-.04,.1-.07,.17-.19,.42-.37,.62-.18,.21-.4,.37-.62,.47-.03,0-.06,.02-.09,.03-.03,.01-.08,.02-.12,.03-.08,.02-.16,.05-.24,.07-.08,0-.15,.02-.23,.03h-.06s-.05,0-.05,0c-.03,0-.07,0-.1,0-.26-.02-.48-.09-.72-.26-.23-.17-.58-.52-.82-1.12-.13-.29-.21-.64-.26-1.01-.05-.37-.03-.76,.05-1.18,.15-.83,.61-1.73,1.27-2.54,0,0,0-.01,.01-.02,.05-.02,.1-.04,.15-.06,1-1,2.2-1.75,3.46-2.42,.57-.19,1.14-.3,1.69-.3,.46-.02,.9,.05,1.3,.17,.2,.05,.38,.14,.57,.21,.17,.09,.35,.18,.49,.28,.61,.41,1.02,.91,1.28,1.28,.25,.37,.4,.59,.44,.57,.03-.01,0-.27-.16-.72-.16-.44-.47-1.07-1.09-1.7-.15-.16-.34-.3-.53-.44-.2-.13-.41-.28-.65-.38-.15-.08-.32-.15-.49-.21,.21-.07,.42-.14,.6-.24,.24-.1,.45-.25,.65-.37,.19-.15,.38-.28,.53-.44,.63-.62,.95-1.25,1.11-1.69,.16-.45,.2-.71,.16-.72-.04-.02-.18,.2-.44,.57-.26,.36-.68,.86-1.29,1.27-.15,.11-.33,.19-.5,.28-.19,.07-.37,.16-.57,.21-.4,.12-.84,.17-1.31,.15-.93-.02-1.93-.34-2.86-.85-.93-.51-1.78-1.23-2.43-2.04-.65-.81-1.09-1.72-1.23-2.56-.07-.42-.09-.81-.03-1.18,.05-.37,.14-.72,.27-1.01,.24-.6,.6-.94,.83-1.11,.24-.17,.46-.24,.72-.25,.03,0,.07,0,.1,0h.05s.06,0,.06,0c.07,.01,.15,.03,.23,.03,.08,.03,.16,.05,.24,.08,.04,.01,.09,.02,.12,.03,.03,.01,.06,.02,.09,.03,.23,.1,.44,.27,.62,.48,.17,.21,.29,.46,.36,.63,.02,.04,.03,.08,.04,.11,0,0,.01,.03,.02,.03,.02,0-.01,0,.07,.03,.05,.02,.08,.04,.11,.06-.05,.01-.11,.02-.17,.02-.37,0-.68-.04-.81,.12-.12,.15-.09,.46,.29,.87,.1,.1,.24,.21,.43,.3,.2,.08,.48,.17,.85,.08,.18-.04,.37-.14,.53-.26,.08-.06,.15-.13,.21-.21,.07-.08,.11-.15,.16-.23,.18-.31,.26-.62,.29-.92,.06-.6-.04-1.19-.3-1.77-.26-.58-.69-1.17-1.34-1.6l-.25-.15c-.08-.05-.16-.08-.24-.12-.16-.07-.32-.15-.49-.22-.18-.06-.37-.11-.56-.16l-.14-.04-.15-.02-.31-.03c-.84-.06-1.78,.2-2.49,.72-.72,.51-1.41,1.38-1.77,2.48-.2,.55-.3,1.15-.33,1.78-.03,.64,.05,1.32,.24,1.96,.19,.68,.5,1.33,.88,1.92-5.7-.64-12.19,3.46-12.93,3.94h-.01s0,0,0,0c0,0,0,0,0,0h.01c.71,.5,6.78,4.61,12.38,4.38-.21,.39-.38,.8-.5,1.22-.2,.64-.29,1.32-.27,1.96,.02,.64,.12,1.24,.3,1.79,.34,1.1,1.02,1.99,1.74,2.5,.7,.53,1.64,.81,2.48,.75Zm-10-12.75s5.61-3.47,7.41,.12c0,0-1.76,2.96-7.41-.12Z"/>
        <path class="cls-1" d="M88.86,53.03c-3.38-1.49-8.12-1.89-8.75-1.94-.04,0-.07-.03-.07-.05l-1.65-1.45c-.22-.19-.22-.53,0-.72l1.65-1.45s.03-.05,.07-.05c.63-.05,5-.38,8.75-1.94,.03-.01,5.4,2.99,6.53,3.67,.11,.07,.11,.2,0,.27-1.12,.68-6.5,3.68-6.53,3.67Z"/>
        <path class="cls-1" d="M77.67,49.27l-2.26-2.39h0c-.58,.43-3.9,2.39-3.9,2.39h0s3.32,1.86,3.9,2.29h0l2.26-2.29Z"/>
        <g>
          <path class="cls-1" d="M85.36,30.7c0-.26,.11-.52,.37-.73,.26-.21,.67-.37,1.22-.38,.55,0,1.23,.19,1.86,.63,.63,.44,1.16,1.13,1.45,1.91,.16,.39,.27,.91,.3,1.51,.03,.6-.04,1.26-.23,1.92-.19,.66-.49,1.3-.87,1.88-.38,.58-.84,1.09-1.33,1.52-.49,.42-1,.76-1.48,1.01-.24,.12-.48,.24-.7,.33-.23,.09-.44,.17-.63,.23-.2,.06-.38,.1-.54,.14-.16,.03-.3,.05-.42,.06-.24,.02-.37,0-.4-.05-.02-.05,.06-.17,.21-.33,.17-.18,.39-.41,.64-.66,.13-.14,.26-.29,.4-.45,.14-.16,.28-.34,.42-.52,.28-.37,.54-.78,.76-1.21,.21-.43,.38-.88,.49-1.32,.1-.43,.14-.85,.13-1.22,0-.37-.07-.68-.14-.92-.01-.06-.04-.12-.05-.17-.02-.05-.03-.11-.05-.15-.02-.04-.03-.09-.05-.13-.02-.04-.03-.07-.04-.1-.1-.26-.18-.47-.26-.68-.08-.21-.18-.43-.32-.66-.27-.46-.71-.93-.73-1.46Z"/>
          <path class="cls-1" d="M82.49,19.79c-.14,.03-.29,0-.43-.11-.14-.11-.27-.32-.34-.61-.06-.29-.04-.68,.13-1.06,.16-.38,.47-.74,.86-.99,.19-.13,.46-.24,.77-.33,.32-.08,.68-.12,1.05-.09,.37,.03,.75,.12,1.1,.26,.35,.14,.68,.33,.96,.54,.28,.22,.51,.45,.71,.68,.09,.12,.18,.23,.25,.34,.07,.11,.14,.21,.19,.31,.05,.1,.1,.19,.13,.27,.04,.08,.06,.16,.08,.22,.04,.12,.04,.2,.02,.22-.02,.02-.09-.01-.2-.07-.12-.07-.26-.16-.42-.27-.09-.05-.18-.11-.28-.17-.1-.06-.21-.11-.32-.17-.23-.11-.48-.2-.73-.27-.25-.07-.51-.11-.76-.11-.24,0-.47,.02-.67,.06-.19,.04-.36,.11-.48,.18-.03,.01-.06,.03-.09,.05-.03,.01-.05,.03-.07,.04-.02,.01-.04,.03-.06,.04-.02,.01-.03,.03-.05,.04-.13,.08-.23,.15-.33,.22-.1,.07-.21,.14-.32,.25-.22,.2-.41,.48-.7,.55Z"/>
          <path class="cls-1" d="M84.97,45.59c3.29-.75,6.54-3.51,8.36-6.6,1.86-3.15,2.09-7.01,1.79-10.52-.35-4.12-1.32-8.1-1.99-12.15-.63-3.84-1-7.93,.38-11.75,.15-.43,.1-.91-.19-1.03-.17-.3-.66-.3-1.04-.05-2.87,1.85-4.37,5.55-4.75,8.97-.39,3.52,1.69,6.4,3.57,8.97-1.53-.45-3.11-.63-4.62,.29-.66,.4-2.17,1.93,.3,1.44,2.58-.51,4.5,2.47,5.61,4.77,1.32,2.75,1,6.27,.19,9.25-.02,.08-.03,.16-.03,.24-.13,.28-.26,.55-.41,.82-2.85,5.15-8.31,6.89-13.21,5.72-3.82-.91-8.6-3.56-9.24-8.22-.28-2.05,.58-4.28,2.01-5.65,.45-.43,.85-.6,1.24-.79,1.06-.5,2.71-.07,3.79,.72-1.19,1.22-1.67,3.39-1.62,5.13,.06,2.32,1.71,4.6,3.66,4.27,.13,0,1.12-.43,1.35-.55,3.39-1.68,2.57-8.29-.95-10.97-3.94-2.99-8.51-.22-10.36,4.35-1.75,4.33,.87,8.28,3.92,10.53,3.4,2.51,8.05,3.75,12.25,2.8Zm-7.49-9.04s0,.04,0,.05c-.01-.03-.03-.06-.04-.1,.02,.01,.03,.03,.05,.04Z"/>
        </g>
        <g>
          <path class="cls-1" d="M85.36,67.6c0,.26,.11,.52,.37,.73,.26,.21,.67,.37,1.22,.38,.55,0,1.23-.19,1.86-.63,.63-.44,1.16-1.13,1.45-1.91,.16-.39,.27-.91,.3-1.51,.03-.6-.04-1.26-.23-1.92-.19-.66-.49-1.3-.87-1.88-.38-.58-.84-1.09-1.33-1.52-.49-.42-1-.76-1.48-1.01-.24-.12-.48-.24-.7-.33-.23-.09-.44-.17-.63-.23-.2-.06-.38-.1-.54-.14-.16-.03-.3-.05-.42-.06-.24-.02-.37,0-.4,.05-.02,.05,.06,.17,.21,.33,.17,.18,.39,.41,.64,.66,.13,.14,.26,.29,.4,.45,.14,.16,.28,.34,.42,.52,.28,.37,.54,.78,.76,1.21,.21,.43,.38,.88,.49,1.32,.1,.43,.14,.85,.13,1.22,0,.37-.07,.68-.14,.92-.01,.06-.04,.12-.05,.17-.02,.05-.03,.11-.05,.15-.02,.04-.03,.09-.05,.13-.02,.04-.03,.07-.04,.1-.1,.26-.18,.47-.26,.68-.08,.21-.18,.43-.32,.66-.27,.46-.71,.93-.73,1.46Z"/>
          <path class="cls-1" d="M82.49,78.51c-.14-.03-.29,0-.43,.11-.14,.11-.27,.32-.34,.61-.06,.29-.04,.68,.13,1.06,.16,.38,.47,.74,.86,.99,.19,.13,.46,.24,.77,.33,.32,.08,.68,.12,1.05,.09,.37-.03,.75-.12,1.1-.26,.35-.14,.68-.33,.96-.54,.28-.22,.51-.45,.71-.68,.09-.12,.18-.23,.25-.34,.07-.11,.14-.21,.19-.31,.05-.1,.1-.19,.13-.27,.04-.08,.06-.16,.08-.22,.04-.12,.04-.2,.02-.22-.02-.02-.09,.01-.2,.07-.12,.07-.26,.16-.42,.27-.09,.05-.18,.11-.28,.17-.1,.06-.21,.11-.32,.17-.23,.11-.48,.2-.73,.27-.25,.07-.51,.11-.76,.11-.24,0-.47-.02-.67-.06-.19-.04-.36-.11-.48-.18-.03-.01-.06-.03-.09-.05-.03-.01-.05-.03-.07-.04-.02-.01-.04-.03-.06-.04-.02-.01-.03-.03-.05-.04-.13-.08-.23-.15-.33-.22-.1-.07-.21-.14-.32-.25-.22-.2-.41-.48-.7-.55Z"/>
          <path class="cls-1" d="M72.72,55.52c-3.04,2.25-5.67,6.21-3.92,10.53,1.85,4.58,6.42,7.35,10.36,4.35,3.53-2.68,4.34-9.29,.95-10.97-.23-.11-1.22-.56-1.35-.55-1.96-.33-3.61,1.95-3.66,4.27-.04,1.74,.43,3.91,1.62,5.13-1.08,.79-2.73,1.22-3.79,.72-.39-.18-.79-.36-1.24-.79-1.42-1.37-2.29-3.6-2.01-5.65,.64-4.66,5.42-7.31,9.24-8.22,4.9-1.17,10.36,.57,13.21,5.72,.15,.27,.28,.54,.41,.82,0,.08,0,.15,.03,.24,.82,2.98,1.13,6.5-.19,9.25-1.11,2.3-3.02,5.28-5.61,4.77-2.47-.49-.95,1.04-.3,1.44,1.51,.91,3.09,.73,4.62,.29-1.88,2.58-3.96,5.45-3.57,8.97,.38,3.41,1.88,7.12,4.75,8.97,.38,.24,.86,.24,1.04-.05,.29-.13,.34-.6,.19-1.03-1.38-3.82-1.01-7.92-.38-11.75,.66-4.05,1.63-8.03,1.99-12.15,.3-3.51,.07-7.37-1.79-10.52-1.82-3.08-5.07-5.85-8.36-6.6-4.2-.95-8.85,.29-12.25,2.8Zm4.71,6.28s.03-.07,.04-.1c0,.02,0,.04,0,.05-.02,.01-.03,.03-.05,.04Z"/>
        </g>
      </g>
      <g>
        <path class="cls-1" d="M58.65,32.56l-.03-.31-.02-.15-.03-.14c-.05-.19-.1-.38-.15-.56-.07-.17-.14-.33-.21-.49-.04-.08-.07-.16-.12-.24l-.15-.25c-.43-.65-1.01-1.09-1.58-1.36-.58-.26-1.17-.37-1.77-.32-.3,.03-.61,.1-.92,.28-.08,.05-.15,.09-.23,.16-.07,.06-.14,.13-.21,.21-.13,.15-.22,.34-.27,.52-.09,.37,0,.65,.07,.85,.09,.19,.19,.33,.29,.43,.41,.39,.72,.42,.87,.3,.16-.12,.13-.44,.13-.8,0-.06,.01-.12,.02-.17,.02,.03,.04,.07,.06,.11,.03,.08,.02,.05,.03,.07,0,0,.02,.01,.03,.02,.03,.01,.06,.03,.1,.04,.17,.07,.42,.19,.62,.37,.21,.18,.37,.4,.47,.62,0,.03,.02,.06,.03,.09,.01,.03,.02,.08,.03,.12,.02,.08,.05,.16,.07,.24,0,.08,.02,.15,.03,.23v.06s0,.05,0,.05c0,.03,0,.07,0,.1-.02,.26-.09,.48-.26,.72-.17,.23-.52,.58-1.12,.82-.29,.13-.64,.21-1.01,.26-.37,.05-.76,.03-1.18-.05-.83-.15-1.73-.61-2.54-1.26,0,0-.01,0-.02-.01-.02-.05-.04-.1-.06-.15-1-1-1.75-2.2-2.42-3.46-.19-.57-.3-1.14-.3-1.69-.02-.46,.05-.9,.17-1.3,.05-.2,.14-.39,.21-.57,.09-.17,.18-.35,.28-.49,.41-.61,.91-1.02,1.28-1.28,.37-.25,.59-.4,.57-.44-.01-.03-.27,0-.72,.16-.44,.16-1.07,.47-1.7,1.09-.16,.15-.3,.34-.44,.53-.13,.2-.28,.41-.38,.65-.08,.15-.15,.32-.21,.49-.07-.21-.14-.42-.24-.6-.1-.24-.25-.45-.37-.65-.15-.19-.28-.38-.44-.53-.62-.63-1.25-.95-1.69-1.11-.45-.16-.71-.2-.72-.16-.02,.04,.2,.18,.57,.44,.36,.26,.86,.67,1.27,1.29,.11,.15,.19,.33,.28,.5,.07,.19,.16,.37,.21,.57,.12,.4,.17,.84,.15,1.31-.02,.93-.33,1.93-.84,2.86-.51,.93-1.22,1.78-2.04,2.43-.81,.65-1.72,1.09-2.56,1.23-.42,.07-.81,.09-1.18,.03-.37-.05-.72-.14-1.01-.27-.6-.24-.94-.6-1.11-.83-.17-.24-.24-.46-.25-.72,0-.03,0-.07,0-.1v-.05s0-.06,0-.06c.01-.07,.03-.15,.03-.23,.03-.08,.05-.16,.08-.24,.01-.04,.02-.09,.03-.12,.01-.03,.02-.06,.03-.09,.1-.23,.27-.44,.48-.62,.21-.17,.46-.29,.63-.36,.04-.02,.08-.03,.11-.04,0,0,.03-.01,.03-.02,0-.02,0,.01,.03-.07,.02-.05,.04-.08,.06-.11,.01,.05,.02,.11,.02,.17,0,.37-.04,.68,.12,.81,.15,.12,.46,.09,.87-.29,.1-.1,.21-.24,.3-.43,.08-.2,.17-.48,.08-.85-.04-.18-.14-.37-.26-.53-.06-.08-.13-.15-.21-.21-.08-.07-.15-.11-.23-.16-.31-.18-.62-.26-.92-.29-.6-.06-1.19,.04-1.77,.3-.58,.26-1.17,.7-1.6,1.34l-.15,.25c-.05,.08-.08,.16-.12,.24-.07,.16-.15,.32-.22,.49-.06,.18-.11,.37-.16,.56l-.04,.14-.02,.15-.03,.31c-.06,.84,.2,1.78,.72,2.49,.51,.72,1.38,1.41,2.48,1.77,.55,.19,1.15,.3,1.78,.33,.64,.03,1.32-.05,1.96-.24,.68-.19,1.33-.5,1.92-.88-.64,5.7,3.46,12.18,3.95,12.93h0s0,0,0,0c0,0,0,0,0,0h0c.5-.73,4.61-6.8,4.38-12.4,.39,.21,.8,.38,1.22,.5,.64,.2,1.32,.29,1.96,.27,.64-.02,1.24-.12,1.79-.3,1.1-.34,1.99-1.02,2.5-1.74,.53-.7,.8-1.64,.75-2.48Zm-12.75,10.01s-3.47-5.61,.12-7.41c0,0,2.97,1.76-.12,7.41Z"/>
        <path class="cls-1" d="M49.73,6.61c-1.49,3.38-1.89,8.12-1.93,8.75,0,.04-.03,.07-.05,.07l-1.45,1.65c-.19,.22-.53,.22-.72,0l-1.45-1.65s-.05-.03-.05-.07c-.05-.63-.39-5-1.94-8.75-.01-.03,2.99-5.4,3.67-6.53,.07-.11,.2-.11,.27,0,.68,1.12,3.69,6.5,3.67,6.52Z"/>
        <path class="cls-1" d="M45.98,17.8l-2.39,2.26h0c.43,.58,2.39,3.9,2.39,3.9h0s1.86-3.32,2.29-3.9h0l-2.29-2.26Z"/>
        <g>
          <path class="cls-1" d="M27.4,10.12c-.26,0-.52-.11-.73-.37-.21-.26-.37-.67-.38-1.22,0-.55,.19-1.23,.63-1.86,.44-.63,1.13-1.16,1.9-1.45,.39-.16,.91-.27,1.51-.3,.6-.03,1.26,.04,1.92,.23,.66,.19,1.3,.49,1.88,.87,.58,.38,1.09,.84,1.52,1.33,.42,.49,.76,1,1.02,1.48,.13,.24,.24,.48,.33,.7,.09,.23,.17,.44,.23,.63,.06,.2,.1,.38,.14,.54,.04,.16,.05,.3,.06,.42,.02,.24,0,.37-.05,.4-.05,.02-.17-.06-.33-.21-.18-.17-.41-.39-.66-.64-.14-.13-.29-.26-.45-.4-.16-.14-.34-.28-.52-.42-.37-.28-.78-.54-1.21-.76-.43-.21-.88-.38-1.32-.49-.43-.1-.85-.14-1.22-.13-.37,0-.68,.07-.92,.14-.06,.01-.12,.04-.17,.05-.05,.02-.11,.03-.15,.05-.04,.02-.09,.03-.13,.05-.04,.02-.07,.03-.1,.05-.26,.1-.47,.18-.68,.26-.21,.08-.43,.18-.66,.32-.46,.27-.93,.71-1.46,.73Z"/>
          <path class="cls-1" d="M16.49,12.99c.03,.14,0,.29-.11,.43-.11,.14-.32,.27-.61,.34-.29,.06-.68,.04-1.06-.13-.38-.16-.74-.47-.99-.86-.13-.19-.25-.46-.33-.77-.08-.32-.12-.68-.09-1.05,.03-.37,.12-.75,.26-1.1,.14-.35,.33-.68,.54-.96,.22-.28,.45-.51,.68-.71,.12-.09,.23-.18,.34-.25,.11-.07,.21-.14,.31-.19,.1-.05,.19-.1,.27-.13,.08-.04,.16-.06,.22-.08,.12-.04,.2-.05,.22-.02,.02,.02-.01,.09-.07,.2-.07,.12-.16,.26-.27,.42-.05,.09-.11,.18-.17,.28-.06,.1-.11,.21-.17,.32-.11,.23-.2,.48-.27,.73-.07,.25-.11,.51-.11,.76,0,.24,.02,.47,.06,.67,.04,.19,.11,.36,.18,.48,.01,.03,.03,.06,.05,.09,.01,.03,.03,.05,.04,.07,.01,.02,.03,.04,.04,.06,.01,.02,.03,.03,.04,.05,.08,.13,.15,.23,.22,.33,.07,.1,.14,.21,.25,.32,.2,.22,.48,.41,.55,.7Z"/>
          <path class="cls-1" d="M42.29,10.5c-.75-3.29-3.52-6.54-6.6-8.36C32.54,.29,28.68,.05,25.17,.36c-4.12,.35-8.1,1.33-12.15,1.99-3.84,.63-7.93,1-11.75-.38-.43-.15-.91-.1-1.03,.19-.3,.17-.3,.66-.05,1.04,1.85,2.87,5.56,4.36,8.97,4.74,3.52,.39,6.4-1.69,8.97-3.57-.45,1.53-.63,3.11,.29,4.62,.4,.66,1.93,2.17,1.44-.3-.52-2.58,2.46-4.5,4.77-5.61,2.75-1.32,6.27-1.01,9.25-.19,.08,.02,.16,.03,.24,.03,.28,.13,.55,.26,.82,.41,5.15,2.85,6.89,8.31,5.73,13.21-.91,3.82-3.56,8.6-8.21,9.24-2.05,.28-4.28-.58-5.65-2-.43-.45-.6-.85-.79-1.24-.5-1.06-.07-2.71,.72-3.79,1.22,1.19,3.39,1.66,5.13,1.62,2.32-.06,4.6-1.71,4.27-3.66,0-.13-.43-1.12-.55-1.35-1.68-3.38-8.29-2.57-10.97,.96-2.99,3.94-.22,8.51,4.36,10.36,4.33,1.75,8.28-.87,10.53-3.92,2.51-3.4,3.75-8.06,2.8-12.25Zm-9.03,7.5s.04,0,.05,0c-.03,.01-.06,.03-.1,.04,.01-.02,.03-.03,.04-.05Z"/>
        </g>
        <g>
          <path class="cls-1" d="M64.3,10.1c.26,0,.52-.11,.73-.37,.21-.26,.37-.67,.38-1.22,0-.55-.19-1.23-.63-1.86-.44-.63-1.13-1.16-1.91-1.45-.39-.16-.91-.27-1.51-.3-.6-.03-1.26,.04-1.92,.23-.66,.19-1.3,.49-1.88,.87-.58,.38-1.09,.84-1.52,1.33-.42,.49-.76,1-1.01,1.48-.12,.24-.23,.48-.33,.7-.09,.23-.17,.44-.23,.63-.06,.2-.1,.38-.14,.54-.03,.16-.05,.3-.06,.42-.02,.24,0,.37,.05,.4,.05,.02,.17-.06,.33-.21,.18-.17,.41-.39,.66-.64,.14-.13,.29-.26,.45-.4,.16-.14,.34-.28,.52-.42,.37-.28,.78-.54,1.21-.76,.43-.21,.88-.38,1.32-.49,.43-.1,.85-.15,1.22-.14,.37,0,.68,.07,.92,.14,.06,.01,.12,.04,.17,.05,.05,.02,.11,.03,.15,.05,.04,.02,.09,.03,.13,.05,.04,.02,.07,.03,.1,.04,.26,.1,.47,.18,.68,.26,.21,.08,.43,.18,.66,.32,.46,.27,.93,.71,1.46,.72Z"/>
          <path class="cls-1" d="M75.22,12.97c-.03,.14,0,.29,.11,.43,.11,.14,.32,.27,.61,.34,.29,.06,.68,.04,1.06-.13,.38-.16,.74-.47,.99-.86,.13-.19,.24-.46,.33-.77,.08-.32,.12-.68,.09-1.05-.03-.37-.12-.75-.26-1.1-.14-.35-.33-.68-.54-.96-.22-.28-.45-.51-.68-.71-.12-.09-.23-.18-.34-.25-.11-.07-.21-.14-.31-.19-.1-.05-.19-.1-.27-.13-.08-.04-.16-.06-.22-.08-.12-.04-.2-.04-.22-.02-.02,.02,.01,.09,.07,.2,.07,.12,.16,.26,.27,.42,.05,.09,.11,.18,.17,.28,.06,.1,.11,.21,.17,.32,.11,.23,.2,.48,.27,.73,.07,.25,.11,.51,.11,.76,0,.24-.02,.47-.06,.67-.04,.19-.11,.36-.18,.48-.01,.03-.03,.06-.05,.09-.01,.03-.03,.05-.04,.07-.01,.02-.03,.04-.04,.06-.01,.02-.03,.03-.04,.05-.08,.13-.15,.23-.22,.33-.07,.1-.14,.21-.25,.32-.2,.22-.48,.42-.55,.7Z"/>
          <path class="cls-1" d="M52.23,22.75c2.25,3.04,6.21,5.67,10.53,3.91,4.58-1.86,7.34-6.43,4.35-10.36-2.68-3.52-9.29-4.33-10.97-.95-.11,.23-.55,1.22-.54,1.35-.32,1.96,1.95,3.61,4.27,3.66,1.74,.04,3.91-.43,5.13-1.62,.79,1.07,1.22,2.73,.72,3.79-.18,.39-.36,.79-.79,1.24-1.37,1.42-3.6,2.29-5.65,2.01-4.66-.64-7.31-5.41-8.22-9.23-1.17-4.9,.56-10.36,5.71-13.22,.27-.15,.54-.28,.82-.41,.08,0,.15,0,.24-.03,2.98-.82,6.5-1.13,9.25,.18,2.3,1.11,5.28,3.02,4.77,5.61-.49,2.47,1.04,.95,1.44,.29,.91-1.51,.73-3.09,.28-4.62,2.58,1.88,5.45,3.96,8.97,3.57,3.41-.38,7.12-1.88,8.96-4.75,.24-.38,.24-.86-.05-1.04-.13-.29-.6-.34-1.03-.19-3.82,1.38-7.92,1.01-11.75,.39-4.05-.66-8.03-1.63-12.15-1.98-3.51-.3-7.37-.06-10.52,1.79-3.08,1.82-5.85,5.07-6.6,8.36-.95,4.2,.29,8.85,2.81,12.25Zm6.28-4.71s-.07-.03-.1-.04c.02,0,.04,0,.05,0,.01,.02,.03,.03,.04,.05Z"/>
        </g>
      </g>
    </g>
  </g>
</svg>