<?xml version="1.0" encoding="UTF-8"?>
<svg id="Layer_2" data-name="Layer 2" xmlns="http://www.w3.org/2000/svg" viewBox="0 0 264.75 264.75">
  <defs>
    <style>
      .cls-1 {
        fill: #d1caa1;
      }

      .cls-2 {
        fill: none;
        stroke: #d1caa1;
        stroke-miterlimit: 10;
      }
    </style>
  </defs>
  <g id="content_cover" data-name="content cover">
    <g>
      <g>
        <ellipse class="cls-2" cx="132.38" cy="132.38" rx="110.63" ry="111.08"/>
        <ellipse class="cls-2" cx="132.38" cy="132.38" rx="106.31" ry="106.74"/>
      </g>
      <g>
        <g>
          <g>
            <g>
              <path class="cls-1" d="M255.8,141.13c-1.04,0-1.42-1.49-1.12-3,.18-.94,1.12-4.94,1.12-4.94,0,0,.94,4,1.13,4.94,.29,1.51-.09,3-1.13,3Z"/>
              <path class="cls-1" d="M264.75,132.38c0,1.01-1.53,1.39-3.07,1.1-.96-.18-5.05-1.1-5.05-1.1,0,0,4.09-.92,5.05-1.1,1.54-.29,3.07,.09,3.07,1.1Z"/>
              <path class="cls-1" d="M255.8,123.62c1.04,0,1.42,1.49,1.13,3-.18,.94-1.13,4.94-1.13,4.94,0,0-.94-4-1.12-4.94-.29-1.51,.09-3,1.12-3Z"/>
              <path class="cls-1" d="M246.86,132.38c0-1.01,1.53-1.39,3.07-1.1,.96,.18,5.05,1.1,5.05,1.1,0,0-4.09,.92-5.05,1.1-1.54,.29-3.07-.09-3.07-1.1Z"/>
            </g>
            <g>
              <path class="cls-1" d="M260.6,137.17c-.57,.57-1.59-.04-2.26-1.03-.41-.62-2.09-3.32-2.09-3.32,0,0,2.71,1.67,3.32,2.09,.99,.67,1.6,1.69,1.03,2.26Z"/>
              <path class="cls-1" d="M260.7,127.48c.56,.56-.08,1.6-1.08,2.28-.62,.43-3.37,2.16-3.37,2.16,0,0,1.73-2.74,2.16-3.37,.69-1,1.73-1.63,2.28-1.08Z"/>
              <path class="cls-1" d="M251.01,127.58c.57-.57,1.59,.04,2.26,1.03,.41,.62,2.09,3.32,2.09,3.32,0,0-2.71-1.67-3.32-2.09-.99-.67-1.6-1.69-1.03-2.26Z"/>
              <path class="cls-1" d="M250.9,137.27c-.56-.56,.08-1.6,1.08-2.28,.62-.43,3.37-2.16,3.37-2.16,0,0-1.73,2.74-2.16,3.37-.69,1-1.73,1.63-2.28,1.08Z"/>
            </g>
          </g>
          <path class="cls-1" d="M258.21,147.87c-.49,0-2.2-.09-4.32-.85-2.13-.74-4.54-2.39-6.09-4.52-1.54-2.17-2.2-4.62-2.33-6.39-.05-.9-.06-1.62,0-2.13,.04-.5,.06-.79,.06-.79,0,0,.05,.28,.14,.78,.06,.49,.26,1.19,.51,1.99,.53,1.61,1.69,3.59,3.33,4.99,1.67,1.38,3.7,2.12,5.36,2.31,1.66,.19,2.92,0,3.3,0,1.48-.03,2.32,.83,2.53,2.11,.21,1.22-.46,2.45-2.48,2.49Z"/>
          <path class="cls-1" d="M246.86,159.34c.11-.68,1.47-4.67,1.06-8.79-.16-2.04-.68-4.03-1.25-5.47-.56-1.44-1.14-2.3-1.14-2.3,0,0,.8,.67,1.77,1.95,.97,1.27,2.09,3.17,2.87,5.31,1.68,4.31,1.37,9.36,1.21,10.17-.39,1.68-1.56,2.12-2.78,1.77-1.22-.36-2.07-1.25-1.74-2.64Z"/>
          <path class="cls-1" d="M250.7,178.99s-1.52,.25-2.99-.6c-.66-.46-1.45-1.12-1.7-2.22-.11-.56-.08-1.23-.06-1.89,0-.33,.04-.68,.03-1.01,0-.17-.02-.33-.03-.49-.05-.15,.04-.35-.21-.42-.24-.07-.59-.09-.51-.3,.03-.1,.17-.25,.25-.37,.1-.13,.06-.2,.03-.27-.11-.31-.22-.62-.33-.94-.21-.64-.48-1.28-.65-1.97-.41-1.37-.76-2.83-1.05-4.35-.57-3.04-.96-6.32-1.15-9.6-.21-3.28-.31-6.56-.29-9.64-.01-3.08,.08-5.95,.12-8.41,.11-4.92,.29-8.19,.29-8.19,0-.22,.26-.38,.57-.37,.3,.02,.55,.21,.54,.42h0s-.26,3.27-.49,8.17c-.13,2.45-.21,5.31-.2,8.37-.01,3.06,.08,6.33,.3,9.58,.24,3.25,.68,6.48,1.29,9.47,.31,1.49,.68,2.91,1.1,4.23,.17,.67,.45,1.29,.66,1.91,.11,.31,.22,.61,.33,.9,.02,.08,.05,.15,.22,.16,.14,.02,.35,.02,.45,.06,.2,.08-.02,.33-.14,.55-.12,.22,.09,.29,.16,.41,.11,.11,.21,.22,.33,.33,.23,.21,.49,.39,.77,.54,.56,.31,1.1,.58,1.46,.9,.72,.63,.99,1.37,1.1,2.12,.3,1.39-.19,2.92-.19,2.92Z"/>
          <path class="cls-1" d="M258.21,116.89c-.49,0-2.2,.09-4.32,.85-2.13,.74-4.54,2.39-6.09,4.52-1.54,2.17-2.2,4.62-2.33,6.39-.05,.9-.06,1.62,0,2.13,.04,.5,.06,.79,.06,.79,0,0,.05-.28,.14-.78,.06-.49,.26-1.19,.51-1.99,.53-1.61,1.69-3.59,3.33-4.99,1.67-1.38,3.7-2.12,5.36-2.31,1.66-.19,2.92,0,3.3,0,1.48,.03,2.32-.83,2.53-2.11,.21-1.22-.46-2.45-2.48-2.49Z"/>
          <path class="cls-1" d="M246.86,105.41c.11,.68,1.47,4.67,1.06,8.79-.16,2.04-.68,4.03-1.25,5.47-.56,1.44-1.14,2.3-1.14,2.3,0,0,.8-.67,1.77-1.95,.97-1.27,2.09-3.17,2.87-5.31,1.68-4.31,1.37-9.36,1.21-10.17-.39-1.68-1.56-2.12-2.78-1.77-1.22,.36-2.07,1.25-1.74,2.64Z"/>
          <path class="cls-1" d="M250.7,83.54s-1.52-.25-2.99,.6c-.66,.46-1.45,1.12-1.7,2.22-.11,.56-.08,1.23-.06,1.89,0,.33,.04,.68,.03,1.01,0,.17-.02,.33-.03,.49-.05,.15,.04,.35-.21,.42-.24,.07-.59,.09-.51,.3,.03,.1,.17,.25,.25,.37,.1,.13,.06,.2,.03,.27-.11,.31-.22,.62-.33,.94-.21,.64-.48,1.28-.65,1.97-.41,1.37-.76,2.83-1.05,4.35-.57,3.04-.96,6.32-1.15,9.6-.21,3.28-.31,6.56-.29,9.64-.01,3.08,.08,5.95,.12,8.41,.11,4.92,.29,8.19,.29,8.19,0,.22,.26,.38,.57,.37,.3-.02,.55-.21,.54-.42h0s-.26-3.27-.49-8.17c-.13-2.45-.21-5.31-.2-8.37-.01-3.06,.08-6.33,.3-9.58,.24-3.25,.68-6.48,1.29-9.47,.31-1.49,.68-2.91,1.1-4.23,.17-.67,.45-1.29,.66-1.91,.11-.31,.22-.61,.33-.9,.02-.08,.05-.15,.22-.16,.14-.02,.35-.02,.45-.06,.2-.08-.02-.33-.14-.55-.12-.22,.09-.29,.16-.41,.11-.11,.21-.22,.33-.33,.23-.21,.49-.39,.77-.54,.56-.31,1.1-.58,1.46-.9,.72-.63,.99-1.37,1.1-2.12,.3-1.39-.19-2.92-.19-2.92Z"/>
        </g>
        <g>
          <g>
            <g>
              <path class="cls-1" d="M225.84,51.29c-.73,.73-2.06-.05-2.92-1.33-.54-.79-2.7-4.29-2.7-4.29,0,0,3.49,2.16,4.29,2.7,1.28,.86,2.06,2.19,1.33,2.92Z"/>
              <path class="cls-1" d="M225.98,38.77c.72,.72-.1,2.06-1.39,2.95-.81,.55-4.35,2.79-4.35,2.79,0,0,2.24-3.54,2.79-4.35,.89-1.29,2.23-2.11,2.95-1.39Z"/>
              <path class="cls-1" d="M213.46,38.91c.73-.73,2.06,.05,2.92,1.33,.54,.79,2.7,4.29,2.7,4.29,0,0-3.49-2.16-4.29-2.7-1.28-.86-2.06-2.19-1.33-2.92Z"/>
              <path class="cls-1" d="M213.33,51.43c-.72-.72,.1-2.06,1.39-2.95,.81-.55,4.35-2.79,4.35-2.79,0,0-2.24,3.54-2.79,4.35-.89,1.29-2.23,2.11-2.95,1.39Z"/>
            </g>
            <g>
              <path class="cls-1" d="M226.43,45.1c0,.8-1.16,1.1-2.32,.87-.73-.14-3.83-.87-3.83-.87,0,0,3.1-.73,3.83-.87,1.17-.23,2.32,.07,2.32,.87Z"/>
              <path class="cls-1" d="M219.65,38.17c.79,0,1.07,1.18,.85,2.38-.14,.74-.85,3.91-.85,3.91,0,0-.71-3.17-.85-3.91-.22-1.19,.07-2.38,.85-2.38Z"/>
              <path class="cls-1" d="M212.87,45.1c0-.8,1.16-1.1,2.32-.87,.73,.14,3.83,.87,3.83,.87,0,0-3.1,.73-3.83,.87-1.17,.23-2.32-.07-2.32-.87Z"/>
              <path class="cls-1" d="M219.65,52.03c-.79,0-1.07-1.18-.85-2.38,.14-.74,.85-3.91,.85-3.91,0,0,.71,3.17,.85,3.91,.22,1.19-.07,2.38-.85,2.38Z"/>
            </g>
          </g>
          <path class="cls-1" d="M232.31,54.35c-.35,.35-1.62,1.49-3.66,2.46-2.02,.98-4.89,1.52-7.5,1.11-2.62-.45-4.82-1.71-6.16-2.87-.67-.6-1.19-1.1-1.51-1.5-.33-.38-.51-.6-.51-.6,0,0,.23,.16,.65,.45,.39,.3,1.02,.66,1.77,1.05,1.51,.76,3.73,1.34,5.89,1.17,2.16-.2,4.12-1.12,5.42-2.16,1.31-1.04,2.07-2.07,2.33-2.33,1.03-1.06,2.22-1.06,3.28-.3,1.01,.71,1.41,2.06,0,3.52Z"/>
          <path class="cls-1" d="M232.4,70.49c-.41-.56-2.26-4.34-5.46-6.96-1.55-1.33-3.33-2.37-4.75-2.98-1.41-.62-2.43-.82-2.43-.82,0,0,1.04-.09,2.63,.13,1.58,.21,3.72,.76,5.79,1.73,4.23,1.86,7.59,5.65,8.05,6.34,.91,1.46,.39,2.6-.72,3.22-1.11,.61-2.35,.58-3.1-.64Z"/>
          <path class="cls-1" d="M249.01,81.67s-.89,1.25-2.54,1.69c-.8,.14-1.81,.23-2.78-.37-.48-.32-.92-.81-1.38-1.3-.23-.23-.45-.51-.69-.73-.12-.12-.24-.22-.37-.32-.14-.07-.22-.28-.44-.15-.22,.12-.48,.35-.58,.15-.05-.09-.05-.3-.08-.44-.02-.17-.1-.19-.17-.21-.29-.14-.59-.28-.89-.43-.6-.3-1.25-.56-1.86-.94-1.26-.68-2.53-1.46-3.82-2.33-2.56-1.75-5.15-3.79-7.6-5.98-2.47-2.17-4.86-4.42-7.02-6.61-2.18-2.17-4.15-4.26-5.86-6.03-3.4-3.56-5.59-6-5.59-6-.15-.16-.08-.46,.14-.66,.23-.2,.53-.24,.68-.08h0s2.13,2.49,5.43,6.12c1.64,1.82,3.61,3.9,5.78,6.06,2.16,2.18,4.53,4.42,6.99,6.57,2.47,2.13,5.07,4.1,7.6,5.78,1.27,.83,2.54,1.58,3.77,2.22,.6,.35,1.23,.59,1.82,.88,.3,.14,.59,.27,.87,.4,.07,.04,.14,.07,.27-.04,.12-.08,.26-.23,.36-.27,.2-.08,.22,.25,.29,.48,.07,.24,.27,.14,.41,.18,.15,0,.31,0,.46,0,.31-.01,.62-.07,.93-.16,.62-.17,1.19-.37,1.67-.4,.96-.06,1.67,.27,2.27,.72,1.2,.77,1.93,2.19,1.93,2.19Z"/>
          <path class="cls-1" d="M210.4,32.44c-.35,.35-1.49,1.62-2.46,3.66-.98,2.02-1.52,4.89-1.11,7.5,.44,2.62,1.71,4.82,2.87,6.16,.6,.67,1.1,1.19,1.5,1.51,.38,.33,.6,.51,.6,.51,0,0-.16-.23-.45-.65-.3-.39-.66-1.02-1.05-1.77-.76-1.51-1.34-3.73-1.17-5.89,.2-2.16,1.12-4.12,2.16-5.42,1.04-1.31,2.07-2.07,2.33-2.33,1.06-1.03,1.06-2.22,.3-3.28-.71-1.01-2.06-1.41-3.52,0Z"/>
          <path class="cls-1" d="M194.26,32.35c.56,.41,4.34,2.26,6.96,5.46,1.33,1.55,2.37,3.33,2.98,4.75,.62,1.41,.82,2.43,.82,2.43,0,0,.09-1.04-.13-2.63-.21-1.58-.76-3.72-1.73-5.78-1.86-4.23-5.65-7.59-6.34-8.05-1.46-.91-2.6-.39-3.22,.72-.61,1.11-.58,2.35,.64,3.1Z"/>
          <path class="cls-1" d="M181.51,14.18s-1.25,.89-1.69,2.54c-.14,.8-.23,1.81,.37,2.78,.32,.48,.81,.92,1.3,1.38,.23,.23,.51,.45,.73,.69,.12,.12,.22,.24,.32,.37,.07,.14,.28,.22,.15,.44-.12,.22-.35,.48-.15,.58,.09,.05,.3,.05,.44,.08,.17,.02,.19,.1,.21,.17,.14,.29,.28,.59,.43,.89,.3,.6,.56,1.25,.94,1.86,.68,1.26,1.46,2.53,2.33,3.82,1.75,2.56,3.79,5.15,5.98,7.6,2.17,2.47,4.42,4.86,6.61,7.02,2.17,2.18,4.26,4.15,6.03,5.86,3.56,3.4,6,5.59,6,5.59,.16,.15,.46,.08,.66-.14,.2-.23,.24-.53,.08-.68h0s-2.49-2.13-6.11-5.43c-1.82-1.64-3.9-3.61-6.06-5.78-2.18-2.16-4.42-4.53-6.57-6.99-2.13-2.47-4.1-5.07-5.78-7.6-.83-1.27-1.58-2.54-2.22-3.77-.35-.6-.59-1.23-.88-1.82-.14-.3-.27-.59-.4-.87-.04-.07-.07-.14,.04-.27,.08-.12,.23-.26,.27-.36,.08-.2-.25-.22-.48-.29-.24-.07-.14-.27-.18-.41,0-.15,0-.31,0-.46,.01-.31,.07-.62,.16-.93,.17-.62,.37-1.19,.4-1.67,.06-.96-.27-1.67-.72-2.27-.77-1.2-2.19-1.93-2.19-1.93Z"/>
        </g>
        <g>
          <g>
            <g>
              <path class="cls-1" d="M141.13,8.95c0,1.04-1.49,1.42-3,1.12-.94-.18-4.94-1.12-4.94-1.12,0,0,4-.94,4.94-1.13,1.51-.29,3,.09,3,1.13Z"/>
              <path class="cls-1" d="M132.38,0c1.01,0,1.39,1.53,1.1,3.07-.18,.96-1.1,5.05-1.1,5.05,0,0-.92-4.09-1.1-5.05-.29-1.54,.09-3.07,1.1-3.07Z"/>
              <path class="cls-1" d="M123.62,8.95c0-1.04,1.49-1.42,3-1.13,.94,.18,4.94,1.13,4.94,1.13,0,0-4,.94-4.94,1.12-1.51,.29-3-.09-3-1.12Z"/>
              <path class="cls-1" d="M132.38,17.89c-1.01,0-1.39-1.53-1.1-3.07,.18-.96,1.1-5.05,1.1-5.05,0,0,.92,4.09,1.1,5.05,.29,1.54-.09,3.07-1.1,3.07Z"/>
            </g>
            <g>
              <path class="cls-1" d="M137.17,4.15c.57,.57-.04,1.59-1.03,2.26-.62,.41-3.32,2.09-3.32,2.09,0,0,1.67-2.71,2.09-3.32,.67-.99,1.69-1.6,2.26-1.03Z"/>
              <path class="cls-1" d="M127.48,4.05c.56-.56,1.6,.08,2.28,1.08,.43,.62,2.16,3.37,2.16,3.37,0,0-2.74-1.73-3.37-2.16-1-.69-1.63-1.73-1.08-2.28Z"/>
              <path class="cls-1" d="M127.58,13.74c-.57-.57,.04-1.59,1.03-2.26,.62-.41,3.32-2.09,3.32-2.09,0,0-1.67,2.71-2.09,3.32-.67,.99-1.69,1.6-2.26,1.03Z"/>
              <path class="cls-1" d="M137.27,13.85c-.56,.56-1.6-.08-2.28-1.08-.43-.62-2.16-3.37-2.16-3.37,0,0,2.74,1.73,3.37,2.16,1,.69,1.63,1.73,1.08,2.28Z"/>
            </g>
          </g>
          <path class="cls-1" d="M147.87,6.54c0,.49-.09,2.2-.85,4.33-.74,2.13-2.39,4.54-4.52,6.09-2.17,1.54-4.62,2.2-6.39,2.33-.9,.05-1.62,.06-2.13,0-.5-.04-.79-.06-.79-.06,0,0,.28-.05,.78-.14,.49-.06,1.19-.26,1.99-.51,1.61-.53,3.59-1.69,4.99-3.33,1.38-1.67,2.12-3.7,2.31-5.36,.19-1.66,0-2.92,0-3.3-.03-1.48,.83-2.32,2.11-2.53,1.22-.21,2.45,.46,2.49,2.48Z"/>
          <path class="cls-1" d="M159.34,17.89c-.68-.11-4.67-1.47-8.79-1.06-2.04,.16-4.03,.68-5.47,1.25-1.44,.56-2.3,1.14-2.3,1.14,0,0,.67-.8,1.95-1.77,1.27-.97,3.17-2.09,5.31-2.87,4.31-1.68,9.36-1.37,10.17-1.21,1.68,.39,2.12,1.56,1.77,2.78-.36,1.22-1.25,2.07-2.64,1.74Z"/>
          <path class="cls-1" d="M178.99,14.05s.25,1.52-.6,2.99c-.46,.66-1.12,1.45-2.22,1.7-.56,.11-1.23,.08-1.89,.06-.33,0-.68-.04-1.01-.03-.17,0-.33,.02-.49,.03-.15,.05-.35-.04-.42,.21-.07,.24-.09,.59-.3,.51-.1-.03-.25-.17-.37-.25-.13-.1-.2-.06-.27-.03-.31,.11-.62,.22-.94,.33-.64,.21-1.28,.48-1.97,.65-1.37,.41-2.83,.76-4.35,1.05-3.04,.57-6.32,.96-9.6,1.15-3.28,.21-6.56,.31-9.64,.29-3.08,.01-5.95-.08-8.41-.12-4.92-.11-8.19-.29-8.19-.29-.22,0-.38-.26-.37-.57,.02-.3,.21-.55,.42-.54h0s3.26,.26,8.16,.49c2.45,.13,5.31,.21,8.37,.2,3.06,.01,6.33-.08,9.58-.3,3.25-.24,6.48-.68,9.47-1.29,1.49-.31,2.91-.68,4.23-1.1,.67-.17,1.29-.45,1.91-.66,.31-.11,.61-.22,.9-.33,.08-.02,.15-.05,.16-.22,.02-.14,.02-.35,.06-.45,.08-.2,.33,.02,.55,.14,.22,.12,.29-.09,.41-.16,.11-.11,.22-.21,.33-.33,.21-.23,.39-.49,.54-.77,.31-.56,.58-1.1,.9-1.46,.63-.72,1.37-.99,2.12-1.1,1.39-.3,2.92,.19,2.92,.19Z"/>
          <path class="cls-1" d="M116.89,6.54c0,.49,.09,2.2,.85,4.33,.74,2.13,2.39,4.54,4.52,6.09,2.17,1.54,4.62,2.2,6.39,2.33,.9,.05,1.62,.06,2.13,0,.5-.04,.79-.06,.79-.06,0,0-.28-.05-.78-.14-.49-.06-1.19-.26-1.99-.51-1.61-.53-3.59-1.69-4.99-3.33-1.38-1.67-2.12-3.7-2.31-5.36-.19-1.66,0-2.92,0-3.3,.03-1.48-.83-2.32-2.11-2.53-1.22-.21-2.45,.46-2.49,2.48Z"/>
          <path class="cls-1" d="M105.41,17.89c.68-.11,4.67-1.47,8.79-1.06,2.04,.16,4.03,.68,5.47,1.25,1.44,.56,2.3,1.14,2.3,1.14,0,0-.67-.8-1.95-1.77-1.27-.97-3.17-2.09-5.31-2.87-4.31-1.68-9.36-1.37-10.17-1.21-1.68,.39-2.12,1.56-1.77,2.78,.36,1.22,1.25,2.07,2.64,1.74Z"/>
          <path class="cls-1" d="M83.54,14.05s-.25,1.52,.6,2.99c.46,.66,1.12,1.45,2.22,1.7,.56,.11,1.23,.08,1.89,.06,.33,0,.68-.04,1.01-.03,.17,0,.33,.02,.49,.03,.15,.05,.35-.04,.42,.21,.07,.24,.09,.59,.3,.51,.1-.03,.25-.17,.37-.25,.13-.1,.2-.06,.27-.03,.31,.11,.62,.22,.94,.33,.64,.21,1.28,.48,1.97,.65,1.37,.41,2.83,.76,4.35,1.05,3.04,.57,6.32,.96,9.6,1.15,3.28,.21,6.56,.31,9.64,.29,3.08,.01,5.95-.08,8.41-.12,4.92-.11,8.19-.29,8.19-.29,.22,0,.38-.26,.37-.57-.02-.3-.21-.55-.42-.54h0s-3.26,.26-8.16,.49c-2.45,.13-5.31,.21-8.37,.2-3.06,.01-6.33-.08-9.58-.3-3.25-.24-6.48-.68-9.47-1.29-1.49-.31-2.91-.68-4.23-1.1-.67-.17-1.29-.45-1.91-.66-.31-.11-.61-.22-.9-.33-.08-.02-.15-.05-.16-.22-.02-.14-.02-.35-.06-.45-.08-.2-.33,.02-.55,.14-.22,.12-.29-.09-.41-.16-.11-.11-.22-.21-.33-.33-.21-.23-.39-.49-.54-.77-.31-.56-.58-1.1-.9-1.46-.63-.72-1.37-.99-2.12-1.1-1.39-.3-2.92,.19-2.92,.19Z"/>
        </g>
        <g>
          <g>
            <g>
              <path class="cls-1" d="M51.29,38.91c.73,.73-.05,2.06-1.33,2.92-.79,.54-4.29,2.7-4.29,2.7,0,0,2.16-3.49,2.7-4.29,.86-1.28,2.19-2.06,2.92-1.33Z"/>
              <path class="cls-1" d="M38.77,38.77c.72-.72,2.06,.1,2.95,1.39,.55,.81,2.79,4.35,2.79,4.35,0,0-3.54-2.24-4.35-2.79-1.29-.89-2.11-2.23-1.39-2.95Z"/>
              <path class="cls-1" d="M38.91,51.29c-.73-.73,.05-2.06,1.33-2.92,.79-.54,4.29-2.7,4.29-2.7,0,0-2.16,3.49-2.7,4.29-.86,1.28-2.19,2.06-2.92,1.33Z"/>
              <path class="cls-1" d="M51.43,51.43c-.72,.72-2.06-.1-2.95-1.39-.55-.81-2.79-4.35-2.79-4.35,0,0,3.54,2.24,4.35,2.79,1.29,.89,2.11,2.23,1.39,2.95Z"/>
            </g>
            <g>
              <path class="cls-1" d="M45.1,38.32c.8,0,1.1,1.16,.87,2.32-.14,.73-.87,3.83-.87,3.83,0,0-.73-3.1-.87-3.83-.23-1.17,.07-2.32,.87-2.32Z"/>
              <path class="cls-1" d="M38.17,45.1c0-.79,1.18-1.07,2.38-.85,.74,.14,3.91,.85,3.91,.85,0,0-3.17,.71-3.91,.85-1.19,.22-2.38-.07-2.38-.85Z"/>
              <path class="cls-1" d="M45.1,51.88c-.8,0-1.1-1.16-.87-2.32,.14-.73,.87-3.83,.87-3.83,0,0,.73,3.1,.87,3.83,.23,1.17-.07,2.32-.87,2.32Z"/>
              <path class="cls-1" d="M52.03,45.1c0,.79-1.18,1.07-2.38,.85-.74-.14-3.91-.85-3.91-.85,0,0,3.17-.71,3.91-.85,1.19-.22,2.38,.07,2.38,.85Z"/>
            </g>
          </g>
          <path class="cls-1" d="M54.35,32.44c.35,.35,1.49,1.62,2.46,3.66,.98,2.02,1.52,4.89,1.11,7.5-.44,2.62-1.71,4.82-2.87,6.16-.6,.67-1.1,1.19-1.5,1.51-.38,.33-.6,.51-.6,.51,0,0,.16-.23,.45-.65,.3-.39,.66-1.02,1.05-1.77,.76-1.51,1.34-3.73,1.17-5.89-.2-2.16-1.12-4.12-2.16-5.42-1.04-1.31-2.07-2.07-2.33-2.33-1.06-1.03-1.06-2.22-.3-3.28,.71-1.01,2.06-1.41,3.52,0Z"/>
          <path class="cls-1" d="M70.49,32.35c-.56,.41-4.34,2.26-6.96,5.46-1.33,1.55-2.37,3.33-2.98,4.75-.62,1.41-.82,2.43-.82,2.43,0,0-.09-1.04,.13-2.63,.21-1.58,.76-3.72,1.73-5.78,1.86-4.23,5.65-7.59,6.34-8.05,1.46-.91,2.6-.39,3.22,.72,.61,1.11,.58,2.35-.64,3.1Z"/>
          <path class="cls-1" d="M81.67,15.75s1.25,.89,1.69,2.54c.14,.8,.23,1.81-.37,2.78-.32,.48-.81,.93-1.3,1.38-.23,.23-.51,.45-.73,.69-.12,.12-.22,.24-.32,.37-.07,.14-.28,.22-.15,.44,.12,.22,.35,.48,.15,.58-.09,.05-.3,.05-.44,.08-.17,.02-.19,.1-.21,.17-.14,.29-.28,.59-.43,.89-.3,.6-.56,1.25-.94,1.86-.68,1.26-1.46,2.53-2.33,3.82-1.75,2.56-3.79,5.15-5.98,7.6-2.17,2.47-4.42,4.86-6.61,7.02-2.17,2.18-4.26,4.15-6.03,5.86-3.56,3.4-6,5.59-6,5.59-.16,.15-.46,.08-.66-.14-.2-.23-.24-.53-.08-.68h0s2.49-2.13,6.11-5.43c1.82-1.64,3.9-3.61,6.06-5.78,2.18-2.16,4.42-4.53,6.57-6.99,2.13-2.47,4.1-5.07,5.78-7.6,.83-1.27,1.58-2.54,2.22-3.77,.35-.6,.59-1.23,.88-1.82,.14-.3,.27-.59,.4-.87,.04-.07,.07-.14-.04-.27-.08-.12-.23-.26-.27-.36-.08-.2,.25-.22,.48-.29,.24-.07,.14-.27,.18-.41,0-.15,0-.31,0-.46-.01-.31-.07-.62-.16-.93-.17-.62-.37-1.19-.4-1.67-.06-.96,.27-1.67,.72-2.27,.77-1.2,2.19-1.93,2.19-1.93Z"/>
          <path class="cls-1" d="M32.44,54.35c.35,.35,1.62,1.49,3.66,2.46,2.02,.98,4.89,1.52,7.5,1.11,2.62-.45,4.82-1.71,6.16-2.87,.67-.6,1.19-1.1,1.51-1.5,.33-.38,.51-.6,.51-.6,0,0-.23,.16-.65,.45-.39,.3-1.02,.66-1.77,1.05-1.51,.76-3.73,1.34-5.89,1.17-2.16-.2-4.12-1.12-5.42-2.16-1.31-1.04-2.07-2.07-2.33-2.33-1.03-1.06-2.22-1.06-3.28-.3-1.01,.71-1.41,2.06,0,3.52Z"/>
          <path class="cls-1" d="M32.35,70.49c.41-.56,2.26-4.34,5.46-6.96,1.55-1.33,3.33-2.37,4.75-2.98,1.41-.62,2.43-.82,2.43-.82,0,0-1.04-.09-2.63,.13-1.58,.21-3.72,.76-5.79,1.73-4.23,1.86-7.59,5.65-8.05,6.34-.91,1.46-.39,2.6,.72,3.22,1.11,.61,2.35,.58,3.1-.64Z"/>
          <path class="cls-1" d="M14.18,83.24s.89,1.25,2.54,1.69c.8,.14,1.81,.23,2.78-.37,.48-.32,.93-.81,1.38-1.3,.23-.23,.45-.51,.69-.73,.12-.12,.24-.22,.37-.32,.14-.07,.22-.28,.44-.15,.22,.12,.48,.35,.58,.15,.05-.09,.05-.3,.08-.44,.02-.17,.1-.19,.17-.21,.29-.14,.59-.28,.89-.43,.6-.3,1.25-.56,1.86-.94,1.26-.68,2.53-1.46,3.82-2.33,2.56-1.75,5.15-3.79,7.6-5.98,2.47-2.17,4.86-4.42,7.02-6.61,2.18-2.17,4.15-4.26,5.86-6.03,3.4-3.56,5.59-6,5.59-6,.15-.16,.08-.46-.14-.66-.23-.2-.53-.24-.68-.08h0s-2.13,2.49-5.43,6.12c-1.64,1.82-3.61,3.9-5.78,6.06-2.16,2.18-4.53,4.42-6.99,6.57-2.47,2.13-5.07,4.1-7.6,5.78-1.27,.83-2.54,1.58-3.77,2.22-.6,.35-1.23,.59-1.82,.88-.3,.14-.59,.27-.87,.4-.07,.04-.14,.07-.27-.04-.12-.08-.26-.23-.36-.27-.2-.08-.22,.25-.29,.48-.07,.24-.27,.14-.41,.18-.15,0-.31,0-.46,0-.31-.01-.62-.07-.93-.16-.62-.17-1.19-.37-1.67-.4-.96-.06-1.67,.27-2.27,.72-1.2,.77-1.93,2.19-1.93,2.19Z"/>
        </g>
        <g>
          <g>
            <g>
              <path class="cls-1" d="M8.95,123.62c1.04,0,1.42,1.49,1.12,3-.18,.94-1.12,4.94-1.12,4.94,0,0-.94-4-1.12-4.94-.29-1.51,.09-3,1.12-3Z"/>
              <path class="cls-1" d="M0,132.38c0-1.01,1.53-1.39,3.07-1.1,.96,.18,5.05,1.1,5.05,1.1,0,0-4.09,.92-5.05,1.1-1.54,.29-3.07-.09-3.07-1.1Z"/>
              <path class="cls-1" d="M8.95,141.13c-1.04,0-1.42-1.49-1.12-3,.18-.94,1.12-4.94,1.12-4.94,0,0,.94,4,1.12,4.94,.29,1.51-.09,3-1.12,3Z"/>
              <path class="cls-1" d="M17.89,132.38c0,1.01-1.53,1.39-3.07,1.1-.96-.18-5.05-1.1-5.05-1.1,0,0,4.09-.92,5.05-1.1,1.54-.29,3.07,.09,3.07,1.1Z"/>
            </g>
            <g>
              <path class="cls-1" d="M4.15,127.58c.57-.57,1.59,.04,2.26,1.03,.41,.62,2.09,3.32,2.09,3.32,0,0-2.71-1.67-3.32-2.09-.99-.67-1.6-1.69-1.03-2.26Z"/>
              <path class="cls-1" d="M4.05,137.27c-.56-.56,.08-1.6,1.08-2.28,.62-.43,3.37-2.16,3.37-2.16,0,0-1.73,2.74-2.16,3.37-.69,1-1.73,1.63-2.28,1.08Z"/>
              <path class="cls-1" d="M13.74,137.17c-.57,.57-1.59-.04-2.26-1.03-.41-.62-2.09-3.32-2.09-3.32,0,0,2.71,1.67,3.32,2.09,.99,.67,1.6,1.69,1.03,2.26Z"/>
              <path class="cls-1" d="M13.85,127.48c.56,.56-.08,1.6-1.08,2.28-.62,.43-3.37,2.16-3.37,2.16,0,0,1.73-2.74,2.16-3.37,.69-1,1.73-1.63,2.28-1.08Z"/>
            </g>
          </g>
          <path class="cls-1" d="M6.54,116.89c.49,0,2.2,.09,4.32,.85,2.13,.74,4.54,2.39,6.09,4.52,1.54,2.17,2.2,4.62,2.33,6.39,.05,.9,.06,1.62,0,2.13-.04,.5-.06,.79-.06,.79,0,0-.05-.28-.14-.78-.06-.49-.26-1.19-.51-1.99-.53-1.61-1.69-3.59-3.33-4.99-1.67-1.38-3.7-2.12-5.36-2.31-1.66-.19-2.92,0-3.3,0-1.48,.03-2.32-.83-2.53-2.11-.21-1.22,.46-2.45,2.48-2.49Z"/>
          <path class="cls-1" d="M17.89,105.41c-.11,.68-1.47,4.67-1.06,8.79,.16,2.04,.68,4.03,1.25,5.47,.56,1.44,1.14,2.3,1.14,2.3,0,0-.8-.67-1.77-1.95-.97-1.27-2.09-3.17-2.87-5.31-1.68-4.31-1.37-9.36-1.21-10.17,.39-1.68,1.56-2.12,2.78-1.77,1.22,.36,2.07,1.25,1.74,2.64Z"/>
          <path class="cls-1" d="M14.05,85.76s1.52-.25,2.99,.6c.66,.46,1.45,1.12,1.7,2.22,.11,.56,.08,1.23,.06,1.89,0,.33-.04,.68-.03,1.01,0,.17,.02,.33,.03,.49,.05,.15-.04,.35,.21,.42,.24,.07,.59,.09,.51,.3-.03,.1-.17,.25-.25,.37-.1,.13-.06,.2-.03,.27,.11,.31,.22,.62,.33,.94,.21,.64,.48,1.28,.65,1.97,.41,1.37,.76,2.83,1.05,4.35,.57,3.04,.96,6.32,1.15,9.6,.21,3.28,.31,6.56,.29,9.64,.01,3.08-.08,5.95-.12,8.41-.11,4.92-.29,8.19-.29,8.19,0,.22-.26,.38-.57,.37-.3-.02-.55-.21-.54-.42h0s.26-3.27,.49-8.17c.13-2.45,.21-5.31,.2-8.37,.01-3.06-.08-6.33-.3-9.58-.24-3.25-.68-6.48-1.29-9.47-.31-1.49-.68-2.91-1.1-4.23-.17-.67-.45-1.29-.66-1.91-.11-.31-.22-.61-.33-.9-.02-.08-.05-.15-.22-.16-.14-.02-.35-.02-.45-.06-.2-.08,.02-.33,.14-.55,.12-.22-.09-.29-.16-.41-.11-.11-.21-.22-.33-.33-.23-.21-.49-.39-.77-.54-.56-.31-1.1-.58-1.46-.9-.72-.63-.99-1.37-1.1-2.12-.3-1.39,.19-2.92,.19-2.92Z"/>
          <path class="cls-1" d="M6.54,147.87c.49,0,2.2-.09,4.32-.85,2.13-.74,4.54-2.39,6.09-4.52,1.54-2.17,2.2-4.62,2.33-6.39,.05-.9,.06-1.62,0-2.13-.04-.5-.06-.79-.06-.79,0,0-.05,.28-.14,.78-.06,.49-.26,1.19-.51,1.99-.53,1.61-1.69,3.59-3.33,4.99-1.67,1.38-3.7,2.12-5.36,2.31-1.66,.19-2.92,0-3.3,0-1.48-.03-2.32,.83-2.53,2.11-.21,1.22,.46,2.45,2.48,2.49Z"/>
          <path class="cls-1" d="M17.89,159.34c-.11-.68-1.47-4.67-1.06-8.79,.16-2.04,.68-4.03,1.25-5.47,.56-1.44,1.14-2.3,1.14-2.3,0,0-.8,.67-1.77,1.95-.97,1.27-2.09,3.17-2.87,5.31-1.68,4.31-1.37,9.36-1.21,10.17,.39,1.68,1.56,2.12,2.78,1.77,1.22-.36,2.07-1.25,1.74-2.64Z"/>
          <path class="cls-1" d="M14.05,181.21s1.52,.25,2.99-.6c.66-.46,1.45-1.12,1.7-2.22,.11-.56,.08-1.23,.06-1.89,0-.33-.04-.68-.03-1.01,0-.17,.02-.33,.03-.49,.05-.15-.04-.35,.21-.42,.24-.07,.59-.1,.51-.3-.03-.1-.17-.25-.25-.37-.1-.13-.06-.2-.03-.27,.11-.31,.22-.62,.33-.94,.21-.64,.48-1.28,.65-1.97,.41-1.37,.76-2.83,1.05-4.35,.57-3.04,.96-6.32,1.15-9.6,.21-3.28,.31-6.56,.29-9.64,.01-3.08-.08-5.95-.12-8.41-.11-4.92-.29-8.19-.29-8.19,0-.22-.26-.38-.57-.37-.3,.02-.55,.21-.54,.42h0s.26,3.27,.49,8.17c.13,2.45,.21,5.31,.2,8.37,.01,3.06-.08,6.33-.3,9.58-.24,3.25-.68,6.48-1.29,9.47-.31,1.49-.68,2.91-1.1,4.23-.17,.67-.45,1.29-.66,1.91-.11,.31-.22,.61-.33,.9-.02,.08-.05,.15-.22,.16-.14,.02-.35,.02-.45,.06-.2,.08,.02,.33,.14,.55,.12,.22-.09,.29-.16,.41-.11,.11-.21,.22-.33,.33-.23,.21-.49,.39-.77,.54-.56,.31-1.1,.58-1.46,.9-.72,.63-.99,1.37-1.1,2.12-.3,1.39,.19,2.92,.19,2.92Z"/>
        </g>
        <g>
          <g>
            <g>
              <path class="cls-1" d="M38.91,213.46c.73-.73,2.06,.05,2.92,1.33,.54,.79,2.7,4.29,2.7,4.29,0,0-3.49-2.16-4.29-2.7-1.28-.86-2.06-2.19-1.33-2.92Z"/>
              <path class="cls-1" d="M38.77,225.98c-.72-.72,.1-2.06,1.39-2.95,.81-.55,4.35-2.79,4.35-2.79,0,0-2.24,3.54-2.79,4.35-.89,1.29-2.23,2.11-2.95,1.39Z"/>
              <path class="cls-1" d="M51.29,225.84c-.73,.73-2.06-.05-2.92-1.33-.54-.79-2.7-4.29-2.7-4.29,0,0,3.49,2.16,4.29,2.7,1.28,.86,2.06,2.19,1.33,2.92Z"/>
              <path class="cls-1" d="M51.43,213.33c.72,.72-.1,2.06-1.39,2.95-.81,.55-4.35,2.79-4.35,2.79,0,0,2.24-3.54,2.79-4.35,.89-1.29,2.23-2.11,2.95-1.39Z"/>
            </g>
            <g>
              <path class="cls-1" d="M38.32,219.65c0-.8,1.16-1.1,2.32-.87,.73,.14,3.83,.87,3.83,.87,0,0-3.1,.73-3.83,.87-1.17,.23-2.32-.07-2.32-.87Z"/>
              <path class="cls-1" d="M45.1,226.58c-.79,0-1.07-1.18-.85-2.38,.14-.74,.85-3.91,.85-3.91,0,0,.71,3.17,.85,3.91,.22,1.19-.07,2.38-.85,2.38Z"/>
              <path class="cls-1" d="M51.88,219.65c0,.8-1.16,1.1-2.32,.87-.73-.14-3.83-.87-3.83-.87,0,0,3.1-.73,3.83-.87,1.17-.23,2.32,.07,2.32,.87Z"/>
              <path class="cls-1" d="M45.1,212.72c.79,0,1.07,1.18,.85,2.38-.14,.74-.85,3.91-.85,3.91,0,0-.71-3.17-.85-3.91-.22-1.19,.07-2.38,.85-2.38Z"/>
            </g>
          </g>
          <path class="cls-1" d="M32.44,210.4c.35-.35,1.62-1.49,3.66-2.46,2.02-.98,4.89-1.52,7.5-1.11,2.62,.44,4.82,1.71,6.16,2.87,.67,.6,1.19,1.1,1.51,1.5,.33,.38,.51,.6,.51,.6,0,0-.23-.16-.65-.45-.39-.3-1.02-.66-1.77-1.05-1.51-.76-3.73-1.34-5.89-1.17-2.16,.2-4.12,1.12-5.42,2.16-1.31,1.04-2.07,2.06-2.33,2.33-1.03,1.06-2.22,1.06-3.28,.3-1.01-.71-1.41-2.06,0-3.52Z"/>
          <path class="cls-1" d="M32.35,194.26c.41,.56,2.26,4.34,5.46,6.96,1.55,1.33,3.33,2.37,4.75,2.98,1.41,.62,2.43,.82,2.43,.82,0,0-1.04,.09-2.63-.13-1.58-.21-3.72-.76-5.79-1.73-4.23-1.86-7.59-5.65-8.05-6.34-.91-1.46-.39-2.6,.72-3.22,1.11-.61,2.35-.58,3.1,.64Z"/>
          <path class="cls-1" d="M15.75,183.08s.89-1.25,2.54-1.69c.8-.14,1.81-.23,2.78,.37,.48,.32,.92,.81,1.38,1.3,.23,.23,.45,.51,.69,.73,.12,.12,.24,.22,.37,.32,.14,.07,.22,.28,.44,.15,.22-.12,.48-.35,.58-.15,.05,.09,.05,.3,.08,.44,.02,.17,.1,.19,.17,.21,.29,.14,.59,.28,.89,.43,.6,.3,1.25,.56,1.86,.94,1.26,.68,2.53,1.46,3.82,2.33,2.56,1.75,5.15,3.79,7.6,5.98,2.47,2.17,4.86,4.42,7.02,6.61,2.18,2.17,4.15,4.26,5.86,6.03,3.4,3.56,5.59,6,5.59,6,.15,.16,.08,.46-.14,.66-.23,.2-.53,.24-.68,.08h0s-2.13-2.49-5.43-6.12c-1.64-1.82-3.61-3.9-5.78-6.06-2.16-2.18-4.53-4.42-6.99-6.57-2.47-2.13-5.07-4.1-7.6-5.78-1.27-.83-2.54-1.58-3.77-2.22-.6-.35-1.23-.59-1.82-.88-.3-.14-.59-.27-.87-.4-.07-.04-.14-.07-.27,.04-.12,.08-.26,.23-.36,.27-.2,.08-.22-.25-.29-.48-.07-.24-.27-.14-.41-.18-.15,0-.31,0-.46,0-.31,.01-.62,.07-.93,.16-.62,.17-1.19,.37-1.67,.4-.96,.06-1.67-.27-2.27-.72-1.2-.77-1.93-2.19-1.93-2.19Z"/>
          <path class="cls-1" d="M54.35,232.31c.35-.35,1.49-1.62,2.46-3.66,.98-2.02,1.52-4.89,1.11-7.5-.44-2.62-1.71-4.82-2.87-6.16-.6-.67-1.1-1.19-1.5-1.51-.38-.33-.6-.51-.6-.51,0,0,.16,.23,.45,.65,.3,.39,.66,1.02,1.05,1.77,.76,1.51,1.34,3.73,1.17,5.89-.2,2.16-1.12,4.12-2.16,5.42-1.04,1.31-2.07,2.07-2.33,2.33-1.06,1.03-1.06,2.22-.3,3.28,.71,1.01,2.06,1.41,3.52,0Z"/>
          <path class="cls-1" d="M70.49,232.4c-.56-.41-4.34-2.26-6.96-5.46-1.33-1.55-2.37-3.33-2.98-4.75-.62-1.41-.82-2.43-.82-2.43,0,0-.09,1.03,.13,2.63,.21,1.58,.76,3.72,1.73,5.79,1.86,4.23,5.65,7.59,6.34,8.05,1.46,.91,2.6,.39,3.22-.72,.61-1.11,.58-2.35-.64-3.1Z"/>
          <path class="cls-1" d="M83.24,250.57s1.25-.89,1.69-2.54c.14-.8,.23-1.81-.37-2.78-.32-.48-.81-.93-1.3-1.38-.23-.23-.51-.45-.73-.69-.12-.12-.22-.24-.32-.37-.07-.14-.28-.22-.15-.44,.12-.22,.35-.48,.15-.58-.09-.05-.3-.05-.44-.08-.17-.02-.19-.1-.21-.17-.14-.29-.28-.59-.43-.89-.3-.6-.56-1.25-.94-1.86-.68-1.26-1.46-2.53-2.33-3.82-1.75-2.56-3.79-5.15-5.98-7.6-2.17-2.47-4.42-4.86-6.61-7.02-2.17-2.18-4.26-4.15-6.03-5.86-3.56-3.4-6-5.59-6-5.59-.16-.15-.46-.08-.66,.14-.2,.23-.24,.53-.08,.68h0s2.49,2.13,6.11,5.43c1.82,1.64,3.9,3.61,6.06,5.78,2.18,2.16,4.42,4.53,6.57,6.99,2.13,2.47,4.1,5.07,5.78,7.6,.83,1.27,1.58,2.54,2.22,3.77,.35,.6,.59,1.23,.88,1.82,.14,.3,.27,.59,.4,.87,.04,.07,.07,.14-.04,.27-.08,.12-.23,.26-.27,.36-.08,.2,.25,.22,.48,.29,.24,.07,.14,.27,.18,.41,0,.15,0,.31,0,.46-.01,.31-.07,.62-.16,.93-.17,.62-.37,1.19-.4,1.67-.06,.96,.27,1.67,.72,2.27,.77,1.2,2.19,1.93,2.19,1.93Z"/>
        </g>
        <g>
          <g>
            <g>
              <path class="cls-1" d="M123.62,255.8c0-1.04,1.49-1.42,3-1.12,.94,.18,4.94,1.12,4.94,1.12,0,0-4,.94-4.94,1.12-1.51,.29-3-.09-3-1.12Z"/>
              <path class="cls-1" d="M132.38,264.75c-1.01,0-1.39-1.53-1.1-3.07,.18-.96,1.1-5.05,1.1-5.05,0,0,.92,4.09,1.1,5.05,.29,1.54-.09,3.07-1.1,3.07Z"/>
              <path class="cls-1" d="M141.13,255.8c0,1.04-1.49,1.42-3,1.12-.94-.18-4.94-1.12-4.94-1.12,0,0,4-.94,4.94-1.12,1.51-.29,3,.09,3,1.12Z"/>
              <path class="cls-1" d="M132.38,246.86c1.01,0,1.39,1.53,1.1,3.07-.18,.96-1.1,5.05-1.1,5.05,0,0-.92-4.09-1.1-5.05-.29-1.54,.09-3.07,1.1-3.07Z"/>
            </g>
            <g>
              <path class="cls-1" d="M127.58,260.6c-.57-.57,.04-1.59,1.03-2.26,.62-.41,3.32-2.09,3.32-2.09,0,0-1.67,2.71-2.09,3.32-.67,.99-1.69,1.6-2.26,1.03Z"/>
              <path class="cls-1" d="M137.27,260.7c-.56,.56-1.6-.08-2.28-1.08-.43-.62-2.16-3.37-2.16-3.37,0,0,2.74,1.73,3.37,2.16,1,.69,1.63,1.73,1.08,2.28Z"/>
              <path class="cls-1" d="M137.17,251.01c.57,.57-.04,1.59-1.03,2.26-.62,.41-3.32,2.09-3.32,2.09,0,0,1.67-2.71,2.09-3.32,.67-.99,1.69-1.6,2.26-1.03Z"/>
              <path class="cls-1" d="M127.48,250.9c.56-.56,1.6,.08,2.28,1.08,.43,.62,2.16,3.37,2.16,3.37,0,0-2.74-1.73-3.37-2.16-1-.69-1.63-1.73-1.08-2.28Z"/>
            </g>
          </g>
          <path class="cls-1" d="M116.89,258.21c0-.49,.09-2.2,.85-4.32,.74-2.13,2.39-4.54,4.52-6.09,2.17-1.54,4.62-2.2,6.39-2.33,.9-.05,1.62-.06,2.13,0,.5,.04,.79,.06,.79,.06,0,0-.28,.05-.78,.14-.49,.06-1.19,.26-1.99,.51-1.61,.53-3.59,1.69-4.99,3.33-1.38,1.67-2.12,3.7-2.31,5.36-.19,1.66,0,2.92,0,3.3,.03,1.48-.83,2.32-2.11,2.53-1.22,.21-2.45-.46-2.49-2.48Z"/>
          <path class="cls-1" d="M105.41,246.86c.68,.11,4.67,1.47,8.79,1.06,2.04-.16,4.03-.68,5.47-1.25,1.44-.56,2.3-1.14,2.3-1.14,0,0-.67,.8-1.95,1.77-1.27,.97-3.17,2.09-5.31,2.87-4.31,1.68-9.36,1.37-10.17,1.21-1.68-.39-2.12-1.56-1.77-2.78,.36-1.22,1.25-2.07,2.64-1.74Z"/>
          <path class="cls-1" d="M85.76,250.7s-.25-1.52,.6-2.99c.46-.66,1.12-1.45,2.22-1.7,.56-.11,1.23-.08,1.89-.06,.33,0,.68,.04,1.01,.03,.17,0,.33-.02,.49-.03,.15-.05,.35,.04,.42-.21,.07-.24,.09-.59,.3-.51,.1,.03,.25,.17,.37,.25,.13,.1,.2,.06,.27,.03,.31-.11,.62-.22,.94-.33,.64-.21,1.28-.48,1.97-.65,1.37-.41,2.83-.76,4.35-1.05,3.04-.57,6.32-.96,9.6-1.15,3.28-.21,6.56-.31,9.64-.29,3.08-.01,5.95,.08,8.41,.12,4.92,.11,8.19,.29,8.19,.29,.22,0,.38,.26,.37,.57-.02,.3-.21,.55-.42,.54h0s-3.26-.26-8.16-.49c-2.45-.13-5.31-.21-8.37-.2-3.06-.01-6.33,.08-9.58,.3-3.25,.24-6.48,.68-9.47,1.29-1.49,.31-2.91,.68-4.23,1.1-.67,.17-1.29,.45-1.91,.66-.31,.11-.61,.22-.9,.33-.08,.02-.15,.05-.16,.22-.02,.14-.02,.35-.06,.45-.08,.2-.33-.02-.55-.14-.22-.12-.29,.09-.41,.16-.11,.11-.22,.21-.33,.33-.21,.23-.39,.49-.54,.77-.31,.56-.58,1.1-.9,1.46-.63,.72-1.37,.99-2.12,1.1-1.39,.3-2.92-.19-2.92-.19Z"/>
          <path class="cls-1" d="M147.87,258.21c0-.49-.09-2.2-.85-4.32-.74-2.13-2.39-4.54-4.52-6.09-2.17-1.54-4.62-2.2-6.39-2.33-.9-.05-1.62-.06-2.13,0-.5,.04-.79,.06-.79,.06,0,0,.28,.05,.78,.14,.49,.06,1.19,.26,1.99,.51,1.61,.53,3.59,1.69,4.99,3.33,1.38,1.67,2.12,3.7,2.31,5.36,.19,1.66,0,2.92,0,3.3-.03,1.48,.83,2.32,2.11,2.53,1.22,.21,2.45-.46,2.49-2.48Z"/>
          <path class="cls-1" d="M159.34,246.86c-.68,.11-4.67,1.47-8.79,1.06-2.04-.16-4.03-.68-5.47-1.25-1.44-.56-2.3-1.14-2.3-1.14,0,0,.67,.8,1.95,1.77,1.27,.97,3.17,2.09,5.31,2.87,4.31,1.68,9.36,1.37,10.17,1.21,1.68-.39,2.12-1.56,1.77-2.78-.36-1.22-1.25-2.07-2.64-1.74Z"/>
          <path class="cls-1" d="M181.21,250.7s.25-1.52-.6-2.99c-.46-.66-1.12-1.45-2.22-1.7-.56-.11-1.23-.08-1.89-.06-.33,0-.68,.04-1.01,.03-.17,0-.33-.02-.49-.03-.15-.05-.35,.04-.42-.21-.07-.24-.09-.59-.3-.51-.1,.03-.25,.17-.37,.25-.13,.1-.2,.06-.27,.03-.31-.11-.62-.22-.94-.33-.64-.21-1.28-.48-1.97-.65-1.37-.41-2.83-.76-4.35-1.05-3.04-.57-6.32-.96-9.6-1.15-3.28-.21-6.56-.31-9.64-.29-3.08-.01-5.95,.08-8.41,.12-4.92,.11-8.19,.29-8.19,.29-.22,0-.38,.26-.37,.57,.02,.3,.21,.55,.42,.54h0s3.26-.26,8.16-.49c2.45-.13,5.31-.21,8.37-.2,3.06-.01,6.33,.08,9.58,.3,3.25,.24,6.48,.68,9.47,1.29,1.49,.31,2.91,.68,4.23,1.1,.67,.17,1.29,.45,1.91,.66,.31,.11,.61,.22,.9,.33,.08,.02,.15,.05,.16,.22,.02,.14,.02,.35,.06,.45,.08,.2,.33-.02,.55-.14,.22-.12,.29,.09,.41,.16,.11,.11,.22,.21,.33,.33,.21,.23,.39,.49,.54,.77,.31,.56,.58,1.1,.9,1.46,.63,.72,1.37,.99,2.12,1.1,1.39,.3,2.92-.19,2.92-.19Z"/>
        </g>
        <g>
          <g>
            <g>
              <path class="cls-1" d="M213.46,225.84c-.73-.73,.05-2.06,1.33-2.92,.79-.54,4.29-2.7,4.29-2.7,0,0-2.16,3.49-2.7,4.29-.86,1.27-2.19,2.06-2.92,1.33Z"/>
              <path class="cls-1" d="M225.98,225.98c-.72,.72-2.06-.1-2.95-1.39-.55-.81-2.79-4.35-2.79-4.35,0,0,3.54,2.24,4.35,2.79,1.29,.89,2.11,2.23,1.39,2.95Z"/>
              <path class="cls-1" d="M225.84,213.46c.73,.73-.05,2.06-1.33,2.92-.79,.54-4.29,2.7-4.29,2.7,0,0,2.16-3.49,2.7-4.29,.86-1.28,2.19-2.06,2.92-1.33Z"/>
              <path class="cls-1" d="M213.33,213.33c.72-.72,2.06,.1,2.95,1.39,.55,.81,2.79,4.35,2.79,4.35,0,0-3.54-2.24-4.35-2.79-1.29-.89-2.11-2.23-1.39-2.95Z"/>
            </g>
            <g>
              <path class="cls-1" d="M219.65,226.43c-.8,0-1.1-1.16-.87-2.32,.14-.73,.87-3.83,.87-3.83,0,0,.73,3.1,.87,3.83,.23,1.17-.07,2.32-.87,2.32Z"/>
              <path class="cls-1" d="M226.58,219.65c0,.79-1.18,1.07-2.38,.85-.74-.14-3.91-.85-3.91-.85,0,0,3.17-.71,3.91-.85,1.19-.22,2.38,.07,2.38,.85Z"/>
              <path class="cls-1" d="M219.65,212.87c.8,0,1.1,1.16,.87,2.32-.14,.73-.87,3.83-.87,3.83,0,0-.73-3.1-.87-3.83-.23-1.17,.07-2.32,.87-2.32Z"/>
              <path class="cls-1" d="M212.72,219.65c0-.79,1.18-1.07,2.38-.85,.74,.14,3.91,.85,3.91,.85,0,0-3.17,.71-3.91,.85-1.19,.22-2.38-.07-2.38-.85Z"/>
            </g>
          </g>
          <path class="cls-1" d="M210.4,232.31c-.35-.35-1.49-1.62-2.46-3.66-.98-2.02-1.52-4.89-1.11-7.5,.44-2.62,1.71-4.82,2.87-6.16,.6-.67,1.1-1.19,1.5-1.51,.38-.33,.6-.51,.6-.51,0,0-.16,.23-.45,.65-.3,.39-.66,1.02-1.05,1.77-.76,1.51-1.34,3.73-1.17,5.89,.2,2.16,1.12,4.12,2.16,5.42,1.04,1.31,2.07,2.07,2.33,2.33,1.06,1.03,1.06,2.22,.3,3.28-.71,1.01-2.06,1.41-3.52,0Z"/>
          <path class="cls-1" d="M194.26,232.4c.56-.41,4.34-2.26,6.96-5.46,1.33-1.55,2.37-3.33,2.98-4.75,.62-1.41,.82-2.43,.82-2.43,0,0,.09,1.03-.13,2.63-.21,1.58-.76,3.72-1.73,5.79-1.86,4.23-5.65,7.59-6.34,8.05-1.46,.91-2.6,.39-3.22-.72-.61-1.11-.58-2.35,.64-3.1Z"/>
          <path class="cls-1" d="M183.08,249.01s-1.25-.89-1.69-2.54c-.14-.8-.23-1.81,.37-2.78,.32-.48,.81-.92,1.3-1.38,.23-.23,.51-.45,.73-.69,.12-.12,.22-.24,.32-.37,.07-.14,.28-.22,.15-.44-.12-.22-.35-.48-.15-.58,.09-.05,.3-.05,.44-.08,.17-.02,.19-.1,.21-.17,.14-.29,.28-.59,.43-.89,.3-.6,.56-1.25,.94-1.86,.68-1.26,1.46-2.53,2.33-3.82,1.75-2.56,3.79-5.15,5.98-7.6,2.17-2.47,4.42-4.86,6.61-7.02,2.17-2.18,4.26-4.15,6.03-5.86,3.56-3.4,6-5.59,6-5.59,.16-.15,.46-.08,.66,.14,.2,.23,.24,.53,.08,.68h0s-2.49,2.13-6.11,5.43c-1.82,1.64-3.9,3.61-6.06,5.78-2.18,2.16-4.42,4.53-6.57,6.99-2.13,2.47-4.1,5.07-5.78,7.6-.83,1.27-1.58,2.54-2.22,3.77-.35,.6-.59,1.23-.88,1.82-.14,.3-.27,.59-.4,.87-.04,.07-.07,.14,.04,.27,.08,.12,.23,.26,.27,.36,.08,.2-.25,.22-.48,.29-.24,.07-.14,.27-.18,.41,0,.15,0,.31,0,.46,.01,.31,.07,.62,.16,.93,.17,.62,.37,1.19,.4,1.67,.06,.96-.27,1.67-.72,2.27-.77,1.2-2.19,1.93-2.19,1.93Z"/>
          <path class="cls-1" d="M232.31,210.4c-.35-.35-1.62-1.49-3.66-2.46-2.02-.98-4.89-1.52-7.5-1.11-2.62,.44-4.82,1.71-6.16,2.87-.67,.6-1.19,1.1-1.51,1.5-.33,.38-.51,.6-.51,.6,0,0,.23-.16,.65-.45,.39-.3,1.02-.66,1.77-1.05,1.51-.76,3.73-1.34,5.89-1.17,2.16,.2,4.12,1.12,5.42,2.16,1.31,1.04,2.07,2.06,2.33,2.33,1.03,1.06,2.22,1.06,3.28,.3,1.01-.71,1.41-2.06,0-3.52Z"/>
          <path class="cls-1" d="M232.4,194.26c-.41,.56-2.26,4.34-5.46,6.96-1.55,1.33-3.33,2.37-4.75,2.98-1.41,.62-2.43,.82-2.43,.82,0,0,1.04,.09,2.63-.13,1.58-.21,3.72-.76,5.79-1.73,4.23-1.86,7.59-5.65,8.05-6.34,.91-1.46,.39-2.6-.72-3.22-1.11-.61-2.35-.58-3.1,.64Z"/>
          <path class="cls-1" d="M250.57,181.51s-.89-1.25-2.54-1.69c-.8-.14-1.81-.23-2.78,.37-.48,.32-.93,.81-1.38,1.3-.23,.23-.45,.51-.69,.73-.12,.12-.24,.22-.37,.32-.14,.07-.22,.28-.44,.15-.22-.12-.48-.35-.58-.15-.05,.09-.05,.3-.08,.44-.02,.17-.1,.19-.17,.21-.29,.14-.59,.28-.89,.43-.6,.3-1.25,.56-1.86,.94-1.26,.68-2.53,1.46-3.82,2.33-2.56,1.75-5.15,3.79-7.6,5.98-2.47,2.17-4.86,4.42-7.02,6.61-2.18,2.17-4.15,4.26-5.86,6.03-3.4,3.56-5.59,6-5.59,6-.15,.16-.08,.46,.14,.66,.23,.2,.53,.24,.68,.08h0s2.13-2.49,5.43-6.12c1.64-1.82,3.61-3.9,5.78-6.06,2.16-2.18,4.53-4.42,6.99-6.57,2.47-2.13,5.07-4.1,7.6-5.78,1.27-.83,2.54-1.58,3.77-2.22,.6-.35,1.23-.59,1.82-.88,.3-.14,.59-.27,.87-.4,.07-.04,.14-.07,.27,.04,.12,.08,.26,.23,.36,.27,.2,.08,.22-.25,.29-.48,.07-.24,.27-.14,.41-.18,.15,0,.31,0,.46,0,.31,.01,.62,.07,.93,.16,.62,.17,1.19,.37,1.67,.4,.96,.06,1.67-.27,2.27-.72,1.2-.77,1.93-2.19,1.93-2.19Z"/>
        </g>
        <g>
          <g>
            <path class="cls-1" d="M91.3,20.64c.79,.32,.63,1.57-.05,2.64-.43,.66-2.37,3.44-2.37,3.44,0,0,.5-3.35,.64-4.12,.24-1.24,.98-2.27,1.78-1.95Z"/>
            <path class="cls-1" d="M81.79,24.61c.31-.78,1.59-.6,2.68,.09,.68,.43,3.53,2.38,3.53,2.38,0,0-3.41-.54-4.2-.7-1.27-.25-2.32-1-2.01-1.78Z"/>
          </g>
          <g>
            <path class="cls-1" d="M86.43,22.21c.61-.26,1.21,.52,1.42,1.47,.13,.6,.59,3.18,.59,3.18,0,0-1.56-2.1-1.9-2.61-.55-.81-.7-1.78-.1-2.04Z"/>
            <path class="cls-1" d="M83.4,29.59c-.26-.59,.54-1.2,1.52-1.42,.61-.14,3.23-.63,3.23-.63,0,0-2.16,1.57-2.68,1.92-.83,.56-1.82,.72-2.07,.13Z"/>
            <path class="cls-1" d="M93.88,25.08c.26,.59-.54,1.2-1.52,1.42-.61,.14-3.23,.63-3.23,.63,0,0,2.16-1.57,2.68-1.92,.83-.56,1.82-.72,2.07-.13Z"/>
          </g>
        </g>
        <g>
          <g>
            <path class="cls-1" d="M24.33,82.41c.78-.34,1.56,.67,1.83,1.9,.17,.77,.76,4.1,.76,4.1,0,0-2.01-2.72-2.46-3.37-.71-1.05-.91-2.3-.13-2.64Z"/>
            <path class="cls-1" d="M20.41,91.94c-.33-.77,.7-1.55,1.96-1.83,.79-.18,4.18-.81,4.18-.81,0,0-2.79,2.03-3.46,2.48-1.07,.72-2.35,.93-2.68,.17Z"/>
          </g>
          <g>
            <path class="cls-1" d="M21.99,86.97c.24-.61,1.22-.49,2.04,.04,.51,.33,2.66,1.83,2.66,1.83,0,0-2.59-.39-3.19-.5-.96-.18-1.76-.76-1.51-1.37Z"/>
            <path class="cls-1" d="M25.07,94.33c-.6-.24-.46-1.23,.07-2.08,.33-.53,1.84-2.73,1.84-2.73,0,0-.42,2.64-.54,3.25-.19,.98-.78,1.8-1.38,1.56Z"/>
            <path class="cls-1" d="M29.29,83.73c.6,.24,.46,1.23-.07,2.08-.33,.53-1.84,2.73-1.84,2.73,0,0,.42-2.64,.54-3.25,.19-.98,.78-1.8,1.38-1.56Z"/>
          </g>
        </g>
        <g>
          <g>
            <path class="cls-1" d="M20.64,173.45c.32-.79,1.57-.63,2.64,.05,.66,.43,3.44,2.37,3.44,2.37,0,0-3.35-.5-4.12-.64-1.24-.24-2.27-.98-1.95-1.78Z"/>
            <path class="cls-1" d="M24.61,182.96c-.78-.31-.6-1.59,.09-2.68,.43-.68,2.38-3.53,2.38-3.53,0,0-.54,3.41-.7,4.2-.25,1.27-1,2.32-1.78,2.01Z"/>
          </g>
          <g>
            <path class="cls-1" d="M22.21,178.32c-.26-.61,.52-1.21,1.47-1.42,.6-.13,3.18-.59,3.18-.59,0,0-2.11,1.56-2.61,1.9-.81,.55-1.78,.7-2.04,.1Z"/>
            <path class="cls-1" d="M29.59,181.35c-.59,.26-1.2-.54-1.42-1.52-.14-.61-.63-3.23-.63-3.23,0,0,1.57,2.16,1.92,2.68,.56,.83,.72,1.82,.13,2.07Z"/>
            <path class="cls-1" d="M25.08,170.87c.59-.26,1.2,.54,1.42,1.52,.14,.61,.63,3.23,.63,3.23,0,0-1.57-2.16-1.92-2.68-.56-.83-.72-1.82-.13-2.07Z"/>
          </g>
        </g>
        <g>
          <g>
            <path class="cls-1" d="M82.41,240.42c-.34-.78,.67-1.56,1.9-1.83,.77-.17,4.1-.76,4.1-.76,0,0-2.72,2.01-3.37,2.46-1.05,.71-2.3,.91-2.64,.13Z"/>
            <path class="cls-1" d="M91.94,244.34c-.77,.33-1.55-.7-1.83-1.96-.18-.79-.81-4.18-.81-4.18,0,0,2.03,2.79,2.48,3.46,.72,1.07,.93,2.35,.17,2.68Z"/>
          </g>
          <g>
            <path class="cls-1" d="M86.97,242.76c-.61-.24-.49-1.22,.04-2.04,.33-.51,1.83-2.66,1.83-2.66,0,0-.39,2.59-.5,3.19-.18,.96-.76,1.76-1.37,1.51Z"/>
            <path class="cls-1" d="M94.33,239.69c-.24,.6-1.23,.46-2.08-.07-.53-.33-2.73-1.84-2.73-1.84,0,0,2.64,.42,3.25,.54,.98,.19,1.8,.77,1.56,1.38Z"/>
            <path class="cls-1" d="M83.73,235.46c.24-.6,1.23-.46,2.08,.07,.53,.33,2.73,1.84,2.73,1.84,0,0-2.64-.42-3.25-.54-.98-.19-1.8-.78-1.56-1.38Z"/>
          </g>
        </g>
        <g>
          <g>
            <path class="cls-1" d="M173.45,244.11c-.79-.32-.63-1.57,.05-2.64,.43-.66,2.37-3.44,2.37-3.44,0,0-.5,3.35-.64,4.12-.24,1.24-.98,2.27-1.78,1.95Z"/>
            <path class="cls-1" d="M182.96,240.14c-.31,.78-1.59,.6-2.68-.09-.68-.43-3.53-2.38-3.53-2.38,0,0,3.41,.54,4.2,.7,1.27,.25,2.32,1,2.01,1.78Z"/>
          </g>
          <g>
            <path class="cls-1" d="M178.32,242.54c-.61,.26-1.21-.52-1.42-1.47-.13-.6-.59-3.18-.59-3.18,0,0,1.56,2.1,1.9,2.61,.55,.81,.7,1.78,.1,2.04Z"/>
            <path class="cls-1" d="M181.35,235.16c.26,.59-.54,1.2-1.52,1.42-.61,.14-3.23,.63-3.23,.63,0,0,2.16-1.57,2.68-1.92,.83-.56,1.82-.72,2.07-.13Z"/>
            <path class="cls-1" d="M170.87,239.67c-.26-.59,.54-1.2,1.52-1.42,.61-.14,3.23-.63,3.23-.63,0,0-2.16,1.57-2.68,1.92-.83,.56-1.82,.72-2.07,.13Z"/>
          </g>
        </g>
        <g>
          <g>
            <path class="cls-1" d="M240.42,182.34c-.78,.34-1.56-.67-1.83-1.9-.17-.77-.76-4.1-.76-4.1,0,0,2.01,2.72,2.46,3.37,.71,1.05,.91,2.3,.13,2.64Z"/>
            <path class="cls-1" d="M244.34,172.81c.33,.77-.7,1.55-1.96,1.83-.79,.18-4.18,.81-4.18,.81,0,0,2.79-2.03,3.46-2.48,1.07-.72,2.35-.93,2.68-.17Z"/>
          </g>
          <g>
            <path class="cls-1" d="M242.76,177.79c-.24,.61-1.22,.49-2.04-.04-.51-.33-2.66-1.83-2.66-1.83,0,0,2.59,.39,3.19,.5,.96,.18,1.76,.76,1.51,1.37Z"/>
            <path class="cls-1" d="M239.69,170.42c.6,.24,.46,1.23-.07,2.08-.33,.53-1.84,2.73-1.84,2.73,0,0,.42-2.64,.54-3.25,.19-.98,.78-1.8,1.38-1.56Z"/>
            <path class="cls-1" d="M235.46,181.02c-.6-.24-.46-1.23,.07-2.08,.33-.53,1.84-2.73,1.84-2.73,0,0-.42,2.64-.54,3.25-.19,.98-.78,1.8-1.38,1.56Z"/>
          </g>
        </g>
        <g>
          <g>
            <path class="cls-1" d="M244.11,91.3c-.32,.79-1.57,.63-2.64-.05-.66-.43-3.44-2.37-3.44-2.37,0,0,3.35,.5,4.12,.64,1.24,.24,2.27,.98,1.95,1.78Z"/>
            <path class="cls-1" d="M240.14,81.79c.78,.31,.6,1.59-.09,2.68-.43,.68-2.38,3.53-2.38,3.53,0,0,.54-3.41,.7-4.2,.25-1.27,1-2.32,1.78-2.01Z"/>
          </g>
          <g>
            <path class="cls-1" d="M242.54,86.43c.26,.61-.52,1.21-1.47,1.42-.6,.13-3.18,.59-3.18,.59,0,0,2.1-1.56,2.61-1.9,.81-.55,1.78-.7,2.04-.1Z"/>
            <path class="cls-1" d="M235.16,83.4c.59-.26,1.2,.54,1.42,1.52,.14,.61,.63,3.23,.63,3.23,0,0-1.57-2.16-1.92-2.68-.56-.83-.72-1.82-.13-2.07Z"/>
            <path class="cls-1" d="M239.67,93.88c-.59,.26-1.2-.54-1.42-1.52-.14-.61-.63-3.23-.63-3.23,0,0,1.57,2.16,1.92,2.68,.56,.83,.72,1.82,.13,2.07Z"/>
          </g>
        </g>
        <g>
          <g>
            <path class="cls-1" d="M182.34,24.33c.34,.78-.67,1.56-1.9,1.83-.77,.17-4.1,.76-4.1,.76,0,0,2.72-2.01,3.37-2.46,1.05-.71,2.3-.91,2.64-.13Z"/>
            <path class="cls-1" d="M172.81,20.41c.77-.33,1.55,.7,1.83,1.96,.18,.79,.81,4.18,.81,4.18,0,0-2.03-2.79-2.48-3.46-.72-1.07-.93-2.35-.17-2.68Z"/>
          </g>
          <g>
            <path class="cls-1" d="M177.79,21.99c.61,.24,.49,1.22-.04,2.04-.33,.51-1.83,2.66-1.83,2.66,0,0,.39-2.59,.5-3.19,.18-.96,.76-1.76,1.37-1.51Z"/>
            <path class="cls-1" d="M170.42,25.07c.24-.6,1.23-.46,2.08,.07,.53,.33,2.73,1.84,2.73,1.84,0,0-2.64-.42-3.25-.54-.98-.19-1.8-.78-1.56-1.38Z"/>
            <path class="cls-1" d="M181.02,29.29c-.24,.6-1.23,.46-2.08-.07-.53-.33-2.73-1.84-2.73-1.84,0,0,2.64,.42,3.25,.54,.98,.19,1.8,.78,1.56,1.38Z"/>
          </g>
        </g>
      </g>
    </g>
  </g>
</svg>