<?xml version="1.0" encoding="UTF-8"?>
<svg id="Layer_2" data-name="Layer 2" xmlns="http://www.w3.org/2000/svg" viewBox="0 0 174 229.29">
  <defs>
    <style>
      .cls-1 {
        fill: #d1caa1;
      }
    </style>
  </defs>
  <g id="participants">
    <g>
      <path class="cls-1" d="M26.6,4.27c.36-.29,.78-.52,1.17-.79,.34-.24,.68-.5,1.04-.71,.39-.22,.46-.78,.14-1.1-.29-.29-.92-.28-1.1,.14-.18,.42-.42,.82-.64,1.22-.22,.4-.39,.83-.63,1.22-.01,.02,.01,.03,.03,.02Z"/>
      <path class="cls-1" d="M26.02,4.07s.03,.02,.03,0c.19-.87,.45-1.78,.74-2.62,.37-1.07-1.69-1.18-1.35,0,.24,.84,.44,1.76,.58,2.62Z"/>
      <path class="cls-1" d="M23.4,2.67c.36,.24,.69,.53,1.03,.8,.34,.27,.72,.51,1.04,.8,.01,.01,.04,0,.03-.02-.21-.38-.35-.8-.53-1.19-.18-.39-.4-.78-.54-1.18-.16-.46-.69-.68-1.1-.36-.4,.31-.34,.89,.07,1.15Z"/>
      <path class="cls-1" d="M22.47,4.91c.89-.09,1.85-.13,2.74-.12,.02,0,.02-.03,0-.03-.8-.33-1.64-.73-2.39-1.16-1.1-.62-1.44,1.41-.35,1.3Z"/>
      <path class="cls-1" d="M23.99,5.66c-.44,.12-.88,.26-1.32,.34-1.11,.2-.16,2.06,.68,1.17,.31-.32,.66-.61,.99-.9,.33-.3,.64-.63,.99-.91,.01-.01,0-.03-.02-.03-.43,.14-.89,.22-1.32,.33Z"/>
      <path class="cls-1" d="M25.43,8.31c.06-.85,.19-1.77,.35-2.6,0-.02-.02-.03-.03-.01-.45,.71-.98,1.47-1.52,2.12-.84,1.02,1.11,1.76,1.19,.49Z"/>
      <path class="cls-1" d="M27.83,8.01c-.52-.72-1.04-1.54-1.47-2.31-.01-.02-.03,0-.03,.01,.12,.85,.19,1.79,.2,2.65,0,1.25,1.96,.54,1.3-.35Z"/>
      <path class="cls-1" d="M29.35,6.13c-.43-.1-.86-.27-1.28-.41-.42-.14-.87-.24-1.28-.4-.02,0-.03,.02-.02,.03,.34,.3,.63,.66,.95,.98,.32,.32,.66,.63,.95,.98,.73,.87,1.86-.89,.68-1.17Z"/>
      <path class="cls-1" d="M29.3,3.75c-.77,.37-1.62,.71-2.42,.99-.02,0-.02,.03,0,.03,.84,.04,1.75,.12,2.59,.25,1.3,.21,.98-1.83-.17-1.28Z"/>
      <path class="cls-1" d="M48.8,.68c-.4,.36-.29,.93,0,1.3,.38,.48,.69,.09,1.12,.14,.42-.43,.78-.14,1.08,.85-.12,.41-.35,.72-.68,.95-.72,.61-1.58,.65-2.45,.37-1.51-.48-2.66-1.59-3.94-2.5-.52-.65-1.29-1.11-2.26-1.21-1.76-.18-3.55,.46-5.05,1.35-1.92,1.15-3.56,3.64-5.91,3.77-.02,0-.02,.03,0,.03,2.24,.66,4.08-1.83,5.83-2.83,1.39-.8,4.05-1.96,5.63-.95,1.79,1.16,.21,2.33-.21,3.6-.12,.34,.13,.75,.48,.84,.11,.03,.21,.05,.32,.08,.34,.09,.72,0,.97-.26,.94-.98,1.15-2.26,.8-3.36,2.1,2.07,4.38,4.43,7.04,2.13,1.13-.98,1.66-2.77,.74-4.06-.86-1.21-2.44-1.2-3.48-.26Z"/>
      <path class="cls-1" d="M19.02,5.34c-.03,.77,1.25,.75,1.18,0-.08-.82,.13-1.63,.77-2.17,.04-.03,0-.09-.05-.08-1.1,.25-1.85,1.14-1.9,2.25Z"/>
      <path class="cls-1" d="M19.11,3.27s0-.03-.02-.03c-.78,.4-1.34,.86-1.69,1.68-.28,.66-.57,1.86,.12,2.35,.17,.12,.44,.1,.61,0,.02-.01,.04-.02,.06-.04,.39-.24,.35-.69,.08-.93-.47-.95,.09-2.44,.84-3.04Z"/>
      <path class="cls-1" d="M19.36,1.6c.09-.02,.09-.16,0-.18-.3-.08-.57-.22-.81-.43-.22-.2-.35-.46-.56-.66-.4-.37-1.07,.1-.77,.6,.4,.68,1.44,.83,2.15,.68Z"/>
      <path class="cls-1" d="M14.05,1.93c.94,.68,2,.82,3.08,.4,.02,0,.01-.03,0-.03-.89-.12-1.78-.62-2.37-1.3-.53-.61-1.44,.4-.71,.92Z"/>
      <path class="cls-1" d="M14.13,4.15c.53-.12,1.29-.3,1.68-.7,.02-.02,.02-.07-.02-.08-.25-.05-.51-.01-.77-.03-.31-.03-.6-.1-.89-.2-.78-.27-.91,1.22,0,1.01Z"/>
      <path class="cls-1" d="M30.96,5.27c.65-.51,1.16-1.27,1.34-2.08,.19-.87-1.24-.87-1.04,0,.17,.74,.06,1.39-.34,2.04-.02,.03,.02,.06,.05,.04Z"/>
      <path class="cls-1" d="M32.79,4.31c.69-.61,1.17-1.37,1.47-2.25,.05-.16-.01-.33-.12-.45l-.07-.07c-.1-.1-.28-.13-.4-.05-.43,.28-.29,.75-.35,1.2-.08,.56-.28,1.1-.55,1.59,0,.02,.01,.03,.02,.02Z"/>
      <path class="cls-1" d="M34.9,2.41c.21-.21,.45-.36,.68-.55,.22-.19,.47-.35,.73-.46,.53-.22,.14-1-.29-.7-.3,.21-.58,.45-.81,.74-.21,.27-.3,.61-.36,.94,0,.03,.03,.06,.05,.03Z"/>
      <path class="cls-1" d="M30.97,6.28c-.08-.02-.13,.07-.08,.13,.38,.4,.76,.68,1.26,.93,.47,.23,.94,.48,1.46,.4,.41-.06,.42-.66,.11-.84-.4-.24-.91-.2-1.36-.3-.47-.1-.93-.21-1.4-.32Z"/>
      <path class="cls-1" d="M33.32,5.73s-.07,.07-.02,.09c.52,.23,1.06,.4,1.62,.48,.53,.08,1.03,.18,1.37-.3,.12-.17,.02-.42-.14-.52-.42-.26-.8-.02-1.24,.09-.53,.13-1.06,.17-1.6,.16Z"/>
      <path class="cls-1" d="M36.61,3.99c-.52,.24-1.06,.41-1.59,.62-.01,0-.02,.03,0,.03,.56,.11,1.11,.11,1.67,.05,.54-.06,1.1-.08,1.52-.45,.29-.25,.06-.78-.32-.76-.49,.02-.85,.31-1.29,.51Z"/>
      <path class="cls-1" d="M40.79,2.5c-.86-.5-1.77-.3-2.55,.2-.02,.01,0,.04,.02,.03,.71-.31,1.44,.04,1.93,.55,.5,.52,1.24-.41,.6-.78Z"/>
      <path class="cls-1" d="M25.81,4.44s-.05,.01-.08,.02c-.46,.09-.46,.83,0,.92,.03,0,.05,.01,.08,.02,.31,.06,.62-.14,.62-.48s-.31-.53-.62-.48Z"/>
      <path class="cls-1" d="M44.77,7.02c-.26,1.26,1.7,1.52,1.74,.23,.02-.59,0-1.15-.29-1.68-.25-.45-.57-.86-.93-1.22-.08-.08-.25-.03-.24,.1,.03,.43,.02,.86-.08,1.28-.1,.42-.1,.85-.19,1.28Z"/>
      <path class="cls-1" d="M15.68,5.4c-.27,.77-.47,1.68-.49,2.57-.7,2.81-1.57,6.1,1.37,7.81,.59,.34,1.2,.5,1.8,.53-.15,.29-.41,.6-.62,.85-.09,.11-.19,.21-.29,.31-.1,.1-.2,.2-.31,.29-.25,.21-.56,.47-.85,.62-.02-.6-.19-1.21-.53-1.8-1.7-2.94-5-2.07-7.81-1.37-.89,.02-1.8,.22-2.57,.49-2.13,.75-3.65,2.43-3.44,4.75,0,.02,.03,.02,.03,0-.08-2.39,1.95-3.9,4.11-4.33,.86-.17,2.03-.31,2.89,0,1.02,.35,1.56,1.05,1.62,2.08,.05,1.15-.51,1.6-1.69,1.33,.3-.28,0-.88-.42-.72-1.38,.55-.81,2.31,.6,2.34,2,.03,3.03-2.59,2.26-4.18-.57-1.17-1.64-1.65-2.81-1.74,2.08-.34,4.44-.53,5.78,.97,1.76,1.97,.6,4.83-1.84,5.38-.74,.17-.42,1.31,.31,1.13,.32-.08,.63-.19,.92-.32,1.52,.95,3.29,1.21,5.1,.64,.82-.26,1.86-.8,2.7-1.5,.7-.84,1.24-1.88,1.5-2.7,.57-1.81,.31-3.58-.64-5.1,.14-.29,.25-.6,.32-.92,.17-.74-.97-1.05-1.13-.31-.56,2.45-3.42,3.6-5.38,1.84-1.5-1.34-1.31-3.7-.97-5.78,.1,1.17,.58,2.24,1.74,2.81,1.59,.78,4.21-.26,4.18-2.26-.02-1.4-1.79-1.98-2.34-.6-.16,.41,.44,.71,.72,.42,.27,1.17-.18,1.74-1.33,1.69-1.04-.06-1.73-.6-2.08-1.62-.3-.86-.16-2.03,0-2.89,.43-2.16,1.94-4.19,4.33-4.11,.02,0,.02-.03,0-.03-2.33-.21-4.01,1.31-4.75,3.44Zm6.47,8.74c.56,1.63,.54,3.43-.28,5-.3,.58-.68,1.12-1.12,1.61-.49,.44-1.04,.82-1.61,1.12-1.57,.82-3.37,.85-5,.28,.24-.14,.46-.31,.67-.49,1.02,.26,1.95,.4,3.03,.02,.88-.31,1.67-.85,2.4-1.44,.59-.73,1.12-1.52,1.44-2.4,.39-1.08,.24-2.01-.02-3.03,.18-.21,.35-.43,.49-.67Zm-.61,.81c.06,.87,.04,1.78-.24,2.58-.3,.88-.87,1.61-1.45,2.32-.71,.58-1.44,1.15-2.32,1.45-.8,.28-1.72,.3-2.58,.24,.26-.25,.49-.52,.68-.82,1.22,.21,2.69-.57,3.74-1.35,.78-1.06,1.56-2.53,1.35-3.74,.3-.19,.57-.42,.82-.68Zm-.95,.76c-.07,.72-.54,1.59-.81,2.1-.23,.42-.5,.81-.8,1.18-.37,.3-.75,.57-1.18,.8-.5,.27-1.37,.73-2.1,.81,.19-.32,.34-.66,.44-1.01,.82-.21,1.72-.49,2.38-1.05,.55-.66,.84-1.56,1.05-2.38,.35-.1,.69-.25,1.01-.44Zm-1.06,.46c-.15,.49-.42,.96-.73,1.36-.19,.24-.4,.44-.63,.64-.2,.22-.4,.44-.64,.63-.4,.31-.87,.58-1.36,.73,.1-.36,.15-.74,.13-1.12,.36-.11,.69-.16,1.03-.34,.16-.08,.31-.18,.45-.28,.1-.15,.2-.3,.28-.45,.18-.34,.23-.67,.34-1.03,.38,.01,.76-.04,1.12-.13Z"/>
      <path class="cls-1" d="M23.06,13.79c1.05-.4,2.13-.74,3.14-1.24,.79-.39,.03-1.68-.69-1.18-.92,.64-1.74,1.43-2.6,2.16-.12,.1,0,.32,.15,.27Z"/>
      <path class="cls-1" d="M23.61,14.67c.48-.1,.96-.14,1.45-.18,.45-.03,.91,.03,1.35-.02,.72-.09,.75-1.1,0-1.14-1.01-.06-2.1,.49-2.93,1.02-.17,.11-.06,.36,.13,.32Z"/>
      <path class="cls-1" d="M26.76,15.6c-.92-.29-2.15-.35-3.02,.08-.09,.04-.06,.18,.03,.2,.44,.14,.9,.18,1.35,.31,.47,.13,.89,.33,1.34,.51,.67,.27,1.02-.88,.3-1.1Z"/>
      <path class="cls-1" d="M26.64,17.78c-.83-.38-1.87-.67-2.78-.4-.2,.06-.16,.3,0,.37,.77,.32,1.5,.55,2.21,1.01,.62,.41,1.23-.68,.57-.98Z"/>
      <path class="cls-1" d="M23.26,19.47c.65,.59,1.46,1,2.13,1.58,.65,.57,1.45-.45,.73-.94-.79-.55-1.82-1.03-2.81-.82-.08,.02-.11,.13-.05,.19Z"/>
      <path class="cls-1" d="M22.45,21.71c.69,.44,1.29,.99,1.74,1.68,.59,.88,1.8-.25,1.07-.83-.78-.62-1.64-1.08-2.62-1.32-.29-.07-.45,.32-.2,.48Z"/>
      <path class="cls-1" d="M19.86,12.23c-.68,.16-1.1,.73-1.85,.76-.99,.05-1.92-.57-2.47-1.34-.01-.02-.04,0-.03,.02,.53,1,1.24,1.88,2.39,2.14,.89,.21,2.29,.06,2.57-.97,.1-.37-.24-.69-.61-.61Z"/>
      <path class="cls-1" d="M15.21,4.61c-.3,.22-.56,.4-.77,.72-.22,.35-.35,.74-.39,1.15-.06,.73,1.22,.67,1.05-.14-.12-.55-.15-1.2,.13-1.71,0-.01,0-.03-.02-.02Z"/>
      <path class="cls-1" d="M10.88,6.33c.44,1.25,.81,2.77,.41,4.06,0,.02,.02,.03,.03,0,.79-1.89,.65-4.85-.71-6.46-.12-.14-.34-.18-.51-.14-.06,.02-.13,.03-.19,.05-.11,.03-.18,.13-.19,.25-.01,.26,.02,.37,.14,.58,.33,.6,.77,.94,1.02,1.65Z"/>
      <path class="cls-1" d="M145.2,2.77c.36,.2,.7,.47,1.04,.71,.38,.27,.8,.5,1.17,.79,.01,.01,.04,0,.03-.02-.24-.39-.42-.82-.63-1.22-.22-.4-.46-.8-.64-1.22-.18-.42-.81-.43-1.1-.14-.31,.31-.25,.88,.14,1.1Z"/>
      <path class="cls-1" d="M147.95,4.07s.03,.02,.03,0c.14-.86,.34-1.78,.58-2.62,.34-1.18-1.72-1.07-1.35,0,.29,.84,.55,1.75,.74,2.62Z"/>
      <path class="cls-1" d="M148.52,4.28c.33-.29,.7-.53,1.04-.8,.34-.27,.67-.57,1.03-.8,.41-.27,.47-.85,.07-1.15-.41-.32-.93-.09-1.1,.36-.15,.4-.36,.79-.54,1.18-.18,.39-.33,.81-.53,1.19,0,.02,.01,.03,.03,.02Z"/>
      <path class="cls-1" d="M148.79,4.79c.9-.01,1.85,.02,2.74,.12,1.09,.11,.74-1.92-.35-1.3-.75,.42-1.6,.82-2.39,1.16-.02,0-.02,.03,0,.03Z"/>
      <path class="cls-1" d="M151.34,6c-.45-.08-.89-.22-1.32-.34-.44-.12-.89-.19-1.32-.33-.02,0-.03,.02-.02,.03,.35,.28,.66,.61,.99,.91,.33,.3,.69,.58,.99,.9,.84,.89,1.79-.97,.68-1.17Z"/>
      <path class="cls-1" d="M148.22,5.72c.16,.83,.3,1.75,.35,2.6,.08,1.27,2.03,.52,1.19-.49-.54-.65-1.07-1.4-1.52-2.12-.01-.02-.03,0-.03,.01Z"/>
      <path class="cls-1" d="M147.48,8.37c0-.86,.08-1.8,.2-2.65,0-.02-.02-.03-.03-.01-.43,.78-.95,1.6-1.47,2.31-.65,.89,1.3,1.6,1.3,.35Z"/>
      <path class="cls-1" d="M145.93,5.72c-.42,.14-.85,.31-1.28,.41-1.18,.28-.05,2.04,.68,1.17,.29-.35,.63-.65,.95-.98,.32-.32,.61-.68,.95-.98,.01-.01,0-.03-.02-.03-.42,.16-.86,.26-1.28,.4Z"/>
      <path class="cls-1" d="M144.54,5.03c.83-.13,1.74-.21,2.59-.25,.02,0,.02-.03,0-.03-.8-.28-1.66-.62-2.42-.99-1.15-.55-1.47,1.49-.17,1.28Z"/>
      <path class="cls-1" d="M137.38,1.94c-1.49-.89-3.28-1.53-5.05-1.35-.97,.1-1.74,.57-2.26,1.21-1.28,.9-2.43,2.02-3.94,2.5-.88,.28-1.74,.23-2.45-.37-.34-.22-.56-.54-.68-.95,.3-.99,.65-1.28,1.08-.85,.43-.05,.74,.34,1.12-.14,.29-.38,.4-.94,0-1.3-1.04-.94-2.62-.95-3.48,.26-.92,1.3-.39,3.09,.74,4.06,2.66,2.3,4.94-.05,7.04-2.13-.35,1.1-.14,2.38,.8,3.36,.25,.26,.63,.34,.97,.26,.11-.03,.21-.05,.32-.08,.34-.09,.59-.5,.48-.84-.42-1.26-2.01-2.44-.21-3.6,1.57-1.01,4.23,.15,5.63,.95,1.75,1,3.59,3.49,5.83,2.83,.02,0,.01-.03,0-.03-2.35-.14-3.99-2.63-5.91-3.77Z"/>
      <path class="cls-1" d="M161.64,12.36c3.25,1.12,7.63,2.15,10.2-.15,1.8-1.6,1.43-4.06-.35-5.45,.19-.26,.36-.53,.52-.81,.81-1.44,1.89-3.75,1.49-5.46-1.7-.4-4.02,.68-5.46,1.49-.28,.16-.55,.33-.81,.52-1.39-1.78-3.85-2.15-5.45-.35-2.3,2.57-1.27,6.95-.15,10.2Zm7.14-9.13c.83-.4,1.72-.68,2.62-.87,.1-.02,.2-.04,.3-.06-.02,.1-.04,.2-.06,.3-.2,.9-.47,1.79-.87,2.62-.6,1.24-1.4,2.37-2.49,3.21-1.22,.95-2.79,1.55-4.36,1.65,.1-1.57,.7-3.14,1.65-4.36,.85-1.09,1.98-1.89,3.21-2.49Zm-6.15,.61c.76-1.04,2.17-1.39,2.99-.2,.05,.07,.1,.13,.16,.18-.37,.42-.71,.88-.99,1.37-.88,1.51-1.32,3.36-1.1,5.11,1.75,.22,3.6-.22,5.11-1.1,.49-.28,.95-.62,1.37-.99,.05,.06,.11,.11,.18,.16,1.19,.82,.84,2.23-.2,2.99-2.2,1.61-5.5,1.3-8.28,.75-.55-2.77-.86-6.08,.75-8.28Z"/>
      <path class="cls-1" d="M153.8,5.34c-.07,.75,1.21,.77,1.18,0-.05-1.12-.81-2.01-1.9-2.25-.04,0-.08,.05-.05,.08,.64,.55,.85,1.36,.77,2.17Z"/>
      <path class="cls-1" d="M155.81,7.24s.04,.02,.06,.04c.17,.1,.44,.12,.61,0,.68-.49,.4-1.69,.12-2.35-.35-.82-.91-1.29-1.69-1.68-.02,0-.04,.01-.02,.03,.75,.61,1.31,2.1,.84,3.04-.26,.24-.31,.68,.08,.93Z"/>
      <path class="cls-1" d="M154.64,1.6c.71,.15,1.74,0,2.15-.68,.3-.5-.37-.96-.77-.6-.22,.2-.34,.46-.56,.66-.24,.21-.5,.35-.81,.43-.09,.02-.09,.16,0,.18Z"/>
      <path class="cls-1" d="M156.87,2.33c1.08,.42,2.15,.28,3.08-.4,.73-.53-.18-1.53-.71-.92-.59,.67-1.48,1.18-2.37,1.3-.02,0-.02,.02,0,.03Z"/>
      <path class="cls-1" d="M159.87,3.14c-.29,.1-.58,.17-.89,.2-.26,.02-.52-.01-.77,.03-.04,0-.04,.06-.02,.08,.4,.4,1.15,.57,1.68,.7,.91,.21,.78-1.28,0-1.01Z"/>
      <path class="cls-1" d="M143.04,5.27s.07,0,.05-.04c-.4-.65-.51-1.3-.34-2.04,.2-.87-1.24-.87-1.04,0,.18,.81,.69,1.57,1.34,2.08Z"/>
      <path class="cls-1" d="M141.21,4.31s.03,0,.02-.02c-.27-.5-.47-1.03-.55-1.59-.07-.45,.08-.92-.35-1.2-.12-.08-.31-.05-.4,.05l-.07,.07c-.11,.12-.17,.29-.12,.45,.3,.87,.78,1.63,1.47,2.25Z"/>
      <path class="cls-1" d="M137.68,1.4c.27,.11,.51,.28,.73,.46,.23,.19,.47,.34,.68,.55,.02,.02,.06,0,.05-.03-.06-.33-.15-.68-.36-.94-.23-.29-.5-.53-.81-.74-.44-.3-.82,.47-.29,.7Z"/>
      <path class="cls-1" d="M143.03,6.28c-.46,.11-.93,.22-1.4,.32-.45,.1-.95,.07-1.36,.3-.31,.18-.3,.78,.11,.84,.53,.08,1-.17,1.46-.4,.5-.24,.87-.53,1.26-.93,.06-.06,0-.15-.08-.13Z"/>
      <path class="cls-1" d="M140.68,5.73c-.54,.01-1.07-.03-1.6-.16-.44-.11-.82-.35-1.24-.09-.16,.1-.26,.35-.14,.52,.34,.48,.84,.38,1.37,.3,.56-.09,1.1-.25,1.62-.48,.04-.02,.02-.09-.02-.09Z"/>
      <path class="cls-1" d="M137.39,3.99c-.44-.2-.8-.49-1.29-.51-.38-.02-.6,.51-.32,.76,.42,.37,.98,.39,1.52,.45,.56,.06,1.12,.06,1.67-.05,.02,0,.01-.03,0-.03-.53-.21-1.07-.38-1.59-.62Z"/>
      <path class="cls-1" d="M133.21,2.5c-.63,.37,.11,1.3,.6,.78,.49-.51,1.23-.85,1.93-.55,.02,0,.04-.02,.02-.03-.78-.51-1.7-.71-2.55-.2Z"/>
      <path class="cls-1" d="M148.27,4.45s-.05-.01-.08-.02c-.31-.06-.62,.14-.62,.48s.31,.53,.62,.48c.03,0,.05-.01,.08-.02,.46-.09,.46-.83,0-.92Z"/>
      <path class="cls-1" d="M128.72,4.35c-.37,.36-.69,.77-.93,1.22-.28,.52-.31,1.09-.29,1.68,.04,1.29,1.99,1.03,1.74-.23-.09-.43-.09-.85-.19-1.28-.1-.43-.11-.85-.08-1.28,0-.13-.16-.18-.24-.1Z"/>
      <path class="cls-1" d="M151.3,12.8c.08,.32,.19,.63,.32,.92-.95,1.52-1.21,3.29-.64,5.1,.26,.82,.8,1.86,1.5,2.7,.84,.7,1.88,1.24,2.7,1.5,1.81,.57,3.58,.31,5.1-.64,.29,.14,.6,.25,.92,.32,.74,.17,1.05-.97,.31-1.13-2.45-.56-3.6-3.42-1.84-5.38,1.34-1.5,3.7-1.31,5.78-.97-1.17,.1-2.24,.58-2.81,1.74-.78,1.59,.26,4.21,2.26,4.18,1.4-.02,1.98-1.79,.6-2.34-.41-.16-.71,.44-.42,.72-1.17,.27-1.74-.18-1.69-1.33,.06-1.04,.6-1.73,1.62-2.08,.86-.3,2.03-.16,2.89,0,2.16,.43,4.19,1.94,4.11,4.33,0,.02,.03,.02,.03,0,.21-2.33-1.31-4.01-3.44-4.75-.77-.27-1.68-.47-2.57-.49-2.81-.7-6.1-1.57-7.81,1.37-.34,.59-.5,1.2-.53,1.8-.29-.15-.6-.41-.85-.62-.11-.09-.21-.19-.31-.29-.1-.1-.2-.2-.29-.31-.21-.25-.47-.56-.62-.85,.6-.02,1.21-.19,1.8-.53,2.94-1.7,2.07-5,1.37-7.81-.02-.89-.22-1.8-.49-2.57-.75-2.13-2.43-3.65-4.75-3.44-.02,0-.02,.03,0,.03,2.39-.08,3.9,1.95,4.33,4.11,.17,.86,.31,2.03,0,2.89-.35,1.02-1.05,1.56-2.08,1.62-1.15,.05-1.6-.51-1.33-1.69,.28,.3,.88,0,.72-.42-.55-1.38-2.31-.81-2.34,.6-.03,2,2.59,3.03,4.18,2.26,1.17-.57,1.65-1.64,1.74-2.81,.34,2.08,.53,4.44-.97,5.78-1.97,1.76-4.83,.6-5.38-1.84-.17-.74-1.31-.42-1.13,.31Zm4.3,3.51c.11,.36,.16,.69,.34,1.03,.08,.16,.18,.31,.28,.45,.15,.1,.3,.2,.45,.28,.34,.18,.67,.23,1.03,.34-.01,.38,.04,.76,.13,1.12-.49-.15-.96-.42-1.36-.73-.24-.19-.44-.4-.64-.63-.22-.2-.44-.4-.63-.64-.31-.4-.58-.87-.73-1.36,.36,.1,.74,.15,1.12,.13Zm-1.17-.15c.21,.82,.49,1.72,1.05,2.38,.66,.55,1.56,.84,2.38,1.05,.1,.35,.25,.69,.44,1.01-.72-.07-1.59-.54-2.1-.81-.42-.23-.81-.5-1.18-.8-.3-.37-.57-.75-.8-1.18-.27-.5-.73-1.37-.81-2.1,.32,.19,.66,.34,1.01,.44Zm-1.96-1.21c.25,.26,.52,.49,.82,.68-.21,1.22,.57,2.69,1.35,3.74,1.06,.78,2.53,1.56,3.74,1.35,.19,.3,.42,.57,.68,.82-.87,.06-1.78,.04-2.58-.24-.88-.3-1.61-.87-2.32-1.45-.58-.71-1.15-1.44-1.45-2.32-.28-.8-.3-1.72-.24-2.58Zm-.12-.14c-.26,1.02-.4,1.95-.02,3.03,.31,.88,.85,1.67,1.44,2.4,.73,.59,1.52,1.12,2.4,1.44,1.08,.39,2.01,.24,3.03-.02,.21,.18,.43,.35,.67,.49-1.63,.56-3.43,.54-5-.28-.58-.3-1.12-.68-1.61-1.12-.44-.49-.82-1.04-1.12-1.61-.82-1.57-.85-3.37-.28-5,.14,.24,.31,.46,.49,.67Z"/>
      <path class="cls-1" d="M151.1,13.52c-.86-.73-1.68-1.52-2.6-2.16-.72-.5-1.48,.79-.69,1.18,1,.5,2.09,.84,3.14,1.24,.15,.06,.27-.17,.15-.27Z"/>
      <path class="cls-1" d="M150.53,14.35c-.83-.53-1.92-1.09-2.93-1.02-.75,.05-.72,1.05,0,1.14,.44,.06,.9,0,1.35,.02,.49,.03,.97,.08,1.45,.18,.19,.04,.3-.21,.13-.32Z"/>
      <path class="cls-1" d="M147.54,16.7c.45-.18,.87-.38,1.34-.51,.45-.12,.9-.17,1.35-.31,.09-.03,.12-.16,.03-.2-.87-.43-2.1-.37-3.02-.08-.71,.23-.37,1.37,.3,1.1Z"/>
      <path class="cls-1" d="M147.93,18.76c.71-.46,1.44-.69,2.21-1.01,.16-.07,.2-.31,0-.37-.91-.27-1.95,.01-2.78,.4-.66,.3-.05,1.39,.57,.98Z"/>
      <path class="cls-1" d="M150.69,19.29c-.98-.21-2.01,.28-2.81,.82-.72,.5,.08,1.51,.73,.94,.67-.58,1.48-.99,2.13-1.58,.06-.05,.03-.17-.05-.19Z"/>
      <path class="cls-1" d="M149.81,23.38c.46-.68,1.05-1.24,1.74-1.68,.25-.16,.09-.55-.2-.48-.97,.25-1.83,.7-2.62,1.32-.73,.58,.49,1.71,1.07,.83Z"/>
      <path class="cls-1" d="M156.1,13.81c1.16-.27,1.86-1.15,2.39-2.14,.01-.02-.02-.03-.03-.02-.56,.77-1.49,1.39-2.47,1.34-.75-.04-1.18-.61-1.85-.76-.36-.08-.71,.23-.61,.61,.28,1.03,1.68,1.18,2.57,.97Z"/>
      <path class="cls-1" d="M159.95,6.48c-.04-.41-.17-.8-.39-1.15-.21-.32-.47-.5-.77-.72-.01-.01-.03,0-.02,.02,.28,.51,.25,1.16,.13,1.71-.17,.81,1.11,.87,1.05,.14Z"/>
      <path class="cls-1" d="M162.71,10.39c-.4-1.29-.03-2.81,.41-4.06,.25-.71,.68-1.05,1.02-1.65,.12-.22,.16-.32,.14-.58,0-.11-.07-.22-.19-.25-.06-.02-.13-.03-.19-.05-.17-.04-.39,0-.51,.14-1.36,1.61-1.5,4.57-.71,6.46,0,.02,.04,.01,.03,0Z"/>
      <path class="cls-1" d="M2.77,200.49c-.22-.39-.78-.46-1.1-.14-.29,.29-.28,.92,.14,1.1,.42,.18,.82,.42,1.22,.64,.4,.22,.83,.39,1.22,.63,.02,.01,.03-.01,.02-.03-.29-.36-.52-.78-.79-1.17-.24-.34-.5-.68-.71-1.04Z"/>
      <path class="cls-1" d="M1.45,203.84c.84-.24,1.76-.44,2.62-.58,.02,0,.02-.03,0-.03-.87-.19-1.78-.45-2.62-.74-1.07-.37-1.18,1.69,0,1.35Z"/>
      <path class="cls-1" d="M2.67,205.88c.24-.36,.53-.69,.8-1.03,.27-.34,.51-.72,.8-1.04,.01-.01,0-.04-.02-.03-.38,.21-.8,.35-1.19,.53-.39,.18-.78,.4-1.18,.54-.46,.16-.68,.69-.36,1.1,.31,.4,.89,.34,1.15-.07Z"/>
      <path class="cls-1" d="M4.76,204.07c-.33,.8-.73,1.64-1.16,2.39-.62,1.1,1.41,1.44,1.3,.35-.09-.89-.13-1.85-.12-2.74,0-.02-.03-.02-.03,0Z"/>
      <path class="cls-1" d="M7.17,205.94c-.32-.31-.61-.66-.9-.99-.3-.33-.63-.64-.91-.99-.01-.01-.03,0-.03,.02,.14,.43,.22,.89,.33,1.32,.12,.44,.26,.88,.34,1.32,.2,1.11,2.06,.16,1.17-.68Z"/>
      <path class="cls-1" d="M8.31,203.86c-.85-.06-1.77-.19-2.6-.35-.02,0-.03,.02-.01,.03,.71,.45,1.47,.98,2.12,1.52,1.02,.84,1.76-1.11,.49-1.19Z"/>
      <path class="cls-1" d="M8.01,201.46c-.72,.52-1.54,1.04-2.31,1.47-.02,.01,0,.03,.01,.03,.85-.12,1.79-.19,2.65-.2,1.25,0,.54-1.96-.35-1.3Z"/>
      <path class="cls-1" d="M5.31,202.5s.02,.03,.03,.02c.3-.34,.66-.63,.98-.95,.32-.32,.63-.66,.98-.95,.87-.73-.89-1.86-1.17-.68-.1,.43-.27,.86-.41,1.28-.14,.42-.24,.87-.4,1.28Z"/>
      <path class="cls-1" d="M4.77,202.41c.04-.84,.12-1.75,.25-2.59,.21-1.3-1.83-.98-1.28,.17,.37,.77,.71,1.62,.99,2.42,0,.02,.03,.02,.03,0Z"/>
      <path class="cls-1" d="M1.99,180.48c.48-.38,.09-.69,.14-1.12-.43-.42-.14-.78,.85-1.08,.41,.12,.72,.35,.95,.68,.61,.72,.65,1.58,.37,2.45-.48,1.51-1.59,2.66-2.5,3.94-.65,.52-1.11,1.29-1.21,2.26-.18,1.76,.46,3.55,1.35,5.05,1.15,1.92,3.64,3.56,3.77,5.91,0,.02,.03,.02,.03,0,.66-2.24-1.83-4.08-2.83-5.83-.8-1.39-1.96-4.05-.95-5.63,1.16-1.79,2.33-.21,3.6,.21,.34,.12,.75-.13,.84-.48,.03-.11,.05-.21,.08-.32,.09-.34,0-.72-.26-.97-.98-.94-2.26-1.15-3.36-.8,2.07-2.1,4.43-4.38,2.13-7.04-.98-1.13-2.77-1.66-4.06-.74-1.21,.86-1.2,2.44-.26,3.48,.36,.4,.93,.29,1.3,0Z"/>
      <path class="cls-1" d="M5.34,210.26c.77,.03,.75-1.25,0-1.18-.82,.08-1.63-.13-2.17-.77-.03-.04-.09,0-.08,.05,.25,1.1,1.14,1.85,2.25,1.9Z"/>
      <path class="cls-1" d="M4.92,211.89c.66,.28,1.86,.57,2.35-.12,.12-.17,.1-.44,0-.61-.01-.02-.02-.04-.04-.06-.24-.39-.69-.35-.93-.08-.95,.47-2.44-.09-3.04-.84-.01-.02-.03,0-.03,.02,.4,.78,.86,1.34,1.68,1.69Z"/>
      <path class="cls-1" d="M.92,212.08c.68-.4,.83-1.44,.68-2.15-.02-.09-.16-.09-.18,0-.08,.3-.22,.57-.43,.81-.2,.22-.46,.35-.66,.56-.37,.4,.1,1.07,.6,.77Z"/>
      <path class="cls-1" d="M1.93,215.24c.68-.94,.82-2,.4-3.08,0-.02-.03-.01-.03,0-.12,.89-.62,1.78-1.3,2.37-.61,.53,.4,1.44,.92,.71Z"/>
      <path class="cls-1" d="M3.14,215.16c-.27,.78,1.22,.91,1.01,0-.12-.53-.3-1.29-.7-1.68-.02-.02-.07-.02-.08,.02-.05,.25-.01,.51-.03,.77-.03,.31-.1,.6-.2,.89Z"/>
      <path class="cls-1" d="M3.19,196.99c-.87-.19-.87,1.24,0,1.04,.74-.17,1.39-.06,2.04,.34,.03,.02,.06-.02,.04-.05-.51-.65-1.27-1.16-2.08-1.34Z"/>
      <path class="cls-1" d="M2.06,195.02c-.16-.05-.33,.01-.45,.12-.02,.02-.05,.05-.07,.07-.1,.1-.13,.28-.05,.4,.28,.43,.75,.29,1.2,.35,.56,.08,1.1,.28,1.59,.55,.02,0,.03-.01,.02-.02-.61-.69-1.37-1.17-2.25-1.47Z"/>
      <path class="cls-1" d="M1.86,193.71c-.19-.22-.35-.47-.46-.73-.22-.53-1-.14-.7,.29,.21,.3,.45,.58,.74,.81,.27,.21,.61,.3,.94,.36,.03,0,.06-.03,.03-.05-.21-.21-.36-.45-.55-.68Z"/>
      <path class="cls-1" d="M6.42,198.4c.4-.38,.68-.76,.93-1.26,.23-.47,.48-.94,.4-1.46-.06-.41-.66-.42-.84-.11-.24,.4-.2,.91-.3,1.36-.1,.47-.21,.93-.32,1.4-.02,.08,.07,.13,.13,.08Z"/>
      <path class="cls-1" d="M6.01,193c-.17-.12-.42-.02-.52,.14-.26,.42-.02,.8,.09,1.24,.13,.53,.17,1.06,.16,1.6,0,.04,.07,.07,.09,.02,.23-.52,.4-1.06,.48-1.62,.08-.53,.18-1.03-.3-1.37Z"/>
      <path class="cls-1" d="M3.47,191.39c.02,.49,.31,.85,.51,1.29,.24,.52,.41,1.06,.62,1.59,0,.01,.03,.02,.03,0,.11-.56,.11-1.11,.05-1.67-.06-.54-.08-1.1-.45-1.52-.25-.29-.78-.06-.76,.32Z"/>
      <path class="cls-1" d="M2.5,188.5c-.5,.86-.3,1.77,.2,2.55,.01,.02,.04,0,.03-.02-.31-.71,.04-1.44,.55-1.93,.52-.5-.41-1.24-.78-.6Z"/>
      <path class="cls-1" d="M4.91,202.85c-.33,0-.53,.31-.48,.62,0,.03,.01,.05,.02,.08,.09,.46,.83,.46,.92,0,0-.03,.01-.05,.02-.08,.06-.31-.14-.62-.48-.62Z"/>
      <path class="cls-1" d="M4.35,184c-.08,.08-.03,.25,.1,.24,.43-.03,.86-.02,1.28,.08,.42,.1,.85,.1,1.28,.19,1.26,.26,1.52-1.7,.23-1.74-.59-.02-1.15,0-1.68,.29-.45,.25-.86,.57-1.22,.93Z"/>
      <path class="cls-1" d="M13.79,206.23c-.4-1.05-.74-2.13-1.24-3.14-.39-.79-1.68-.03-1.18,.69,.64,.92,1.43,1.74,2.16,2.6,.1,.12,.32,0,.27-.15Z"/>
      <path class="cls-1" d="M14.67,205.68c-.1-.48-.14-.96-.18-1.45-.03-.45,.03-.91-.02-1.35-.09-.72-1.1-.75-1.14,0-.06,1.01,.49,2.1,1.02,2.93,.11,.17,.36,.06,.32-.13Z"/>
      <path class="cls-1" d="M15.6,202.53c-.29,.92-.35,2.15,.08,3.02,.04,.09,.18,.06,.2-.03,.14-.44,.18-.9,.31-1.35,.13-.47,.33-.89,.51-1.34,.27-.67-.88-1.02-1.1-.3Z"/>
      <path class="cls-1" d="M17.78,202.65c-.38,.83-.67,1.87-.4,2.78,.06,.2,.3,.16,.37,0,.32-.77,.55-1.5,1.01-2.21,.41-.62-.68-1.23-.98-.57Z"/>
      <path class="cls-1" d="M20.11,203.17c-.55,.79-1.03,1.82-.82,2.81,.02,.08,.13,.11,.19,.05,.59-.65,1-1.46,1.58-2.13,.57-.65-.45-1.45-.94-.73Z"/>
      <path class="cls-1" d="M21.71,206.84c.44-.69,.99-1.29,1.68-1.74,.88-.59-.25-1.8-.83-1.07-.62,.78-1.08,1.64-1.32,2.62-.07,.29,.32,.45,.48,.2Z"/>
      <path class="cls-1" d="M11.65,213.75s0,.04,.02,.03c1-.53,1.88-1.24,2.14-2.39,.21-.89,.06-2.29-.97-2.57-.37-.1-.69,.24-.61,.61,.16,.68,.73,1.1,.76,1.85,.05,.99-.57,1.92-1.34,2.47Z"/>
      <path class="cls-1" d="M6.48,215.24c.73,.06,.67-1.22-.14-1.05-.55,.12-1.2,.15-1.71-.13-.01,0-.03,0-.02,.02,.22,.3,.4,.56,.72,.77,.35,.22,.74,.35,1.15,.39Z"/>
      <path class="cls-1" d="M10.4,217.97c-1.89-.79-4.85-.65-6.46,.71-.14,.12-.18,.34-.14,.51,.02,.06,.03,.13,.05,.19,.03,.11,.13,.18,.25,.19,.26,.01,.37-.02,.58-.14,.6-.33,.94-.77,1.65-1.02,1.25-.44,2.77-.81,4.06-.41,.02,0,.03-.02,0-.03Z"/>
      <path class="cls-1" d="M4.25,26.57c-.39,.24-.82,.42-1.22,.63-.4,.22-.8,.46-1.22,.64-.42,.18-.43,.81-.14,1.1,.31,.31,.88,.25,1.1-.14,.2-.36,.47-.7,.71-1.04,.27-.38,.5-.8,.79-1.17,.01-.01,0-.04-.02-.03Z"/>
      <path class="cls-1" d="M1.45,26.79c.84-.29,1.75-.55,2.62-.74,.02,0,.02-.03,0-.03-.86-.14-1.78-.34-2.62-.58-1.18-.34-1.07,1.72,0,1.35Z"/>
      <path class="cls-1" d="M1.52,23.33c-.32,.41-.09,.93,.36,1.1,.4,.15,.79,.36,1.18,.54,.39,.18,.81,.33,1.19,.53,.02,0,.03-.01,.02-.03-.29-.33-.53-.7-.8-1.04-.27-.34-.57-.67-.8-1.03-.27-.41-.85-.47-1.15-.07Z"/>
      <path class="cls-1" d="M3.6,22.82c.42,.75,.82,1.6,1.16,2.39,0,.02,.03,.02,.03,0-.01-.9,.02-1.85,.12-2.74,.11-1.09-1.92-.74-1.3,.35Z"/>
      <path class="cls-1" d="M6,22.66c-.08,.45-.22,.89-.34,1.32-.12,.44-.19,.89-.33,1.32,0,.02,.02,.03,.03,.02,.28-.35,.61-.66,.91-.99,.3-.33,.58-.69,.9-.99,.89-.84-.97-1.79-1.17-.68Z"/>
      <path class="cls-1" d="M5.72,25.78c.83-.16,1.75-.3,2.6-.35,1.27-.08,.52-2.03-.49-1.19-.65,.54-1.4,1.07-2.12,1.52-.02,.01,0,.03,.01,.03Z"/>
      <path class="cls-1" d="M8.37,26.52c-.86,0-1.8-.08-2.65-.2-.02,0-.03,.02-.01,.03,.78,.43,1.6,.95,2.31,1.47,.89,.65,1.6-1.3,.35-1.3Z"/>
      <path class="cls-1" d="M6.13,29.35c.28,1.18,2.04,.05,1.17-.68-.35-.29-.65-.63-.98-.95-.32-.32-.68-.61-.98-.95-.01-.01-.03,0-.03,.02,.16,.42,.26,.86,.4,1.28,.14,.42,.31,.85,.41,1.28Z"/>
      <path class="cls-1" d="M5.03,29.46c-.13-.83-.21-1.74-.25-2.59,0-.02-.03-.02-.03,0-.28,.8-.62,1.66-.99,2.42-.55,1.15,1.49,1.47,1.28,.17Z"/>
      <path class="cls-1" d="M.94,52.29c1.3,.92,3.09,.39,4.06-.74,2.3-2.66-.05-4.94-2.13-7.04,1.1,.35,2.38,.14,3.36-.8,.26-.25,.34-.63,.26-.97-.03-.11-.05-.21-.08-.32-.09-.34-.5-.59-.84-.48-1.26,.42-2.44,2.01-3.6,.21-1.01-1.57,.15-4.23,.95-5.63,1-1.75,3.49-3.59,2.83-5.83,0-.02-.03-.01-.03,0-.14,2.35-2.63,3.99-3.77,5.91-.89,1.49-1.53,3.28-1.35,5.05,.1,.97,.57,1.74,1.21,2.26,.9,1.28,2.02,2.43,2.5,3.94,.28,.88,.23,1.74-.37,2.45-.22,.34-.54,.56-.95,.68-.99-.3-1.28-.65-.85-1.08-.05-.43,.34-.74-.14-1.12-.38-.29-.94-.4-1.3,0-.94,1.04-.95,2.62,.26,3.48Z"/>
      <path class="cls-1" d="M2.51,6.76c-1.78,1.39-2.15,3.85-.35,5.45,2.57,2.3,6.95,1.27,10.2,.15,1.12-3.25,2.15-7.63-.15-10.2-1.6-1.8-4.06-1.43-5.45,.35-.26-.19-.53-.36-.81-.52C4.52,1.18,2.2,.1,.5,.5,.1,2.2,1.18,4.52,1.99,5.95c.16,.28,.33,.55,.52,.81Zm5.88-3.11c.82-1.19,2.23-.84,2.99,.2,1.61,2.2,1.3,5.5,.75,8.28-2.77,.55-6.08,.86-8.28-.75-1.04-.76-1.39-2.17-.2-2.99,.07-.05,.13-.1,.18-.16,.42,.37,.88,.71,1.37,.99,1.51,.88,3.36,1.32,5.11,1.1,.22-1.75-.22-3.6-1.1-5.11-.28-.49-.62-.95-.99-1.37,.06-.05,.11-.11,.16-.18ZM2.61,2.36c.9,.2,1.79,.47,2.62,.87,1.24,.6,2.37,1.4,3.21,2.49,.95,1.22,1.55,2.79,1.65,4.36-1.57-.1-3.14-.7-4.36-1.65-1.09-.85-1.89-1.98-2.49-3.21-.4-.83-.68-1.72-.87-2.62-.02-.1-.04-.2-.06-.3,.1,.02,.2,.04,.3,.06Z"/>
      <path class="cls-1" d="M3.16,20.97c.55-.64,1.36-.85,2.17-.77,.75,.07,.77-1.21,0-1.18-1.12,.05-2.01,.81-2.25,1.9,0,.04,.05,.08,.08,.05Z"/>
      <path class="cls-1" d="M4.92,17.4c-.82,.35-1.29,.91-1.68,1.69,0,.02,.01,.04,.03,.02,.61-.75,2.1-1.31,3.04-.84,.24,.26,.68,.31,.93-.08,.01-.02,.02-.04,.04-.06,.1-.17,.12-.44,0-.61-.49-.68-1.69-.4-2.35-.12Z"/>
      <path class="cls-1" d="M.98,18.55c.21,.24,.35,.5,.43,.81,.02,.09,.16,.09,.18,0,.15-.71,0-1.74-.68-2.15-.5-.3-.96,.37-.6,.77,.2,.22,.46,.34,.66,.56Z"/>
      <path class="cls-1" d="M2.33,17.13c.42-1.08,.28-2.15-.4-3.08-.53-.73-1.53,.18-.92,.71,.67,.59,1.18,1.48,1.3,2.37,0,.02,.02,.02,.03,0Z"/>
      <path class="cls-1" d="M3.37,15.79s.06,.04,.08,.02c.4-.4,.57-1.15,.7-1.68,.21-.91-1.28-.78-1.01,0,.1,.29,.17,.58,.2,.89,.02,.26-.01,.52,.03,.77Z"/>
      <path class="cls-1" d="M5.27,30.96s0-.07-.04-.05c-.65,.4-1.3,.51-2.04,.34-.87-.2-.87,1.24,0,1.04,.81-.18,1.57-.69,2.08-1.34Z"/>
      <path class="cls-1" d="M4.31,32.79s0-.03-.02-.02c-.5,.27-1.03,.47-1.59,.55-.45,.07-.92-.08-1.2,.35-.08,.12-.05,.31,.05,.4,.02,.02,.05,.05,.07,.07,.12,.11,.29,.17,.45,.12,.87-.3,1.63-.78,2.25-1.47Z"/>
      <path class="cls-1" d="M1.4,36.32c.11-.27,.28-.51,.46-.73,.19-.23,.34-.47,.55-.68,.02-.02,0-.06-.03-.05-.33,.06-.68,.15-.94,.36-.29,.23-.53,.5-.74,.81-.3,.44,.47,.82,.7,.29Z"/>
      <path class="cls-1" d="M6.9,33.72c.18,.31,.78,.3,.84-.11,.08-.53-.17-1-.4-1.46-.24-.5-.53-.87-.93-1.26-.06-.06-.15,0-.13,.08,.11,.46,.22,.93,.32,1.4,.1,.45,.07,.95,.3,1.36Z"/>
      <path class="cls-1" d="M5.73,33.32c.01,.54-.03,1.07-.16,1.6-.11,.44-.35,.82-.09,1.24,.1,.16,.35,.26,.52,.14,.48-.34,.38-.84,.3-1.37-.09-.56-.25-1.1-.48-1.62-.02-.04-.09-.02-.09,.02Z"/>
      <path class="cls-1" d="M4.6,35.02c-.21,.53-.38,1.07-.62,1.59-.2,.44-.49,.8-.51,1.29-.02,.38,.51,.6,.76,.32,.37-.42,.39-.98,.45-1.52,.06-.56,.06-1.12-.05-1.67,0-.02-.03-.01-.03,0Z"/>
      <path class="cls-1" d="M2.71,38.24c-.51,.78-.71,1.7-.2,2.55,.37,.63,1.3-.11,.78-.6-.51-.49-.85-1.23-.55-1.93,0-.02-.02-.04-.03-.02Z"/>
      <path class="cls-1" d="M5.39,25.81s-.01-.05-.02-.08c-.09-.46-.83-.46-.92,0,0,.03-.01,.05-.02,.08-.06,.31,.14,.62,.48,.62s.53-.31,.48-.62Z"/>
      <path class="cls-1" d="M4.46,45.04c-.13,0-.18,.16-.1,.24,.36,.37,.77,.69,1.22,.93,.52,.28,1.09,.31,1.68,.29,1.29-.04,1.03-1.99-.23-1.74-.43,.09-.85,.09-1.28,.19-.43,.1-.85,.11-1.28,.08Z"/>
      <path class="cls-1" d="M12.55,26.2c.5-1,.84-2.09,1.24-3.14,.06-.15-.17-.27-.27-.15-.73,.86-1.52,1.68-2.16,2.6-.5,.72,.79,1.48,1.18,.69Z"/>
      <path class="cls-1" d="M14.35,23.47c-.53,.83-1.09,1.92-1.02,2.93,.05,.75,1.05,.72,1.14,0,.06-.44,0-.9,.02-1.35,.03-.49,.08-.97,.18-1.45,.04-.19-.21-.3-.32-.13Z"/>
      <path class="cls-1" d="M16.7,26.46c-.18-.45-.38-.87-.51-1.34-.12-.45-.17-.9-.31-1.35-.03-.09-.16-.12-.2-.03-.43,.87-.37,2.1-.08,3.02,.23,.71,1.37,.37,1.1-.3Z"/>
      <path class="cls-1" d="M18.76,26.07c-.46-.71-.69-1.44-1.01-2.21-.07-.16-.31-.2-.37,0-.27,.91,.01,1.95,.4,2.78,.3,.66,1.39,.05,.98-.57Z"/>
      <path class="cls-1" d="M21.05,25.39c-.58-.67-.99-1.48-1.58-2.13-.05-.06-.17-.03-.19,.05-.21,.98,.28,2.01,.82,2.81,.5,.72,1.51-.08,.94-.73Z"/>
      <path class="cls-1" d="M21.23,22.65c.25,.97,.7,1.83,1.32,2.62,.58,.73,1.71-.49,.83-1.07-.68-.46-1.24-1.05-1.68-1.74-.16-.25-.55-.09-.48,.2Z"/>
      <path class="cls-1" d="M12.84,20.47c1.03-.28,1.18-1.68,.97-2.57-.27-1.16-1.15-1.86-2.14-2.39-.02-.01-.03,.02-.02,.03,.77,.56,1.39,1.49,1.34,2.47-.04,.75-.61,1.18-.76,1.85-.08,.36,.23,.71,.61,.61Z"/>
      <path class="cls-1" d="M6.34,15.1c.81,.17,.87-1.11,.14-1.05-.41,.04-.8,.17-1.15,.39-.32,.21-.5,.47-.72,.77-.01,.01,0,.03,.02,.02,.51-.28,1.16-.25,1.71-.13Z"/>
      <path class="cls-1" d="M6.33,10.88c-.71-.25-1.05-.68-1.65-1.02-.22-.12-.32-.16-.58-.14-.11,0-.22,.07-.25,.19-.02,.06-.03,.13-.05,.19-.04,.17,0,.39,.14,.51,1.61,1.36,4.57,1.5,6.46,.71,.02,0,.01-.04,0-.03-1.29,.4-2.81,.03-4.06-.41Z"/>
      <path class="cls-1" d="M147.4,225.02c-.36,.29-.78,.52-1.17,.79-.34,.24-.68,.5-1.04,.71-.39,.22-.46,.78-.14,1.1,.29,.29,.92,.28,1.1-.14,.18-.42,.42-.82,.64-1.22,.22-.4,.39-.83,.63-1.22,.01-.02-.01-.03-.03-.02Z"/>
      <path class="cls-1" d="M147.98,225.22s-.03-.02-.03,0c-.19,.87-.45,1.78-.74,2.62-.37,1.07,1.69,1.18,1.35,0-.24-.84-.44-1.76-.58-2.62Z"/>
      <path class="cls-1" d="M150.6,226.61c-.36-.24-.69-.53-1.03-.8-.34-.27-.72-.51-1.04-.8-.01-.01-.04,0-.03,.02,.21,.38,.35,.8,.53,1.19,.18,.39,.4,.78,.54,1.18,.16,.46,.69,.68,1.1,.36,.4-.31,.34-.89-.07-1.15Z"/>
      <path class="cls-1" d="M151.53,224.38c-.89,.09-1.85,.13-2.74,.12-.02,0-.02,.03,0,.03,.8,.33,1.64,.73,2.39,1.16,1.1,.62,1.44-1.41,.35-1.3Z"/>
      <path class="cls-1" d="M150.01,223.63c.44-.12,.88-.26,1.32-.34,1.11-.2,.16-2.06-.68-1.17-.31,.32-.66,.61-.99,.9-.33,.3-.64,.63-.99,.91-.01,.01,0,.03,.02,.03,.43-.14,.89-.22,1.32-.33Z"/>
      <path class="cls-1" d="M148.57,220.97c-.06,.85-.19,1.77-.35,2.6,0,.02,.02,.03,.03,.01,.45-.71,.98-1.47,1.52-2.12,.84-1.02-1.11-1.76-1.19-.49Z"/>
      <path class="cls-1" d="M147.67,223.58c-.12-.85-.19-1.79-.2-2.65,0-1.25-1.96-.54-1.3,.35,.52,.72,1.04,1.54,1.47,2.31,.01,.02,.03,0,.03-.01Z"/>
      <path class="cls-1" d="M144.65,223.16c.43,.1,.86,.27,1.28,.41,.42,.14,.87,.24,1.28,.4,.02,0,.03-.02,.02-.03-.34-.3-.63-.66-.95-.98-.32-.32-.66-.63-.95-.98-.73-.87-1.86,.89-.68,1.17Z"/>
      <path class="cls-1" d="M147.12,224.51c-.84-.04-1.75-.12-2.59-.25-1.3-.21-.98,1.83,.17,1.28,.77-.37,1.62-.71,2.42-.99,.02,0,.02-.03,0-.03Z"/>
      <path class="cls-1" d="M137.47,226.37c-1.39,.8-4.05,1.96-5.63,.95-1.79-1.16-.21-2.33,.21-3.6,.12-.34-.13-.75-.48-.84-.11-.03-.21-.05-.32-.08-.34-.09-.72,0-.97,.26-.94,.98-1.15,2.26-.8,3.36-2.1-2.07-4.38-4.43-7.04-2.13-1.13,.98-1.66,2.77-.74,4.06,.86,1.21,2.44,1.2,3.48,.26,.4-.36,.29-.93,0-1.3-.38-.48-.69-.09-1.12-.14-.42,.43-.78,.14-1.08-.85,.12-.41,.35-.72,.68-.95,.72-.61,1.58-.65,2.45-.37,1.51,.48,2.66,1.59,3.94,2.5,.52,.65,1.29,1.11,2.26,1.21,1.76,.18,3.55-.46,5.05-1.35,1.92-1.15,3.56-3.64,5.91-3.77,.02,0,.02-.03,0-.03-2.24-.66-4.08,1.83-5.83,2.83Z"/>
      <path class="cls-1" d="M154.98,223.95c.03-.77-1.25-.75-1.18,0,.08,.82-.13,1.63-.77,2.17-.04,.03,0,.09,.05,.08,1.1-.25,1.85-1.14,1.9-2.25Z"/>
      <path class="cls-1" d="M154.89,226.02s0,.03,.02,.03c.78-.4,1.34-.86,1.69-1.68,.28-.66,.57-1.86-.12-2.35-.17-.12-.44-.1-.61,0-.02,.01-.04,.02-.06,.04-.39,.24-.35,.69-.08,.93,.47,.95-.09,2.44-.84,3.04Z"/>
      <path class="cls-1" d="M154.64,227.69c-.09,.02-.09,.16,0,.18,.3,.08,.57,.22,.81,.43,.22,.2,.35,.46,.56,.66,.4,.37,1.07-.1,.77-.6-.4-.68-1.44-.83-2.15-.68Z"/>
      <path class="cls-1" d="M159.95,227.36c-.94-.68-2-.82-3.08-.4-.02,0-.01,.03,0,.03,.89,.12,1.78,.62,2.37,1.3,.53,.61,1.44-.4,.71-.92Z"/>
      <path class="cls-1" d="M159.87,225.14c-.53,.12-1.29,.3-1.68,.7-.02,.02-.02,.07,.02,.08,.25,.05,.51,.01,.77,.03,.31,.03,.6,.1,.89,.2,.78,.27,.91-1.22,0-1.01Z"/>
      <path class="cls-1" d="M143.04,224.02c-.65,.51-1.16,1.27-1.34,2.08-.19,.87,1.24,.87,1.04,0-.17-.74-.06-1.39,.34-2.04,.02-.03-.02-.06-.05-.04Z"/>
      <path class="cls-1" d="M141.21,224.98c-.69,.61-1.17,1.37-1.47,2.25-.05,.16,.01,.33,.12,.45l.07,.07c.1,.1,.28,.13,.4,.05,.43-.28,.29-.75,.35-1.2,.08-.56,.28-1.1,.55-1.59,0-.02-.01-.03-.02-.02Z"/>
      <path class="cls-1" d="M139.09,226.88c-.21,.21-.45,.36-.68,.55-.22,.19-.47,.35-.73,.46-.53,.22-.14,1,.29,.7,.3-.21,.58-.45,.81-.74,.21-.27,.3-.61,.36-.94,0-.03-.03-.06-.05-.03Z"/>
      <path class="cls-1" d="M143.03,223.01c.08,.02,.13-.07,.08-.13-.38-.4-.76-.68-1.26-.93-.47-.23-.94-.48-1.46-.4-.41,.06-.42,.66-.11,.84,.4,.24,.91,.2,1.36,.3,.47,.1,.93,.21,1.4,.32Z"/>
      <path class="cls-1" d="M140.68,223.55s.07-.07,.02-.09c-.52-.23-1.06-.4-1.62-.48-.53-.08-1.03-.18-1.37,.3-.12,.17-.02,.42,.14,.52,.42,.26,.8,.02,1.24-.09,.53-.13,1.06-.17,1.6-.16Z"/>
      <path class="cls-1" d="M137.31,224.6c-.54,.06-1.1,.08-1.52,.45-.29,.25-.06,.78,.32,.76,.49-.02,.85-.31,1.29-.51,.52-.24,1.06-.41,1.59-.62,.01,0,.02-.03,0-.03-.56-.11-1.11-.11-1.67-.05Z"/>
      <path class="cls-1" d="M133.21,226.79c.86,.5,1.77,.3,2.55-.2,.02-.01,0-.04-.02-.03-.71,.31-1.44-.04-1.93-.55-.5-.52-1.24,.41-.6,.78Z"/>
      <path class="cls-1" d="M148.19,224.85s.05-.01,.08-.02c.46-.09,.46-.83,0-.92-.03,0-.05-.01-.08-.02-.31-.06-.62,.14-.62,.48s.31,.53,.62,.48Z"/>
      <path class="cls-1" d="M127.78,223.71c.25,.45,.57,.86,.93,1.22,.08,.08,.25,.03,.24-.1-.03-.43-.02-.86,.08-1.28,.1-.42,.1-.85,.19-1.28,.26-1.26-1.7-1.52-1.74-.23-.02,.59,0,1.15,.29,1.68Z"/>
      <path class="cls-1" d="M158.32,223.89c.27-.77,.47-1.68,.49-2.57,.7-2.81,1.57-6.1-1.37-7.81-.59-.34-1.2-.5-1.8-.53,.15-.29,.41-.6,.62-.85,.09-.11,.19-.21,.29-.31,.1-.1,.2-.2,.31-.29,.25-.21,.56-.47,.85-.62,.02,.6,.19,1.21,.53,1.8,1.7,2.94,5,2.07,7.81,1.37,.89-.02,1.8-.22,2.57-.49,2.13-.75,3.65-2.43,3.44-4.75,0-.02-.03-.02-.03,0,.08,2.39-1.95,3.9-4.11,4.33-.86,.17-2.03,.31-2.89,0-1.02-.35-1.56-1.05-1.62-2.08-.05-1.15,.51-1.6,1.69-1.33-.3,.28,0,.88,.42,.72,1.38-.55,.81-2.31-.6-2.34-2-.03-3.03,2.59-2.26,4.18,.57,1.17,1.64,1.65,2.81,1.74-2.08,.34-4.44,.53-5.78-.97-1.76-1.97-.6-4.83,1.84-5.38,.74-.17,.42-1.31-.31-1.13-.32,.08-.63,.19-.92,.32-1.52-.95-3.29-1.21-5.1-.64-.82,.26-1.86,.8-2.7,1.5-.7,.84-1.24,1.88-1.5,2.7-.57,1.81-.31,3.58,.64,5.1-.14,.29-.25,.6-.32,.92-.17,.74,.97,1.05,1.13,.31,.56-2.45,3.42-3.6,5.38-1.84,1.5,1.34,1.31,3.7,.97,5.78-.1-1.17-.58-2.24-1.74-2.81-1.59-.78-4.21,.26-4.18,2.26,.02,1.4,1.79,1.98,2.34,.6,.16-.41-.44-.71-.72-.42-.27-1.17,.18-1.74,1.33-1.69,1.04,.06,1.73,.6,2.08,1.62,.3,.86,.16,2.03,0,2.89-.43,2.16-1.94,4.19-4.33,4.11-.02,0-.02,.03,0,.03,2.33,.21,4.01-1.31,4.75-3.44Zm-6.47-8.74c-.56-1.63-.54-3.43,.28-5,.3-.58,.68-1.12,1.12-1.61,.49-.44,1.04-.82,1.61-1.12,1.57-.82,3.37-.85,5-.28-.24,.14-.46,.31-.67,.49-1.02-.26-1.95-.4-3.03-.02-.88,.31-1.67,.85-2.4,1.44-.59,.73-1.12,1.52-1.44,2.4-.39,1.08-.24,2.01,.02,3.03-.18,.21-.35,.43-.49,.67Zm.61-.81c-.06-.87-.04-1.78,.24-2.58,.3-.88,.87-1.61,1.45-2.32,.71-.58,1.44-1.15,2.32-1.45,.8-.28,1.72-.3,2.58-.24-.26,.25-.49,.52-.68,.82-1.22-.21-2.69,.57-3.74,1.35-.78,1.06-1.56,2.53-1.35,3.74-.3,.19-.57,.42-.82,.68Zm.95-.76c.07-.72,.54-1.59,.81-2.1,.23-.42,.5-.81,.8-1.18,.37-.3,.75-.57,1.18-.8,.5-.27,1.37-.73,2.1-.81-.19,.32-.34,.66-.44,1.01-.82,.21-1.72,.49-2.38,1.05-.55,.66-.84,1.56-1.05,2.38-.35,.1-.69,.25-1.01,.44Zm1.06-.46c.15-.49,.42-.96,.73-1.36,.19-.24,.4-.44,.63-.64,.2-.22,.4-.44,.64-.63,.4-.31,.87-.58,1.36-.73-.1,.36-.15,.74-.13,1.12-.36,.11-.69,.16-1.03,.34-.16,.08-.31,.18-.45,.28-.1,.15-.2,.3-.28,.45-.18,.34-.23,.67-.34,1.03-.38-.01-.76,.04-1.12,.13Z"/>
      <path class="cls-1" d="M150.94,215.5c-1.05,.4-2.13,.74-3.14,1.24-.79,.39-.03,1.68,.69,1.18,.92-.64,1.74-1.43,2.6-2.16,.12-.1,0-.32-.15-.27Z"/>
      <path class="cls-1" d="M150.39,214.62c-.48,.1-.96,.14-1.45,.18-.45,.03-.91-.03-1.35,.02-.72,.09-.75,1.1,0,1.14,1.01,.06,2.1-.49,2.93-1.02,.17-.11,.06-.36-.13-.32Z"/>
      <path class="cls-1" d="M147.24,213.69c.92,.29,2.15,.35,3.02-.08,.09-.04,.06-.18-.03-.2-.44-.14-.9-.18-1.35-.31-.47-.13-.89-.33-1.34-.51-.67-.27-1.02,.88-.3,1.1Z"/>
      <path class="cls-1" d="M150.14,211.54c-.77-.32-1.5-.55-2.21-1.01-.62-.41-1.23,.68-.57,.98,.83,.38,1.87,.67,2.78,.4,.2-.06,.16-.3,0-.37Z"/>
      <path class="cls-1" d="M150.74,209.82c-.65-.59-1.46-1-2.13-1.58-.65-.57-1.45,.45-.73,.94,.79,.55,1.82,1.03,2.81,.82,.08-.02,.11-.13,.05-.19Z"/>
      <path class="cls-1" d="M151.55,207.58c-.69-.44-1.29-.99-1.74-1.68-.59-.88-1.8,.25-1.07,.83,.78,.62,1.64,1.08,2.62,1.32,.29,.07,.45-.32,.2-.48Z"/>
      <path class="cls-1" d="M154.13,217.06c.68-.16,1.1-.73,1.85-.76,.99-.05,1.92,.57,2.47,1.34,.01,.02,.04,0,.03-.02-.53-1-1.24-1.88-2.39-2.14-.89-.21-2.29-.06-2.57,.97-.1,.37,.24,.69,.61,.61Z"/>
      <path class="cls-1" d="M158.79,224.68c.3-.22,.56-.4,.77-.72,.22-.35,.35-.74,.39-1.15,.06-.73-1.22-.67-1.05,.14,.12,.55,.15,1.2-.13,1.71,0,.01,0,.03,.02,.02Z"/>
      <path class="cls-1" d="M163.12,222.96c-.44-1.25-.81-2.77-.41-4.06,0-.02-.02-.03-.03,0-.79,1.89-.65,4.85,.71,6.46,.12,.14,.34,.18,.51,.14,.06-.02,.13-.03,.19-.05,.11-.03,.18-.13,.19-.25,.01-.26-.02-.37-.14-.58-.33-.6-.77-.94-1.02-1.65Z"/>
      <path class="cls-1" d="M28.8,226.52c-.36-.2-.7-.47-1.04-.71-.38-.27-.8-.5-1.17-.79-.01-.01-.04,0-.03,.02,.24,.39,.42,.82,.63,1.22,.22,.4,.46,.8,.64,1.22,.18,.42,.81,.43,1.1,.14,.31-.31,.25-.88-.14-1.1Z"/>
      <path class="cls-1" d="M26.05,225.22s-.03-.02-.03,0c-.14,.86-.34,1.78-.58,2.62-.34,1.18,1.72,1.07,1.35,0-.29-.84-.55-1.75-.74-2.62Z"/>
      <path class="cls-1" d="M25.48,225.01c-.33,.29-.7,.53-1.04,.8-.34,.27-.67,.57-1.03,.8-.41,.27-.47,.85-.07,1.15,.41,.32,.93,.09,1.1-.36,.15-.4,.36-.79,.54-1.18,.18-.39,.33-.81,.53-1.19,0-.02-.01-.03-.03-.02Z"/>
      <path class="cls-1" d="M25.21,224.5c-.9,.01-1.85-.02-2.74-.12-1.09-.11-.74,1.92,.35,1.3,.75-.42,1.6-.82,2.39-1.16,.02,0,.02-.03,0-.03Z"/>
      <path class="cls-1" d="M22.66,223.29c.45,.08,.89,.22,1.32,.34,.44,.12,.89,.19,1.32,.33,.02,0,.03-.02,.02-.03-.35-.28-.66-.61-.99-.91-.33-.3-.69-.58-.99-.9-.84-.89-1.79,.97-.68,1.17Z"/>
      <path class="cls-1" d="M25.78,223.57c-.16-.83-.3-1.75-.35-2.6-.08-1.27-2.03-.52-1.19,.49,.54,.65,1.07,1.4,1.52,2.12,.01,.02,.03,0,.03-.01Z"/>
      <path class="cls-1" d="M26.52,220.92c0,.86-.08,1.8-.2,2.65,0,.02,.02,.03,.03,.01,.43-.78,.95-1.6,1.47-2.31,.65-.89-1.3-1.6-1.3-.35Z"/>
      <path class="cls-1" d="M28.07,223.57c.42-.14,.85-.31,1.28-.41,1.18-.28,.05-2.04-.68-1.17-.29,.35-.63,.65-.95,.98-.32,.32-.61,.68-.95,.98-.01,.01,0,.03,.02,.03,.42-.16,.86-.26,1.28-.4Z"/>
      <path class="cls-1" d="M29.46,224.26c-.83,.13-1.74,.21-2.59,.25-.02,0-.02,.03,0,.03,.8,.28,1.66,.62,2.42,.99,1.15,.55,1.47-1.49,.17-1.28Z"/>
      <path class="cls-1" d="M51.55,224.29c-2.66-2.3-4.94,.05-7.04,2.13,.35-1.1,.14-2.38-.8-3.36-.25-.26-.63-.34-.97-.26-.11,.03-.21,.05-.32,.08-.34,.09-.59,.5-.48,.84,.42,1.26,2.01,2.44,.21,3.6-1.57,1.01-4.23-.15-5.63-.95-1.75-1-3.59-3.49-5.83-2.83-.02,0-.01,.03,0,.03,2.35,.14,3.99,2.63,5.91,3.77,1.49,.89,3.28,1.53,5.05,1.35,.97-.1,1.74-.57,2.26-1.21,1.28-.9,2.43-2.02,3.94-2.5,.88-.28,1.74-.23,2.45,.37,.34,.22,.56,.54,.68,.95-.3,.99-.65,1.28-1.08,.85-.43,.05-.74-.34-1.12,.14-.29,.38-.4,.94,0,1.3,1.04,.94,2.62,.95,3.48-.26,.92-1.3,.39-3.09-.74-4.06Z"/>
      <path class="cls-1" d="M12.36,216.93c-3.25-1.12-7.63-2.15-10.2,.15-1.8,1.6-1.43,4.06,.35,5.45-.19,.26-.36,.53-.52,.81-.81,1.44-1.89,3.75-1.49,5.46,1.7,.4,4.02-.68,5.46-1.49,.28-.16,.55-.33,.81-.52,1.39,1.78,3.85,2.15,5.45,.35,2.3-2.57,1.27-6.95,.15-10.2Zm-7.14,9.13c-.83,.4-1.72,.68-2.62,.87-.1,.02-.2,.04-.3,.06,.02-.1,.04-.2,.06-.3,.2-.9,.47-1.79,.87-2.62,.6-1.24,1.4-2.37,2.49-3.21,1.22-.95,2.79-1.55,4.36-1.65-.1,1.57-.7,3.14-1.65,4.36-.85,1.09-1.98,1.89-3.21,2.49Zm6.15-.61c-.76,1.04-2.17,1.39-2.99,.2-.05-.07-.1-.13-.16-.18,.37-.42,.71-.88,.99-1.37,.88-1.51,1.32-3.36,1.1-5.11-1.75-.22-3.6,.22-5.11,1.1-.49,.28-.95,.62-1.37,.99-.05-.06-.11-.11-.18-.16-1.19-.82-.84-2.23,.2-2.99,2.2-1.61,5.5-1.3,8.28-.75,.55,2.77,.86,6.08-.75,8.28Z"/>
      <path class="cls-1" d="M20.2,223.95c.07-.75-1.21-.77-1.18,0,.05,1.12,.81,2.01,1.9,2.25,.04,0,.08-.05,.05-.08-.64-.55-.85-1.36-.77-2.17Z"/>
      <path class="cls-1" d="M18.19,222.05s-.04-.02-.06-.04c-.17-.1-.44-.12-.61,0-.68,.49-.4,1.69-.12,2.35,.35,.82,.91,1.29,1.69,1.68,.02,0,.04-.01,.02-.03-.75-.61-1.31-2.1-.84-3.04,.26-.24,.31-.68-.08-.93Z"/>
      <path class="cls-1" d="M19.36,227.69c-.71-.15-1.74,0-2.15,.68-.3,.5,.37,.96,.77,.6,.22-.2,.34-.46,.56-.66,.24-.21,.5-.35,.81-.43,.09-.02,.09-.16,0-.18Z"/>
      <path class="cls-1" d="M17.13,226.96c-1.08-.42-2.15-.28-3.08,.4-.73,.53,.18,1.53,.71,.92,.59-.67,1.48-1.18,2.37-1.3,.02,0,.02-.02,0-.03Z"/>
      <path class="cls-1" d="M14.13,226.15c.29-.1,.58-.17,.89-.2,.26-.02,.52,.01,.77-.03,.04,0,.04-.06,.02-.08-.4-.4-1.15-.57-1.68-.7-.91-.21-.78,1.28,0,1.01Z"/>
      <path class="cls-1" d="M30.96,224.02s-.07,0-.05,.04c.4,.65,.51,1.3,.34,2.04-.2,.87,1.24,.87,1.04,0-.18-.81-.69-1.57-1.34-2.08Z"/>
      <path class="cls-1" d="M32.79,224.98s-.03,0-.02,.02c.27,.5,.47,1.03,.55,1.59,.07,.45-.08,.92,.35,1.2,.12,.08,.31,.05,.4-.05l.07-.07c.11-.12,.17-.29,.12-.45-.3-.87-.78-1.63-1.47-2.25Z"/>
      <path class="cls-1" d="M36.32,227.89c-.27-.11-.51-.28-.73-.46-.23-.19-.47-.34-.68-.55-.02-.02-.06,0-.05,.03,.06,.33,.15,.68,.36,.94,.23,.29,.5,.53,.81,.74,.44,.3,.82-.47,.29-.7Z"/>
      <path class="cls-1" d="M30.97,223.01c.46-.11,.93-.22,1.4-.32,.45-.1,.95-.07,1.36-.3,.31-.18,.3-.78-.11-.84-.53-.08-1,.17-1.46,.4-.5,.24-.87,.53-1.26,.93-.06,.06,0,.15,.08,.13Z"/>
      <path class="cls-1" d="M36.16,223.8c.16-.1,.26-.35,.14-.52-.34-.48-.84-.38-1.37-.3-.56,.09-1.1,.25-1.62,.48-.04,.02-.02,.09,.02,.09,.54-.01,1.07,.03,1.6,.16,.44,.11,.82,.35,1.24,.09Z"/>
      <path class="cls-1" d="M36.61,225.3c.44,.2,.8,.49,1.29,.51,.38,.02,.6-.51,.32-.76-.42-.37-.98-.39-1.52-.45-.56-.06-1.12-.06-1.67,.05-.02,0-.01,.03,0,.03,.53,.21,1.07,.38,1.59,.62Z"/>
      <path class="cls-1" d="M40.79,226.79c.63-.37-.11-1.3-.6-.78-.49,.51-1.23,.85-1.93,.55-.02,0-.04,.02-.02,.03,.78,.51,1.7,.71,2.55,.2Z"/>
      <path class="cls-1" d="M25.73,224.83s.05,.01,.08,.02c.31,.06,.62-.14,.62-.48s-.31-.53-.62-.48c-.03,0-.05,.01-.08,.02-.46,.09-.46,.83,0,.92Z"/>
      <path class="cls-1" d="M44.77,222.27c.09,.43,.09,.85,.19,1.28,.1,.43,.11,.85,.08,1.28,0,.13,.16,.18,.24,.1,.37-.36,.69-.77,.93-1.22,.28-.52,.31-1.09,.29-1.68-.04-1.29-1.99-1.03-1.74,.23Z"/>
      <path class="cls-1" d="M22.7,216.49c-.08-.32-.19-.63-.32-.92,.95-1.52,1.21-3.29,.64-5.1-.26-.82-.8-1.86-1.5-2.7-.84-.7-1.88-1.24-2.7-1.5-1.81-.57-3.58-.31-5.1,.64-.29-.14-.6-.25-.92-.32-.74-.17-1.05,.97-.31,1.13,2.45,.56,3.6,3.42,1.84,5.38-1.34,1.5-3.7,1.31-5.78,.97,1.17-.1,2.24-.58,2.81-1.74,.78-1.59-.26-4.21-2.26-4.18-1.4,.02-1.98,1.79-.6,2.34,.41,.16,.71-.44,.42-.72,1.17-.27,1.74,.18,1.69,1.33-.06,1.04-.6,1.73-1.62,2.08-.86,.3-2.03,.16-2.89,0-2.16-.43-4.19-1.94-4.11-4.33,0-.02-.03-.02-.03,0-.21,2.33,1.31,4.01,3.44,4.75,.77,.27,1.68,.47,2.57,.49,2.81,.7,6.1,1.57,7.81-1.37,.34-.59,.5-1.2,.53-1.8,.29,.15,.6,.41,.85,.62,.11,.09,.21,.19,.31,.29,.1,.1,.2,.2,.29,.31,.21,.25,.47,.56,.62,.85-.6,.02-1.21,.19-1.8,.53-2.94,1.7-2.07,5-1.37,7.81,.02,.89,.22,1.8,.49,2.57,.75,2.13,2.43,3.65,4.75,3.44,.02,0,.02-.03,0-.03-2.39,.08-3.9-1.95-4.33-4.11-.17-.86-.31-2.03,0-2.89,.35-1.02,1.05-1.56,2.08-1.62,1.15-.05,1.6,.51,1.33,1.69-.28-.3-.88,0-.72,.42,.55,1.38,2.31,.81,2.34-.6,.03-2-2.59-3.03-4.18-2.26-1.17,.57-1.65,1.64-1.74,2.81-.34-2.08-.53-4.44,.97-5.78,1.97-1.76,4.83-.6,5.38,1.84,.17,.74,1.31,.42,1.13-.31Zm-4.3-3.51c-.11-.36-.16-.69-.34-1.03-.08-.16-.18-.31-.28-.45-.15-.1-.3-.2-.45-.28-.34-.18-.67-.23-1.03-.34,.01-.38-.04-.76-.13-1.12,.49,.15,.96,.42,1.36,.73,.24,.19,.44,.4,.64,.63,.22,.2,.44,.4,.63,.64,.31,.4,.58,.87,.73,1.36-.36-.1-.74-.15-1.12-.13Zm1.17,.15c-.21-.82-.49-1.72-1.05-2.38-.66-.55-1.56-.84-2.38-1.05-.1-.35-.25-.69-.44-1.01,.72,.07,1.59,.54,2.1,.81,.42,.23,.81,.5,1.18,.8,.3,.37,.57,.75,.8,1.18,.27,.5,.73,1.37,.81,2.1-.32-.19-.66-.34-1.01-.44Zm1.96,1.21c-.25-.26-.52-.49-.82-.68,.21-1.22-.57-2.69-1.35-3.74-1.06-.78-2.53-1.56-3.74-1.35-.19-.3-.42-.57-.68-.82,.87-.06,1.78-.04,2.58,.24,.88,.3,1.61,.87,2.32,1.45,.58,.71,1.15,1.44,1.45,2.32,.28,.8,.3,1.72,.24,2.58Zm.12,.14c.26-1.02,.4-1.95,.02-3.03-.31-.88-.85-1.67-1.44-2.4-.73-.59-1.52-1.12-2.4-1.44-1.08-.39-2.01-.24-3.03,.02-.21-.18-.43-.35-.67-.49,1.63-.56,3.43-.54,5,.28,.58,.3,1.12,.68,1.61,1.12,.44,.49,.82,1.04,1.12,1.61,.82,1.57,.85,3.37,.28,5-.14-.24-.31-.46-.49-.67Z"/>
      <path class="cls-1" d="M22.9,215.77c.86,.73,1.68,1.52,2.6,2.16,.72,.5,1.48-.79,.69-1.18-1-.5-2.09-.84-3.14-1.24-.15-.06-.27,.17-.15,.27Z"/>
      <path class="cls-1" d="M23.47,214.94c.83,.53,1.92,1.09,2.93,1.02,.75-.05,.72-1.05,0-1.14-.44-.06-.9,0-1.35-.02-.49-.03-.97-.08-1.45-.18-.19-.04-.3,.21-.13,.32Z"/>
      <path class="cls-1" d="M23.74,213.61c.87,.43,2.1,.37,3.02,.08,.71-.23,.37-1.37-.3-1.1-.45,.18-.87,.38-1.34,.51-.45,.12-.9,.17-1.35,.31-.09,.03-.12,.16-.03,.2Z"/>
      <path class="cls-1" d="M26.07,210.52c-.71,.46-1.44,.69-2.21,1.01-.16,.07-.2,.31,0,.37,.91,.27,1.95-.01,2.78-.4,.66-.3,.05-1.39-.57-.98Z"/>
      <path class="cls-1" d="M23.31,210c.98,.21,2.01-.28,2.81-.82,.72-.5-.08-1.51-.73-.94-.67,.58-1.48,.99-2.13,1.58-.06,.05-.03,.17,.05,.19Z"/>
      <path class="cls-1" d="M22.65,208.06c.97-.25,1.83-.7,2.62-1.32,.73-.58-.49-1.71-1.07-.83-.46,.68-1.05,1.24-1.74,1.68-.25,.16-.09,.55,.2,.48Z"/>
      <path class="cls-1" d="M17.9,215.48c-1.16,.27-1.86,1.15-2.39,2.14-.01,.02,.02,.03,.03,.02,.56-.77,1.49-1.39,2.47-1.34,.75,.04,1.18,.61,1.85,.76,.36,.08,.71-.23,.61-.61-.28-1.03-1.68-1.18-2.57-.97Z"/>
      <path class="cls-1" d="M14.05,222.81c.04,.41,.17,.8,.39,1.15,.21,.32,.47,.5,.77,.72,.01,.01,.03,0,.02-.02-.28-.51-.25-1.16-.13-1.71,.17-.81-1.11-.87-1.05-.14Z"/>
      <path class="cls-1" d="M11.29,218.89c.4,1.29,.03,2.81-.41,4.06-.25,.71-.68,1.05-1.02,1.65-.12,.22-.16,.32-.14,.58,0,.11,.07,.22,.19,.25,.06,.02,.13,.03,.19,.05,.17,.04,.39,0,.51-.14,1.36-1.61,1.5-4.57,.71-6.46,0-.02-.04-.01-.03,0Z"/>
      <path class="cls-1" d="M171.23,28.8c.22,.39,.78,.46,1.1,.14,.29-.29,.28-.92-.14-1.1-.42-.18-.82-.42-1.22-.64-.4-.22-.83-.39-1.22-.63-.02-.01-.03,.01-.02,.03,.29,.36,.52,.78,.79,1.17,.24,.34,.5,.68,.71,1.04Z"/>
      <path class="cls-1" d="M172.55,25.44c-.84,.24-1.76,.44-2.62,.58-.02,0-.02,.03,0,.03,.87,.19,1.78,.45,2.62,.74,1.07,.37,1.18-1.69,0-1.35Z"/>
      <path class="cls-1" d="M171.33,23.4c-.24,.36-.53,.69-.8,1.03-.27,.34-.51,.72-.8,1.04-.01,.01,0,.04,.02,.03,.38-.21,.8-.35,1.19-.53,.39-.18,.78-.4,1.18-.54,.46-.16,.68-.69,.36-1.1-.31-.4-.89-.34-1.15,.07Z"/>
      <path class="cls-1" d="M169.24,25.21c.33-.8,.73-1.64,1.16-2.39,.62-1.1-1.41-1.44-1.3-.35,.09,.89,.13,1.85,.12,2.74,0,.02,.03,.02,.03,0Z"/>
      <path class="cls-1" d="M166.83,23.34c.32,.31,.61,.66,.9,.99,.3,.33,.63,.64,.91,.99,.01,.01,.03,0,.03-.02-.14-.43-.22-.89-.33-1.32-.12-.44-.26-.88-.34-1.32-.2-1.11-2.06-.16-1.17,.68Z"/>
      <path class="cls-1" d="M165.68,25.43c.85,.06,1.77,.19,2.6,.35,.02,0,.03-.02,.01-.03-.71-.45-1.47-.98-2.12-1.52-1.02-.84-1.76,1.11-.49,1.19Z"/>
      <path class="cls-1" d="M165.99,27.83c.72-.52,1.54-1.04,2.31-1.47,.02-.01,0-.03-.01-.03-.85,.12-1.79,.19-2.65,.2-1.25,0-.54,1.96,.35,1.3Z"/>
      <path class="cls-1" d="M168.69,26.79s-.02-.03-.03-.02c-.3,.34-.66,.63-.98,.95-.32,.32-.63,.66-.98,.95-.87,.73,.89,1.86,1.17,.68,.1-.43,.27-.86,.41-1.28,.14-.42,.24-.87,.4-1.28Z"/>
      <path class="cls-1" d="M169.23,26.88c-.04,.84-.12,1.75-.25,2.59-.21,1.3,1.83,.98,1.28-.17-.37-.77-.71-1.62-.99-2.42,0-.02-.03-.02-.03,0Z"/>
      <path class="cls-1" d="M173.06,52.29c1.21-.86,1.2-2.44,.26-3.48-.36-.4-.93-.29-1.3,0-.48,.38-.09,.69-.14,1.12,.43,.42,.14,.78-.85,1.08-.41-.12-.72-.35-.95-.68-.61-.72-.65-1.58-.37-2.45,.48-1.51,1.59-2.66,2.5-3.94,.65-.52,1.11-1.29,1.21-2.26,.18-1.76-.46-3.55-1.35-5.05-1.15-1.92-3.64-3.56-3.77-5.91,0-.02-.03-.02-.03,0-.66,2.24,1.83,4.08,2.83,5.83,.8,1.39,1.96,4.05,.95,5.63-1.16,1.79-2.33,.21-3.6-.21-.34-.12-.75,.13-.84,.48-.03,.11-.05,.21-.08,.32-.09,.34,0,.72,.26,.97,.98,.94,2.26,1.15,3.36,.8-2.07,2.1-4.43,4.38-2.13,7.04,.98,1.13,2.77,1.66,4.06,.74Z"/>
      <path class="cls-1" d="M168.66,19.02c-.77-.03-.75,1.25,0,1.18,.82-.08,1.63,.13,2.17,.77,.03,.04,.09,0,.08-.05-.25-1.1-1.14-1.85-2.25-1.9Z"/>
      <path class="cls-1" d="M169.08,17.4c-.66-.28-1.86-.57-2.35,.12-.12,.17-.1,.44,0,.61,.01,.02,.02,.04,.04,.06,.24,.39,.69,.35,.93,.08,.95-.47,2.44,.09,3.04,.84,.01,.02,.03,0,.03-.02-.4-.78-.86-1.34-1.68-1.69Z"/>
      <path class="cls-1" d="M173.08,17.21c-.68,.4-.83,1.44-.68,2.15,.02,.09,.16,.09,.18,0,.08-.3,.22-.57,.43-.81,.2-.22,.46-.35,.66-.56,.37-.4-.1-1.07-.6-.77Z"/>
      <path class="cls-1" d="M172.07,14.05c-.68,.94-.82,2-.4,3.08,0,.02,.03,.01,.03,0,.12-.89,.62-1.78,1.3-2.37,.61-.53-.4-1.44-.92-.71Z"/>
      <path class="cls-1" d="M170.86,14.13c.27-.78-1.22-.91-1.01,0,.12,.53,.3,1.29,.7,1.68,.02,.02,.07,.02,.08-.02,.05-.25,.01-.51,.03-.77,.03-.31,.1-.6,.2-.89Z"/>
      <path class="cls-1" d="M170.81,32.3c.87,.19,.87-1.24,0-1.04-.74,.17-1.39,.06-2.04-.34-.03-.02-.06,.02-.04,.05,.51,.65,1.27,1.16,2.08,1.34Z"/>
      <path class="cls-1" d="M171.94,34.27c.16,.05,.33-.01,.45-.12,.02-.02,.05-.05,.07-.07,.1-.1,.13-.28,.05-.4-.28-.43-.75-.29-1.2-.35-.56-.08-1.1-.28-1.59-.55-.02,0-.03,.01-.02,.02,.61,.69,1.37,1.17,2.25,1.47Z"/>
      <path class="cls-1" d="M172.14,35.58c.19,.22,.35,.47,.46,.73,.22,.53,1,.14,.7-.29-.21-.3-.45-.58-.74-.81-.27-.21-.61-.3-.94-.36-.03,0-.06,.03-.03,.05,.21,.21,.36,.45,.55,.68Z"/>
      <path class="cls-1" d="M167.58,30.89c-.4,.38-.68,.76-.93,1.26-.23,.47-.48,.94-.4,1.46,.06,.41,.66,.42,.84,.11,.24-.4,.2-.91,.3-1.36,.1-.47,.21-.93,.32-1.4,.02-.08-.07-.13-.13-.08Z"/>
      <path class="cls-1" d="M167.99,36.29c.17,.12,.42,.02,.52-.14,.26-.42,.02-.8-.09-1.24-.13-.53-.17-1.06-.16-1.6,0-.04-.07-.07-.09-.02-.23,.52-.4,1.06-.48,1.62-.08,.53-.18,1.03,.3,1.37Z"/>
      <path class="cls-1" d="M170.53,37.9c-.02-.49-.31-.85-.51-1.29-.24-.52-.41-1.06-.62-1.59,0-.01-.03-.02-.03,0-.11,.56-.11,1.11-.05,1.67,.06,.54,.08,1.1,.45,1.52,.25,.29,.78,.06,.76-.32Z"/>
      <path class="cls-1" d="M171.5,40.79c.5-.86,.3-1.77-.2-2.55-.01-.02-.04,0-.03,.02,.31,.71-.04,1.44-.55,1.93-.52,.5,.41,1.24,.78,.6Z"/>
      <path class="cls-1" d="M169.08,26.44c.33,0,.53-.31,.48-.62,0-.03-.01-.05-.02-.08-.09-.46-.83-.46-.92,0,0,.03-.01,.05-.02,.08-.06,.31,.14,.62,.48,.62Z"/>
      <path class="cls-1" d="M169.65,45.28c.08-.08,.03-.25-.1-.24-.43,.03-.86,.02-1.28-.08-.42-.1-.85-.1-1.28-.19-1.26-.26-1.52,1.7-.23,1.74,.59,.02,1.15,0,1.68-.29,.45-.25,.86-.57,1.22-.93Z"/>
      <path class="cls-1" d="M162.63,25.5c-.64-.92-1.43-1.74-2.16-2.6-.1-.12-.32,0-.27,.15,.4,1.05,.74,2.13,1.24,3.14,.39,.79,1.68,.03,1.18-.69Z"/>
      <path class="cls-1" d="M159.53,26.4c.09,.72,1.1,.75,1.14,0,.06-1.01-.49-2.1-1.02-2.93-.11-.17-.36-.06-.32,.13,.1,.48,.14,.96,.18,1.45,.03,.45-.03,.91,.02,1.35Z"/>
      <path class="cls-1" d="M158.32,23.74c-.04-.09-.18-.06-.2,.03-.14,.44-.18,.9-.31,1.35-.13,.47-.33,.89-.51,1.34-.27,.67,.88,1.02,1.1,.3,.29-.92,.35-2.15-.08-3.02Z"/>
      <path class="cls-1" d="M156.62,23.86c-.06-.2-.3-.16-.37,0-.32,.77-.55,1.5-1.01,2.21-.41,.62,.68,1.23,.98,.57,.38-.83,.67-1.87,.4-2.78Z"/>
      <path class="cls-1" d="M154.71,23.31c-.02-.08-.13-.11-.19-.05-.59,.65-1,1.46-1.58,2.13-.57,.65,.45,1.45,.94,.73,.55-.79,1.03-1.82,.82-2.81Z"/>
      <path class="cls-1" d="M152.29,22.45c-.44,.69-.99,1.29-1.68,1.74-.88,.59,.25,1.8,.83,1.07,.62-.78,1.08-1.64,1.32-2.62,.07-.29-.32-.45-.48-.2Z"/>
      <path class="cls-1" d="M162.35,15.54s0-.04-.02-.03c-1,.53-1.88,1.24-2.14,2.39-.21,.89-.06,2.29,.97,2.57,.37,.1,.69-.24,.61-.61-.16-.68-.73-1.1-.76-1.85-.05-.99,.57-1.92,1.34-2.47Z"/>
      <path class="cls-1" d="M167.52,14.05c-.73-.06-.67,1.22,.14,1.05,.55-.12,1.2-.15,1.71,.13,.01,0,.03,0,.02-.02-.22-.3-.4-.56-.72-.77-.35-.22-.74-.35-1.15-.39Z"/>
      <path class="cls-1" d="M163.6,11.32c1.89,.79,4.85,.65,6.46-.71,.14-.12,.18-.34,.14-.51-.02-.06-.03-.13-.05-.19-.03-.11-.13-.18-.25-.19-.26-.01-.37,.02-.58,.14-.6,.33-.94,.77-1.65,1.02-1.25,.44-2.77,.81-4.06,.41-.02,0-.03,.02,0,.03Z"/>
      <path class="cls-1" d="M169.75,202.72c.39-.24,.82-.42,1.22-.63,.4-.22,.8-.46,1.22-.64,.42-.18,.43-.81,.14-1.1-.31-.31-.88-.25-1.1,.14-.2,.36-.47,.7-.71,1.04-.27,.38-.5,.8-.79,1.17-.01,.01,0,.04,.02,.03Z"/>
      <path class="cls-1" d="M172.55,202.49c-.84,.29-1.75,.55-2.62,.74-.02,0-.02,.03,0,.03,.86,.14,1.78,.34,2.62,.58,1.18,.34,1.07-1.72,0-1.35Z"/>
      <path class="cls-1" d="M172.48,205.95c.32-.41,.09-.93-.36-1.1-.4-.15-.79-.36-1.18-.54-.39-.18-.81-.33-1.19-.53-.02,0-.03,.01-.02,.03,.29,.33,.53,.7,.8,1.04,.27,.34,.57,.67,.8,1.03,.27,.41,.85,.47,1.15,.07Z"/>
      <path class="cls-1" d="M170.4,206.47c-.42-.75-.82-1.6-1.16-2.39,0-.02-.03-.02-.03,0,.01,.9-.02,1.85-.12,2.74-.11,1.09,1.92,.74,1.3-.35Z"/>
      <path class="cls-1" d="M168,206.63c.08-.45,.22-.89,.34-1.32,.12-.44,.19-.89,.33-1.32,0-.02-.02-.03-.03-.02-.28,.35-.61,.66-.91,.99-.3,.33-.58,.69-.9,.99-.89,.84,.97,1.79,1.17,.68Z"/>
      <path class="cls-1" d="M166.18,205.06c.65-.54,1.4-1.07,2.12-1.52,.02-.01,0-.03-.01-.03-.83,.16-1.75,.3-2.6,.35-1.27,.08-.52,2.03,.49,1.19Z"/>
      <path class="cls-1" d="M165.63,202.76c.86,0,1.8,.08,2.65,.2,.02,0,.03-.02,.01-.03-.78-.43-1.6-.95-2.31-1.47-.89-.65-1.6,1.3-.35,1.3Z"/>
      <path class="cls-1" d="M167.87,199.93c-.28-1.18-2.04-.05-1.17,.68,.35,.29,.65,.63,.98,.95,.32,.32,.68,.61,.98,.95,.01,.01,.03,0,.03-.02-.16-.42-.26-.86-.4-1.28-.14-.42-.31-.85-.41-1.28Z"/>
      <path class="cls-1" d="M168.97,199.82c.13,.83,.21,1.74,.25,2.59,0,.02,.03,.02,.03,0,.28-.8,.62-1.66,.99-2.42,.55-1.15-1.49-1.47-1.28-.17Z"/>
      <path class="cls-1" d="M173.06,177c-1.3-.92-3.09-.39-4.06,.74-2.3,2.66,.05,4.94,2.13,7.04-1.1-.35-2.38-.14-3.36,.8-.26,.25-.34,.63-.26,.97,.03,.11,.05,.21,.08,.32,.09,.34,.5,.59,.84,.48,1.26-.42,2.44-2.01,3.6-.21,1.01,1.57-.15,4.23-.95,5.63-1,1.75-3.49,3.59-2.83,5.83,0,.02,.03,.01,.03,0,.14-2.35,2.63-3.99,3.77-5.91,.89-1.49,1.53-3.28,1.35-5.05-.1-.97-.57-1.74-1.21-2.26-.9-1.28-2.02-2.43-2.5-3.94-.28-.88-.23-1.74,.37-2.45,.22-.34,.54-.56,.95-.68,.99,.3,1.28,.65,.85,1.08,.05,.43-.34,.74,.14,1.12,.38,.29,.94,.4,1.3,0,.94-1.04,.95-2.62-.26-3.48Z"/>
      <path class="cls-1" d="M171.49,222.53c1.78-1.39,2.15-3.85,.35-5.45-2.57-2.3-6.95-1.27-10.2-.15-1.12,3.25-2.15,7.63,.15,10.2,1.6,1.8,4.06,1.43,5.45-.35,.26,.19,.53,.36,.81,.52,1.44,.81,3.75,1.89,5.46,1.49,.4-1.7-.68-4.02-1.49-5.46-.16-.28-.33-.55-.52-.81Zm-5.88,3.11c-.82,1.19-2.23,.84-2.99-.2-1.61-2.2-1.3-5.5-.75-8.28,2.77-.55,6.08-.86,8.28,.75,1.04,.76,1.39,2.17,.2,2.99-.07,.05-.13,.1-.18,.16-.42-.37-.88-.71-1.37-.99-1.51-.88-3.36-1.32-5.11-1.1-.22,1.75,.22,3.6,1.1,5.11,.28,.49,.62,.95,.99,1.37-.06,.05-.11,.11-.16,.18Zm5.78,1.29c-.9-.2-1.79-.47-2.62-.87-1.24-.6-2.37-1.4-3.21-2.49-.95-1.22-1.55-2.79-1.65-4.36,1.57,.1,3.14,.7,4.36,1.65,1.09,.85,1.89,1.98,2.49,3.21,.4,.83,.68,1.72,.87,2.62,.02,.1,.04,.2,.06,.3-.1-.02-.2-.04-.3-.06Z"/>
      <path class="cls-1" d="M170.84,208.32c-.55,.64-1.36,.85-2.17,.77-.75-.07-.77,1.21,0,1.18,1.12-.05,2.01-.81,2.25-1.9,0-.04-.05-.08-.08-.05Z"/>
      <path class="cls-1" d="M169.08,211.89c.82-.35,1.29-.91,1.68-1.69,0-.02-.01-.04-.03-.02-.61,.75-2.1,1.31-3.04,.84-.24-.26-.68-.31-.93,.08-.01,.02-.02,.04-.04,.06-.1,.17-.12,.44,0,.61,.49,.68,1.69,.4,2.35,.12Z"/>
      <path class="cls-1" d="M173.01,210.74c-.21-.24-.35-.5-.43-.81-.02-.09-.16-.09-.18,0-.15,.71,0,1.74,.68,2.15,.5,.3,.96-.37,.6-.77-.2-.22-.46-.34-.66-.56Z"/>
      <path class="cls-1" d="M171.67,212.15c-.42,1.08-.28,2.15,.4,3.08,.53,.73,1.53-.18,.92-.71-.67-.59-1.18-1.48-1.3-2.37,0-.02-.02-.02-.03,0Z"/>
      <path class="cls-1" d="M170.63,213.5s-.06-.04-.08-.02c-.4,.4-.57,1.15-.7,1.68-.21,.91,1.28,.78,1.01,0-.1-.29-.17-.58-.2-.89-.02-.26,.01-.52-.03-.77Z"/>
      <path class="cls-1" d="M168.73,198.32s0,.07,.04,.05c.65-.4,1.3-.51,2.04-.34,.87,.2,.87-1.24,0-1.04-.81,.18-1.57,.69-2.08,1.34Z"/>
      <path class="cls-1" d="M169.69,196.49s0,.03,.02,.02c.5-.27,1.03-.47,1.59-.55,.45-.07,.92,.08,1.2-.35,.08-.12,.05-.31-.05-.4-.02-.02-.05-.05-.07-.07-.12-.11-.29-.17-.45-.12-.87,.3-1.63,.78-2.25,1.47Z"/>
      <path class="cls-1" d="M172.6,192.97c-.11,.27-.28,.51-.46,.73-.19,.23-.34,.47-.55,.68-.02,.02,0,.06,.03,.05,.33-.06,.68-.15,.94-.36,.29-.23,.53-.5,.74-.81,.3-.44-.47-.82-.7-.29Z"/>
      <path class="cls-1" d="M167.1,195.57c-.18-.31-.78-.3-.84,.11-.08,.53,.17,1,.4,1.46,.24,.5,.53,.87,.93,1.26,.06,.06,.15,0,.13-.08-.11-.46-.22-.93-.32-1.4-.1-.45-.07-.95-.3-1.36Z"/>
      <path class="cls-1" d="M168.27,195.97c-.01-.54,.03-1.07,.16-1.6,.11-.44,.35-.82,.09-1.24-.1-.16-.35-.26-.52-.14-.48,.34-.38,.84-.3,1.37,.09,.56,.25,1.1,.48,1.62,.02,.04,.09,.02,.09-.02Z"/>
      <path class="cls-1" d="M169.39,194.27c.21-.53,.38-1.07,.62-1.59,.2-.44,.49-.8,.51-1.29,.02-.38-.51-.6-.76-.32-.37,.42-.39,.98-.45,1.52-.06,.56-.06,1.12,.05,1.67,0,.02,.03,.01,.03,0Z"/>
      <path class="cls-1" d="M171.29,191.05c.51-.78,.71-1.7,.2-2.55-.37-.63-1.3,.11-.78,.6,.51,.49,.85,1.23,.55,1.93,0,.02,.02,.04,.03,.02Z"/>
      <path class="cls-1" d="M168.61,203.47s.01,.05,.02,.08c.09,.46,.83,.46,.92,0,0-.03,.01-.05,.02-.08,.06-.31-.14-.62-.48-.62s-.53,.31-.48,.62Z"/>
      <path class="cls-1" d="M169.54,184.25c.13,0,.18-.16,.1-.24-.36-.37-.77-.69-1.22-.93-.52-.28-1.09-.31-1.68-.29-1.29,.04-1.03,1.99,.23,1.74,.43-.09,.85-.09,1.28-.19,.43-.1,.85-.11,1.28-.08Z"/>
      <path class="cls-1" d="M161.45,203.09c-.5,1-.84,2.09-1.24,3.14-.06,.15,.17,.27,.27,.15,.73-.86,1.52-1.68,2.16-2.6,.5-.72-.79-1.48-1.18-.69Z"/>
      <path class="cls-1" d="M159.65,205.82c.53-.83,1.09-1.92,1.02-2.93-.05-.75-1.05-.72-1.14,0-.06,.44,0,.9-.02,1.35-.03,.49-.08,.97-.18,1.45-.04,.19,.21,.3,.32,.13Z"/>
      <path class="cls-1" d="M157.3,202.83c.18,.45,.38,.87,.51,1.34,.12,.45,.17,.9,.31,1.35,.03,.09,.16,.12,.2,.03,.43-.87,.37-2.1,.08-3.02-.23-.71-1.37-.37-1.1,.3Z"/>
      <path class="cls-1" d="M155.23,203.22c.46,.71,.69,1.44,1.01,2.21,.07,.16,.31,.2,.37,0,.27-.91-.01-1.95-.4-2.78-.3-.66-1.39-.05-.98,.57Z"/>
      <path class="cls-1" d="M152.95,203.89c.58,.67,.99,1.48,1.58,2.13,.05,.06,.17,.03,.19-.05,.21-.98-.28-2.01-.82-2.81-.5-.72-1.51,.08-.94,.73Z"/>
      <path class="cls-1" d="M152.77,206.64c-.25-.97-.7-1.83-1.32-2.62-.58-.73-1.71,.49-.83,1.07,.68,.46,1.24,1.05,1.68,1.74,.16,.25,.55,.09,.48-.2Z"/>
      <path class="cls-1" d="M161.16,208.82c-1.03,.28-1.18,1.68-.97,2.57,.27,1.16,1.15,1.86,2.14,2.39,.02,.01,.03-.02,.02-.03-.77-.56-1.39-1.49-1.34-2.47,.04-.75,.61-1.18,.76-1.85,.08-.36-.23-.71-.61-.61Z"/>
      <path class="cls-1" d="M167.66,214.19c-.81-.17-.87,1.11-.14,1.05,.41-.04,.8-.17,1.15-.39,.32-.21,.5-.47,.72-.77,.01-.01,0-.03-.02-.02-.51,.28-1.16,.25-1.71,.13Z"/>
      <path class="cls-1" d="M167.67,218.41c.71,.25,1.05,.68,1.65,1.02,.22,.12,.32,.16,.58,.14,.11,0,.22-.07,.25-.19,.02-.06,.03-.13,.05-.19,.04-.17,0-.39-.14-.51-1.61-1.36-4.57-1.5-6.46-.71-.02,0-.01,.04,0,.03,1.29-.4,2.81-.03,4.06,.41Z"/>
      <path class="cls-1" d="M2.77,54.62v120.73c0,.24,.2,.44,.44,.44s.44-.2,.44-.44V54.62c0-.24-.2-.44-.44-.44s-.44,.2-.44,.44Z"/>
      <path class="cls-1" d="M170.36,54.62v120.73c0,.24,.2,.44,.44,.44s.44-.2,.44-.44V54.62c0-.24-.2-.44-.44-.44s-.44,.2-.44,.44Z"/>
      <path class="cls-1" d="M119.21,2.31H54.79c-.24,0-.44,.2-.44,.44s.2,.44,.44,.44H119.21c.24,0,.44-.2,.44-.44s-.2-.44-.44-.44Z"/>
      <path class="cls-1" d="M119.21,226.11H54.79c-.24,0-.44,.2-.44,.44s.2,.44,.44,.44H119.21c.24,0,.44-.2,.44-.44s-.2-.44-.44-.44Z"/>
    </g>
  </g>
</svg>