<?xml version="1.0" encoding="UTF-8"?>
<svg id="Layer_2" data-name="Layer 2" xmlns="http://www.w3.org/2000/svg" viewBox="0 0 73.36 35.14">
  <defs>
    <style>
      .cls-1 {
        fill: #d1caa1;
      }
    </style>
  </defs>
  <g id="Layer_4" data-name="Layer 4">
    <path class="cls-1" d="M17.7,28.32c-.05,.02-.1,.06-.12,.11-.03,.07-.05,.16-.08,.25-.16-.03-.32-.01-.48,.11-.56,.41-.44,1.53-.36,2.1,.05,.35,.23,.85,.49,1.34,.23,.68,.72,1.28,1.35,1.57,.1,.05,.22,.02,.29-.07,.33,.02,.67-.14,.98-.59,1.01-1.41-.02-3.77-1.46-4.64-.29-1.62-.86-3.13-1.6-4.58,.09,.09,.18,.18,.27,.27,.53,.52,1.12,1.16,1.77,1.59,.23,1.27,1.7,2.12,2.84,2.41,.18,.05,.33-.14,.28-.31-.35-1.24-1.69-2.14-2.87-2.52-.47-.48-1.07-.88-1.53-1.32-.66-.63-1.23-1.29-1.74-2.05-.03-.04-.08-.05-.13-.04-.7-1.14-1.47-2.25-2.25-3.36-.47-.66-.97-1.43-1.53-2.19,1.52,1.46,3.27,2.97,5.19,3.9-.08,.08-.12,.21-.06,.33,.75,1.45,2.49,2.86,4.18,2.84,.22,0,.35-.23,.3-.42-.3-1.02-1.21-1.95-2.09-2.5-.44-.27-1.39-.76-1.87-.36-1.92-1.35-3.81-2.74-5.74-4.09-.04-.03-.09,0-.1,.04-.91-1.22-1.96-2.4-3.2-3.1,6.65,1.58,13.47,2.67,19.93,3.83,.36,.07,.72,.12,1.08,.18,1.43,1.1,2.67,2.29,3.79,3.55,.03,1.09-.15,2.08-.67,3.12-.16,.32-.33,.64-.49,.95-.51-.27-1.17-.28-1.69,.02-.57,.32-.94,.9-1.07,1.54-.1,.5-.15,1.28,.09,1.84,.07,.31,.28,.57,.61,.65,1.47,.38,3.01-1.68,2.81-3.03-.04-.28-.16-.52-.32-.7,.64-1.25,1.11-2.66,1.06-4.02,1.54,1.78,2.86,3.69,4.18,5.66-.82,.94-1.49,2.13-2.01,3.27-.39-.11-.77-.07-1.12,.08-.26-.03-.54,.03-.79,.2-.11,.07-.05,.22,.07,.23,.03,0,.06,0,.09,0-.12,.12-.24,.26-.34,.41-.44,.66-.9,1.79-.55,2.58,.48,1.07,1.8-.12,2.13-.7,.04-.07,.07-.16,.11-.24,.54-.39,.88-1.48,1.02-2.07,.03-.12-.03-.25-.14-.31-.08-.05-.16-.08-.24-.11,.78-.91,1.35-2.07,1.92-3.13,.84,1.25,1.69,2.54,2.57,3.82-.13,.3-.18,.6-.15,.88-.15,1.69,1.02,3.62,2.82,3.57,.11,0,.23-.09,.24-.2,.06-.58-.04-1.1-.23-1.57-.07-1.29-.97-2.54-2.15-3.03-.04-.02-.08-.01-.12-.01-.03-.04-.09-.06-.14-.04-1.09-1.9-2.25-3.93-3.56-5.88,1.41,1.11,2.97,2.19,4.61,2.89-.12,.09-.18,.23-.13,.45,.02,.1,.13,.13,.22,.12,.34-.07,.5-.25,.91-.15,.48,.12,.94,.32,1.38,.56,.51,.29,1.1,.63,1.54,1.06-.63-.16-1.22-.41-1.79-.72,.14,.05,.29,.1,.43,.15,.09,.03,.15-.08,.07-.13-.6-.36-1.22-.64-1.87-.88-.21-.08-.37,.25-.2,.38,1.11,.94,2.52,1.62,3.96,1.83,.22,.03,.38-.18,.27-.38-.61-1.05-2-1.79-3.08-2.23-.18-.07-.68-.21-1.11-.22-1.93-1.1-3.85-2.09-5.66-3.42-.31-.44-.63-.87-.96-1.3,1.4,.82,3.1,1.38,4.71,1.66,0,.06,.03,.12,.08,.16,.16,.13,.34,.22,.51,.33,.17,.34,.63,.68,1.05,.88,.76,.35,2.33,.91,2.92-.07,.53-.89-.92-1.61-1.53-1.85-.83-.32-2.05-.53-2.77,.12-1.88-.57-3.75-.92-5.5-1.91-1.49-1.84-3.17-3.46-5.11-4.59,5.94,1.02,11.91,1.79,17.9,2.18,1.26,.77,2.62,1.37,3.97,1.97,.8,.83,1.58,1.68,2.22,2.64,.46,.69,.83,1.42,1.2,2.14,0,0-.01,.01-.02,.02-.02,.03-.02,.06-.04,.09-.09,0-.18,.1-.12,.2-.1-.04-.25-.02-.29,.13-.37,1.37-.01,3.43,1.53,3.87,.12,.04,.26-.03,.31-.14,.75-1.47,.15-3.09-.93-4.22-.7-1.62-1.92-3.19-3.2-4.42,.57,.26,1.13,.52,1.68,.8,2.06,1.06,3.84,2.31,5.56,3.78-.13-.01-.3,.06-.31,.21-.16,1.77,1.74,3.03,3.37,2.64,.12-.03,.22-.17,.2-.29-.11-.76-.59-1.32-1.23-1.72-.31-.19-.79-.51-1.23-.62-1.13-1.32-2.53-2.44-4.1-3.39,1.32,.41,2.67,.77,4,1.12,.02,.02,.04,.03,.07,.04,.09,.02,.19,.04,.29,.06,.1,.03,.2,.06,.3,.08,.05,.07,.11,.13,.17,.19-.24-.02-.38,.33-.13,.47,.72,.43,1.5,.7,2.3,.88,.1,.05,.2,.09,.3,.13,.05,.02,.1-.01,.12-.05,.47,.08,.95,.14,1.43,.15,.16,0,.32-.2,.25-.36-.39-.87-1.19-1.39-2.08-1.69-.72-.24-1.75-.51-2.57-.33-1.85-.69-3.91-1.05-5.82-1.48-2.16-1.15-4.49-2.06-6.61-2.86,4.29,.26,8.58,.34,12.89,.19,.01,.02,.03,.04,.06,.04,1.32,.13,2.65,.44,3.91,.84,.7,.22,1.42,.5,2.14,.73-.4,.13-.68,.34-.31,.65-.02,.08-.02,.17,.05,.23,1.05,.93,2.66,1.44,4.01,.95,.14-.05,.24-.2,.18-.35-.43-1.17-1.72-1.63-2.88-1.65-1.63-.89-3.74-1.33-5.68-1.5,1.83-.09,3.67-.22,5.51-.39,1.06,.75,5.28,.69,4.88-1.3-.22-1.11-2.12-.84-2.87-.67-.34,.08-2.68,.93-2.28,1.66-2.39-.05-4.78-.04-7.17-.01,.57-.23,1.13-.5,1.67-.78,.98-.5,1.99-.96,2.98-1.46,1.19,.49,5.12,.33,4.18-1.81-.75-1.7-4.1,.12-4.57,1.29-.04,.1-.04,.23,.03,.32-.83,.34-1.63,.81-2.4,1.21-.93,.48-1.88,.88-2.84,1.24-3.62,.06-7.24,.14-10.85,.05-2.69-.06-5.35-.28-8-.6,3.36-.36,6.62-1.44,9.8-2.78,.01,0,.02,.01,.03,.01,1.23,.1,2.59,.33,3.9,.36-.01,.05-.02,.11-.01,.16-.1,.03-.2,.08-.29,.15-.18,.14-.13,.38,.08,.45,1.52,.52,3.67,.44,4.72-.95,.08-.11,.12-.31-.01-.4-.87-.63-2.24-.53-3.23-.25-.26,.07-.6,.2-.86,.38-1.27-.07-2.55-.17-3.81-.13,2.38-1.02,4.71-2.18,6.99-3.28,.02,0,.04,0,.06,0,0,.12,.03,.22,.12,.28,.07,.06,.17,.06,.24,0,.07-.07,.12-.16,.17-.25,1.01,0,2.14-.23,2.98-.52,.8-.28,2.18-1.16,1.22-2.12-1.1-1.11-3.52,.56-4.41,1.82-.25,.13-.51,.24-.79,.31-.12,.03-.16,.14-.13,.25-2.46,1.02-4.85,2.13-7.27,3.17,.88-.79,1.57-1.81,2.17-2.85,.35,.13,.76,.09,1.03-.18,.77-.76,.79-2.45,.42-3.41-.08-.22-.34-.28-.51-.12-.57,.55-2.03,2.43-1.35,3.3,0,.05,0,.1,.03,.14-.84,1.23-1.44,2.56-2.62,3.46-2.9,1.21-5.85,2.28-9.05,2.86-.04,0-.05,.04-.05,.07-4.11-.51-8.18-1.24-12.29-1.97-2.41-.42-4.88-.84-7.37-1.28,4.94,.17,9.7-1.45,14.34-3.42,.98-.07,1.96-.13,2.93,0,.75,.11,1.45,.31,2.14,.55-.1,.1-.14,.27-.06,.39,.41,.58,.98,.94,1.61,1.1,.56,.38,1.18,.62,1.85,.79,.12,.03,.24-.03,.3-.12,.24,0,.47-.06,.6-.29,.22-.41,.03-.93-.22-1.28-.59-.83-1.82-1.37-2.86-1.17-.4-.16-.85-.28-1.21-.08-.1,.06-.07,.19,0,.24,.01,0,.03,.01,.04,.02-1.28-.54-2.8-.67-4.22-.55,2.18-.94,4.33-1.93,6.47-2.83,.06,.01,.11,.03,.16,.04,0,0,.02,0,.03,.01,.52,.16,1.09,.04,1.61-.18,.98-.27,1.94-.8,2.44-1.38,.15-.18,.24-.35,.28-.5,.08-.1,.17-.19,.23-.29,.1-.16-.01-.41-.2-.44-.12-.02-.23-.02-.34-.03-.52-.38-1.51-.5-2.08-.32-.85,.26-1.92,.75-2.39,1.55-.19,.32-.24,.73-.11,1.06-3.86,1.35-7.48,3.13-11.22,4.54,.4-.35,.77-.76,1.11-1.2,.88-1.14,1.7-2.29,2.58-3.41,.18,.03,.37,.03,.52,0,1.42-.19,2.44-1.21,2.34-2.69-.03-.47-.14-1.18-.7-1.31-.51-.12-1.01,.21-1.37,.53-.99,.87-2.14,2.43-2.08,3.82,0,.06,.04,.13,.1,.18-1.08,1.5-1.89,3.39-3.33,4.38-.66,.24-1.33,.47-2.01,.67-.04,0-.08,.01-.12,.01-.03,0-.05,.02-.06,.04-2.62,.79-5.35,1.3-8.31,1.27-.03,0-.05,.01-.07,.03-5.41-.97-10.92-2.08-16.23-3.61,2,.13,3.98-.26,5.92-.96,2-.45,3.76-.08,5.64,.32-.02,.02-.04,.02-.06,.02-.07,0-.11,.06-.12,.11-.1-.01-.2-.01-.3-.03-.31-.09-.41,.39-.11,.48,.12,.03,.25,.06,.38,.08,.01,.65,.77,.82,1.49,.73,.68,.04,1.42-.21,1.9-.63,.13-.11,.11-.36-.01-.46-.66-.54-2.18-1.22-2.95-.56-1.28-.4-2.72-.83-4.06-.79,1.6-.72,3.18-1.62,4.72-2.57,1.79-.36,3.43-.51,5.16-.44-.2,.32-.31,.68-.14,1.02,.3,.6,.98,.5,1.49,.26,1.2,.38,2.49,.37,3.69-.16,.19-.08,.25-.26,.16-.44-.69-1.46-3.36-2.38-4.67-1.28-.06,.05-.13,.12-.2,.18-1.43-.2-2.86-.2-4.26,.09,2.01-1.28,3.96-2.58,5.83-3.67,.05,.02,.1,.03,.16,0,.03-.01,.06-.03,.09-.05,.64,.37,1.91,.12,2.43-.07,.59-.22,2-1.2,1.6-2.01-.34-.67-1.66-.05-2.1,.15-.51,.23-1.01,.49-1.47,.81-.27,.1-.52,.23-.74,.42-.06,.05-.02,.14,.05,.15-.03,.04-.06,.07-.09,.11-2.8,1.29-5.46,3.2-8.17,4.92,.82-.92,1.39-2.14,1.8-3.4-.2,.08-.4,.14-.62,.17-.56,1.35-1.25,2.62-2.24,3.86,0,.01,0,.03-.01,.04-3.73,2.27-7.58,3.99-12,3.05-.23-.07-.46-.15-.68-.22-.17,.16-.39,.28-.66,.3-.16,.01-.31,.02-.47,.02,2.07,.69,4.18,1.3,6.31,1.84,0,0,.01,.02,.03,.02,3.22,.6,5.47,4.31,7.28,7.05-.07-.09-.23,0-.2,.11,.61,2.08,.16,3.78-.35,5.66-.08-.11-.18-.21-.28-.31-.15-.13-.35-.11-.49,.02-.4,.36-.73,.81-.95,1.3-.05,.02-.1,.05-.12,.11-.42,1.17-.3,2.42,.11,3.57,.07,.21,.29,.27,.48,.17,1.35-.69,2.15-2.85,1.56-4.33,.9-1.89,1.21-4.48,.27-6.27,.16,.25,.32,.49,.48,.72,1.76,2.57,2.93,5.12,3.58,7.97Zm.15,1.22s.08,.09,.11,.14c.1,.59,.18,1.19,.24,1.81,0,.04,.02,.06,.04,.08-.38-.54-.48-1.32-.39-2.02Zm.63,1.24c.13,.4,.21,.82,.22,1.24-.19-.12-.33-.27-.45-.44,.08,.06,.21,.02,.22-.11,.01-.23,.01-.46,.01-.69Zm-.72,1.51c-.13-.21-.23-.44-.33-.66-.03-.17-.04-.35-.03-.52,.15,.72,.51,1.26,1.23,1.16,.03,0,.05-.02,.07-.03-.01,.26-.06,.52-.13,.77-.3-.1-.59-.35-.81-.72Zm1.82-.02c-.12,.4-.31,.62-.52,.72,.3-1.16,.05-2.53-.63-3.51,0-.06-.01-.11-.02-.17,.8,.75,1.45,2.04,1.17,2.96Zm.27-5.86c.53,.29,1.02,.61,1.33,1.14-.72-.28-1.28-.72-1.73-1.33,.1,.07,.19,.15,.3,.22,.04,.03,.08,0,.1-.04Zm.75-3.63c-1.16-.19-2.08-1.08-2.84-1.97-.01-.02-.02-.03-.04-.04,1.16,.04,2.35,.94,2.88,2.01Zm10,5.29c-.46,.39-.71-.25-.77-.64,.04-.09,.1-.18,.15-.27,.05,.17,.08,.37,.24,.46,.28,.15,.61-.36,.73-.52,.02-.03,.03-.05,.04-.08,0,.4-.09,.79-.4,1.05Zm1.27-.96c-.1,.15-.23,.33-.38,.51,.1-.36,.1-.74,.01-1.12,.05,0,.1,0,.13-.05,.19-.27,.37-.57,.54-.87,.16,.46-.03,1.1-.3,1.53Zm-.04-1.93c-.16,.35-.3,.71-.4,1.08-.02-.06-.03-.12-.06-.18-.13-.29-.56-.17-.48,.15,.05,.2,.09,.42,.1,.65-.02-.06-.07-.1-.14-.13-.09-.03-.18-.06-.27-.08-.08-.02-.17,0-.22,.07-.02,.02-.05,.04-.08,.06,.02-.02,.03-.04,.05-.05,.06-.06-.03-.16-.09-.11-.08,.06-.17,.15-.26,.23-.05-.06-.13,.02-.09,.08-.02,.02-.05,.04-.07,.06,.02-.95,.45-2.06,1.57-1.97,.19,.01,.33,.07,.45,.14Zm3.17,6.15c0,.21-.05,.4-.1,.59-.03,0-.07,0-.1,.03-.1,.08-.18,.14-.26,.16-.03-.02-.06-.03-.1-.06-.08-.07-.18-.03-.22,.04-.08-.02-.15-.03-.24,0-.08,.04-.13,.13-.08,.22,.09,.14,.19,.22,.3,.26,.09,.05,.17,.09,.3,.09-.05,.07-.11,.14-.17,.2-.36,.33-.77,.66-.77,0,0-.77,.41-1.83,1.09-2.26,.23,.13,.37,.34,.36,.73Zm7.85,3.28c-.92-.09-1.58-.83-1.87-1.71,.49,.53,1.18,.96,1.79,1.25,.02,0,.03,0,.05,.01,.02,.14,.03,.3,.03,.45Zm-1.37-2.86c.45,.6,.93,1.18,1.19,1.85-.69-.36-1.48-.91-1.85-1.59-.01-.25,0-.49,.05-.72,.12,.16,.22,.33,.34,.49,.08,.12,.23,.07,.27-.03Zm2.71-6.84c-.71-.61-1.6-.83-2.49-1.03,.01-.02,.01-.04,0-.05,.41-.06,.86,.01,1.22,.12,.48,.14,1.45,.46,1.64,1.01,.21,.63-.9,.59-1.89,.29,.43,.09,.86,.14,1.33,.14,.24,0,.36-.33,.18-.48Zm12.13,3.97c-.51-.41-.76-1.04-.68-1.68,.31,.54,.58,1.08,.68,1.68Zm4.78-1.58c.17,.09,.34,.18,.51,.29,.31,.27,.56,.59,.74,.96-.86-.03-1.55-.69-1.84-1.5,.19,.1,.41,.16,.59,.26Zm2.45-2.37c-.24-.08-.49-.15-.73-.24,.01-.04,0-.1-.04-.12-.08-.04-.16-.08-.24-.12,.92,.11,1.81,.34,2.36,1.09-.48-.03-.94-.11-1.39-.22,.22-.02,.28-.31,.05-.39Zm7.28-2.34c-1.01,.24-2.04-.12-2.92-.66,.14-.04,.28-.04,.42,.02,.16,.04,.21-.2,.06-.24-.04-.01-.07-.02-.11-.03,.38-.01,.77-.02,.85,0,.66,.11,1.34,.35,1.7,.92Zm-1.92-3.99c.07-.1,.15-.19,.24-.25,.36-.24,.76-.41,1.17-.52,.55-.14,1.91-.49,2.38,.03,.63,.7-1.72,1.13-2,1.16-.04,0-.11,0-.21,.01,.25-.1,.48-.23,.65-.36,.13-.1,.14-.3-.01-.38-.35-.18-.7-.21-1.09-.15-.11,.02-.16,.16-.05,.22,.16,.09,.34,.13,.52,.17-.52,.27-1.27,.49-1.6,.07Zm-2.48-2.8s-.04-.07-.08-.08c.02-.02,.05-.04,.07-.06,.21-.07,.42-.14,.64-.18,.25-.05,.51-.07,.76-.07-.16,.07-.32,.14-.49,.2-.04,.02-.41,.13-.66,.19-.08,0-.15,0-.23,.01,0,0-.02,0-.02-.01Zm.09,.4s.03-.07,.02-.11c.15,.02,.35,0,.57-.06,.16,.02,.32,.07,.49,.13,.07,.03,.12-.1,.05-.13-.08-.03-.16-.06-.24-.08,.55-.17,1.11-.44,1.23-.5,.16-.09,.1-.33-.06-.37-.34-.08-.71-.11-1.08-.09,.83-.42,1.68-.6,1.89,.07,.39,1.24-1.76,1.36-2.98,1.24,.03-.03,.07-.06,.11-.1Zm-10.79-.26c-.07,0-.15,0-.23,.01,.03-.02,.07-.04,.1-.07,.49-.02,.98-.08,1.44-.19,.12-.03,.08-.21-.04-.21-.03,0-.06,0-.1,0,.02,0,.05,0,.06,0,.55-.06,1.26-.13,1.8,.1-.86,.84-2.24,.93-3.41,.71,0,0,0-.02,0-.03,.12-.06,.26-.1,.4-.13,.11-.02,.08-.2-.03-.19Zm4.47-5.03c-.12,.05-.24,.1-.36,.14,.19-.19,.4-.37,.62-.53,.41-.29,2.03-1.41,2.45-.64,.47,.87-1.45,1.27-3.01,1.46,.14-.07,.28-.13,.42-.2,.14-.07,.03-.3-.11-.24Zm-6.93-.05s-.08,.1-.12,.14c-.01-.04-.04-.07-.08-.08,.14-.61,.44-1.17,.84-1.67,.08,.49,.06,1.02-.02,1.46-.06,.29-.15,.84-.49,.94-.07,.02-.17,.03-.26,.02,.12-.22,.25-.44,.36-.65,.07-.13-.11-.27-.22-.15Zm-9.46,2.15c-.3-.35-.66-.66-1.04-.92,.44,.09,.86,.28,1.19,.6,.24,.24,.56,.6,.54,.97,0,.18-.12,.25-.26,.28-.03-.04-.07-.08-.1-.12,.08-.28-.15-.61-.32-.81Zm-.36-6.29c.52-.43,1.17-.78,1.83-.94,.06-.02,.2-.03,.36-.04,0,.04,.03,.07,.08,.08,.37,.04,.73,.15,1.09,.26-.26,.3-.6,.59-.97,.84-.03-.03-.08-.05-.14-.04-.47,.12-.93,.27-1.39,.41,.2-.22,.27-.47-.02-.71-.08-.06-.17-.03-.21,.06-.04,.11-.06,.23-.11,.33-.33,.16-.64,.33-.95,.52-.02-.23,.12-.54,.42-.78Zm-8-1.3c.25-.31,1.49-1.74,1.77-.8,.34,1.14-.13,2.25-1.27,2.65-.22,.08-.47,.15-.71,.16,.01-.02,.03-.04,.04-.05,.5-.22,.86-.64,.79-1.29-.02-.14-.11-.22-.25-.23-.21,0-.48,0-.73,.06,.12-.18,.23-.35,.36-.51Zm-.78,1.68c.06,.07,.16,0,.16-.07,0-.06,0-.11,.01-.16,.06-.06,.12-.13,.18-.17,.05-.04,0-.11-.05-.11,.14-.16,.37-.22,.62-.23,0,.1-.03,.19-.06,.28-.3,.17-.56,.37-.82,.61-.02,0-.05,.01-.08,.02,0-.05,0-.1,.03-.15Zm-18.19,3.48c.37,.05,.77,.26,1.08,.46-.42,.22-.9,.24-1.36,.13,.02,0,.04,0,.05,0,.21-.02,.3-.27,.2-.41,.1,0,.12-.14,.03-.18Zm7.6-3.82c-.09-.02-.19-.03-.28-.04,.13,.02,.17-.17,.04-.2-.47-.13-.95-.24-1.43-.34,.33-.18,.69-.25,1.11-.16,.77,.15,1.69,.47,2.2,1.12-.96,.34-1.86,.29-2.77,.09,.1,0,.2-.01,.27-.06,.26-.03,.51-.05,.78,0,.26,.04,.35-.35,.09-.4Zm-2.11-.26c.07,0,.14,.01,.21,.02-.02,.03-.02,.08,.03,.09,.15,.04,.29,.09,.43,.13-.15,.08-.2,.27-.1,.38-.28-.08-.56-.16-.84-.26,.07-.14,.16-.27,.21-.31,.02-.02,.04-.03,.06-.05Zm1.86-4.44c.26-.15,.53-.31,.79-.44,.03-.01,.04-.03,.05-.05,.17-.03,.34-.09,.5-.21,.07-.06,.09-.13,.08-.19,.48-.26,1.06-.54,1.58-.53,.02,0,.03,0,.04,0-.06,.17-.18,.33-.29,.47-.3,.37-.61,.64-1.08,.78-.42,.13-.86,.2-1.3,.2-.1,0-.25,0-.41,0,0,0,.01-.01,.02-.02ZM12.8,26.39c-.02,.09-.05,.19-.07,.28s.07,.13,.14,.09c.09,.96-.36,2.07-1.05,2.66-.19-.61-.27-1.21-.27-1.83,.33-.6,.54-1.23,.99-1.76,.12,.17,.22,.35,.27,.56Z"/>
  </g>
</svg>